<?xml version="1.0" encoding="UTF-8"?>
<svg width="16px" height="16px" viewBox="0 0 16 16" version="1.1" xmlns="http://www.w3.org/2000/svg" xmlns:xlink="http://www.w3.org/1999/xlink">
    <!-- Generator: Sketch 52.4 (67378) - http://www.bohemiancoding.com/sketch -->
    <title>Icons / Arrow (Left)</title>
    <desc>Created with Sketch.</desc>
    <g id="Icons-/-Arrow-(Left)" stroke="none" stroke-width="1" fill="none" fill-rule="evenodd">
        <path d="M7.37614679,12.5785933 L0.256880734,5.4593272 C0.0856267247,5.28807319 0,5.0801225 0,4.83547399 C0,4.59082549 0.0856267247,4.38287479 0.256880734,4.21162078 L1.06422018,3.40428133 C1.23547419,3.23302732 1.44342489,3.1412842 1.68807339,3.12905197 C1.9327219,3.11681974 2.1406726,3.19633007 2.31192661,3.36758408 L8,9.05565748 L13.6880734,3.36758408 C13.8593274,3.19633007 14.0672781,3.11681974 14.3119266,3.12905197 C14.5565751,3.1412842 14.7645258,3.23302732 14.9357798,3.40428133 L15.7431193,4.21162078 C15.9143733,4.38287479 16,4.59082549 16,4.83547399 C16,5.0801225 15.9143733,5.28807319 15.7431193,5.4593272 L8.62385321,12.5785933 C8.4525992,12.7743117 8.2446485,12.8721712 8,12.8721712 C7.7553515,12.8721712 7.5474008,12.7743117 7.37614679,12.5785933 Z" id="ï¸" fill="#BBBBBB" transform="translate(8.000000, 8.000000) rotate(90.000000) translate(-8.000000, -8.000000) "></path>
    </g>
</svg>