<?xml version="1.0" encoding="UTF-8"?>
<svg width="16px" height="16px" viewBox="0 0 16 16" version="1.1" xmlns="http://www.w3.org/2000/svg" xmlns:xlink="http://www.w3.org/1999/xlink">
    <!-- Generator: Sketch 52.4 (67378) - http://www.bohemiancoding.com/sketch -->
    <title>Icons / Arrow (Down)</title>
    <desc>Created with Sketch.</desc>
    <g id="Icons-/-Arrow-(Down)" stroke="none" stroke-width="1" fill="none" fill-rule="evenodd">
        <path d="M7.37614679,12.4507645 L0.256880734,5.33149844 C0.0856267247,5.16024443 0,4.95229373 0,4.70764523 C0,4.46299673 0.0856267247,4.25504603 0.256880734,4.08379202 L1.06422018,3.27645257 C1.23547419,3.10519856 1.44342489,3.01345544 1.68807339,3.00122321 C1.9327219,2.98899098 2.1406726,3.06850131 2.31192661,3.23975532 L8,8.92782872 L13.6880734,3.23975532 C13.8593274,3.06850131 14.0672781,2.98899098 14.3119266,3.00122321 C14.5565751,3.01345544 14.7645258,3.10519856 14.9357798,3.27645257 L15.7431193,4.08379202 C15.9143733,4.25504603 16,4.46299673 16,4.70764523 C16,4.95229373 15.9143733,5.16024443 15.7431193,5.33149844 L8.62385321,12.4507645 C8.4525992,12.646483 8.2446485,12.7443425 8,12.7443425 C7.7553515,12.7443425 7.5474008,12.646483 7.37614679,12.4507645 Z" id="ï¸" fill="#196ECF"></path>
    </g>
</svg>