<?xml version="1.0" encoding="UTF-8"?>
<svg width="557px" height="520px" viewBox="0 0 557 520" version="1.1" xmlns="http://www.w3.org/2000/svg" xmlns:xlink="http://www.w3.org/1999/xlink">
    <!-- Generator: Sketch 54.1 (76490) - https://sketchapp.com -->
    <title>Group 2</title>
    <desc>Created with Sketch.</desc>
    <g id="Document-Detail-(DOC-DTLS)" stroke="none" stroke-width="1" fill="none" fill-rule="evenodd">
        <g id="Artboard" transform="translate(-1387.000000, -43.000000)" fill="#FFFFFF">
            <g id="Group-2" transform="translate(1387.000000, 43.000000)">
                <path d="M190.5,70.9 L212.7,48.7 C222.1,39.3 237.3,39.3 246.6,48.7 L441,243 C450.4,252.4 450.4,267.6 441,276.9 L246.6,471.3 C237.2,480.7 222,480.7 212.7,471.3 L190.5,449.1 C181,439.6 181.2,424.1 190.9,414.8 L311.4,300 L24,300 C10.7,300 -3.41060513e-13,289.3 -3.41060513e-13,276 L-3.41060513e-13,244 C-3.41060513e-13,230.7 10.7,220 24,220 L311.4,220 L190.9,105.2 C181.1,95.9 180.9,80.4 190.5,70.9 Z" id="Path" fill-rule="nonzero"></path>
                <rect id="Rectangle" x="476.05" y="0" width="80" height="520" rx="20"></rect>
            </g>
        </g>
    </g>
</svg>