<?xml version="1.0" encoding="UTF-8"?>
<svg width="16px" height="16px" viewBox="0 0 16 16" version="1.1" xmlns="http://www.w3.org/2000/svg" xmlns:xlink="http://www.w3.org/1999/xlink">
    <!-- Generator: Sketch 52.4 (67378) - http://www.bohemiancoding.com/sketch -->
    <title>Icons / Calendar</title>
    <desc>Created with Sketch.</desc>
    <g id="Icons-/-Calendar" stroke="none" stroke-width="1" fill="none" fill-rule="evenodd">
        <path d="M1.23076923,14.8571429 L4,14.8571429 L4,12.2857143 L1.23076923,12.2857143 L1.23076923,14.8571429 Z M4.61538462,14.8571429 L7.69230769,14.8571429 L7.69230769,12.2857143 L4.61538462,12.2857143 L4.61538462,14.8571429 Z M1.23076923,11.7142857 L4,11.7142857 L4,8.85714286 L1.23076923,8.85714286 L1.23076923,11.7142857 Z M4.61538462,11.7142857 L7.69230769,11.7142857 L7.69230769,8.85714286 L4.61538462,8.85714286 L4.61538462,11.7142857 Z M1.23076923,8.28571429 L4,8.28571429 L4,5.71428571 L1.23076923,5.71428571 L1.23076923,8.28571429 Z M8.30769231,14.8571429 L11.3846154,14.8571429 L11.3846154,12.2857143 L8.30769231,12.2857143 L8.30769231,14.8571429 Z M4.61538462,8.28571429 L7.69230769,8.28571429 L7.69230769,5.71428571 L4.61538462,5.71428571 L4.61538462,8.28571429 Z M12,14.8571429 L14.7692308,14.8571429 L14.7692308,12.2857143 L12,12.2857143 L12,14.8571429 Z M8.30769231,11.7142857 L11.3846154,11.7142857 L11.3846154,8.85714286 L8.30769231,8.85714286 L8.30769231,11.7142857 Z M4.92307692,4 L4.92307692,1.42857143 C4.92307692,1.27678571 4.77884615,1.14285714 4.61538462,1.14285714 L4,1.14285714 C3.83653846,1.14285714 3.69230769,1.27678571 3.69230769,1.42857143 L3.69230769,4 C3.69230769,4.15178571 3.83653846,4.28571429 4,4.28571429 L4.61538462,4.28571429 C4.77884615,4.28571429 4.92307692,4.15178571 4.92307692,4 Z M12,11.7142857 L14.7692308,11.7142857 L14.7692308,8.85714286 L12,8.85714286 L12,11.7142857 Z M8.30769231,8.28571429 L11.3846154,8.28571429 L11.3846154,5.71428571 L8.30769231,5.71428571 L8.30769231,8.28571429 Z M12,8.28571429 L14.7692308,8.28571429 L14.7692308,5.71428571 L12,5.71428571 L12,8.28571429 Z M12.3076923,4 L12.3076923,1.42857143 C12.3076923,1.27678571 12.1634615,1.14285714 12,1.14285714 L11.3846154,1.14285714 C11.2211538,1.14285714 11.0769231,1.27678571 11.0769231,1.42857143 L11.0769231,4 C11.0769231,4.15178571 11.2211538,4.28571429 11.3846154,4.28571429 L12,4.28571429 C12.1634615,4.28571429 12.3076923,4.15178571 12.3076923,4 Z M16,3.42857143 L16,14.8571429 C16,15.4821429 15.4423077,16 14.7692308,16 L1.23076923,16 C0.557692308,16 0,15.4821429 0,14.8571429 L0,3.42857143 C0,2.80357143 0.557692308,2.28571429 1.23076923,2.28571429 L2.46153846,2.28571429 L2.46153846,1.42857143 C2.46153846,0.642857143 3.15384615,0 4,0 L4.61538462,0 C5.46153846,0 6.15384615,0.642857143 6.15384615,1.42857143 L6.15384615,2.28571429 L9.84615385,2.28571429 L9.84615385,1.42857143 C9.84615385,0.642857143 10.5384615,0 11.3846154,0 L12,0 C12.8461538,0 13.5384615,0.642857143 13.5384615,1.42857143 L13.5384615,2.28571429 L14.7692308,2.28571429 C15.4423077,2.28571429 16,2.80357143 16,3.42857143 Z" id="Calendar-Symbol-(FA)" fill="#252C37"></path>
    </g>
</svg>
