<?xml version="1.0" encoding="UTF-8"?>
<svg width="16px" height="16px" viewBox="0 0 16 16" version="1.1" xmlns="http://www.w3.org/2000/svg" xmlns:xlink="http://www.w3.org/1999/xlink">
    <!-- Generator: Sketch 52.4 (67378) - http://www.bohemiancoding.com/sketch -->
    <title>Icons / Check</title>
    <desc>Created with Sketch.</desc>
    <g id="Icons-/-Check" stroke="none" stroke-width="1" fill="none" fill-rule="evenodd">
        <path d="M12.7058824,4.25 L9.88235294,9.35714286 L15.5294118,9.35714286 L12.7058824,4.25 Z M3.29411765,4.25 L0.470588235,9.35714286 L6.11764706,9.35714286 L3.29411765,4.25 Z M9.33088235,2.85714286 C9.19117647,3.24888393 8.86764706,3.56808036 8.47058824,3.70591518 L8.47058824,13.0714286 L12.9411765,13.0714286 C13.0735294,13.0714286 13.1764706,13.1729911 13.1764706,13.3035714 L13.1764706,13.7678571 C13.1764706,13.8984375 13.0735294,14 12.9411765,14 L3.05882353,14 C2.92647059,14 2.82352941,13.8984375 2.82352941,13.7678571 L2.82352941,13.3035714 C2.82352941,13.1729911 2.92647059,13.0714286 3.05882353,13.0714286 L7.52941176,13.0714286 L7.52941176,3.70591518 C7.13235294,3.56808036 6.80882353,3.24888393 6.66911765,2.85714286 L3.05882353,2.85714286 C2.92647059,2.85714286 2.82352941,2.75558036 2.82352941,2.625 L2.82352941,2.16071429 C2.82352941,2.03013393 2.92647059,1.92857143 3.05882353,1.92857143 L6.66911765,1.92857143 C6.86764706,1.38448661 7.38235294,1 8,1 C8.61764706,1 9.13235294,1.38448661 9.33088235,1.92857143 L12.9411765,1.92857143 C13.0735294,1.92857143 13.1764706,2.03013393 13.1764706,2.16071429 L13.1764706,2.625 C13.1764706,2.75558036 13.0735294,2.85714286 12.9411765,2.85714286 L9.33088235,2.85714286 Z M8,2.97321429 C8.32352941,2.97321429 8.58823529,2.71205357 8.58823529,2.39285714 C8.58823529,2.07366071 8.32352941,1.8125 8,1.8125 C7.67647059,1.8125 7.41176471,2.07366071 7.41176471,2.39285714 C7.41176471,2.71205357 7.67647059,2.97321429 8,2.97321429 Z M16,9.35714286 C16,10.8515625 13.9044118,11.4464286 12.7058824,11.4464286 C11.5073529,11.4464286 9.41176471,10.8515625 9.41176471,9.35714286 C9.41176471,9.07421875 11.9779412,4.59095982 12.2941176,4.02511161 C12.375,3.88002232 12.5367647,3.78571429 12.7058824,3.78571429 C12.875,3.78571429 13.0367647,3.88002232 13.1176471,4.02511161 C13.4338235,4.59095982 16,9.07421875 16,9.35714286 Z M6.58823529,9.35714286 C6.58823529,10.8515625 4.49264706,11.4464286 3.29411765,11.4464286 C2.09558824,11.4464286 0,10.8515625 0,9.35714286 C0,9.07421875 2.56617647,4.59095982 2.88235294,4.02511161 C2.96323529,3.88002232 3.125,3.78571429 3.29411765,3.78571429 C3.46323529,3.78571429 3.625,3.88002232 3.70588235,4.02511161 C4.02205882,4.59095982 6.58823529,9.07421875 6.58823529,9.35714286 Z" id="Shape" fill="#4E5B71"></path>
    </g>
</svg>