<?xml version="1.0" encoding="UTF-8"?>
<svg width="16px" height="13px" viewBox="0 0 16 13" version="1.1" xmlns="http://www.w3.org/2000/svg" xmlns:xlink="http://www.w3.org/1999/xlink">
    <!-- Generator: Sketch 53.2 (72643) - https://sketchapp.com -->
    <title>Checkmark-ffffff</title>
    <desc>Created with Sketch.</desc>
    <g id="SVG-Party" stroke="none" stroke-width="1" fill="none" fill-rule="evenodd">
        <g id="Artboard" transform="translate(-83.000000, -52.000000)" fill="#FFFFFF" fill-rule="nonzero">
            <g id="Checkmark-ffffff" transform="translate(83.000000, 52.000000)">
                <path d="M16,2.39483871 C16,2.65290323 15.8967742,2.91096774 15.7109677,3.09677419 L6.83354839,11.9741935 C6.64774194,12.16 6.38967742,12.2632258 6.1316129,12.2632258 C5.87354839,12.2632258 5.61548387,12.16 5.42967742,11.9741935 L0.289032258,6.83354839 C0.103225806,6.64774194 0,6.38967742 0,6.1316129 C0,5.87354839 0.103225806,5.61548387 0.289032258,5.42967742 L1.69290323,4.02580645 C1.87870968,3.84 2.13677419,3.73677419 2.39483871,3.73677419 C2.65290323,3.73677419 2.91096774,3.84 3.09677419,4.02580645 L6.1316129,7.07096774 L12.9032258,0.28903226 C13.0890323,0.10322581 13.3470968,0 13.6051613,0 C13.8632258,0 14.1212903,0.10322581 14.3070968,0.28903226 L15.7109677,1.69290323 C15.8967742,1.87870968 16,2.13677419 16,2.39483871 Z" id=""></path>
            </g>
        </g>
    </g>
</svg>