<?xml version="1.0" encoding="UTF-8"?>
<svg width="16px" height="16px" viewBox="0 0 16 16" version="1.1" xmlns="http://www.w3.org/2000/svg" xmlns:xlink="http://www.w3.org/1999/xlink">
    <!-- Generator: Sketch 52.4 (67378) - http://www.bohemiancoding.com/sketch -->
    <title>Icons / Claim</title>
    <desc>Created with Sketch.</desc>
    <g id="Icons-/-Claim" stroke="none" stroke-width="1" fill="none" fill-rule="evenodd">
        <path d="M11.4285714,9.16666667 L14.1517857,9.16666667 C14.0446429,9.28515625 13.9732143,9.34895833 13.9553571,9.3671875 L8.39285714,14.8359375 C8.28571429,14.9453125 8.14285714,15 8,15 C7.85714286,15 7.71428571,14.9453125 7.60714286,14.8359375 L2.03571429,9.34895833 C2.01785714,9.33984375 1.94642857,9.27604167 1.84821429,9.16666667 L5.14285714,9.16666667 C5.40178571,9.16666667 5.63392857,8.984375 5.69642857,8.72916667 L6.32142857,6.16796875 L8.01785714,12.2473958 C8.08928571,12.4934896 8.3125,12.6666667 8.57142857,12.6666667 C8.82142857,12.6666667 9.04464286,12.4934896 9.11607143,12.2473958 L10.4196429,7.82682292 L10.9196429,8.84765625 C11.0178571,9.0390625 11.2142857,9.16666667 11.4285714,9.16666667 Z M16,5.265625 C16,6.31380208 15.5535714,7.27083333 15.0803571,8 L11.7857143,8 L10.7946429,5.98567708 C10.6964286,5.77604167 10.4642857,5.6484375 10.2410714,5.66666667 C10,5.69401042 9.80357143,5.84895833 9.74107143,6.0859375 L8.58928571,10.0052083 L6.83928571,3.75260417 C6.76785714,3.50651042 6.54464286,3.33333333 6.27678571,3.33333333 C6.01785714,3.33333333 5.79464286,3.515625 5.73214286,3.77083333 L4.69642857,8 L0.919642857,8 C0.446428571,7.27083333 0,6.31380208 0,5.265625 C0,2.59505208 1.59821429,1 4.26785714,1 C5.83035714,1 7.29464286,2.2578125 8,2.96875 C8.70535714,2.2578125 10.1696429,1 11.7321429,1 C14.4017857,1 16,2.59505208 16,5.265625 Z" id="Shape" fill="#CFCFCF"></path>
    </g>
</svg>
