<?xml version="1.0" encoding="UTF-8"?>
<svg width="16px" height="16px" viewBox="0 0 16 16" version="1.1" xmlns="http://www.w3.org/2000/svg" xmlns:xlink="http://www.w3.org/1999/xlink">
    <!-- Generator: Sketch 52.4 (67378) - http://www.bohemiancoding.com/sketch -->
    <title>Icons / Close</title>
    <desc>Created with Sketch.</desc>
    <g id="Icons-/-Close" stroke="none" stroke-width="1" fill="none" fill-rule="evenodd">
        <path d="M16,12.8754209 C16,13.2121212 15.8653199,13.5488215 15.6228956,13.7912458 L13.7912458,15.6228956 C13.5488215,15.8653199 13.2121212,16 12.8754209,16 C12.5387205,16 12.2020202,15.8653199 11.959596,15.6228956 L8,11.6632997 L4.04040404,15.6228956 C3.7979798,15.8653199 3.46127946,16 3.12457912,16 C2.78787879,16 2.45117845,15.8653199 2.20875421,15.6228956 L0.377104377,13.7912458 C0.134680135,13.5488215 0,13.2121212 0,12.8754209 C0,12.5387205 0.134680135,12.2020202 0.377104377,11.959596 L4.33670034,8 L0.377104377,4.04040404 C0.134680135,3.7979798 0,3.46127946 0,3.12457912 C0,2.78787879 0.134680135,2.45117845 0.377104377,2.20875421 L2.20875421,0.377104377 C2.45117845,0.134680135 2.78787879,0 3.12457912,0 C3.46127946,0 3.7979798,0.134680135 4.04040404,0.377104377 L8,4.33670034 L11.959596,0.377104377 C12.2020202,0.134680135 12.5387205,0 12.8754209,0 C13.2121212,0 13.5488215,0.134680135 13.7912458,0.377104377 L15.6228956,2.20875421 C15.8653199,2.45117845 16,2.78787879 16,3.12457912 C16,3.46127946 15.8653199,3.7979798 15.6228956,4.04040404 L11.6632997,8 L15.6228956,11.959596 C15.8653199,12.2020202 16,12.5387205 16,12.8754209 Z" id="Close-Symbol-(FA)" fill="#A66005"></path>
    </g>
</svg>
