<?xml version="1.0" encoding="UTF-8"?>
<svg width="16px" height="16px" viewBox="0 0 16 16" version="1.1" xmlns="http://www.w3.org/2000/svg" xmlns:xlink="http://www.w3.org/1999/xlink">
    <!-- Generator: Sketch 52.4 (67378) - http://www.bohemiancoding.com/sketch -->
    <title>Icons / Dollar Sign</title>
    <desc>Created with Sketch.</desc>
    <g id="Icons-/-Dollar-Sign" stroke="#252C37" stroke-width="1" fill="#252C37" fill-rule="evenodd">
        <path d="M12.3229494,10.5803684 C12.3229494,12.4017989 11.0193766,13.8393004 9.12651747,14.1518008 L9.12651747,15.7143024 C9.12651747,15.8750169 9.00151734,16.000017 8.84080288,16.000017 L7.63544446,16.000017 C7.48365858,16.000017 7.34972987,15.8750169 7.34972987,15.7143024 L7.34972987,14.1518008 C5.26044193,13.8571576 4.11758358,12.6071563 4.07294067,12.5535848 C3.98365486,12.4464418 3.97472628,12.2946559 4.05508351,12.1875129 L4.97472734,10.9821545 C5.01937025,10.9196545 5.09972748,10.8839401 5.18008471,10.8750116 C5.26044193,10.866083 5.34079916,10.8928687 5.39437065,10.9553688 C5.41222781,10.9642974 6.66222914,12.1607272 8.24258796,12.1607272 C9.11758889,12.1607272 10.0640185,11.696441 10.0640185,10.6875114 C10.0640185,9.83036759 9.01044592,9.41072428 7.80508749,8.92858092 C6.19794293,8.29465167 4.1979408,7.49107939 4.1979408,5.25000558 C4.1979408,3.60714669 5.48365646,2.25000239 7.34972987,1.89285915 L7.34972987,0.285714589 C7.34972987,0.125000133 7.48365858,0 7.63544446,0 L8.84080288,0 C9.00151734,0 9.12651747,0.125000133 9.12651747,0.285714589 L9.12651747,1.85714483 C10.9390194,2.06250219 11.9033061,3.04464609 11.9390205,3.08036042 C12.0283063,3.17857481 12.0461634,3.31250352 11.9836634,3.41964649 L11.2604483,4.7232193 C11.2158054,4.80357653 11.1443768,4.85714802 11.0550909,4.8660766 C10.9658051,4.88393376 10.8854479,4.85714802 10.8140193,4.80357653 C10.8050907,4.79464795 9.72473239,3.83928979 8.38544525,3.83928979 C7.25151548,3.83928979 6.46580036,4.40179039 6.46580036,5.21429125 C6.46580036,6.16072083 7.55508723,6.58036413 8.82294572,7.07143608 C10.4658046,7.70536533 12.3229494,8.42858038 12.3229494,10.5803684 Z" id=""></path>
    </g>
</svg>
