<?xml version="1.0" encoding="UTF-8"?>
<svg width="9px" height="16px" viewBox="0 0 9 16" version="1.1" xmlns="http://www.w3.org/2000/svg" xmlns:xlink="http://www.w3.org/1999/xlink">
    <!-- Generator: Sketch 53.2 (72643) - https://sketchapp.com -->
    <title>Currency-21b01e</title>
    <desc>Created with Sketch.</desc>
    <g id="SVG-Party" stroke="none" stroke-width="1" fill="none" fill-rule="evenodd">
        <g id="Artboard" transform="translate(-87.000000, -50.000000)" fill="#21B01E" fill-rule="nonzero">
            <g id="Currency-21b01e" transform="translate(87.000000, 50.000000)">
                <path d="M8.3229494,10.5803684 C8.3229494,12.4017989 7.0193766,13.8393004 5.12651747,14.1518008 L5.12651747,15.7143024 C5.12651747,15.8750169 5.00151734,16.000017 4.84080288,16.000017 L3.63544446,16.000017 C3.48365858,16.000017 3.34972987,15.8750169 3.34972987,15.7143024 L3.34972987,14.1518008 C1.26044193,13.8571576 0.11758358,12.6071563 0.07294067,12.5535848 C-0.01634514,12.4464418 -0.02527372,12.2946559 0.05508351,12.1875129 L0.97472734,10.9821545 C1.01937025,10.9196545 1.09972748,10.8839401 1.18008471,10.8750116 C1.26044193,10.866083 1.34079916,10.8928687 1.39437065,10.9553688 C1.41222781,10.9642974 2.66222914,12.1607272 4.24258796,12.1607272 C5.11758889,12.1607272 6.0640185,11.696441 6.0640185,10.6875114 C6.0640185,9.83036759 5.01044592,9.41072428 3.80508749,8.92858092 C2.19794293,8.29465167 0.1979408,7.49107939 0.1979408,5.25000558 C0.1979408,3.60714669 1.48365646,2.25000239 3.34972987,1.89285915 L3.34972987,0.285714589 C3.34972987,0.125000133 3.48365858,0 3.63544446,0 L4.84080288,0 C5.00151734,0 5.12651747,0.125000133 5.12651747,0.285714589 L5.12651747,1.85714483 C6.9390194,2.06250219 7.9033061,3.04464609 7.9390205,3.08036042 C8.0283063,3.17857481 8.0461634,3.31250352 7.9836634,3.41964649 L7.2604483,4.7232193 C7.2158054,4.80357653 7.1443768,4.85714802 7.0550909,4.8660766 C6.9658051,4.88393376 6.8854479,4.85714802 6.8140193,4.80357653 C6.8050907,4.79464795 5.72473239,3.83928979 4.38544525,3.83928979 C3.25151548,3.83928979 2.46580036,4.40179039 2.46580036,5.21429125 C2.46580036,6.16072083 3.55508723,6.58036413 4.82294572,7.07143608 C6.4658046,7.70536533 8.3229494,8.42858038 8.3229494,10.5803684 Z" id=""></path>
            </g>
        </g>
    </g>
</svg>
