<?xml version="1.0" encoding="UTF-8"?>
<svg width="16px" height="16px" viewBox="0 0 16 16" version="1.1" xmlns="http://www.w3.org/2000/svg" xmlns:xlink="http://www.w3.org/1999/xlink">
    <!-- Generator: Sketch 52.4 (67378) - http://www.bohemiancoding.com/sketch -->
    <title>Icons / Deny</title>
    <desc>Created with Sketch.</desc>
    <g id="Icons-/-Deny" stroke="none" stroke-width="1" fill="none" fill-rule="evenodd">
        <path d="M8,0 C9.44086038,0 10.7741935,0.360215218 12,1.08064516 C13.2258065,1.8010751 14.1989249,2.77419355 14.9193548,4 C15.6397848,5.22580645 16,6.55913962 16,8 C16,9.44086038 15.6397848,10.7741935 14.9193548,12 C14.1989249,13.2258065 13.2258065,14.1989249 12,14.9193548 C10.7741935,15.6397848 9.44086038,16 8,16 C6.55913962,16 5.22580645,15.6397848 4,14.9193548 C2.77419355,14.1989249 1.8010751,13.2258065 1.08064516,12 C0.360215218,10.7741935 0,9.44086038 0,8 C0,6.55913962 0.360215218,5.22580645 1.08064516,4 C1.8010751,2.77419355 2.77419355,1.8010751 4,1.08064516 C5.22580645,0.360215218 6.55913962,0 8,0 Z M11.9354839,10.0967742 L9.80645161,8 L11.9354839,5.90322581 C12,5.81720414 12.0322581,5.72580645 12.0322581,5.62903226 C12.0322581,5.53225806 12,5.44086038 11.9354839,5.35483871 L10.6451613,4.06451613 C10.5806452,4 10.4946235,3.96774194 10.3870968,3.96774194 C10.2795701,3.96774194 10.1827959,4 10.0967742,4.06451613 L8,6.19354839 L5.90322581,4.06451613 C5.81720414,4 5.72580645,3.96774194 5.62903226,3.96774194 C5.53225806,3.96774194 5.44086038,4 5.35483871,4.06451613 L4.06451613,5.35483871 C4,5.41935484 3.96774194,5.50537651 3.96774194,5.61290323 C3.96774194,5.72042994 4,5.81720414 4.06451613,5.90322581 L6.19354839,8 L4.06451613,10.0967742 C4,10.1827959 3.96774194,10.2741935 3.96774194,10.3709677 C3.96774194,10.4677419 4,10.5591396 4.06451613,10.6451613 L5.35483871,11.9354839 C5.41935484,12 5.50537651,12.0322581 5.61290323,12.0322581 C5.72042994,12.0322581 5.81720414,12 5.90322581,11.9354839 L8,9.80645161 L10.0967742,11.9354839 C10.1827959,12 10.2741935,12.0322581 10.3709677,12.0322581 C10.4677419,12.0322581 10.5591396,12 10.6451613,11.9354839 L11.9354839,10.6451613 C12,10.5806452 12.0322581,10.4946235 12.0322581,10.3870968 C12.0322581,10.2795701 12,10.1827959 11.9354839,10.0967742 Z" id="Inactive-Symbol-(FA)" fill="#196ECF"></path>
    </g>
</svg>