<?xml version="1.0" encoding="UTF-8"?>
<svg width="14px" height="16px" viewBox="0 0 14 16" version="1.1" xmlns="http://www.w3.org/2000/svg" xmlns:xlink="http://www.w3.org/1999/xlink">
    <!-- Generator: Sketch 53.2 (72643) - https://sketchapp.com -->
    <title>Document-196ecf</title>
    <desc>Created with Sketch.</desc>
    <g id="SVG-Party" stroke="none" stroke-width="1" fill="none" fill-rule="evenodd">
        <g id="Artboard" transform="translate(-84.000000, -50.000000)" fill="#196ECF" fill-rule="nonzero">
            <g id="Document-196ecf" transform="translate(84.000000, 50.000000)">
                <path d="M9.3333333,4.57142857 L9.3333333,0.357142857 C9.4609375,0.4375 9.5703125,0.517857143 9.6614583,0.607142857 L13.3802083,4.25 C13.4713542,4.33928571 13.5533854,4.44642857 13.6354167,4.57142857 L9.3333333,4.57142857 Z M8.16666667,4.85714286 C8.16666667,5.33035714 8.55859375,5.71428571 9.0416667,5.71428571 L14,5.71428571 L14,15.1428571 C14,15.6160714 13.6080729,16 13.125,16 L0.875,16 C0.39192708,16 0,15.6160714 0,15.1428571 L0,0.857142857 C0,0.383928571 0.39192708,0 0.875,0 L8.16666667,0 L8.16666667,4.85714286 Z" id="Shape"></path>
            </g>
        </g>
    </g>
</svg>
