<?xml version="1.0" encoding="UTF-8"?>
<svg width="16px" height="16px" viewBox="0 0 16 16" version="1.1" xmlns="http://www.w3.org/2000/svg" xmlns:xlink="http://www.w3.org/1999/xlink">
    <!-- Generator: Sketch 52.4 (67378) - http://www.bohemiancoding.com/sketch -->
    <title>Icons / Document</title>
    <desc>Created with Sketch.</desc>
    <g id="Icons-/-Document" stroke="none" stroke-width="1" fill="none" fill-rule="evenodd">
        <path d="M10.3333333,4.57142857 L10.3333333,0.357142857 C10.4609375,0.4375 10.5703125,0.517857143 10.6614583,0.607142857 L14.3802083,4.25 C14.4713542,4.33928571 14.5533854,4.44642857 14.6354167,4.57142857 L10.3333333,4.57142857 Z M9.16666667,4.85714286 C9.16666667,5.33035714 9.55859375,5.71428571 10.0416667,5.71428571 L15,5.71428571 L15,15.1428571 C15,15.6160714 14.6080729,16 14.125,16 L1.875,16 C1.39192708,16 1,15.6160714 1,15.1428571 L1,0.857142857 C1,0.383928571 1.39192708,0 1.875,0 L9.16666667,0 L9.16666667,4.85714286 Z" id="Shape" fill="#A4A4A4"></path>
    </g>
</svg>
