<?xml version="1.0" encoding="UTF-8"?>
<svg width="16px" height="16px" viewBox="0 0 16 16" version="1.1" xmlns="http://www.w3.org/2000/svg" xmlns:xlink="http://www.w3.org/1999/xlink">
    <!-- Generator: Sketch 52.4 (67378) - http://www.bohemiancoding.com/sketch -->
    <title>Icons / Edit</title>
    <desc>Created with Sketch.</desc>
    <g id="Icons-/-Edit" stroke="none" stroke-width="1" fill="none" fill-rule="evenodd">
        <path d="M7.96524177,11.4721794 L9.00574632,10.4316748 L7.64232656,9.06825508 L6.601822,10.1087596 L6.601822,10.6110722 L7.46292922,10.6110722 L7.46292922,11.4721794 L7.96524177,11.4721794 Z M11.9119832,5.01387526 C11.8312544,4.93314646 11.6967064,4.94211633 11.6159776,5.02284513 L8.47652418,8.16229853 C8.39579537,8.24302733 8.38682551,8.37757533 8.46755431,8.45830413 C8.54828311,8.53903294 8.68283111,8.53006307 8.76355992,8.44933427 L11.9030133,5.30988087 C11.9837421,5.22915207 11.992712,5.09460406 11.9119832,5.01387526 Z M12.6295725,10.3419762 L12.6295725,12.0462509 C12.6295725,13.4724597 11.4724597,14.6295725 10.0462509,14.6295725 L2.58332165,14.6295725 C1.15711282,14.6295725 0,13.4724597 0,12.0462509 L0,4.58332165 C0,3.15711282 1.15711282,2 2.58332165,2 L10.0462509,2 C10.4050456,2 10.7638402,2.07175893 11.0957253,2.22424667 C11.1764541,2.26012614 11.2392432,2.34085494 11.2571829,2.43055361 C11.2751226,2.52922214 11.248213,2.61892081 11.1764541,2.69067975 L10.7369306,3.13020322 C10.6562018,3.21093203 10.5485634,3.23784163 10.4498949,3.20196216 C10.3153469,3.16608269 10.1807989,3.14814296 10.0462509,3.14814296 L2.58332165,3.14814296 C1.79397337,3.14814296 1.14814296,3.79397337 1.14814296,4.58332165 L1.14814296,12.0462509 C1.14814296,12.8355992 1.79397337,13.4814296 2.58332165,13.4814296 L10.0462509,13.4814296 C10.8355992,13.4814296 11.4814296,12.8355992 11.4814296,12.0462509 L11.4814296,10.9160477 C11.4814296,10.8442887 11.5083392,10.7725298 11.5621584,10.7187106 L12.1362299,10.1446391 C12.2259285,10.0549404 12.3425368,10.0370007 12.4501752,10.08185 C12.5578136,10.1266994 12.6295725,10.2253679 12.6295725,10.3419762 Z M11.7684653,3.72221444 L14.351787,6.30553609 L8.32403644,12.3332866 L5.74071479,12.3332866 L5.74071479,9.74996496 L11.7684653,3.72221444 Z M15.7510862,4.90623686 L14.9258584,5.73146461 L12.3425368,3.14814296 L13.1677645,2.32291521 C13.4996496,1.99103013 14.0557814,1.99103013 14.3876664,2.32291521 L15.7510862,3.68633497 C16.0829713,4.01822004 16.0829713,4.57435179 15.7510862,4.90623686 Z" id="ï„" fill="#196ECF"></path>
    </g>
</svg>