<?xml version="1.0" encoding="UTF-8"?>
<svg width="220px" height="185px" viewBox="0 0 220 185" version="1.1" xmlns="http://www.w3.org/2000/svg" xmlns:xlink="http://www.w3.org/1999/xlink">
    <!-- Generator: sketchtool 54.1 (76490) - https://sketchapp.com -->
    <title>76842CAA-115E-4216-A9F0-5CE917EA2B48</title>
    <desc>Created with sketchtool.</desc>
    <defs>
        <linearGradient x1="50.0009118%" y1="100%" x2="50.0009118%" y2="0%" id="linearGradient-1">
            <stop stop-color="#808080" stop-opacity="0.25" offset="0%"></stop>
            <stop stop-color="#808080" stop-opacity="0.12" offset="54%"></stop>
            <stop stop-color="#808080" stop-opacity="0.1" offset="100%"></stop>
        </linearGradient>
        <linearGradient x1="50.0180181%" y1="99.9954474%" x2="50.0180181%" y2="-0.0100178812%" id="linearGradient-2">
            <stop stop-color="#808080" stop-opacity="0.25" offset="0%"></stop>
            <stop stop-color="#808080" stop-opacity="0.12" offset="54%"></stop>
            <stop stop-color="#808080" stop-opacity="0.1" offset="100%"></stop>
        </linearGradient>
        <linearGradient x1="50.0009317%" y1="100%" x2="50.0009317%" y2="0.00486229502%" id="linearGradient-3">
            <stop stop-color="#808080" stop-opacity="0.25" offset="0%"></stop>
            <stop stop-color="#808080" stop-opacity="0.12" offset="54%"></stop>
            <stop stop-color="#808080" stop-opacity="0.1" offset="100%"></stop>
        </linearGradient>
    </defs>
    <g id="Workbench-(WRK-WKBN)" stroke="none" stroke-width="1" fill="none" fill-rule="evenodd">
        <g id="Workbench-Usability-Update---2" transform="translate(-446.000000, -3625.000000)">
            <g id="undraw_inbox_cleanup_w2ur" transform="translate(446.000000, 3625.000000)">
                <path d="M160.95273,0.243498084 C150.632712,-0.255537992 140.134496,-0.171998913 130.168671,2.28800712 C120.202846,4.74801315 110.725413,9.81092101 105.053912,17.5756586 C101.80677,22.0208169 99.8686036,27.2266206 96.0868701,31.3156386 C89.5265853,38.4054683 78.8039738,40.841292 68.9085476,43.2859093 C45.670356,49.001741 22.3023666,57.2611178 5.44626281,72.7334346 C3.02630534,74.951617 0.66794678,77.4819717 0.120156406,80.5487352 C-0.720228826,85.2642964 2.98010615,89.6764788 7.08523401,92.6948776 C11.1903619,95.7132765 16.0478765,98.1073306 19.0860231,102.022675 C22.9601551,107.015234 23.1779512,113.612623 22.0779706,119.60985 C20.9779899,125.607076 18.7142297,131.441621 18.1180401,137.5048 C17.9706427,138.99971 17.9354434,140.558373 18.5844319,141.941165 C19.4446168,143.774628 21.3563832,145.01892 23.2307503,146.065357 C29.8760955,149.792744 37.046713,152.495748 44.4999766,154.08291 C57.3411509,156.833105 70.7323156,156.316481 83.8792846,157.446457 C97.0262535,158.576433 110.718813,161.737728 119.958651,170.210349 C125.625751,175.405161 130.738461,182.983035 138.818919,182.725822 C143.34644,182.582926 147.345969,179.817343 151.86249,179.509568 C156.946601,179.162221 161.54232,181.927804 166.336036,183.504055 C173.144916,185.74642 181.029577,185.528778 187.413865,182.437832 C193.798153,179.346886 198.433472,173.292502 198.807465,166.785247 C199.172659,160.409896 195.714319,154.445646 193.716754,148.318714 C187.16527,128.245152 196.380908,107.032822 205.543747,87.8012463 C214.706586,68.569671 224.162019,47.5156247 218.065927,27.3255484 C210.988651,3.90822557 183.574933,1.3382997 160.95273,0.243498084 Z" id="Path" fill="#196ECF" fill-rule="nonzero" opacity="0.1"></path>
                <path d="M52,118 C52,118 44.1788599,113.850575 41.8614014,107.480115 C40.9068675,104.803806 39.0809413,102.499447 36.6578385,100.913103 C35.5014968,100.168609 34.2770983,99.5282309 33,99" id="Path" stroke="#535461" stroke-width="2"></path>
                <path d="M32.3843664,95.5578323 C33.1625277,96.3379895 34,100 34,100 C34,100 30.3298308,99.1418271 29.5516695,98.364034 C28.8017423,97.5800674 28.8184378,96.3424916 29.5892425,95.5788965 C30.3600471,94.8153015 31.6020603,94.8059416 32.3843664,95.5578323 L32.3843664,95.5578323 Z" id="Path" fill="#196ECF" fill-rule="nonzero"></path>
                <path d="M37.9711706,96.5776486 C38.2083951,97.6111205 36.9036605,101 36.9036605,101 C36.9036605,101 34.2941914,98.3992849 34.0569669,97.3658129 C33.8842593,96.6879926 34.1107659,95.9739061 34.6479956,95.5025314 C35.1852253,95.0311568 35.9479201,94.8773008 36.6381119,95.1010715 C37.3283037,95.3248423 37.8364595,95.8907277 37.9640539,96.5776486 L37.9711706,96.5776486 Z" id="Path" fill="#196ECF" fill-rule="nonzero"></path>
                <path d="M44.8896229,104.596564 C44.5391217,105.62883 41.6206628,108 41.6206628,108 C41.6206628,108 40.7312959,104.383557 41.081797,103.351291 C41.4320783,102.317087 42.5700494,101.757463 43.6235267,102.101336 C44.6770041,102.445208 45.2470572,103.56236 44.896776,104.596564 L44.8896229,104.596564 Z" id="Path" fill="#196ECF" fill-rule="nonzero"></path>
                <path d="M48.9848444,110.171933 C48.8177595,111.227238 46.3449031,114 46.3449031,114 C46.3449031,114 44.845913,110.645556 45.0129979,109.587952 C45.2084975,108.558 46.2187326,107.864422 47.2932885,108.022414 C48.3678444,108.180406 49.1172529,109.132706 48.9848444,110.171933 Z" id="Path" fill="#196ECF" fill-rule="nonzero"></path>
                <path d="M34.8889863,104 C35.9509982,103.988117 39,101.951305 39,101.951305 C39,101.951305 35.9007525,99.9881704 34.8387406,100.000054 C33.8020453,100.047392 32.9884108,100.942103 33.0001249,102.021882 C33.0118391,103.101661 33.8446766,103.977029 34.8821346,104 L34.8889863,104 Z" id="Path" fill="#196ECF" fill-rule="nonzero"></path>
                <path d="M38.5431869,111.920301 C39.5882699,111.574486 42,108.64947 42,108.64947 C42,108.64947 38.3540316,107.732101 37.3089485,108.077916 C36.3011338,108.451389 35.765913,109.568768 36.0986538,110.604644 C36.4313946,111.64052 37.5124245,112.222334 38.5431869,111.920301 L38.5431869,111.920301 Z" id="Path" fill="#196ECF" fill-rule="nonzero"></path>
                <path d="M45.1985968,118.97873 C46.2450633,118.819575 49,116.365735 49,116.365735 C49,116.365735 45.6877061,114.852574 44.6412396,115.011729 C43.9625907,115.115691 43.388609,115.589808 43.135508,116.255486 C42.8824069,116.921164 42.9886386,117.677271 43.4141866,118.238987 C43.8397345,118.800703 44.5199478,119.082692 45.1985968,118.97873 Z" id="Path" fill="#196ECF" fill-rule="nonzero"></path>
                <path d="M58,100 C58,100 52.8251078,93.0856213 53.3490656,86.3076382 C53.5855166,83.4661491 52.9121407,80.6230764 51.4300431,78.2052974 C50.717658,77.0633993 49.9042449,75.9904838 49,75" id="Path" stroke="#535461" stroke-width="2"></path>
                <path d="M48.8826231,71.3374 C49.2755735,72.3522287 48.5559535,76 48.5559535,76 C48.5559535,76 45.5543805,73.7598943 45.1614301,72.7450656 C44.8731025,72.0810932 44.9760812,71.3144624 45.4297234,70.747741 C45.8833655,70.1810196 46.6147931,69.9052519 47.3353319,70.0292757 C48.0558708,70.1532996 48.6497658,70.6571905 48.8826231,71.3420766 L48.8826231,71.3374 Z" id="Path" fill="#196ECF" fill-rule="nonzero"></path>
                <path d="M53.9491303,75.3475649 C53.7109983,76.3862261 51.0915465,79 51.0915465,79 C51.0915465,79 49.7984899,75.5918215 50.0270966,74.5531602 C50.1660969,73.8719358 50.6774512,73.3154781 51.3648797,73.0973796 C52.0523082,72.8792811 52.8090002,73.0334293 53.3445048,73.5006555 C53.8800094,73.9678816 54.1111215,74.6755895 53.9491303,75.3521304 L53.9491303,75.3475649 Z" id="Path" fill="#196ECF" fill-rule="nonzero"></path>
                <path d="M57.4300879,84.2406186 C56.6777181,85.0225659 53,86 53,86 C53,86 53.6850651,82.4471406 54.4422424,81.6651933 C54.9226955,81.1375045 55.6683045,80.898208 56.389153,81.0403499 C57.1100015,81.1824919 57.6923399,81.6836422 57.9097366,82.3489378 C58.1271333,83.0142335 57.9452832,83.7386911 57.4348954,84.2406186 L57.4300879,84.2406186 Z" id="Path" fill="#196ECF" fill-rule="nonzero"></path>
                <path d="M57.7434824,91.707542 C57.1880696,92.5442678 54,94 54,94 C54,94 54.0377681,90.6082721 54.5931809,89.7715463 C55.1667203,88.9788858 56.2895815,88.76314 57.1363022,89.2829126 C57.9830229,89.8026852 58.2511104,90.8722864 57.7434824,91.7054075 L57.7434824,91.707542 Z" id="Path" fill="#196ECF" fill-rule="nonzero"></path>
                <path d="M48.178723,80.8361612 C49.2080656,81.2731606 53,80.6976586 53,80.6976586 C53,80.6976586 50.8135509,77.5813515 49.7842082,77.1443521 C48.7616579,76.7390831 47.599417,77.2155507 47.1650191,78.2181043 C46.7306211,79.220658 47.1825822,80.3834561 48.1835443,80.8385491 L48.178723,80.8361612 Z" id="Path" fill="#196ECF" fill-rule="nonzero"></path>
                <path d="M48.6621139,88.9946003 C49.7230474,89.1066421 53,87.4379334 53,87.4379334 C53,87.4379334 50.1157306,85.1160443 49.0547971,85.0040024 C48.0183843,84.936486 47.1156732,85.7308745 47.0101439,86.8033031 C46.9046147,87.8757317 47.6339568,88.843186 48.6621139,88.9946003 L48.6621139,88.9946003 Z" id="Path" fill="#196ECF" fill-rule="nonzero"></path>
                <path d="M51.46252,97.9478719 C52.4933471,98.2449138 56,97.1755631 56,97.1755631 C56,97.1755631 53.5310771,94.3904986 52.50025,94.0863277 C51.827526,93.8754099 51.0969576,94.0574164 50.5913326,94.5618962 C50.0857077,95.0663761 49.8843827,95.8141525 50.0652865,96.5157766 C50.2461903,97.2174008 50.7809304,97.7627546 51.46252,97.9407429 L51.46252,97.9478719 Z" id="Path" fill="#196ECF" fill-rule="nonzero"></path>
                <path d="M155.1508,109 C155.1508,109 153.953682,100.439503 158.305267,94.9026682 C160.146836,92.590256 161.090025,89.8122527 160.993229,86.9857359 C160.935556,85.6440876 160.738917,84.3099318 160.405777,83" id="Path" stroke="#535461" stroke-width="2"></path>
                <path d="M162.978308,79.2006241 C162.796884,80.2562618 160.292754,83 160.292754,83 C160.292754,83 158.834199,79.626099 159.015623,78.5727612 C159.220518,77.5413028 160.241427,76.8551701 161.316931,77.0260984 C162.392436,77.1970266 163.130517,78.162713 162.980696,79.202924 L162.978308,79.2006241 Z" id="Path" fill="#196ECF" fill-rule="nonzero"></path>
                <path d="M164.509885,86.2047245 C163.743547,87.0015952 160,88 160,88 C160,88 160.695335,84.3793347 161.469018,83.582464 C162.245392,82.8359532 163.506302,82.8027945 164.325304,83.5073508 C165.144306,84.2119072 165.229032,85.4026648 164.51723,86.2047245 L164.509885,86.2047245 Z" id="Path" fill="#196ECF" fill-rule="nonzero"></path>
                <path d="M162.695527,94.9294011 C161.643122,95.263853 158,94.3014015 158,94.3014015 C158,94.3014015 160.453241,91.3996104 161.503276,91.0651585 C162.534001,90.7941013 163.592832,91.3921456 163.909339,92.4241416 C164.225846,93.4561377 163.688557,94.558621 162.688416,94.9294011 L162.695527,94.9294011 Z" id="Path" fill="#196ECF" fill-rule="nonzero"></path>
                <path d="M159.886262,102.720911 C158.874806,103.216608 155,102.900952 155,102.900952 C155,102.900952 156.993595,99.7116577 158.005051,99.215961 C158.659686,98.8956022 159.443174,98.9338211 160.060382,99.316221 C160.67759,99.6986209 161.03475,100.367106 160.997323,101.069865 C160.959896,101.772624 160.533568,102.40289 159.878933,102.723249 L159.886262,102.720911 Z" id="Path" fill="#196ECF" fill-rule="nonzero"></path>
                <path d="M156.315298,86.8989118 C156.895103,87.7191696 160,89 160,89 C160,89 159.739508,85.5259669 159.159703,84.7057091 C158.568818,83.9207314 157.48734,83.7681807 156.718108,84.3613035 C155.948876,84.9544262 155.770456,86.0784324 156.315298,86.8989118 L156.315298,86.8989118 Z" id="Path" fill="#196ECF" fill-rule="nonzero"></path>
                <path d="M152.715159,95.1794409 C153.534963,95.7574183 157,96 157,96 C157,96 155.703617,92.8907348 154.883813,92.3127575 C154.062566,91.7678509 152.941023,91.9526191 152.35368,92.7295833 C151.766337,93.5065476 151.926571,94.5934412 152.715159,95.1815503 L152.715159,95.1794409 Z" id="Path" fill="#196ECF" fill-rule="nonzero"></path>
                <path d="M150.607587,103.349289 C151.370256,104.12147 155,105 155,105 C155,105 154.211437,101.409588 153.448767,100.637407 C152.96215,100.111556 152.222459,99.8879074 151.518983,100.053928 C150.815506,100.219948 150.260028,100.749257 150.069792,101.434844 C149.879557,102.120432 150.084792,102.853357 150.605233,103.346977 L150.607587,103.349289 Z" id="Path" fill="#196ECF" fill-rule="nonzero"></path>
                <polygon id="Path" fill="url(#linearGradient-1)" fill-rule="nonzero" points="103.501103 39 43 95.2183646 43 178 164 178 164 95.2183646"></polygon>
                <polygon id="Path" fill="#E8EAF1" fill-rule="nonzero" points="163 177 45 177 45 96.0046107 104.001099 41 163 96.0046107"></polygon>
                <rect id="Rectangle" fill="#000000" fill-rule="nonzero" opacity="0.1" x="44" y="96" width="118" height="81"></rect>
                <rect id="Rectangle" fill="#196ECF" fill-rule="nonzero" transform="translate(133.000000, 23.000000) rotate(-180.000000) translate(-133.000000, -23.000000) " x="124" y="14" width="18" height="18" rx="9"></rect>
                <rect id="Rectangle" fill="#196ECF" fill-rule="nonzero" transform="translate(114.000000, 44.000000) rotate(-180.000000) translate(-114.000000, -44.000000) " x="105" y="35" width="18" height="18" rx="9"></rect>
                <rect id="Rectangle" fill="#196ECF" fill-rule="nonzero" transform="translate(162.000000, 14.000000) rotate(-180.000000) translate(-162.000000, -14.000000) " x="153" y="5" width="18" height="18" rx="9"></rect>
                <path d="M86.4034511,116.375522 L82.3541495,116.375522 L82.3541495,112.636996 C82.3541495,111.180623 81.191635,110 79.7576007,110 L67.5965489,110 C66.1625145,110 65,111.180623 65,112.636996 L65,124.987483 C65,126.443855 66.1625145,127.624478 67.5965489,127.624478 L71.6458505,127.624478 L71.6458505,131.363004 C71.6458505,132.819377 72.808365,134 74.2423993,134 L86.4034511,134 C87.8374855,134 89,132.819377 89,131.363004 L89,119.012517 C89,117.556145 87.8374855,116.375522 86.4034511,116.375522 L86.4034511,116.375522 Z" id="Path" fill="#196ECF" fill-rule="nonzero" opacity="0.5"></path>
                <path d="M139.42917,108 L127.388589,108 C126.706763,108 126.052864,108.272331 125.57074,108.757084 C125.088616,109.241837 124.817762,109.899302 124.817762,110.584846 L124.817762,116.269327 L118.797472,116.269327 C117.377644,116.269327 116.226645,117.426602 116.226645,118.854173 L116.226645,124.724065 L110.570827,124.724065 C109.150998,124.724065 108,125.88134 108,127.308911 L108,139.415154 C108,140.842725 109.150998,142 110.570827,142 L122.602729,142 C124.022558,142 125.173556,140.842725 125.173556,139.415154 L125.173556,133.547443 L130.84673,133.547443 C132.266559,133.547443 133.417557,132.390168 133.417557,130.962597 L133.417557,125.278116 L139.437847,125.278116 C140.855981,125.273305 142.002398,124.11478 141.999996,122.688907 L141.999996,110.582665 C141.998799,109.155946 140.848151,107.999999 139.42917,108 Z" id="Path" fill="#196ECF" fill-rule="nonzero" opacity="0.5"></path>
                <path d="M77.2590623,90.339008 C77.5394918,90.9892939 78.0817956,91.4922862 78.7533973,91.7250188 C79.0487379,91.8193202 79.3617107,91.852216 79.6636634,91.9289729 C81.1028976,92.2842479 82.1211614,93.521131 83.4303576,94.2053642 C83.5353441,94.2701108 83.6552123,94.3070999 83.778595,94.3128239 L83.8226756,94.3128239 C83.8497966,94.3154091 83.8771039,94.3154091 83.9042249,94.3128239 C84.0393394,94.2984749 84.1672845,94.2451124 84.2722986,94.15931 L84.3318075,94.1154489 C84.4741307,94.6956224 84.4958807,95.2986045 84.3957245,95.8874375 C83.8755724,95.8874375 80.4967883,96.0935847 80.9596354,100.054242 C81.4599511,104.35263 86.4697205,110.361602 86.4697205,110.361602 C86.4697205,110.361602 89.9741346,113.923123 88.8478732,126.079228 L88.7222433,131.97416 C88.7222433,131.97416 90.0689081,131.772399 91.7858506,131.570638 C91.8255232,131.649588 91.8659305,131.727076 91.9070725,131.803102 C92.3972753,132.654686 93.0216025,133.422508 93.756257,134.0773 L96.601665,140.827524 C96.601665,140.827524 96.8463128,141.266135 97.2077743,141.95914 C97.2408349,143.386819 96.3504051,144.634668 96.3504051,144.634668 C90.84032,146.231212 88.5900013,152.00114 88.5900013,152.00114 C88.5900013,152.00114 85.4823133,153.854271 84.8100829,155.924516 C83.4876625,156.981568 83.586844,159.872015 83.586844,159.872015 C83.586844,159.872015 88.2153155,162.328237 91.5985077,163.679159 C91.9907735,163.835881 92.3996769,163.947714 92.8173385,164.012503 L92.0657629,165.547642 L92.0657629,165.547642 C91.2811268,165.828353 91.2238219,169.685937 91.2238219,169.685937 C91.2238219,169.685937 99.4845415,175.580869 101.988324,175.949302 C104.492107,176.317735 106.616796,174.59838 103.991791,173.370269 C101.873714,172.381201 99.5131939,168.60476 98.675661,167.172695 C99.7247812,165.742823 103.030832,161.108898 103.240216,159.249187 C103.491475,157.038588 106.619,155.196421 106.619,155.196421 C111.126249,150.406789 108.122151,144.759672 107.745261,141.818785 C107.745261,141.761765 107.729833,141.70036 107.718813,141.636761 C107.442681,140.358451 107.088647,139.09804 106.658672,137.862513 C107.150172,134.772499 107.540286,129.945584 107.780526,126.759075 C108.774545,127.077068 109.748728,127.454273 109.748728,127.454273 C111.575872,123.763362 105.369312,108.563296 103.577433,104.35263 C104.619941,104.010514 106.416229,103.475408 108.992744,102.896442 C113.374364,101.913953 113.621216,99.7033535 113.621216,99.7033535 L117,90.617526 C116.711272,90.7447232 116.270465,90.7403371 115.754721,90.6504218 C115.754721,90.5736649 115.754721,90.4925218 115.754721,90.4047996 C115.781169,89.5429289 115.862718,88.1656903 116.118386,87.915682 C116.118386,87.915682 115.287466,87.915682 114.278018,87.8257668 L114.278018,87.7029557 L114.732049,82.1435608 C114.732049,82.1435608 114.106103,76.0030064 111.97921,76.862684 C110.271084,77.5534964 110.4981,83.0690301 110.65679,85.2182242 C110.69666,85.7678825 110.858498,86.3019106 111.130657,86.7818725 L111.27392,87.0340738 L111.373101,87.2073252 C111.279796,87.1628071 111.189921,87.1114964 111.104209,87.0538113 L111.104209,88.9551902 C110.868377,88.8433443 110.729523,88.7731666 110.729523,88.7731666 C110.855153,90.8609551 108.22574,97.8589941 108.22574,97.8589941 C108.22574,97.8589941 103.597269,97.3677497 102.091914,98.3502385 C100.989897,99.0717536 99.5528666,97.6769705 98.8630039,96.8830846 L102.11175,89.8696942 C101.721861,89.8008171 101.336829,89.7070531 100.95904,89.5889831 C100.974469,89.5034539 100.989897,89.4135387 101.007529,89.3214304 C101.170628,88.4442083 101.465968,87.200746 101.862694,87.0450391 C101.28949,86.7337452 100.695162,86.4626105 100.084039,86.2336087 C100.099467,86.1634309 100.112691,86.0888671 100.130323,86.0143032 C100.363951,84.7861923 100.732025,82.1325956 99.9848572,80.3013945 C98.9842258,77.8451727 98.607336,73.0643125 96.729499,74.1608401 C95.2395719,75.0380621 95.1690429,80.3233251 95.2021034,82.4659399 C95.2108107,83.0465577 95.3573213,83.616906 95.629686,84.1304688 L96.3526091,85.4945491 L96.4517907,85.6831519 L96.3526091,85.7006963 L96.3526091,87.3783835 C96.0352282,87.1788155 95.8522934,87.0516183 95.8522934,87.0516183 C95.7883764,89.4113456 94.2191042,92.5583798 92.6850965,95.0913585 L91.9048684,94.5189711 L91.7131175,94.3830017 C91.7111485,94.3581857 91.7111485,94.3332538 91.7131175,94.3084378 C91.7131175,94.3084378 91.3913285,94.2185225 90.8844007,94.1154489 C90.254047,92.92462 89.9014015,91.4837828 89.7052425,90.2951469 C89.6854062,90.1701427 89.6655699,90.0495247 89.6479376,89.9310997 C89.9377802,89.2921127 90.088026,88.5991923 90.0887444,87.8981376 C90.0708729,85.424538 88.2573034,83.3268233 85.8018982,82.9396399 C85.9561806,82.7707746 86.0223016,82.7203343 86.0707904,82.7203343 L86.1038509,82.7203343 C86.1809921,82.7203343 86.2867857,82.7554232 86.6702876,82.5690135 C87.0537895,82.3826038 87.5144326,82.0909275 87.5122286,81.6567026 C87.5122286,81.3387096 87.2587647,81.077736 86.9898725,80.8979055 C86.3440906,80.4592945 86.3286623,79.724621 85.724757,79.7794474 C85.6088696,79.7698433 85.4922731,79.7855616 85.3831317,79.8255015 C84.8321232,80.0053321 84.3538478,80.3474487 83.8182676,80.5667542 C83.4432776,80.7193291 83.0456885,80.8097116 82.6413134,80.8343069 C82.3829459,80.8343767 82.124994,80.8549101 81.8699015,80.8957125 C81.6659331,80.946657 81.4700947,81.0256355 81.2880365,81.1303694 C80.157367,81.7444248 78.8525789,82.6786663 78.4889133,83.8958119 C78.149492,85.0362006 78.6189513,86.5143198 77.7439498,87.3345224 C77.5840773,87.4600139 77.4364851,87.6002623 77.3031429,87.7533959 C77.1913554,87.9225085 77.1162859,88.1129824 77.0827395,88.312625 C76.9289516,88.9899395 76.9905687,89.6980725 77.2590623,90.339008 Z M100.143548,149.387018 C100.192036,149.974757 100.079631,150.391437 99.7335973,150.527407 C97.8557603,151.264273 95.7288675,158.01669 95.7288675,158.01669 L94.3050615,160.940033 C93.17626,160.092185 92.0960616,159.182104 91.0695395,158.214065 L91.2238219,157.154819 C91.2238219,157.154819 95.2285518,154.207353 95.4798117,153.347676 C95.6803788,152.656863 98.9181048,150.270819 100.143548,149.387018 Z" id="Shape" fill="url(#linearGradient-2)" fill-rule="nonzero"></path>
                <path d="M102.925686,103.50881 C102.925686,103.50881 111.822534,122.825133 109.661673,127 C109.661673,127 106.102473,125.688331 105.593358,125.919548 C105.084242,126.150765 100,101 100,101 L102.925686,103.50881 Z" id="Path" fill="#575988" fill-rule="nonzero"></path>
                <path d="M102.925686,103.50881 C102.925686,103.50881 111.822534,122.825133 109.661673,127 C109.661673,127 106.102473,125.688331 105.593358,125.919548 C105.084242,126.150765 100,101 100,101 L102.925686,103.50881 Z" id="Path" fill="#000000" fill-rule="nonzero" opacity="0.05"></path>
                <path d="M98.6373631,166.054838 C98.6373631,166.054838 101.431598,171.322246 103.877609,172.493253 C106.323619,173.66426 104.344018,175.301972 102.014082,174.951943 C99.684146,174.601913 92,168.982355 92,168.982355 C92,168.982355 92.0527612,165.303867 92.7829767,165.036572 C93.5131922,164.769277 98.6373631,166.054838 98.6373631,166.054838 Z" id="Path" fill="#575988" fill-rule="nonzero"></path>
                <path d="M90.6180717,157.987914 C90.6180717,157.987914 94.7039923,161.897725 96.4986611,162.243689 C98.2933298,162.589653 94.9370379,164.888438 91.6918238,163.623377 C88.4466097,162.358315 84.0013197,160.05953 84.0013197,160.05953 C84.0013197,160.05953 83.8815299,156.378973 85.9244902,156.035093 C87.9674505,155.691213 90.6180717,157.987914 90.6180717,157.987914 Z" id="Path" fill="#575988" fill-rule="nonzero"></path>
                <path d="M108,124.089711 C108,124.089711 107.135518,138.879897 106.022441,140.940681 C104.909364,143.001465 100.70789,149.30465 100.70789,149.30465 C100.70789,149.30465 95.8882885,152.699011 95.6419334,153.547052 C95.3955783,154.395093 91.4404595,157.303918 91.4404595,157.303918 L91.1941044,159 C91.1941044,159 84.6455385,158.635298 85.0150711,156.45368 C85.3846038,154.272062 88.8447728,152.211278 88.8447728,152.211278 C88.8447728,152.211278 91.0686873,146.514464 96.5064158,144.937019 C96.5064158,144.937019 98.2353805,142.520322 96.7527709,140.573782 C96.7527709,140.573782 93.0462467,131.482607 90.9455098,130.390699 C88.8447728,129.298792 91.8122317,123 91.8122317,123 L108,124.089711 Z" id="Path" fill="#67647E" fill-rule="nonzero"></path>
                <path d="M108,124.089711 C108,124.089711 107.135518,138.879897 106.022441,140.940681 C104.909364,143.001465 100.70789,149.30465 100.70789,149.30465 C100.70789,149.30465 95.8882885,152.699011 95.6419334,153.547052 C95.3955783,154.395093 91.4404595,157.303918 91.4404595,157.303918 L91.1941044,159 C91.1941044,159 84.6455385,158.635298 85.0150711,156.45368 C85.3846038,154.272062 88.8447728,152.211278 88.8447728,152.211278 C88.8447728,152.211278 91.0686873,146.514464 96.5064158,144.937019 C96.5064158,144.937019 98.2353805,142.520322 96.7527709,140.573782 C96.7527709,140.573782 93.0462467,131.482607 90.9455098,130.390699 C88.8447728,129.298792 91.8122317,123 91.8122317,123 L108,124.089711 Z" id="Path" fill="#000000" fill-rule="nonzero" opacity="0.05"></path>
                <path d="M96.2611871,158.312314 L92.4365409,166.526613 C93.0342772,168.609049 98.7690809,167.874202 98.7690809,167.874202 C98.7690809,167.874202 103.191463,161.748999 103.429692,159.544459 C103.66792,157.339918 106.656602,155.501691 106.656602,155.501691 C110.957704,150.724077 108.090303,145.089512 107.739457,142.150125 C107.739457,142.094623 107.724297,142.032461 107.713469,141.968078 C107.395109,139.996646 105.461129,134.32434 103.958125,130.077325 C102.944572,127.215641 102.123768,125 102.123768,125 C102.123768,125 94.1106357,125.368533 92.4452037,128.307921 C91.6785419,129.65329 92.0120614,131.056381 92.6184606,132.179742 C93.0855936,133.027913 93.6822222,133.793921 94.3856811,134.448664 L97.1058145,141.171069 C97.1058145,141.171069 101.885539,150.113555 100.09233,150.848402 C98.2991215,151.583249 96.2611871,158.312314 96.2611871,158.312314 Z" id="Path" fill="#67647E" fill-rule="nonzero"></path>
                <path d="M111.102042,85.8091462 C111.140789,86.3794818 111.295512,86.9338803 111.555394,87.4335808 L111.69205,87.6981316 L112.366655,89 L114.520618,89 L114.566171,88.3943179 L115,82.5927655 C115,82.5927655 114.401315,76.1901722 112.366655,77.0859319 C110.733287,77.8146069 110.952371,83.5674263 111.102042,85.8091462 Z" id="Path" fill="#F7C4A7" fill-rule="nonzero"></path>
                <path d="M111,88 L111.704151,89 L113.952453,89 L114,88.5347594 C112.953962,88.4688057 111.708679,88.3101604 111,88 Z" id="Path" fill="#000000" fill-rule="nonzero" opacity="0.1"></path>
                <path d="M111,87 L111,89.7874794 L115.624094,91 C115.624094,91 115.624094,90.7100494 115.637681,90.3058759 C115.664855,89.4557935 115.746377,88.096101 116,87.8500824 C115.997736,87.8478858 112.25,87.8478858 111,87 Z" id="Path" fill="#E6E6F0" fill-rule="nonzero"></path>
                <path d="M111,89 L111,89.9749304 L115.985352,91 C115.985352,91 115.985352,90.7548747 116,90.4131848 C114.337402,90.1922006 111.942383,89.3491179 111,89 Z" id="Path" fill="#000000" fill-rule="nonzero" opacity="0.1"></path>
                <path d="M84.8979571,93.2541481 C85.7458638,95.7467109 84.6414653,96.8697573 84.6414653,96.8697573 C84.6414653,96.8697573 95.1682273,97.5791625 92.5948304,95.6867008 C91.0919157,94.5808002 90.426309,92.143961 90.1337811,90.3093662 C90.0093674,89.5456066 89.9329028,88.7746492 89.9048463,88.0011201 C89.9048463,88.0011201 81.4936116,87.8768135 83.2381797,90.2472129 C83.9390028,91.1586591 84.4986598,92.1725617 84.8979571,93.2541481 L84.8979571,93.2541481 Z" id="Path" fill="#F7C4A7" fill-rule="nonzero"></path>
                <path d="M83.2346575,90.5018027 C84.0675713,91.7985654 84.350762,91.9892658 84.636035,92.9260815 C84.8947077,92.9761245 85.1566346,93.0008461 85.418974,92.9999779 C87.3888152,92.9999779 89.3065992,92.5351457 90,90.5685479 C89.8777862,89.7190703 89.8026737,88.8615873 89.7751133,88.0012438 C89.7751133,88.0012438 81.518855,87.862986 83.2346575,90.5018027 Z" id="Path" fill="#000000" fill-rule="nonzero" opacity="0.1"></path>
                <circle id="Oval" fill="#F7C4A7" fill-rule="nonzero" cx="86" cy="89" r="5"></circle>
                <path d="M110.922299,89 C110.922299,89 115.662862,91.4539877 117,90.8471835 L113.717733,99.9559398 C113.717733,99.9559398 113.475418,102.171221 109.219485,103.157278 C104.963553,104.143335 102.899469,105 102.899469,105 L95,95.5209147 L99.0114148,96.6363636 C99.0114148,96.6363636 101.077701,99.5900725 102.535997,98.6062465 C103.994293,97.6224205 108.483729,98.1132181 108.483729,98.1132181 C108.483729,98.1132181 111.050065,91.0925823 110.922299,89 Z" id="Path" fill="#575988" fill-rule="nonzero"></path>
                <path d="M110.922299,89 C110.922299,89 115.662862,91.4539877 117,90.8471835 L113.717733,99.9559398 C113.717733,99.9559398 113.475418,102.171221 109.219485,103.157278 C104.963553,104.143335 102.899469,105 102.899469,105 L95,95.5209147 L99.0114148,96.6363636 C99.0114148,96.6363636 101.077701,99.5900725 102.535997,98.6062465 C103.994293,97.6224205 108.483729,98.1132181 108.483729,98.1132181 C108.483729,98.1132181 111.050065,91.0925823 110.922299,89 Z" id="Path" fill="#000000" fill-rule="nonzero" opacity="0.05"></path>
                <path d="M92.2526479,94.50336 C92.2526479,94.50336 85.6906212,92.6310028 85,96.1085582 C85,96.1085582 88.0324347,94.6335718 92.3763748,97.2310745 C92.702564,97.4263923 93.0220044,97.6351804 93.3324466,97.8529485 C97.1567336,100.526782 99.8247362,104.671112 100.897786,109.360985 L103.671519,121.484161 L103.918973,124.743948 C103.918973,124.743948 107.891732,125.527465 108.643092,124.353313 C109.394452,123.179161 108.890546,119.268314 107.774754,117.96395 C106.658962,116.659586 104.913288,111.064965 104.913288,111.064965 L103.82674,107.811913 C102.917534,105.075226 101.472293,102.546206 99.5750328,100.371875 L99.5750328,100.371875 L99.3140814,100.064306 C97.6779186,98.1018453 95.6017927,96.5513599 93.2537113,95.53832 C92.6260783,95.262181 92.1649142,94.9142009 92.2526479,94.50336 Z" id="Path" fill="#000000" fill-rule="nonzero" opacity="0.1"></path>
                <path d="M92.2526479,94.50336 C92.2526479,94.50336 85.6906212,92.6310028 85,96.1085582 C85,96.1085582 88.0324347,94.6335718 92.3763748,97.2310745 C92.702564,97.4263923 93.0220044,97.6351804 93.3324466,97.8529485 C97.1567336,100.526782 99.8247362,104.671112 100.897786,109.360985 L103.671519,121.484161 L103.918973,124.743948 C103.918973,124.743948 107.891732,125.527465 108.643092,124.353313 C109.394452,123.179161 108.890546,119.268314 107.774754,117.96395 C106.658962,116.659586 104.920036,111.051495 104.920036,111.051495 L103.82674,107.811913 C102.917534,105.075226 101.472293,102.546206 99.5750328,100.371875 L99.5750328,100.371875 L99.3118318,100.055325 C97.6753006,98.096416 95.6000547,96.5490884 93.2537113,95.53832 C92.6260783,95.2599359 92.1649142,94.923181 92.2526479,94.50336 Z" id="Path" fill="#E6E6F0" fill-rule="nonzero"></path>
                <path d="M108,118.942353 L107.945674,121 L106.268097,119.917028 C106.268097,119.917028 103.278012,109.069977 101.172348,106.113462 C100.924623,105.764745 100.805107,105.247084 100.572593,105.158281 L92,96.9125292 L92,95 C92,95 96.376477,98.2272576 96.7350265,98.8250583 C96.8871384,99.0784738 99.1883743,100.34122 100.572593,102.29057 C101.813781,104.097125 102.915767,105.994878 103.869075,107.967511 L106.746163,114.422026 L108,118.942353 Z" id="Path" fill="#000000" fill-rule="nonzero" opacity="0.1"></path>
                <path d="M92,95 L92,96.8518827 L100.628826,105.158281 C100.85749,105.247084 100.978293,105.766911 101.224215,106.113462 C103.314548,109.072143 106.282864,119.917028 106.282864,119.917028 L107.948227,121 L108,118.942353 L106.759606,114.43069 L103.903465,107.976175 C102.957097,106.003541 101.863135,104.105789 100.630983,102.299234 C99.2568424,100.349883 96.963732,99.0871376 96.8213563,98.8337221 C96.5128758,98.3182273 93.1541054,95.8512163 92.2351355,95.1797734 L92,95 Z" id="Path" fill="#787C9C" fill-rule="nonzero"></path>
                <path d="M87.1902805,83.6885999 C87.5722197,83.5043612 88.0021742,83.2280031 87.9999917,82.8102526 C87.9624648,82.5015359 87.7755603,82.2295336 87.4980144,82.0797247 C86.8105237,81.6191279 86.8629039,80.7943383 86.0728353,81.0471309 C85.5446678,81.2206581 85.0819757,81.5505739 84.5669033,81.7605204 C84.2064288,81.9071661 83.8236487,81.99404 83.4341805,82.0175976 C83.1856467,82.0172475 82.9374896,82.0365911 82.692127,82.07544 C82.4952081,82.1248622 82.3063784,82.2013107 82.1312219,82.302525 C81.0329628,82.9051517 80.2171867,83.9041686 79.8570464,85.0875288 C79.5296698,86.1843918 79.5624075,87.4847743 78.7199586,88.2731447 C78.5677429,88.3942256 78.4274465,88.529069 78.3009166,88.6758991 C78.1911121,88.8384192 78.1168001,89.0215067 78.0826656,89.213619 C77.9310368,89.8689158 77.9889586,90.554168 78.2485364,91.1759755 C78.5147871,91.799256 79.0360609,92.2837119 79.6846281,92.5106351 C79.9683544,92.6027544 80.2695408,92.6348891 80.5576321,92.7055853 C81.9413436,93.048355 82.9212906,94.2394797 84.180599,94.8971691 C84.2810481,94.9590582 84.396059,94.9944755 84.514523,95 C84.6447886,94.9865504 84.7679504,94.9350588 84.8680897,94.8521806 C85.3547894,94.5094109 85.7563713,93.9802601 85.7410937,93.3911247 C85.7014237,93.0237496 85.5918562,92.6669474 85.4180822,92.3392502 C85.1543829,91.7252547 84.9526275,91.0873673 84.8157094,90.4347361 C84.7719481,90.2847285 84.7674441,90.126309 84.8026144,89.9741393 C84.8942798,89.6870697 85.2172913,89.5456772 85.4420898,89.3507269 C85.8785919,88.9629687 85.9200596,88.3009947 85.7629188,87.7504209 C85.6057781,87.199847 85.2740366,86.7156848 85.0274129,86.1972457 C84.94223,86.0417553 84.8923451,85.8700086 84.8811847,85.6938027 C84.8811847,85.0018363 85.8327591,84.6226474 86.234341,84.1706198 C86.7908811,83.5557767 86.4460445,84.0506504 87.1902805,83.6885999 Z" id="Path" fill="#000000" fill-rule="nonzero" opacity="0.1"></path>
                <path d="M87.1902805,83.6881886 C87.5722197,83.5039781 88.0021742,83.2276623 87.9999917,82.8099756 C87.9624648,82.5013061 87.7755603,82.2293455 87.4980144,82.0795595 C86.8105237,81.6190331 86.8629039,80.7943697 86.0728353,81.0471237 C85.5446678,81.2206243 85.0819757,81.5504897 84.5669033,81.760404 C84.2064288,81.9070273 83.8236487,81.9938879 83.4341805,82.017442 C83.1853743,82.0324358 82.3822106,81.6597308 82.139952,81.7154224 C81.943033,81.764837 81.7542033,81.8412738 81.5790469,81.9424726 C80.4807878,82.5450071 79.6650116,83.5438711 79.3048713,84.7270503 C78.9774948,85.8237455 79.2066583,87.1967565 78.3642094,87.9850062 C78.2223463,88.1178091 78.4144072,88.5205019 78.3009166,88.6768666 C78.1911121,88.8393619 78.1168001,89.0224214 78.0826656,89.2145043 C77.9310368,89.8697008 77.9889586,90.5548482 78.2485364,91.1765606 C78.5147871,91.7997458 79.0360609,92.2841275 79.6846281,92.5110159 C79.9683544,92.6031212 80.2695408,92.6352509 80.5576321,92.7059364 C81.9413436,93.0486536 82.9212906,94.2395961 84.180599,94.8971848 C84.2810481,94.9590645 84.396059,94.9944763 84.514523,95 C84.6447886,94.9865525 84.7679504,94.9350688 84.8680897,94.8522032 C85.3547894,94.5094859 85.7563713,93.9804162 85.7410937,93.3913709 C85.7014237,93.024052 85.5918562,92.6673044 85.4180822,92.3396573 C85.1543829,91.7257557 84.9526275,91.0879659 84.8157094,90.4354345 C84.7719481,90.2854499 84.7674441,90.1270547 84.8026144,89.9749082 C84.8942798,89.6878825 85.2172913,89.5465117 85.4420898,89.3515912 C85.8785919,88.9638923 85.9200596,88.3020196 85.7629188,87.75153 C85.6057781,87.2010404 85.2740366,86.7169523 85.0274129,86.1985925 C84.94223,86.0431259 84.8923451,85.8714054 84.8811847,85.6952265 C84.8811847,85.003366 85.8327591,84.6242351 86.234341,84.1722767 C86.7908811,83.5553856 86.4460445,84.0501837 87.1902805,83.6881886 Z" id="Path" fill="#B96B6B" fill-rule="nonzero"></path>
                <path d="M92.619044,132 C94.8122038,131.739938 97.585714,131.486378 98.800755,131.690093 C100.756993,132.01517 103.506593,130.274923 104,129.956347 C102.982756,127.162848 102.158963,125 102.158963,125 C102.158963,125 94.1166526,125.359752 92.4451562,128.229102 C91.6735291,129.535913 92.0191311,130.903406 92.619044,132 Z" id="Path" fill="#000000" fill-rule="nonzero" opacity="0.1"></path>
                <path d="M82.0413872,101.058857 C82.5193289,105.358198 87.2922586,111.378611 87.2922586,111.378611 C87.2922586,111.378611 90.6335256,114.940986 89.5586973,127.10427 L89.4397525,133 C89.4397525,133 96.4791208,131.886758 98.6287774,132.263034 C100.778434,132.63931 103.879649,130.419505 103.879649,130.419505 C103.879649,130.419505 105.073422,109.165486 99.9414952,104.743688 C99.3089999,103.738974 98.6208661,102.772566 97.8805066,101.849259 C96.5029098,100.132639 94.6365581,98.1978245 92.8761753,97.7213569 C92.6508827,97.6586379 92.4194858,97.6220447 92.1862956,97.6122592 C92.1862956,97.6122592 86.8164794,94.5419374 85.3848168,96.8752929 C85.3826542,96.8819723 81.5634454,96.7595157 82.0413872,101.058857 Z" id="Path" fill="#575988" fill-rule="nonzero"></path>
                <path d="M104,123 C104,123 102.111128,122.222222 98.9028396,122.442424 C95.694551,122.662626 90,120 90,120" id="Path" fill="#000000" fill-rule="nonzero" opacity="0.1"></path>
                <path d="M100.002431,150 C100.002431,150 99.8650147,150.401451 101.656425,150.933495 C103.447836,151.465538 104,152 104,152" id="Path" fill="#000000" fill-rule="nonzero" opacity="0.05"></path>
                <rect id="Rectangle" fill="#196ECF" fill-rule="nonzero" x="96" y="67" width="18" height="18" rx="9"></rect>
                <path d="M96.0055085,83.0098114 C96.0139684,83.5586424 96.154323,84.0979711 96.4153905,84.5848304 L97.1072019,85.875588 L97.5864818,86.7683796 L100.577102,87 C100.577102,87 100.639994,86.759957 100.715898,86.3683079 C100.932767,85.2059943 101.290601,82.6960709 100.577102,80.9631289 C99.620711,78.6469244 99.2607088,74.1092692 97.4650353,75.1536669 C96.0402075,75.9811836 95.9729782,80.979974 96.0055085,83.0098114 Z" id="Path" fill="#F7C4A7" fill-rule="nonzero"></path>
                <path d="M97,86.064118 L97,86.0929928 L97.53125,86.8131633 L100.846154,87 C100.846154,87 100.915865,86.8063692 101,86.4904454 C99.8052885,86.1626319 98.25,85.8653917 97,86.064118 Z" id="Path" fill="#000000" fill-rule="nonzero" opacity="0.1"></path>
                <path d="M97,86.0902077 L97,88.4789503 L101.907743,91 C101.907743,91 101.96458,90.5669953 102.068369,90.0089003 C102.246293,89.0466676 102.562603,87.7163809 103,87.5503958 C102.990115,87.5503958 99.4439868,85.5585741 97,86.0902077 Z" id="Path" fill="#E6E6F0" fill-rule="nonzero"></path>
                <path d="M85.1841922,105.74352 C86.2443156,106.671404 87.6461855,107.11727 89.0514793,106.973515 C96.6213035,106.208807 96.8380797,103.550639 96.8380797,103.550639 L98,100.993714 C96.6191357,99.3328979 94.7483573,97.4609789 92.9837992,97 C91.7286651,99.0097818 90.6166033,100.459496 90.6166033,100.459496 C90.6166033,100.459496 84.995597,96.1814393 83.3199171,100.222544 C82.3400888,102.574829 83.7968247,104.524296 85.1841922,105.74352 Z" id="Path" fill="#000000" fill-rule="nonzero" opacity="0.05"></path>
                <path d="M97,88 L97,88.8060014 L101.841541,91 C101.841541,91 101.897611,90.6231682 102,90.1374738 C99.9034617,89.5638521 97.8386153,88.4752268 97,88 Z" id="Path" fill="#000000" fill-rule="nonzero" opacity="0.1"></path>
                <path d="M95.8513795,88 C95.8513795,88 99.1719465,90.313139 102,90.8009288 L96.2213218,103.465806 C96.2213218,103.465806 96.0096078,106.189483 88.225218,106.973037 C86.7805624,107.119788 85.3395858,106.663002 84.2494517,105.712729 C82.8231679,104.463458 81.3233413,102.465947 82.3261971,100.055692 C84.046652,95.9149966 89.8275588,100.298483 89.8275588,100.298483 C89.8275588,100.298483 95.7265796,92.6284852 95.8513795,88 Z" id="Path" fill="#575988" fill-rule="nonzero"></path>
                <polygon id="Path" fill="#E8EAF1" fill-rule="nonzero" points="44 96 103 136.5011 44 177"></polygon>
                <polygon id="Path" fill="#E8EAF1" fill-rule="nonzero" points="163 96 104 136.5011 163 177"></polygon>
                <path d="M45,177 L101.685649,132.804265 C103.042999,131.731912 104.957001,131.731912 106.314351,132.804265 L163,177 L45,177 Z" id="Path" fill="url(#linearGradient-3)" fill-rule="nonzero"></path>
                <path d="M45,177 L101.685649,134.76767 C103.059253,133.74411 104.940747,133.74411 106.314351,134.76767 L163,177 L45,177 Z" id="Path" fill="#E8EAF1" fill-rule="nonzero"></path>
            </g>
        </g>
    </g>
</svg>