<?xml version="1.0" encoding="UTF-8"?>
<svg width="16px" height="16px" viewBox="0 0 16 16" version="1.1" xmlns="http://www.w3.org/2000/svg" xmlns:xlink="http://www.w3.org/1999/xlink">
    <!-- Generator: Sketch 51 (57462) - http://www.bohemiancoding.com/sketch -->
    <title>Group</title>
    <desc>Created with Sketch.</desc>
    <defs></defs>
    <g id="Page-1" stroke="none" stroke-width="1" fill="none" fill-rule="evenodd">
        <g id="Group">
            <circle id="Oval" fill="#FFFFFF" fill-rule="nonzero" cx="8" cy="8" r="7"></circle>
            <path d="M8,0 C12.4166667,0 16,3.58333333 16,8 C16,12.4166667 12.4166667,16 8,16 C3.58333333,16 0,12.4166667 0,8 C0,3.58333333 3.58333333,0 8,0 Z M9.33333333,12.9895833 L9.33333333,11.0104167 C9.33333333,10.8229167 9.1875,10.6666667 9.01041667,10.6666667 L7.01041667,10.6666667 C6.82291667,10.6666667 6.66666667,10.8229167 6.66666667,11.0104167 L6.66666667,12.9895833 C6.66666667,13.1770833 6.82291667,13.3333333 7.01041667,13.3333333 L9.01041667,13.3333333 C9.1875,13.3333333 9.33333333,13.1770833 9.33333333,12.9895833 Z M9.3125,9.40625 L9.5,2.9375 C9.5,2.86458333 9.46875,2.79166667 9.39583333,2.75 C9.33333333,2.69791667 9.23958333,2.66666667 9.14583333,2.66666667 L6.85416667,2.66666667 C6.76041667,2.66666667 6.66666667,2.69791667 6.60416667,2.75 C6.53125,2.79166667 6.5,2.86458333 6.5,2.9375 L6.67708333,9.40625 C6.67708333,9.55208333 6.83333333,9.66666667 7.03125,9.66666667 L8.95833333,9.66666667 C9.14583333,9.66666667 9.30208333,9.55208333 9.3125,9.40625 Z" id="Error-Symbol-(FA)" fill="#BF3533"></path>
        </g>
    </g>
</svg>
