<?xml version="1.0" encoding="UTF-8"?>
<svg width="16px" height="16px" viewBox="0 0 16 16" version="1.1" xmlns="http://www.w3.org/2000/svg" xmlns:xlink="http://www.w3.org/1999/xlink">
    <!-- Generator: Sketch 52.4 (67378) - http://www.bohemiancoding.com/sketch -->
    <title>Icons / External Link</title>
    <desc>Created with Sketch.</desc>
    <g id="Icons-/-External-Link" stroke="none" stroke-width="1" fill="none" fill-rule="evenodd">
        <path d="M16,1.71428571 L16,14.2857143 C16,14.7619046 15.8333332,15.1666668 15.5,15.5 C15.1666668,15.8333332 14.7619046,16 14.2857143,16 L1.71428571,16 C1.23809542,16 0.833333152,15.8333332 0.5,15.5 C0.166666848,15.1666668 0,14.7619046 0,14.2857143 L0,1.71428571 C0,1.23809542 0.166666848,0.833333152 0.5,0.5 C0.833333152,0.166666848 1.23809542,0 1.71428571,0 L14.2857143,0 C14.7619046,0 15.1666668,0.166666848 15.5,0.5 C15.8333332,0.833333152 16,1.23809542 16,1.71428571 Z M12.8571429,2.28571429 L8.85714286,2.28571429 C8.61904744,2.28571429 8.41666685,2.36904744 8.25,2.53571429 C8.08333315,2.70238113 8,2.90476172 8,3.14285714 C8,3.38095256 8.08333315,3.58333315 8.25,3.75 L9.39285714,4.89285714 L2.42857143,11.8571429 C2.33333315,11.9523811 2.28571429,12.059524 2.28571429,12.1785714 C2.28571429,12.2976189 2.33333315,12.3928571 2.42857143,12.4642857 L3.53571429,13.5714286 C3.60714286,13.6666668 3.70238113,13.7142857 3.82142857,13.7142857 C3.94047601,13.7142857 4.04761887,13.6666668 4.14285714,13.5714286 L11.1071429,6.60714286 L12.25,7.75 C12.4166668,7.91666685 12.6190474,8 12.8571429,8 C13.0952383,8 13.2976189,7.91666685 13.4642857,7.75 C13.6309526,7.58333315 13.7142857,7.38095256 13.7142857,7.14285714 L13.7142857,3.14285714 C13.7142857,2.90476172 13.6309526,2.70238113 13.4642857,2.53571429 C13.2976189,2.36904744 13.0952383,2.28571429 12.8571429,2.28571429 Z" id="External-Symbol-(FA)" fill="#196ECF"></path>
    </g>
</svg>