<?xml version="1.0" encoding="UTF-8"?>
<svg width="16px" height="16px" viewBox="0 0 16 16" version="1.1" xmlns="http://www.w3.org/2000/svg" xmlns:xlink="http://www.w3.org/1999/xlink">
    <!-- Generator: Sketch 52.4 (67378) - http://www.bohemiancoding.com/sketch -->
    <title>Icons / Flag</title>
    <desc>Created with Sketch.</desc>
    <g id="Icons-/-Flag" stroke="none" stroke-width="1" fill="none" fill-rule="evenodd">
        <path d="M2.37037037,2.18518519 C2.37037037,2.61111111 2.13888889,2.99074074 1.77777778,3.2037037 L1.77777778,14.9259259 C1.77777778,15.0833333 1.63888889,15.2222222 1.48148148,15.2222222 L0.888888889,15.2222222 C0.731481481,15.2222222 0.592592593,15.0833333 0.592592593,14.9259259 L0.592592593,3.2037037 C0.231481481,2.99074074 0,2.61111111 0,2.18518519 C0,1.52777778 0.527777778,1 1.18518519,1 C1.84259259,1 2.37037037,1.52777778 2.37037037,2.18518519 Z M16,2.77777778 L16,9.84259259 C16,10.1851852 15.787037,10.3148148 15.5185185,10.4537037 C14.4722222,11.0185185 13.3148148,11.5277778 12.1018519,11.5277778 C10.3981481,11.5277778 9.58333333,10.2314815 7.56481481,10.2314815 C6.09259259,10.2314815 4.5462963,10.8981481 3.26851852,11.5833333 C3.16666667,11.6388889 3.07407407,11.6666667 2.96296296,11.6666667 C2.63888889,11.6666667 2.37037037,11.3981481 2.37037037,11.0740741 L2.37037037,4.2037037 C2.37037037,3.98148148 2.48148148,3.82407407 2.65740741,3.69444444 C2.87962963,3.5462963 3.14814815,3.41666667 3.38888889,3.2962963 C4.55555556,2.7037037 5.97222222,2.18518519 7.28703704,2.18518519 C8.74074074,2.18518519 9.87962963,2.66666667 11.1666667,3.26851852 C11.4259259,3.39814815 11.6944444,3.44444444 11.9814815,3.44444444 C13.4351852,3.44444444 15,2.18518519 15.4074074,2.18518519 C15.7314815,2.18518519 16,2.4537037 16,2.77777778 Z" id="" fill="#FFFFFF"></path>
    </g>
</svg>