<?xml version="1.0" encoding="UTF-8"?>
<svg width="126px" height="49px" viewBox="0 0 126 49" version="1.1" xmlns="http://www.w3.org/2000/svg" xmlns:xlink="http://www.w3.org/1999/xlink">
    <!-- Generator: Sketch 51 (57462) - http://www.bohemiancoding.com/sketch -->
    <title>Group</title>
    <desc>Created with Sketch.</desc>
    <defs>
        <polygon id="path-1" points="0 0.242242373 47.2687664 0.242242373 47.2687664 48.385636 0 48.385636"></polygon>
    </defs>
    <g id="Symbols" stroke="none" stroke-width="1" fill="none" fill-rule="evenodd">
        <g id="Logos-/-Primary-(White)" transform="translate(1.000000, 0.000000)">
            <g id="Group-Copy-3">
                <g id="Group">
                    <path d="M40.5228646,0.327090384 C37.2489663,2.34762646 34.6981713,5.28373281 32.8704044,9.13549528 C32.523226,9.86712497 32.2086582,10.6164934 31.9267008,11.3836014 L11.0565111,11.3836014 L11.0565111,19.4340086 L30.210242,19.4340086 C30.1356007,20.3781526 30.0982801,21.3426022 30.0982801,22.3273585 C30.0982801,25.2473797 30.4205574,27.9684292 31.0651161,30.4905197 L11.0565111,30.4905197 L11.0565111,43.6918239 C11.0565111,46.4532476 8.81793481,48.6918239 6.05651106,48.6918239 L5,48.6918239 C2.23857625,48.6918239 -5.50001544e-16,46.4532476 -8.8817842e-16,43.6918239 L-8.8817842e-16,26.3825181 C-0.0521234666,26.0930738 -0.0793349095,25.7949745 -0.0793349095,25.4905197 L-0.0793349095,24.4340086 C-0.0793349095,24.1295538 -0.0521234666,23.8314545 -8.21565038e-15,23.5420102 L-8.8817842e-16,5.3081761 C-1.2263553e-15,2.54675235 2.23857625,0.308176101 5,0.308176101 L6.05651106,0.308176101 C6.20407026,0.308176101 6.35013652,0.314568124 6.49444805,0.327090384 L40.5228646,0.327090384 Z" id="Combined-Shape" fill="#FFFFFF"></path>
                    <g id="Fox_Icon_Black-Copy" transform="translate(77.702703, 0.308176)">
                        <g id="Group-3">
                            <mask id="mask-2" fill="white">
                                <use xlink:href="#path-1"></use>
                            </mask>
                            <g id="Clip-2"></g>
                            <path d="M47.2800388,47.2096137 C47.2800388,46.9576314 47.1967486,46.7892242 47.1131452,46.6211313 C31.2416612,45.3926388 34.72576,34.6164665 27.0138996,30.0763857 C29.6744899,28.5355859 34.6853674,29.6120093 36.894437,31.3824837 L31.9568298,24.0203264 L45.7726736,2.00674713 C45.9408197,1.75476479 45.9408197,1.58572925 45.9408197,1.33374692 C45.9408197,0.746521242 45.5218636,0.242242373 44.936014,0.242242373 L33.715005,0.242242373 C32.7944289,0.242242373 32.2918695,0.746521242 31.5385,2.00674713 L24.6717535,13.6013908 L17.2200968,2.00674713 C16.4664142,0.913985813 15.9641679,0.242242373 15.0423393,0.242242373 L2.56634082,0.242242373 C1.90659459,0.242242373 0.960342519,1.00227389 1.55088898,1.90055008 L4.91725429,7.02597138 C4.10313934,8.15517902 3.31000351,9.84019308 2.75515286,11.4419462 C4.30291063,9.24385583 6.0019059,7.98268737 7.38965877,7.08441118 L7.52116964,8.93940335 C7.25814789,9.37267473 6.95849097,9.75504693 6.74588172,10.344472 C7.5042611,9.40158043 9.85705331,7.20254753 10.9974405,6.54745629 C11.2526342,8.94505882 10.6858849,12.4869502 10.0737331,14.6093202 C12.8980858,15.5343027 15.3946006,15.9989933 17.812522,19.9882948 C19.5876057,22.9187677 24.5195767,22.7431341 26.1052221,22.8650408 C24.6332396,30.6413037 15.1015192,24.7841282 6.02100629,38.9542073 L1.47761863,46.0436456 L0,48.385636 L13.0327278,48.385636 C13.9545565,48.385636 14.4568028,47.9658749 15.2104853,46.705649 L22.9974948,33.598483 L31.2870637,46.6211313 C32.0410594,47.8813572 32.5433057,48.385636 33.464195,48.385636 L46.1083395,48.385636 C46.7774794,48.385636 47.2800388,47.7971536 47.2800388,47.2096137" id="Fill-1" fill="#FFFFFF" mask="url(#mask-2)"></path>
                        </g>
                        <path d="M16.836427,21.1783309 C16.5356662,21.8758904 15.6330744,22.2359912 14.7221368,21.9887903 C13.8111992,21.7425198 13.2109138,20.9757935 13.3017912,20.2214739 L11.9392486,19.2667881 C13.9972814,19.3803082 15.1873425,21.1367688 16.836427,21.1783309" id="Fill-4" fill="#E15F29"></path>
                    </g>
                    <g id="Group-Copy" transform="translate(35.933661, 0.000000)" fill="#FFFFFF">
                        <path d="M20.9828484,0 C28.1761914,0 33.8483275,2.13916304 37.9994266,6.41755328 C42.1505258,10.6959435 44.2260442,16.5422425 44.2260442,23.9566256 C44.2260442,31.3934087 42.1363099,37.3237062 37.9567786,41.7476961 C33.7772472,46.171686 28.360997,48.3836478 21.7078655,48.3836478 C14.7988443,48.3836478 9.45367349,46.0876875 5.67219275,41.4956979 C1.89071201,36.9037084 0,31.1806073 0,24.3262229 C0,19.5774337 0.924032185,15.3159074 2.77212428,11.541516 C4.62021637,7.76712459 7.20750649,4.89997413 10.5340723,2.9399786 C13.860638,0.979983066 17.3435286,0 20.9828484,0 Z M22.4755307,9.87832809 C19.6891764,9.87832809 17.5567945,11.1439062 16.0783208,13.6751005 C14.5998471,16.2062947 13.8606214,19.6670349 13.8606214,24.0574249 C13.8606214,28.5150147 14.5785233,32.0149542 16.0143487,34.5573484 C17.4501741,37.0997427 19.4332893,38.3709207 21.9637539,38.3709207 C24.4657863,38.3709207 26.4702253,37.0605433 27.9771312,34.4397493 C29.484037,31.8189553 30.2374786,28.3246157 30.2374786,23.9566256 C30.2374786,19.4318359 29.4769291,15.954296 27.9558071,13.5239016 C26.4346852,11.0935071 24.6079446,9.87832809 22.4755307,9.87832809 Z" id="O"></path>
                    </g>
                </g>
            </g>
        </g>
    </g>
</svg>
