<?xml version="1.0" encoding="UTF-8"?>
<svg width="16px" height="16px" viewBox="0 0 16 16" version="1.1" xmlns="http://www.w3.org/2000/svg" xmlns:xlink="http://www.w3.org/1999/xlink">
    <!-- Generator: Sketch 52.4 (67378) - http://www.bohemiancoding.com/sketch -->
    <title>Icons / Question Mark</title>
    <desc>Created with Sketch.</desc>
    <g id="Icons-/-Question-Mark" stroke="none" stroke-width="1" fill="none" fill-rule="evenodd">
        <path style="fill:#fff" d="M9.33333333,13 L9.33333333,11 C9.33333333,10.8125 9.1875,10.6666667 9,10.6666667 L7,10.6666667 C6.8125,10.6666667 6.66666667,10.8125 6.66666667,11 L6.66666667,13 C6.66666667,13.1875 6.8125,13.3333333 7,13.3333333 L9,13.3333333 C9.1875,13.3333333 9.33333333,13.1875 9.33333333,13 Z M12,6 C12,4.09375 10,2.66666667 8.20833333,2.66666667 C6.51041667,2.66666667 5.23958333,3.39583333 4.34375,4.88541667 C4.25,5.03125 4.29166667,5.21875 4.42708333,5.32291667 L5.80208333,6.36458333 C5.85416667,6.40625 5.92708333,6.42708333 6,6.42708333 C6.09375,6.42708333 6.19791667,6.38541667 6.26041667,6.30208333 C6.75,5.67708333 6.95833333,5.48958333 7.15625,5.34375 C7.33333333,5.21875 7.67708333,5.09375 8.05208333,5.09375 C8.71875,5.09375 9.33333333,5.52083333 9.33333333,5.97916667 C9.33333333,6.52083333 9.05208333,6.79166667 8.41666667,7.08333333 C7.67708333,7.41666667 6.66666667,8.28125 6.66666667,9.29166667 L6.66666667,9.66666667 C6.66666667,9.85416667 6.8125,10 7,10 L9,10 C9.1875,10 9.33333333,9.85416667 9.33333333,9.66666667 C9.33333333,9.42708333 9.63541667,8.91666667 10.125,8.63541667 C10.9166667,8.1875 12,7.58333333 12,6 Z M16,8 C16,12.4166667 12.4166667,16 8,16 C3.58333333,16 0,12.4166667 0,8 C0,3.58333333 3.58333333,0 8,0 C12.4166667,0 16,3.58333333 16,8 Z" id="Help-Symbol-(FA)" fill="#99A9BC"></path>
    </g>
</svg>
