<?xml version="1.0" encoding="UTF-8"?>
<svg width="16px" height="16px" viewBox="0 0 16 16" version="1.1" xmlns="http://www.w3.org/2000/svg" xmlns:xlink="http://www.w3.org/1999/xlink">
    <!-- Generator: Sketch 52.4 (67378) - http://www.bohemiancoding.com/sketch -->
    <title>Icons / Info</title>
    <desc>Created with Sketch.</desc>
    <g id="Icons-/-Info" stroke="none" stroke-width="1" fill="none" fill-rule="evenodd">
        <path d="M8,0 C9.44086038,0 10.7741935,0.360215218 12,1.08064516 C13.2258065,1.8010751 14.1989249,2.77419355 14.9193548,4 C15.6397848,5.22580645 16,6.55913962 16,8 C16,9.44086038 15.6397848,10.7741935 14.9193548,12 C14.1989249,13.2258065 13.2258065,14.1989249 12,14.9193548 C10.7741935,15.6397848 9.44086038,16 8,16 C6.55913962,16 5.22580645,15.6397848 4,14.9193548 C2.77419355,14.1989249 1.8010751,13.2258065 1.08064516,12 C0.360215218,10.7741935 0,9.44086038 0,8 C0,6.55913962 0.360215218,5.22580645 1.08064516,4 C1.8010751,2.77419355 2.77419355,1.8010751 4,1.08064516 C5.22580645,0.360215218 6.55913962,0 8,0 Z M8,3.5483871 C7.63440877,3.5483871 7.31720414,3.68279586 7.0483871,3.9516129 C6.77957006,4.22042994 6.64516129,4.53763457 6.64516129,4.90322581 C6.64516129,5.26881704 6.77957006,5.58602167 7.0483871,5.85483871 C7.31720414,6.12365575 7.63440877,6.25806452 8,6.25806452 C8.36559123,6.25806452 8.68279586,6.12365575 8.9516129,5.85483871 C9.22042994,5.58602167 9.35483871,5.26881704 9.35483871,4.90322581 C9.35483871,4.53763457 9.22042994,4.22042994 8.9516129,3.9516129 C8.68279586,3.68279586 8.36559123,3.5483871 8,3.5483871 Z M9.80645161,11.7419355 L9.80645161,10.9677419 C9.80645161,10.8602152 9.76881704,10.768817 9.69354839,10.6935484 C9.61827973,10.6182797 9.52688156,10.5806452 9.41935484,10.5806452 L9.03225806,10.5806452 L9.03225806,7.35483871 C9.03225806,7.24731199 8.99462349,7.15591381 8.91935484,7.08064516 C8.84408619,7.00537651 8.75268801,6.96774194 8.64516129,6.96774194 L6.58064516,6.96774194 C6.47311844,6.96774194 6.38172027,7.00537651 6.30645161,7.08064516 C6.23118296,7.15591381 6.19354839,7.24731199 6.19354839,7.35483871 L6.19354839,8.12903226 C6.19354839,8.23655898 6.23118296,8.32795715 6.30645161,8.40322581 C6.38172027,8.47849446 6.47311844,8.51612903 6.58064516,8.51612903 L6.96774194,8.51612903 L6.96774194,10.5806452 L6.58064516,10.5806452 C6.47311844,10.5806452 6.38172027,10.6182797 6.30645161,10.6935484 C6.23118296,10.768817 6.19354839,10.8602152 6.19354839,10.9677419 L6.19354839,11.7419355 C6.19354839,11.8494622 6.23118296,11.9408604 6.30645161,12.016129 C6.38172027,12.0913977 6.47311844,12.1290323 6.58064516,12.1290323 L9.41935484,12.1290323 C9.52688156,12.1290323 9.61827973,12.0913977 9.69354839,12.016129 C9.76881704,11.9408604 9.80645161,11.8494622 9.80645161,11.7419355 Z" id="Display-Symbol-(FA)" fill="#E0E0E0"></path>
    </g>
</svg>
