<?xml version="1.0" encoding="UTF-8"?>
<svg width="16px" height="16px" viewBox="0 0 16 16" version="1.1" xmlns="http://www.w3.org/2000/svg" xmlns:xlink="http://www.w3.org/1999/xlink">
    <!-- Generator: Sketch 53.2 (72643) - https://sketchapp.com -->
    <title>Link-9ca2ab</title>
    <desc>Created with Sketch.</desc>
    <g id="SVG-Party" stroke="none" stroke-width="1" fill="none" fill-rule="evenodd">
        <g id="Artboard" transform="translate(-83.000000, -50.000000)" fill="#9CA2AB" fill-rule="nonzero">
            <g id="Link-9ca2ab" transform="translate(83.000000, 50.000000)">
                <path d="M14.1176471,11.7647059 C14.1176471,11.5098039 14.0196078,11.2745098 13.8431373,11.0980392 L11.8039216,9.05882353 C11.627451,8.88235294 11.3823529,8.78431373 11.1372549,8.78431373 C10.8529412,8.78431373 10.627451,8.89215686 10.4313725,9.09803922 C10.754902,9.42156863 11.1372549,9.69607843 11.1372549,10.1960784 C11.1372549,10.7156863 10.7156863,11.1372549 10.1960784,11.1372549 C9.69607843,11.1372549 9.42156863,10.754902 9.09803922,10.4313725 C8.89215686,10.627451 8.7745098,10.8529412 8.7745098,11.1470588 C8.7745098,11.3921569 8.87254902,11.6372549 9.04901961,11.8137255 L11.0686275,13.8431373 C11.245098,14.0196078 11.4901961,14.1078431 11.7352941,14.1078431 C11.9803922,14.1078431 12.2254902,14.0196078 12.4019608,13.8529412 L13.8431373,12.4215686 C14.0196078,12.245098 14.1176471,12.0098039 14.1176471,11.7647059 Z M7.2254902,4.85294118 C7.2254902,4.60784314 7.12745098,4.3627451 6.95098039,4.18627451 L4.93137255,2.15686275 C4.75490196,1.98039216 4.50980392,1.88235294 4.26470588,1.88235294 C4.01960784,1.88235294 3.7745098,1.98039216 3.59803922,2.14705882 L2.15686275,3.57843137 C1.98039216,3.75490196 1.88235294,3.99019608 1.88235294,4.23529412 C1.88235294,4.49019608 1.98039216,4.7254902 2.15686275,4.90196078 L4.19607843,6.94117647 C4.37254902,7.11764706 4.61764706,7.20588235 4.8627451,7.20588235 C5.14705882,7.20588235 5.37254902,7.10784314 5.56862745,6.90196078 C5.24509804,6.57843137 4.8627451,6.30392157 4.8627451,5.80392157 C4.8627451,5.28431373 5.28431373,4.8627451 5.80392157,4.8627451 C6.30392157,4.8627451 6.57843137,5.24509804 6.90196078,5.56862745 C7.10784314,5.37254902 7.2254902,5.14705882 7.2254902,4.85294118 Z M16,11.7647059 C16,12.5098039 15.6960784,13.2352941 15.1666667,13.754902 L13.7254902,15.1862745 C13.1960784,15.7156863 12.4803922,16 11.7352941,16 C10.9803922,16 10.2647059,15.7058824 9.73529412,15.1666667 L7.71568627,13.1372549 C7.18627451,12.6078431 6.90196078,11.8921569 6.90196078,11.1470588 C6.90196078,10.372549 7.21568627,9.6372549 7.76470588,9.09803922 L6.90196078,8.23529412 C6.3627451,8.78431373 5.6372549,9.09803922 4.8627451,9.09803922 C4.11764706,9.09803922 3.39215686,8.80392157 2.8627451,8.2745098 L0.823529412,6.23529412 C0.284313725,5.69607843 0,4.99019608 0,4.23529412 C0,3.49019608 0.303921569,2.76470588 0.833333333,2.24509804 L2.2745098,0.81372549 C2.80392157,0.284313725 3.51960784,0 4.26470588,0 C5.01960784,0 5.73529412,0.294117647 6.26470588,0.833333333 L8.28431373,2.8627451 C8.81372549,3.39215686 9.09803922,4.10784314 9.09803922,4.85294118 C9.09803922,5.62745098 8.78431373,6.3627451 8.23529412,6.90196078 L9.09803922,7.76470588 C9.6372549,7.21568627 10.3627451,6.90196078 11.1372549,6.90196078 C11.8823529,6.90196078 12.6078431,7.19607843 13.1372549,7.7254902 L15.1764706,9.76470588 C15.7156863,10.3039216 16,11.0098039 16,11.7647059 Z" id="ïƒ"></path>
            </g>
        </g>
    </g>
</svg>
