<svg xmlns="http://www.w3.org/2000/svg" width="489.219" height="487.875" viewBox="0 0 489.219 487.875">
  <metadata><?xpacket begin="﻿" id="W5M0MpCehiHzreSzNTczkc9d"?>
<x:xmpmeta xmlns:x="adobe:ns:meta/" x:xmptk="Adobe XMP Core 5.6-c140 79.160451, 2017/05/06-01:08:21        ">
   <rdf:RDF xmlns:rdf="http://www.w3.org/1999/02/22-rdf-syntax-ns#">
      <rdf:Description rdf:about=""/>
   </rdf:RDF>
</x:xmpmeta>





















<?xpacket end="w"?></metadata>
<defs>
    <style>
      .cls-1 {
        fill: #196ecf;
        fill-rule: evenodd;
      }
    </style>
  </defs>
  <path id="sahpe_layer" data-name="sahpe layer" class="cls-1" d="M521,204s-23.3-53.944-55-83C396.833,57.6,330.343,49.425,284,53c-64.343,4.964-72,38-72,38s-46.358-9.312-89,39C62.336,198.731,62,263,62,263s5.067-9.715,10-14a43.32,43.32,0,0,1,12-7S53.911,298.037,72,363c8.355,30,35.914,89.479,75,100,39.58,10.654,128-17,128-17s-13.632-64.918-60-114c-16.252-17.2-27.243-39.72-34-62-13.681-45.11-18.238-80.187,4-115,14.254-22.314,23-28,23-28s-0.784,15.138,1,23c2.668,11.76,11.928,52.016,56,53,64.818,1.446,90.975,45.582,104,22,8.97-16.24-45-45-45-45s26.482-.355,45,9c12.669,6.4,17.213,8.9,23,21a107.977,107.977,0,0,1,10-14,72.271,72.271,0,0,1,12-11s29.35,12.276,39,41,7,46,7,46-9.012-33.254-20-48c-11.746-15.763-25-22-25-22s-23.206,22.858-23,53c0.011,1.637,0,57,0,57l2,30s-4.025,16.75-3,20c4.763,15.11-17.926,54.867,0,69,15.085,11.893,45.393-19.49,63.331-34.231,8.268-6.8,19.617-9.711,33.669-19.769,29.934-21.426,54.812-56.959,61-104,4.314-32.8,1-58,1-58s-55.789,8.441-73,65c-0.053.176-.384-26.7,21-57A55.937,55.937,0,0,1,521,204ZM379.673,339.634S372.982,348.6,368,354c-7.965,8.636-33.324,25.758-42,16-6.581-7.4,8.955-24.383,19-37,13.2-16.582,33-59,33-59s-0.942,16.365,0,38C378.5,323.535,379.673,339.634,379.673,339.634ZM526,364s-15.5,41.8-34,66c-15.471,20.236-50.261,49.385-60,36-8.311-11.423,15.847-26.511,24-37,11.456-14.74,9-22,9-22s16.725-9.112,27-16A286.7,286.7,0,0,0,526,364ZM187,441c51.03-1.3,65-10,65-10s-15.171-58.117-47-88c-11.909-11.181-23.719-35.042-23-34,0,0-5.486,17.236-3,30,1.828,9.388,7,31,7,31s-15.919-11.276-36-47c-15.73-27.984-21-59-21-59s-10.232,34.425-6,59a89.166,89.166,0,0,0,14,35,85.3,85.3,0,0,1-32-25c-7.49-9.57-15-29-15-29s-2.04,35.612,3,53C105.317,399.492,136.494,442.285,187,441ZM419,325c4.971,0,9,6.044,9,13.5s-4.029,13.5-9,13.5-9-6.044-9-13.5S414.029,325,419,325Zm56.687,26.1c3.462,3.566,1.932,10.667-3.418,15.861s-12.493,6.512-15.956,2.945-1.932-10.667,3.418-15.861S472.224,347.53,475.687,351.1ZM385.26,487.772a148.828,148.828,0,0,1-26.158,9.914c-0.21,12.967-22.643,25.749-51.489,28.985-12.509,1.4-29.586.146-45.282-2.258,3.728,4.963,4.4,10.8,1.311,13.862-3.534,3.5-10.649,2.032-15.892-3.268-4.483-4.532-6.135-10.394-4.315-14.186-12.942-3-22.235-6.477-22.527-9.077-0.281-2.506,8.036-7.945,20.017-13.762-2.683-3.275-2.391-9.414,1-14.87,3.939-6.33,10.553-9.333,14.773-6.708,3.714,2.311,4.333,8.209,1.746,13.9,14.785-5.863,31.179-10.926,43.7-12.331,26.332-2.954,49.213,3.034,55.345,13.682a105.7,105.7,0,0,0,30.96-11.289c18.245-10.264,29.013-28.412,29.013-28.412S402.064,479.6,385.26,487.772Z" transform="translate(-62 -52.313)"/>
</svg>
