<?xml version="1.0" encoding="UTF-8"?>
<svg width="16px" height="16px" viewBox="0 0 16 16" version="1.1" xmlns="http://www.w3.org/2000/svg" xmlns:xlink="http://www.w3.org/1999/xlink">
    <!-- Generator: Sketch 52.4 (67378) - http://www.bohemiancoding.com/sketch -->
    <title>Icons / Lock</title>
    <desc>Created with Sketch.</desc>
    <g id="Icons-/-Lock" stroke="none" stroke-width="1" fill="none" fill-rule="evenodd">
      <circle class="cls-1" cx="14" cy="14" r="14"/>
        <path d="M13,5.33333333 L12.2142857,5.33333333 L12.2142857,3.80952381 C12.2142857,1.70666667 10.4542857,0 8.28571429,0 C6.11714286,0 4.35714286,1.70666667 4.35714286,3.80952381 L4.35714286,5.33333333 L3.57142857,5.33333333 C2.70714286,5.33333333 2,6.01904762 2,6.85714286 L2,14.4761905 C2,15.3142857 2.70714286,16 3.57142857,16 L13,16 C13.8642857,16 14.5714286,15.3142857 14.5714286,14.4761905 L14.5714286,6.85714286 C14.5714286,6.01904762 13.8642857,5.33333333 13,5.33333333 Z M8.28571429,12.5714286 C7.34285714,12.5714286 6.57142857,11.8 6.57142857,10.8571429 C6.57142857,9.91428571 7.34285714,9.14285714 8.28571429,9.14285714 C9.22857143,9.14285714 10,9.91428571 10,10.8571429 C10,11.8 9.22857143,12.5714286 8.28571429,12.5714286 Z M10,4.57142857 L5.42857143,4.57142857 L5.42857143,3.22689076 C5.42857143,2.07731092 6.45345622,1.14285714 7.71428571,1.14285714 C8.97511521,1.14285714 10,2.07731092 10,3.22689076 L10,4.57142857 Z" id="Shape" fill="#EB7560" fill-rule="nonzero"></path>
    </g>
</svg>
