<?xml version="1.0" encoding="UTF-8"?>
<svg width="13px" height="16px" viewBox="0 0 13 16" version="1.1" xmlns="http://www.w3.org/2000/svg" xmlns:xlink="http://www.w3.org/1999/xlink">
    <!-- Generator: Sketch 52.4 (67378) - http://www.bohemiancoding.com/sketch -->
    <title>Shape</title>
    <desc>Created with Sketch.</desc>
    <g id="Page-1" stroke="none" stroke-width="1" fill="none" fill-rule="evenodd">
        <path d="M11,5.33333333 L10.2142857,5.33333333 L10.2142857,3.80952381 C10.2142857,1.70666667 8.45428571,0 6.28571429,0 C4.11714286,0 2.35714286,1.70666667 2.35714286,3.80952381 L2.35714286,5.33333333 L1.57142857,5.33333333 C0.707142857,5.33333333 0,6.01904762 0,6.85714286 L0,14.4761905 C0,15.3142857 0.707142857,16 1.57142857,16 L11,16 C11.8642857,16 12.5714286,15.3142857 12.5714286,14.4761905 L12.5714286,6.85714286 C12.5714286,6.01904762 11.8642857,5.33333333 11,5.33333333 Z M6.28571429,12.5714286 C5.34285714,12.5714286 4.57142857,11.8 4.57142857,10.8571429 C4.57142857,9.91428571 5.34285714,9.14285714 6.28571429,9.14285714 C7.22857143,9.14285714 8,9.91428571 8,10.8571429 C8,11.8 7.22857143,12.5714286 6.28571429,12.5714286 Z M8,4.57142857 L3.42857143,4.57142857 L3.42857143,3.22689076 C3.42857143,2.07731092 4.45345622,1.14285714 5.71428571,1.14285714 C6.97511521,1.14285714 8,2.07731092 8,3.22689076 L8,4.57142857 Z" id="Shape" fill="#FFFFFF" fill-rule="nonzero"></path>
    </g>
</svg>
