<?xml version="1.0" encoding="UTF-8"?>
<svg width="13px" height="16px" viewBox="0 0 13 16" version="1.1" xmlns="http://www.w3.org/2000/svg" xmlns:xlink="http://www.w3.org/1999/xlink">
    <!-- Generator: Sketch 52.4 (67378) - http://www.bohemiancoding.com/sketch -->
    <title>Shape</title>
    <desc>Created with Sketch.</desc>
    <g id="⚙️-System" stroke="none" stroke-width="1" fill="none" fill-rule="evenodd">
        <g id="Artboard" transform="translate(-98.000000, -28.000000)" fill="#196ECF" fill-rule="nonzero">
            <path d="M109,33.3333333 L108.214286,33.3333333 L108.214286,31.8095238 C108.214286,29.7066667 106.454286,28 104.285714,28 C102.117143,28 100.357143,29.7066667 100.357143,31.8095238 L100.357143,33.3333333 L99.5714286,33.3333333 C98.7071429,33.3333333 98,34.0190476 98,34.8571429 L98,42.4761905 C98,43.3142857 98.7071429,44 99.5714286,44 L109,44 C109.864286,44 110.571429,43.3142857 110.571429,42.4761905 L110.571429,34.8571429 C110.571429,34.0190476 109.864286,33.3333333 109,33.3333333 Z M104.285714,40.5714286 C103.342857,40.5714286 102.571429,39.8 102.571429,38.8571429 C102.571429,37.9142857 103.342857,37.1428571 104.285714,37.1428571 C105.228571,37.1428571 106,37.9142857 106,38.8571429 C106,39.8 105.228571,40.5714286 104.285714,40.5714286 Z M106,32.5714286 L101.428571,32.5714286 L101.428571,31.2268908 C101.428571,30.0773109 102.453456,29.1428571 103.714286,29.1428571 C104.975115,29.1428571 106,30.0773109 106,31.2268908 L106,32.5714286 Z" id="Shape"></path>
        </g>
    </g>
</svg>