<?xml version="1.0" encoding="UTF-8"?>
<svg width="10px" height="10px" viewBox="0 0 16 16" version="1.1" xmlns="http://www.w3.org/2000/svg" xmlns:xlink="http://www.w3.org/1999/xlink">
    <!-- Generator: Sketch 52.4 (67378) - http://www.bohemiancoding.com/sketch -->
    <title>Icons / Ellipses</title>
    <desc>Created with Sketch.</desc>
    <g id="Icons-/-Ellipses" stroke="none" stroke-width="1" fill="none" fill-rule="evenodd">
        <path d="M2,6 C0.9,6 0,6.9 0,8 C0,9.1 0.9,10 2,10 C3.1,10 4,9.1 4,8 C4,6.9 3.1,6 2,6 Z M14,6 C12.9,6 12,6.9 12,8 C12,9.1 12.9,10 14,10 C15.1,10 16,9.1 16,8 C16,6.9 15.1,6 14,6 Z M8.4,6 C7.3,6 6.4,6.9 6.4,8 C6.4,9.1 7.3,10 8.4,10 C9.5,10 10.4,9.1 10.4,8 C10.4,6.9 9.5,6 8.4,6 Z" id="Shape-Copy" fill="#4E5871" fill-rule="nonzero"></path>
    </g>
</svg>