<?xml version="1.0" encoding="UTF-8"?>
<svg width="14px" height="14px" viewBox="0 0 16 16" version="1.1" xmlns="http://www.w3.org/2000/svg" xmlns:xlink="http://www.w3.org/1999/xlink">
    <!-- Generator: Sketch 52.4 (67378) - http://www.bohemiancoding.com/sketch -->
    <title>Icons / PDF Fill</title>
    <desc>Created with Sketch.</desc>
    <g id="Icons-/-PDF-Fill" stroke="none" stroke-width="1" fill="none" fill-rule="evenodd">
        <path style="fill:#196ECF;" d="M7.6875,8 C7.60416651,7.77083349 7.5625,7.46875 7.5625,7.09375 C7.5625,6.71875 7.58333349,6.53125 7.625,6.53125 C7.75,6.53125 7.8125,6.734375 7.8125,7.140625 C7.8125,7.546875 7.77083349,7.83333349 7.6875,8 Z M7.625,9.46875 C7.91666651,10.0104165 8.28125,10.4375 8.71875,10.75 C8.34375,10.8333335 7.83333349,11 7.1875,11.25 L6.75,11.4375 C7.02083349,10.9375 7.3125,10.28125 7.625,9.46875 Z M4.6875,13.375 C4.79166651,13.1041665 5.11458349,12.71875 5.65625,12.21875 L5.78125,12.125 C5.57291651,12.4375 5.375,12.7083335 5.1875,12.9375 C5.0625,13.1041665 4.94791651,13.2239585 4.84375,13.296875 C4.73958349,13.3697915 4.6875,13.3958335 4.6875,13.375 Z M14,5 L14,15.25 C14,15.4583335 13.9270835,15.6354165 13.78125,15.78125 C13.6354165,15.9270835 13.4583335,16 13.25,16 L2.75,16 C2.54166651,16 2.36458349,15.9270835 2.21875,15.78125 C2.07291651,15.6354165 2,15.4583335 2,15.25 L2,0.75 C2,0.541666508 2.07291651,0.364583492 2.21875,0.21875 C2.36458349,0.0729165077 2.54166651,0 2.75,0 L9,0 L9,4.25 C9,4.45833349 9.07291651,4.63541651 9.21875,4.78125 C9.36458349,4.92708349 9.54166651,5 9.75,5 L14,5 Z M9.5,10.375 C8.89583349,10 8.44791651,9.4375 8.15625,8.6875 L8.1875,8.65625 C8.29166651,8.21875 8.35416651,7.88541651 8.375,7.65625 C8.4375,7.23958349 8.4375,6.91666651 8.375,6.6875 C8.3125,6.39583349 8.171875,6.19791651 7.953125,6.09375 C7.734375,5.98958349 7.51041651,5.97395849 7.28125,6.046875 C7.05208349,6.11979151 6.91666651,6.26041651 6.875,6.46875 C6.79166651,6.73958349 6.78125,7.08333349 6.84375,7.5 C6.88541651,7.85416651 6.97916651,8.3125 7.125,8.875 C6.64583349,10 6.21875,10.8958335 5.84375,11.5625 C5.23958349,11.8541665 4.77083349,12.1666665 4.4375,12.5 C3.97916651,12.9583335 3.875,13.3541665 4.125,13.6875 C4.20833349,13.7916665 4.31770849,13.8697915 4.453125,13.921875 C4.58854151,13.9739585 4.70833349,14 4.8125,14 C5.08333349,14 5.36979151,13.8489585 5.671875,13.546875 C5.97395849,13.2447915 6.32291651,12.75 6.71875,12.0625 L7.1875,11.90625 C8.10416651,11.59375 8.77083349,11.40625 9.1875,11.34375 C9.52083349,11.53125 9.86979151,11.6770835 10.234375,11.78125 C10.5989585,11.8854165 10.9166665,11.9375 11.1875,11.9375 C11.4583335,11.9375 11.6666665,11.8541665 11.8125,11.6875 C11.9583335,11.5208335 12.0260415,11.328125 12.015625,11.109375 C12.0052085,10.890625 11.9375,10.71875 11.8125,10.59375 C11.4791665,10.28125 10.7083335,10.2083335 9.5,10.375 Z M13.78125,3.28125 C13.9270835,3.42708349 14,3.60416651 14,3.8125 L14,4 L10,4 L10,0 L10.1875,0 C10.3958335,0 10.5729165,0.0729165077 10.71875,0.21875 L13.78125,3.28125 Z M11.46875,11.25 L11.375,11.28125 C11.2916665,11.3020835 11.1666665,11.3020835 11,11.28125 C10.7708335,11.21875 10.4791665,11.1145835 10.125,10.96875 C10.5,10.9479165 10.8125,10.9583335 11.0625,11 C11.25,11.0208335 11.375,11.0625 11.4375,11.125 C11.5,11.1875 11.5104165,11.2291665 11.46875,11.25 Z" id="ï‡" fill="#4E5B71"></path>
    </g>
</svg>
