<?xml version="1.0" encoding="UTF-8"?>
<svg width="16px" height="16px" viewBox="0 0 16 16" version="1.1" xmlns="http://www.w3.org/2000/svg" xmlns:xlink="http://www.w3.org/1999/xlink">
    <!-- Generator: Sketch 52.4 (67378) - http://www.bohemiancoding.com/sketch -->
    <title>Icons / Plan</title>
    <desc>Created with Sketch.</desc>
    <g id="Icons-/-Plan" stroke="none" stroke-width="1" fill="none" fill-rule="evenodd">
        <path d="M15.7585617,4.36462072 C15.9988918,4.710696 16.0661842,5.1625165 15.9315994,5.60472379 L13.2879688,14.3142849 C13.0476388,15.131407 12.201677,15.7658784 11.3749416,15.7658784 L2.50195609,15.7658784 C1.52140948,15.7658784 0.473570456,14.987209 0.11788198,13.987436 C-0.0359292536,13.5548419 -0.0359292536,13.131861 0.0986555754,12.7665593 C0.11788198,12.5742953 0.156334788,12.3820312 0.16594799,12.1513144 C0.175561192,11.9975032 0.0890423733,11.8725315 0.108268777,11.7571731 C0.146721586,11.5264563 0.348598829,11.3630318 0.502410062,11.1034754 C0.790806124,10.6228153 1.11765499,9.8441459 1.22340022,9.34425939 C1.27146623,9.16160856 1.17533421,8.95011811 1.22340022,8.78669367 C1.27146623,8.60404284 1.45411707,8.46945801 1.55024909,8.29642037 C1.80980554,7.85421307 2.14626762,6.99863809 2.19433363,6.54681759 C2.21356003,6.34494035 2.11742801,6.1238367 2.17510722,5.97002547 C2.24239964,5.74892182 2.45389008,5.6527898 2.59808811,5.46052576 C2.82880496,5.14329009 3.21333305,4.23003589 3.27101226,3.72053619 C3.29023866,3.55711175 3.19410664,3.39368731 3.22294625,3.22064968 C3.26139906,3.03799884 3.49211591,2.8457348 3.64592714,2.62463115 C4.04968163,2.02861262 4.12658724,0.711603938 5.3474639,1.05767921 L5.3378507,1.08651882 C5.50127514,1.04806601 5.66469957,1 5.82812401,1 L13.1437708,1 C13.5955913,1 13.9993458,1.20187724 14.2396758,1.53833932 C14.4896191,1.88441459 14.5472983,2.33623509 14.4127135,2.78805558 L11.7786961,11.4976167 C11.3268756,12.9780498 11.0769323,13.3048986 9.85605567,13.3048986 L1.50218308,13.3048986 C1.37721145,13.3048986 1.22340022,13.3337383 1.1368814,13.4490967 C1.05997578,13.5644551 1.05036258,13.6509739 1.1272682,13.8624644 C1.31953224,14.4200301 1.98284318,14.5353885 2.51156929,14.5353885 L11.3845548,14.5353885 C11.7402433,14.5353885 12.153611,14.3335113 12.2593562,13.987436 L15.1433168,4.49920555 C15.200996,4.31655471 15.200996,4.12429067 15.1913828,3.95125303 C15.4124865,4.03777185 15.6143637,4.17235668 15.7585617,4.36462072 Z M5.53011474,4.38384713 C5.47243553,4.55688476 5.56856755,4.69146959 5.74160519,4.69146959 L11.586432,4.69146959 C11.7498565,4.69146959 11.9325073,4.55688476 11.9901865,4.38384713 L12.1920638,3.7686022 C12.249743,3.59556456 12.153611,3.46097973 11.9805733,3.46097973 L6.13574647,3.46097973 C5.97232204,3.46097973 5.7896712,3.59556456 5.73199199,3.7686022 L5.53011474,4.38384713 Z M4.73221897,6.84482686 C4.67453976,7.01786449 4.77067178,7.15244932 4.94370942,7.15244932 L10.7885363,7.15244932 C10.9519607,7.15244932 11.1346115,7.01786449 11.1922908,6.84482686 L11.394168,6.22958192 C11.4518472,6.05654429 11.3557152,5.92195946 11.1826776,5.92195946 L5.3378507,5.92195946 C5.17442627,5.92195946 4.99177543,6.05654429 4.93409622,6.22958192 L4.73221897,6.84482686 Z" id="" fill="#4E5B71"></path>
    </g>
</svg>