<svg xmlns="http://www.w3.org/2000/svg" xmlns:xlink="http://www.w3.org/1999/xlink" width="16" height="16" viewBox="0 0 16 16">
  <defs>
    <path id="priority2-a" d="M8,16 C3.581722,16 0,12.418278 0,8 C0,3.581722 3.581722,0 8,0 C12.418278,0 16,3.581722 16,8 C16,12.418278 12.418278,16 8,16 Z M7.96252506,3.7916786 C5.65987024,3.7916786 3.7916786,5.65987024 3.7916786,7.96252506 C3.7916786,10.2651799 5.65987024,12.1333715 7.96252506,12.1333715 C10.2651799,12.1333715 12.1333715,10.2651799 12.1333715,7.96252506 C12.1333715,5.65987024 10.2651799,3.7916786 7.96252506,3.7916786 Z"/>
    <path id="priority2-b" d="M8.65766613,10.5638733 L8.65766613,9.53202327 C8.65766613,9.43426905 8.58163508,9.35280721 8.48931165,9.35280721 L7.44660004,9.35280721 C7.34884582,9.35280721 7.26738398,9.43426905 7.26738398,9.53202327 L7.26738398,10.5638733 C7.26738398,10.6616275 7.34884582,10.7430894 7.44660004,10.7430894 L8.48931165,10.7430894 C8.58163508,10.7430894 8.65766613,10.6616275 8.65766613,10.5638733 Z M8.64680455,8.69568166 L8.74455877,5.32316128 C8.74455877,5.28514575 8.7282664,5.24713023 8.69025087,5.22540707 C8.65766613,5.19825312 8.60878903,5.18196075 8.55991192,5.18196075 L7.36513819,5.18196075 C7.31626109,5.18196075 7.26738398,5.19825312 7.23479924,5.22540707 C7.19678371,5.24713023 7.18049135,5.28514575 7.18049135,5.32316128 L7.27281477,8.69568166 C7.27281477,8.77171272 7.35427661,8.8314514 7.45746162,8.8314514 L8.4621577,8.8314514 C8.55991192,8.8314514 8.64137376,8.77171272 8.64680455,8.69568166 Z"/>
  </defs>
  <g fill="none" fill-rule="evenodd">
    <use fill="#BF3533" xlink:href="#priority2-a"/>
    <use fill="#BF3533" xlink:href="#priority2-b"/>
  </g>
</svg>
