<?xml version="1.0" encoding="UTF-8"?>
<svg width="16px" height="16px" viewBox="0 0 16 16" version="1.1" xmlns="http://www.w3.org/2000/svg" xmlns:xlink="http://www.w3.org/1999/xlink">
    <!-- Generator: Sketch 52.4 (67378) - http://www.bohemiancoding.com/sketch -->
    <title>Icons / Ambulance</title>
    <desc>Created with Sketch.</desc>
    <g id="Icons-/-Ambulance" stroke="none" stroke-width="1" fill="none" fill-rule="evenodd">
        <path d="M4.96551724,12.0344828 C4.96551724,11.4224138 4.47413793,10.9310345 3.86206897,10.9310345 C3.25,10.9310345 2.75862069,11.4224138 2.75862069,12.0344828 C2.75862069,12.6465517 3.25,13.137931 3.86206897,13.137931 C4.47413793,13.137931 4.96551724,12.6465517 4.96551724,12.0344828 Z M1.65517241,7.62068966 L4.96551724,7.62068966 L4.96551724,5.4137931 L3.60344828,5.4137931 C3.55172414,5.42241379 3.45689655,5.45689655 3.4137931,5.49137931 L1.73275862,7.17241379 C1.70689655,7.21551724 1.6637931,7.31034483 1.65517241,7.36206897 L1.65517241,7.62068966 Z M12.6896552,12.0344828 C12.6896552,11.4224138 12.1982759,10.9310345 11.5862069,10.9310345 C10.9741379,10.9310345 10.4827586,11.4224138 10.4827586,12.0344828 C10.4827586,12.6465517 10.9741379,13.137931 11.5862069,13.137931 C12.1982759,13.137931 12.6896552,12.6465517 12.6896552,12.0344828 Z M13.7931034,6.24137931 L13.7931034,4.5862069 C13.7931034,4.43103448 13.6724138,4.31034483 13.5172414,4.31034483 L11.5862069,4.31034483 L11.5862069,2.37931034 C11.5862069,2.22413793 11.4655172,2.10344828 11.3103448,2.10344828 L9.65517241,2.10344828 C9.5,2.10344828 9.37931034,2.22413793 9.37931034,2.37931034 L9.37931034,4.31034483 L7.44827586,4.31034483 C7.29310345,4.31034483 7.17241379,4.43103448 7.17241379,4.5862069 L7.17241379,6.24137931 C7.17241379,6.39655172 7.29310345,6.51724138 7.44827586,6.51724138 L9.37931034,6.51724138 L9.37931034,8.44827586 C9.37931034,8.60344828 9.5,8.72413793 9.65517241,8.72413793 L11.3103448,8.72413793 C11.4655172,8.72413793 11.5862069,8.60344828 11.5862069,8.44827586 L11.5862069,6.51724138 L13.5172414,6.51724138 C13.6724138,6.51724138 13.7931034,6.39655172 13.7931034,6.24137931 Z M16,1.55172414 L16,11.4827586 C16,11.7844828 15.75,12.0344828 15.4482759,12.0344828 L13.7931034,12.0344828 C13.7931034,13.25 12.8103448,14.2413793 11.5862069,14.2413793 C10.3706897,14.2413793 9.37931034,13.25 9.37931034,12.0344828 L6.06896552,12.0344828 C6.06896552,13.25 5.0862069,14.2413793 3.86206897,14.2413793 C2.63793103,14.2413793 1.65517241,13.25 1.65517241,12.0344828 L0.551724138,12.0344828 C0.25,12.0344828 0,11.7844828 0,11.4827586 C0,11.1810345 0.25,10.9310345 0.551724138,10.9310345 L0.551724138,7.34482759 C0.551724138,7.04310345 0.724137931,6.62068966 0.939655172,6.40517241 L2.64655172,4.69827586 C2.86206897,4.48275862 3.28448276,4.31034483 3.5862069,4.31034483 L4.96551724,4.31034483 L4.96551724,1.55172414 C4.96551724,1.25 5.21551724,1 5.51724138,1 L15.4482759,1 C15.75,1 16,1.25 16,1.55172414 Z" id="" fill="#196ecf" transform="translate(8.000000, 7.620690) scale(-1, 1) translate(-8.000000, -7.620690) "></path>
    </g>
</svg>