<svg id="Layer_1" data-name="Layer 1" xmlns="http://www.w3.org/2000/svg" xmlns:xlink="http://www.w3.org/1999/xlink" viewBox="0 0 28 28"><defs><style>.cls-1{fill:none;}.cls-2{clip-path:url(#clip-path);}.cls-3{isolation:isolate;}.cls-4{clip-path:url(#clip-path-2);}.cls-5{clip-path:url(#clip-path-3);}.cls-6{fill:#d8d8d8;}.cls-7{fill:#4e5b71;}.cls-8{clip-path:url(#clip-path-6);}.cls-9{clip-path:url(#clip-path-8);}.cls-10{clip-path:url(#clip-path-9);}.cls-11{fill:#196ecf;}.cls-12{fill:#fff;}
</style><clipPath id="clip-path"><circle class="cls-1" cx="14" cy="14" r="14"/>
</clipPath><clipPath id="clip-path-2">
  <rect class="cls-1" x="-5" y="-5" width="38" height="38"/></clipPath>
  <clipPath id="clip-path-3"><rect class="cls-1" width="28" height="28"/></clipPath>
  <clipPath id="clip-path-6">
    <path class="cls-1" d="M20.55,17.64H10.36V7.45H20.55ZM20.55,6H10.36A1.46,1.46,0,0,0,8.91,7.45V17.64a1.46,1.46,0,0,0,1.45,1.45H20.55A1.46,1.46,0,0,0,22,17.64V7.45A1.46,1.46,0,0,0,20.55,6ZM7.45,8.91H6V20.55A1.46,1.46,0,0,0,7.45,22H19.09V20.55H7.45Z"/></clipPath><clipPath id="clip-path-8"><rect class="cls-1" x="1" y="1" width="26" height="26"/></clipPath><clipPath id="clip-path-9"><rect class="cls-1" x="6" y="6" width="16" height="16"/></clipPath></defs><title>Artboard 1</title><g class="cls-2"><g class="cls-3"><g class="cls-4"><g class="cls-5"><rect class="cls-6" x="-5" y="-5" width="38" height="38"/></g><g class="cls-5"><g class="cls-5"><rect class="cls-7" x="-5" y="-5" width="38" height="38"/></g></g><g class="cls-8"><g class="cls-5"><g class="cls-3"><g class="cls-9"><g class="cls-10"><rect class="cls-11" x="1" y="1" width="26" height="26"/></g><g class="cls-10"><g class="cls-10"><rect class="cls-12" x="1" y="1" width="26" height="26"/></g></g></g></g></g></g></g></g></g></svg>
