<?xml version="1.0" encoding="UTF-8"?>
<svg width="16px" height="16px" viewBox="0 0 16 16" version="1.1" xmlns="http://www.w3.org/2000/svg" xmlns:xlink="http://www.w3.org/1999/xlink">
    <!-- Generator: Sketch 52.4 (67378) - http://www.bohemiancoding.com/sketch -->
    <title>Icons / Search</title>
    <desc>Created with Sketch.</desc>
    <g id="Icons-/-Search" stroke="none" stroke-width="1" fill="none" fill-rule="evenodd">
        <path d="M11.0769231,6.76923077 C11.0769231,4.39423077 9.14423077,2.46153846 6.76923077,2.46153846 C4.39423077,2.46153846 2.46153846,4.39423077 2.46153846,6.76923077 C2.46153846,9.14423077 4.39423077,11.0769231 6.76923077,11.0769231 C9.14423077,11.0769231 11.0769231,9.14423077 11.0769231,6.76923077 Z M16,14.7692308 C16,15.4423077 15.4423077,16 14.7692308,16 C14.4423077,16 14.125,15.8653846 13.9038462,15.6346154 L10.6057692,12.3461538 C9.48076923,13.125 8.13461538,13.5384615 6.76923077,13.5384615 C3.02884615,13.5384615 0,10.5096154 0,6.76923077 C0,3.02884615 3.02884615,0 6.76923077,0 C10.5096154,0 13.5384615,3.02884615 13.5384615,6.76923077 C13.5384615,8.13461538 13.125,9.48076923 12.3461538,10.6057692 L15.6442308,13.9038462 C15.8653846,14.125 16,14.4423077 16,14.7692308 Z" id="" fill="#B6BCC3"></path>
    </g>
</svg>