<?xml version="1.0" encoding="UTF-8"?>
<svg width="16px" height="16px" viewBox="0 0 16 16" version="1.1" xmlns="http://www.w3.org/2000/svg" xmlns:xlink="http://www.w3.org/1999/xlink">
    <!-- Generator: Sketch 52.4 (67378) - http://www.bohemiancoding.com/sketch -->
    <title>Icons / Send</title>
    <desc>Created with Sketch.</desc>
    <g id="Icons-/-Send" stroke="none" stroke-width="1" fill="none" fill-rule="evenodd">
        <path d="M15.750617,0.0982149082 C15.9381182,0.232144329 16.0274045,0.446431401 15.9916899,0.669647102 L13.7059612,14.3840197 C13.6791753,14.5536637 13.5720318,14.6965217 13.4202451,14.785808 C13.3398874,14.8304511 13.2416725,14.857237 13.1434576,14.857237 C13.0720286,14.857237 13.0005996,14.8393798 12.9291705,14.8125939 L8.88450204,13.1607977 L6.72377406,15.794743 C6.61663053,15.9286724 6.45591522,16.0001014 6.28627129,16.0001014 C6.22377089,16.0001014 6.15234187,15.9911728 6.08984147,15.9643869 C5.86662577,15.8840292 5.7148391,15.6697422 5.7148391,15.4286692 L5.7148391,12.312578 L13.4291737,2.85716097 L3.88447035,11.1161419 L0.357662284,9.66970415 C0.15230384,9.58934649 0.0183744195,9.40184531 0.000517163412,9.1786296 C-0.00841146461,8.96434253 0.0987320716,8.75898409 0.28623326,8.65184055 L15.1434703,0.0803576522 C15.2327566,0.0267858841 15.3309715,0 15.4291864,0 C15.5452585,0 15.6613307,0.0357145121 15.750617,0.0982149082 Z" id="" fill="#196ECF"></path>
    </g>
</svg>