<?xml version="1.0" encoding="UTF-8"?>
<svg width="16px" height="16px" viewBox="0 0 16 16" version="1.1" xmlns="http://www.w3.org/2000/svg" xmlns:xlink="http://www.w3.org/1999/xlink">
    <!-- Generator: Sketch 52.4 (67378) - http://www.bohemiancoding.com/sketch -->
    <title>Icons / Trash</title>
    <desc>Created with Sketch.</desc>
    <g id="Icons-/-Trash" stroke="none" stroke-width="1" fill="none" fill-rule="evenodd">
        <path d="M6.33333333,13 L6.33333333,5.66666667 C6.33333333,5.47916667 6.1875,5.33333333 6,5.33333333 L5.33333333,5.33333333 C5.14583333,5.33333333 5,5.47916667 5,5.66666667 L5,13 C5,13.1875 5.14583333,13.3333333 5.33333333,13.3333333 L6,13.3333333 C6.1875,13.3333333 6.33333333,13.1875 6.33333333,13 Z M9,13 L9,5.66666667 C9,5.47916667 8.85416667,5.33333333 8.66666667,5.33333333 L8,5.33333333 C7.8125,5.33333333 7.66666667,5.47916667 7.66666667,5.66666667 L7.66666667,13 C7.66666667,13.1875 7.8125,13.3333333 8,13.3333333 L8.66666667,13.3333333 C8.85416667,13.3333333 9,13.1875 9,13 Z M11.6666667,13 L11.6666667,5.66666667 C11.6666667,5.47916667 11.5208333,5.33333333 11.3333333,5.33333333 L10.6666667,5.33333333 C10.4791667,5.33333333 10.3333333,5.47916667 10.3333333,5.66666667 L10.3333333,13 C10.3333333,13.1875 10.4791667,13.3333333 10.6666667,13.3333333 L11.3333333,13.3333333 C11.5208333,13.3333333 11.6666667,13.1875 11.6666667,13 Z M6,2.66666667 L10.6666667,2.66666667 L10.1666667,1.44791667 C10.1354167,1.40625 10.0416667,1.34375 9.98958333,1.33333333 L6.6875,1.33333333 C6.625,1.34375 6.54166667,1.40625 6.51041667,1.44791667 L6,2.66666667 Z M15.6666667,3 L15.6666667,3.66666667 C15.6666667,3.85416667 15.5208333,4 15.3333333,4 L14.3333333,4 L14.3333333,13.875 C14.3333333,15.0208333 13.5833333,16 12.6666667,16 L4,16 C3.08333333,16 2.33333333,15.0625 2.33333333,13.9166667 L2.33333333,4 L1.33333333,4 C1.14583333,4 1,3.85416667 1,3.66666667 L1,3 C1,2.8125 1.14583333,2.66666667 1.33333333,2.66666667 L4.55208333,2.66666667 L5.28125,0.927083333 C5.48958333,0.416666667 6.11458333,0 6.66666667,0 L10,0 C10.5520833,0 11.1770833,0.416666667 11.3854167,0.927083333 L12.1145833,2.66666667 L15.3333333,2.66666667 C15.5208333,2.66666667 15.6666667,2.8125 15.6666667,3 Z" id="" fill="#A4A4A4"></path>
    </g>
</svg>
