<?xml version="1.0" encoding="UTF-8"?>
<svg width="220px" height="184px" viewBox="0 0 220 184" version="1.1" xmlns="http://www.w3.org/2000/svg" xmlns:xlink="http://www.w3.org/1999/xlink">
    <!-- Generator: sketchtool 54.1 (76490) - https://sketchapp.com -->
    <title>E21223B4-57B7-4564-A6F9-E73E49195D57</title>
    <desc>Created with sketchtool.</desc>
    <defs>
        <linearGradient x1="49.9946628%" y1="99.9937813%" x2="49.9946628%" y2="-0.000220870294%" id="linearGradient-1">
            <stop stop-color="#808080" stop-opacity="0.25" offset="0%"></stop>
            <stop stop-color="#808080" stop-opacity="0.12" offset="54%"></stop>
            <stop stop-color="#808080" stop-opacity="0.1" offset="100%"></stop>
        </linearGradient>
    </defs>
    <g id="----â†³-ðŸ†-PB34-(Review-Claim-Message-Text)" stroke="none" stroke-width="1" fill="none" fill-rule="evenodd">
        <g id="PB34---3-(Empty-State)" transform="translate(-315.000000, -320.000000)">
            <g id="undraw_blank_canvas_3rbb-(1)" transform="translate(315.000000, 320.000000)">
                <path d="M70.6669082,6.55054527 C77.1132376,0.808999343 87.2318341,-0.368017572 96.4433983,0.0890978151 C125.373536,1.52890087 151.48768,15.5029403 174.07742,31.3120662 C182.256159,37.0337376 190.306898,43.2014829 195.614472,51.0828588 C206.428239,67.1260631 203.215005,89.3502624 188.190489,102.566859 C183.077122,107.062932 176.880171,110.516692 170.517704,113.566336 C159.205179,118.998722 146.998864,123.360089 134.15917,124.607771 C125.004985,125.491086 115.736042,124.773392 106.632615,123.53896 C81.2026072,120.080783 56.2448737,112.448943 35.3169238,99.3935512 C26.1406699,93.6674633 17.4918629,86.5479463 13.7092513,77.2885994 C9.92663966,68.0292524 12.3475994,56.2811661 21.7180597,50.7891566 C25.5933608,48.521246 30.2278325,47.4966009 34.7629941,46.5337878 C41.4410471,45.1182759 48.2250308,43.7226386 54.249844,40.8452407 C60.4754843,37.8728866 67.8442943,32.1247158 66.6084352,25.5440208 C65.293128,18.4929608 64.2294064,12.2920912 70.6669082,6.55054527 Z" id="Path" fill="#196ECF" opacity="0.1"></path>
                <path d="M151,147 C151,147 156.522257,137.06194 164.836492,134.198507 C168.3319,133.019963 171.356763,130.72137 173.45703,127.647761 C174.443013,126.180909 175.294248,124.625115 176,123" id="Path" stroke="#535461" stroke-width="2"></path>
                <path d="M180.28497,122.122147 C179.350923,123.046697 175,124 175,124 C175,124 176.066552,119.600649 177.000599,118.678311 C177.934546,117.754807 179.426891,117.777089 180.333845,118.728078 C181.240799,119.679067 181.218917,121.198643 180.28497,122.122147 L180.28497,122.122147 Z" id="Path" fill="#196ECF"></path>
                <path d="M178.920636,129.970497 C177.528103,130.240983 173,128.562585 173,128.562585 C173,128.562585 176.538172,125.326005 177.928338,125.048584 C179.320651,124.778542 180.673599,125.661437 180.95023,127.020586 C181.226862,128.379735 180.322423,129.700455 178.930109,129.970497 L178.920636,129.970497 Z" id="Path" fill="#196ECF"></path>
                <path d="M169.471934,138.8434 C168.104303,138.381891 165,134.712894 165,134.712894 C165,134.712894 169.824092,133.660654 171.184487,134.112933 C172.087662,134.390958 172.762812,135.114852 172.949031,136.004872 C173.135249,136.894891 172.803368,137.811625 172.081639,138.400809 C171.35991,138.989992 170.361384,139.159336 169.471934,138.8434 L169.471934,138.8434 Z" id="Path" fill="#196ECF"></path>
                <path d="M162.00867,143.962663 C160.618287,143.731781 157,140.612567 157,140.612567 C157,140.612567 161.448753,138.793217 162.839135,139.019481 C163.745883,139.157684 164.507267,139.7629 164.833355,140.604665 C165.159444,141.446429 165.000049,142.395192 164.41587,143.089667 C163.83169,143.784142 162.912632,144.117448 162.00867,143.962663 L162.00867,143.962663 Z" id="Path" fill="#196ECF"></path>
                <path d="M169,124.534931 C169,125.93803 171.497696,130 171.497696,130 C171.497696,130 174,125.93803 174,124.53727 C174,123.135974 172.880712,122 171.5,122 C170.119288,122 169,123.135974 169,124.53727 L169,124.534931 Z" id="Path" fill="#196ECF"></path>
                <path d="M159.115684,131.401612 C159.532606,132.781611 163.132033,136 163.132033,136 C163.132033,136 164.32721,131.215843 163.912604,129.835844 C163.497497,128.456109 162.087159,127.688121 160.762526,128.120496 C159.437893,128.552871 158.700577,130.021877 159.115684,131.401612 Z" id="Path" fill="#196ECF"></path>
                <path d="M151.022599,138.892102 C151.20726,140.289013 154.224149,144 154.224149,144 C154.224149,144 156.172316,139.609371 155.987656,138.21246 C155.803445,136.81559 154.542647,135.835347 153.171585,136.023025 C151.800522,136.210703 150.838389,137.495232 151.022599,138.892102 L151.022599,138.892102 Z" id="Path" fill="#196ECF"></path>
                <path d="M180.28497,122.122147 C179.350923,123.046697 175,124 175,124 C175,124 176.066552,119.600649 177.000599,118.678311 C177.934546,117.754807 179.426891,117.777089 180.333845,118.728078 C181.240799,119.679067 181.218917,121.198643 180.28497,122.122147 L180.28497,122.122147 Z" id="Path" fill="#000000" opacity="0.25"></path>
                <path d="M178.920636,129.970497 C177.528103,130.240983 173,128.562585 173,128.562585 C173,128.562585 176.538172,125.326005 177.928338,125.048584 C179.320651,124.778542 180.673599,125.661437 180.95023,127.020586 C181.226862,128.379735 180.322423,129.700455 178.930109,129.970497 L178.920636,129.970497 Z" id="Path" fill="#000000" opacity="0.25"></path>
                <path d="M169.471934,138.8434 C168.104303,138.381891 165,134.712894 165,134.712894 C165,134.712894 169.824092,133.660654 171.184487,134.112933 C172.087662,134.390958 172.762812,135.114852 172.949031,136.004872 C173.135249,136.894891 172.803368,137.811625 172.081639,138.400809 C171.35991,138.989992 170.361384,139.159336 169.471934,138.8434 L169.471934,138.8434 Z" id="Path" fill="#000000" opacity="0.25"></path>
                <path d="M162.00867,143.962663 C160.618287,143.731781 157,140.612567 157,140.612567 C157,140.612567 161.448753,138.793217 162.839135,139.019481 C163.745883,139.157684 164.507267,139.7629 164.833355,140.604665 C165.159444,141.446429 165.000049,142.395192 164.41587,143.089667 C163.83169,143.784142 162.912632,144.117448 162.00867,143.962663 L162.00867,143.962663 Z" id="Path" fill="#000000" opacity="0.25"></path>
                <path d="M169,124.534931 C169,125.93803 171.497696,130 171.497696,130 C171.497696,130 174,125.93803 174,124.53727 C174,123.135974 172.880712,122 171.5,122 C170.119288,122 169,123.135974 169,124.53727 L169,124.534931 Z" id="Path" fill="#000000" opacity="0.25"></path>
                <path d="M159.115684,131.401612 C159.532606,132.781611 163.132033,136 163.132033,136 C163.132033,136 164.32721,131.215843 163.912604,129.835844 C163.497497,128.456109 162.087159,127.688121 160.762526,128.120496 C159.437893,128.552871 158.700577,130.021877 159.115684,131.401612 Z" id="Path" fill="#000000" opacity="0.25"></path>
                <path d="M151.022599,138.892102 C151.20726,140.289013 154.224149,144 154.224149,144 C154.224149,144 156.172316,139.609371 155.987656,138.21246 C155.803445,136.81559 154.542647,135.835347 153.171585,136.023025 C151.800522,136.210703 150.838389,137.495232 151.022599,138.892102 L151.022599,138.892102 Z" id="Path" fill="#000000" opacity="0.25"></path>
                <path d="M151,147 C151,147 152.061044,135.724444 158.384176,129.728889 C161.05124,127.230362 162.859831,123.907799 163.538434,120.26 C163.848851,118.525012 164.003342,116.764224 164,115" id="Path" stroke="#535461" stroke-width="2"></path>
                <path d="M168.794724,111.69991 C168.279853,113.056806 164.473487,116 164.473487,116 C164.473487,116 163.655211,111.075152 164.170081,109.720697 C164.48738,108.819579 165.240037,108.172076 166.136096,108.029356 C167.032155,107.886636 167.930624,108.271155 168.482987,109.033757 C169.03535,109.79636 169.154693,110.817053 168.794724,111.69991 L168.794724,111.69991 Z" id="Path" fill="#196ECF"></path>
                <path d="M168.923829,120.871467 C167.779241,121.723423 163,122 163,122 C163,122 164.868716,117.340173 166.006297,116.488217 C166.746946,115.937255 167.709374,115.845867 168.531043,116.248477 C169.352711,116.651087 169.90879,117.48653 169.989809,118.440102 C170.070828,119.393674 169.664479,120.320505 168.923829,120.871467 Z" id="Path" fill="#196ECF"></path>
                <path d="M164.676782,131.995541 C163.269315,132.110811 159,129.952953 159,129.952953 C159,129.952953 162.849421,127.126528 164.240467,127.008952 C165.641591,126.893087 166.872997,127.915446 166.990891,129.292455 C167.108785,130.669463 166.068522,131.879676 164.667399,131.995541 L164.676782,131.995541 Z" id="Path" fill="#196ECF"></path>
                <path d="M159.019928,139.945491 C157.642044,140.2919 153,138.873931 153,138.873931 C153,138.873931 156.347308,135.439859 157.725192,135.093449 C158.623561,134.848104 159.588185,135.093918 160.247211,135.736134 C160.906237,136.378349 161.15674,137.316667 160.902154,138.189373 C160.647567,139.062079 159.927651,139.732877 159.019928,139.943181 L159.019928,139.945491 Z" id="Path" fill="#196ECF"></path>
                <path d="M158.195684,119.284811 C158.754314,120.482413 162.669344,123 162.669344,123 C162.669344,123 163.336469,118.567998 162.77553,117.370396 C162.199369,116.199528 160.739297,115.680656 159.491629,116.203382 C158.243962,116.726108 157.667765,118.098102 158.195684,119.289182 L158.195684,119.284811 Z" id="Path" fill="#196ECF"></path>
                <path d="M152.641684,128.450052 C153.539663,129.553395 158,131 158,131 C158,131 157.247517,126.042313 156.347265,124.93897 C155.770548,124.206067 154.872092,123.865724 153.997108,124.048709 C153.122124,124.231695 152.406726,124.909543 152.125787,125.821808 C151.844849,126.734072 152.042075,127.73884 152.641684,128.450052 L152.641684,128.450052 Z" id="Path" fill="#196ECF"></path>
                <path d="M147.349719,138.761753 C148.029473,139.924609 151.999754,142 151.999754,142 C151.999754,142 152.032227,137.339474 151.350308,136.176618 C150.911008,135.424989 150.123617,134.976818 149.284739,135.000926 C148.44586,135.025033 147.68294,135.517758 147.283362,136.293494 C146.883784,137.06923 146.908254,138.010125 147.347554,138.761753 L147.349719,138.761753 Z" id="Path" fill="#196ECF"></path>
                <ellipse id="Oval" fill="#196ECF" opacity="0.1" cx="83" cy="180" rx="26" ry="4"></ellipse>
                <ellipse id="Oval" fill="#196ECF" opacity="0.1" cx="134" cy="146" rx="26" ry="4"></ellipse>
                <polygon id="Path" fill="#B77B7F" points="136 88.1333278 135.975864 88.9977367 134.492595 142 132 142 133.222161 88.9977367 133.246297 88"></polygon>
                <polygon id="Path" fill="#DDA2A6" points="150 133 148.138118 132.994718 120.474628 132.923415 119 132.920775 119.785447 130 149.803091 130"></polygon>
                <polygon id="Path" fill="#000000" opacity="0.1" points="136 88.1336303 135.973934 89 133 89 133.026066 88"></polygon>
                <rect id="Rectangle" fill="#B77B7F" x="132" y="87" width="5" height="2"></rect>
                <polygon id="Path" fill="#000000" opacity="0.1" points="121 130 120.715013 133 119 132.99729 119.913486 130"></polygon>
                <polygon id="Path" fill="#DDA2A6" points="124 87 123.923636 87.7492145 117.803636 148 115 147.867145 121.449455 87.7492145 121.521455 87.0653385"></polygon>
                <polygon id="Path" fill="#000000" opacity="0.1" points="150 133 148.238095 132.994718 148 130 149.813665 130"></polygon>
                <polygon id="Path" fill="#DDA2A6" points="153 147.867145 150.194182 148 144.076364 87.7492145 144 87 146.476364 87.0653385 146.548364 87.7492145"></polygon>
                <rect id="Rectangle" fill="#FFFFFF" x="103" y="27" width="62" height="59"></rect>
                <path d="M134.998638,6.29235116 L134.998638,21 L132.001362,21 L132.001362,6.29235116 C131.977931,5.83729884 132.258335,5.40827599 132.731664,5.17497543 C133.204993,4.94167486 133.795007,4.94167486 134.268336,5.17497543 C134.741665,5.40827599 135.022069,5.83729884 134.998638,6.29235116 Z" id="Path" fill="#DDA2A6"></path>
                <rect id="Rectangle" fill="#000000" opacity="0.1" x="132" y="20" width="3" height="1"></rect>
                <path d="M136,20.6628378 L136,26 L131,26 L131.000005,20.6628378 C130.999326,20.4868426 131.071149,20.3178659 131.199531,20.1934176 C131.327912,20.0689694 131.502229,19.9993467 131.683787,20.0000046 L135.321302,20.0000046 C135.696957,20.0027121 136.00001,20.2986811 136,20.6628378 L136,20.6628378 Z" id="Path" fill="#DDA2A6"></path>
                <circle id="Oval" fill="#000000" opacity="0.1" cx="134" cy="23" r="1"></circle>
                <circle id="Oval" fill="#B77B7F" cx="134" cy="23" r="1"></circle>
                <rect id="Rectangle" fill="#000000" opacity="0.1" x="131" y="25" width="5" height="1"></rect>
                <rect id="Rectangle" fill="#000000" opacity="0.1" x="130" y="25" width="8" height="1"></rect>
                <rect id="Rectangle" fill="#DDA2A6" x="130" y="25" width="8" height="1"></rect>
                <path d="M118.429881,85 L151.570119,85 C152.359821,85 153,85.7348861 153,86.6414141 L153,87 L117,87 L117,86.6414141 C117,85.7348861 117.640179,85 118.429881,85 Z" id="Path" fill="#000000" opacity="0.1"></path>
                <polygon id="Path" fill="#000000" opacity="0.1" points="122.084688 87.0872093 125 87 124.91018 88 122 88"></polygon>
                <rect id="Rectangle" fill="#000000" opacity="0.1" x="132" y="87" width="5" height="1"></rect>
                <polygon id="Path" fill="#000000" opacity="0.1" points="146 88 143.089897 88 143 87 145.91524 87.0872093"></polygon>
                <path d="M118.429881,85 L151.570119,85 C152.359821,85 153,85.7348861 153,86.6414141 L153,87 L117,87 L117,86.6414141 C117,86.206084 117.150648,85.7885839 117.418802,85.4807591 C117.686957,85.1729342 118.050653,85 118.429881,85 L118.429881,85 Z" id="Path" fill="#DDA2A6"></path>
                <path d="M109.859823,57.6806026 C109.361141,57.4164785 103.928361,53.3049466 103.928361,53.3049466 L95.1607809,47.7341292 C95.1607809,47.7341292 95.1146473,47.6020671 95.0311675,47.3753606 C97.4367049,44.6394752 96.9116607,40.6688095 94.4643833,37.8778982 C91.4986522,34.4927077 78.0979412,27.2050836 74.0601532,33.4384123 C73.4955658,34.318826 73.4757943,35.3180955 73.3286062,36.2865505 C72.9837026,38.5470126 71.8721027,40.7370416 70.1278134,42.5815082 C68.7833486,44.0055773 67.0192878,45.3173937 66.2460009,46.9285507 C66.2460009,46.9087414 66.230623,46.8889321 66.2240325,46.8669217 C66.0373653,47.2122406 65.9019344,47.5829771 65.8220112,47.9674388 C65.4375645,49.9329623 66.7556673,51.8170476 67.4564585,53.7297462 C67.6916853,54.3774647 67.8624048,55.0469018 67.9661249,55.7282853 C67.9836996,55.5918211 67.9990775,55.4575581 68.0144554,55.3210939 C68.1852452,56.2913084 68.2434821,57.2780561 68.1880055,58.2616756 C63.3220097,59.254342 63.3198128,67.5940604 63.3198128,67.5940604 C63.3198128,67.5940604 62.7200761,70.9088179 62.8211306,72.1039794 C62.9221852,73.2991409 62.9199883,75.883155 62.9199883,76.5060477 C62.9199883,77.1289404 62.3202516,81.0137657 62.260937,81.4803849 C62.2615196,81.4869751 62.2615196,81.493604 62.260937,81.5001942 C62.1730635,82.0108341 61.2613757,84.4715903 63.4648041,85.0218489 C63.6185828,85.0614675 63.7811488,85.094483 63.9503053,85.1252975 C64.0447693,87.1172334 64.2161227,91.2881931 64.0645409,92.2170295 C64.0645409,92.2170295 64.8663867,97.8208625 65.5320286,99.2449316 C65.9529508,100.079948 66.4454265,100.876778 67.0039099,101.626451 C66.9555761,101.967672 66.8406159,102.296009 66.6655969,102.592705 C66.325087,103.083535 66.5008341,103.486324 67.0698151,103.660206 C67.0500435,103.829686 67.0280752,104.021176 67.0039099,104.236877 C66.7600609,106.398293 66.3953858,110.694711 67.0148941,112.871534 C67.8650704,115.856136 67.9155977,116.851004 67.9155977,116.851004 C67.9155977,116.851004 67.9155977,117.744624 68.2670917,118.242057 C68.6185858,118.739491 69.2666529,123.366065 69.2666529,124.112216 C69.2666529,124.858366 70.9670055,131.57152 70.4661264,133.162868 C69.9652474,134.754216 70.3672687,136.992667 70.3672687,136.992667 C70.3672687,136.992667 70.0663019,140.921513 69.7082174,141.766711 C69.3501328,142.611908 69.2073383,156.23851 69.7565478,159.768969 C70.3057573,163.299428 70.6572513,166.233406 70.6572513,166.233406 C70.6572513,166.233406 70.3079541,169.466725 70.606724,169.913535 C70.905494,170.360345 71.4569003,173.047808 71.0570758,173.195277 C70.6572513,173.342747 70.4573391,174.438862 70.4573391,174.438862 C70.6687753,174.760892 70.8968236,175.071659 71.1405556,175.369899 C70.9864224,175.316 70.8359825,175.252032 70.6902039,175.178409 C70.8483762,175.398512 71.0856347,175.711059 71.3778141,176.058823 L71.1032094,179.635503 C71.0794097,179.923427 71.2642357,180.187308 71.542577,180.262798 C73.3299044,180.749568 75.239577,180.211605 76.5118242,178.86294 C79.0118257,176.327349 79.862002,176.675112 80.3123537,175.134388 C80.3606842,174.969311 80.4024241,174.806434 80.4375735,174.652362 C80.7605087,173.278917 79.2996115,172.257637 78.1374843,172.843112 C78.2978534,171.755801 78.4230732,170.521021 78.3022471,169.823293 C78.0518076,168.381616 78.1023348,164.60244 78.1023348,164.60244 L77.7530376,146.498934 C77.7530376,146.498934 78.4011048,142.917851 79.1524233,141.526798 C79.9037419,140.135744 79.8114747,135.260454 79.8114747,135.260454 L80.661651,119.245729 L81.4612999,111.438661 C81.4612999,111.438661 82.2609489,108.753399 83.2605102,111.738001 C83.2605102,111.738001 82.7113007,117.753428 82.9617402,119.197306 C83.2121797,120.641185 83.561477,127.651478 83.3110374,129.192202 C83.0605979,130.732926 81.962179,139.1893 82.6519861,141.326504 C83.3417932,143.463708 84.1106864,146.054325 83.9569078,146.901723 C83.8031291,147.749121 83.2978564,166.096942 83.2978564,166.096942 C83.2978564,166.096942 84.6489117,169.618597 83.6493505,170.771939 C82.6497892,171.925281 83.5988232,176.494627 83.5988232,176.494627 C83.5988232,176.494627 83.7196493,176.580468 83.926152,176.699324 L83.8975931,177.080103 L83.5834453,181.193835 C83.5603391,181.482066 83.7446721,181.746165 84.0228129,181.823331 C85.8101424,182.310606 87.7200735,181.77257 88.9920602,180.423473 C91.4920617,177.885681 92.3422379,178.235645 92.7925897,176.692721 C92.8409201,176.527643 92.88266,176.366967 92.9200063,176.210694 C93.2715003,174.71179 91.4920617,173.624479 90.3013755,174.603939 L90.2420609,174.654563 C90.1798519,174.707545 90.1145647,174.756787 90.0465423,174.802032 C90.014945,174.825345 89.9819284,174.846663 89.9476846,174.865862 C90.1981242,173.730129 90.5627992,171.784414 90.3870522,170.873186 C90.1366127,169.530555 90.6352949,165.45424 90.6352949,165.45424 C90.6352949,165.45424 92.0852079,160.578949 92.1357352,158.631034 L92.5355596,143.115944 C92.5355596,143.115944 92.4872292,136.798976 92.6871415,135.258253 C92.8870537,133.717529 94.4863517,120.388066 96.0856496,116.408596 C97.313682,113.362365 97.8628915,105.588312 97.5377595,101.64626 C97.5201848,101.452569 97.5026101,101.265481 97.4806417,101.091599 C99.4424179,99.6411178 99.6379365,97.2287843 99.6379365,97.2287843 C99.6379365,97.2287843 97.8365294,93.7819648 96.1032243,92.3226792 C94.3699193,90.8633935 93.9964568,88.3542146 94.0579683,87.286713 C94.0874131,86.6362221 93.8735539,85.9981281 93.4582315,85.4972723 C93.4582315,85.4972723 92.6585826,82.9110571 92.124751,82.646933 C92.0810831,82.6246607 92.0416705,82.5948586 92.0083186,82.5588917 C91.6458403,82.1693086 91.9248387,81.0555853 91.9248387,81.0555853 L91.9248387,81.0203688 C91.988547,80.7628478 92.3642063,79.0944639 92.2521676,78.6674633 C92.1181604,78.2052461 92.3180727,76.0152171 92.3180727,76.0152171 C92.3180727,76.0152171 93.5856481,72.2360414 93.3857359,69.2514391 C93.1858237,66.2668368 95.9867919,66.5331619 95.9867919,66.5331619 L104.635743,66.4429195 L105.619926,66.4429195 C105.966972,66.1476711 106.284118,65.8188603 106.566763,65.4612583 C108.214392,65.2653663 111.546995,64.6424736 111.920457,62.8200173 C112.427927,60.4010808 110.360702,57.9469277 109.859823,57.6806026 Z M69.7895004,85.2727668 L69.848815,83.7562542 C70.0531209,83.932337 70.1893248,84.0445897 70.1893248,84.0445897 C70.2996185,84.4413778 70.3049182,84.8600979 70.2047027,85.2595606 C70.0960128,85.6396053 69.8201817,85.9491911 69.455581,86.1003556 C69.4137656,86.1185677 69.3733764,86.1399046 69.3347549,86.1641856 L69.2512751,85.3079833 L69.7895004,85.2727668 Z M101.160345,58.6402535 C100.793473,58.4751759 99.5588503,58.5081914 98.9239642,58.5081914 C98.289078,58.5081914 97.2587611,57.9777422 97.2587611,57.9777422 C97.0390773,57.5485405 95.8242259,57.2932205 94.7433817,57.1479523 C93.9217643,55.1185988 92.7662276,53.1398691 92.6102521,51.0246753 C92.6102521,50.9476391 92.6102521,50.8706029 92.5992679,50.7935667 L92.7244877,51.0136701 C92.7244877,51.0136701 97.7596401,54.231582 98.3264243,55.195635 C98.7657918,55.9307804 100.881347,57.5727519 101.861136,58.3078973 C101.726228,58.4842461 101.537057,58.6111168 101.322911,58.6688669 C101.267112,58.6749336 101.21074,58.6650114 101.160345,58.6402535 Z" id="Shape" fill="url(#linearGradient-1)" fill-rule="nonzero"></path>
                <path d="M92.9616171,176.033723 C92.9252138,176.193776 92.8866691,176.360688 92.8395589,176.529886 C92.4112845,178.130411 91.591139,177.760004 89.1992265,180.373432 C87.9844976,181.763715 86.1479833,182.320212 84.430391,181.818477 C84.1588757,181.741818 83.9782227,181.46791 84.0021166,181.169121 L84.30405,176.930017 L84.447522,174.890492 C84.447522,174.890492 88.2677296,176.033723 90.2120954,174.581819 C90.2773248,174.534235 90.3402213,174.483103 90.4005362,174.428626 C90.4155372,174.414177 90.4298319,174.398914 90.4433636,174.382897 C90.9578753,173.928092 91.6863733,173.873206 92.2555995,174.246359 C92.8248256,174.619512 93.1086366,175.338012 92.9616171,176.033723 L92.9616171,176.033723 Z" id="Path" fill="#67647E"></path>
                <path d="M80.9616171,174.033723 C80.9252138,174.193776 80.8866691,174.360688 80.8395589,174.529886 C80.4112845,176.130411 79.591139,175.760004 77.1992265,178.373432 C75.9844976,179.763715 74.1479833,180.320212 72.430391,179.818477 C72.1588757,179.741818 71.9782227,179.46791 72.0021166,179.169121 L72.30405,174.930017 L72.447522,172.890492 C72.447522,172.890492 76.2677296,174.033723 78.2120954,172.581819 C78.2773248,172.534235 78.3402213,172.483103 78.4005362,172.428626 C78.4155372,172.414177 78.4298319,172.398914 78.4433636,172.382897 C78.9578753,171.928092 79.6863733,171.873206 80.2555995,172.246359 C80.8248256,172.619512 81.1086366,173.338012 80.9616171,174.033723 Z" id="Path" fill="#67647E"></path>
                <path d="M77.8338462,175.08024 L78,177.228879 C75.6369231,179.509023 72.8238462,176.11444 72,175 C74.1669231,176.078778 77.8338462,175.08024 77.8338462,175.08024 Z" id="Path" fill="#000000" opacity="0.1"></path>
                <path d="M90.7042407,175.295017 L90.9956506,175.10451 C88.9623052,178.148334 85.9416455,176.744151 85,176.198317 L85.145705,174.288971 C85.145705,174.288971 89.0253715,175.359232 91,174 C90.8455962,174.744902 90.7042407,175.295017 90.7042407,175.295017 Z" id="Path" fill="#000000" opacity="0.1"></path>
                <path d="M96.5064968,116.086133 C94.954893,120.034367 93.4054502,133.261944 93.2109594,134.803362 C93.0164687,136.344781 93.0661719,142.602942 93.0661719,142.602942 L92.6771904,157.992909 C92.6274873,159.919683 91.222832,164.757536 91.222832,164.757536 C91.222832,164.757536 90.7387662,168.804862 90.9807991,170.137088 C91.222832,171.469314 90.3519457,174.981547 90.3519457,174.981547 L90.6415208,174.783365 C88.2190307,178.526811 84.3918854,175.721428 84.3918854,175.721428 C84.3918854,175.721428 83.4712959,171.180849 84.4415886,170.044603 C85.4118812,168.908357 84.1023103,165.404932 84.1023103,165.404932 C84.1023103,165.404932 84.5863761,147.189764 84.7311636,146.350792 C84.8759512,145.51182 84.1498525,142.944256 83.4712959,140.821502 C82.7927394,138.698748 83.8602774,130.306823 84.1023103,128.776415 C84.3443432,127.246006 84.0050649,120.285398 83.763032,118.854081 C83.5209991,117.422763 84.0526071,111.448664 84.0526071,111.448664 C83.0844755,108.486938 82.3086736,111.153592 82.3086736,111.153592 L81.5328717,118.902525 L80.7095276,134.798958 C80.7095276,134.798958 80.8067729,139.643418 80.0806742,141.019685 C79.3545755,142.395952 78.7235611,145.954427 78.7235611,145.954427 L79.0628394,163.92517 C79.0628394,163.92517 79.0152972,167.668616 79.2573301,169.106539 C79.499363,170.544463 78.7235611,174.241666 78.7235611,174.241666 C76.0114959,180.75306 71.6549036,173.693362 71.6549036,173.693362 C71.6549036,173.693362 71.8493943,172.607762 72.2362148,172.460226 C72.6230352,172.312691 72.0914272,169.646036 71.8040132,169.201226 C71.5165991,168.756417 71.8515553,165.548064 71.8515553,165.548064 C71.8515553,165.548064 71.5122771,162.636984 70.9871521,159.131357 C70.4620271,155.62573 70.6003317,142.10088 70.9396099,141.261908 C71.2788882,140.422935 71.5684633,136.523146 71.5684633,136.523146 C71.5684633,136.523146 71.1816428,134.3013 71.6657086,132.720245 C72.1497745,131.139189 70.5030863,124.478058 70.5030863,123.735975 C70.5030863,122.993892 69.8742329,118.404867 69.5349547,117.911613 C69.1956764,117.418359 69.1956764,116.52874 69.1956764,116.52874 C69.1956764,116.52874 69.1481342,115.542232 68.3312731,112.580506 C67.7305129,110.418115 68.0849182,106.154991 68.3204681,104.008015 C68.4047474,103.213083 68.4782217,102.706617 68.4782217,102.706617 C68.4782217,102.706617 96.2623029,98.1153903 97.3709,99.1525451 C97.630221,99.3969701 97.8031017,100.235942 97.904669,101.431643 C98.2353033,105.342443 97.6907292,113.071558 96.5064968,116.086133 Z" id="Path" fill="#444053"></path>
                <path d="M86,138.975571 C86.1448803,138.975571 89.5737131,139.240003 90.8293421,139.008625 C92.084971,138.777248 86,138.975571 86,138.975571 Z" id="Path" fill="#000000" opacity="0.1"></path>
                <path d="M86,141.001181 C86,141.001181 90.749641,142.587345 90.991846,141.761986 C91.2340511,140.936628 86,141.001181 86,141.001181 Z" id="Path" fill="#000000" opacity="0.1"></path>
                <path d="M73,140 C73,140 75.4467917,140.122614 76.7785593,140.817424 C78.1103268,141.512235 73,140 73,140 Z" id="Path" fill="#000000" opacity="0.1"></path>
                <path d="M65,85.0648727 C65,85.0648727 65.3849765,91.8181163 65.1760563,93.0139356 C65.1760563,93.0139356 66.0164319,98.4762134 66.7183099,99.8644882 C67.4201878,101.252763 68.9295775,103 68.9295775,103 L71,89.5929841 L70.5070423,85 L65,85.0648727 Z" id="Path" fill="#EFB7B9"></path>
                <circle id="Oval" fill="#EFB7B9" cx="84.5" cy="45.5" r="7.5"></circle>
                <path d="M82.0123226,49.2476606 C82.0123226,49.2476606 79.6229178,53.6056555 77.2335131,55.6440725 C74.8441083,57.6824894 91.5699417,60 91.9674356,60 C92.3649296,60 88.9806797,50.7320251 89.5780309,49.6135834 C90.1753821,48.4951416 82.0123226,49.2476606 82.0123226,49.2476606 Z" id="Path" fill="#EFB7B9"></path>
                <path d="M98,101.683305 C97.6300381,101.99695 97.221777,102.250582 96.7874808,102.436582 C93.7802583,103.743882 90.5082075,105.559036 88.2845262,104.834919 C86.0608448,104.110801 81.3508426,104.834919 81.3508426,104.834919 C81.3508426,104.834919 71.8629897,103.962576 69.9697965,104.47043 C69.1074633,104.701273 68.4377325,104.691553 68,104.526318 C68.0853578,103.649115 68.1597724,103.090232 68.1597724,103.090232 C68.1597724,103.090232 96.332239,98.0238378 97.455023,99.1683327 C97.7220398,99.4380544 97.8927555,100.363856 98,101.683305 Z" id="Path" fill="#000000" opacity="0.1"></path>
                <path d="M100,98.1791275 C100,98.1791275 99.7370166,101.481399 96.6961326,102.669774 C93.6552486,103.85815 90.3558011,105.508181 88.1104972,104.849936 C85.8651934,104.191691 81.1093923,104.849936 81.1093923,104.849936 C81.1093923,104.849936 71.5292818,104.056949 69.6176796,104.518604 C67.7060773,104.98026 66.7093923,104.388281 67.3038674,103.529028 C67.8983425,102.669774 67.8342541,99.8313675 67.8342541,98.6429917 C67.8342541,97.4546159 67.1712707,92.6348462 67.7657459,91.7755931 C68.360221,90.9163399 68.8883978,87.6162777 70.0773481,87.0861472 C70.4389666,86.9339376 70.7120425,86.6260633 70.8198895,86.2489829 C70.9181641,85.8515323 70.9128379,85.4355339 70.8044199,85.0407271 C70.8044199,85.0407271 70.6033149,84.8750614 70.3270718,84.629876 C69.6265193,84.0047638 68.441989,82.8451034 68.8220994,82.4651766 C69.3502762,81.9350461 68.8220994,78.5024512 68.8220994,78.5024512 C68.8220994,78.5024512 67.5668508,75.8628432 68.0309392,74.8732663 C68.4950276,73.8836894 64,68.666322 64,68.666322 C64,68.666322 64,59.6894459 69.4165746,59.291848 C69.4165746,59.291848 73.2486188,59.4243806 73.7104972,57.7080832 C74.1723757,55.9917858 77.2110497,55 77.2110497,55 L84.1480663,56.5197074 C84.1480663,56.5197074 90.2895028,57.8450336 91.4143646,57.047629 C92.5392265,56.2502244 93.4033149,58.1034722 93.4033149,58.1034722 C93.4033149,58.1034722 97.2331492,58.3022711 97.6287293,59.0952579 C98.0243094,59.8882448 96.3756906,67.6104788 96.3756906,67.6104788 C96.3756906,67.6104788 93.6,67.3476224 93.798895,70.318562 C93.9977901,73.2895015 92.7292818,77.0534279 92.7292818,77.0534279 C92.7292818,77.0534279 92.5303867,79.2313806 92.6629834,79.6930359 C92.7867403,80.1193492 92.4022099,81.7804247 92.3403315,82.0366544 L92.3403315,82.0697876 C92.3403315,82.0697876 92.0640884,83.1742261 92.4220994,83.5674062 C92.4552783,83.6029795 92.4941063,83.6328327 92.5370166,83.6557613 C93.0674033,83.9186176 93.8629834,86.4941682 93.8629834,86.4941682 C94.2754134,86.9941301 94.4872804,87.629424 94.4574586,88.2767319 C94.3933702,89.334784 94.7889503,91.8418594 96.5060773,93.2953005 C98.2232044,94.7487415 100,98.1791275 100,98.1791275 Z" id="Path" fill="#A36468"></path>
                <path d="M71,82.5711393 L71,82.8482899 L70.8785048,85.9034936 C70.8785048,85.9034936 66.7409181,86.2286545 64.4887569,85.6852647 C62.2365958,85.1418749 63.1838084,82.7173526 63.2738049,82.2154263 C63.2746289,82.2089038 63.2746289,82.2023081 63.2738049,82.1957857 C63.3390523,81.7375051 63.9487783,77.9228651 63.9487783,77.3030952 C63.9487783,76.6833253 63.9487783,74.1387771 63.8475322,72.964706 C63.7462862,71.7906349 64.3425127,68.5193846 64.3425127,68.5193846 L64.7789955,68 L69.5173085,69.7611067 L71,82.5711393 Z" id="Path" fill="#A36468"></path>
                <path d="M71,82.6688876 L70.8785048,85.8980002 C70.8785048,85.8980002 66.7409181,86.24167 64.4887569,85.6673493 C62.2365958,85.0930286 63.1838084,82.5304971 63.2738049,82 L71,82.6688876 Z" id="Path" fill="#000000" opacity="0.1"></path>
                <path d="M71.4906,86 C71.5884323,85.6227813 71.5831302,85.2279589 71.4752,84.8532495 C71.4752,84.8532495 71.275,84.6960168 71,84.4633124 C74.4826,84 88.2744,82.197065 92.9186,82 L92.9186,82.0314465 C92.9186,82.0314465 92.6436,83.0796646 93,83.4528302 L71.4906,86 Z" id="Path" fill="#000000" opacity="0.1"></path>
                <path d="M93.8716222,88 C93.8716222,88 94.9244592,93.1781921 91,95 C90.9972959,95.0093891 93.2247635,92.4414766 93.8716222,88 Z" id="Path" fill="#000000" opacity="0.1"></path>
                <path d="M73,94.7308557 C73,94.7308557 80.409959,93.3221537 81.8601939,94.4162456 C83.3104287,95.5103374 73,94.7308557 73,94.7308557 Z" id="Path" fill="#000000" opacity="0.1"></path>
                <path d="M90.7653077,65 C90.7653077,65 89.3193756,69.7840238 90.4024809,70.8827055 C91.4855862,71.9813873 90.7653077,65 90.7653077,65 Z" id="Path" fill="#000000" opacity="0.1"></path>
                <path d="M68.0580026,61 C68.0580026,61 69.6579368,62.7777246 68.6875913,64.6203296 C67.7172458,66.4629346 68.0580026,61 68.0580026,61 Z" id="Path" fill="#000000" opacity="0.1"></path>
                <path d="M66,76 C66,76 67.3604919,77.028617 66.9077168,78.6363481 C66.4549416,80.2440792 66,76 66,76 Z" id="Path" fill="#000000" opacity="0.1"></path>
                <path d="M65,73 C65,73 66.7572639,73.7132062 66.9837154,74.7648447 C67.210167,75.8164832 65,73 65,73 Z" id="Path" fill="#000000" opacity="0.1"></path>
                <path d="M85,111.860041 C85,111.860041 92.5006827,112.512485 94,111 C94,111.008723 87.2346381,112.147884 85,111.860041 Z" id="Path" fill="#000000" opacity="0.1"></path>
                <path d="M71,112 C71,112 79.3496177,113.947033 81,112.40747 C81,112.40747 73.8249788,112.940961 71,112 Z" id="Path" fill="#000000" opacity="0.1"></path>
                <path d="M85,114.936537 C85,114.936537 88.907595,114.936537 90.7187795,115.035698 C92.5299641,115.13486 85,114.936537 85,114.936537 Z" id="Path" fill="#000000" opacity="0.1"></path>
                <path d="M72,116 C72,116 73.6890567,118.375818 75.5978792,117.948587 C77.5067017,117.521357 72,116 72,116 Z" id="Path" fill="#000000" opacity="0.1"></path>
                <path d="M75.0131332,34.4351253 C74.4622049,35.306166 74.4426067,36.3146229 74.2988863,37.2809684 C73.9635386,39.5394686 72.8769252,41.7270443 71.1762337,43.5710797 C69.6149074,45.2599679 67.4743442,46.7914926 67.069314,48.8549505 C66.6860595,50.8142381 67.986076,52.700385 68.6676592,54.6175612 C70.4641643,59.6465473 67.9555899,64.9215526 67.2239223,70.112335 C67.0214072,71.5463385 67.2652964,73.379292 69.0008292,73.8558156 C69.5430471,74.0065301 70.163658,73.9865826 70.6514364,74.2259526 C71.304711,74.5451125 71.5050485,75.2078128 71.6248155,75.8040213 C72.0616068,77.9366699 72.2125065,80.1197195 72.0733974,82.2936076 C71.9950045,83.5126214 71.9079012,84.9155955 73.0402439,85.7533905 C73.5541532,86.1368257 74.2466243,86.3318679 74.915142,86.5158282 C76.6985816,87.0056501 79.004641,87.4023837 80.2066663,86.2520779 C80.7118653,85.7711216 80.9013149,85.0929066 81.5306361,84.7116877 C82.4735291,84.1420758 83.8105645,84.5277275 84.9973467,84.58757 C87.434061,84.7116877 89.6726153,83.2577367 90.6329289,81.5045732 C91.5932426,79.7514097 91.5039617,77.7367123 91.1555486,75.8461327 C90.8071355,73.9555531 90.184347,72.0782719 90.1407954,70.1588792 C90.1255523,69.4939626 90.184347,68.817964 90.5588912,68.2284046 C91.284026,67.0869644 92.971652,66.5683294 94.1257705,65.670692 C96.2881094,63.9862365 96.2815767,61.2268325 95.4954696,58.9173554 C94.7093625,56.6078783 93.2982893,54.393706 93.1240828,52.0066553 C93.0463346,51.4296139 93.1589196,50.8426254 93.4441873,50.3377146 C93.753404,49.8523254 94.2934443,49.4888377 94.7507365,49.0876713 C97.9060529,46.3748115 97.5336863,41.9198701 94.9249431,38.8701192 C92.0374693,35.4901263 78.9545566,28.2092892 75.0131332,34.4351253 Z" id="Path" fill="#E3787D"></path>
                <g id="Group" opacity="0.1" transform="translate(67.000000, 42.000000)" fill="#000000">
                    <path d="M2.22517986,14.5852941 C2.46906475,12.5801471 2.42374101,10.5926471 1.73093525,8.64044118 C1.38992806,7.68308824 0.895683453,6.73235294 0.535251799,5.77279412 C0.35520561,6.11973793 0.22439714,6.49111002 0.14676259,6.87573529 C-0.233093525,8.82573529 1.05539568,10.7029412 1.73093525,12.6110294 C1.95834553,13.2510497 2.12388376,13.9122937 2.22517986,14.5852941 Z" id="Path"></path>
                    <path d="M5.10647482,36.1852941 C5.24399986,34.0218131 5.09517428,31.8492586 4.66402878,29.7264706 C4.54316547,29.1330882 4.34460432,28.4757353 3.6971223,28.1580882 C3.21366906,27.9198529 2.59856115,27.9375 2.06115108,27.7897059 C1.39203362,27.6257529 0.834473361,27.1552118 0.550359712,26.5147059 C0.451079137,27.0176471 0.364748201,27.5183824 0.29352518,28.0213235 C0.0928057554,29.4485294 0.334532374,31.2727941 2.05467626,31.7470588 C2.59208633,31.8948529 3.20719424,31.875 3.69064748,32.1132353 C4.3381295,32.4308824 4.53669065,33.0904412 4.65755396,33.6838235 C4.855542,34.6682886 4.99393421,35.664297 5.07194245,36.6661765 C5.08705036,36.5029412 5.09568345,36.3441176 5.10647482,36.1852941 Z" id="Path"></path>
                    <path d="M23.5035971,35.4022059 C22.5496403,37.1536765 20.3309353,38.5941176 17.9158273,38.4705882 C16.7395683,38.4088235 15.4143885,38.0294118 14.4820144,38.5941176 C13.8582734,38.9713235 13.6683453,39.6485294 13.1676259,40.1272059 C11.976259,41.2632353 9.69064748,40.8772059 7.92302158,40.3897059 C7.26043165,40.2044118 6.57625899,40.0125 6.0647482,39.6308824 C5.57728372,39.2644501 5.248347,38.7186314 5.14748201,38.1088235 C5.16043165,38.7860294 5.14748201,39.4654412 5.10647482,40.1426471 C5.02877698,41.3558824 4.94244604,42.7522059 6.0647482,43.5882353 C6.57625899,43.9676471 7.26043165,44.1617647 7.92302158,44.3448529 C9.69064748,44.8323529 11.976259,45.2272059 13.1676259,44.0823529 C13.6683453,43.6036765 13.8582734,42.9286765 14.4820144,42.5382353 C15.4143885,41.9713235 16.7395683,42.3551471 17.9158273,42.4147059 C20.3309353,42.5382353 22.5496403,41.0911765 23.5035971,39.3463235 C24.418705,37.6610294 24.3776978,35.7551471 24.0582734,33.9352941 C23.9379523,34.4472749 23.7514187,34.9405866 23.5035971,35.4022059 Z" id="Path"></path>
                    <path d="M27.5913669,3.14779412 C27.1294964,3.54485294 26.5942446,3.90882353 26.2964029,4.39191176 C26.0136646,4.89442911 25.9020779,5.47863517 25.9791367,6.05294118 C26.0418199,6.77478582 26.1911427,7.48600882 26.423741,8.17058824 C26.7831686,7.77880698 27.1768941,7.42143685 27.6,7.10294118 C29.7151079,5.27867647 30.228777,2.66029412 29.542446,0.216176471 C29.1803083,1.36424221 28.5030883,2.38180737 27.5913669,3.14779412 Z" id="Path"></path>
                    <path d="M26.9633094,19.6411765 C25.8215827,20.5345588 24.1467626,21.0529412 23.4302158,22.1889706 C23.0568345,22.7757353 22.9985612,23.4529412 23.0136691,24.1080882 C23.0402087,24.8795579 23.1326465,25.6471825 23.2899281,26.4022059 C23.3307714,26.312952 23.3776474,26.2267139 23.4302158,26.1441176 C24.1467626,25.0080882 25.8215827,24.4919118 26.9633094,23.5985294 C28.9208633,22.0676471 29.0848921,19.6455882 28.5064748,17.4860294 C28.213016,18.3451601 27.6757773,19.0954544 26.9633094,19.6411765 Z" id="Path"></path>
                </g>
                <path d="M106.693058,66 C106.693058,66 112.426369,65.7054797 112.92299,63.3075567 C113.419611,60.9096338 111.371049,58.4721484 110.869994,58.2149926 C110.368939,57.9578368 104.963753,53.8785105 104.963753,53.8785105 L96.2507161,48.3617493 C96.2507161,48.3617493 92.0759965,36.4930198 91.1514834,41.0361057 C90.2269703,45.5791916 93.8363403,51.6124624 93.8363403,51.6124624 C93.8363403,51.6124624 98.8380224,54.799436 99.401155,55.7511323 C99.9642877,56.7028286 103.411812,59.1996576 103.411812,59.1996576 L106.693058,66 Z" id="Path" fill="#EFB7B9"></path>
                <path d="M108.844184,62.4321179 C107.470985,65.649082 105.691659,66.9172485 105.691659,66.9172485 L104.702148,66.9172485 L96.0029741,67 L95,64.4740109 L96.4091001,59 L97.2796906,59.0331006 C97.2796906,59.0331006 98.3208091,59.5275407 98.9558017,59.5275407 C99.5907942,59.5275407 100.836098,59.4965089 101.199592,59.6495992 C101.250375,59.6724692 101.30755,59.6804127 101.363388,59.6723558 C101.693225,59.641324 102.036525,59.1861908 102.036525,59.1861908 C102.036525,59.1861908 110.219627,59.2172227 108.844184,62.4321179 Z" id="Path" fill="#A36468"></path>
                <path d="M109.837205,62.3638065 C108.400736,65.6891206 106.539429,67 106.539429,67 L105.504327,67 C106.044176,65.6827052 107.182554,62.9796846 107.616781,62.3552526 C108.041619,61.7650361 104.229813,60.2959102 102,59.5025394 C102.345034,59.4704624 102.704151,59 102.704151,59 C102.704151,59 111.276021,59.0406308 109.837205,62.3638065 Z" id="Path" fill="#000000" opacity="0.1"></path>
                <ellipse id="Oval" fill="#196ECF" opacity="0.1" cx="20" cy="168" rx="10" ry="2"></ellipse>
                <ellipse id="Oval" fill="#196ECF" opacity="0.1" cx="182" cy="156.5" rx="7" ry="1.5"></ellipse>
                <ellipse id="Oval" fill="#196ECF" opacity="0.1" cx="213" cy="161.5" rx="7" ry="1.5"></ellipse>
                <ellipse id="Oval" fill="#196ECF" opacity="0.1" cx="166" cy="173.5" rx="7" ry="1.5"></ellipse>
                <path d="M28.4028095,115 C28.4028095,115 30.0052928,117.08661 27.6635424,120.233051 C25.3217919,123.379492 23.3939425,126.03678 24.1774772,128 C24.1774772,128 27.7078099,122.154407 30.5829836,122.072881 C33.4581574,121.991356 31.565722,118.51661 28.4028095,115 Z" id="Path" fill="#196ECF"></path>
                <path d="M29.3632517,115 C29.5050547,115.203616 29.6166206,115.426082 29.6945813,115.660681 C32.5310307,118.939861 34.042162,121.998814 31.3154095,122.075894 C28.7767089,122.146366 25.7298205,126.614772 25,127.742334 C25.0233628,127.830003 25.0525283,127.916075 25.0873098,128 C25.0873098,128 28.6580571,122.157378 31.5661454,122.075894 C34.4742336,121.99441 32.5623727,118.514823 29.3632517,115 Z" id="Path" fill="#000000" opacity="0.1"></path>
                <path d="M32.1838839,118.526592 C32.1838839,119.344334 32.1024024,120 32.0011011,120 C31.8997998,120 31.8161161,119.336967 31.8161161,118.526592 C31.8161161,117.716218 31.9196196,118.094393 32.0209209,118.094393 C32.1222222,118.094393 32.1838839,117.699028 32.1838839,118.526592 Z" id="Path" fill="#FFD037"></path>
                <path d="M33.5236342,119.50566 C32.7437958,119.855925 32.0627725,120.069609 32.0040176,119.979289 C31.9452626,119.888969 32.5381535,119.538704 33.3099798,119.18183 C34.0818062,118.824956 33.7826901,119.087104 33.8441157,119.18183 C33.9055413,119.276556 34.3034726,119.153192 33.5236342,119.50566 Z" id="Path" fill="#FFD037"></path>
                <path d="M20.598572,115 C20.598572,115 18.9980526,117.08661 21.3369332,120.233051 C23.6758139,123.379492 25.6013007,126.03678 24.8253583,128 C24.8253583,128 21.2882987,122.154407 18.4144377,122.072881 C15.5405768,121.991356 17.4395357,118.51661 20.598572,115 Z" id="Path" fill="#196ECF"></path>
                <path d="M20.641711,115 C20.5000693,115.203616 20.3886303,115.426082 20.3107583,115.660681 C17.477535,118.939861 15.9681225,121.998814 18.6917736,122.075894 C21.2275867,122.146366 24.2821905,126.614772 25,127.742334 C24.9764005,127.829665 24.9480345,127.915679 24.9150257,128 C24.9150257,128 21.3371589,122.157378 18.4301421,122.075894 C15.5231253,121.99441 17.4462287,118.514823 20.641711,115 Z" id="Path" fill="#000000" opacity="0.1"></path>
                <path d="M17.8161161,118.526592 C17.8161161,119.344334 17.8975976,120 17.9988989,120 C18.1002002,120 18.1838839,119.336967 18.1838839,118.526592 C18.1838839,117.716218 18.0803804,118.094393 17.9790791,118.094393 C17.8777778,118.094393 17.8161161,117.699028 17.8161161,118.526592 Z" id="Path" fill="#FFD037"></path>
                <path d="M16.4756499,119.50566 C17.2569828,119.855925 17.9343158,120.069609 17.9956491,119.979289 C18.0569824,119.888969 17.4623161,119.538704 16.6889831,119.18183 C15.9156501,118.824956 16.2169833,119.087104 16.15565,119.18183 C16.0943167,119.276556 15.6969836,119.153192 16.4756499,119.50566 Z" id="Path" fill="#FFD037"></path>
                <ellipse id="Oval" fill="#196ECF" opacity="0.1" cx="25.5" cy="142.5" rx="16.5" ry="2.5"></ellipse>
                <path d="M32.9963252,125.960464 L32.9177151,126.610891 L32.8063508,127.514985 L32.760495,127.892233 L32.6491307,128.798495 L32.6010912,129.175743 L32.489727,130.079837 L31.2275987,140.36526 C31.1140508,141.28453 29.6029906,142 27.7774902,142 L21.2222842,142 C19.3967837,142 17.8879072,141.28453 17.7743593,140.36526 L16.5100474,130.077669 L16.3986832,129.173575 L16.3528273,128.796327 L16.2392794,127.890065 L16.1934235,127.512817 L16.0820593,126.608723 L16.0034492,125.958296 C15.9401244,125.437954 16.7567957,125 17.7896446,125 L31.2232314,125 C32.2429787,125.002168 33.0618335,125.440122 32.9963252,125.960464 Z" id="Path" fill="#65617D"></path>
                <polygon id="Path" fill="#9D9CB5" points="33 126 32.8898107 127 16.1101893 127 16 126"></polygon>
                <polygon id="Path" fill="#9D9CB5" points="33 127 32.8877147 128 16.114531 128 16 127"></polygon>
                <polygon id="Path" fill="#9D9CB5" points="33 129 32.8901158 130 17.1098842 130 17 129"></polygon>
                <circle id="Oval" fill="#196ECF" opacity="0.1" cx="39" cy="28" r="7"></circle>
                <circle id="Oval" fill="#196ECF" opacity="0.1" cx="25" cy="11" r="4"></circle>
                <circle id="Oval" fill="#196ECF" opacity="0.1" cx="3" cy="21" r="3"></circle>
            </g>
        </g>
    </g>
</svg>