<?xml version="1.0" encoding="UTF-8"?>
<svg width="279px" height="206px" viewBox="0 0 279 206" version="1.1" xmlns="http://www.w3.org/2000/svg" xmlns:xlink="http://www.w3.org/1999/xlink">
    <!-- Generator: sketchtool 54.1 (76490) - https://sketchapp.com -->
    <title>1B3A19D3-E168-481E-8ED1-1C69E5891860</title>
    <desc>Created with sketchtool.</desc>
    <defs>
        <linearGradient x1="50.012528%" y1="99.9850584%" x2="50.012528%" y2="0.00588387637%" id="linearGradient-1">
            <stop stop-color="#808080" stop-opacity="0.25" offset="0%"></stop>
            <stop stop-color="#808080" stop-opacity="0.12" offset="54%"></stop>
            <stop stop-color="#808080" stop-opacity="0.1" offset="100%"></stop>
        </linearGradient>
    </defs>
    <g id="Invalid-Parameters" stroke="none" stroke-width="1" fill="none" fill-rule="evenodd">
        <g transform="translate(-129.000000, -137.000000)" id="undraw_lost_bqr2">
            <g transform="translate(129.000000, 137.000000)">
                <path d="M3,110 C7.42565789,128.737269 16.7944901,144.934148 31.6010691,152.785114 C62.3716283,169.10068 131.76727,160.686585 183.559704,151.017447 C209.729157,146.150911 233.484017,132.702888 251,112.838368 L3,110 Z" id="Path" fill="#196ECF" fill-rule="nonzero" opacity="0.1"></path>
                <path d="M203.647099,164.495768 C203.647099,164.495768 186.489116,174.934736 218.111545,191 C218.111545,191 225.076189,177.951291 217.376022,167.315313 C214.281671,163.022575 208.493547,161.7431 203.903264,164.337137 L203.647099,164.495768 Z" id="Path" fill="#196ECF" fill-rule="nonzero"></path>
                <path d="M204,165 C204,165 218.39704,176.446242 217.991594,192" id="Path" stroke="#535461"></path>
                <path d="M4.64709915,167.495768 C4.64709915,167.495768 -12.5108835,177.934736 19.1115448,194 C19.1115448,194 26.0761894,180.951291 18.3760216,170.315313 C15.2816712,166.022575 9.49354667,164.7431 4.90326416,167.337137 L4.64709915,167.495768 Z" id="Path" fill="#196ECF" fill-rule="nonzero"></path>
                <path d="M6,168 C6,168 20.3970398,179.446242 19.9915945,195" id="Path" stroke="#535461"></path>
                <path d="M218.114828,193 C218.114828,193 212.738807,174.81739 219.12965,161.455697 C221.843667,155.862978 222.661798,149.544818 221.461204,143.449863 C220.860724,140.560509 219.995348,137.732048 218.875945,135" id="Path" stroke="#535461" stroke-width="2"></path>
                <path d="M223,125.634686 C223,127.780137 219,134 219,134 C219,134 215,127.780137 215,125.634686 C215.139255,123.589567 216.884759,122 218.99125,122 C221.097741,122 222.843245,123.589567 222.9825,125.634686 L223,125.634686 Z" id="Path" fill="#196ECF" fill-rule="nonzero"></path>
                <path d="M230.463944,138.409472 C229.20055,140.091984 222,143 222,143 C222,143 222.131878,136.147177 223.395272,134.464665 C224.723672,132.92769 227.207582,132.542842 229.073707,133.584868 C230.939831,134.626895 231.547961,136.738309 230.463944,138.411746 L230.463944,138.409472 Z" id="Path" fill="#196ECF" fill-rule="nonzero"></path>
                <path d="M229.932605,159.458125 C227.869539,160.459687 220,159.766105 220,159.766105 C220,159.766105 224.099919,153.313547 226.165608,152.319498 C228.19957,151.494475 230.554808,152.318289 231.54996,154.202834 C232.545112,156.087379 231.838791,158.386163 229.935227,159.458125 L229.932605,159.458125 Z" id="Path" fill="#196ECF" fill-rule="nonzero"></path>
                <path d="M225.669133,176.089939 C224.014202,177.405145 217,178 217,178 C217,178 219.5816,170.97218 221.236531,169.644424 C222.891732,168.492939 225.094208,168.923147 226.267049,170.627031 C227.439889,172.330915 227.17913,174.721602 225.671468,176.087429 L225.669133,176.089939 Z" id="Path" fill="#196ECF" fill-rule="nonzero"></path>
                <path d="M213.030519,143.810196 C214.614401,145.375775 222,147 222,147 C222,147 220.190566,139.536726 218.606684,137.971147 C216.998132,136.580153 214.605041,136.696299 213.133933,138.236761 C211.662825,139.777224 211.617605,142.214341 213.030519,143.810196 Z" id="Path" fill="#196ECF" fill-rule="nonzero"></path>
                <path d="M209.457146,162.407833 C211.439259,163.502351 219,162.744397 219,162.744397 C219,162.744397 215.06096,155.692968 213.076328,154.606659 C211.781775,153.777454 210.170082,153.799764 208.895395,154.664534 C207.620708,155.529305 206.894835,157.092841 207.01239,158.720543 C207.129945,160.348245 208.071395,161.769645 209.454627,162.407833 L209.457146,162.407833 Z" id="Path" fill="#196ECF" fill-rule="nonzero"></path>
                <path d="M207.646256,181.946238 C209.24098,183.360392 216,184 216,184 C216,184 213.512321,176.44345 211.917597,175.015801 C210.892935,173.980016 209.473537,173.71297 208.233824,174.322735 C206.994111,174.9325 206.139353,176.318112 206.015465,177.918823 C205.891577,179.519535 206.519072,181.070301 207.644007,181.943539 L207.646256,181.946238 Z" id="Path" fill="#196ECF" fill-rule="nonzero"></path>
                <path d="M223,125.634686 C223,127.780137 219,134 219,134 C219,134 215,127.780137 215,125.634686 C215.139255,123.589567 216.884759,122 218.99125,122 C221.097741,122 222.843245,123.589567 222.9825,125.634686 L223,125.634686 Z" id="Path" fill="#000000" fill-rule="nonzero" opacity="0.25"></path>
                <path d="M230.463944,138.409472 C229.20055,140.091984 222,143 222,143 C222,143 222.131878,136.147177 223.395272,134.464665 C224.723672,132.92769 227.207582,132.542842 229.073707,133.584868 C230.939831,134.626895 231.547961,136.738309 230.463944,138.411746 L230.463944,138.409472 Z" id="Path" fill="#000000" fill-rule="nonzero" opacity="0.25"></path>
                <path d="M229.932605,159.458125 C227.869539,160.459687 220,159.766105 220,159.766105 C220,159.766105 224.099919,153.313547 226.165608,152.319498 C228.19957,151.494475 230.554808,152.318289 231.54996,154.202834 C232.545112,156.087379 231.838791,158.386163 229.935227,159.458125 L229.932605,159.458125 Z" id="Path" fill="#000000" fill-rule="nonzero" opacity="0.25"></path>
                <path d="M225.669133,176.089939 C224.014202,177.405145 217,178 217,178 C217,178 219.5816,170.97218 221.236531,169.644424 C222.891732,168.492939 225.094208,168.923147 226.267049,170.627031 C227.439889,172.330915 227.17913,174.721602 225.671468,176.087429 L225.669133,176.089939 Z" id="Path" fill="#000000" fill-rule="nonzero" opacity="0.25"></path>
                <path d="M213.030519,143.810196 C214.614401,145.375775 222,147 222,147 C222,147 220.190566,139.536726 218.606684,137.971147 C216.998132,136.580153 214.605041,136.696299 213.133933,138.236761 C211.662825,139.777224 211.617605,142.214341 213.030519,143.810196 Z" id="Path" fill="#000000" fill-rule="nonzero" opacity="0.25"></path>
                <path d="M209.457146,162.407833 C211.439259,163.502351 219,162.744397 219,162.744397 C219,162.744397 215.06096,155.692968 213.076328,154.606659 C211.781775,153.777454 210.170082,153.799764 208.895395,154.664534 C207.620708,155.529305 206.894835,157.092841 207.01239,158.720543 C207.129945,160.348245 208.071395,161.769645 209.454627,162.407833 L209.457146,162.407833 Z" id="Path" fill="#000000" fill-rule="nonzero" opacity="0.25"></path>
                <path d="M207.646256,181.946238 C209.24098,183.360392 216,184 216,184 C216,184 213.512321,176.44345 211.917597,175.015801 C210.892935,173.980016 209.473537,173.71297 208.233824,174.322735 C206.994111,174.9325 206.139353,176.318112 206.015465,177.918823 C205.891577,179.519535 206.519072,181.070301 207.644007,181.943539 L207.646256,181.946238 Z" id="Path" fill="#000000" fill-rule="nonzero" opacity="0.25"></path>
                <path d="M230.114828,193 C230.114828,193 224.738807,174.81739 231.12965,161.455697 C233.843667,155.862978 234.661798,149.544818 233.461204,143.449863 C232.868944,140.561336 232.012067,137.732894 230.901315,135" id="Path" stroke="#535461" stroke-width="2"></path>
                <path d="M235,125.634686 C235,127.780137 231,134 231,134 C231,134 227,127.780137 227,125.634686 C227.139255,123.589567 228.884759,122 230.99125,122 C233.097741,122 234.843245,123.589567 234.9825,125.634686 L235,125.634686 Z" id="Path" fill="#196ECF" fill-rule="nonzero"></path>
                <path d="M242.471856,138.418567 C241.208463,140.101078 234,143 234,143 C234,143 234.131878,136.147177 235.395272,134.464665 C236.723672,132.92769 239.207582,132.542842 241.073707,133.584868 C242.939831,134.626895 243.547961,136.738309 242.463944,138.411746 L242.471856,138.418567 Z" id="Path" fill="#196ECF" fill-rule="nonzero"></path>
                <path d="M241.940268,159.457872 C239.875609,160.459902 232,159.765996 232,159.765996 C232,159.765996 236.103082,153.31042 238.170364,152.315905 C240.204809,151.496419 242.556319,152.322084 243.550148,154.204862 C244.543977,156.087639 243.840296,158.383737 241.940268,159.457872 Z" id="Path" fill="#196ECF" fill-rule="nonzero"></path>
                <path d="M237.669133,176.089939 C236.014202,177.405145 229,178 229,178 C229,178 231.5816,170.97218 233.236531,169.644424 C234.891732,168.492939 237.094208,168.923147 238.267049,170.627031 C239.439889,172.330915 239.17913,174.721602 237.671468,176.087429 L237.669133,176.089939 Z" id="Path" fill="#196ECF" fill-rule="nonzero"></path>
                <path d="M225.030519,144.810196 C226.614401,146.375775 234,148 234,148 C234,148 232.190566,140.536726 230.606684,138.971147 C228.998132,137.580153 226.605041,137.696299 225.133933,139.236761 C223.662825,140.777224 223.617605,143.214341 225.030519,144.810196 Z" id="Path" fill="#196ECF" fill-rule="nonzero"></path>
                <path d="M221.065224,162.458125 C223.128742,163.459687 231,162.766105 231,162.766105 C231,162.766105 226.891319,156.313547 224.835667,155.319498 C222.80126,154.494475 220.445507,155.318289 219.450138,157.202834 C218.454769,159.087379 219.161245,161.386163 221.065224,162.458125 Z" id="Path" fill="#196ECF" fill-rule="nonzero"></path>
                <path d="M219.646256,181.946238 C221.24098,183.360392 228,184 228,184 C228,184 225.512321,176.44345 223.917597,175.015801 C222.892935,173.980016 221.473537,173.71297 220.233824,174.322735 C218.994111,174.9325 218.139353,176.318112 218.015465,177.918823 C217.891577,179.519535 218.519072,181.070301 219.644007,181.943539 L219.646256,181.946238 Z" id="Path" fill="#196ECF" fill-rule="nonzero"></path>
                <path d="M274.07118,20.6848119 L245.69228,20.6848119 C244.337551,20.6848119 243.239327,19.5795327 243.239327,18.2161018 C243.239327,16.8526708 244.337551,15.7473916 245.69228,15.7473916 L250.598187,15.7473916 C249.243458,15.7473916 248.145233,14.6421124 248.145233,13.2786814 C248.145233,11.9152504 249.243458,10.8099713 250.598187,10.8099713 L247.092513,10.8099713 C245.737784,10.8099713 244.63956,9.70469207 244.63956,8.34126109 C244.63956,6.97783011 245.737784,5.87255092 247.092513,5.87255092 L261.909522,5.87255092 C258.622794,4.33521195 254.781064,3.24113904 250.356328,2.66719916 C209.968522,-2.55462889 195.54867,0.899259341 190.462006,4.4607613 C184.186417,8.84217737 177.185253,12.0654648 169.702918,13.6181771 C144.778774,18.7861983 98.1764795,25.0098589 55.9480035,11.6119498 C34.9546947,4.95014754 19.3510094,16.2034688 10,35 L279,35 C278.648669,29.5373222 277.597221,24.4948503 275.667446,20.077563 C275.225375,20.4668301 274.658566,20.6824546 274.07118,20.6848119 Z" id="Path" fill="#196ECF" fill-rule="nonzero" opacity="0.1"></path>
                <path d="M1.60750804,70 C0.522804891,80.971001 0.891850299,92.0377792 2.70501469,102.911567 L250.76433,112 C257.669589,104.032946 263.467483,95.1647812 268,85.637189 L1.60750804,70 Z M99.6987491,93.4773924 L94.824603,93.4773924 C96.173361,93.4773924 97.2667454,94.5740387 97.2667454,95.9268204 C97.2667454,97.2796021 96.173361,98.3762484 94.824603,98.3762484 L66.570777,98.3762484 C65.222019,98.3762484 64.1286346,97.2796021 64.1286346,95.9268204 C64.1286346,94.5740387 65.222019,93.4773924 66.570777,93.4773924 L71.4550618,93.4773924 C70.1063038,93.4773924 69.0129194,92.3807461 69.0129194,91.0279644 C69.0129194,89.6751827 70.1063038,88.5785364 71.4550618,88.5785364 L67.9648386,88.5785364 C66.6160806,88.5785364 65.5226962,87.4818901 65.5226962,86.1291084 C65.5226962,84.7763267 66.6160806,83.6796804 67.9648386,83.6796804 L96.2186645,83.6796804 C97.5674225,83.6796804 98.6608069,84.7763267 98.6608069,86.1291084 C98.6608069,87.4818901 97.5674225,88.5785364 96.2186645,88.5785364 L99.6987491,88.5785364 C101.047507,88.5785364 102.140892,89.6751827 102.140892,91.0279644 C102.140892,92.3807461 101.047507,93.4773924 99.6987491,93.4773924 Z" id="Shape" fill="#196ECF" fill-rule="nonzero" opacity="0.1"></path>
                <path d="M278.874208,35 L7.4993428,41.6744902 C4.19760554,50.2512102 2.01083956,59.949758 1,70 L274.119706,70 C275.904752,64.0955408 277.225325,58.0577217 278.069092,51.9429368 C278.874208,46.03858 279.201842,40.3164882 278.874208,35 Z M56.090756,56.8563884 L51.2067247,56.8563884 C52.5582181,56.8563884 53.65382,57.9637727 53.65382,59.3298005 C53.65382,60.6958283 52.5582181,61.8032126 51.2067247,61.8032126 L22.8955976,61.8032126 C21.5441042,61.8032126 20.4485023,60.6958283 20.4485023,59.3298005 C20.4485023,57.9637727 21.5441042,56.8563884 22.8955976,56.8563884 L27.7897882,56.8563884 C26.4382948,56.8563884 25.3426929,55.7490041 25.3426929,54.3829764 C25.3426929,53.0169486 26.4382948,51.9095643 27.7897882,51.9095643 L24.2924865,51.9095643 C22.9409931,51.9095643 21.8453912,50.80218 21.8453912,49.4361523 C21.8453912,48.0701245 22.9409931,46.9627402 24.2924865,46.9627402 L52.6036135,46.9627402 C53.9551069,46.9627402 55.0507088,48.0701245 55.0507088,49.4361523 C55.0507088,50.80218 53.9551069,51.9095643 52.6036135,51.9095643 L56.090756,51.9095643 C57.4422494,51.9095643 58.5378513,53.0169486 58.5378513,54.3829764 C58.5378513,55.7490041 57.4422494,56.8563884 56.090756,56.8563884 L56.090756,56.8563884 Z" id="Shape" fill="#196ECF" fill-rule="nonzero" opacity="0.1"></path>
                <ellipse id="Oval" fill="#196ECF" fill-rule="nonzero" cx="139" cy="198" rx="135" ry="8"></ellipse>
                <path d="M183.695064,68.2222463 C183.695064,68.2222463 168.162615,53.4952674 165.918565,51.2926765 C165.137042,50.5331623 164.398239,49.7736482 163.767493,49.1331246 C162.554296,47.9109251 161.000044,47.0904567 159.31206,46.7811626 C153.492103,45.6697402 147.538961,42.0645798 147.538961,42.0645798 L147.538961,42.0645798 C147.506293,42.0215407 147.473624,41.983565 147.443469,41.9379942 C146.93901,41.2272519 146.568481,40.4291679 146.350343,39.5835004 C146.317674,39.4594464 146.285006,39.330329 146.257364,39.1986799 C146.35118,39.0771576 146.442484,38.9531036 146.531274,38.826518 C146.633071,38.7907555 146.731471,38.7458479 146.825287,38.6923371 C147.561577,38.2695409 147.976211,37.4872414 148.255147,36.7176004 C148.506441,36.0365694 148.707475,35.2846504 149.305554,34.8416005 C149.519727,34.721962 149.712532,34.5670788 149.87599,34.3833603 C149.997226,34.1419422 150.043629,33.8693823 150.009175,33.6010608 C150.009175,31.8719003 149.735266,30.5452823 150.134822,28.8591609 C150.773108,26.1603541 151.358621,22.7830479 149.335709,20.7804623 C148.29108,19.7638999 146.960818,19.0964505 145.5261,18.8690185 C144.226913,18.6614179 142.304518,20.4437444 140.98774,20.3880467 C137.632972,20.2589293 134.805921,17.2107459 131.617007,18.1955826 C130.229106,18.6199551 129.018974,19.4938459 128.174286,20.6817255 C126.601189,22.9400142 126.751965,25.8616118 126.978129,28.5553553 C126.974778,28.7604863 127.035427,28.961502 127.151522,29.1300543 C127.26963,29.2692985 127.4581,29.3427182 127.573695,29.4819625 C127.697319,29.6668289 127.744222,29.8930976 127.704367,30.1123592 C127.667589,30.5482564 127.562414,30.9755173 127.392764,31.3782161 C127.304792,31.5143975 127.287033,31.6848391 127.345018,31.8364563 C127.407807,31.9200199 127.496093,31.9805028 127.596311,32.0086128 C127.731168,32.0544675 127.869983,32.0875235 128.010946,32.1073497 C127.988329,32.3301405 127.968226,32.5529313 127.960687,32.7782538 C127.960687,32.9048395 127.960687,33.0314252 127.960687,33.1605426 C127.972884,36.5027851 129.65661,39.6136362 132.438736,41.4341831 C132.466379,41.6164665 132.496534,41.8038133 132.524176,41.9987553 C132.609616,42.5987715 132.687517,43.2646122 132.745314,43.9886823 C132.745314,44.1203314 132.765418,44.2418537 132.77547,44.3861614 L132.70762,44.2469171 L121.902001,49.5837697 C121.103614,49.7697615 120.358245,50.1378693 119.723287,50.659748 L119.509688,50.76608 L119.509688,50.8293729 C119.420897,50.9036365 119.330432,50.9829635 119.238291,51.067354 L109.862531,40.3987122 L88,59.5182145 L100.021879,72.559072 L113.531416,71.4248642 C112.865488,76.0325833 112.410647,79.5643239 112.410647,79.5643239 C112.410647,79.5643239 109.940432,90.230434 121.907027,88.1898727 C121.829126,94.9166361 118.969407,106.142255 118.969407,106.142255 C119.301922,106.580573 119.693529,106.969993 120.132895,107.299248 L120.065046,107.757488 L119.311166,112.914589 C119.311166,112.914589 114.823064,125.441509 114.13452,136.613962 C113.445976,147.786414 112.581527,154.049874 112.581527,154.049874 L111.028533,176.397312 L108.844793,186.615308 C105.247875,190.578492 101.059609,193.952435 96.4308958,196.615578 C96.0181643,196.836349 95.7109962,197.215184 95.5786288,197.666691 C95.4462614,198.118198 95.4998351,198.604378 95.7272741,199.015642 C96.6118271,200.549861 99.3333353,202.142309 107.575761,199.590341 C120.69328,195.539599 119.484558,195.696565 119.484558,195.696565 C119.484558,195.696565 119.678054,190.273635 119.120183,187.058358 C119.102592,186.962153 119.085002,186.86848 119.067411,186.774806 C122.208579,183.207622 120.690767,177.407465 120.690767,177.407465 C120.690767,177.407465 126.902741,165.219795 123.957582,157.262619 C123.957582,157.262619 123.266525,150.490285 126.89269,147.275008 C126.942948,147.229437 126.99572,147.178803 127.048492,147.125637 L127.096237,147.075003 L127.214345,146.948417 L127.267117,146.890188 L127.405328,146.728158 L127.435483,146.692714 C127.490768,146.624358 127.548566,146.550938 127.606363,146.474987 L127.651596,146.414226 L127.797346,146.249664 L127.852631,146.168649 L127.988329,145.968644 L128.033562,145.902819 L128.217006,145.621799 L128.252187,145.566101 L128.405476,145.31293 L128.463274,145.216725 L128.603998,144.978744 L128.65677,144.887602 L128.850266,144.548353 L128.850266,144.548353 L129.043762,144.198976 L129.099046,144.095176 L129.247309,143.819219 L129.305107,143.707824 L129.483525,143.366042 L129.506142,143.323003 L129.712202,142.917929 L129.762461,142.819192 L129.923289,142.497664 L129.983599,142.376142 L130.151966,142.031829 L130.194686,141.945751 L130.405772,141.502701 L130.440953,141.429281 L130.616859,141.052056 L130.677169,140.922938 L130.84051,140.57103 L130.893282,140.457103 L131.109394,139.983673 L131.109394,139.983673 L131.317968,139.515306 L131.375765,139.386188 L131.539106,139.014026 L131.59439,138.884909 L131.818042,138.401352 L131.818042,138.381098 L132.036667,137.874755 L132.084413,137.765891 L132.255292,137.365881 L132.31309,137.2317 L132.491508,136.80384 L132.526689,136.722825 L132.742801,136.216483 L132.777983,136.132936 L132.956401,135.702545 L133.014198,135.5633 L133.177539,135.160758 L133.225285,135.044299 L133.433859,134.537956 L133.451449,134.494917 L133.639919,134.02655 L133.697717,133.882242 L133.851006,133.497422 L133.90629,133.358178 L134.087222,132.897406 L134.104812,132.849303 L134.300821,132.342961 L134.358618,132.196121 L134.499343,131.834086 L134.559653,131.674588 L134.707916,131.289768 L134.750636,131.17584 L134.93408,130.697347 L134.984339,130.565697 L135.117525,130.216321 L135.185374,130.039101 L135.303482,129.730232 L135.366305,129.563139 L135.532159,129.120089 L135.579905,128.990972 L135.700526,128.666912 L135.768375,128.48716 L135.868892,128.216267 L135.936741,128.031452 L136.049823,127.725115 L136.122699,127.527641 L136.235781,127.218772 L136.308656,127.021298 L136.386557,126.808634 L136.459432,126.606097 L136.522255,126.431409 L136.690622,125.970637 L136.718264,125.892154 L136.796165,125.674427 L136.848937,125.530119 L136.929351,125.30986 L136.967045,125.206059 C137.688257,123.203474 138.130533,121.914832 138.130533,121.914832 C138.130533,121.914832 141.397348,133.426534 140.894761,136.98106 C140.392175,140.535586 144.000749,153.741005 144.000749,153.741005 C144.000749,153.741005 141.930091,166.946424 143.138812,170.161701 C144.347534,173.376977 141.412426,185.397554 141.412426,185.397554 C141.412426,185.397554 141.636077,185.521608 142.01553,185.711486 L141.992914,186.038077 C141.804444,188.681187 141.394835,193.759804 140.894761,195.724414 C140.203704,198.433348 140.550489,201.311907 146.071407,200.972657 C151.592324,200.633407 151.765717,197.248506 151.765717,197.248506 C151.765717,197.248506 149.943839,191.329359 149.720188,187.838126 C149.720188,187.724199 149.720188,187.612803 149.70511,187.50394 L149.70511,187.50394 L149.860912,187.44571 L149.906145,187.427988 C149.968969,187.400139 150.029279,187.372291 150.087076,187.34191 L150.087076,187.34191 C150.142361,187.31153 150.19262,187.281149 150.245391,187.248237 L150.290624,187.217856 C150.334182,187.187476 150.376902,187.155407 150.418784,187.121651 L150.448939,187.096334 C150.499198,187.054139 150.546943,187.010256 150.592176,186.964685 L150.624844,186.931772 C150.660026,186.892953 150.694369,186.853289 150.727875,186.812782 L150.763056,186.767211 C150.803263,186.714045 150.84347,186.658347 150.881164,186.597586 C152.778429,183.55953 152.951822,177.116318 152.951822,177.116318 C152.951822,177.116318 156.748866,155.44738 155.369265,152.558695 C153.989664,149.670009 154.678208,142.910334 154.678208,142.910334 C154.678208,142.910334 153.125214,132.753098 154.851601,127.844105 C156.143249,124.168057 156.952414,111.474044 156.91472,105.400463 C156.91472,105.273877 156.91472,105.149823 156.91472,105.028301 C156.91472,104.985262 156.91472,104.942223 156.91472,104.899183 C158.201342,103.289014 159.176361,100.463621 158.482791,95.5115889 C158.442584,95.2305686 158.412429,94.9470167 158.382274,94.6584013 C160.342363,93.1824122 162.277322,91.4481883 162.277322,91.4481883 L162.945763,90.7544987 L163.159362,90.5317079 C163.34532,90.610191 163.541329,90.681079 163.744876,90.7443719 C164.498757,91.0886849 165.036525,91.2810952 165.036525,91.2810952 C165.036525,91.2810952 174.874664,83.154294 182.29536,79.2605183 C189.716056,75.3667425 183.695064,68.2222463 183.695064,68.2222463 Z M171.95966,75.3312985 C171.95966,75.3312985 161.603856,81.9441349 159.711616,85.321441 C159.602363,85.510508 159.517894,85.7130446 159.460323,85.9239889 L159.209029,86.0303209 L159.209029,86.0303209 L158.892399,86.1518431 C160.478061,77.0376736 164.722408,68.0526215 164.722408,68.0526215 C164.722408,68.0526215 167.989223,70.93118 170.250864,72.1033635 C172.512505,73.275547 171.95966,75.3338303 171.95966,75.3338303 L171.95966,75.3312985 Z" id="Shape" fill="url(#linearGradient-1)" fill-rule="nonzero"></path>
                <path d="M107.561071,198.702316 C99.6628052,201.165336 97.0541807,199.628411 96.2079379,198.148136 C95.7599929,197.324408 96.0589618,196.298519 96.8819365,195.83536 C101.370859,193.231934 105.414768,189.945163 108.864135,186.096578 C109.74283,185.11137 110.204644,184.50793 110.204644,184.50793 C110.204644,184.50793 116.323054,183.365088 117.810844,184.50793 C118.182791,184.79364 118.442406,185.591658 118.619642,186.626127 C119.153849,189.724607 118.969123,194.951136 118.969123,194.951136 C118.969123,194.951136 120.127402,194.786113 107.561071,198.702316 Z" id="Path" fill="#5B5877" fill-rule="nonzero"></path>
                <path d="M150,196.419836 C150,196.419836 149.84556,199.652159 144.884745,199.974172 C139.92393,200.296184 139.615049,197.549319 140.235151,194.9659 C140.684432,193.092373 141.051813,188.245108 141.220294,185.720237 C141.283474,184.761517 141.318574,184.139448 141.318574,184.139448 C141.318574,184.139448 149.068677,183.331977 148.294135,185.603141 C148.141664,186.204195 148.097236,186.829481 148.163095,187.447395 C148.364335,190.772419 150,196.419836 150,196.419836 Z" id="Path" fill="#5B5877" fill-rule="nonzero"></path>
                <path d="M119,187.040982 L118.851273,187.235108 C115.67759,191.206116 109,187.235108 109,187.235108 L109.148727,186.430058 C110.036047,185.288143 110.502395,184.58872 110.502395,184.58872 C110.502395,184.58872 116.680867,183.264099 118.183262,184.58872 C118.568944,184.917021 118.831107,185.841972 119,187.040982 Z" id="Path" fill="#000000" fill-rule="nonzero" opacity="0.1"></path>
                <path d="M148.938253,185.320033 C148.767151,185.819656 148.717293,186.339421 148.7912,186.853059 C146.517125,187.461403 142.488915,186.021656 141,185.43359 C141.070901,184.63666 141.11029,184.119567 141.11029,184.119567 C141.11029,184.119567 149.812695,183.44025 148.938253,185.320033 Z" id="Path" fill="#000000" fill-rule="nonzero" opacity="0.1"></path>
                <path d="M154.465798,152.233148 C155.813121,155.098318 152.109253,176.660891 152.109253,176.660891 C152.109253,176.660891 151.941474,183.065539 150.088269,186.098651 C148.235064,189.131762 140.827329,184.917977 140.827329,184.917977 C140.827329,184.917977 143.689755,172.958561 142.510212,169.74733 C141.330669,166.5361 143.351654,153.403644 143.351654,153.403644 C143.351654,153.403644 139.815566,140.25592 140.321448,136.716442 C140.827329,133.176964 137.626802,121.703558 137.626802,121.703558 C137.626802,121.703558 130.216525,143.78522 126.680437,146.986272 C123.14435,150.187324 123.818011,156.930399 123.818011,156.930399 C126.680437,164.851604 120.617484,176.989138 120.617484,176.989138 C120.617484,176.989138 122.142755,182.88742 118.934601,186.426899 C115.726447,189.966377 109,186.426899 109,186.426899 L111.196391,175.999306 L112.721662,153.749703 C112.721662,153.749703 113.563104,147.512995 114.246934,136.388194 C114.930764,125.263393 119.298124,112.789977 119.298124,112.789977 L120.030254,107.655062 L120.645447,103.349672 C120.645447,103.349672 154.829321,102.168998 155.670762,102.001057 C155.881758,101.9578 155.988527,103.245345 155.998695,105.273357 C156.036827,111.321768 155.23606,123.958036 153.985337,127.619652 C152.302454,132.507745 153.817557,142.632536 153.817557,142.632536 C153.817557,142.632536 153.118475,149.367977 154.465798,152.233148 Z" id="Path" fill="#5F5D7E" fill-rule="nonzero"></path>
                <g id="Group" opacity="0.05" transform="translate(113.000000, 103.000000)" fill="#000000" fill-rule="nonzero">
                    <path d="M22.3677711,19.73941 C22.3677711,19.73941 14.8168675,41.7543953 11.2136747,44.9457817 C7.61048193,48.1371681 8.29692771,54.859882 8.29692771,54.859882 C11.2136747,62.7571681 5.03566265,74.8580531 5.03566265,74.8580531 C5.03566265,74.8580531 6.58987952,80.7385251 3.32084337,84.2673156 C2.49389306,85.1401813 1.36631383,85.6823887 0.155421687,85.7894395 C1.9686747,85.9746313 3.88295181,85.7057227 5.20662651,84.2673156 C8.46789157,80.7385251 6.92144578,74.8580531 6.92144578,74.8580531 C6.92144578,74.8580531 13.0994578,62.759705 10.1827108,54.859882 C10.1827108,54.859882 9.49626506,48.1371681 13.0994578,44.9457817 C15.8685542,42.4926254 20.9637952,28.9355752 23.1785542,22.7811209 C22.7226506,20.9850147 22.3677711,19.73941 22.3677711,19.73941 Z" id="Path"></path>
                    <path d="M40.7256627,40.5772861 C40.7256627,40.5772861 39.1714458,30.4957522 40.8966265,25.6097345 C42.1918072,21.959174 42.9844578,9.36106195 42.9481928,3.33091445 C42.9481928,1.30141593 42.8290361,0.032979351 42.6140361,0.0684955752 C42.5078313,0.0887905605 41.868012,0.126843658 40.8344578,0.175044248 C40.9795181,0.520058997 41.0520482,1.67687316 41.0624096,3.33345133 C41.1012651,9.36359882 40.2853012,21.9617109 39.0108434,25.6122714 C37.2960241,30.4856047 38.8398795,40.579823 38.8398795,40.579823 C38.8398795,40.579823 38.1534337,47.3025369 39.5263253,50.159056 C40.8992169,53.0155752 37.1250602,74.5130383 37.1250602,74.5130383 C37.1250602,74.5130383 36.9540964,80.8983481 35.0657229,83.9223009 C34.7138604,84.4663188 34.1401804,84.8359465 33.4907831,84.9370501 C34.9595181,85.1501475 36.2961446,84.9725664 36.951506,83.9223009 C38.8398795,80.8983481 39.0108434,74.5130383 39.0108434,74.5130383 C39.0108434,74.5130383 42.785,53.0028909 41.4121084,50.159056 C40.0392169,47.3152212 40.7256627,40.5772861 40.7256627,40.5772861 Z" id="Path"></path>
                </g>
                <path d="M148,45.1584249 L146.886208,56.7703246 C146.886208,56.7703246 129.23597,60.8103509 131.144299,54.2446729 C132.046854,51.1371557 132.104464,47.8009578 131.895628,45.1508022 C131.840419,44.4342692 131.770807,43.7685542 131.691593,43.1714433 C131.562441,42.1401426 131.379733,41.1171531 131.144299,40.1071215 C131.144299,40.1071215 144.826654,29.1660186 144.183343,36.5727336 C144.035828,37.9725623 144.121132,39.3889241 144.435386,40.7575911 C144.63555,41.5955541 144.977094,42.3883427 145.44356,43.0977573 C146.569354,44.7798312 148,45.1584249 148,45.1584249 Z" id="Path" fill="#FDC2CC" fill-rule="nonzero"></path>
                <path d="M146,41.2433966 C145.866017,41.4124842 145.724449,41.5792235 145.580354,41.7389174 C142.347757,45.2986359 136.758026,46.0456452 132.576381,43.4767627 C132.440365,42.5235767 132.247947,41.5780724 132,40.6445444 C132,40.6445444 146.409534,30.532163 145.732033,37.3778648 C145.577803,38.6710284 145.668494,39.979292 146,41.2433966 L146,41.2433966 Z" id="Path" fill="#000000" fill-rule="nonzero" opacity="0.1"></path>
                <path d="M148,33.996092 C148,39.5210978 143.522847,44 138,44 C132.477153,44 128,39.5210978 128,33.996092 C128,33.8680993 128,33.7401066 128,33.612114 C128.213267,28.1691897 132.740306,23.8973206 138.184279,24.001879 C143.628252,24.1064375 147.98805,28.5489896 147.992323,33.996092 L148,33.996092 Z" id="Path" fill="#FDC2CC" fill-rule="nonzero"></path>
                <path d="M156,105.26868 C155.147605,106.407454 153.878677,107.165711 152.468443,107.378984 L144.723443,110.077032 L144.705633,110.077032 L142.357198,110.895314 L141.372535,108.483537 L140.166514,105.524551 L140.166514,110.895314 C140.166514,110.895314 125.368577,111.908665 120,107.629788 L120.615733,103.343312 C120.615733,103.343312 154.829599,102.167824 155.671779,102.000621 C155.88296,101.967687 155.989823,103.247043 156,105.26868 Z" id="Path" fill="#000000" fill-rule="nonzero" opacity="0.1"></path>
                <path d="M148,45.071981 L146.886208,56.7620469 C146.886208,56.7620469 129.23597,60.829269 131.144299,54.2193937 C132.046854,51.0909581 132.104464,47.7323024 131.895628,45.064307 C132.200481,45.7447354 134.444867,50.5588938 137.346966,51.3953602 L137.346966,51.3953602 C137.708175,51.5031637 138.08456,51.5412807 138.458358,51.5079123 C139.075552,51.4299542 139.664264,51.1871049 140.169852,50.8019039 C142.781502,48.952469 144.970679,44.0845925 145.450761,43 C146.569354,44.6908389 148,45.071981 148,45.071981 Z" id="Path" fill="#000000" fill-rule="nonzero" opacity="0.1"></path>
                <path d="M181.359158,79.8567086 C174.054169,83.7200846 164.368904,91.7713196 164.368904,91.7713196 C164.368904,91.7713196 157.233202,89.2515061 159.103053,85.8951349 C160.972905,82.5387636 171.158337,75.9882625 171.158337,75.9882625 C171.158337,75.9882625 171.671327,73.9729187 169.460337,72.7966678 C167.249347,71.6204168 164.022635,68.7659802 164.022635,68.7659802 C164.022635,68.7659802 156.376508,85.053507 157.90522,95.9693188 C159.433933,106.885131 152.808657,107.376925 152.808657,107.376925 L145.000937,110.076725 L144.982983,110.076725 L142.61553,110.895538 L141.622893,108.482195 L140.407105,105.521288 L140.407105,110.895538 C140.407105,110.895538 123.075712,112.071789 119,106.530227 C119,106.530227 122.737138,91.7535745 121.718851,86.0447013 C120.700564,80.335828 119.510426,51.6216154 119.510426,51.6216154 L132.507047,45.1573051 C132.507047,45.1573051 135.048916,50.6405612 138.383356,51.5354246 L138.383356,51.5354246 C138.769324,51.6422597 139.17151,51.6800343 139.57093,51.6469656 C140.230431,51.5697078 140.859497,51.3290399 141.399742,50.9472991 C144.54694,48.8812548 147.132414,43 147.132414,43 C147.132414,43 152.993333,46.5743833 158.72344,47.6771186 C160.394018,47.9883631 161.926161,48.803055 163.109511,50.0093403 C163.73023,50.6507013 164.458677,51.3883932 165.228163,52.1514353 C167.436589,54.3340907 182.728843,68.9434318 182.728843,68.9434318 C182.728843,68.9434318 188.656452,75.9933326 181.359158,79.8567086 Z" id="Path" fill="#D39999" fill-rule="nonzero"></path>
                <path d="M164,88.6849536 L161.737597,90.7594857 L161.071878,91.3721597 C161.071878,91.3721597 155.044003,96.1474128 153.491526,95.9964968 C151.939049,95.8455808 149.356789,86.7455702 152.451341,87.3424768 C154.334076,87.7051257 156.536669,87.1329964 157.972125,86.6261888 L157.972125,86.6261888 C158.498889,86.4435358 159.012918,86.2344518 159.5116,86 L164,88.6849536 Z" id="Path" fill="#FDC2CC" fill-rule="nonzero"></path>
                <path d="M147.99744,33.7190034 C148.001341,36.0165324 147.164777,38.2405357 145.637271,39.9935083 C145.104867,40.043391 144.587725,39.803 144.293357,39.3687956 C144.011775,38.8884388 144.129528,38.2861262 143.94266,37.7684359 C143.755792,37.2507457 143.330859,36.8948337 143.062076,36.4343881 C142.38116,35.2745629 142.667861,33.5174028 141.421221,32.895179 C140.847818,32.611445 140.154102,32.706023 139.514143,32.8105566 C138.257264,33.0121571 136.992704,33.4128692 135.753744,33.5796252 C134.340714,33.7737591 133.068476,32.8802457 131.673365,32.8603345 C130.429285,32.8404233 129.180084,33.5497585 128,33.3456691 C128.213349,28.053621 132.742126,23.9001668 138.188189,24.0018269 C143.634253,24.103487 147.995725,28.422893 148,33.7190034 L147.99744,33.7190034 Z" id="Path" fill="#000000" fill-rule="nonzero" opacity="0.1"></path>
                <path d="M139.376167,31.5961442 C140.002866,31.490995 140.682207,31.3909751 141.243729,31.6859058 C142.464538,32.3244948 142.183777,34.1351128 142.850584,35.3302233 C143.113797,35.804677 143.539952,36.1919338 143.715428,36.7048568 C143.890903,37.2177797 143.783111,37.8589334 144.058858,38.353904 C144.457439,39.0694315 145.537867,39.1745807 146.247289,38.7488547 C146.956712,38.3231286 147.352786,37.5409211 147.621012,36.7664075 C147.856651,36.08422 148.054688,35.3302233 148.62373,34.8839803 C148.830556,34.7634802 149.016133,34.6083 149.172718,34.4249143 C149.290301,34.1820114 149.335625,33.909147 149.303071,33.6401422 C149.303071,31.9064626 149.039858,30.5626045 149.423397,28.8827819 C150.037562,26.1745487 150.599084,22.7841281 148.653812,20.7760348 C147.657985,19.7606867 146.376376,19.0898553 144.988879,18.857703 C143.735482,18.6474046 141.890482,20.4375056 140.622044,20.3964718 C137.3958,20.2656764 134.673422,17.2086557 131.597586,18.1960324 C130.252721,18.6282519 129.086763,19.5061983 128.283605,20.6914025 C126.779528,22.9585219 126.914895,25.8873119 127.132986,28.5929804 C127.129713,28.7984094 127.188355,28.9998861 127.300942,29.1700187 C127.413747,29.3085079 127.596743,29.3828817 127.707042,29.5239356 C127.825716,29.710278 127.870536,29.9358776 127.832382,30.1548308 C127.798823,30.5955512 127.698173,31.028203 127.534073,31.4371381 C127.450265,31.5756664 127.433615,31.7460051 127.488951,31.8987688 C127.550639,31.984432 127.639084,32.0459616 127.73963,32.0731626 C128.993027,32.5347932 130.346696,31.6448719 131.687831,31.6679535 C133.028965,31.691035 134.302417,32.6091671 135.686167,32.4091271 C136.906976,32.216781 138.145332,31.803878 139.376167,31.5961442 Z" id="Path" fill="#865A61" fill-rule="nonzero"></path>
                <path d="M146,110.098278 L145.980128,110.098278 L143.263307,111 L142.258339,108.505066 L138,97.9123607 L138.66714,51.5876393 L138.66714,51.5876393 C139.094329,51.6943861 139.539468,51.7321295 139.981547,51.6990881 C140.711484,51.6218942 141.407734,51.3814253 142.005678,51 L142.005678,51 L141.199432,96.5927052 L146,110.098278 Z" id="Path" fill="#000000" fill-rule="nonzero" opacity="0.05"></path>
                <circle id="Oval" fill="#FFFFFF" fill-rule="nonzero" cx="140.5" cy="52.5" r="1"></circle>
                <circle id="Oval" fill="#FFFFFF" fill-rule="nonzero" cx="139.5" cy="71.5" r="1"></circle>
                <circle id="Oval" fill="#FFFFFF" fill-rule="nonzero" cx="138.5" cy="88.5" r="1"></circle>
                <circle id="Oval" fill="#FFFFFF" fill-rule="nonzero" cx="139.5" cy="96.5" r="1"></circle>
                <polygon id="Path" fill="#000000" fill-rule="nonzero" opacity="0.05" points="156 72 146 72 146 61.4813896 151 60 156 61.4813896"></polygon>
                <circle id="Oval" fill="#FFFFFF" fill-rule="nonzero" cx="139.5" cy="60.5" r="1"></circle>
                <circle id="Oval" fill="#FFFFFF" fill-rule="nonzero" cx="151.5" cy="61.5" r="1"></circle>
                <circle id="Oval" fill="#FFFFFF" fill-rule="nonzero" cx="138.5" cy="79.5" r="1"></circle>
                <path d="M122.624438,51 C122.624438,51 118.328703,51.6624871 116.94851,60.107323 C115.568317,68.5521589 114.188124,80.3094304 114.188124,80.3094304 C114.188124,80.3094304 111.886258,91.239218 123.386324,88.5842696 L124,84.7743436 C124,84.7743436 122.84212,89.1617584 123.157063,80.3869289 C123.472007,71.6120994 123.541479,65.8872107 123.541479,65.8872107 L122.624438,51 Z" id="Path" fill="#D39999" fill-rule="nonzero"></path>
                <path d="M122.624438,51 C122.624438,51 118.328703,51.6624871 116.94851,60.107323 C115.568317,68.5521589 114.188124,80.3094304 114.188124,80.3094304 C114.188124,80.3094304 111.886258,91.239218 123.386324,88.5842696 L124,84.7743436 C124,84.7743436 122.235391,88.9967616 122.543387,80.2194321 C122.851383,71.4421027 123.541479,65.8947105 123.541479,65.8947105 L122.624438,51 Z" id="Path" fill="#000000" fill-rule="nonzero" opacity="0.05"></path>
                <path d="M164,88.384761 L161.775884,91 C158.613549,89.5802177 158,85.8575485 158,85.8575485 L158.081807,85.789399 L158.081807,85.789399 C158.599656,85.5591391 159.104986,85.2955594 159.595228,85 L164,88.384761 Z" id="Path" fill="#000000" fill-rule="nonzero" opacity="0.1"></path>
                <path d="M161.658602,84 L159,85.8891753 C159,85.8891753 159.879032,90.4871134 164.862903,91 L167,87.4149485 L161.658602,84 Z" id="Path" fill="#D39999" fill-rule="nonzero"></path>
                <polygon id="Path" fill="#F2F5FB" fill-rule="nonzero" points="89 60.1015867 109.957909 41 119.549875 52.4057997 136.010379 51.5376619 141 62.0829838 125.329041 83 117.988276 71.6044136 100.528349 73.131315"></polygon>
                <polygon id="Path" fill="#DDE0ED" fill-rule="nonzero" points="140 62.4509674 134.3142 69.6942358 128.247115 77.4251047 125.444147 81 118.959707 71.1065089 112.158388 71.6926401 101.085635 72.6451034 92.8364592 63.6990227 90 60.6243601 101.508141 50.5590719 110.15406 43 114.608409 48.0831727 119.374485 53.5225716 124.135408 53.282561 135.203009 52.721694 139.523392 61.4833455"></polygon>
                <polygon id="Path" fill="#ABB1D1" fill-rule="nonzero" points="105 55.2291867 93.7858305 64 91 60.958085 102.302729 51"></polygon>
                <polygon id="Path" fill="#ABB1D1" fill-rule="nonzero" points="117.680233 60.2752525 116.810631 54.7222222 111 47.8106061 115.096346 47 119.70598 52.4368687 124.310631 52.1969697 126 58.8106061 117.79485 61"></polygon>
                <polygon id="Path" fill="#ABB1D1" fill-rule="nonzero" points="140 62.0606154 134.076051 70 131 65.2147692 139.50343 61"></polygon>
                <polygon id="Path" fill="#ABB1D1" fill-rule="nonzero" points="128 77.3587236 125.249256 81 118.885634 70.9227998 112.211035 71.5198147 111 62.9994853 117.23721 61 117.985574 66.8208955 122.205235 67.4873906"></polygon>
                <path d="M116.873293,61.9976408 C116.816208,62.0064931 116.757521,61.9900419 116.720719,61.9548709 C115.988934,61.2550798 115.09337,60.6701041 114.081661,60.2310583 C114.005296,60.198194 113.977546,60.1232642 114.019678,60.0636978 C114.06181,60.0041314 114.157871,59.982485 114.234235,60.0153492 C115.280664,60.4696167 116.206961,61.0747797 116.963884,61.7986678 C116.999486,61.8322329 117.00961,61.8780037 116.990484,61.9189337 C116.971359,61.9598636 116.925851,61.989818 116.870909,61.9976408 L116.873293,61.9976408 Z" id="Path" fill="#D7666F" fill-rule="nonzero"></path>
                <path d="M115.15997,63.995648 C115.107618,64.0128121 115.053917,63.9783072 115.023566,63.9080042 C114.993215,63.8377012 114.992092,63.7452125 115.020713,63.6730796 L116.752344,59.1022863 C116.790799,59.0016318 116.873026,58.9698597 116.936002,59.0313213 C116.998979,59.0927829 117.018858,59.224204 116.980403,59.3248585 L115.248771,63.8956518 C115.229406,63.9476369 115.197116,63.9839974 115.15997,63.995648 L115.15997,63.995648 Z" id="Path" fill="#D7666F" fill-rule="nonzero"></path>
                <polygon id="Path" fill="#FFFFFF" fill-rule="nonzero" opacity="0.1" points="102 72 120.202903 52.7671584 136 52 119.871334 70.5965362"></polygon>
                <path d="M117,81.9714959 C117,81.9714959 120.664352,72.0439877 122.423507,73.0750998 C124.182661,74.1062119 129.311869,80.2953279 125.795773,83.0026081 C122.279676,85.7098882 119.785881,87 119.785881,87 L117,86.6139438 L117,81.9714959 Z" id="Path" fill="#FDC2CC" fill-rule="nonzero"></path>
                <path d="M115,81.4760713 C115,81.4760713 118.872178,78.4665809 122,87.5808931 L119.050619,88 L115.672979,85.9928315 L115,81.4760713 Z" id="Path" fill="#D39999" fill-rule="nonzero"></path>
                <path d="M115,81.4760713 C115,81.4760713 118.872178,78.4665809 122,87.5808931 L119.050619,88 L115.672979,85.9928315 L115,81.4760713 Z" id="Path" fill="#000000" fill-rule="nonzero" opacity="0.05"></path>
            </g>
        </g>
    </g>
</svg>