<?xml version="1.0" encoding="UTF-8"?>
<svg width="311px" height="229px" viewBox="0 0 311 229" version="1.1" xmlns="http://www.w3.org/2000/svg" xmlns:xlink="http://www.w3.org/1999/xlink">
    <!-- Generator: Sketch 54.1 (76490) - https://sketchapp.com -->
    <title>undraw_adjustments_p22m copy</title>
    <desc>Created with Sketch.</desc>
    <g id="Page-1" stroke="none" stroke-width="1" fill="none" fill-rule="evenodd">
        <g id="Modal-with-fields-Copy" transform="translate(-495.000000, -156.000000)">
            <g id="undraw_adjustments_p22m-copy" transform="translate(495.000000, 156.000000)">
                <ellipse id="Oval" fill="#F2F2F2" fill-rule="nonzero" cx="124.37426" cy="218.514547" rx="51.560641" ry="9.59450859"></ellipse>
                <rect id="Rectangle" fill="#F2F2F2" fill-rule="nonzero" x="19.9406592" y="26.6630784" width="274.939392" height="148.044288"></rect>
                <rect id="Rectangle" fill="#3F3D56" fill-rule="nonzero" x="268.896768" y="142.802722" width="25.9832832" height="31.9046438"></rect>
                <path d="M291.168155,160.443752 C291.168155,166.64004 287.484571,168.803553 282.940614,168.803553 C278.396658,168.803553 274.713077,166.64004 274.713077,160.443752 C274.713077,154.247464 282.940614,146.36481 282.940614,146.36481 C282.940614,146.36481 291.168155,154.247464 291.168155,160.443752 Z" id="Path" fill="#196ECF" fill-rule="nonzero"></path>
                <polygon id="Path" fill="#3F3D56" fill-rule="nonzero" points="282.641018 167.855635 282.725011 162.669855 286.231847 156.254401 282.738304 161.856518 282.776373 159.524669 285.19312 154.88333 282.786343 158.907717 282.786343 158.907717 282.854323 154.714136 285.442379 151.018769 282.865199 154.054584 282.9078 146.36474 282.640112 156.544749 282.662167 156.124787 280.030907 152.097076 282.619869 156.930873 282.37484 161.614511 282.367589 161.490335 279.334192 157.251736 282.358223 161.929331 282.327708 162.515164 282.32227 162.523926 282.324687 162.571964 281.702599 174.454784 282.533761 174.454784 282.633465 168.316989 285.650245 163.650875"></polygon>
                <path d="M40.1834495,13.2937728 C36.5124756,13.2937728 33.5365632,10.3178604 33.5365632,6.64688639 C33.5365632,2.9759124 36.5124756,1.42108547e-14 40.1834495,1.42108547e-14 C43.8544235,1.42108547e-14 46.8303359,2.9759124 46.8303359,6.64688639 C46.8261917,10.3161424 43.8527056,13.2896285 40.1834495,13.2937728 L40.1834495,13.2937728 Z M40.1834495,0.604262399 C36.8462005,0.604262399 34.1408256,3.30963731 34.1408256,6.64688639 C34.1408256,9.98413547 36.8462005,12.6895104 40.1834495,12.6895104 C43.5206986,12.6895104 46.2260735,9.98413547 46.2260735,6.64688639 C46.2222574,3.31121928 43.5191167,0.608078518 40.1834495,0.604262399 Z" id="Shape" fill="#3F3D56" fill-rule="nonzero"></path>
                <circle id="Oval" fill="#3F3D56" fill-rule="nonzero" cx="3.92770559" cy="38.9749247" r="3.92770559"></circle>
                <circle id="Oval" fill="#3F3D56" fill-rule="nonzero" cx="306.361036" cy="67.6773887" r="3.92770559"></circle>
                <rect id="Rectangle" fill="#3F3D56" fill-rule="nonzero" x="57.2538623" y="56.8761983" width="200.615117" height="1.8127872"></rect>
                <rect id="Rectangle" fill="#3F3D56" fill-rule="nonzero" x="57.2538623" y="73.1912831" width="200.615117" height="1.8127872"></rect>
                <rect id="Rectangle" fill="#3F3D56" fill-rule="nonzero" x="57.2538623" y="89.5063679" width="200.615117" height="1.8127872"></rect>
                <rect id="Rectangle" fill="#196ECF" fill-rule="nonzero" x="91.3946879" y="50.2293119" width="4.83409919" height="15.10656"></rect>
                <rect id="Rectangle" fill="#196ECF" fill-rule="nonzero" x="146.382566" y="66.5443967" width="4.83409919" height="15.10656"></rect>
                <rect id="Rectangle" fill="#196ECF" fill-rule="nonzero" x="240.6475" y="82.8594815" width="4.83409919" height="15.10656"></rect>
                <rect id="Rectangle" fill="#3F3D56" fill-rule="nonzero" x="57.2538623" y="126.970637" width="71.3029631" height="1.8127872"></rect>
                <rect id="Rectangle" fill="#3F3D56" fill-rule="nonzero" x="57.2538623" y="133.617523" width="35.6514816" height="1.8127872"></rect>
                <polygon id="Path" fill="#3F3D56" fill-rule="nonzero" points="68.1305855 151.141133 56.9517311 151.141133 56.9517311 139.962278 67.8284543 139.962278 67.8284543 140.566541 57.5559935 140.566541 57.5559935 150.53687 67.5263231 150.53687 67.5263231 144.85348 68.1305855 144.85348"></polygon>
                <rect id="Rectangle" fill="#3F3D56" fill-rule="nonzero" x="186.566016" y="126.970637" width="71.3029631" height="1.8127872"></rect>
                <rect id="Rectangle" fill="#3F3D56" fill-rule="nonzero" x="186.566016" y="133.617523" width="22.9619712" height="1.8127872"></rect>
                <rect id="Rectangle" fill="#3F3D56" fill-rule="nonzero" x="234.907008" y="133.617523" width="22.9619712" height="1.8127872"></rect>
                <path d="M197.442739,151.141133 L186.263885,151.141133 L186.263885,139.962278 L197.442739,139.962278 L197.442739,151.141133 Z M186.868147,150.53687 L196.838477,150.53687 L196.838477,140.566541 L186.868147,140.566541 L186.868147,150.53687 Z" id="Shape" fill="#3F3D56" fill-rule="nonzero"></path>
                <polygon id="Path" fill="#575A89" fill-rule="nonzero" points="114.212845 100.693682 106.280088 100.693682 106.280088 96.8082747 112.917608 96.8082747 114.374787 97.6176842"></polygon>
                <polygon id="Path" fill="#FFB9B9" fill-rule="nonzero" points="100.451977 207.705834 100.775559 213.534247 105.632621 212.562895 104.822909 206.734482"></polygon>
                <path d="M123.440871,204.629951 C123.440871,204.629951 123.602768,209.486782 123.117083,210.781946 C122.631398,212.07711 124.412238,212.72468 124.412238,212.72468 L128.297703,212.72468 L130.564224,213.048468 L130.564224,210.62004 C130.564224,210.62004 127.973915,206.572691 127.973915,204.306163 C127.973915,202.039635 123.440871,204.629951 123.440871,204.629951 Z" id="Path" fill="#FFB9B9" fill-rule="nonzero"></path>
                <path d="M101.261347,212.562774 C101.261347,212.562774 104.499236,211.033063 105.632494,211.959814 C106.765752,212.886565 110.975007,220.819385 109.356064,221.305061 C109.356064,221.305061 108.222804,223.247795 104.337339,221.95264 C100.451874,220.657485 100.451877,219.200436 100.451877,219.200436 C100.451877,219.200436 99.3186164,218.229069 99.3186164,217.905281 C99.3186164,217.581493 99.8042983,214.667393 99.8042983,214.667393 C99.8042983,214.667393 100.163532,212.229291 100.712435,212.396028 L101.261347,212.562774 Z" id="Path" fill="#2F2E41" fill-rule="nonzero"></path>
                <path d="M123.764662,210.134364 C123.764662,210.134364 123.278977,209.648682 122.955189,210.134364 C122.631401,210.620046 120.850561,216.772033 122.469507,217.095821 C124.088453,217.419609 126.516857,218.552869 126.840654,218.229081 C127.111219,217.88533 127.32944,217.503443 127.48823,217.095821 C127.48823,217.095821 130.078539,218.229081 130.888012,219.200448 C131.697485,220.171815 141.411145,222.276446 141.087357,219.200448 C140.763569,216.124451 135.906741,213.534144 135.906741,213.534144 L130.564227,209.97247 C130.564227,209.97247 128.4596,210.134364 127.973918,211.105731 C127.488236,212.077098 124.08845,211.915195 123.764662,210.134364 Z" id="Path" fill="#2F2E41" fill-rule="nonzero"></path>
                <path d="M76.3296196,147.481248 C76.3296196,147.481248 74.5487828,149.74777 74.8725707,149.909664 C75.1963587,150.071558 82.319709,151.690501 86.2051736,150.719137 C90.0906383,149.747773 98.1853555,149.909664 98.6710374,148.776403 C99.1567194,147.643142 105.146812,133.558336 105.146812,133.558336 L103.20409,122.873309 L101.099462,120.121105 L96.2426307,115.911852 L86.5289707,134.044017 L76.3296196,147.481248 Z" id="Path" fill="#575A89" fill-rule="nonzero"></path>
                <path d="M76.3296196,147.481248 C76.3296196,147.481248 74.5487828,149.74777 74.8725707,149.909664 C75.1963587,150.071558 82.319709,151.690501 86.2051736,150.719137 C90.0906383,149.747773 98.1853555,149.909664 98.6710374,148.776403 C99.1567194,147.643142 105.146812,133.558336 105.146812,133.558336 L103.20409,122.873309 L101.099462,120.121105 L96.2426307,115.911852 L86.5289707,134.044017 L76.3296196,147.481248 Z" id="Path" fill="#000000" fill-rule="nonzero" opacity="0.1"></path>
                <path d="M96.8902006,143.595784 C96.8902006,143.595784 94.6236788,151.690501 96.8902006,162.86121 C99.1567224,174.031919 97.0520946,176.460334 97.5377765,176.946019 C98.0234585,177.431704 98.1853555,177.269807 98.1853555,177.755489 C98.1853555,178.241171 98.6710374,180.507693 98.1853555,181.317166 C97.6996735,182.126639 97.6996735,207.867836 99.1567224,208.515415 C100.613771,209.162994 104.823024,210.781934 105.632494,208.515415 C106.441964,206.248897 105.794388,189.897565 106.118179,189.088095 C106.44197,188.278625 106.441967,186.335891 106.441967,185.850207 C106.441967,185.364522 107.413334,179.860117 107.575228,178.403068 C107.737122,176.946019 108.222791,174.031922 108.222791,174.031922 C108.222791,174.031922 107.899003,162.537422 108.87037,159.137642 C109.841737,155.737862 110.165525,155.414071 110.165525,155.414071 L117.936452,175.650865 C117.936452,175.650865 117.288876,177.755489 117.936452,178.403068 C118.584027,179.050647 117.774558,178.88875 118.422136,180.022011 C119.069715,181.155272 119.717291,181.47906 119.717291,182.126639 C119.717291,182.774218 119.069712,182.774215 119.3935,183.259897 C119.717288,183.745579 120.202973,185.526419 120.202973,185.526419 L119.3935,187.469149 C119.3935,187.469149 119.879185,191.516499 120.526761,193.944924 C121.174337,196.373349 121.17434,206.248894 121.98381,206.410788 C122.79328,206.572682 129.107157,208.353521 129.107157,204.629951 C129.107157,200.90638 128.621472,184.716946 128.621472,184.716946 C128.621472,184.716946 127.650121,182.288533 127.650121,181.640948 C127.650121,180.993363 127.488227,180.669581 127.812018,180.345793 C128.135809,180.022005 128.459594,179.374441 127.973912,178.888744 C127.48823,178.403047 127.650121,177.755483 127.650121,177.107907 C127.622126,176.236347 127.513737,175.369232 127.326333,174.517598 C127.164439,173.870019 124.088447,153.633229 124.088447,153.633229 C124.088447,153.633229 124.736023,151.204813 124.088447,151.042919 C123.440871,150.881025 123.440868,149.58587 123.440868,148.938291 C123.440868,148.290712 125.059814,140.195998 123.11708,140.195998 C121.174346,140.195998 96.8902006,143.595784 96.8902006,143.595784 Z" id="Path" fill="#2F2E41" fill-rule="nonzero"></path>
                <path d="M75.5201466,133.882123 L73.2536279,135.015384 C73.2536279,135.015384 65.1589107,139.386531 68.7205843,141.814947 C72.2822579,144.243363 75.8439316,138.415167 75.8439316,138.415167 L79.2437113,135.824857 L75.5201466,133.882123 Z" id="Path" fill="#FFB9B9" fill-rule="nonzero"></path>
                <path d="M107.089543,89.5230757 C107.089543,89.5230757 106.441967,96.970214 103.042193,98.5891569 C99.6424195,100.2081 101.908935,112.350176 101.908935,112.350176 L106.60387,116.883219 L114.860481,114.454803 L115.831848,108.950396 L116.641318,103.284094 L114.698587,100.369997 C114.698587,100.369997 112.270171,99.7224178 113.241538,93.2466494 C114.212905,86.7708811 107.089543,89.5230757 107.089543,89.5230757 Z" id="Path" fill="#FFB9B9" fill-rule="nonzero"></path>
                <path d="M102.232714,101.179467 C102.232714,101.179467 105.956285,113.483436 108.546591,113.483436 C111.136898,113.483436 112.593941,110.569339 112.917741,107.007665 C113.241541,103.445991 115.346154,99.5605238 115.346154,99.5605238 L120.364879,104.093564 C120.364879,104.093564 124.412229,139.872216 124.08845,140.843595 C123.764671,141.814974 111.136901,142.948223 106.118179,144.405272 C101.099456,145.86232 96.0807428,144.729044 96.0807428,143.919575 C96.0807428,143.198638 98.6490785,136.955786 96.6947368,132.396393 C95.9809308,130.772178 95.4982195,129.055959 95.2606802,127.297787 C94.9582076,124.897539 94.6773071,121.993055 94.9474849,121.092472 C95.4331669,119.473529 98.0234827,102.312728 98.0234827,102.312728 L102.232714,101.179467 Z" id="Path" fill="#196ECF" fill-rule="nonzero"></path>
                <path d="M104.973845,96.7124991 C104.973845,96.7124991 102.07082,98.2653598 100.775665,98.9129388 C99.4805104,99.5605177 91.547672,101.503249 91.3857931,102.474612 C91.2239143,103.445976 92.519054,117.045104 91.8714751,118.502153 C91.2238961,119.959202 84.7481278,132.910751 84.7481278,132.910751 L84.4243398,135.662954 C84.4243398,135.662954 73.7393128,148.452606 75.0344677,149.909649 C76.3296226,151.366692 81.1864632,145.376608 81.1864632,145.376608 C81.1864632,145.376608 92.0333842,128.053916 92.3571752,127.406334 C92.6809661,126.758752 99.3186315,114.778576 100.289995,114.454788 C101.261359,114.131 103.527884,100.531876 103.851672,99.8842966 C104.17546,99.2367177 105.448457,96.4548054 104.973845,96.7124991 Z" id="Path" fill="#575A89" fill-rule="nonzero"></path>
                <path d="M92.1952661,102.312728 L91.2239143,102.312728 C91.2239143,102.312728 87.6622376,115.911852 86.6908737,117.692689 C85.7195098,119.473526 85.5576128,122.387627 85.3957188,122.873309 C85.2338248,123.35899 84.5862459,123.197097 84.424367,124.330357 C84.2624881,125.463618 82.6435302,126.920667 81.3483693,127.568246 C80.0532084,128.215825 74.225022,133.720242 74.3869129,133.882123 C74.5488039,134.044005 76.3296437,139.710319 77.4629107,139.710319 C78.5961776,139.710319 83.1292121,134.205911 83.6149062,134.205911 C84.1006002,134.205911 86.2052159,132.263181 86.5290039,132.101287 C86.8527919,131.939393 95.1094061,116.721325 94.7856151,112.997754 C94.4618241,109.274184 92.1952661,102.312728 92.1952661,102.312728 Z" id="Path" fill="#575A89" fill-rule="nonzero"></path>
                <path d="M132.590041,144.255155 L134.584165,145.818759 C134.584165,145.818759 141.641288,151.720318 137.665939,153.387448 C133.69059,155.054578 131.366319,148.631879 131.366319,148.631879 L128.5532,145.414045 L132.590041,144.255155 Z" id="Path" fill="#FFB9B9" fill-rule="nonzero"></path>
                <path d="M113.043651,96.9043947 C113.043651,96.9043947 115.184251,97.9415809 116.155627,98.7510539 C117.127003,99.5605268 124.574132,101.665152 124.574132,102.312728 C124.574132,102.960303 123.764662,112.997754 123.764662,112.997754 L124.89792,130.806132 C124.89792,130.806132 126.516866,150.881031 126.840654,151.366713 C127.164442,151.852395 127.650124,154.442711 126.840654,154.442711 C126.031184,154.442711 121.983822,149.90967 122.145716,147.643148 C122.30761,145.376626 123.440871,140.19601 122.307613,138.900855 C121.174355,137.6057 115.831839,115.911858 115.831839,114.616703 C115.831839,113.321548 113.565317,100.370009 113.727211,100.046212 C113.889105,99.7224147 113.043651,96.9043947 113.043651,96.9043947 Z" id="Path" fill="#575A89" fill-rule="nonzero"></path>
                <path d="M122.145716,102.150834 L124.574132,102.312728 L130.564224,126.758767 C130.564224,126.758767 131.049906,129.834765 131.2118,130.15855 C131.373694,130.482335 133.80211,144.567144 132.830743,145.052826 C131.859376,145.538508 128.621491,147.319348 128.459597,146.186087 C128.297703,145.052826 126.67876,138.738949 125.059817,137.2819 C123.440874,135.824851 121.821928,110.731215 121.821928,110.731215 L122.145716,102.150834 Z" id="Path" fill="#575A89" fill-rule="nonzero"></path>
                <circle id="Oval" fill="#FFB9B9" fill-rule="nonzero" cx="112.432056" cy="87.2565539" r="6.63766837"></circle>
                <path d="M107.799886,87.7413174 C108.222232,87.5243721 108.777973,87.7285705 109.167806,88.2007653 C109.585983,86.1994433 110.924342,84.5129562 112.778342,83.6510726 C114.632343,82.789189 116.784403,82.8530579 118.584027,83.8233737 L118.584027,83.1486301 C118.584027,80.0526641 116.074251,77.5428878 112.978285,77.5428878 L111.63088,77.5428878 C108.837771,77.542883 106.159059,78.6524378 104.184031,80.6274622 C102.209003,82.6024866 101.099444,85.2811966 101.099444,88.0743053 L101.099444,89.953936 C101.09913,93.5109531 103.097871,96.7663014 106.270117,98.3754081 L112.332078,95.1661373 C110.551862,94.1630471 109.349138,92.378962 109.086995,90.3524772 C108.574001,90.5764652 107.887018,90.2139531 107.529633,89.5182024 C107.161915,88.8024173 107.28294,88.0068907 107.799886,87.7413174 Z" id="Path" fill="#2F2E41" fill-rule="nonzero"></path>
                <polyline id="Path" stroke="#57B894" stroke-width="4" points="59.0917264 143.564891 62.3900927 147.28896 69.6001517 140.221507"></polyline>
            </g>
        </g>
    </g>
</svg>