<?xml version="1.0" encoding="UTF-8"?>
<svg width="16px" height="16px" viewBox="0 0 16 16" version="1.1" xmlns="http://www.w3.org/2000/svg" xmlns:xlink="http://www.w3.org/1999/xlink">
    <!-- Generator: Sketch 53.2 (72643) - https://sketchapp.com -->
    <title>Unlink-ffffff</title>
    <desc>Created with Sketch.</desc>
    <g id="SVG-Party" stroke="none" stroke-width="1" fill="none" fill-rule="evenodd">
        <g id="Artboard" transform="translate(-83.000000, -50.000000)" fill="#FFFFFF" fill-rule="nonzero">
            <g id="Unlink-ffffff" transform="translate(83.000000, 50.000000)">
                <path d="M4.22115385,12.2211538 L1.75961538,14.6826923 C1.69230769,14.7403846 1.61538462,14.7692308 1.53846154,14.7692308 C1.46153846,14.7692308 1.38461538,14.7403846 1.31730769,14.6826923 C1.20192308,14.5576923 1.20192308,14.3653846 1.31730769,14.2403846 L3.77884615,11.7788462 C3.90384615,11.6634615 4.09615385,11.6634615 4.22115385,11.7788462 C4.33653846,11.9038462 4.33653846,12.0961538 4.22115385,12.2211538 Z M5.84615385,12.6153846 L5.84615385,15.6923077 C5.84615385,15.8653846 5.71153846,16 5.53846154,16 C5.36538462,16 5.23076923,15.8653846 5.23076923,15.6923077 L5.23076923,12.6153846 C5.23076923,12.4423077 5.36538462,12.3076923 5.53846154,12.3076923 C5.71153846,12.3076923 5.84615385,12.4423077 5.84615385,12.6153846 Z M3.69230769,10.4615385 C3.69230769,10.6346154 3.55769231,10.7692308 3.38461538,10.7692308 L0.307692308,10.7692308 C0.134615385,10.7692308 0,10.6346154 0,10.4615385 C0,10.2884615 0.134615385,10.1538462 0.307692308,10.1538462 L3.38461538,10.1538462 C3.55769231,10.1538462 3.69230769,10.2884615 3.69230769,10.4615385 Z M15.8461538,11.6923077 C15.8461538,12.4326923 15.5576923,13.125 15.0288462,13.6442308 L13.6153846,15.0480769 C13.0961538,15.5673077 12.4038462,15.8461538 11.6634615,15.8461538 C10.9230769,15.8461538 10.2211538,15.5576923 9.70192308,15.0288462 L6.49038462,11.8076923 C6.32692308,11.6442308 6.20192308,11.4615385 6.08653846,11.2692308 L8.38461538,11.0961538 L11.0096154,13.7307692 C11.3557692,14.0769231 11.9711538,14.0865385 12.3173077,13.7403846 L13.7307692,12.3365385 C13.9038462,12.1634615 14,11.9326923 14,11.6923077 C14,11.4423077 13.9038462,11.2115385 13.7307692,11.0384615 L11.0961538,8.39423077 L11.2692308,6.09615385 C11.4615385,6.21153846 11.6442308,6.33653846 11.8076923,6.5 L15.0384615,9.73076923 C15.5576923,10.2596154 15.8461538,10.9519231 15.8461538,11.6923077 Z M9.91346154,4.73076923 L7.61538462,4.90384615 L4.99038462,2.26923077 C4.81730769,2.09615385 4.58653846,2 4.33653846,2 C4.08653846,2 3.85576923,2.09615385 3.68269231,2.25961538 L2.26923077,3.66346154 C2.09615385,3.83653846 2,4.06730769 2,4.30769231 C2,4.55769231 2.09615385,4.78846154 2.26923077,4.96153846 L4.90384615,7.59615385 L4.73076923,9.90384615 C4.53846154,9.78846154 4.35576923,9.66346154 4.19230769,9.5 L0.961538462,6.26923077 C0.442307692,5.74038462 0.153846154,5.04807692 0.153846154,4.30769231 C0.153846154,3.56730769 0.442307692,2.875 0.971153846,2.35576923 L2.38461538,0.951923077 C2.90384615,0.432692308 3.59615385,0.153846154 4.33653846,0.153846154 C5.07692308,0.153846154 5.77884615,0.442307692 6.29807692,0.971153846 L9.50961538,4.19230769 C9.67307692,4.35576923 9.79807692,4.53846154 9.91346154,4.73076923 Z M16,5.53846154 C16,5.71153846 15.8653846,5.84615385 15.6923077,5.84615385 L12.6153846,5.84615385 C12.4423077,5.84615385 12.3076923,5.71153846 12.3076923,5.53846154 C12.3076923,5.36538462 12.4423077,5.23076923 12.6153846,5.23076923 L15.6923077,5.23076923 C15.8653846,5.23076923 16,5.36538462 16,5.53846154 Z M10.7692308,0.307692308 L10.7692308,3.38461538 C10.7692308,3.55769231 10.6346154,3.69230769 10.4615385,3.69230769 C10.2884615,3.69230769 10.1538462,3.55769231 10.1538462,3.38461538 L10.1538462,0.307692308 C10.1538462,0.134615385 10.2884615,0 10.4615385,0 C10.6346154,0 10.7692308,0.134615385 10.7692308,0.307692308 Z M14.6826923,1.75961538 L12.2211538,4.22115385 C12.1538462,4.27884615 12.0769231,4.30769231 12,4.30769231 C11.9230769,4.30769231 11.8461538,4.27884615 11.7788462,4.22115385 C11.6634615,4.09615385 11.6634615,3.90384615 11.7788462,3.77884615 L14.2403846,1.31730769 C14.3653846,1.20192308 14.5576923,1.20192308 14.6826923,1.31730769 C14.7980769,1.44230769 14.7980769,1.63461538 14.6826923,1.75961538 Z" id=""></path>
            </g>
        </g>
    </g>
</svg>
