<?xml version="1.0" encoding="UTF-8"?>
<svg width="16px" height="16px" viewBox="0 0 16 16" version="1.1" xmlns="http://www.w3.org/2000/svg" xmlns:xlink="http://www.w3.org/1999/xlink">
  <!-- Generator: Sketch 52.4 (67378) - http://www.bohemiancoding.com/sketch -->
  <title>Icons / Unlock</title>
  <desc>Created with Sketch.</desc>
  <g id="Icons-/-Unlock" stroke="none" stroke-width="1" fill="none" fill-rule="evenodd">
    <path d="M8.0952381,12.1904762 C8.93333333,12.1904762 9.61904762,11.5047619 9.61904762,10.6666667 C9.61904762,9.82857143 8.93333333,9.14285714 8.0952381,9.14285714 C7.25714286,9.14285714 6.57142857,9.82857143 6.57142857,10.6666667 C6.57142857,11.5047619 7.25714286,12.1904762 8.0952381,12.1904762 Z M12.6666667,5.33333333 L11.9047619,5.33333333 L11.9047619,3.80952381 C11.9047619,1.70666667 10.1980952,0 8.0952381,0 C5.99238095,0 4.28571429,1.70666667 4.28571429,3.80952381 L5.73333333,3.80952381 C5.73333333,2.50666667 6.79238095,1.44761905 8.0952381,1.44761905 C9.39809524,1.44761905 10.4571429,2.50666667 10.4571429,3.80952381 L10.4571429,5.33333333 L3.52380952,5.33333333 C2.68571429,5.33333333 2,6.01904762 2,6.85714286 L2,14.4761905 C2,15.3142857 2.68571429,16 3.52380952,16 L12.6666667,16 C13.5047619,16 14.1904762,15.3142857 14.1904762,14.4761905 L14.1904762,6.85714286 C14.1904762,6.01904762 13.5047619,5.33333333 12.6666667,5.33333333 Z M12.6666667,14.4761905 L3.52380952,14.4761905 L3.52380952,6.85714286 L12.6666667,6.85714286 L12.6666667,14.4761905 Z" id="Shape" fill="#000000" fill-rule="nonzero"></path>
  </g>
</svg>
