<?xml version="1.0" encoding="UTF-8"?>
<svg width="16px" height="16px" viewBox="0 0 16 16" version="1.1" xmlns="http://www.w3.org/2000/svg" xmlns:xlink="http://www.w3.org/1999/xlink">
    <!-- Generator: Sketch 52.4 (67378) - http://www.bohemiancoding.com/sketch -->
    <title>Icons / Work Item</title>
    <desc>Created with Sketch.</desc>
    <g id="Icons-/-Work-Item" stroke="none" stroke-width="1" fill="none" fill-rule="evenodd">
        <path d="M5.71428571,3.33333333 L10.2857143,3.33333333 L10.2857143,2.16666667 L5.71428571,2.16666667 L5.71428571,3.33333333 Z M16,9.16666667 L16,13.5416667 C16,14.34375 15.3571429,15 14.5714286,15 L1.42857143,15 C0.642857143,15 0,14.34375 0,13.5416667 L0,9.16666667 L6,9.16666667 L6,10.625 C6,10.9440104 6.25892857,11.2083333 6.57142857,11.2083333 L9.42857143,11.2083333 C9.74107143,11.2083333 10,10.9440104 10,10.625 L10,9.16666667 L16,9.16666667 Z M9.14285714,9.16666667 L9.14285714,10.3333333 L6.85714286,10.3333333 L6.85714286,9.16666667 L9.14285714,9.16666667 Z M16,4.79166667 L16,8.29166667 L0,8.29166667 L0,4.79166667 C0,3.98958333 0.642857143,3.33333333 1.42857143,3.33333333 L4.57142857,3.33333333 L4.57142857,1.875 C4.57142857,1.39192708 4.95535714,1 5.42857143,1 L10.5714286,1 C11.0446429,1 11.4285714,1.39192708 11.4285714,1.875 L11.4285714,3.33333333 L14.5714286,3.33333333 C15.3571429,3.33333333 16,3.98958333 16,4.79166667 Z" id="Shape" fill="#A4A4A4"></path>
    </g>
</svg>