<?xml version="1.0" encoding="UTF-8"?>
<svg width="190px" height="159px" viewBox="0 0 190 159" version="1.1" xmlns="http://www.w3.org/2000/svg" xmlns:xlink="http://www.w3.org/1999/xlink">
    <!-- Generator: sketchtool 56.3 (101010) - https://sketch.com -->
    <title>D6A29E9A-2AB5-48B0-ACF7-B803DE8D81CD</title>
    <desc>Created with sketchtool.</desc>
    <defs>
        <linearGradient x1="50.0009118%" y1="100%" x2="50.0009118%" y2="0%" id="linearGradient-1">
            <stop stop-color="#808080" stop-opacity="0.25" offset="0%"></stop>
            <stop stop-color="#808080" stop-opacity="0.12" offset="54%"></stop>
            <stop stop-color="#808080" stop-opacity="0.1" offset="100%"></stop>
        </linearGradient>
        <linearGradient x1="50.0180181%" y1="99.9954474%" x2="50.0180181%" y2="-0.0100178812%" id="linearGradient-2">
            <stop stop-color="#808080" stop-opacity="0.25" offset="0%"></stop>
            <stop stop-color="#808080" stop-opacity="0.12" offset="54%"></stop>
            <stop stop-color="#808080" stop-opacity="0.1" offset="100%"></stop>
        </linearGradient>
        <linearGradient x1="50.0009317%" y1="100%" x2="50.0009317%" y2="0.00486229502%" id="linearGradient-3">
            <stop stop-color="#808080" stop-opacity="0.25" offset="0%"></stop>
            <stop stop-color="#808080" stop-opacity="0.12" offset="54%"></stop>
            <stop stop-color="#808080" stop-opacity="0.1" offset="100%"></stop>
        </linearGradient>
    </defs>
    <g id="Homepage-(SYS-HOME)" stroke="none" stroke-width="1" fill="none" fill-rule="evenodd">
        <g id="Workbench---No-Items" transform="translate(-275.000000, -232.000000)">
            <g id="undraw_inbox_cleanup_w2ur" transform="translate(275.000000, 232.000000)">
                <path d="M139.004631,0.209276732 C130.091887,-0.219624545 121.025247,-0.147826093 112.418398,1.96644936 C103.811549,4.08072482 95.6264929,8.43208887 90.728379,15.105566 C87.9240282,18.9259994 86.2501577,23.4001766 82.984115,26.9145218 C77.3184146,33.0079431 68.0579773,35.1014348 59.5119275,37.2024842 C39.4425802,42.1150098 19.2611348,49.2136094 4.70359061,62.5114384 C2.61362734,64.4178762 0.576863128,66.5926135 0.103771442,69.2283724 C-0.622015805,73.2812061 2.57372804,77.073298 6.11906574,79.6674894 C9.66440344,82.2616808 13.8595297,84.3192733 16.4833836,87.6843534 C19.8292248,91.9752556 20.0173215,97.6454438 19.0673382,102.799817 C18.1173549,107.95419 16.1622893,112.968745 15.6473983,118.179801 C15.5201005,119.464615 15.4897011,120.804223 16.0501912,121.992677 C16.7930782,123.568464 18.4441492,124.637883 20.0629207,125.537253 C25.8020825,128.740791 31.9948885,131.063913 38.4317979,132.428015 C49.5219031,134.791695 61.0869998,134.347679 72.4412003,135.318847 C83.7954008,136.290016 95.620793,139.00702 103.600653,146.288895 C108.494967,150.753625 112.910489,157.2665 119.889067,157.045436 C123.799198,156.922623 127.253337,154.545717 131.153969,154.281196 C135.544791,153.982666 139.513822,156.359572 143.653849,157.714296 C149.534246,159.641517 156.343726,159.454463 161.857429,156.797921 C167.371132,154.141378 171.374362,148.93788 171.697356,143.345158 C172.012751,137.865803 169.026003,132.739771 167.300833,127.473922 C161.642733,110.221509 169.601693,91.990371 177.515054,75.4616117 C185.428415,58.9328524 193.594471,40.8377532 188.329664,23.4852011 C182.217471,3.35896144 158.541987,1.15021433 139.004631,0.209276732 Z" id="Path" fill="#196ECF" fill-rule="nonzero" opacity="0.1"></path>
                <path d="M45,101 C45,101 38.4137767,97.5057471 36.4622328,92.1411494 C35.6584147,89.8874153 34.1207927,87.9469023 32.080285,86.6110345 C31.1065236,85.9840921 30.0754512,85.444826 29,85" id="Path" stroke="#535461" stroke-width="2"></path>
                <path d="M27.7074931,82.4462659 C28.3300221,83.0703916 29,86 29,86 C29,86 26.0638647,85.3134617 25.4413356,84.6912272 C24.8413938,84.0640539 24.8547503,83.0739933 25.471394,82.4631172 C26.0880377,81.8522412 27.0816483,81.8447533 27.7074931,82.4462659 L27.7074931,82.4462659 Z" id="Path" fill="#196ECF" fill-rule="nonzero"></path>
                <path d="M32.978378,83.3147071 C33.1562963,84.1759338 32.1777454,87 32.1777454,87 C32.1777454,87 30.2206435,84.8327374 30.0427252,83.9715107 C29.9131944,83.4066605 30.0830744,82.8115884 30.4859967,82.4187762 C30.888919,82.025964 31.4609401,81.8977506 31.9785839,82.0842263 C32.4962278,82.270702 32.8773446,82.7422731 32.9730404,83.3147071 L32.978378,83.3147071 Z" id="Path" fill="#196ECF" fill-rule="nonzero"></path>
                <path d="M38.9172172,90.1638035 C38.6543413,91.0240254 36.4654971,93 36.4654971,93 C36.4654971,93 35.7984719,89.9862974 36.0613478,89.1260755 C36.3240587,88.2642389 37.1775371,87.7978856 37.9676451,88.0844463 C38.757753,88.371007 39.1852929,89.3019669 38.922582,90.1638035 L38.9172172,90.1638035 Z" id="Path" fill="#196ECF" fill-rule="nonzero"></path>
                <path d="M41.9886333,94.8099442 C41.8633196,95.689365 40.0086773,98 40.0086773,98 C40.0086773,98 38.8844347,95.2046297 39.0097484,94.323293 C39.1563731,93.4650004 39.9140495,92.8870181 40.7199664,93.0186782 C41.5258833,93.1503384 42.0879397,93.9439213 41.9886333,94.8099442 Z" id="Path" fill="#196ECF" fill-rule="nonzero"></path>
                <path d="M30.5741553,89 C31.4591652,88.9910875 34,87.4634788 34,87.4634788 C34,87.4634788 31.4172937,85.9911278 30.5322838,86.0000403 C29.6683711,86.0355442 28.9903423,86.7065772 29.0001041,87.5164113 C29.0098659,88.3262454 29.7038971,88.9827714 30.5684455,89 L30.5741553,89 Z" id="Path" fill="#196ECF" fill-rule="nonzero"></path>
                <path d="M33.1193224,95.9402255 C33.9902249,95.6808645 36,93.4871027 36,93.4871027 C36,93.4871027 32.961693,92.7990756 32.0907904,93.0584366 C31.2509448,93.3385418 30.8049275,94.1765757 31.0822115,94.9534829 C31.3594955,95.7303901 32.2603537,96.1667508 33.1193224,95.9402255 L33.1193224,95.9402255 Z" id="Path" fill="#196ECF" fill-rule="nonzero"></path>
                <path d="M38.832164,101.984048 C39.7042194,101.864681 42,100.024302 42,100.024302 C42,100.024302 39.2397551,98.8894305 38.3676997,99.0087968 C37.8021589,99.086768 37.3238408,99.4423562 37.1129233,99.9416147 C36.9020058,100.440873 36.9905322,101.007953 37.3451555,101.42924 C37.6997787,101.850528 38.2666232,102.062019 38.832164,101.984048 Z" id="Path" fill="#196ECF" fill-rule="nonzero"></path>
                <path d="M50,86 C50,86 45.4000958,80.1919219 45.8658361,74.4984161 C46.0760147,72.1115652 45.4774584,69.7233842 44.1600383,67.6924498 C43.5268071,66.7332554 42.8037733,65.8320064 42,65" id="Path" stroke="#535461" stroke-width="2"></path>
                <path d="M41.9119673,61.1145 C42.2066801,61.9601906 41.6669651,65 41.6669651,65 C41.6669651,65 39.4157854,63.1332452 39.1210726,62.2875547 C38.9048269,61.7342443 38.9820609,61.0953853 39.3222925,60.6231175 C39.6625241,60.1508496 40.2110948,59.9210432 40.751499,60.0243964 C41.2919031,60.1277497 41.7373244,60.5476587 41.9119673,61.1183972 L41.9119673,61.1145 Z" id="Path" fill="#196ECF" fill-rule="nonzero"></path>
                <path d="M45.9618477,64.956304 C45.7832487,65.8218551 43.8186599,68 43.8186599,68 C43.8186599,68 42.8488674,65.1598512 43.0203224,64.2943002 C43.1245727,63.7266131 43.5080884,63.2628984 44.0236598,63.0811497 C44.5392311,62.8994009 45.1067501,63.0278577 45.5083786,63.4172129 C45.9100071,63.806568 46.0833411,64.3963246 45.9618477,64.9601087 L45.9618477,64.956304 Z" id="Path" fill="#196ECF" fill-rule="nonzero"></path>
                <path d="M49.5440704,72.5924949 C48.9421745,73.2180527 46,74 46,74 C46,74 46.5480521,71.1577125 47.1537939,70.5321546 C47.5381564,70.1100036 48.1346436,69.9185664 48.7113224,70.03228 C49.2880012,70.1459935 49.7538719,70.5469137 49.9277893,71.0791503 C50.1017067,71.6113868 49.9562266,72.1909528 49.5479163,72.5924949 L49.5440704,72.5924949 Z" id="Path" fill="#196ECF" fill-rule="nonzero"></path>
                <path d="M49.8076118,79.1660336 C49.3910522,79.8354143 47,81 47,81 C47,81 47.0283261,78.2866177 47.4448857,77.617237 C47.8750402,76.9831087 48.7171861,76.810512 49.3522266,77.2263301 C49.9872672,77.6421481 50.1883328,78.4978291 49.8076118,79.164326 L49.8076118,79.1660336 Z" id="Path" fill="#196ECF" fill-rule="nonzero"></path>
                <path d="M41.9822691,68.8771209 C42.8400547,69.2048704 46,68.773244 46,68.773244 C46,68.773244 44.1779591,66.4360136 43.3201735,66.1082641 C42.4680482,65.8043123 41.4995142,66.161663 41.1375159,66.9135782 C40.7755176,67.6654935 41.1521519,68.5375921 41.9862869,68.8789119 L41.9822691,68.8771209 Z" id="Path" fill="#196ECF" fill-rule="nonzero"></path>
                <path d="M42.3850949,75.9959502 C43.2692062,76.0799816 46,74.82845 46,74.82845 C46,74.82845 43.5964421,73.0870332 42.7123309,73.0030018 C41.8486536,72.9523645 41.0963943,73.5481559 41.0084533,74.3524773 C40.9205123,75.1567988 41.5282974,75.8823895 42.3850949,75.9959502 L42.3850949,75.9959502 Z" id="Path" fill="#196ECF" fill-rule="nonzero"></path>
                <path d="M44.2187667,83.9609039 C45.0777893,84.1836853 48,83.3816723 48,83.3816723 C48,83.3816723 45.9425642,81.2928739 45.0835416,81.0647458 C44.5229383,80.9065574 43.9141313,81.0430623 43.4927772,81.4214222 C43.0714231,81.7997821 42.9036523,82.3606143 43.0544054,82.8868325 C43.2051586,83.4130506 43.6507753,83.8220659 44.2187667,83.9555572 L44.2187667,83.9609039 Z" id="Path" fill="#196ECF" fill-rule="nonzero"></path>
                <path d="M134.125667,94 C134.125667,94 133.128068,86.7565028 136.754389,82.0714885 C138.28903,80.114832 139.075021,77.7642138 138.994357,75.3725457 C138.946297,74.2373049 138.782431,73.1084039 138.504814,72" id="Path" stroke="#535461" stroke-width="2"></path>
                <path d="M140.983731,67.8338534 C140.847663,68.7135515 138.969565,71 138.969565,71 C138.969565,71 137.875649,68.1884159 138.011717,67.3106343 C138.165388,66.4510857 138.93107,65.8793085 139.737698,66.0217486 C140.544327,66.1641888 141.097888,66.9689275 140.985522,67.83577 L140.983731,67.8338534 Z" id="Path" fill="#196ECF" fill-rule="nonzero"></path>
                <path d="M141.607908,73.5637796 C140.994838,74.2012761 138,75 138,75 C138,75 138.556268,72.1034677 139.175214,71.4659712 C139.796314,70.8687626 140.805041,70.8422356 141.460243,71.4058807 C142.115445,71.9695258 142.183226,72.9221319 141.613784,73.5637796 L141.607908,73.5637796 Z" id="Path" fill="#196ECF" fill-rule="nonzero"></path>
                <path d="M140.912939,80.9470508 C140.035935,81.1978897 137,80.4760512 137,80.4760512 C137,80.4760512 139.044367,78.2997078 139.919396,78.0488689 C140.778334,77.845576 141.660693,78.2941092 141.924449,79.0681062 C142.188205,79.8421033 141.740465,80.6689657 140.907013,80.9470508 L140.912939,80.9470508 Z" id="Path" fill="#196ECF" fill-rule="nonzero"></path>
                <path d="M138.071885,87.7906831 C137.229005,88.1624557 134,87.9257137 134,87.9257137 C134,87.9257137 135.661329,85.5337433 136.50421,85.1619708 C137.049739,84.9217016 137.702645,84.9503658 138.216985,85.2371657 C138.731325,85.5239657 139.028958,86.0253297 138.997769,86.5523987 C138.96658,87.0794678 138.611307,87.5521676 138.065778,87.7924368 L138.071885,87.7906831 Z" id="Path" fill="#196ECF" fill-rule="nonzero"></path>
                <path d="M135.236474,74.3191294 C135.671327,74.9753357 138,76 138,76 C138,76 137.804631,73.2207735 137.369777,72.5645673 C136.926614,71.9365851 136.115505,71.8145445 135.538581,72.2890428 C134.961657,72.763541 134.827842,73.6627459 135.236474,74.3191294 L135.236474,74.3191294 Z" id="Path" fill="#196ECF" fill-rule="nonzero"></path>
                <path d="M131.572127,81.3845807 C132.22797,81.8180637 135,82 135,82 C135,82 133.962894,79.6680511 133.307051,79.2345681 C132.650053,78.8258882 131.752819,78.9644643 131.282944,79.5471875 C130.813069,80.1299107 130.941257,80.9450809 131.572127,81.3861627 L131.572127,81.3845807 Z" id="Path" fill="#196ECF" fill-rule="nonzero"></path>
                <path d="M130.486069,88.6794312 C131.096205,89.2971763 134,90 134,90 C134,90 133.36915,87.1276704 132.759014,86.5099254 C132.36972,86.089245 131.777968,85.9103259 131.215186,86.0431422 C130.652405,86.1759585 130.208023,86.5994053 130.055834,87.1478754 C129.903645,87.6963454 130.067834,88.2826855 130.484186,88.6775817 L130.486069,88.6794312 Z" id="Path" fill="#196ECF" fill-rule="nonzero"></path>
                <polygon id="Path" fill="url(#linearGradient-1)" fill-rule="nonzero" points="89.0009483 34 37 82.1293913 37 153 141 153 141 82.1293913"></polygon>
                <polygon id="Path" fill="#E8EAF1" fill-rule="nonzero" points="141 152 39 152 39 82.320143 90.0009504 35 141 82.320143"></polygon>
                <rect id="Rectangle" fill="#000000" fill-rule="nonzero" opacity="0.1" x="38" y="82" width="102" height="70"></rect>
                <rect id="Rectangle" fill="#196ECF" fill-rule="nonzero" transform="translate(115.000000, 19.500000) rotate(-180.000000) translate(-115.000000, -19.500000) " x="107" y="12" width="16" height="15" rx="7.5"></rect>
                <rect id="Rectangle" fill="#196ECF" fill-rule="nonzero" transform="translate(98.000000, 37.500000) rotate(-180.000000) translate(-98.000000, -37.500000) " x="90" y="30" width="16" height="15" rx="7.5"></rect>
                <rect id="Rectangle" fill="#196ECF" fill-rule="nonzero" transform="translate(140.000000, 12.500000) rotate(-180.000000) translate(-140.000000, -12.500000) " x="132" y="5" width="16" height="15" rx="7.5"></rect>
                <path d="M74.7280197,99.5785814 L71.1848809,99.5785814 L71.1848809,96.3073713 C71.1848809,95.0330453 70.1676806,94 68.9129006,94 L58.2719803,94 C57.0172002,94 56,95.0330453 56,96.3073713 L56,107.114047 C56,108.388373 57.0172002,109.421419 58.2719803,109.421419 L61.8151191,109.421419 L61.8151191,112.692629 C61.8151191,113.966955 62.8323194,115 64.0870994,115 L74.7280197,115 C75.9827998,115 77,113.966955 77,112.692629 L77,101.885953 C77,100.611627 75.9827998,99.5785814 74.7280197,99.5785814 L74.7280197,99.5785814 Z" id="Path" fill="#196ECF" fill-rule="nonzero" opacity="0.5"></path>
                <path d="M119.807233,93 L109.537326,93 C108.955769,93 108.398031,93.2322825 107.986808,93.6457481 C107.575585,94.0592136 107.344562,94.6199933 107.344562,95.2047219 L107.344562,100.05325 L102.209608,100.05325 C100.998578,100.05325 100.016845,101.040337 100.016845,102.257971 L100.016845,107.264644 L95.1927639,107.264644 C93.9817338,107.264644 93,108.251731 93,109.469365 L93,119.795278 C93,121.012912 93.9817338,122 95.1927639,122 L105.455269,122 C106.666299,122 107.648033,121.012912 107.648033,119.795278 L107.648033,114.790466 L112.486917,114.790466 C113.697947,114.790466 114.679681,113.803379 114.679681,112.585745 L114.679681,107.737217 L119.814635,107.737217 C121.024219,107.733113 122.002045,106.74496 122,105.528774 L122,95.2028614 C121.998975,93.9859537 121.017541,93 119.807233,93 Z" id="Path" fill="#196ECF" fill-rule="nonzero" opacity="0.5"></path>
                <path d="M66.2266795,77.096399 C66.4720553,77.6574301 66.9465711,78.0913841 67.5342227,78.2921731 C67.7926457,78.3735311 68.0664969,78.4019119 68.3307055,78.4681335 C69.5900354,78.7746452 70.4810162,79.8417601 71.6265629,80.4320789 C71.7184261,80.4879387 71.8233108,80.5198509 71.9312706,80.5247893 L71.9698412,80.5247893 C71.9935721,80.5270196 72.0174659,80.5270196 72.0411968,80.5247893 C72.159422,80.5124097 72.2713739,80.4663714 72.3632613,80.3923459 L72.4153316,80.354505 C72.5398643,80.8550468 72.5588956,81.3752666 72.4712589,81.8832794 C72.0161259,81.8832794 69.0596897,82.0611319 69.464681,85.4781698 C69.9024573,89.1865831 74.2860054,94.3707935 74.2860054,94.3707935 C74.2860054,94.3707935 77.3523678,97.4434788 76.3668891,107.931099 L76.2569629,113.016922 C76.2569629,113.016922 77.4352946,112.842854 78.9376193,112.668786 C78.9723328,112.736899 79.0076892,112.803752 79.0436884,112.869343 C79.4726159,113.604043 80.0189022,114.266477 80.6617249,114.831396 L83.1514569,120.655119 C83.1514569,120.655119 83.3655237,121.033528 83.6818025,121.631415 C83.7107305,122.863138 82.9316045,123.939713 82.9316045,123.939713 C78.11028,125.317124 76.1412511,130.295101 76.1412511,130.295101 C76.1412511,130.295101 73.4220241,131.893881 72.8338225,133.679974 C71.6767047,134.591941 71.7634885,137.08566 71.7634885,137.08566 C71.7634885,137.08566 75.813401,139.204753 78.7736943,140.370254 C79.1169268,140.505466 79.4747173,140.601949 79.8401712,140.657846 L79.1825426,141.982279 L79.1825426,141.982279 C78.495986,142.224461 78.4458442,145.552573 78.4458442,145.552573 C78.4458442,145.552573 85.6739738,150.638397 87.8647836,150.956261 C90.0555935,151.274125 91.9146962,149.790759 89.6178172,148.731213 C87.7645001,147.877899 85.6990447,144.619793 84.9662034,143.384286 C85.8841836,142.150671 88.7769782,138.152775 88.9601886,136.548318 C89.180041,134.641134 91.9166247,133.051814 91.9166247,133.051814 C95.8604681,128.919582 93.231882,124.04756 92.9021034,121.510324 C92.9021034,121.461131 92.8886037,121.408154 92.8789611,121.353284 C92.6373455,120.250428 92.3275657,119.163015 91.9513383,118.09707 C92.3814004,115.431175 92.7227502,111.266778 92.9329599,108.517633 C93.8027269,108.79198 94.655137,109.117412 94.655137,109.117412 C96.2538882,105.933096 90.8231483,92.8193145 89.2552536,89.1865831 C90.1674482,88.8914237 91.7392,88.4297641 93.9936513,87.9302635 C97.8275685,87.0826262 98.0435638,85.1754422 98.0435638,85.1754422 L101,77.3366891 C100.747363,77.4464278 100.361657,77.4426437 99.9103807,77.3650698 C99.9103807,77.2988481 99.9103807,77.2288424 99.9103807,77.1531605 C99.933523,76.4095858 100.004879,75.2213799 100.228588,75.0056864 C100.228588,75.0056864 99.5015324,75.0056864 98.6182657,74.9281125 L98.6182657,74.8221578 L99.0155429,70.0258172 C99.0155429,70.0258172 98.4678404,64.7280839 96.6068092,65.4697666 C95.1121986,66.0657616 95.3108371,70.8242613 95.4496913,72.6784679 C95.4845771,73.152683 95.6261857,73.6134131 95.8643252,74.0274978 L95.9896796,74.2450833 L96.0764635,74.3945551 C95.9948216,74.3561473 95.9161811,74.3118793 95.8411828,74.2621117 L95.8411828,75.902517 C95.6348301,75.8060226 95.5133328,75.745477 95.5133328,75.745477 C95.623259,77.5467064 93.3225229,83.5842302 93.3225229,83.5842302 C93.3225229,83.5842302 89.2726104,83.1604115 87.9554245,84.0080489 C86.9911597,84.6305325 85.7337582,83.4271903 85.1301284,82.742269 L87.9727813,76.6915008 C87.6316285,76.6320775 87.2947257,76.5511831 86.9641602,76.4493188 C86.9776599,76.3755289 86.9911597,76.2979549 87.0065879,76.2184889 C87.1492991,75.4616699 87.4077221,74.3888789 87.7548575,74.2545435 C87.2533033,73.9859763 86.733267,73.7520561 86.1985339,73.5544859 C86.2120336,73.4939404 86.2236048,73.4296108 86.239033,73.3652812 C86.4434572,72.3057345 86.7655217,70.016357 86.1117501,68.4364972 C85.2361976,66.3174039 84.906419,62.1927402 83.2633116,63.138764 C81.9596255,63.895583 81.8979125,68.4554177 81.9268404,70.3039482 C81.9344594,70.8048733 82.0626561,71.2969385 82.3009752,71.7400123 L82.933533,72.9168659 L83.0203168,73.079582 L82.933533,73.0947184 L82.933533,74.5421348 C82.6558247,74.3699585 82.4957567,74.2602197 82.4957567,74.2602197 C82.4398294,76.2960629 81.0667162,79.0111512 79.7244594,81.1964661 L79.0417599,80.7026417 L78.8739778,80.5853348 C78.8722549,80.5639249 78.8722549,80.5424151 78.8739778,80.5210052 C78.8739778,80.5210052 78.5924125,80.4434312 78.1488506,80.354505 C77.5972911,79.3271231 77.2887263,78.0840479 77.1170872,77.0585581 C77.0997304,76.9507114 77.0823736,76.8466487 77.0669454,76.7444782 C77.3205577,76.1931952 77.4520227,75.5953816 77.4526514,74.9905501 C77.4370138,72.8564642 75.8501405,71.0466711 73.7016609,70.7126305 C73.836658,70.5669428 73.8945139,70.5234257 73.9369416,70.5234257 L73.9658695,70.5234257 C74.033368,70.5234257 74.1259375,70.5536985 74.4615017,70.3928744 C74.7970658,70.2320504 75.2001286,69.9804081 75.1982,69.6057826 C75.1982,69.3314357 74.9764191,69.1062821 74.7411385,68.9511342 C74.1760792,68.5727246 74.1625795,67.9388887 73.6341624,67.9861899 C73.5327609,67.977904 73.4307389,67.9914649 73.3352403,68.0259229 C72.8531078,68.1810708 72.4346169,68.4762302 71.9659841,68.665435 C71.6378679,68.7970683 71.2899775,68.8750453 70.9361492,68.8962648 C70.7100777,68.896325 70.4843698,68.9140401 70.2611638,68.9492421 C70.0826915,68.9931943 69.9113329,69.0613326 69.7520319,69.1516912 C68.7626961,69.6814645 67.6210065,70.4874768 67.3027991,71.5375632 C67.0058055,72.521428 67.4165824,73.796668 66.650956,74.5042938 C66.5110676,74.612561 66.3819245,74.7335597 66.2652501,74.8656749 C66.167436,75.011576 66.1017501,75.1759064 66.0723971,75.3481471 C65.9378326,75.9324968 65.9917476,76.5434351 66.2266795,77.096399 Z M86.2506042,128.03978 C86.2930319,128.546849 86.1946769,128.906338 85.8918977,129.023645 C84.2487903,129.659373 82.3877591,135.484988 82.3877591,135.484988 L81.1419288,138.007087 C80.1542275,137.275611 79.2090539,136.490443 78.3108471,135.655272 L78.4458442,134.741413 C78.4458442,134.741413 81.9499828,132.198501 82.1698352,131.456818 C82.3453314,130.860823 85.1783417,128.802275 86.2506042,128.03978 Z" id="Shape" fill="url(#linearGradient-2)" fill-rule="nonzero"></path>
                <path d="M88.633117,89.1228391 C88.633117,89.1228391 96.6402805,105.46742 94.695506,109 C94.695506,109 91.4922259,107.890126 91.034022,108.085771 C90.5758182,108.281416 86,87 86,87 L88.633117,89.1228391 Z" id="Path" fill="#575988" fill-rule="nonzero"></path>
                <path d="M88.633117,89.1228391 C88.633117,89.1228391 96.6402805,105.46742 94.695506,109 C94.695506,109 91.4922259,107.890126 91.034022,108.085771 C90.5758182,108.281416 86,87 86,87 L88.633117,89.1228391 Z" id="Path" fill="#000000" fill-rule="nonzero" opacity="0.05"></path>
                <path d="M85.6162303,142.949354 C85.6162303,142.949354 87.9805829,147.690022 90.0502843,148.743928 C92.1199857,149.797834 90.4449383,151.271775 88.473454,150.956748 C86.5019697,150.641722 80,145.584119 80,145.584119 C80,145.584119 80.0446441,142.27348 80.6625187,142.032915 C81.2803934,141.792349 85.6162303,142.949354 85.6162303,142.949354 Z" id="Path" fill="#575988" fill-rule="nonzero"></path>
                <path d="M78.5999068,135.739425 C78.5999068,135.739425 82.0572243,139.160509 83.5757901,139.463228 C85.094356,139.765946 82.2544167,141.777383 79.5084663,140.670455 C76.7625159,139.563526 73.0011167,137.552089 73.0011167,137.552089 C73.0011167,137.552089 72.8997561,134.331601 74.6284148,134.030706 C76.3570735,133.729811 78.5999068,135.739425 78.5999068,135.739425 Z" id="Path" fill="#575988" fill-rule="nonzero"></path>
                <path d="M93,106.938362 C93,106.938362 92.2482762,119.674356 91.2803831,121.44892 C90.31249,123.223483 86.6590345,128.651227 86.6590345,128.651227 C86.6590345,128.651227 82.4680769,131.574149 82.2538551,132.304406 C82.0396333,133.034664 78.6003996,135.539485 78.6003996,135.539485 L78.3861778,137 C78.3861778,137 72.6917726,136.685951 73.0131053,134.807336 C73.334438,132.92872 76.3432807,131.154156 76.3432807,131.154156 C76.3432807,131.154156 78.2771194,126.248566 83.0055789,124.890211 C83.0055789,124.890211 84.5090265,122.809166 83.2198007,121.132979 C83.2198007,121.132979 79.9967363,113.304467 78.1700085,112.364213 C76.3432807,111.423959 78.9236798,106 78.9236798,106 L93,106.938362 Z" id="Path" fill="#67647E" fill-rule="nonzero"></path>
                <path d="M93,106.938362 C93,106.938362 92.2482762,119.674356 91.2803831,121.44892 C90.31249,123.223483 86.6590345,128.651227 86.6590345,128.651227 C86.6590345,128.651227 82.4680769,131.574149 82.2538551,132.304406 C82.0396333,133.034664 78.6003996,135.539485 78.6003996,135.539485 L78.3861778,137 C78.3861778,137 72.6917726,136.685951 73.0131053,134.807336 C73.334438,132.92872 76.3432807,131.154156 76.3432807,131.154156 C76.3432807,131.154156 78.2771194,126.248566 83.0055789,124.890211 C83.0055789,124.890211 84.5090265,122.809166 83.2198007,121.132979 C83.2198007,121.132979 79.9967363,113.304467 78.1700085,112.364213 C76.3432807,111.423959 78.9236798,106 78.9236798,106 L93,106.938362 Z" id="Path" fill="#000000" fill-rule="nonzero" opacity="0.05"></path>
                <path d="M82.759871,135.664084 L79.3851831,142.732202 C79.9125975,144.524065 84.9727184,143.891755 84.9727184,143.891755 C84.9727184,143.891755 88.8748207,138.621232 89.0850221,136.724302 C89.2952235,134.827372 91.9322955,133.245641 91.9322955,133.245641 C95.7273862,129.134671 93.1973258,124.286324 92.8877564,121.757084 C92.8877564,121.709327 92.87438,121.655838 92.8648254,121.600439 C92.5839199,119.904091 90.8774667,115.023269 89.551287,111.368861 C88.6569756,108.906482 87.9327362,107 87.9327362,107 C87.9327362,107 80.8623256,107.31711 79.3928268,109.84635 C78.7163605,111.003993 79.0106424,112.211304 79.5457005,113.177917 C79.9578767,113.907739 80.4843137,114.566862 81.1050127,115.130246 L83.5051305,120.914641 C83.5051305,120.914641 87.7225348,128.609338 86.1402916,129.241648 C84.5580484,129.873958 82.759871,135.664084 82.759871,135.664084 Z" id="Path" fill="#67647E" fill-rule="nonzero"></path>
                <path d="M96.0765317,73.3409551 C96.105592,73.8162348 96.2216343,74.2782336 96.4165456,74.6946507 L96.5190378,74.9151097 L97.0249914,76 L98.6404638,76 L98.6746279,75.4952649 L99,70.6606379 C99,70.6606379 98.5509865,65.3251435 97.0249914,66.0716099 C95.7999655,66.6788391 95.9642784,71.4728552 96.0765317,73.3409551 Z" id="Path" fill="#F7C4A7" fill-rule="nonzero"></path>
                <path d="M96,76 L96.7041509,77 L98.9524528,77 L99,76.5347594 C97.9539623,76.4688057 96.7086792,76.3101604 96,76 Z" id="Path" fill="#000000" fill-rule="nonzero" opacity="0.1"></path>
                <path d="M96,75 L96,77.0906096 L99.6992754,78 C99.6992754,78 99.6992754,77.7825371 99.7101449,77.4794069 C99.7318841,76.8418451 99.7971014,75.8220758 100,75.6375618 C99.9981884,75.6359143 97,75.6359143 96,75 Z" id="Path" fill="#E6E6F0" fill-rule="nonzero"></path>
                <path d="M96,76 L96,76.9749304 L99.9882813,78 C99.9882813,78 99.9882813,77.7548747 100,77.4131848 C98.6699219,77.1922006 96.7539062,76.3491179 96,76 Z" id="Path" fill="#000000" fill-rule="nonzero" opacity="0.1"></path>
                <path d="M73.7081614,80.6703539 C74.4712775,82.8859653 73.4773188,83.8842287 73.4773188,83.8842287 C73.4773188,83.8842287 82.9514046,84.5148111 80.6353474,82.8326229 C79.2827242,81.8496002 78.6836781,79.6835209 78.420403,78.05277 C78.3084306,77.3738725 78.2396126,76.6885771 78.2143617,76.0009957 C78.2143617,76.0009957 70.6442505,75.8905009 72.2143617,77.9975225 C72.8451025,78.807697 73.3487938,79.7089437 73.7081614,80.6703539 L73.7081614,80.6703539 Z" id="Path" fill="#F7C4A7" fill-rule="nonzero"></path>
                <path d="M72.201135,78.0014422 C72.9150611,79.0388523 73.157796,79.1914127 73.4023157,79.9408652 C73.6240352,79.9808996 73.848544,80.0006768 74.0734063,80 C75.7618416,80 77.4056565,79.6281166 78,78.0548383 C77.8952453,77.3752563 77.8308632,76.6892698 77.8072399,76.000995 C77.8072399,76.000995 70.7304471,75.8903888 72.201135,78.0014422 Z" id="Path" fill="#000000" fill-rule="nonzero" opacity="0.1"></path>
                <circle id="Oval" fill="#F7C4A7" fill-rule="nonzero" cx="74.5" cy="76.5" r="4.5"></circle>
                <path d="M95.7510764,76 C95.7510764,76 99.8451988,78.1472393 101,77.6162856 L98.1653149,85.5864473 C98.1653149,85.5864473 97.9560429,87.5248187 94.2804646,88.3876185 C90.6048864,89.2504183 88.8222689,90 88.8222689,90 L82,81.7058003 L85.4644037,82.6818182 C85.4644037,82.6818182 87.2489236,85.2663134 88.5083609,84.4054657 C89.7677981,83.544618 93.6450386,83.9740658 93.6450386,83.9740658 C93.6450386,83.9740658 95.8614198,77.8310095 95.7510764,76 Z" id="Path" fill="#575988" fill-rule="nonzero"></path>
                <path d="M95.7510764,76 C95.7510764,76 99.8451988,78.1472393 101,77.6162856 L98.1653149,85.5864473 C98.1653149,85.5864473 97.9560429,87.5248187 94.2804646,88.3876185 C90.6048864,89.2504183 88.8222689,90 88.8222689,90 L82,81.7058003 L85.4644037,82.6818182 C85.4644037,82.6818182 87.2489236,85.2663134 88.5083609,84.4054657 C89.7677981,83.544618 93.6450386,83.9740658 93.6450386,83.9740658 C93.6450386,83.9740658 95.8614198,77.8310095 95.7510764,76 Z" id="Path" fill="#000000" fill-rule="nonzero" opacity="0.05"></path>
                <path d="M79.3460669,81.4384103 C79.3460669,81.4384103 73.6042936,79.8076476 73,82.8364862 C73,82.8364862 75.6533803,81.5518206 79.454328,83.8141617 C79.7397435,83.9842772 80.0192539,84.1661248 80.2908908,84.3557939 C83.6371419,86.6846168 85.9716442,90.2941946 86.9105629,94.3789227 L89.3375792,104.937818 L89.5541013,107.776987 C89.5541013,107.776987 93.0302657,108.459405 93.6877057,107.436756 C94.3451456,106.414108 93.9042278,103.007886 92.9279098,101.871827 C91.9515918,100.735769 90.4241266,95.8630341 90.4241266,95.8630341 L89.4733976,93.0297306 C88.6778423,90.6461647 87.4132559,88.44347 85.7531537,86.5496976 L85.7531537,86.5496976 L85.5248212,86.2818145 C84.0931788,84.572575 82.2765686,83.2221522 80.2219973,82.3398271 C79.6728185,82.0993189 79.2693,81.7962395 79.3460669,81.4384103 Z" id="Path" fill="#000000" fill-rule="nonzero" opacity="0.1"></path>
                <path d="M79.3460669,81.4384103 C79.3460669,81.4384103 73.6042936,79.8076476 73,82.8364862 C73,82.8364862 75.6533803,81.5518206 79.454328,83.8141617 C79.7397435,83.9842772 80.0192539,84.1661248 80.2908908,84.3557939 C83.6371419,86.6846168 85.9716442,90.2941946 86.9105629,94.3789227 L89.3375792,104.937818 L89.5541013,107.776987 C89.5541013,107.776987 93.0302657,108.459405 93.6877057,107.436756 C94.3451456,106.414108 93.9042278,103.007886 92.9279098,101.871827 C91.9515918,100.735769 90.4300317,95.851302 90.4300317,95.851302 L89.4733976,93.0297306 C88.6778423,90.6461647 87.4132559,88.44347 85.7531537,86.5496976 L85.7531537,86.5496976 L85.5228528,86.2739931 C84.090888,84.5678462 82.2750479,83.2201737 80.2219973,82.3398271 C79.6728185,82.0973635 79.2693,81.8040609 79.3460669,81.4384103 Z" id="Path" fill="#E6E6F0" fill-rule="nonzero"></path>
                <path d="M93,102.258914 L92.952465,104 L91.4845851,103.083639 C91.4845851,103.083639 88.8682602,93.9053649 87.0258047,91.4036988 C86.8090452,91.1086305 86.7044683,90.6706098 86.5010186,90.5954682 L79,83.6182939 L79,82 C79,82 82.8294174,84.7307564 83.1431482,85.2365878 C83.2762461,85.4510163 85.2898275,86.5194935 86.5010186,88.1689437 C87.5870584,89.6975674 88.5512958,91.3033579 89.3854407,92.9725092 L91.9028928,98.434022 L93,102.258914 Z" id="Path" fill="#000000" fill-rule="nonzero" opacity="0.1"></path>
                <path d="M79,82 L79,83.5669777 L86.5502225,90.5954682 C86.7503034,90.6706098 86.8560065,91.1104632 87.0711878,91.4036988 C88.9002292,93.9071976 91.4975057,103.083639 91.4975057,103.083639 L92.9546987,104 L93,102.258914 L91.9146555,98.4413529 L89.4155319,92.9798401 C88.5874601,91.3106888 87.6302428,89.7048983 86.55211,88.1762746 C85.3497371,86.5268244 83.3432655,85.4583472 83.2186868,85.2439187 C82.9487663,84.8077308 80.0098423,82.7202599 79.2057436,82.152116 L79,82 Z" id="Path" fill="#787C9C" fill-rule="nonzero"></path>
                <path d="M75.2712524,72.3045142 C75.6149978,72.1465953 76.0019568,71.909717 76,71.5516451 C75.9662183,71.2870307 75.7980042,71.0538859 75.548213,70.9254783 C74.9294713,70.530681 74.9766135,69.8237185 74.2655517,70.0403979 C73.790201,70.1891355 73.3737781,70.4719205 72.9102129,70.6518746 C72.5857859,70.7775709 72.2412838,70.8520343 71.8907624,70.8722266 C71.667082,70.8719264 71.4437406,70.8885067 71.2229143,70.9218057 C71.0456872,70.9641676 70.8757405,71.0296949 70.7180997,71.11645 C69.7296666,71.6329872 68.995468,72.4892874 68.6713417,73.5035961 C68.3767029,74.4437644 68.4061667,75.558378 67.6479627,76.234124 C67.5109687,76.3379077 67.3847018,76.4534877 67.270825,76.579342 C67.1720009,76.7186451 67.1051201,76.8755772 67.0743991,77.0402449 C66.9379331,77.6019278 66.9900628,78.1892868 67.2236827,78.7222648 C67.4633084,79.2565052 67.9324548,79.6717531 68.5161653,79.8662586 C68.7715189,79.9452181 69.0425867,79.9727621 69.3018689,80.0333589 C70.5472092,80.3271615 71.4291616,81.3481255 72.5625391,81.9118592 C72.6529433,81.964907 72.7564531,81.9952647 72.8630707,82 C72.9803098,81.9884718 73.0911554,81.9443362 73.1812807,81.8732976 C73.6193105,81.579495 73.9807342,81.1259373 73.9669844,80.620964 C73.9312813,80.3060711 73.8326706,80.0002407 73.676274,79.7193573 C73.4389446,79.1930754 73.2573647,78.6463148 73.1341385,78.0869166 C73.0947533,77.9583387 73.0906997,77.8225506 73.1223529,77.6921194 C73.2048518,77.4460597 73.4955622,77.3248661 73.6978808,77.1577659 C74.0907327,76.8254017 74.1280536,76.2579955 73.9866269,75.786075 C73.8452003,75.3141546 73.5466329,74.8991584 73.3246716,74.454782 C73.248007,74.3215046 73.2031106,74.1742931 73.1930663,74.0232594 C73.1930663,73.4301454 74.0494832,73.1051263 74.4109069,72.7176741 C74.911793,72.1906657 74.60144,72.6148432 75.2712524,72.3045142 Z" id="Path" fill="#000000" fill-rule="nonzero" opacity="0.1"></path>
                <path d="M75.2712524,72.3041616 C75.6149978,72.1462669 76.0019568,71.9094248 76,71.5514077 C75.9662183,71.2868338 75.7980042,71.0537247 75.548213,70.9253367 C74.9294713,70.5305998 74.9766135,69.8237455 74.2655517,70.0403918 C73.790201,70.1891066 73.3737781,70.4718483 72.9102129,70.6517749 C72.5857859,70.777452 72.2412838,70.8519039 71.8907624,70.8720931 C71.6668369,70.884945 70.9439895,70.5654836 70.7259568,70.6132192 C70.5487297,70.6555746 70.378783,70.7210918 70.2211422,70.8078336 C69.232709,71.3242918 68.4985104,72.180461 68.1743842,73.1946145 C67.8797453,74.134639 68.0859925,75.3115056 67.3277885,75.9871481 C67.2001116,76.1009792 67.3729664,76.4461445 67.270825,76.5801714 C67.1720009,76.7194531 67.1051201,76.8763612 67.0743991,77.0410037 C66.9379331,77.6026007 66.9900628,78.1898699 67.2236827,78.7227662 C67.4633084,79.2569249 67.9324548,79.6721093 68.5161653,79.8665851 C68.7715189,79.9455325 69.0425867,79.9730722 69.3018689,80.0336597 C70.5472092,80.3274174 71.4291616,81.3482252 72.5625391,81.9118727 C72.6529433,81.9649124 72.7564531,81.9952654 72.8630707,82 C72.9803098,81.9884736 73.0911554,81.9443447 73.1812807,81.873317 C73.6193105,81.5795594 73.9807342,81.126071 73.9669844,80.621175 C73.9312813,80.3063303 73.8326706,80.0005466 73.676274,79.7197063 C73.4389446,79.1935049 73.2573647,78.6468279 73.1341385,78.0875153 C73.0947533,77.9589571 73.0906997,77.8231897 73.1223529,77.6927785 C73.2048518,77.4467565 73.4955622,77.3255814 73.6978808,77.1585068 C74.0907327,76.8261934 74.1280536,76.258874 73.9866269,75.7870257 C73.8452003,75.3151775 73.5466329,74.9002448 73.3246716,74.4559364 C73.248007,74.3226794 73.2031106,74.1754904 73.1930663,74.0244799 C73.1930663,73.4314566 74.0494832,73.1064872 74.4109069,72.7190943 C74.911793,72.1903305 74.60144,72.6144432 75.2712524,72.3041616 Z" id="Path" fill="#B96B6B" fill-rule="nonzero"></path>
                <path d="M80.51587,113 C82.3435031,112.77709 84.6547617,112.559752 85.6672958,112.734365 C87.2974939,113.013003 89.5888278,111.521362 90,111.248297 C89.152297,108.85387 88.4658025,107 88.4658025,107 C88.4658025,107 81.7638772,107.308359 80.3709635,109.767802 C79.7279409,110.887926 80.0159426,112.060062 80.51587,113 Z" id="Path" fill="#000000" fill-rule="nonzero" opacity="0.1"></path>
                <path d="M71.0357435,86.3752275 C71.4485114,90.0935766 75.5705869,95.3004206 75.5705869,95.3004206 C75.5705869,95.3004206 78.4562266,98.3813934 77.5279658,108.90099 L77.4252408,114 C77.4252408,114 83.5046953,113.037196 85.3612168,113.362624 C87.2177384,113.688052 89.8960603,111.76822 89.8960603,111.76822 C89.8960603,111.76822 90.9270461,93.3863663 86.4949277,89.5621088 C85.9486818,88.6931663 85.3543843,87.8573544 84.714983,87.0588183 C83.5252403,85.5741746 81.913391,83.9008212 80.3930605,83.4887411 C80.1984896,83.4344976 79.9986469,83.4028495 79.7972553,83.3943863 C79.7972553,83.3943863 75.1596868,80.7389729 73.9232509,82.75701 C73.9213832,82.7627869 70.6229756,82.6568784 71.0357435,86.3752275 Z" id="Path" fill="#575988" fill-rule="nonzero"></path>
                <path d="M90,106 C90,106 88.380967,105.222222 85.6310054,105.442424 C82.8810437,105.662626 78,103 78,103" id="Path" fill="#000000" fill-rule="nonzero" opacity="0.1"></path>
                <path d="M87.0018234,129 C87.0018234,129 86.898761,129.401451 88.2423189,129.933495 C89.5858769,130.465538 90,131 90,131" id="Path" fill="#000000" fill-rule="nonzero" opacity="0.05"></path>
                <rect id="Rectangle" fill="#196ECF" fill-rule="nonzero" x="83" y="58" width="16" height="15" rx="7.5"></rect>
                <path d="M83.0044068,71.6748428 C83.0111747,72.132202 83.1234584,72.5816426 83.3323124,72.9873587 L83.8857615,74.06299 L84.2691855,74.806983 L86.6616818,75 C86.6616818,75 86.7119954,74.7999642 86.7727186,74.4735899 C86.9462137,73.5049953 87.2324804,71.4133925 86.6616818,69.969274 C85.8965688,68.0391036 85.608567,64.2577244 84.1720283,65.1280557 C83.032166,65.817653 82.9783825,69.9833117 83.0044068,71.6748428 Z" id="Path" fill="#F7C4A7" fill-rule="nonzero"></path>
                <path d="M84,74.064118 L84,74.0929928 L84.3984375,74.8131633 L86.8846154,75 C86.8846154,75 86.936899,74.8063692 87,74.4904454 C86.1039663,74.1626319 84.9375,73.8653917 84,74.064118 Z" id="Path" fill="#000000" fill-rule="nonzero" opacity="0.1"></path>
                <path d="M84,74.0721661 L84,75.9831603 L88.0897858,78 C88.0897858,78 88.1371499,77.6535962 88.2236409,77.2071203 C88.371911,76.4373341 88.6355025,75.3731047 89,75.2403166 C88.9917628,75.2403166 86.0366557,73.6468593 84,74.0721661 Z" id="Path" fill="#E6E6F0" fill-rule="nonzero"></path>
                <path d="M73.8929666,90.8691682 C74.8117402,91.7042632 76.0266941,92.1055429 77.2446154,91.9761638 C83.8051297,91.2879266 83.9930024,88.8955754 83.9930024,88.8955754 L85,86.5943429 C83.803251,85.0996081 82.1819097,83.414881 80.652626,83 C79.5648431,84.8088036 78.6010562,86.1135462 78.6010562,86.1135462 C78.6010562,86.1135462 73.7295174,82.2632954 72.2772615,85.9002896 C71.4280769,88.017346 72.6905814,89.7718661 73.8929666,90.8691682 Z" id="Path" fill="#000000" fill-rule="nonzero" opacity="0.05"></path>
                <path d="M84,75 L84,75.8060014 L87.8732326,78 C87.8732326,78 87.9180887,77.6231682 88,77.1374738 C86.3227694,76.5638521 84.6708922,75.4752268 84,75 Z" id="Path" fill="#000000" fill-rule="nonzero" opacity="0.1"></path>
                <path d="M82.7736725,76 C82.7736725,76 85.5961546,77.9479065 88,78.3586769 L83.0881236,89.0238368 C83.0881236,89.0238368 82.9081666,91.3174595 76.2914353,91.9772942 C75.0634781,92.1008738 73.8386479,91.716212 72.912034,90.9159826 C71.6996927,89.8639644 70.4248401,88.1818505 71.2772675,86.1521616 C72.7396542,82.6652603 77.6534249,86.3566174 77.6534249,86.3566174 C77.6534249,86.3566174 82.6675927,79.8976717 82.7736725,76 Z" id="Path" fill="#575988" fill-rule="nonzero"></path>
                <polygon id="Path" fill="#E8EAF1" fill-rule="nonzero" points="38 82 89 117.000951 38 152"></polygon>
                <polygon id="Path" fill="#E8EAF1" fill-rule="nonzero" points="141 82 90 117.000951 141 152"></polygon>
                <path d="M39,152 L87.9994596,113.697029 C89.1727619,112.767657 90.8272381,112.767657 92.0005404,113.697029 L141,152 L39,152 Z" id="Path" fill="url(#linearGradient-3)" fill-rule="nonzero"></path>
                <path d="M39,152 L87.9994596,115.660553 C89.1868117,114.779816 90.8131883,114.779816 92.0005404,115.660553 L141,152 L39,152 Z" id="Path" fill="#E8EAF1" fill-rule="nonzero"></path>
            </g>
        </g>
    </g>
</svg>