<?xml version="1.0" encoding="UTF-8"?>
<svg xmlns="http://www.w3.org/2000/svg" xmlns:xlink="http://www.w3.org/1999/xlink" version="1.2" >
<font id="UHCSans-Heavy">
<font-face  font-family="UHC Sans" units-per-em="2048" ascent="1713" descent="-335" font-style="normal" font-weight="800" font-stretch="normal" cap-height="1365" x-height="990" underline-position="-210" underline-thickness="208" />
<missing-glyph  horiz-adv-x="512" d="M51 0 L51 1365 L461 1365 L461 0 L51 0 Z M410 51 L410 1314 L102 1314 L102 51 L410 51 Z " />
<glyph glyph-name="space" unicode="&#x20;" horiz-adv-x="512" d="" />
<glyph glyph-name="exclam" unicode="&#x21;" horiz-adv-x="685" d="M534 1365 L534 1029 L444 455 L283 455 L194 1023 L194 1365 L534 1365 Z M363 355 Q439 355 493 301 Q547 247 547 171 Q547 96 492.5 41.5 Q438 -13 363 -13 Q287 -13 233 41.5 Q179 96 179 173 Q179 247 233.5 301 Q288 355 363 355 Z " />
<glyph glyph-name="quotedbl" unicode="&#x22;" horiz-adv-x="999" d="M402 818 L141 818 L75 1365 L468 1365 L402 818 Z M858 818 L598 818 L531 1365 L924 1365 L858 818 Z " />
<glyph glyph-name="numbersign" unicode="&#x23;" horiz-adv-x="1229" d="M60 605 L255 605 L288 775 L142 775 L142 1007 L335 1007 L406 1365 L647 1365 L574 1007 L732 1007 L805 1365 L1044 1365 L971 1007 L1117 1007 L1117 775 L925 775 L892 605 L1037 605 L1037 374 L845 374 L771 0 L531 0 L606 374 L448 374 L374 0 L135 0 L209 374 L60 374 L60 605 Z M494 605 L652 605 L686 775 L528 775 L494 605 Z " />
<glyph glyph-name="dollar" unicode="&#x24;" horiz-adv-x="1229" d="M674 1152 L674 850 Q845 808 936 760 Q1155 648 1155 403 Q1155 284 1095 188 Q1034 91 927.5 35 Q821 -21 674 -33 L674 -195 L547 -195 L547 -32 Q274 -4 162 177 Q87 299 79 450 L78 466 L376 466 L376 444 Q377 268 547 221 L547 569 Q355 621 266 673 Q191 717 150 797 Q109 877 109 977 Q109 1143 211 1252 Q330 1378 547 1400 L547 1548 L674 1548 L674 1400 Q772 1393 863.5 1350.5 Q955 1308 1010 1246 Q1059 1189 1077.5 1138 Q1096 1087 1110 970 L811 970 Q810 980 810 984 Q800 1129 674 1152 Z M547 1152 Q407 1129 407 1010 Q407 960 436 931.5 Q465 903 539 883 L547 880 L547 1152 Z M674 219 Q856 248 856 387 Q856 457 788 491 Q741 515 674 534 L674 219 Z " />
<glyph glyph-name="percent" unicode="&#x25;" horiz-adv-x="1701" d="M374 1376 Q561 1376 642 1238 Q697 1142 697 987 Q697 794 592 699 Q505 621 366 621 Q213 621 129 714 Q45 807 45 986 Q45 1195 158 1298 Q243 1376 374 1376 Z M374 1201 Q319 1201 294.5 1150.5 Q270 1100 270 985 Q270 879 292 837 Q314 795 370 795 Q473 795 473 989 Q473 1201 374 1201 Z M556 -43 L361 -43 L1155 1383 L1346 1383 L556 -43 Z M1332 726 Q1520 726 1600 588 Q1656 492 1656 337 Q1656 144 1550 49 Q1464 -29 1324 -29 Q1171 -29 1087 64 Q1003 156 1003 336 Q1003 545 1116 648 Q1201 726 1332 726 Z M1333 551 Q1277 551 1252.5 500.5 Q1228 450 1228 335 Q1228 229 1250 187 Q1272 145 1329 145 Q1432 145 1432 338 Q1432 551 1333 551 Z " />
<glyph glyph-name="ampersand" unicode="&#x26;" horiz-adv-x="1409" d="M1273 665 Q1248 470 1122 332 L1408 0 L1012 0 L916 116 Q816 38 729 4.5 Q642 -29 538 -29 Q328 -29 201 87 Q68 208 68 383 Q68 510 149 616.5 Q230 723 375 785 Q256 924 256 1052 Q256 1210 390 1307 Q500 1387 652 1387 Q808 1387 914 1299 Q1035 1198 1035 1041 Q1035 821 800 703 L942 532 Q977 577 995 665 L1273 665 Z M641 891 Q709 932 737.5 970.5 Q766 1009 766 1058 Q766 1105 734.5 1135.5 Q703 1166 654 1166 Q606 1166 574.5 1136.5 Q543 1107 543 1062 Q543 991 641 891 Z M544 572 Q383 494 383 390 Q383 327 430.5 283.5 Q478 240 548 240 Q651 240 742 334 L544 572 Z " />
<glyph glyph-name="quotesingle" unicode="&#x27;" horiz-adv-x="543" d="M402 818 L141 818 L75 1365 L468 1365 L402 818 Z " />
<glyph glyph-name="parenleft" unicode="&#x28;" horiz-adv-x="663" d="M575 1365 Q473 1154 427.5 951.5 Q382 749 382 504 Q382 72 580 -335 L296 -335 Q68 87 68 500 Q68 790 155 1056 Q181 1133 224.5 1229 Q268 1325 296 1365 L575 1365 Z " />
<glyph glyph-name="parenright" unicode="&#x29;" horiz-adv-x="662" d="M88 -335 Q192 -118 236.5 81.5 Q281 281 281 526 Q281 739 230.5 952 Q180 1165 82 1365 L366 1365 Q594 947 594 530 Q594 240 507 -26 Q481 -104 438 -199 Q395 -294 366 -335 L88 -335 Z " />
<glyph glyph-name="asterisk" unicode="&#x2a;" horiz-adv-x="1229" d="M1003 1018 L762 941 L913 740 L760 625 L610 836 L464 625 L309 740 L465 941 L225 1018 L285 1199 L520 1110 L516 1365 L712 1365 L703 1110 L939 1199 L1003 1018 Z " />
<glyph glyph-name="plus" unicode="&#x2b;" horiz-adv-x="1229" d="M116 554 L116 778 L502 778 L502 1165 L726 1165 L726 778 L1113 778 L1113 554 L726 554 L726 168 L502 168 L502 554 L116 554 Z " />
<glyph glyph-name="comma" unicode="&#x2c;" horiz-adv-x="598" d="M142 -182 Q219 -169 265.5 -122 Q312 -75 318 -1 Q297 -6 286 -6 Q213 -6 161 46.5 Q109 99 109 172 Q109 248 160.5 302.5 Q212 357 284 357 Q374 357 430 286.5 Q486 216 486 103 Q486 -82 385 -203 Q338 -260 287 -288 Q236 -316 142 -336 L142 -182 Z " />
<glyph glyph-name="hyphen" unicode="&#x2d;" horiz-adv-x="519" d="M519 647 L519 363 L0 363 L0 647 L519 647 Z " />
<glyph glyph-name="period" unicode="&#x2e;" horiz-adv-x="598" d="M299 359 Q375 359 429 305 Q483 251 483 175 Q483 100 428.5 45.5 Q374 -9 299 -9 Q223 -9 169 45.5 Q115 100 115 177 Q115 251 169.5 305 Q224 359 299 359 Z " />
<glyph glyph-name="slash" unicode="&#x2f;" horiz-adv-x="906" d="M840 1365 L235 -335 L-54 -335 L551 1365 L840 1365 Z " />
<glyph glyph-name="zero" unicode="0" horiz-adv-x="1229" d="M630 1385 Q879 1385 1027 1169 Q1154 983 1154 682 Q1154 382 1029 195 Q885 -21 618 -21 Q351 -21 204 190 Q75 376 75 678 Q75 986 208 1175 Q357 1385 630 1385 Z M618 1120 Q480 1120 429 984 Q389 877 389 664 Q389 481 429 377 Q453 315 502.5 279.5 Q552 244 616 244 Q730 244 785 351.5 Q840 459 840 681 Q840 879 799 985 Q748 1120 618 1120 Z " />
<glyph glyph-name="one" unicode="1" horiz-adv-x="1229" d="M895 1397 L895 0 L550 0 L550 857 L466 857 L368 857 L279 857 L232 857 L232 1110 Q336 1111 401.5 1130 Q467 1149 523 1192 Q603 1255 623 1397 L895 1397 Z " />
<glyph glyph-name="two" unicode="2" horiz-adv-x="1229" d="M1147 279 L1147 0 L78 0 Q76 239 221 394 Q282 460 347 509 Q412 558 626 699 Q739 774 772 823 Q803 870 803 933 Q803 1008 753.5 1054 Q704 1100 623 1100 Q492 1100 444 985 Q419 925 416 817 L106 817 Q106 952 129 1040.5 Q152 1129 207 1199 Q352 1385 635 1385 Q854 1385 987 1272 Q1131 1150 1131 954 Q1131 753 982 618 Q932 573 754 457 Q640 383 590 344 Q540 305 507 266 Q642 279 740 279 L1147 279 Z " />
<glyph glyph-name="three" unicode="3" horiz-adv-x="1229" d="M101 918 Q106 1093 194 1208 Q330 1385 613 1385 Q837 1385 968 1283 Q1107 1175 1107 1000 Q1107 899 1056 827 Q1005 755 918 735 Q1029 710 1091 628 Q1153 546 1153 427 Q1153 273 1058 159 Q909 -21 612 -21 Q324 -21 182 136 Q127 197 96 283 Q65 369 65 459 Q65 470 66 494 L378 494 Q377 483 377 481 Q377 251 601 251 Q711 251 766 306 Q816 356 816 430 Q816 607 584 607 Q558 607 502 605 L502 831 Q525 827 551 827 Q667 827 721 851 Q799 886 799 974 Q799 1042 747.5 1083 Q696 1124 612 1124 Q415 1124 410 918 L101 918 Z " />
<glyph glyph-name="four" unicode="4" horiz-adv-x="1229" d="M1153 582 L1153 314 L980 314 L980 0 L654 0 L654 314 L72 314 L72 618 L665 1397 L980 1397 L980 582 L1153 582 Z M665 582 L665 784 L664 947 Q664 986 665 1063 Q573 921 545 882 L449 753 L318 582 L367 582 L444 582 L665 582 Z " />
<glyph glyph-name="five" unicode="5" horiz-adv-x="1229" d="M1091 1365 L1091 1086 L495 1086 L472 960 Q461 899 441 832 Q502 888 566 911.5 Q630 935 721 935 Q891 935 1007 848 Q1165 730 1165 485 Q1165 221 965 79 Q826 -20 610 -20 Q361 -20 222 94.5 Q83 209 72 422 L392 422 Q400 340 458.5 292.5 Q517 245 610 245 Q713 245 774 307 Q838 371 838 476 Q838 584 777.5 645 Q717 706 610 706 Q473 706 412 595 L116 595 L247 1365 L1091 1365 Z " />
<glyph glyph-name="six" unicode="6" horiz-adv-x="1229" d="M1132 1015 L826 1015 Q788 1145 652 1145 Q501 1145 439 987 Q417 934 407 867 L397 792 Q463 872 533.5 905 Q604 938 706 938 Q861 938 978 850 Q1061 788 1105.5 691 Q1150 594 1150 477 Q1150 239 983 101 Q836 -21 630 -21 Q450 -21 317 76 Q82 247 82 656 Q82 986 224 1184 Q368 1385 656 1385 Q856 1385 978 1290.5 Q1100 1196 1132 1015 Z M630 697 Q538 697 479.5 633.5 Q421 570 421 470 Q421 379 474 315 Q533 244 628 244 Q723 244 783 314 Q836 378 836 471 Q836 558 791 616 Q729 697 630 697 Z " />
<glyph glyph-name="seven" unicode="7" horiz-adv-x="1229" d="M1098 1365 L1098 1098 Q927 911 819 676 Q746 515 712 358 Q678 201 673 0 L323 0 Q324 251 463 583 Q602 915 774 1080 Q604 1073 557 1073 L126 1073 L126 1365 L1098 1365 Z " />
<glyph glyph-name="eight" unicode="8" horiz-adv-x="1229" d="M324 727 Q243 752 196 803 Q122 882 122 1007 Q122 1192 284 1298 Q416 1385 616 1385 Q841 1385 976 1278 Q1109 1172 1109 1011 Q1109 904 1057 831 Q1005 758 908 727 Q986 707 1035 672 Q1164 581 1164 406 Q1164 197 988 76 Q848 -21 620 -21 Q359 -21 220 87 Q66 205 66 398 Q66 526 133.5 612 Q201 698 324 727 Z M616 1152 Q509 1152 457 1100 Q410 1053 410 989 Q410 911 466.5 865.5 Q523 820 618 820 Q711 820 766 866 Q821 912 821 991 Q821 1066 766 1109 Q711 1152 616 1152 Z M615 612 Q511 612 450.5 559.5 Q390 507 390 418 Q390 327 451.5 273 Q513 219 617 219 Q732 219 788 278 Q842 334 842 416 Q842 504 781 559 Q720 612 615 612 Z " />
<glyph glyph-name="nine" unicode="9" horiz-adv-x="1229" d="M97 351 L403 351 Q435 219 581 219 Q740 219 797 406 Q817 471 829 570 Q784 509 743 483 Q647 423 523 423 Q360 423 244 517 Q78 651 78 884 Q78 1126 247 1264 Q395 1385 599 1385 Q859 1385 1003.5 1208 Q1148 1031 1148 712 Q1148 420 1027 217 Q885 -21 582 -21 Q375 -21 248 76 Q121 173 97 351 Z M602 1120 Q510 1120 451 1056 Q392 992 392 893 Q392 813 431 753 Q490 664 600 664 Q690 664 749 728 Q808 792 808 890 Q808 987 752 1051 Q691 1120 602 1120 Z " />
<glyph glyph-name="colon" unicode="&#x3a;" horiz-adv-x="632" d="M333 359 Q409 359 463 305 Q517 251 517 175 Q517 100 462.5 45.5 Q408 -9 333 -9 Q257 -9 203 45.5 Q149 100 149 177 Q149 251 203.5 305 Q258 359 333 359 Z M333 1000 Q409 1000 463 946 Q517 892 517 816 Q517 741 462.5 686.5 Q408 632 333 632 Q257 632 203 686.5 Q149 741 149 818 Q149 892 203.5 946 Q258 1000 333 1000 Z " />
<glyph glyph-name="semicolon" unicode="&#x3b;" horiz-adv-x="632" d="M176 -182 Q253 -169 299.5 -122 Q346 -75 352 -1 Q331 -6 320 -6 Q247 -6 195 46.5 Q143 99 143 172 Q143 248 194.5 302.5 Q246 357 318 357 Q408 357 464 286.5 Q520 216 520 103 Q520 -82 419 -203 Q372 -260 321 -288 Q270 -316 176 -336 L176 -182 Z M332 1000 Q408 1000 462 946 Q516 892 516 816 Q516 741 461.5 686.5 Q407 632 332 632 Q256 632 202 686.5 Q148 741 148 818 Q148 892 202.5 946 Q257 1000 332 1000 Z " />
<glyph glyph-name="less" unicode="&#x3c;" horiz-adv-x="1024" d="M955 1321 L955 969 L442 691 L953 413 L955 63 L68 545 L68 840 L955 1321 Z " />
<glyph glyph-name="equal" unicode="&#x3d;" horiz-adv-x="1229" d="M116 748 L116 965 L1113 965 L1113 748 L116 748 Z M116 367 L116 584 L1113 584 L1113 367 L116 367 Z " />
<glyph glyph-name="greater" unicode="&#x3e;" horiz-adv-x="1024" d="M68 63 L68 415 L581 693 L70 971 L68 1321 L955 839 L955 544 L68 63 Z " />
<glyph glyph-name="question" unicode="&#x3f;" horiz-adv-x="1146" d="M89 922 Q98 1107 187 1223 Q324 1399 599 1399 Q818 1399 948 1284 Q1078 1169 1078 996 Q1078 882 1024.5 811.5 Q971 741 813 646 Q761 615 741 574.5 Q721 534 718 455 L414 455 Q415 467 417 553 Q420 648 458.5 707.5 Q497 767 603 837 Q657 872 670.5 883.5 Q684 895 698 916 Q726 956 726 1002 Q726 1055 689 1088.5 Q652 1122 592 1122 Q508 1122 469 1075 Q430 1028 427 922 L89 922 Z M563 356 Q639 356 693 302 Q747 248 747 172 Q747 97 692.5 42.5 Q638 -12 563 -12 Q487 -12 433 42.5 Q379 97 379 174 Q379 248 433.5 302 Q488 356 563 356 Z " />
<glyph glyph-name="at" unicode="&#x40;" horiz-adv-x="1759" d="M1195 87 L1277 -106 Q1077 -209 856 -209 Q681 -209 525 -140 Q377 -74 267 34.5 Q157 143 103 277 Q37 438 37 613 Q37 813 128 989 Q271 1270 563 1382 Q707 1438 874 1438 Q1222 1438 1453 1198 Q1598 1047 1656 831 Q1684 725 1684 619 Q1684 469 1619 343 Q1517 146 1267 146 Q1093 146 1033 247 Q929 153 753 153 Q636 153 557 198 Q434 268 434 423 Q434 548 524 616 Q577 655 631 669 Q713 690 854 705 Q938 715 967.5 728 Q997 741 997 769 Q997 811 971 828.5 Q945 846 881 846 Q763 846 747 781 Q747 779 740 737 L457 737 L459 754 Q472 852 502 899 Q602 1058 893 1058 Q1065 1058 1164 1001 Q1278 935 1278 802 L1278 409 Q1278 380 1287 369 Q1296 358 1320 358 Q1366 358 1395 397 Q1419 429 1434.5 494.5 Q1450 560 1450 628 Q1450 868 1299 1032 Q1133 1211 875 1211 Q622 1211 448 1039 Q272 865 272 612 Q272 330 465 163 Q640 12 859 12 Q1020 12 1195 87 Z M997 545 Q946 529 885 523 Q789 512 752.5 493 Q716 474 716 434 Q716 364 830 364 Q997 364 997 505 L997 545 Z " />
<glyph glyph-name="A" unicode="A" horiz-adv-x="1370" d="M866 1365 L1377 0 L1008 0 L920 250 L447 250 L358 0 L-7 0 L505 1365 L866 1365 Z M838 505 L774 691 Q717 856 686 998 Q646 848 591 687 L528 505 L838 505 Z " />
<glyph glyph-name="B" unicode="B" horiz-adv-x="1392" d="M126 1365 L781 1365 Q981 1365 1084 1314 Q1166 1274 1213 1195.5 Q1260 1117 1260 1023 Q1260 839 1082 746 Q1161 717 1199 688 Q1326 592 1326 409 Q1326 182 1143 71 Q1027 0 823 0 L126 0 L126 1365 Z M482 1093 L482 829 L736 829 Q914 829 914 959 Q914 1029 869.5 1061 Q825 1093 727 1093 L482 1093 Z M482 596 L482 280 L763 280 Q869 280 914 316 Q964 357 964 437 Q964 519 913.5 557.5 Q863 596 755 596 L482 596 Z " />
<glyph glyph-name="C" unicode="C" horiz-adv-x="1424" d="M1377 532 Q1363 317 1230 163 Q1060 -34 746 -34 Q411 -34 225 198 Q67 395 67 685 Q67 983 249 1188 Q436 1399 758 1399 Q1048 1399 1227 1206 Q1357 1066 1368 883 L1020 883 Q1001 977 957 1025 Q882 1106 752 1106 Q578 1106 494 962 Q429 850 429 683 Q429 507 495 399 Q581 259 749 259 Q985 259 1020 532 L1377 532 Z " />
<glyph glyph-name="D" unicode="D" horiz-adv-x="1451" d="M126 1365 L708 1365 Q1008 1365 1177 1213 Q1277 1122 1330.5 987.5 Q1384 853 1384 693 Q1384 347 1190 159 Q1080 52 938 22 Q834 0 707 0 L126 0 L126 1365 Z M482 1071 L482 294 L678 294 Q767 294 825.5 314 Q884 334 925 380 Q1022 485 1022 681 Q1022 903 890 1004 Q802 1071 653 1071 L482 1071 Z " />
<glyph glyph-name="E" unicode="E" horiz-adv-x="1312" d="M1220 1365 L1220 1071 L482 1071 L482 845 L1155 845 L1155 565 L482 565 L482 294 L1236 294 L1236 0 L126 0 L126 1365 L1220 1365 Z " />
<glyph glyph-name="F" unicode="F" horiz-adv-x="1170" d="M1135 1365 L1135 1071 L482 1071 L482 806 L1048 806 L1048 526 L482 526 L482 0 L126 0 L126 1365 L1135 1365 Z " />
<glyph glyph-name="G" unicode="G" horiz-adv-x="1486" d="M1380 743 L1380 0 L1152 0 Q1133 86 1133 127 Q1133 134 1133 148 Q988 -34 722 -34 Q402 -34 221 195 Q67 391 67 680 Q67 1003 268 1208 Q456 1399 759 1399 Q1038 1399 1211 1220 Q1340 1087 1361 902 L1016 902 Q993 1000 925.5 1052.5 Q858 1105 754 1105 Q598 1105 513.5 993.5 Q429 882 429 676 Q429 492 500 389 Q589 260 770 260 Q889 260 963 319 Q1037 378 1055 488 L807 488 L807 743 L1380 743 Z " />
<glyph glyph-name="H" unicode="H" horiz-adv-x="1427" d="M1303 1365 L1303 0 L947 0 L947 564 L482 564 L482 0 L126 0 L126 1365 L482 1365 L482 871 L947 871 L947 1365 L1303 1365 Z " />
<glyph glyph-name="I" unicode="I" horiz-adv-x="606" d="M482 1365 L482 0 L126 0 L126 1365 L482 1365 Z " />
<glyph glyph-name="J" unicode="J" horiz-adv-x="1072" d="M969 1365 L969 452 Q969 329 947 254 Q925 179 871 115 Q744 -34 494 -34 Q194 -34 76 168 Q13 275 13 483 Q13 507 14 542 L340 542 Q340 515 340 506 Q340 362 361 321 Q394 260 481 260 Q553 260 583 300.5 Q613 341 613 436 L613 1365 L969 1365 Z " />
<glyph glyph-name="K" unicode="K" horiz-adv-x="1404" d="M1376 1365 L870 830 L1439 0 L997 0 L630 572 L482 422 L482 0 L126 0 L126 1365 L482 1365 L482 1024 L482 924 L482 830 Q556 931 608 991 L937 1365 L1376 1365 Z " />
<glyph glyph-name="L" unicode="L" horiz-adv-x="1177" d="M1123 307 L1123 0 L126 0 L126 1365 L482 1365 L482 307 L1123 307 Z " />
<glyph glyph-name="M" unicode="M" horiz-adv-x="1777" d="M1654 1365 L1654 0 L1317 0 L1317 307 Q1317 602 1334 1040 Q1261 731 1187 498 L1028 0 L755 0 L595 484 Q492 840 446 1040 Q463 652 463 352 L463 0 L126 0 L126 1365 L638 1365 L785 891 Q849 683 895 417 Q958 724 1010 898 L1151 1365 L1654 1365 Z " />
<glyph glyph-name="N" unicode="N" horiz-adv-x="1433" d="M1310 1365 L1310 0 L963 0 L595 620 L556 689 Q498 791 460 876 Q473 725 473 528 L473 0 L126 0 L126 1365 L486 1365 L825 787 Q926 615 979 501 Q963 703 963 853 L963 1365 L1310 1365 Z " />
<glyph glyph-name="O" unicode="O" horiz-adv-x="1483" d="M754 1399 Q1016 1399 1201 1228 Q1416 1029 1416 682 Q1416 387 1254 193 Q1064 -34 746 -34 Q527 -34 359 78 Q195 188 122 372 Q67 510 67 680 Q67 1024 270 1216 Q464 1399 754 1399 Z M749 1106 Q595 1106 513 991 Q429 873 429 683 Q429 475 522 360 Q559 313 619 286 Q679 259 746 259 Q891 259 969 367 Q1054 486 1054 691 Q1054 881 972 993 Q890 1106 749 1106 Z " />
<glyph glyph-name="P" unicode="P" horiz-adv-x="1316" d="M126 1365 L688 1365 Q841 1365 926 1347.5 Q1011 1330 1079 1284 Q1266 1158 1266 903 Q1266 694 1126 567 Q1061 509 975.5 482.5 Q890 456 765 456 L482 456 L482 0 L126 0 L126 1365 Z M482 1073 L482 736 L716 736 Q821 736 867 775 Q919 818 919 904 Q919 990 867.5 1030 Q816 1070 704 1071 L482 1073 Z " />
<glyph glyph-name="Q" unicode="Q" horiz-adv-x="1477" d="M1411 29 L1247 -140 L1049 50 Q920 -34 726 -34 Q527 -34 366 68 Q224 157 145.5 318.5 Q67 480 67 681 Q67 1006 268 1205 Q464 1399 747 1399 Q893 1399 1021.5 1342 Q1150 1285 1239 1180 Q1410 978 1410 692 Q1410 537 1364 406 Q1318 275 1237 197 L1411 29 Z M993 434 Q1048 520 1048 685 Q1048 873 974 984 Q893 1106 739 1106 Q592 1106 509 989 Q429 877 429 685 Q429 477 524 360 Q606 259 737 259 Q788 259 831 275 L706 394 L864 561 L993 434 Z " />
<glyph glyph-name="R" unicode="R" horiz-adv-x="1428" d="M122 1365 L796 1365 Q1003 1365 1111 1301 Q1199 1249 1247.5 1162.5 Q1296 1076 1296 970 Q1296 857 1239 767 Q1182 677 1086 638 Q1170 614 1223 534 Q1256 483 1268.5 423 Q1281 363 1299 170 Q1311 45 1333 14 L1344 0 L980 0 Q968 27 963 57.5 Q958 88 948 195 Q937 316 925 363.5 Q913 411 883 448 Q833 508 697 508 L478 508 L478 0 L122 0 L122 1365 Z M478 1085 L478 763 L731 763 Q843 763 890 800 Q945 844 945 927 Q945 1008 891.5 1046.5 Q838 1085 726 1085 L478 1085 Z " />
<glyph glyph-name="S" unicode="S" horiz-adv-x="1285" d="M1171 956 L832 956 Q828 1036 770.5 1080 Q713 1124 612 1124 Q525 1124 476.5 1092 Q428 1060 428 1004 Q428 948 477 924 Q518 903 745 845 Q961 790 1058 730 Q1225 626 1225 421 Q1225 200 1052 76 Q900 -34 642 -34 Q276 -34 120 175 Q36 289 32 459 L390 459 Q396 346 459.5 294 Q523 242 655 242 Q863 242 863 381 Q863 446 808.5 478 Q754 510 539 571 Q386 614 314 645 Q242 676 189 721 Q84 811 84 980 Q84 1170 232.5 1284.5 Q381 1399 628 1399 Q883 1399 1024.5 1283.5 Q1166 1168 1171 956 Z " />
<glyph glyph-name="T" unicode="T" horiz-adv-x="1236" d="M1203 1365 L1203 1058 L795 1058 L795 0 L439 0 L439 1058 L33 1058 L33 1365 L1203 1365 Z " />
<glyph glyph-name="U" unicode="U" horiz-adv-x="1398" d="M1295 1365 L1295 552 Q1295 402 1270 310.5 Q1245 219 1182 144 Q1034 -34 702 -34 Q347 -34 199 168 Q148 239 127 325.5 Q106 412 106 557 L106 1365 L462 1365 L462 530 Q462 402 505 342 Q565 259 708 259 Q830 259 884.5 323 Q939 387 939 530 L939 1365 L1295 1365 Z " />
<glyph glyph-name="V" unicode="V" horiz-adv-x="1273" d="M1280 1365 L837 0 L426 0 L-7 1365 L366 1365 L491 968 Q613 556 635 351 Q661 540 783 966 L906 1365 L1280 1365 Z " />
<glyph glyph-name="W" unicode="W" horiz-adv-x="1840" d="M1844 1365 L1469 0 L1113 0 L1005 459 Q978 575 948 761 Q930 876 917 945 Q907 887 889 764 Q866 620 832 465 L729 0 L368 0 L-5 1365 L354 1365 L456 924 Q518 657 551 368 Q590 663 648 919 L750 1365 L1091 1365 L1185 945 Q1252 648 1286 368 Q1327 689 1392 967 L1486 1365 L1844 1365 Z " />
<glyph glyph-name="X" unicode="X" horiz-adv-x="1334" d="M1312 1365 L875 719 L1359 0 L927 0 L758 273 Q702 364 662 457 Q622 372 557 269 L389 0 L-24 0 L465 719 L18 1365 L437 1365 L573 1141 Q633 1041 675 944 Q719 1039 770 1125 L914 1365 L1312 1365 Z " />
<glyph glyph-name="Y" unicode="Y" horiz-adv-x="1269" d="M1315 1365 L812 513 L812 0 L456 0 L456 513 L-46 1365 L359 1365 L517 1075 Q582 955 636 813 Q703 984 766 1096 L916 1365 L1315 1365 Z " />
<glyph glyph-name="Z" unicode="Z" horiz-adv-x="1275" d="M1208 1365 L1208 1091 L680 492 Q638 444 496 298 Q687 307 780 307 L1234 307 L1234 0 L46 0 L46 289 L599 920 Q639 966 748 1063 L496 1058 L88 1058 L88 1365 L1208 1365 Z " />
<glyph glyph-name="bracketleft" unicode="&#x5b;" horiz-adv-x="664" d="M594 1365 L594 1122 L372 1122 L372 -92 L594 -92 L594 -335 L83 -335 L83 1365 L594 1365 Z " />
<glyph glyph-name="backslash" unicode="&#x5c;" horiz-adv-x="906" d="M66 1365 L355 1365 L960 -335 L670 -335 L66 1365 Z " />
<glyph glyph-name="bracketright" unicode="&#x5d;" horiz-adv-x="662" d="M70 -335 L70 -92 L291 -92 L291 1122 L70 1122 L70 1365 L579 1365 L579 -335 L70 -335 Z " />
<glyph glyph-name="asciicircum" unicode="&#x5e;" horiz-adv-x="1024" d="M330 702 L20 702 L316 1374 L708 1374 L1003 702 L693 702 L512 1136 L330 702 Z " />
<glyph glyph-name="underscore" unicode="&#x5f;" horiz-adv-x="1024" d="M0 -106 L1024 -106 L1024 -314 L0 -314 L0 -106 Z " />
<glyph glyph-name="grave" unicode="&#x60;" horiz-adv-x="1024" d="M177 1402 L516 1402 L683 1126 L478 1126 L177 1402 Z " />
<glyph glyph-name="a" unicode="a" horiz-adv-x="1120" d="M1070 202 L1070 7 Q1009 -20 939 -20 Q772 -20 732 94 Q612 -27 406 -27 Q243 -27 151 54 Q59 135 59 277 Q59 428 157 501 Q208 538 276 558.5 Q344 579 467 593 Q619 611 661 631 Q703 651 703 705 Q703 816 551 816 Q435 816 399 751 Q387 729 379 669 L87 669 Q94 739 104 773.5 Q114 808 138 844 Q252 1020 568 1020 Q759 1020 869 956 Q995 883 995 731 L995 265 Q995 222 1003.5 212 Q1012 202 1049 202 L1070 202 Z M703 461 Q660 438 556 426 Q439 411 395 381.5 Q351 352 351 288 Q351 177 503 177 Q703 177 703 383 L703 461 Z " />
<glyph glyph-name="b" unicode="b" horiz-adv-x="1206" d="M438 1365 L438 876 Q554 1020 728 1020 Q882 1020 997 917 Q1149 780 1149 507 Q1149 309 1061 166 Q941 -28 704 -28 Q531 -28 426 117 L426 0 L113 0 L113 1365 L438 1365 Z M626 765 Q530 765 477 691 Q427 620 427 505 Q427 406 464 335 Q514 239 626 239 Q735 239 784 338 Q820 411 820 505 Q820 632 761 702 Q709 765 626 765 Z " />
<glyph glyph-name="c" unicode="c" horiz-adv-x="1121" d="M1074 389 Q1053 237 969 138 Q830 -27 577 -27 Q324 -27 179 137 Q55 278 55 487 Q55 738 216 886 Q357 1017 580 1017 Q845 1017 979 852 Q1056 757 1066 631 L752 631 Q740 701 696 740.5 Q652 780 585 780 Q488 780 436 704.5 Q384 629 384 489 Q384 371 426 301 Q476 216 580 216 Q734 216 760 389 L1074 389 Z " />
<glyph glyph-name="d" unicode="d" horiz-adv-x="1205" d="M1094 1365 L1094 0 L781 0 L781 117 Q679 -27 500 -27 Q294 -27 173 126 Q59 271 59 502 Q59 713 156 850 Q275 1018 483 1018 Q667 1018 769 876 L769 1365 L1094 1365 Z M586 765 Q491 765 441 698 Q388 626 388 500 Q388 378 439 308 Q489 239 584 239 Q679 239 729 307 Q781 378 781 500 Q781 623 728 695 Q677 765 586 765 Z " />
<glyph glyph-name="e" unicode="e" horiz-adv-x="1163" d="M1092 303 Q1068 215 1004 141 Q856 -27 596 -27 Q362 -27 218 102 Q55 249 55 486 Q55 698 183 847 Q330 1017 584 1017 Q836 1017 973.5 861 Q1111 705 1110 419 L374 419 Q377 313 436.5 253 Q496 193 597 193 Q666 193 707.5 217 Q749 241 786 303 L1092 303 Z M790 605 Q783 666 762 703 Q708 797 586 797 Q499 797 445.5 747.5 Q392 698 378 605 L790 605 Z " />
<glyph glyph-name="f" unicode="f" horiz-adv-x="700" d="M685 1362 L685 1133 Q638 1136 601 1136 Q526 1136 502.5 1119 Q479 1102 479 1050 L479 990 L673 990 L673 776 L479 776 L479 0 L154 0 L154 776 L-3 776 L-3 990 L154 990 L154 1035 Q154 1129 173 1185.5 Q192 1242 236 1284 Q327 1368 534 1368 Q581 1368 685 1362 Z " />
<glyph glyph-name="g" unicode="g" horiz-adv-x="1187" d="M1076 990 L1076 131 Q1076 19 1061 -47.5 Q1046 -114 1008 -170 Q887 -351 575 -351 Q131 -351 92 -33 L416 -33 Q432 -92 470 -117 Q508 -142 580 -142 Q681 -142 722 -92 Q763 -42 763 81 L763 189 Q658 50 476 50 Q288 50 174 177 Q58 305 58 529 Q58 745 170 877 Q288 1017 483 1017 Q580 1017 643.5 982.5 Q707 948 763 865 L763 990 L1076 990 Z M575 770 Q467 770 416 688 Q377 626 377 535 Q377 419 429 354 Q481 288 573 288 Q681 288 731 377 Q767 439 767 531 Q767 647 710 712 Q660 770 575 770 Z " />
<glyph glyph-name="h" unicode="h" horiz-adv-x="1205" d="M438 1365 L438 861 Q554 1017 751 1017 Q951 1017 1044 882 Q1103 796 1103 623 L1103 0 L778 0 L778 564 Q778 663 748 700 Q707 751 622 751 Q514 751 464 664 Q438 617 438 495 L438 0 L113 0 L113 1365 L438 1365 Z " />
<glyph glyph-name="i" unicode="i" horiz-adv-x="547" d="M273 1418 Q349 1418 403 1364 Q457 1310 457 1234 Q457 1159 402.5 1104.5 Q348 1050 273 1050 Q197 1050 143 1104.5 Q89 1159 89 1236 Q89 1310 143.5 1364 Q198 1418 273 1418 Z M437 990 L437 0 L112 0 L112 990 L437 990 Z " />
<glyph glyph-name="j" unicode="j" horiz-adv-x="547" d="M438 990 L438 11 Q438 -99 427 -142 Q398 -249 318 -295 Q238 -341 80 -341 Q33 -341 -55 -337 L-55 -77 Q-38 -75 16 -74 Q91 -73 106 -21 Q113 3 113 137 L113 990 L438 990 Z M274 1418 Q350 1418 404 1364 Q458 1310 458 1234 Q458 1159 403.5 1104.5 Q349 1050 274 1050 Q198 1050 144 1104.5 Q90 1159 90 1236 Q90 1310 144.5 1364 Q199 1418 274 1418 Z " />
<glyph glyph-name="k" unicode="k" horiz-adv-x="1145" d="M1114 990 L751 619 L1165 0 L775 0 L529 401 L438 317 L438 0 L113 0 L113 1365 L438 1365 L438 653 Q476 711 507 744 L739 990 L1114 990 Z " />
<glyph glyph-name="l" unicode="l" horiz-adv-x="547" d="M437 1365 L437 0 L112 0 L112 1365 L437 1365 Z " />
<glyph glyph-name="m" unicode="m" horiz-adv-x="1772" d="M426 990 L426 858 Q535 1018 731 1018 Q928 1018 1010 858 Q1130 1017 1323 1017 Q1485 1017 1577 921.5 Q1669 826 1669 659 L1669 0 L1344 0 L1344 575 Q1344 658 1322 694 Q1286 751 1208 751 Q1114 751 1074 675 Q1054 636 1054 543 L1054 0 L729 0 L729 587 Q729 662 709 696 Q676 752 599 752 Q519 752 478.5 699.5 Q438 647 438 544 L438 0 L113 0 L113 990 L426 990 Z " />
<glyph glyph-name="n" unicode="n" horiz-adv-x="1201" d="M425 990 L425 859 Q542 1017 750 1017 Q872 1017 963 958 Q1038 908 1068 831.5 Q1098 755 1098 614 L1098 0 L773 0 L773 561 Q773 638 757 677 Q726 751 622 751 Q569 751 525.5 727.5 Q482 704 461 664 Q437 619 437 529 L437 0 L112 0 L112 990 L425 990 Z " />
<glyph glyph-name="o" unicode="o" horiz-adv-x="1157" d="M578 1017 Q811 1017 956 875 Q1102 732 1102 499 Q1102 262 955 117 Q809 -27 572 -27 Q342 -27 195 123 Q55 268 55 497 Q55 726 196 867 Q345 1017 578 1017 Z M579 779 Q485 779 434.5 705.5 Q384 632 384 495 Q384 362 432 290 Q484 211 579 211 Q672 211 722.5 285.5 Q773 360 773 498 Q773 627 728 697 Q674 779 579 779 Z " />
<glyph glyph-name="p" unicode="p" horiz-adv-x="1205" d="M426 990 L426 874 Q530 1017 716 1017 Q915 1017 1036 862 Q1148 718 1148 488 Q1148 272 1049 135 Q931 -28 726 -28 Q547 -28 438 114 L438 -335 L113 -335 L113 990 L426 990 Z M626 751 Q530 751 478.5 682 Q427 613 427 486 Q427 362 478 295 Q530 225 625 225 Q717 225 767 292 Q819 360 819 486 Q819 612 768 682 Q717 751 626 751 Z " />
<glyph glyph-name="q" unicode="q" horiz-adv-x="1206" d="M1095 990 L1095 -335 L770 -335 L770 116 Q661 -28 484 -28 Q273 -28 155 139 Q59 275 59 487 Q59 723 176 868 Q296 1017 493 1017 Q682 1017 783 876 L783 990 L1095 990 Z M582 751 Q485 751 437 678 Q388 604 388 480 Q388 359 438.5 292 Q489 225 582 225 Q679 225 729 297 Q780 369 780 489 Q780 614 728 682 Q676 751 582 751 Z " />
<glyph glyph-name="r" unicode="r" horiz-adv-x="810" d="M809 1003 L809 712 Q731 732 684 732 Q546 732 477 625 Q438 562 438 431 L438 0 L113 0 L113 990 L426 990 L426 821 Q529 1019 734 1019 Q777 1019 809 1003 Z " />
<glyph glyph-name="s" unicode="s" horiz-adv-x="1039" d="M955 702 L656 702 Q646 764 609.5 790 Q573 816 496 816 Q367 816 367 737 Q367 694 408 674.5 Q449 655 598 627 Q788 590 878 533 Q986 463 986 315 Q986 156 862 66 Q733 -27 510 -27 Q246 -27 121 97 Q38 179 26 326 L335 326 Q343 253 386 219.5 Q429 186 514 186 Q584 186 625 213 Q666 240 666 287 Q666 331 629 351 Q592 371 458 400 Q331 428 273 446 Q215 464 169 489 Q112 522 79.5 580 Q47 638 47 710 Q47 864 176 945 Q290 1017 501 1017 Q771 1017 885 890 Q945 823 955 702 Z " />
<glyph glyph-name="t" unicode="t" horiz-adv-x="717" d="M679 990 L679 776 L475 776 L475 369 Q475 290 489 267 Q511 230 600 230 Q632 230 679 234 L679 -6 Q580 -14 499 -14 Q378 -14 310 8 Q242 30 202 82 Q170 123 160 173.5 Q150 224 150 338 L150 776 L-15 776 L-15 990 L150 990 L150 1292 L475 1292 L475 990 L679 990 Z " />
<glyph glyph-name="u" unicode="u" horiz-adv-x="1201" d="M1092 990 L1092 0 L779 0 L779 133 Q667 -27 457 -27 Q268 -27 173 97 Q106 184 106 371 L106 990 L431 990 L431 461 Q431 334 455 297 Q493 239 585 239 Q698 239 745 331 Q767 376 767 493 L767 990 L1092 990 Z " />
<glyph glyph-name="v" unicode="v" horiz-adv-x="1012" d="M1027 990 L698 0 L321 0 L-15 990 L328 990 L430 647 Q487 458 511 291 Q532 427 592 632 L698 990 L1027 990 Z " />
<glyph glyph-name="w" unicode="w" horiz-adv-x="1571" d="M1584 990 L1274 0 L945 0 L846 378 Q812 509 784 707 Q751 498 722 378 L629 0 L298 0 L-13 990 L323 990 L410 663 Q451 511 487 287 Q526 526 562 676 L636 990 L937 990 L1021 641 Q1062 472 1089 287 Q1123 500 1158 635 L1251 990 L1584 990 Z " />
<glyph glyph-name="x" unicode="x" horiz-adv-x="993" d="M985 990 L672 524 L1025 0 L667 0 L561 167 Q541 198 498 300 Q459 216 426 164 L325 0 L-32 0 L316 524 L1 990 L358 990 L436 865 Q452 840 498 745 Q551 845 569 875 L638 990 L985 990 Z " />
<glyph glyph-name="y" unicode="y" horiz-adv-x="1029" d="M1043 990 L683 -10 Q635 -142 595.5 -201.5 Q556 -261 492 -296 Q413 -340 268 -340 Q224 -340 82 -338 L82 -77 Q102 -77 115 -77 Q159 -78 198 -78 Q270 -78 298 -36 Q307 -22 317 10.5 Q327 43 327 61 Q327 71 322 85 L-16 990 L329 990 L466 551 Q491 469 520 321 Q557 487 580 563 L711 990 L1043 990 Z " />
<glyph glyph-name="z" unicode="z" horiz-adv-x="1017" d="M959 990 L959 744 L616 384 Q601 369 451 246 Q494 243 513 243 L608 246 L997 246 L997 0 L48 0 L48 246 L384 592 Q422 631 561 744 L515 744 L446 744 L89 744 L89 990 L959 990 Z " />
<glyph glyph-name="braceleft" unicode="&#x7b;" horiz-adv-x="773" d="M307 515 Q375 471 401 416.5 Q427 362 427 261 L427 129 Q429 26 436 -7.5 Q443 -41 468 -63 Q501 -92 601 -92 L630 -92 L630 -335 L617 -335 Q369 -332 328 -327.5 Q287 -323 239 -291 Q185 -255 161.5 -196 Q138 -137 138 -40 L138 200 Q138 292 112.5 335.5 Q87 379 25 393 L25 637 Q86 653 112 697.5 Q138 742 138 829 L138 1076 Q138 1256 239 1322 Q288 1353 328.5 1357.5 Q369 1362 617 1365 L630 1365 L630 1122 L600 1122 Q495 1122 463 1086 Q441 1061 434.5 1025 Q428 989 427 885 L427 767 Q427 666 402 613.5 Q377 561 307 515 Z " />
<glyph glyph-name="bar" unicode="&#x7c;" horiz-adv-x="1024" d="M334 1365 L690 1365 L690 -341 L334 -341 L334 1365 Z " />
<glyph glyph-name="braceright" unicode="&#x7d;" horiz-adv-x="773" d="M465 515 Q397 559 371 613.5 Q345 668 345 769 L345 901 Q343 1005 336 1038 Q329 1071 304 1093 Q271 1122 172 1122 L143 1122 L143 1365 L156 1365 Q403 1362 444 1357.5 Q485 1353 533 1321 Q587 1285 610.5 1226 Q634 1167 634 1070 L634 830 Q634 738 660 694.5 Q686 651 748 637 L748 393 Q686 377 660 332.5 Q634 288 634 201 L634 -46 Q634 -227 533 -292 Q484 -323 443.5 -327.5 Q403 -332 156 -335 L143 -335 L143 -92 L172 -92 Q277 -92 309 -56 Q331 -30 337.5 5 Q344 40 345 145 L345 263 Q345 364 370 416.5 Q395 469 465 515 Z " />
<glyph glyph-name="asciitilde" unicode="&#x7e;" horiz-adv-x="1365" d="M359 1112 L189 1255 Q226 1350 273 1417 Q365 1550 503 1550 Q540 1550 588 1536 Q636 1522 731 1484 Q846 1438 878 1438 Q950 1438 1012 1556 L1182 1413 Q1124 1272 1063 1207 Q982 1121 861 1121 Q817 1121 777.5 1132.5 Q738 1144 632 1188 Q531 1230 489 1230 Q452 1230 423 1203.5 Q394 1177 359 1112 Z " />
<glyph glyph-name="nbspace" unicode="&#xa0;" horiz-adv-x="512" d="" />
<glyph glyph-name="exclamdown" unicode="&#xa1;" horiz-adv-x="687" d="M323 1002 Q399 1002 453 948 Q507 894 507 818 Q507 743 452.5 688.5 Q398 634 323 634 Q247 634 193 688.5 Q139 743 139 820 Q139 894 193.5 948 Q248 1002 323 1002 Z M403 535 L493 -33 L493 -375 L153 -375 L153 -38 L243 535 L403 535 Z " />
<glyph glyph-name="cent" unicode="&#xa2;" horiz-adv-x="1229" d="M700 1194 Q820 1184 904 1150 Q1007 1108 1071.5 1017 Q1136 926 1145 808 L845 808 Q828 942 700 962 L700 399 Q834 426 845 583 L1151 583 Q1137 452 1076 359 Q1015 267 924.5 219.5 Q834 172 700 161 L700 -40 L573 -40 L573 161 L566 162 Q394 178 285 267 Q104 413 104 672 Q104 907 248 1050 Q373 1173 573 1192 L573 1378 L700 1378 L700 1194 Z M573 403 L573 955 Q503 936 464 873 Q418 799 418 681 Q418 572 459.5 497.5 Q501 423 573 403 Z " />
<glyph glyph-name="sterling" unicode="&#xa3;" horiz-adv-x="1229" d="M1140 922 L826 922 Q823 1121 658 1121 Q595 1121 554 1082.5 Q513 1044 513 985 Q513 937 541 870 Q573 797 581 773 L836 773 L836 578 L639 578 Q652 523 652 495 Q652 368 520 256 Q594 287 665 287 Q710 287 787 266 Q856 247 890 247 Q992 247 1061 341 L1192 104 Q1136 43 1051 8.5 Q966 -26 870 -26 Q813 -26 776 -19.5 Q739 -13 629 16 Q525 43 463 43 Q364 43 257 -35 L126 163 Q220 233 256 275 Q333 366 333 466 Q333 514 308 578 L108 578 L108 773 L235 773 Q163 872 163 1001 Q163 1175 296.5 1280 Q430 1385 650 1385 Q943 1385 1069 1193 Q1136 1091 1140 922 Z " />
<glyph glyph-name="currency" unicode="&#xa4;" horiz-adv-x="1365" d="M68 203 L262 398 Q196 514 196 641 Q196 756 268 889 L69 1087 L236 1255 L440 1053 Q570 1119 683 1119 Q794 1119 922 1055 L1123 1253 L1289 1087 L1094 892 Q1169 766 1169 639 Q1169 525 1103 398 L1297 205 L1131 37 L938 229 Q814 155 691 155 Q564 155 428 229 L234 38 L68 203 Z M686 853 Q597 853 535 792 Q473 730 473 641 Q473 555 535 492 Q597 430 683 430 Q770 430 832 492 Q894 554 894 642 Q894 731 832 791 Q768 853 686 853 Z " />
<glyph glyph-name="yen" unicode="&#xa5;" horiz-adv-x="1229" d="M279 864 L32 1365 L377 1365 L504 1100 Q564 976 613 831 Q675 1007 732 1123 L852 1365 L1194 1365 L945 864 L1126 864 L1126 700 L861 700 L774 523 L774 472 L1071 472 L1071 308 L774 308 L774 0 L448 0 L448 308 L155 308 L155 472 L448 472 L448 523 L362 700 L100 700 L100 864 L279 864 Z " />
<glyph glyph-name="brokenbar" unicode="&#xa6;" horiz-adv-x="1024" d="M334 1365 L690 1365 L690 634 L334 634 L334 1365 Z M334 314 L690 314 L690 -341 L334 -341 L334 314 Z " />
<glyph glyph-name="section" unicode="&#xa7;" horiz-adv-x="1229" d="M1033 1002 L764 1002 Q757 1133 633 1133 Q580 1133 548 1106.5 Q516 1080 516 1036 Q516 995 546.5 969 Q577 943 682 894 Q923 781 988 739 Q1129 647 1129 496 Q1129 401 1078.5 328 Q1028 255 940 224 Q1036 136 1036 13 Q1036 -153 903 -253 Q794 -335 616 -335 Q415 -335 305 -235.5 Q195 -136 193 49 L462 49 Q467 -8 486 -36 Q525 -94 614 -94 Q672 -94 706.5 -65 Q741 -36 741 14 Q741 67 697 100 Q653 133 479 211 Q242 316 183 380 Q102 468 102 584 Q102 681 153.5 752 Q205 823 298 855 Q222 936 222 1042 Q222 1172 322 1261 Q437 1365 631 1365 Q859 1365 966 1213 Q1030 1121 1033 1002 Z M447 710 Q410 703 388.5 677 Q367 651 367 614 Q367 573 411.5 541.5 Q456 510 647 418 Q697 394 709 388 Q752 366 784 356 Q821 366 842.5 392 Q864 418 864 454 Q864 488 842 509.5 Q820 531 748 566 Q731 575 692 596 Q516 689 447 710 Z " />
<glyph glyph-name="dieresis" unicode="&#xa8;" horiz-adv-x="1024" d="M715 1442 Q790 1442 844.5 1388 Q899 1334 899 1258 Q899 1183 844.5 1128.5 Q790 1074 715 1074 Q639 1074 585 1128.5 Q531 1183 531 1260 Q531 1334 585.5 1388 Q640 1442 715 1442 Z M308 1442 Q383 1442 437.5 1388 Q492 1334 492 1258 Q492 1183 437.5 1128.5 Q383 1074 308 1074 Q232 1074 178 1128.5 Q124 1183 124 1260 Q124 1334 178.5 1388 Q233 1442 308 1442 Z " />
<glyph glyph-name="copyright" unicode="&#xa9;" horiz-adv-x="1561" d="M1148 606 Q1137 478 1064 392 Q964 275 783 275 Q591 275 483 409 Q393 520 393 689 Q393 872 503.5 987 Q614 1102 789 1102 Q957 1102 1059 991 Q1134 909 1141 804 L983 804 Q967 860 916.5 891.5 Q866 923 791 923 Q691 923 641 843 Q602 780 602 687 Q602 579 652.5 516.5 Q703 454 790 454 Q873 454 924.5 493.5 Q976 533 988 606 L1148 606 Z M792 1399 Q984 1399 1154 1293 Q1325 1187 1416 1008 Q1494 854 1494 682 Q1494 481 1389 309 Q1285 137 1107 45 Q954 -34 782 -34 Q583 -34 411 70 Q238 175 146 356 Q67 510 67 681 Q67 885 173 1059 Q276 1229 460 1322 Q611 1399 792 1399 Z M790 1250 Q555 1250 392 1086 Q229 920 229 682 Q229 446 393 280 Q555 115 782 115 Q1010 115 1171 281 Q1332 447 1332 683 Q1332 842 1251 980 Q1172 1114 1033 1188 Q917 1250 790 1250 Z " />
<glyph glyph-name="ordfeminine" unicode="&#xaa;" horiz-adv-x="819" d="M698 819 L499 819 Q493 840 489 864 Q417 804 311 804 Q219 804 167 845 Q108 892 108 974 Q108 1076 202 1117 Q244 1135 344 1149 Q444 1162 465 1170.5 Q486 1179 486 1206 Q486 1259 407 1259 Q361 1259 341.5 1244.5 Q322 1230 316 1191 L133 1191 Q141 1380 407 1380 Q548 1380 617 1331 Q651 1307 663.5 1276.5 Q676 1246 676 1188 L674 1082 Q673 995 673 973 Q673 913 678 883.5 Q683 854 698 819 Z M486 1068 Q461 1056 402 1045 Q344 1036 324.5 1022.5 Q305 1009 305 980 Q305 922 374 922 Q428 922 457 950 Q486 978 486 1031 L486 1068 Z M735 573 L85 573 L85 696 L735 696 L735 573 Z " />
<glyph glyph-name="guillemotleft" unicode="&#xab;" horiz-adv-x="894" d="M785 899 L785 634 L624 506 L785 376 L785 119 L479 358 L479 658 L785 899 Z M386 899 L386 634 L226 506 L386 376 L386 119 L82 358 L82 658 L386 899 Z " />
<glyph glyph-name="logicalnot" unicode="&#xac;" horiz-adv-x="1024" d="M610 0 L610 293 L68 293 L68 603 L955 603 L955 0 L610 0 Z " />
<glyph glyph-name="uni00AD" unicode="&#xad;" horiz-adv-x="519" d="M519 647 L519 363 L0 363 L0 647 L519 647 Z " />
<glyph glyph-name="registered" unicode="&#xae;" horiz-adv-x="1076" d="M497 1110 L497 1042 L560 1042 Q597 1042 597 1078 Q597 1110 560 1110 L497 1110 Z M672 984 Q699 960 708 936 Q717 912 720 854 Q723 802 739 772 L597 772 Q586 800 582 853 Q579 922 543 923 L497 923 L497 772 L355 772 L355 1218 L589 1218 Q650 1218 687.5 1182 Q725 1146 725 1087 Q725 1053 715 1033 Q705 1013 672 984 Z M538 1327 Q399 1327 308 1235 Q212 1137 212 989 Q212 839 308 743 Q400 652 538 652 Q677 652 767 742 Q862 839 862 986 Q862 1139 767 1236 Q677 1327 538 1327 Z M538 1459 Q734 1459 867 1326 Q1002 1191 1002 989 Q1002 789 867 653 Q733 519 538 519 Q340 519 207 653 Q72 790 72 994 Q72 1189 207 1326 Q339 1459 538 1459 Z " />
<glyph glyph-name="overscore" unicode="&#xaf;" horiz-adv-x="1024" d="M826 1342 L826 1184 L198 1184 L198 1342 L826 1342 Z " />
<glyph glyph-name="degree" unicode="&#xb0;" horiz-adv-x="829" d="M416 1384 Q561 1384 663 1276 Q754 1181 754 1041 Q754 901 651 802 Q552 706 416 706 Q264 706 163 817 Q75 913 75 1043 Q75 1118 106 1187 Q137 1256 191 1301 Q290 1384 416 1384 Z M412 1241 Q340 1241 286 1189 Q222 1128 222 1045 Q222 973 269 917 Q326 849 414 849 Q491 849 549 906 Q607 963 607 1040 Q607 1123 554 1178 Q494 1241 412 1241 Z " />
<glyph glyph-name="plusminus" unicode="&#xb1;" horiz-adv-x="1229" d="M116 554 L116 778 L502 778 L502 1165 L726 1165 L726 778 L1113 778 L1113 554 L726 554 L726 223 L502 223 L502 554 L116 554 Z M116 -55 L116 169 L1113 169 L1113 -55 L116 -55 Z " />
<glyph glyph-name="twosuperior" unicode="&#xb2;" horiz-adv-x="833" d="M767 724 L767 547 L58 547 Q58 556 58 562 Q58 693 153 783 Q194 822 234 848 Q274 874 418 958 Q485 998 507 1023 Q529 1048 529 1085 Q529 1125 499 1149.5 Q469 1174 419 1174 Q354 1174 324 1137 Q294 1100 291 1016 L77 1016 Q78 1105 92.5 1155 Q107 1205 145 1248 Q241 1357 427 1357 Q571 1357 659 1291 Q756 1220 756 1104 Q756 986 650 906 Q613 879 491 813 Q368 747 335 718 Q426 724 495 724 L767 724 Z " />
<glyph glyph-name="threesuperior" unicode="&#xb3;" horiz-adv-x="833" d="M74 1075 Q77 1184 136 1253 Q227 1357 414 1357 Q562 1357 648 1298 Q742 1233 742 1129 Q742 1023 640 977 Q771 932 771 799 Q771 680 673 607 Q575 534 414 534 Q224 534 130 626 Q51 703 51 818 Q51 827 52 844 L268 844 Q268 788 285 760 Q317 707 405 707 Q467 707 502.5 732.5 Q538 758 538 802 Q538 896 394 896 Q377 896 335 894 L335 1039 Q356 1036 375 1036 Q455 1036 491.5 1054.5 Q528 1073 528 1113 Q528 1148 496.5 1169.5 Q465 1191 413 1191 Q291 1191 289 1075 L74 1075 Z " />
<glyph glyph-name="acute" unicode="&#xb4;" horiz-adv-x="1024" d="M847 1402 L546 1126 L341 1126 L508 1402 L847 1402 Z " />
<glyph glyph-name="mu" unicode="&#xb5;" horiz-adv-x="1024" d="M51 -351 L51 983 L350 983 L350 482 Q350 365 376 318 Q424 230 515 230 Q675 230 675 486 L675 983 L974 983 L974 0 L675 0 L675 122 Q623 -19 510 -19 Q410 -19 350 96 L350 -351 L51 -351 Z " />
<glyph glyph-name="paragraph" unicode="&#xb6;" horiz-adv-x="1229" d="M489 -335 L489 659 Q474 659 463 659 Q398 659 331 681 Q264 703 218 739 Q99 831 99 1007 Q99 1126 157 1213 Q226 1317 373 1351 Q436 1365 569 1365 L1089 1365 L1089 1228 L995 1228 L995 -335 L820 -335 L820 1228 L664 1228 L664 -335 L489 -335 Z " />
<glyph glyph-name="periodcentered" unicode="&#xb7;" horiz-adv-x="598" d="M299 693 Q375 693 429 639 Q483 585 483 509 Q483 434 428.5 379.5 Q374 325 299 325 Q223 325 169 379.5 Q115 434 115 511 Q115 585 169.5 639 Q224 693 299 693 Z " />
<glyph glyph-name="cedilla" unicode="&#xb8;" horiz-adv-x="1024" d="M575 0 L501 -122 Q552 -112 579 -112 Q655 -112 702.5 -151.5 Q750 -191 750 -254 Q750 -332 683.5 -381 Q617 -430 513 -430 Q400 -430 278 -382 L317 -297 Q415 -333 480 -333 Q571 -333 571 -264 Q571 -233 547.5 -213.5 Q524 -194 487 -194 Q458 -194 413 -209 L370 -169 L478 0 L575 0 Z " />
<glyph glyph-name="onesuperior" unicode="&#xb9;" horiz-adv-x="833" d="M605 1345 L605 546 L366 546 L366 1028 L319 1028 L255 1028 L197 1028 L160 1028 L160 1184 Q398 1182 415 1345 L605 1345 Z " />
<glyph glyph-name="ordmasculine" unicode="&#xba;" horiz-adv-x="819" d="M735 573 L85 573 L85 696 L735 696 L735 573 Z M410 1380 Q544 1380 627 1302 Q712 1222 712 1095 Q712 964 627 883 Q543 804 406 804 Q273 804 189 887 Q108 967 108 1093 Q108 1219 189 1297 Q274 1380 410 1380 Z M411 1241 Q306 1241 306 1093 Q306 943 411 943 Q515 943 515 1094 Q515 1164 487.5 1202.5 Q460 1241 411 1241 Z " />
<glyph glyph-name="guillemotright" unicode="&#xbb;" horiz-adv-x="894" d="M109 899 L413 658 L413 358 L109 119 L109 376 L269 506 L109 634 L109 899 Z M506 899 L812 658 L812 358 L506 119 L506 376 L667 506 L506 634 L506 899 Z " />
<glyph glyph-name="onequarter" unicode="&#xbc;" horiz-adv-x="1958" d="M605 1345 L605 546 L366 546 L366 1028 L319 1028 L255 1028 L197 1028 L160 1028 L160 1184 Q398 1182 415 1345 L605 1345 Z M1414 1345 L712 0 L543 0 L1247 1345 L1414 1345 Z M1901 348 L1901 176 L1789 176 L1789 0 L1569 0 L1569 176 L1184 176 L1184 364 L1574 799 L1789 799 L1789 348 L1901 348 Z M1579 341 L1579 599 L1359 341 L1579 341 Z " />
<glyph glyph-name="onehalf" unicode="&#xbd;" horiz-adv-x="1958" d="M605 1345 L605 546 L366 546 L366 1028 L319 1028 L255 1028 L197 1028 L160 1028 L160 1184 Q398 1182 415 1345 L605 1345 Z M1414 1345 L712 0 L543 0 L1247 1345 L1414 1345 Z M1891 177 L1891 0 L1182 0 Q1182 9 1182 15 Q1182 147 1277 236 Q1319 275 1359.5 302 Q1400 329 1542 412 Q1607 450 1630 476 Q1653 502 1653 539 Q1653 579 1623 603.5 Q1593 628 1543 628 Q1478 628 1448 591 Q1418 554 1415 470 L1201 470 Q1202 562 1216.5 610.5 Q1231 659 1269 702 Q1365 811 1551 811 Q1695 811 1783 745 Q1880 673 1880 558 Q1880 439 1774 359 Q1739 333 1614 266 Q1494 201 1459 171 Q1553 177 1619 177 L1891 177 Z " />
<glyph glyph-name="threequarters" unicode="&#xbe;" horiz-adv-x="1957" d="M74 1075 Q77 1184 136 1253 Q227 1357 414 1357 Q562 1357 648 1298 Q742 1233 742 1129 Q742 1023 640 977 Q771 932 771 799 Q771 680 673 607 Q575 534 414 534 Q224 534 130 626 Q51 703 51 818 Q51 827 52 844 L268 844 Q268 788 285 760 Q317 707 405 707 Q467 707 502.5 732.5 Q538 758 538 802 Q538 896 394 896 Q377 896 335 894 L335 1039 Q356 1036 375 1036 Q455 1036 491.5 1054.5 Q528 1073 528 1113 Q528 1148 496.5 1169.5 Q465 1191 413 1191 Q291 1191 289 1075 L74 1075 Z M1414 1345 L712 0 L543 0 L1247 1345 L1414 1345 Z M1900 348 L1900 176 L1788 176 L1788 0 L1568 0 L1568 176 L1183 176 L1183 364 L1573 799 L1788 799 L1788 348 L1900 348 Z M1578 341 L1578 599 L1358 341 L1578 341 Z " />
<glyph glyph-name="questiondown" unicode="&#xbf;" horiz-adv-x="1142" d="M580 1002 Q656 1002 710 948 Q764 894 764 818 Q764 743 709.5 688.5 Q655 634 580 634 Q504 634 450 688.5 Q396 743 396 820 Q396 894 450.5 948 Q505 1002 580 1002 Z M729 534 Q730 512 730 505 Q730 368 688 289 Q669 253 638.5 224.5 Q608 196 541 151 Q467 102 446 72 Q418 32 418 -10 Q418 -64 456.5 -99 Q495 -134 554 -134 Q718 -134 718 68 L1053 68 Q1046 -116 957 -231 Q819 -410 546 -410 Q326 -410 195 -291 Q68 -176 68 -6 Q68 136 160 221 Q211 268 335 345 Q384 375 404 416.5 Q424 458 428 534 L729 534 Z " />
<glyph glyph-name="Agrave" unicode="&#xc0;" horiz-adv-x="1370" d="M866 1365 L1377 0 L1008 0 L920 250 L447 250 L358 0 L-7 0 L505 1365 L866 1365 Z M838 505 L774 691 Q717 856 686 998 Q646 848 591 687 L528 505 L838 505 Z M282 1750 L648 1750 L843 1488 L609 1488 L282 1750 Z " />
<glyph glyph-name="Aacute" unicode="&#xc1;" horiz-adv-x="1370" d="M866 1365 L1377 0 L1008 0 L920 250 L447 250 L358 0 L-7 0 L505 1365 L866 1365 Z M838 505 L774 691 Q717 856 686 998 Q646 848 591 687 L528 505 L838 505 Z M1082 1750 L755 1488 L521 1488 L715 1750 L1082 1750 Z " />
<glyph glyph-name="Acircumflex" unicode="&#xc2;" horiz-adv-x="1370" d="M866 1365 L1377 0 L1008 0 L920 250 L447 250 L358 0 L-7 0 L505 1365 L866 1365 Z M838 505 L774 691 Q717 856 686 998 Q646 848 591 687 L528 505 L838 505 Z M1053 1488 L806 1488 L682 1629 L557 1488 L317 1488 L545 1750 L828 1750 L1053 1488 Z " />
<glyph glyph-name="Atilde" unicode="&#xc3;" horiz-adv-x="1370" d="M866 1365 L1377 0 L1008 0 L920 250 L447 250 L358 0 L-7 0 L505 1365 L866 1365 Z M838 505 L774 691 Q717 856 686 998 Q646 848 591 687 L528 505 L838 505 Z M1061 1746 Q1035 1619 1000 1573 Q940 1496 855 1496 Q779 1496 659 1541 Q576 1573 548 1573 Q488 1573 471 1492 L323 1492 Q338 1610 394.5 1675.5 Q451 1741 538 1741 Q579 1741 615 1731 Q651 1721 764 1678 Q803 1663 833 1663 Q899 1663 912 1746 L1061 1746 Z " />
<glyph glyph-name="Adieresis" unicode="&#xc4;" horiz-adv-x="1370" d="M866 1365 L1377 0 L1008 0 L920 250 L447 250 L358 0 L-7 0 L505 1365 L866 1365 Z M838 505 L774 691 Q717 856 686 998 Q646 848 591 687 L528 505 L838 505 Z M894 1797 Q969 1797 1023.5 1743 Q1078 1689 1078 1613 Q1078 1538 1023.5 1483.5 Q969 1429 894 1429 Q818 1429 764 1483.5 Q710 1538 710 1615 Q710 1689 764.5 1743 Q819 1797 894 1797 Z M474 1797 Q550 1797 604 1743 Q658 1689 658 1613 Q658 1538 603.5 1483.5 Q549 1429 474 1429 Q398 1429 344 1483.5 Q290 1538 290 1615 Q290 1689 344.5 1743 Q399 1797 474 1797 Z " />
<glyph glyph-name="Aring" unicode="&#xc5;" horiz-adv-x="1370" d="M866 1365 L1377 0 L1008 0 L920 250 L447 250 L358 0 L-7 0 L505 1365 L866 1365 Z M838 505 L774 691 Q717 856 686 998 Q646 848 591 687 L528 505 L838 505 Z M689 1862 Q800 1862 877 1795 Q946 1735 946 1656 Q946 1564 858 1502 Q785 1450 685 1450 Q570 1450 492 1517 Q424 1577 424 1657 Q424 1748 512 1810 Q585 1862 689 1862 Z M687 1757 Q640 1757 607 1728 Q574 1699 574 1657 Q574 1614 606.5 1584.5 Q639 1555 685 1555 Q731 1555 763.5 1584.5 Q796 1614 796 1656 Q796 1697 763.5 1727 Q731 1757 687 1757 Z " />
<glyph glyph-name="AE" unicode="&#xc6;" horiz-adv-x="1946" d="M1852 1365 L1852 1071 L1215 1071 L1215 845 L1811 845 L1811 565 L1215 565 L1215 294 L1869 294 L1869 0 L878 0 L878 243 L458 243 L350 0 L-32 0 L609 1365 L1852 1365 Z M878 498 L878 1082 L818 1082 L564 498 L878 498 Z " />
<glyph glyph-name="Ccedilla" unicode="&#xc7;" horiz-adv-x="1424" d="M737 -35 L684 -120 Q734 -110 763 -110 Q838 -110 885.5 -149.5 Q933 -189 933 -252 Q933 -329 866.5 -378 Q800 -427 696 -427 Q584 -427 461 -380 L500 -295 Q599 -330 663 -330 Q754 -330 754 -261 Q754 -230 730.5 -210.5 Q707 -191 670 -191 Q641 -191 596 -207 L553 -166 L646 -29 Q548 -15 489 5.5 Q430 26 368 67 Q210 170 131 354 Q67 505 67 684 Q67 983 249 1188 Q436 1399 758 1399 Q1048 1399 1227 1206 Q1357 1066 1368 883 L1020 883 Q1001 977 957 1025 Q882 1106 752 1106 Q578 1106 494 962 Q429 850 429 683 Q429 508 495 399 Q581 259 749 259 Q985 259 1020 532 L1377 532 Q1360 271 1186.5 117.5 Q1013 -36 737 -35 Z " />
<glyph glyph-name="Egrave" unicode="&#xc8;" horiz-adv-x="1312" d="M1220 1365 L1220 1071 L482 1071 L482 845 L1155 845 L1155 565 L482 565 L482 294 L1236 294 L1236 0 L126 0 L126 1365 L1220 1365 Z M294 1750 L660 1750 L854 1488 L621 1488 L294 1750 Z " />
<glyph glyph-name="Eacute" unicode="&#xc9;" horiz-adv-x="1312" d="M1220 1365 L1220 1071 L482 1071 L482 845 L1155 845 L1155 565 L482 565 L482 294 L1236 294 L1236 0 L126 0 L126 1365 L1220 1365 Z M1046 1750 L719 1488 L485 1488 L679 1750 L1046 1750 Z " />
<glyph glyph-name="Ecircumflex" unicode="&#xca;" horiz-adv-x="1312" d="M1220 1365 L1220 1071 L482 1071 L482 845 L1155 845 L1155 565 L482 565 L482 294 L1236 294 L1236 0 L126 0 L126 1365 L1220 1365 Z M1041 1488 L794 1488 L670 1629 L545 1488 L305 1488 L533 1750 L816 1750 L1041 1488 Z " />
<glyph glyph-name="Edieresis" unicode="&#xcb;" horiz-adv-x="1312" d="M1220 1365 L1220 1071 L482 1071 L482 845 L1155 845 L1155 565 L482 565 L482 294 L1236 294 L1236 0 L126 0 L126 1365 L1220 1365 Z M882 1797 Q957 1797 1011.5 1743 Q1066 1689 1066 1613 Q1066 1538 1011.5 1483.5 Q957 1429 882 1429 Q806 1429 752 1483.5 Q698 1538 698 1615 Q698 1689 752.5 1743 Q807 1797 882 1797 Z M461 1797 Q537 1797 591 1743 Q645 1689 645 1613 Q645 1538 590.5 1483.5 Q536 1429 461 1429 Q385 1429 331 1483.5 Q277 1538 277 1615 Q277 1689 331.5 1743 Q386 1797 461 1797 Z " />
<glyph glyph-name="Igrave" unicode="&#xcc;" horiz-adv-x="606" d="M481 1365 L481 0 L125 0 L125 1365 L481 1365 Z M-59 1750 L301 1750 L468 1488 L241 1488 L-59 1750 Z " />
<glyph glyph-name="Iacute" unicode="&#xcd;" horiz-adv-x="606" d="M482 1365 L482 0 L126 0 L126 1365 L482 1365 Z M666 1750 L366 1488 L139 1488 L306 1750 L666 1750 Z " />
<glyph glyph-name="Icircumflex" unicode="&#xce;" horiz-adv-x="606" d="M482 1365 L482 0 L126 0 L126 1365 L482 1365 Z M644 1488 L404 1488 L300 1629 L196 1488 L-37 1488 L163 1750 L447 1750 L644 1488 Z " />
<glyph glyph-name="Idieresis" unicode="&#xcf;" horiz-adv-x="606" d="M482 1365 L482 0 L126 0 L126 1365 L482 1365 Z M503 1797 Q579 1797 633 1743 Q687 1689 687 1613 Q687 1538 632.5 1483.5 Q578 1429 503 1429 Q427 1429 373 1483.5 Q319 1538 319 1615 Q319 1689 373.5 1743 Q428 1797 503 1797 Z M102 1797 Q178 1797 232 1743 Q286 1689 286 1613 Q286 1538 231.5 1483.5 Q177 1429 102 1429 Q26 1429 -28 1483.5 Q-82 1538 -82 1615 Q-82 1689 -27.5 1743 Q27 1797 102 1797 Z " />
<glyph glyph-name="Eth" unicode="&#xd0;" horiz-adv-x="1451" d="M126 1365 L709 1365 Q1009 1365 1178 1213 Q1278 1122 1331.5 988 Q1385 854 1385 693 Q1385 347 1191 159 Q1080 52 938 22 Q835 0 708 0 L126 0 L126 607 L10 607 L10 812 L126 812 L126 1365 Z M482 1071 L482 812 L783 812 L783 607 L482 607 L482 294 L679 294 Q768 294 826.5 314 Q885 334 926 379 Q1023 485 1023 681 Q1023 903 890 1004 Q802 1071 654 1071 L482 1071 Z " />
<glyph glyph-name="Ntilde" unicode="&#xd1;" horiz-adv-x="1433" d="M1310 1365 L1310 0 L963 0 L595 620 L556 689 Q498 791 460 876 Q473 725 473 528 L473 0 L126 0 L126 1365 L486 1365 L825 787 Q926 615 979 501 Q963 703 963 853 L963 1365 L1310 1365 Z M1100 1746 Q1075 1619 1039 1573 Q980 1496 894 1496 Q818 1496 699 1541 Q616 1573 587 1573 Q528 1573 510 1492 L363 1492 Q377 1610 433.5 1675.5 Q490 1741 578 1741 Q619 1741 655 1731 Q691 1721 804 1678 Q843 1663 873 1663 Q939 1663 952 1746 L1100 1746 Z " />
<glyph glyph-name="Ograve" unicode="&#xd2;" horiz-adv-x="1483" d="M754 1399 Q1016 1399 1201 1228 Q1416 1029 1416 682 Q1416 387 1254 193 Q1064 -34 746 -34 Q527 -34 359 78 Q195 188 122 372 Q67 510 67 680 Q67 1024 270 1216 Q464 1399 754 1399 Z M749 1106 Q595 1106 513 991 Q429 873 429 683 Q429 475 522 360 Q559 313 619 286 Q679 259 746 259 Q891 259 969 367 Q1054 486 1054 691 Q1054 881 972 993 Q890 1106 749 1106 Z M372 1750 L739 1750 L933 1488 L699 1488 L372 1750 Z " />
<glyph glyph-name="Oacute" unicode="&#xd3;" horiz-adv-x="1483" d="M754 1399 Q1016 1399 1201 1228 Q1416 1029 1416 682 Q1416 387 1254 193 Q1064 -34 746 -34 Q527 -34 359 78 Q195 188 122 372 Q67 510 67 680 Q67 1024 270 1216 Q464 1399 754 1399 Z M749 1106 Q595 1106 513 991 Q429 873 429 683 Q429 475 522 360 Q559 313 619 286 Q679 259 746 259 Q891 259 969 367 Q1054 486 1054 691 Q1054 881 972 993 Q890 1106 749 1106 Z M1117 1750 L790 1488 L557 1488 L751 1750 L1117 1750 Z " />
<glyph glyph-name="Ocircumflex" unicode="&#xd4;" horiz-adv-x="1483" d="M754 1399 Q1016 1399 1201 1228 Q1416 1029 1416 682 Q1416 387 1254 193 Q1064 -34 746 -34 Q527 -34 359 78 Q195 188 122 372 Q67 510 67 680 Q67 1024 270 1216 Q464 1399 754 1399 Z M749 1106 Q595 1106 513 991 Q429 873 429 683 Q429 475 522 360 Q559 313 619 286 Q679 259 746 259 Q891 259 969 367 Q1054 486 1054 691 Q1054 881 972 993 Q890 1106 749 1106 Z M1109 1488 L862 1488 L738 1629 L614 1488 L374 1488 L601 1750 L885 1750 L1109 1488 Z " />
<glyph glyph-name="Otilde" unicode="&#xd5;" horiz-adv-x="1483" d="M754 1399 Q1016 1399 1201 1228 Q1416 1029 1416 682 Q1416 387 1254 193 Q1064 -34 746 -34 Q527 -34 359 78 Q195 188 122 372 Q67 510 67 680 Q67 1024 270 1216 Q464 1399 754 1399 Z M749 1106 Q595 1106 513 991 Q429 873 429 683 Q429 475 522 360 Q559 313 619 286 Q679 259 746 259 Q891 259 969 367 Q1054 486 1054 691 Q1054 881 972 993 Q890 1106 749 1106 Z M1124 1746 Q1099 1619 1063 1573 Q1004 1496 918 1496 Q842 1496 722 1541 Q639 1573 611 1573 Q552 1573 534 1492 L386 1492 Q401 1610 457.5 1675.5 Q514 1741 601 1741 Q642 1741 678 1731 Q714 1721 827 1678 Q867 1663 896 1663 Q962 1663 976 1746 L1124 1746 Z " />
<glyph glyph-name="Odieresis" unicode="&#xd6;" horiz-adv-x="1483" d="M754 1399 Q1016 1399 1201 1228 Q1416 1029 1416 682 Q1416 387 1254 193 Q1064 -34 746 -34 Q527 -34 359 78 Q195 188 122 372 Q67 510 67 680 Q67 1024 270 1216 Q464 1399 754 1399 Z M749 1106 Q595 1106 513 991 Q429 873 429 683 Q429 475 522 360 Q559 313 619 286 Q679 259 746 259 Q891 259 969 367 Q1054 486 1054 691 Q1054 881 972 993 Q890 1106 749 1106 Z M951 1797 Q1027 1797 1081 1743 Q1135 1689 1135 1613 Q1135 1538 1080.5 1483.5 Q1026 1429 951 1429 Q875 1429 821 1483.5 Q767 1538 767 1615 Q767 1689 821.5 1743 Q876 1797 951 1797 Z M530 1797 Q605 1797 659.5 1743 Q714 1689 714 1613 Q714 1538 659.5 1483.5 Q605 1429 530 1429 Q454 1429 400 1483.5 Q346 1538 346 1615 Q346 1689 400.5 1743 Q455 1797 530 1797 Z " />
<glyph glyph-name="multiply" unicode="&#xd7;" horiz-adv-x="1229" d="M312 205 L154 363 L456 666 L154 968 L312 1126 L615 824 L917 1126 L1075 968 L773 666 L1075 363 L917 205 L615 507 L312 205 Z " />
<glyph glyph-name="Oslash" unicode="&#xd8;" horiz-adv-x="1483" d="M1278 1141 Q1416 954 1416 680 Q1416 387 1254 193 Q1064 -34 749 -34 Q501 -34 331 98 L175 -75 L45 39 L208 220 Q67 411 67 683 Q67 1018 270 1216 Q458 1399 744 1399 Q985 1399 1158 1265 L1312 1432 L1438 1317 L1278 1141 Z M1026 882 L556 325 Q627 259 753 259 Q889 259 970 368 Q1055 482 1055 709 Q1055 809 1026 882 Z M461 478 L931 1038 Q854 1106 743 1106 Q596 1106 513 991 Q429 874 429 679 Q429 574 461 478 Z " />
<glyph glyph-name="Ugrave" unicode="&#xd9;" horiz-adv-x="1398" d="M1295 1365 L1295 552 Q1295 402 1270 310.5 Q1245 219 1182 144 Q1034 -34 702 -34 Q347 -34 199 168 Q148 239 127 325.5 Q106 412 106 557 L106 1365 L462 1365 L462 530 Q462 402 505 342 Q565 259 708 259 Q830 259 884.5 323 Q939 387 939 530 L939 1365 L1295 1365 Z M323 1750 L690 1750 L884 1488 L650 1488 L323 1750 Z " />
<glyph glyph-name="Uacute" unicode="&#xda;" horiz-adv-x="1398" d="M1295 1365 L1295 552 Q1295 402 1270 310.5 Q1245 219 1182 144 Q1034 -34 702 -34 Q347 -34 199 168 Q148 239 127 325.5 Q106 412 106 557 L106 1365 L462 1365 L462 530 Q462 402 505 342 Q565 259 708 259 Q830 259 884.5 323 Q939 387 939 530 L939 1365 L1295 1365 Z M1075 1750 L748 1488 L514 1488 L709 1750 L1075 1750 Z " />
<glyph glyph-name="Ucircumflex" unicode="&#xdb;" horiz-adv-x="1398" d="M1295 1365 L1295 552 Q1295 402 1270 310.5 Q1245 219 1182 144 Q1034 -34 702 -34 Q347 -34 199 168 Q148 239 127 325.5 Q106 412 106 557 L106 1365 L462 1365 L462 530 Q462 402 505 342 Q565 259 708 259 Q830 259 884.5 323 Q939 387 939 530 L939 1365 L1295 1365 Z M1067 1488 L820 1488 L696 1629 L572 1488 L331 1488 L559 1750 L843 1750 L1067 1488 Z " />
<glyph glyph-name="Udieresis" unicode="&#xdc;" horiz-adv-x="1398" d="M1295 1365 L1295 552 Q1295 402 1270 310.5 Q1245 219 1182 144 Q1034 -34 702 -34 Q347 -34 199 168 Q148 239 127 325.5 Q106 412 106 557 L106 1365 L462 1365 L462 530 Q462 402 505 342 Q565 259 708 259 Q830 259 884.5 323 Q939 387 939 530 L939 1365 L1295 1365 Z M908 1797 Q983 1797 1037.5 1743 Q1092 1689 1092 1613 Q1092 1538 1037.5 1483.5 Q983 1429 908 1429 Q832 1429 778 1483.5 Q724 1538 724 1615 Q724 1689 778.5 1743 Q833 1797 908 1797 Z M488 1797 Q564 1797 618 1743 Q672 1689 672 1613 Q672 1538 617.5 1483.5 Q563 1429 488 1429 Q412 1429 358 1483.5 Q304 1538 304 1615 Q304 1689 358.5 1743 Q413 1797 488 1797 Z " />
<glyph glyph-name="Yacute" unicode="&#xdd;" horiz-adv-x="1269" d="M1315 1365 L812 513 L812 0 L456 0 L456 513 L-46 1365 L359 1365 L517 1075 Q582 955 636 813 Q703 984 766 1096 L916 1365 L1315 1365 Z M1010 1750 L683 1488 L450 1488 L644 1750 L1010 1750 Z " />
<glyph glyph-name="Thorn" unicode="&#xde;" horiz-adv-x="1325" d="M125 1365 L484 1365 L484 1177 L690 1177 Q843 1177 928 1159.5 Q1013 1142 1081 1096 Q1268 970 1268 716 Q1268 507 1128 380 Q1063 322 977.5 295.5 Q892 269 767 269 L481 269 L481 0 L125 0 L125 1365 Z M481 886 L481 549 L716 549 Q821 549 867 588 Q920 633 920 717 Q920 804 867 845 Q814 886 703 886 L481 886 Z " />
<glyph glyph-name="germandbls" unicode="&#xdf;" horiz-adv-x="1187" d="M535 246 Q579 239 609 239 Q699 239 752.5 294.5 Q806 350 806 444 Q806 548 746.5 598.5 Q687 649 565 649 Q556 649 535 648 L535 841 Q558 840 572 840 Q648 840 689 867 Q751 908 751 990 Q751 1053 708 1091.5 Q665 1130 594 1130 Q499 1130 463 1067 Q438 1024 438 922 L438 0 L113 0 L113 859 Q113 985 129 1060 Q145 1135 185 1194 Q251 1293 368 1340 Q475 1384 606 1384 Q790 1384 917 1297 Q1061 1199 1061 1019 Q1061 930 1017 861.5 Q973 793 892 756 Q1006 729 1070.5 639 Q1135 549 1135 417 Q1135 223 1000 92 Q885 -19 695 -19 Q620 -19 535 0 L535 246 Z " />
<glyph glyph-name="agrave" unicode="&#xe0;" horiz-adv-x="1120" d="M232 1402 L571 1402 L738 1126 L533 1126 L232 1402 Z M1070 202 L1070 7 Q1009 -20 939 -20 Q772 -20 732 94 Q612 -27 406 -27 Q243 -27 151 54 Q59 135 59 277 Q59 428 157 501 Q208 538 276 558.5 Q344 579 467 593 Q619 611 661 631 Q703 651 703 705 Q703 816 551 816 Q435 816 399 751 Q387 729 379 669 L87 669 Q94 739 104 773.5 Q114 808 138 844 Q252 1020 568 1020 Q759 1020 869 956 Q995 883 995 731 L995 265 Q995 222 1003.5 212 Q1012 202 1049 202 L1070 202 Z M703 461 Q660 438 556 426 Q439 411 395 381.5 Q351 352 351 288 Q351 177 503 177 Q703 177 703 383 L703 461 Z " />
<glyph glyph-name="aacute" unicode="&#xe1;" horiz-adv-x="1120" d="M930 1402 L628 1126 L423 1126 L590 1402 L930 1402 Z M1070 202 L1070 7 Q1009 -20 939 -20 Q772 -20 732 94 Q612 -27 406 -27 Q243 -27 151 54 Q59 135 59 277 Q59 428 157 501 Q208 538 276 558.5 Q344 579 467 593 Q619 611 661 631 Q703 651 703 705 Q703 816 551 816 Q435 816 399 751 Q387 729 379 669 L87 669 Q94 739 104 773.5 Q114 808 138 844 Q252 1020 568 1020 Q759 1020 869 956 Q995 883 995 731 L995 265 Q995 222 1003.5 212 Q1012 202 1049 202 L1070 202 Z M703 461 Q660 438 556 426 Q439 411 395 381.5 Q351 352 351 288 Q351 177 503 177 Q703 177 703 383 L703 461 Z " />
<glyph glyph-name="acircumflex" unicode="&#xe2;" horiz-adv-x="1120" d="M942 1126 L695 1126 L578 1281 L460 1126 L220 1126 L440 1402 L724 1402 L942 1126 Z M1070 202 L1070 7 Q1009 -20 939 -20 Q772 -20 732 94 Q612 -27 406 -27 Q243 -27 151 54 Q59 135 59 277 Q59 428 157 501 Q208 538 276 558.5 Q344 579 467 593 Q619 611 661 631 Q703 651 703 705 Q703 816 551 816 Q435 816 399 751 Q387 729 379 669 L87 669 Q94 739 104 773.5 Q114 808 138 844 Q252 1020 568 1020 Q759 1020 869 956 Q995 883 995 731 L995 265 Q995 222 1003.5 212 Q1012 202 1049 202 L1070 202 Z M703 461 Q660 438 556 426 Q439 411 395 381.5 Q351 352 351 288 Q351 177 503 177 Q703 177 703 383 L703 461 Z " />
<glyph glyph-name="atilde" unicode="&#xe3;" horiz-adv-x="1120" d="M915 1390 Q893 1256 848.5 1202.5 Q804 1149 714 1149 Q642 1149 550 1189 Q478 1219 449 1219 Q398 1219 384 1141 L244 1141 Q265 1259 292 1302 Q346 1389 443 1389 Q486 1389 516.5 1379.5 Q547 1370 645 1326 Q678 1311 706 1311 Q760 1311 775 1390 L915 1390 Z M1070 202 L1070 7 Q1009 -20 939 -20 Q772 -20 732 94 Q612 -27 406 -27 Q243 -27 151 54 Q59 135 59 277 Q59 428 157 501 Q208 538 276 558.5 Q344 579 467 593 Q619 611 661 631 Q703 651 703 705 Q703 816 551 816 Q435 816 399 751 Q387 729 379 669 L87 669 Q94 739 104 773.5 Q114 808 138 844 Q252 1020 568 1020 Q759 1020 869 956 Q995 883 995 731 L995 265 Q995 222 1003.5 212 Q1012 202 1049 202 L1070 202 Z M703 461 Q660 438 556 426 Q439 411 395 381.5 Q351 352 351 288 Q351 177 503 177 Q703 177 703 383 L703 461 Z " />
<glyph glyph-name="adieresis" unicode="&#xe4;" horiz-adv-x="1120" d="M783 1442 Q858 1442 912.5 1388 Q967 1334 967 1258 Q967 1183 912.5 1128.5 Q858 1074 783 1074 Q707 1074 653 1128.5 Q599 1183 599 1260 Q599 1334 653.5 1388 Q708 1442 783 1442 Z M376 1442 Q451 1442 505.5 1388 Q560 1334 560 1258 Q560 1183 505.5 1128.5 Q451 1074 376 1074 Q300 1074 246 1128.5 Q192 1183 192 1260 Q192 1334 246.5 1388 Q301 1442 376 1442 Z M1070 202 L1070 7 Q1009 -20 939 -20 Q772 -20 732 94 Q612 -27 406 -27 Q243 -27 151 54 Q59 135 59 277 Q59 428 157 501 Q208 538 276 558.5 Q344 579 467 593 Q619 611 661 631 Q703 651 703 705 Q703 816 551 816 Q435 816 399 751 Q387 729 379 669 L87 669 Q94 739 104 773.5 Q114 808 138 844 Q252 1020 568 1020 Q759 1020 869 956 Q995 883 995 731 L995 265 Q995 222 1003.5 212 Q1012 202 1049 202 L1070 202 Z M703 461 Q660 438 556 426 Q439 411 395 381.5 Q351 352 351 288 Q351 177 503 177 Q703 177 703 383 L703 461 Z " />
<glyph glyph-name="aring" unicode="&#xe5;" horiz-adv-x="1120" d="M587 1493 Q698 1493 775 1426 Q844 1366 844 1287 Q844 1195 756 1133 Q683 1081 583 1081 Q468 1081 390 1148 Q322 1208 322 1288 Q322 1379 410 1441 Q483 1493 587 1493 Z M585 1388 Q538 1388 505 1359 Q472 1330 472 1288 Q472 1245 504.5 1215.5 Q537 1186 583 1186 Q629 1186 661.5 1215.5 Q694 1245 694 1287 Q694 1328 661.5 1358 Q629 1388 585 1388 Z M1070 202 L1070 7 Q1009 -20 939 -20 Q772 -20 732 94 Q612 -27 406 -27 Q243 -27 151 54 Q59 135 59 277 Q59 428 157 501 Q208 538 276 558.5 Q344 579 467 593 Q619 611 661 631 Q703 651 703 705 Q703 816 551 816 Q435 816 399 751 Q387 729 379 669 L87 669 Q94 739 104 773.5 Q114 808 138 844 Q252 1020 568 1020 Q759 1020 869 956 Q995 883 995 731 L995 265 Q995 222 1003.5 212 Q1012 202 1049 202 L1070 202 Z M703 461 Q660 438 556 426 Q439 411 395 381.5 Q351 352 351 288 Q351 177 503 177 Q703 177 703 383 L703 461 Z " />
<glyph glyph-name="ae" unicode="&#xe6;" horiz-adv-x="1780" d="M856 122 Q802 68 754 43 Q620 -27 412 -27 Q233 -27 141 64 Q59 144 59 277 Q59 428 157 501 Q208 538 276 558.5 Q344 579 467 593 Q619 610 661 630.5 Q703 651 703 705 Q703 816 551 816 Q435 816 399 751 Q387 729 379 669 L87 669 Q94 739 104 773.5 Q114 808 138 844 Q252 1020 569 1020 Q814 1020 925 913 Q975 960 1054 988.5 Q1133 1017 1215 1017 Q1431 1017 1572 880 Q1727 730 1727 462 Q1727 449 1726 422 L1012 422 Q1014 311 1066 251.5 Q1118 192 1212 192 Q1347 192 1404 307 L1710 307 Q1679 190 1590 105 Q1452 -27 1229 -27 Q1110 -27 1012 12 Q914 51 856 122 Z M1408 595 Q1401 680 1365 726 Q1310 797 1212 797 Q1124 797 1073 745.5 Q1022 694 1011 595 L1408 595 Z M703 461 Q660 439 556 426 Q439 411 395 381.5 Q351 352 351 288 Q351 177 503 177 Q703 177 703 383 L703 461 Z " />
<glyph glyph-name="ccedilla" unicode="&#xe7;" horiz-adv-x="1121" d="M1074 389 Q1056 206 919 88 Q791 -20 590 -26 L532 -121 Q580 -111 611 -111 Q687 -111 735 -150 Q783 -189 783 -250 Q783 -331 718.5 -380 Q654 -429 548 -429 Q433 -429 311 -382 L349 -297 Q444 -333 506 -333 Q551 -333 578.5 -313.5 Q606 -294 606 -263 Q606 -232 581 -212 Q556 -192 517 -192 Q489 -192 447 -209 L403 -169 L493 -26 Q356 -3 273 52 Q149 134 95 275 Q55 378 55 491 Q55 614 101.5 720.5 Q148 827 233 899 Q373 1017 587 1017 Q837 1017 971 863 Q1061 761 1067 631 L753 631 Q744 700 699.5 740 Q655 780 586 780 Q490 780 437.5 705 Q385 630 385 492 Q385 377 426 305 Q477 216 587 216 Q739 216 760 389 L1074 389 Z " />
<glyph glyph-name="egrave" unicode="&#xe8;" horiz-adv-x="1163" d="M1092 303 Q1068 215 1004 141 Q856 -27 596 -27 Q362 -27 218 102 Q55 249 55 486 Q55 698 183 847 Q330 1017 584 1017 Q836 1017 973.5 861 Q1111 705 1110 419 L374 419 Q377 313 436.5 253 Q496 193 597 193 Q666 193 707.5 217 Q749 241 786 303 L1092 303 Z M790 605 Q783 666 762 703 Q708 797 586 797 Q499 797 445.5 747.5 Q392 698 378 605 L790 605 Z M254 1402 L593 1402 L760 1126 L555 1126 L254 1402 Z " />
<glyph glyph-name="eacute" unicode="&#xe9;" horiz-adv-x="1163" d="M1092 303 Q1068 215 1004 141 Q856 -27 596 -27 Q362 -27 218 102 Q55 249 55 486 Q55 698 183 847 Q330 1017 584 1017 Q836 1017 973.5 861 Q1111 705 1110 419 L374 419 Q377 313 436.5 253 Q496 193 597 193 Q666 193 707.5 217 Q749 241 786 303 L1092 303 Z M790 605 Q783 666 762 703 Q708 797 586 797 Q499 797 445.5 747.5 Q392 698 378 605 L790 605 Z M951 1402 L650 1126 L445 1126 L612 1402 L951 1402 Z " />
<glyph glyph-name="ecircumflex" unicode="&#xea;" horiz-adv-x="1163" d="M1092 303 Q1068 215 1004 141 Q856 -27 596 -27 Q362 -27 218 102 Q55 249 55 486 Q55 698 183 847 Q330 1017 584 1017 Q836 1017 973.5 861 Q1111 705 1110 419 L374 419 Q377 313 436.5 253 Q496 193 597 193 Q666 193 707.5 217 Q749 241 786 303 L1092 303 Z M790 605 Q783 666 762 703 Q708 797 586 797 Q499 797 445.5 747.5 Q392 698 378 605 L790 605 Z M970 1126 L723 1126 L606 1281 L488 1126 L248 1126 L469 1402 L752 1402 L970 1126 Z " />
<glyph glyph-name="edieresis" unicode="&#xeb;" horiz-adv-x="1163" d="M1092 303 Q1068 215 1004 141 Q856 -27 596 -27 Q362 -27 218 102 Q55 249 55 486 Q55 698 183 847 Q330 1017 584 1017 Q836 1017 973.5 861 Q1111 705 1110 419 L374 419 Q377 313 436.5 253 Q496 193 597 193 Q666 193 707.5 217 Q749 241 786 303 L1092 303 Z M790 605 Q783 666 762 703 Q708 797 586 797 Q499 797 445.5 747.5 Q392 698 378 605 L790 605 Z M811 1442 Q886 1442 940.5 1388 Q995 1334 995 1258 Q995 1183 940.5 1128.5 Q886 1074 811 1074 Q735 1074 681 1128.5 Q627 1183 627 1260 Q627 1334 681.5 1388 Q736 1442 811 1442 Z M405 1442 Q480 1442 534.5 1388 Q589 1334 589 1258 Q589 1183 534.5 1128.5 Q480 1074 405 1074 Q329 1074 275 1128.5 Q221 1183 221 1260 Q221 1334 275.5 1388 Q330 1442 405 1442 Z " />
<glyph glyph-name="igrave" unicode="&#xec;" horiz-adv-x="549" d="M434 990 L434 0 L109 0 L109 990 L434 990 Z M-55 1402 L277 1402 L431 1126 L232 1126 L-55 1402 Z " />
<glyph glyph-name="iacute" unicode="&#xed;" horiz-adv-x="547" d="M438 990 L438 0 L113 0 L113 990 L438 990 Z M602 1402 L315 1126 L117 1126 L270 1402 L602 1402 Z " />
<glyph glyph-name="icircumflex" unicode="&#xee;" horiz-adv-x="547" d="M437 990 L437 0 L112 0 L112 990 L437 990 Z M614 1126 L374 1126 L270 1281 L166 1126 L-67 1126 L133 1402 L417 1402 L614 1126 Z " />
<glyph glyph-name="idieresis" unicode="&#xef;" horiz-adv-x="547" d="M437 990 L437 0 L112 0 L112 990 L437 990 Z M62 1442 Q137 1442 191.5 1388 Q246 1334 246 1258 Q246 1183 191.5 1128.5 Q137 1074 62 1074 Q-14 1074 -68 1128.5 Q-122 1183 -122 1260 Q-122 1334 -67.5 1388 Q-13 1442 62 1442 Z M486 1442 Q561 1442 615.5 1388 Q670 1334 670 1258 Q670 1183 615.5 1128.5 Q561 1074 486 1074 Q410 1074 356 1128.5 Q302 1183 302 1260 Q302 1334 356.5 1388 Q411 1442 486 1442 Z " />
<glyph glyph-name="eth" unicode="&#xf0;" horiz-adv-x="1157" d="M354 1187 L503 1252 L424 1352 L595 1451 L700 1333 L857 1397 L928 1295 L780 1234 Q843 1150 946 978 Q1024 848 1056 762 Q1102 641 1102 507 Q1102 255 947 108 Q805 -28 583 -28 Q321 -28 175 142 Q55 283 55 494 Q55 737 207 883 Q331 1002 492 1002 Q546 1002 584.5 989 Q623 976 672 940 Q630 1051 569 1146 L413 1081 L354 1187 Z M579 780 Q485 780 434.5 706.5 Q384 633 384 495 Q384 362 432 289 Q484 210 579 210 Q672 210 722.5 285 Q773 360 773 498 Q773 628 728 698 Q674 780 579 780 Z " />
<glyph glyph-name="ntilde" unicode="&#xf1;" horiz-adv-x="1201" d="M425 990 L425 859 Q542 1017 750 1017 Q872 1017 963 958 Q1038 908 1068 831.5 Q1098 755 1098 614 L1098 0 L773 0 L773 561 Q773 638 757 677 Q726 751 622 751 Q569 751 525.5 727.5 Q482 704 461 664 Q437 619 437 529 L437 0 L112 0 L112 990 L425 990 Z M927 1390 Q904 1256 860 1202.5 Q816 1149 726 1149 Q654 1149 561 1189 Q490 1219 461 1219 Q410 1219 395 1141 L256 1141 Q276 1259 304 1302 Q358 1389 455 1389 Q498 1389 528.5 1379.5 Q559 1370 657 1326 Q689 1311 718 1311 Q772 1311 786 1390 L927 1390 Z " />
<glyph glyph-name="ograve" unicode="&#xf2;" horiz-adv-x="1157" d="M578 1017 Q811 1017 956 875 Q1102 732 1102 499 Q1102 262 955 117 Q809 -27 572 -27 Q342 -27 195 123 Q55 268 55 497 Q55 726 196 867 Q345 1017 578 1017 Z M579 779 Q485 779 434.5 705.5 Q384 632 384 495 Q384 362 432 290 Q484 211 579 211 Q672 211 722.5 285.5 Q773 360 773 498 Q773 627 728 697 Q674 779 579 779 Z M230 1402 L569 1402 L736 1126 L531 1126 L230 1402 Z " />
<glyph glyph-name="oacute" unicode="&#xf3;" horiz-adv-x="1157" d="M578 1017 Q811 1017 956 875 Q1102 732 1102 499 Q1102 262 955 117 Q809 -27 572 -27 Q342 -27 195 123 Q55 268 55 497 Q55 726 196 867 Q345 1017 578 1017 Z M579 779 Q485 779 434.5 705.5 Q384 632 384 495 Q384 362 432 290 Q484 211 579 211 Q672 211 722.5 285.5 Q773 360 773 498 Q773 627 728 697 Q674 779 579 779 Z M934 1402 L633 1126 L428 1126 L595 1402 L934 1402 Z " />
<glyph glyph-name="ocircumflex" unicode="&#xf4;" horiz-adv-x="1157" d="M578 1017 Q811 1017 956 875 Q1102 732 1102 499 Q1102 262 955 117 Q809 -27 572 -27 Q342 -27 195 123 Q55 268 55 497 Q55 726 196 867 Q345 1017 578 1017 Z M579 779 Q485 779 434.5 705.5 Q384 632 384 495 Q384 362 432 290 Q484 211 579 211 Q672 211 722.5 285.5 Q773 360 773 498 Q773 627 728 697 Q674 779 579 779 Z M947 1126 L700 1126 L582 1281 L465 1126 L224 1126 L445 1402 L729 1402 L947 1126 Z " />
<glyph glyph-name="otilde" unicode="&#xf5;" horiz-adv-x="1157" d="M578 1017 Q811 1017 956 875 Q1102 732 1102 499 Q1102 262 955 117 Q809 -27 572 -27 Q342 -27 195 123 Q55 268 55 497 Q55 726 196 867 Q345 1017 578 1017 Z M579 779 Q485 779 434.5 705.5 Q384 632 384 495 Q384 362 432 290 Q484 211 579 211 Q672 211 722.5 285.5 Q773 360 773 498 Q773 627 728 697 Q674 779 579 779 Z M935 1390 Q912 1256 867.5 1202.5 Q823 1149 734 1149 Q662 1149 569 1189 Q498 1219 468 1219 Q418 1219 403 1141 L263 1141 Q284 1259 312 1302 Q366 1389 462 1389 Q506 1389 536.5 1379.5 Q567 1370 665 1326 Q697 1311 726 1311 Q780 1311 794 1390 L935 1390 Z " />
<glyph glyph-name="odieresis" unicode="&#xf6;" horiz-adv-x="1157" d="M578 1017 Q811 1017 956 875 Q1102 732 1102 499 Q1102 262 955 117 Q809 -27 572 -27 Q342 -27 195 123 Q55 268 55 497 Q55 726 196 867 Q345 1017 578 1017 Z M579 779 Q485 779 434.5 705.5 Q384 632 384 495 Q384 362 432 290 Q484 211 579 211 Q672 211 722.5 285.5 Q773 360 773 498 Q773 627 728 697 Q674 779 579 779 Z M788 1442 Q863 1442 917.5 1388 Q972 1334 972 1258 Q972 1183 917.5 1128.5 Q863 1074 788 1074 Q712 1074 658 1128.5 Q604 1183 604 1260 Q604 1334 658.5 1388 Q713 1442 788 1442 Z M381 1442 Q456 1442 510.5 1388 Q565 1334 565 1258 Q565 1183 510.5 1128.5 Q456 1074 381 1074 Q305 1074 251 1128.5 Q197 1183 197 1260 Q197 1334 251.5 1388 Q306 1442 381 1442 Z " />
<glyph glyph-name="divide" unicode="&#xf7;" horiz-adv-x="1229" d="M616 1200 Q678 1200 722.5 1155 Q767 1110 767 1048 Q767 985 722 940.5 Q677 896 614 896 Q550 896 505.5 940.5 Q461 985 461 1049 Q461 1112 506.5 1156 Q552 1200 616 1200 Z M616 435 Q678 435 722.5 390 Q767 345 767 283 Q767 220 722 175.5 Q677 131 614 131 Q550 131 505.5 175.5 Q461 220 461 284 Q461 347 506.5 391 Q552 435 616 435 Z M116 554 L116 778 L1113 778 L1113 554 L116 554 Z " />
<glyph glyph-name="oslash" unicode="&#xf8;" horiz-adv-x="1157" d="M181 139 Q55 292 55 497 Q55 722 196 867 Q341 1017 576 1017 Q746 1017 871 942 L977 1061 L1087 965 L984 846 Q1102 699 1102 498 Q1102 262 955 117 Q809 -27 583 -27 Q420 -27 294 45 L182 -86 L70 10 L181 139 Z M390 368 L695 753 Q682 761 676 765 Q629 793 580 793 Q446 793 395 651 Q374 591 374 468 Q374 405 390 368 Z M775 620 L470 230 Q510 197 584 197 Q675 197 729 275 Q783 352 783 516 Q783 569 775 620 Z " />
<glyph glyph-name="ugrave" unicode="&#xf9;" horiz-adv-x="1201" d="M1092 990 L1092 0 L779 0 L779 133 Q667 -27 457 -27 Q268 -27 173 97 Q106 184 106 371 L106 990 L431 990 L431 461 Q431 334 455 297 Q493 239 585 239 Q698 239 745 331 Q767 376 767 493 L767 990 L1092 990 Z M252 1402 L591 1402 L758 1126 L553 1126 L252 1402 Z " />
<glyph glyph-name="uacute" unicode="&#xfa;" horiz-adv-x="1201" d="M1092 990 L1092 0 L779 0 L779 133 Q667 -27 457 -27 Q268 -27 173 97 Q106 184 106 371 L106 990 L431 990 L431 461 Q431 334 455 297 Q493 239 585 239 Q698 239 745 331 Q767 376 767 493 L767 990 L1092 990 Z M943 1402 L642 1126 L437 1126 L604 1402 L943 1402 Z " />
<glyph glyph-name="ucircumflex" unicode="&#xfb;" horiz-adv-x="1201" d="M1092 990 L1092 0 L779 0 L779 133 Q667 -27 457 -27 Q268 -27 173 97 Q106 184 106 371 L106 990 L431 990 L431 461 Q431 334 455 297 Q493 239 585 239 Q698 239 745 331 Q767 376 767 493 L767 990 L1092 990 Z M962 1126 L715 1126 L598 1281 L480 1126 L240 1126 L461 1402 L744 1402 L962 1126 Z " />
<glyph glyph-name="udieresis" unicode="&#xfc;" horiz-adv-x="1201" d="M1092 990 L1092 0 L779 0 L779 133 Q667 -27 457 -27 Q268 -27 173 97 Q106 184 106 371 L106 990 L431 990 L431 461 Q431 334 455 297 Q493 239 585 239 Q698 239 745 331 Q767 376 767 493 L767 990 L1092 990 Z M803 1442 Q878 1442 932.5 1388 Q987 1334 987 1258 Q987 1183 932.5 1128.5 Q878 1074 803 1074 Q727 1074 673 1128.5 Q619 1183 619 1260 Q619 1334 673.5 1388 Q728 1442 803 1442 Z M396 1442 Q471 1442 525.5 1388 Q580 1334 580 1258 Q580 1183 525.5 1128.5 Q471 1074 396 1074 Q320 1074 266 1128.5 Q212 1183 212 1260 Q212 1334 266.5 1388 Q321 1442 396 1442 Z " />
<glyph glyph-name="yacute" unicode="&#xfd;" horiz-adv-x="1029" d="M1043 990 L683 -10 Q635 -142 595.5 -201.5 Q556 -261 492 -296 Q413 -340 268 -340 Q224 -340 82 -338 L82 -77 Q102 -77 115 -77 Q159 -78 198 -78 Q270 -78 298 -36 Q307 -22 317 10.5 Q327 43 327 61 Q327 71 322 85 L-16 990 L329 990 L466 551 Q491 469 520 321 Q557 487 580 563 L711 990 L1043 990 Z M863 1402 L562 1126 L357 1126 L524 1402 L863 1402 Z " />
<glyph glyph-name="thorn" unicode="&#xfe;" horiz-adv-x="1205" d="M438 1365 L438 874 Q540 1017 717 1017 Q915 1017 1036 862 Q1148 718 1148 488 Q1148 272 1049 135 Q931 -28 726 -28 Q547 -28 438 114 L438 -335 L113 -335 L113 1365 L438 1365 Z M626 755 Q531 755 479 685.5 Q427 616 427 488 Q427 363 478 295 Q530 225 625 225 Q717 225 767 292 Q819 361 819 488 Q819 615 768 686 Q717 755 626 755 Z " />
<glyph glyph-name="ydieresis" unicode="&#xff;" horiz-adv-x="1029" d="M1043 990 L683 -10 Q635 -142 595.5 -201.5 Q556 -261 492 -296 Q413 -340 268 -340 Q224 -340 82 -338 L82 -77 Q102 -77 115 -77 Q159 -78 198 -78 Q270 -78 298 -36 Q307 -22 317 10.5 Q327 43 327 61 Q327 71 322 85 L-16 990 L329 990 L466 551 Q491 469 520 321 Q557 487 580 563 L711 990 L1043 990 Z M717 1442 Q792 1442 846.5 1388 Q901 1334 901 1258 Q901 1183 846.5 1128.5 Q792 1074 717 1074 Q640 1074 586.5 1128.5 Q533 1183 533 1260 Q533 1334 587 1388 Q641 1442 717 1442 Z M309 1442 Q385 1442 439.5 1388 Q494 1334 494 1258 Q494 1183 439.5 1128.5 Q385 1074 310 1074 Q233 1074 179.5 1128.5 Q126 1183 126 1260 Q126 1334 180 1388 Q234 1442 309 1442 Z " />
<glyph glyph-name="Amacron" unicode="&#x100;" horiz-adv-x="1370" d="M866 1365 L1377 0 L1008 0 L920 250 L447 250 L358 0 L-7 0 L505 1365 L866 1365 Z M838 505 L774 691 Q717 856 686 998 Q646 848 591 687 L528 505 L838 505 Z M1046 1694 L1046 1536 L325 1536 L325 1694 L1046 1694 Z " />
<glyph glyph-name="amacron" unicode="&#x101;" horiz-adv-x="1120" d="M897 1342 L897 1184 L269 1184 L269 1342 L897 1342 Z M1070 202 L1070 7 Q1009 -20 939 -20 Q772 -20 732 94 Q612 -27 406 -27 Q243 -27 151 54 Q59 135 59 277 Q59 428 157 501 Q208 538 276 558.5 Q344 579 467 593 Q619 611 661 631 Q703 651 703 705 Q703 816 551 816 Q435 816 399 751 Q387 729 379 669 L87 669 Q94 739 104 773.5 Q114 808 138 844 Q252 1020 568 1020 Q759 1020 869 956 Q995 883 995 731 L995 265 Q995 222 1003.5 212 Q1012 202 1049 202 L1070 202 Z M703 461 Q660 438 556 426 Q439 411 395 381.5 Q351 352 351 288 Q351 177 503 177 Q703 177 703 383 L703 461 Z " />
<glyph glyph-name="Abreve" unicode="&#x102;" horiz-adv-x="1370" d="M866 1365 L1377 0 L1008 0 L920 250 L447 250 L358 0 L-7 0 L505 1365 L866 1365 Z M838 505 L774 691 Q717 856 686 998 Q646 848 591 687 L528 505 L838 505 Z M1028 1752 Q1016 1659 972 1598 Q880 1468 679 1468 Q490 1468 398 1588 Q347 1656 342 1752 L497 1752 Q516 1704 543 1680 Q591 1637 688 1637 Q768 1637 810 1663 Q852 1689 873 1752 L1028 1752 Z " />
<glyph glyph-name="abreve" unicode="&#x103;" horiz-adv-x="1120" d="M898 1410 Q862 1112 577 1112 Q398 1112 317 1232 Q270 1302 264 1410 L411 1410 Q423 1357 444 1330 Q486 1276 590 1276 Q662 1276 697 1305 Q732 1334 751 1410 L898 1410 Z M1070 202 L1070 7 Q1009 -20 939 -20 Q772 -20 732 94 Q612 -27 406 -27 Q243 -27 151 54 Q59 135 59 277 Q59 428 157 501 Q208 538 276 558.5 Q344 579 467 593 Q619 611 661 631 Q703 651 703 705 Q703 816 551 816 Q435 816 399 751 Q387 729 379 669 L87 669 Q94 739 104 773.5 Q114 808 138 844 Q252 1020 568 1020 Q759 1020 869 956 Q995 883 995 731 L995 265 Q995 222 1003.5 212 Q1012 202 1049 202 L1070 202 Z M703 461 Q660 438 556 426 Q439 411 395 381.5 Q351 352 351 288 Q351 177 503 177 Q703 177 703 383 L703 461 Z " />
<glyph glyph-name="Aogonek" unicode="&#x104;" horiz-adv-x="1370" d="M1377 0 Q1246 -112 1246 -191 Q1246 -228 1272.5 -244.5 Q1299 -261 1358 -261 Q1383 -261 1421 -253 L1421 -373 Q1352 -393 1296 -393 Q1183 -393 1122 -336 Q1074 -292 1074 -230 Q1074 -167 1107 -115 Q1140 -63 1220 0 L1008 0 L920 250 L447 250 L358 0 L-7 0 L505 1365 L866 1365 L1377 0 Z M838 505 L774 691 Q717 856 686 998 Q646 848 591 687 L528 505 L838 505 Z " />
<glyph glyph-name="aogonek" unicode="&#x105;" horiz-adv-x="1121" d="M1070 7 Q935 -95 935 -190 Q935 -227 961.5 -244 Q988 -261 1046 -261 Q1072 -261 1110 -253 L1110 -373 Q1040 -393 985 -393 Q872 -393 811 -336 Q763 -292 763 -230 Q763 -121 883 -20 L888 -17 Q765 0 732 94 Q612 -27 406 -27 Q243 -27 151 54 Q59 135 59 277 Q59 428 157 501 Q208 538 276 558.5 Q344 579 467 593 Q618 611 660.5 631 Q703 651 703 705 Q703 816 551 816 Q435 816 399 751 Q387 729 379 669 L87 669 Q94 739 104 773.5 Q114 808 138 844 Q252 1020 568 1020 Q759 1020 869 956 Q995 883 995 731 L995 265 Q995 222 1003.5 212 Q1012 202 1049 202 L1070 202 L1070 7 Z M703 461 Q660 438 556 426 Q439 411 395 381.5 Q351 352 351 288 Q351 177 503 177 Q703 177 703 383 L703 461 Z " />
<glyph glyph-name="Cacute" unicode="&#x106;" horiz-adv-x="1424" d="M1377 532 Q1363 317 1230 163 Q1060 -34 746 -34 Q411 -34 225 198 Q67 395 67 685 Q67 983 249 1188 Q436 1399 758 1399 Q1048 1399 1227 1206 Q1357 1066 1368 883 L1020 883 Q1001 977 957 1025 Q882 1106 752 1106 Q578 1106 494 962 Q429 850 429 683 Q429 507 495 399 Q581 259 749 259 Q985 259 1020 532 L1377 532 Z M1136 1750 L809 1488 L575 1488 L769 1750 L1136 1750 Z " />
<glyph glyph-name="cacute" unicode="&#x107;" horiz-adv-x="1121" d="M1074 389 Q1053 237 969 138 Q830 -27 577 -27 Q324 -27 179 137 Q55 278 55 487 Q55 738 216 886 Q357 1017 580 1017 Q845 1017 979 852 Q1056 757 1066 631 L752 631 Q740 701 696 740.5 Q652 780 585 780 Q488 780 436 704.5 Q384 629 384 489 Q384 371 426 301 Q476 216 580 216 Q734 216 760 389 L1074 389 Z M930 1402 L629 1126 L424 1126 L591 1402 L930 1402 Z " />
<glyph glyph-name="Ccircumflex" unicode="&#x108;" horiz-adv-x="1424" d="M1377 532 Q1363 317 1230 163 Q1060 -34 746 -34 Q411 -34 225 198 Q67 395 67 685 Q67 983 249 1188 Q436 1399 758 1399 Q1048 1399 1227 1206 Q1357 1066 1368 883 L1020 883 Q1001 977 957 1025 Q882 1106 752 1106 Q578 1106 494 962 Q429 850 429 683 Q429 507 495 399 Q581 259 749 259 Q985 259 1020 532 L1377 532 Z M1135 1488 L888 1488 L763 1629 L639 1488 L399 1488 L626 1750 L910 1750 L1135 1488 Z " />
<glyph glyph-name="ccircumflex" unicode="&#x109;" horiz-adv-x="1121" d="M1074 389 Q1053 237 969 138 Q830 -27 577 -27 Q324 -27 179 137 Q55 278 55 487 Q55 738 216 886 Q357 1017 580 1017 Q845 1017 979 852 Q1056 757 1066 631 L752 631 Q740 701 696 740.5 Q652 780 585 780 Q488 780 436 704.5 Q384 629 384 489 Q384 371 426 301 Q476 216 580 216 Q734 216 760 389 L1074 389 Z M922 1126 L675 1126 L557 1281 L440 1126 L200 1126 L420 1402 L704 1402 L922 1126 Z " />
<glyph glyph-name="Cdotaccent" unicode="&#x10a;" horiz-adv-x="1424" d="M1377 532 Q1363 317 1230 163 Q1060 -34 746 -34 Q411 -34 225 198 Q67 395 67 685 Q67 983 249 1188 Q436 1399 758 1399 Q1048 1399 1227 1206 Q1357 1066 1368 883 L1020 883 Q1001 977 957 1025 Q882 1106 752 1106 Q578 1106 494 962 Q429 850 429 683 Q429 507 495 399 Q581 259 749 259 Q985 259 1020 532 L1377 532 Z M766 1797 Q842 1797 896 1743 Q950 1689 950 1613 Q950 1538 895.5 1483.5 Q841 1429 766 1429 Q690 1429 636 1483.5 Q582 1538 582 1615 Q582 1689 636.5 1743 Q691 1797 766 1797 Z " />
<glyph glyph-name="cdotaccent" unicode="&#x10b;" horiz-adv-x="1121" d="M1074 389 Q1053 237 969 138 Q830 -27 577 -27 Q324 -27 179 137 Q55 278 55 487 Q55 738 216 886 Q357 1017 580 1017 Q845 1017 979 852 Q1056 757 1066 631 L752 631 Q740 701 696 740.5 Q652 780 585 780 Q488 780 436 704.5 Q384 629 384 489 Q384 371 426 301 Q476 216 580 216 Q734 216 760 389 L1074 389 Z M587 1442 Q662 1442 716.5 1388 Q771 1334 771 1258 Q771 1183 716.5 1128.5 Q662 1074 587 1074 Q511 1074 457 1128.5 Q403 1183 403 1260 Q403 1334 457.5 1388 Q512 1442 587 1442 Z " />
<glyph glyph-name="Ccaron" unicode="&#x10c;" horiz-adv-x="1424" d="M1377 532 Q1363 317 1230 163 Q1060 -34 746 -34 Q411 -34 225 198 Q67 395 67 685 Q67 983 249 1188 Q436 1399 758 1399 Q1048 1399 1227 1206 Q1357 1066 1368 883 L1020 883 Q1001 977 957 1025 Q882 1106 752 1106 Q578 1106 494 962 Q429 850 429 683 Q429 507 495 399 Q581 259 749 259 Q985 259 1020 532 L1377 532 Z M1134 1750 L910 1488 L626 1488 L399 1750 L639 1750 L763 1609 L887 1750 L1134 1750 Z " />
<glyph glyph-name="ccaron" unicode="&#x10d;" horiz-adv-x="1121" d="M1074 389 Q1053 237 969 138 Q830 -27 577 -27 Q324 -27 179 137 Q55 278 55 487 Q55 738 216 886 Q357 1017 580 1017 Q845 1017 979 852 Q1056 757 1066 631 L752 631 Q740 701 696 740.5 Q652 780 585 780 Q488 780 436 704.5 Q384 629 384 489 Q384 371 426 301 Q476 216 580 216 Q734 216 760 389 L1074 389 Z M953 1402 L735 1126 L451 1126 L231 1402 L471 1402 L588 1247 L706 1402 L953 1402 Z " />
<glyph glyph-name="Dcaron" unicode="&#x10e;" horiz-adv-x="1451" d="M126 1365 L708 1365 Q1008 1365 1177 1213 Q1277 1122 1330.5 987.5 Q1384 853 1384 693 Q1384 347 1190 159 Q1080 52 938 22 Q834 0 707 0 L126 0 L126 1365 Z M482 1071 L482 294 L678 294 Q767 294 825.5 314 Q884 334 925 380 Q1022 485 1022 681 Q1022 903 890 1004 Q802 1071 653 1071 L482 1071 Z M1038 1750 L814 1488 L530 1488 L303 1750 L543 1750 L667 1609 L791 1750 L1038 1750 Z " />
<glyph glyph-name="dcaron" unicode="&#x10f;" horiz-adv-x="1566" d="M1094 1365 L1094 0 L781 0 L781 117 Q679 -27 500 -27 Q294 -27 173 126 Q59 271 59 502 Q59 713 156 850 Q275 1018 483 1018 Q667 1018 769 876 L769 1365 L1094 1365 Z M586 765 Q491 765 441 698 Q388 626 388 500 Q388 378 439 308 Q489 239 584 239 Q679 239 729 307 Q781 378 781 500 Q781 623 728 695 Q677 765 586 765 Z M1229 995 Q1301 1001 1345.5 1025.5 Q1390 1050 1395 1087 Q1379 1083 1364 1083 Q1295 1083 1245.5 1128 Q1196 1173 1196 1235 Q1196 1299 1245.5 1345 Q1295 1391 1363 1391 Q1447 1391 1501 1331.5 Q1555 1272 1555 1180 Q1555 1050 1459 968 Q1414 929 1367 910.5 Q1320 892 1229 877 L1229 995 Z " />
<glyph glyph-name="Dcroat" unicode="&#x110;" horiz-adv-x="1451" d="M126 1365 L709 1365 Q1009 1365 1178 1213 Q1278 1122 1331.5 988 Q1385 854 1385 693 Q1385 347 1191 159 Q1080 52 938 22 Q835 0 708 0 L126 0 L126 607 L10 607 L10 812 L126 812 L126 1365 Z M482 1071 L482 812 L783 812 L783 607 L482 607 L482 294 L679 294 Q768 294 826.5 314 Q885 334 926 379 Q1023 485 1023 681 Q1023 903 890 1004 Q802 1071 654 1071 L482 1071 Z " />
<glyph glyph-name="dcroat" unicode="&#x111;" horiz-adv-x="1205" d="M1094 1092 L1094 0 L781 0 L781 117 Q679 -27 500 -27 Q294 -27 173 126 Q59 271 59 501 Q59 709 156 840 Q276 1004 485 1004 Q667 1004 769 876 L769 1092 L510 1092 L510 1256 L769 1256 L769 1365 L1094 1365 L1094 1256 L1203 1256 L1203 1092 L1094 1092 Z M587 751 Q492 751 441 687 Q388 620 388 496 Q388 375 439 304 Q489 235 584 235 Q679 235 729 303 Q781 375 781 496 Q781 616 728 684 Q677 751 587 751 Z " />
<glyph glyph-name="Emacron" unicode="&#x112;" horiz-adv-x="1312" d="M1220 1365 L1220 1071 L482 1071 L482 845 L1155 845 L1155 565 L482 565 L482 294 L1236 294 L1236 0 L126 0 L126 1365 L1220 1365 Z M1033 1694 L1033 1536 L312 1536 L312 1694 L1033 1694 Z " />
<glyph glyph-name="emacron" unicode="&#x113;" horiz-adv-x="1163" d="M1092 303 Q1068 215 1004 141 Q856 -27 596 -27 Q362 -27 218 102 Q55 249 55 486 Q55 698 183 847 Q330 1017 584 1017 Q836 1017 973.5 861 Q1111 705 1110 419 L374 419 Q377 313 436.5 253 Q496 193 597 193 Q666 193 707.5 217 Q749 241 786 303 L1092 303 Z M790 605 Q783 666 762 703 Q708 797 586 797 Q499 797 445.5 747.5 Q392 698 378 605 L790 605 Z M924 1342 L924 1184 L296 1184 L296 1342 L924 1342 Z " />
<glyph glyph-name="Ebreve" unicode="&#x114;" horiz-adv-x="1312" d="M1220 1365 L1220 1071 L482 1071 L482 845 L1155 845 L1155 565 L482 565 L482 294 L1236 294 L1236 0 L126 0 L126 1365 L1220 1365 Z M1021 1752 Q1009 1659 965 1598 Q872 1468 671 1468 Q482 1468 391 1588 Q340 1656 334 1752 L490 1752 Q508 1704 535 1680 Q584 1637 681 1637 Q761 1637 802.5 1663 Q844 1689 865 1752 L1021 1752 Z " />
<glyph glyph-name="ebreve" unicode="&#x115;" horiz-adv-x="1163" d="M1092 303 Q1068 215 1004 141 Q856 -27 596 -27 Q362 -27 218 102 Q55 249 55 486 Q55 698 183 847 Q330 1017 584 1017 Q836 1017 973.5 861 Q1111 705 1110 419 L374 419 Q377 313 436.5 253 Q496 193 597 193 Q666 193 707.5 217 Q749 241 786 303 L1092 303 Z M790 605 Q783 666 762 703 Q708 797 586 797 Q499 797 445.5 747.5 Q392 698 378 605 L790 605 Z M926 1410 Q891 1112 606 1112 Q426 1112 345 1232 Q298 1302 292 1410 L439 1410 Q451 1357 472 1330 Q515 1276 619 1276 Q691 1276 726 1305 Q761 1334 779 1410 L926 1410 Z " />
<glyph glyph-name="Edotaccent" unicode="&#x116;" horiz-adv-x="1312" d="M1220 1365 L1220 1071 L482 1071 L482 845 L1155 845 L1155 565 L482 565 L482 294 L1236 294 L1236 0 L126 0 L126 1365 L1220 1365 Z M671 1797 Q747 1797 801 1743 Q855 1689 855 1613 Q855 1538 800.5 1483.5 Q746 1429 671 1429 Q595 1429 541 1483.5 Q487 1538 487 1615 Q487 1689 541.5 1743 Q596 1797 671 1797 Z " />
<glyph glyph-name="edotaccent" unicode="&#x117;" horiz-adv-x="1163" d="M1092 303 Q1068 215 1004 141 Q856 -27 596 -27 Q362 -27 218 102 Q55 249 55 486 Q55 698 183 847 Q330 1017 584 1017 Q836 1017 973.5 861 Q1111 705 1110 419 L374 419 Q377 313 436.5 253 Q496 193 597 193 Q666 193 707.5 217 Q749 241 786 303 L1092 303 Z M790 605 Q783 666 762 703 Q708 797 586 797 Q499 797 445.5 747.5 Q392 698 378 605 L790 605 Z M608 1442 Q683 1442 737.5 1388 Q792 1334 792 1258 Q792 1183 737.5 1128.5 Q683 1074 608 1074 Q532 1074 478 1128.5 Q424 1183 424 1260 Q424 1334 478.5 1388 Q533 1442 608 1442 Z " />
<glyph glyph-name="Eogonek" unicode="&#x118;" horiz-adv-x="1312" d="M1236 0 Q1163 -63 1134 -105.5 Q1105 -148 1105 -191 Q1105 -228 1131.5 -244.5 Q1158 -261 1218 -261 Q1242 -261 1280 -253 L1280 -373 Q1211 -393 1155 -393 Q1042 -393 981 -336 Q933 -292 933 -230 Q933 -166 966 -114.5 Q999 -63 1079 0 L126 0 L126 1365 L1220 1365 L1220 1071 L482 1071 L482 845 L1155 845 L1155 565 L482 565 L482 294 L1236 294 L1236 0 Z " />
<glyph glyph-name="eogonek" unicode="&#x119;" horiz-adv-x="1163" d="M906 -253 L906 -373 Q837 -393 781 -393 Q681 -393 620 -347.5 Q559 -302 559 -227 Q559 -169 588.5 -123 Q618 -77 691 -22 Q638 -27 605 -27 Q408 -27 285 51 Q177 119 117 231 Q55 346 55 485 Q55 698 183 847 Q330 1017 584 1017 Q848 1017 989 842 Q1110 691 1110 450 Q1110 438 1110 419 L374 419 Q377 313 436.5 252.5 Q496 192 597 192 Q665 192 706.5 216.5 Q748 241 786 303 L1091 303 Q1058 171 892 40 Q805 -30 768 -82.5 Q731 -135 731 -189 Q731 -227 757.5 -243.5 Q784 -260 843 -260 Q870 -260 906 -253 Z M790 605 Q783 666 761 703 Q708 797 586 797 Q499 797 445.5 747.5 Q392 698 378 605 L790 605 Z " />
<glyph glyph-name="Ecaron" unicode="&#x11a;" horiz-adv-x="1312" d="M1220 1365 L1220 1071 L482 1071 L482 845 L1155 845 L1155 565 L482 565 L482 294 L1236 294 L1236 0 L126 0 L126 1365 L1220 1365 Z M1040 1750 L815 1488 L532 1488 L304 1750 L544 1750 L669 1609 L793 1750 L1040 1750 Z " />
<glyph glyph-name="ecaron" unicode="&#x11b;" horiz-adv-x="1163" d="M1092 303 Q1068 215 1004 141 Q856 -27 596 -27 Q362 -27 218 102 Q55 249 55 486 Q55 698 183 847 Q330 1017 584 1017 Q836 1017 973.5 861 Q1111 705 1110 419 L374 419 Q377 313 436.5 253 Q496 193 597 193 Q666 193 707.5 217 Q749 241 786 303 L1092 303 Z M790 605 Q783 666 762 703 Q708 797 586 797 Q499 797 445.5 747.5 Q392 698 378 605 L790 605 Z M971 1402 L753 1126 L470 1126 L249 1402 L489 1402 L607 1247 L724 1402 L971 1402 Z " />
<glyph glyph-name="Gcircumflex" unicode="&#x11c;" horiz-adv-x="1486" d="M1380 743 L1380 0 L1152 0 Q1133 86 1133 127 Q1133 134 1133 148 Q988 -34 722 -34 Q402 -34 221 195 Q67 391 67 680 Q67 1003 268 1208 Q456 1399 759 1399 Q1038 1399 1211 1220 Q1340 1087 1361 902 L1016 902 Q993 1000 925.5 1052.5 Q858 1105 754 1105 Q598 1105 513.5 993.5 Q429 882 429 676 Q429 492 500 389 Q589 260 770 260 Q889 260 963 319 Q1037 378 1055 488 L807 488 L807 743 L1380 743 Z M1132 1488 L885 1488 L761 1629 L636 1488 L396 1488 L624 1750 L907 1750 L1132 1488 Z " />
<glyph glyph-name="gcircumflex" unicode="&#x11d;" horiz-adv-x="1187" d="M1076 990 L1076 131 Q1076 19 1061 -47.5 Q1046 -114 1008 -170 Q887 -351 575 -351 Q131 -351 92 -33 L416 -33 Q432 -92 470 -117 Q508 -142 580 -142 Q681 -142 722 -92 Q763 -42 763 81 L763 189 Q658 50 476 50 Q288 50 174 177 Q58 305 58 529 Q58 745 170 877 Q288 1017 483 1017 Q580 1017 643.5 982.5 Q707 948 763 865 L763 990 L1076 990 Z M575 770 Q467 770 416 688 Q377 626 377 535 Q377 419 429 354 Q481 288 573 288 Q681 288 731 377 Q767 439 767 531 Q767 647 710 712 Q660 770 575 770 Z M968 1126 L721 1126 L604 1281 L486 1126 L246 1126 L467 1402 L751 1402 L968 1126 Z " />
<glyph glyph-name="Gbreve" unicode="&#x11e;" horiz-adv-x="1486" d="M1380 743 L1380 0 L1152 0 Q1133 86 1133 127 Q1133 134 1133 148 Q988 -34 722 -34 Q402 -34 221 195 Q67 391 67 680 Q67 1003 268 1208 Q456 1399 759 1399 Q1038 1399 1211 1220 Q1340 1087 1361 902 L1016 902 Q993 1000 925.5 1052.5 Q858 1105 754 1105 Q598 1105 513.5 993.5 Q429 882 429 676 Q429 492 500 389 Q589 260 770 260 Q889 260 963 319 Q1037 378 1055 488 L807 488 L807 743 L1380 743 Z M1108 1752 Q1096 1659 1052 1598 Q959 1468 758 1468 Q569 1468 478 1588 Q427 1656 421 1752 L577 1752 Q595 1704 622 1680 Q671 1637 768 1637 Q848 1637 889.5 1663 Q931 1689 952 1752 L1108 1752 Z " />
<glyph glyph-name="gbreve" unicode="&#x11f;" horiz-adv-x="1187" d="M1076 990 L1076 131 Q1076 19 1061 -47.5 Q1046 -114 1008 -170 Q887 -351 575 -351 Q131 -351 92 -33 L416 -33 Q432 -92 470 -117 Q508 -142 580 -142 Q681 -142 722 -92 Q763 -42 763 81 L763 189 Q658 50 476 50 Q288 50 174 177 Q58 305 58 529 Q58 745 170 877 Q288 1017 483 1017 Q580 1017 643.5 982.5 Q707 948 763 865 L763 990 L1076 990 Z M575 770 Q467 770 416 688 Q377 626 377 535 Q377 419 429 354 Q481 288 573 288 Q681 288 731 377 Q767 439 767 531 Q767 647 710 712 Q660 770 575 770 Z M924 1410 Q889 1112 604 1112 Q424 1112 343 1232 Q296 1302 290 1410 L438 1410 Q449 1357 470 1330 Q513 1276 617 1276 Q689 1276 724 1305 Q759 1334 778 1410 L924 1410 Z " />
<glyph glyph-name="Gdotaccent" unicode="&#x120;" horiz-adv-x="1486" d="M1380 743 L1380 0 L1152 0 Q1133 86 1133 127 Q1133 134 1133 148 Q988 -34 722 -34 Q402 -34 221 195 Q67 391 67 680 Q67 1003 268 1208 Q456 1399 759 1399 Q1038 1399 1211 1220 Q1340 1087 1361 902 L1016 902 Q993 1000 925.5 1052.5 Q858 1105 754 1105 Q598 1105 513.5 993.5 Q429 882 429 676 Q429 492 500 389 Q589 260 770 260 Q889 260 963 319 Q1037 378 1055 488 L807 488 L807 743 L1380 743 Z M763 1797 Q839 1797 893 1743 Q947 1689 947 1613 Q947 1538 892.5 1483.5 Q838 1429 763 1429 Q687 1429 633 1483.5 Q579 1538 579 1615 Q579 1689 633.5 1743 Q688 1797 763 1797 Z " />
<glyph glyph-name="gdotaccent" unicode="&#x121;" horiz-adv-x="1187" d="M1076 990 L1076 131 Q1076 19 1061 -47.5 Q1046 -114 1008 -170 Q887 -351 575 -351 Q131 -351 92 -33 L416 -33 Q432 -92 470 -117 Q508 -142 580 -142 Q681 -142 722 -92 Q763 -42 763 81 L763 189 Q658 50 476 50 Q288 50 174 177 Q58 305 58 529 Q58 745 170 877 Q288 1017 483 1017 Q580 1017 643.5 982.5 Q707 948 763 865 L763 990 L1076 990 Z M575 770 Q467 770 416 688 Q377 626 377 535 Q377 419 429 354 Q481 288 573 288 Q681 288 731 377 Q767 439 767 531 Q767 647 710 712 Q660 770 575 770 Z M606 1442 Q682 1442 736 1388 Q790 1334 790 1258 Q790 1183 735.5 1128.5 Q681 1074 606 1074 Q530 1074 476 1128.5 Q422 1183 422 1260 Q422 1334 476.5 1388 Q531 1442 606 1442 Z " />
<glyph glyph-name="Gcommaaccent" unicode="&#x122;" horiz-adv-x="1486" d="M1380 743 L1380 0 L1152 0 Q1133 86 1133 127 Q1133 134 1133 148 Q988 -34 722 -34 Q402 -34 221 195 Q67 391 67 680 Q67 1003 268 1208 Q456 1399 759 1399 Q1038 1399 1211 1220 Q1340 1087 1361 902 L1016 902 Q993 1000 925.5 1052.5 Q858 1105 754 1105 Q598 1105 513.5 993.5 Q429 882 429 676 Q429 492 500 389 Q589 260 770 260 Q889 260 963 319 Q1037 378 1055 488 L807 488 L807 743 L1380 743 Z M595 -493 Q667 -486 711.5 -462 Q756 -438 761 -401 Q742 -405 730 -405 Q661 -405 611.5 -360 Q562 -315 562 -253 Q562 -189 611.5 -143 Q661 -97 729 -97 Q813 -97 867 -156.5 Q921 -216 921 -308 Q921 -438 825 -520 Q780 -559 732.5 -577.5 Q685 -596 595 -610 L595 -493 Z " />
<glyph glyph-name="gcommaaccent" unicode="&#x123;" horiz-adv-x="1187" d="M1076 990 L1076 131 Q1076 19 1061 -47.5 Q1046 -114 1008 -170 Q887 -351 575 -351 Q131 -351 92 -33 L416 -33 Q432 -92 470 -117 Q508 -142 580 -142 Q681 -142 722 -92 Q763 -42 763 81 L763 189 Q658 50 476 50 Q288 50 174 177 Q58 305 58 529 Q58 745 170 877 Q288 1017 483 1017 Q580 1017 643.5 982.5 Q707 948 763 865 L763 990 L1076 990 Z M575 770 Q467 770 416 688 Q377 626 377 535 Q377 419 429 354 Q481 288 573 288 Q681 288 731 377 Q767 439 767 531 Q767 647 710 712 Q660 770 575 770 Z M742 1492 Q670 1486 625.5 1461.5 Q581 1437 576 1400 Q599 1404 607 1404 Q676 1404 725.5 1359 Q775 1314 775 1252 Q775 1188 725.5 1142 Q676 1096 608 1096 Q524 1096 470 1155.5 Q416 1215 416 1307 Q416 1437 512 1519 Q557 1558 604.5 1577 Q652 1596 742 1610 L742 1492 Z " />
<glyph glyph-name="Hcircumflex" unicode="&#x124;" horiz-adv-x="1427" d="M1303 1365 L1303 0 L947 0 L947 564 L482 564 L482 0 L126 0 L126 1365 L482 1365 L482 871 L947 871 L947 1365 L1303 1365 Z M1082 1488 L835 1488 L710 1629 L586 1488 L346 1488 L573 1750 L857 1750 L1082 1488 Z " />
<glyph glyph-name="hcircumflex" unicode="&#x125;" horiz-adv-x="1205" d="M438 1365 L438 861 Q554 1017 751 1017 Q951 1017 1044 882 Q1103 796 1103 623 L1103 0 L778 0 L778 564 Q778 663 748 700 Q707 751 622 751 Q514 751 464 664 Q438 617 438 495 L438 0 L113 0 L113 1365 L438 1365 Z M855 1488 L608 1488 L484 1629 L360 1488 L120 1488 L347 1750 L631 1750 L855 1488 Z " />
<glyph glyph-name="Hbar" unicode="&#x126;" horiz-adv-x="1427" d="M1302 1212 L1418 1212 L1418 1035 L1302 1035 L1302 0 L946 0 L946 564 L481 564 L481 0 L125 0 L125 1035 L9 1035 L9 1212 L125 1212 L125 1365 L481 1365 L481 1212 L946 1212 L946 1365 L1302 1365 L1302 1212 Z M481 1035 L481 871 L946 871 L946 1035 L481 1035 Z " />
<glyph glyph-name="hbar" unicode="&#x127;" horiz-adv-x="1205" d="M437 0 L112 0 L112 1092 L3 1092 L3 1256 L112 1256 L112 1365 L437 1365 L437 1256 L697 1256 L697 1092 L437 1092 L437 861 Q553 1017 750 1017 Q951 1017 1043 882 Q1102 796 1102 623 L1102 0 L777 0 L777 564 Q777 663 747 700 Q706 751 621 751 Q513 751 463 664 Q437 617 437 495 L437 0 Z " />
<glyph glyph-name="Itilde" unicode="&#x128;" horiz-adv-x="606" d="M481 1365 L481 0 L125 0 L125 1365 L481 1365 Z M672 1746 Q646 1619 611 1573 Q551 1496 466 1496 Q390 1496 270 1541 Q187 1573 158 1573 Q99 1573 81 1492 L-66 1492 Q-51 1610 5.5 1675.5 Q62 1741 149 1741 Q190 1741 226 1731 Q262 1721 375 1678 Q414 1663 444 1663 Q510 1663 523 1746 L672 1746 Z " />
<glyph glyph-name="itilde" unicode="&#x129;" horiz-adv-x="547" d="M437 990 L437 0 L112 0 L112 990 L437 990 Z M609 1390 Q587 1256 542.5 1202.5 Q498 1149 408 1149 Q336 1149 244 1189 Q172 1219 143 1219 Q92 1219 78 1141 L-62 1141 Q-41 1259 -14 1302 Q40 1389 137 1389 Q180 1389 210.5 1379.5 Q241 1370 339 1326 Q372 1311 400 1311 Q454 1311 469 1390 L609 1390 Z " />
<glyph glyph-name="Imacron" unicode="&#x12a;" horiz-adv-x="606" d="M482 1365 L482 0 L126 0 L126 1365 L482 1365 Z M593 1694 L593 1536 L14 1536 L14 1694 L593 1694 Z " />
<glyph glyph-name="imacron" unicode="&#x12b;" horiz-adv-x="547" d="M437 990 L437 0 L112 0 L112 990 L437 990 Z M533 1342 L533 1184 L14 1184 L14 1342 L533 1342 Z " />
<glyph glyph-name="Ibreve" unicode="&#x12c;" horiz-adv-x="606" d="M481 1365 L481 0 L125 0 L125 1365 L481 1365 Z M633 1752 Q621 1658 577 1598 Q483 1468 295 1468 Q122 1468 31 1588 Q-21 1656 -26 1752 L130 1752 Q173 1637 307 1637 Q440 1637 478 1752 L633 1752 Z " />
<glyph glyph-name="ibreve" unicode="&#x12d;" horiz-adv-x="547" d="M437 990 L437 0 L112 0 L112 990 L437 990 Z M570 1410 Q557 1305 518 1242 Q478 1180 412 1146 Q346 1112 267 1112 Q139 1112 62 1191.5 Q-15 1271 -23 1410 L124 1410 Q152 1276 278 1276 Q391 1276 423 1410 L570 1410 Z " />
<glyph glyph-name="Iogonek" unicode="&#x12e;" horiz-adv-x="606" d="M482 0 Q352 -112 352 -191 Q352 -228 378.5 -244.5 Q405 -261 464 -261 Q488 -261 526 -253 L526 -373 Q457 -393 402 -393 Q288 -393 227 -336 Q180 -292 180 -230 Q180 -166 212.5 -114.5 Q245 -63 325 0 L126 0 L126 1365 L482 1365 L482 0 Z " />
<glyph glyph-name="iogonek" unicode="&#x12f;" horiz-adv-x="547" d="M436 0 Q305 -111 305 -191 Q305 -228 331.5 -244.5 Q358 -261 417 -261 Q442 -261 481 -253 L481 -373 Q410 -393 356 -393 Q243 -393 181 -336 Q134 -293 134 -230 Q134 -166 167 -114.5 Q200 -63 280 0 L112 0 L112 990 L436 990 L436 0 Z M273 1418 Q349 1418 403 1364 Q457 1310 457 1234 Q457 1159 402.5 1104.5 Q348 1050 273 1050 Q197 1050 143 1104.5 Q89 1159 89 1236 Q89 1310 143.5 1364 Q198 1418 273 1418 Z " />
<glyph glyph-name="Idot" unicode="&#x130;" horiz-adv-x="606" d="M482 1365 L482 0 L126 0 L126 1365 L482 1365 Z M302 1797 Q378 1797 432 1743 Q486 1689 486 1613 Q486 1538 431.5 1483.5 Q377 1429 302 1429 Q226 1429 172 1483.5 Q118 1538 118 1615 Q118 1689 172.5 1743 Q227 1797 302 1797 Z " />
<glyph glyph-name="dotlessi" unicode="&#x131;" horiz-adv-x="547" d="M437 990 L437 0 L112 0 L112 990 L437 990 Z " />
<glyph glyph-name="IJ" unicode="&#x132;" horiz-adv-x="1664" d="M482 1365 L482 0 L126 0 L126 1365 L482 1365 Z M1562 1365 L1562 452 Q1562 329 1540 254 Q1518 179 1464 115 Q1337 -34 1087 -34 Q788 -34 669 168 Q606 275 606 483 Q606 518 606 542 L933 542 Q933 517 933 506 Q933 362 955 321 Q987 260 1074 260 Q1146 260 1176 300.5 Q1206 341 1206 436 L1206 1365 L1562 1365 Z " />
<glyph glyph-name="ij" unicode="&#x133;" horiz-adv-x="1094" d="M273 1418 Q349 1418 403 1364 Q457 1310 457 1234 Q457 1159 402.5 1104.5 Q348 1050 273 1050 Q197 1050 143 1104.5 Q89 1159 89 1236 Q89 1310 143.5 1364 Q198 1418 273 1418 Z M437 990 L437 0 L112 0 L112 990 L437 990 Z M984 990 L984 11 Q984 -99 973 -142 Q944 -249 864 -295 Q784 -341 626 -341 Q579 -341 491 -337 L491 -77 Q508 -75 562 -74 Q637 -73 652 -21 Q659 3 659 137 L659 990 L984 990 Z M820 1418 Q896 1418 950 1364 Q1004 1310 1004 1234 Q1004 1159 949.5 1104.5 Q895 1050 820 1050 Q744 1050 690 1104.5 Q636 1159 636 1236 Q636 1310 690.5 1364 Q745 1418 820 1418 Z " />
<glyph glyph-name="Jcircumflex" unicode="&#x134;" horiz-adv-x="1072" d="M969 1365 L969 452 Q969 329 947 254 Q925 179 871 115 Q744 -34 494 -34 Q194 -34 76 168 Q13 275 13 483 Q13 507 14 542 L340 542 Q340 515 340 506 Q340 362 361 321 Q394 260 481 260 Q553 260 583 300.5 Q613 341 613 436 L613 1365 L969 1365 Z M1150 1488 L903 1488 L779 1629 L654 1488 L414 1488 L641 1750 L925 1750 L1150 1488 Z " />
<glyph glyph-name="jcircumflex" unicode="&#x135;" horiz-adv-x="547" d="M438 990 L438 11 Q438 -99 427 -142 Q398 -249 318 -295 Q238 -341 80 -341 Q33 -341 -55 -337 L-55 -77 Q-38 -75 16 -74 Q91 -73 106 -21 Q113 3 113 137 L113 990 L438 990 Z M635 1126 L388 1126 L271 1281 L153 1126 L-87 1126 L134 1402 L417 1402 L635 1126 Z " />
<glyph glyph-name="Kcommaaccent" unicode="&#x136;" horiz-adv-x="1404" d="M1376 1365 L870 830 L1439 0 L997 0 L630 572 L482 422 L482 0 L126 0 L126 1365 L482 1365 L482 1024 L482 924 L482 830 Q556 931 608 991 L937 1365 L1376 1365 Z M567 -493 Q639 -486 683.5 -462 Q728 -438 733 -401 Q714 -405 702 -405 Q633 -405 583.5 -360 Q534 -315 534 -253 Q534 -189 583 -143 Q632 -97 701 -97 Q785 -97 839 -156.5 Q893 -216 893 -308 Q893 -438 797 -520 Q752 -559 704.5 -577.5 Q657 -596 567 -610 L567 -493 Z " />
<glyph glyph-name="kcommaaccent" unicode="&#x137;" horiz-adv-x="1145" d="M1114 990 L751 619 L1165 0 L775 0 L529 401 L438 317 L438 0 L113 0 L113 1365 L438 1365 L438 653 Q476 711 507 744 L739 990 L1114 990 Z M424 -493 Q497 -486 541 -462 Q585 -438 590 -401 Q571 -405 559 -405 Q490 -405 440.5 -360 Q391 -315 391 -253 Q391 -189 440 -143 Q489 -97 558 -97 Q642 -97 696 -156.5 Q750 -216 750 -308 Q750 -438 654 -520 Q609 -559 561.5 -577.5 Q514 -596 424 -610 L424 -493 Z " />
<glyph glyph-name="kgreenlandic" unicode="&#x138;" horiz-adv-x="1145" d="M1114 990 L751 619 L1165 0 L775 0 L529 401 L438 317 L438 0 L113 0 L113 990 L438 990 L438 653 Q476 711 507 744 L739 990 L1114 990 Z " />
<glyph glyph-name="Lacute" unicode="&#x139;" horiz-adv-x="1177" d="M1123 307 L1123 0 L126 0 L126 1365 L482 1365 L482 307 L1123 307 Z M692 1750 L365 1488 L131 1488 L325 1750 L692 1750 Z " />
<glyph glyph-name="lacute" unicode="&#x13a;" horiz-adv-x="547" d="M437 1365 L437 0 L112 0 L112 1365 L437 1365 Z M617 1750 L324 1488 L117 1488 L284 1750 L617 1750 Z " />
<glyph glyph-name="Lcommaaccent" unicode="&#x13b;" horiz-adv-x="1177" d="M1123 307 L1123 0 L126 0 L126 1365 L482 1365 L482 307 L1123 307 Z M471 -493 Q544 -486 588 -462 Q632 -438 637 -401 Q618 -405 606 -405 Q537 -405 487.5 -360 Q438 -315 438 -253 Q438 -189 487 -143 Q536 -97 605 -97 Q689 -97 743 -156.5 Q797 -216 797 -308 Q797 -438 701 -520 Q656 -559 608.5 -577.5 Q561 -596 471 -610 L471 -493 Z " />
<glyph glyph-name="lcommaaccent" unicode="&#x13c;" horiz-adv-x="547" d="M437 1365 L437 0 L112 0 L112 1365 L437 1365 Z M125 -493 Q198 -486 242 -462 Q286 -438 291 -401 Q272 -405 260 -405 Q192 -405 142 -360 Q92 -315 92 -253 Q92 -189 141 -143 Q190 -97 259 -97 Q343 -97 397 -156.5 Q451 -216 451 -308 Q451 -438 355 -520 Q310 -559 262.5 -577.5 Q215 -596 125 -610 L125 -493 Z " />
<glyph glyph-name="Lcaron" unicode="&#x13d;" horiz-adv-x="1177" d="M1123 307 L1123 0 L126 0 L126 1365 L482 1365 L482 307 L1123 307 Z M686 995 Q759 1001 803 1025.5 Q847 1050 852 1087 Q837 1083 821 1083 Q753 1083 703 1128 Q653 1173 653 1235 Q653 1299 702.5 1345 Q752 1391 820 1391 Q904 1391 958 1331.5 Q1012 1272 1012 1180 Q1012 1050 916 968 Q871 929 824 910.5 Q777 892 686 877 L686 995 Z " />
<glyph glyph-name="lcaron" unicode="&#x13e;" horiz-adv-x="909" d="M437 1365 L437 0 L112 0 L112 1365 L437 1365 Z M572 995 Q644 1001 688.5 1025.5 Q733 1050 738 1087 Q722 1083 707 1083 Q638 1083 588.5 1128 Q539 1173 539 1235 Q539 1299 588.5 1345 Q638 1391 706 1391 Q790 1391 844 1331.5 Q898 1272 898 1180 Q898 1050 802 968 Q757 929 710 910.5 Q663 892 572 877 L572 995 Z " />
<glyph glyph-name="Ldot" unicode="&#x13f;" horiz-adv-x="1177" d="M1123 307 L1123 0 L126 0 L126 1365 L482 1365 L482 307 L1123 307 Z M892 949 Q967 949 1021.5 895 Q1076 841 1076 765 Q1076 690 1021.5 635.5 Q967 581 892 581 Q816 581 762 635.5 Q708 690 708 767 Q708 841 762.5 895 Q817 949 892 949 Z " />
<glyph glyph-name="ldot" unicode="&#x140;" horiz-adv-x="937" d="M437 1365 L437 0 L112 0 L112 1365 L437 1365 Z M742 880 Q818 880 872 826 Q926 772 926 696 Q926 621 871.5 566.5 Q817 512 742 512 Q666 512 612 566.5 Q558 621 558 698 Q558 772 612.5 826 Q667 880 742 880 Z " />
<glyph glyph-name="Lslash" unicode="&#x141;" horiz-adv-x="1177" d="M126 730 L126 1365 L482 1365 L482 909 L768 1109 L768 873 L482 674 L482 307 L1123 307 L1123 0 L126 0 L126 495 L10 414 L10 649 L126 730 Z " />
<glyph glyph-name="lslash" unicode="&#x142;" horiz-adv-x="557" d="M116 739 L116 1365 L441 1365 L441 895 L550 971 L550 775 L441 699 L441 0 L116 0 L116 542 L7 466 L7 662 L116 739 Z " />
<glyph glyph-name="Nacute" unicode="&#x143;" horiz-adv-x="1433" d="M1310 1365 L1310 0 L963 0 L595 620 L556 689 Q498 791 460 876 Q473 725 473 528 L473 0 L126 0 L126 1365 L486 1365 L825 787 Q926 615 979 501 Q963 703 963 853 L963 1365 L1310 1365 Z M1093 1750 L766 1488 L532 1488 L726 1750 L1093 1750 Z " />
<glyph glyph-name="nacute" unicode="&#x144;" horiz-adv-x="1201" d="M425 990 L425 859 Q542 1017 750 1017 Q872 1017 963 958 Q1038 908 1068 831.5 Q1098 755 1098 614 L1098 0 L773 0 L773 561 Q773 638 757 677 Q726 751 622 751 Q569 751 525.5 727.5 Q482 704 461 664 Q437 619 437 529 L437 0 L112 0 L112 990 L425 990 Z M936 1402 L635 1126 L430 1126 L597 1402 L936 1402 Z " />
<glyph glyph-name="Ncommaaccent" unicode="&#x145;" horiz-adv-x="1433" d="M1310 1365 L1310 0 L963 0 L595 620 L556 689 Q498 791 460 876 Q473 725 473 528 L473 0 L126 0 L126 1365 L486 1365 L825 787 Q926 615 979 501 Q963 703 963 853 L963 1365 L1310 1365 Z M561 -493 Q633 -486 677.5 -462 Q722 -438 727 -401 Q708 -405 696 -405 Q627 -405 577.5 -360 Q528 -315 528 -253 Q528 -189 577 -143 Q626 -97 695 -97 Q779 -97 833 -156.5 Q887 -216 887 -308 Q887 -438 791 -520 Q746 -559 698.5 -577.5 Q651 -596 561 -610 L561 -493 Z " />
<glyph glyph-name="ncommaaccent" unicode="&#x146;" horiz-adv-x="1201" d="M425 990 L425 859 Q542 1017 750 1017 Q872 1017 963 958 Q1038 908 1068 831.5 Q1098 755 1098 614 L1098 0 L773 0 L773 561 Q773 638 757 677 Q726 751 622 751 Q569 751 525.5 727.5 Q482 704 461 664 Q437 619 437 529 L437 0 L112 0 L112 990 L425 990 Z M452 -493 Q524 -486 568.5 -462 Q613 -438 618 -401 Q599 -405 587 -405 Q518 -405 468.5 -360 Q419 -315 419 -253 Q419 -189 468.5 -143 Q518 -97 586 -97 Q670 -97 724 -156.5 Q778 -216 778 -308 Q778 -438 682 -520 Q637 -559 589.5 -577.5 Q542 -596 452 -610 L452 -493 Z " />
<glyph glyph-name="Ncaron" unicode="&#x147;" horiz-adv-x="1433" d="M1310 1365 L1310 0 L963 0 L595 620 L556 689 Q498 791 460 876 Q473 725 473 528 L473 0 L126 0 L126 1365 L486 1365 L825 787 Q926 615 979 501 Q963 703 963 853 L963 1365 L1310 1365 Z M1084 1750 L860 1488 L576 1488 L349 1750 L589 1750 L713 1609 L837 1750 L1084 1750 Z " />
<glyph glyph-name="ncaron" unicode="&#x148;" horiz-adv-x="1201" d="M425 990 L425 859 Q542 1017 750 1017 Q872 1017 963 958 Q1038 908 1068 831.5 Q1098 755 1098 614 L1098 0 L773 0 L773 561 Q773 638 757 677 Q726 751 622 751 Q569 751 525.5 727.5 Q482 704 461 664 Q437 619 437 529 L437 0 L112 0 L112 990 L425 990 Z M952 1402 L735 1126 L451 1126 L230 1402 L470 1402 L588 1247 L705 1402 L952 1402 Z " />
<glyph glyph-name="napostrophe" unicode="&#x149;" horiz-adv-x="1727" d="M138 836 Q215 849 261.5 896.5 Q308 944 314 1017 Q296 1012 282 1012 Q209 1012 157 1064.5 Q105 1117 105 1190 Q105 1266 156.5 1320.5 Q208 1375 280 1375 Q370 1375 426 1304.5 Q482 1234 482 1121 Q482 937 381 815 Q334 758 283 730.5 Q232 703 138 682 L138 836 Z M950 990 L950 859 Q1067 1017 1275 1017 Q1397 1017 1488 958 Q1562 908 1592.5 831.5 Q1623 755 1623 614 L1623 0 L1298 0 L1298 561 Q1298 638 1282 677 Q1251 751 1147 751 Q1094 751 1050.5 727.5 Q1007 704 986 664 Q962 618 962 529 L962 0 L637 0 L637 990 L950 990 Z " />
<glyph glyph-name="Eng" unicode="&#x14a;" horiz-adv-x="1427" d="M482 1365 L482 1209 Q539 1282 597 1319 Q723 1399 886 1399 Q1033 1399 1142 1328 Q1231 1269 1267 1177 Q1303 1085 1303 916 L1303 11 Q1303 -123 1269 -194 Q1199 -341 916 -341 Q870 -341 779 -337 L779 -77 Q796 -74 850 -74 Q925 -73 940 -20 Q947 4 947 137 L947 853 Q947 956 924 1007 Q904 1053 853.5 1079.5 Q803 1106 736 1106 Q664 1106 604 1075 Q544 1044 515 992 Q482 933 482 814 L482 0 L126 0 L126 1365 L482 1365 Z " />
<glyph glyph-name="eng" unicode="&#x14b;" horiz-adv-x="1201" d="M425 990 L425 859 Q542 1017 750 1017 Q872 1017 963 958 Q1038 908 1068 831.5 Q1098 755 1098 614 L1098 11 Q1098 -98 1087 -142 Q1058 -249 978 -295 Q898 -341 740 -341 Q693 -341 605 -337 L605 -77 Q622 -74 676 -74 Q751 -73 766 -20 Q773 4 773 137 L773 561 Q773 638 757 677 Q726 751 622 751 Q569 751 525.5 727.5 Q482 704 461 664 Q437 619 437 529 L437 0 L112 0 L112 990 L425 990 Z " />
<glyph glyph-name="Omacron" unicode="&#x14c;" horiz-adv-x="1483" d="M754 1399 Q1016 1399 1201 1228 Q1416 1029 1416 682 Q1416 387 1254 193 Q1064 -34 746 -34 Q527 -34 359 78 Q195 188 122 372 Q67 510 67 680 Q67 1024 270 1216 Q464 1399 754 1399 Z M749 1106 Q595 1106 513 991 Q429 873 429 683 Q429 475 522 360 Q559 313 619 286 Q679 259 746 259 Q891 259 969 367 Q1054 486 1054 691 Q1054 881 972 993 Q890 1106 749 1106 Z M1102 1694 L1102 1536 L381 1536 L381 1694 L1102 1694 Z " />
<glyph glyph-name="omacron" unicode="&#x14d;" horiz-adv-x="1157" d="M578 1017 Q811 1017 956 875 Q1102 732 1102 499 Q1102 262 955 117 Q809 -27 572 -27 Q342 -27 195 123 Q55 268 55 497 Q55 726 196 867 Q345 1017 578 1017 Z M579 779 Q485 779 434.5 705.5 Q384 632 384 495 Q384 362 432 290 Q484 211 579 211 Q672 211 722.5 285.5 Q773 360 773 498 Q773 627 728 697 Q674 779 579 779 Z M899 1342 L899 1184 L271 1184 L271 1342 L899 1342 Z " />
<glyph glyph-name="Obreve" unicode="&#x14e;" horiz-adv-x="1483" d="M754 1399 Q1016 1399 1201 1228 Q1416 1029 1416 682 Q1416 387 1254 193 Q1064 -34 746 -34 Q527 -34 359 78 Q195 188 122 372 Q67 510 67 680 Q67 1024 270 1216 Q464 1399 754 1399 Z M749 1106 Q595 1106 513 991 Q429 873 429 683 Q429 475 522 360 Q559 313 619 286 Q679 259 746 259 Q891 259 969 367 Q1054 486 1054 691 Q1054 881 972 993 Q890 1106 749 1106 Z M1085 1752 Q1073 1659 1029 1598 Q936 1468 735 1468 Q546 1468 455 1588 Q403 1656 398 1752 L554 1752 Q572 1704 599 1680 Q648 1637 745 1637 Q825 1637 866.5 1663 Q908 1689 929 1752 L1085 1752 Z " />
<glyph glyph-name="obreve" unicode="&#x14f;" horiz-adv-x="1157" d="M578 1017 Q811 1017 956 875 Q1102 732 1102 499 Q1102 262 955 117 Q809 -27 572 -27 Q342 -27 195 123 Q55 268 55 497 Q55 726 196 867 Q345 1017 578 1017 Z M579 779 Q485 779 434.5 705.5 Q384 632 384 495 Q384 362 432 290 Q484 211 579 211 Q672 211 722.5 285.5 Q773 360 773 498 Q773 627 728 697 Q674 779 579 779 Z M896 1410 Q860 1112 575 1112 Q396 1112 315 1232 Q268 1302 262 1410 L409 1410 Q420 1357 442 1330 Q484 1276 588 1276 Q660 1276 695 1305 Q730 1334 749 1410 L896 1410 Z " />
<glyph glyph-name="Ohungarumlaut" unicode="&#x150;" horiz-adv-x="1483" d="M754 1399 Q1016 1399 1201 1228 Q1416 1029 1416 682 Q1416 387 1254 193 Q1064 -34 746 -34 Q527 -34 359 78 Q195 188 122 372 Q67 510 67 680 Q67 1024 270 1216 Q464 1399 754 1399 Z M749 1106 Q595 1106 513 991 Q429 873 429 683 Q429 475 522 360 Q559 313 619 286 Q679 259 746 259 Q891 259 969 367 Q1054 486 1054 691 Q1054 881 972 993 Q890 1106 749 1106 Z M1318 1750 L1046 1488 L853 1488 L1013 1750 L1318 1750 Z M922 1750 L650 1488 L457 1488 L617 1750 L922 1750 Z " />
<glyph glyph-name="ohungarumlaut" unicode="&#x151;" horiz-adv-x="1157" d="M578 1017 Q811 1017 956 875 Q1102 732 1102 499 Q1102 262 955 117 Q809 -27 572 -27 Q342 -27 195 123 Q55 268 55 497 Q55 726 196 867 Q345 1017 578 1017 Z M579 779 Q485 779 434.5 705.5 Q384 632 384 495 Q384 362 432 290 Q484 211 579 211 Q672 211 722.5 285.5 Q773 360 773 498 Q773 627 728 697 Q674 779 579 779 Z M1081 1402 L841 1126 L684 1126 L810 1402 L1081 1402 Z M726 1402 L486 1126 L329 1126 L455 1402 L726 1402 Z " />
<glyph glyph-name="OE" unicode="&#x152;" horiz-adv-x="2120" d="M2026 1365 L2026 1071 L1361 1071 L1361 845 L1969 845 L1969 565 L1361 565 L1361 294 L2043 294 L2043 0 L1024 0 L1024 86 Q906 -34 700 -34 Q411 -34 228 188 Q67 385 67 675 Q67 992 253 1197 Q437 1399 711 1399 Q925 1399 1024 1277 L1024 1365 L2026 1365 Z M1024 597 L1024 769 Q1024 916 963 999 Q887 1105 748 1105 Q602 1105 515.5 992 Q429 879 429 689 Q429 484 520 367 Q603 260 741 260 Q887 260 965 372 Q1024 458 1024 597 Z " />
<glyph glyph-name="oe" unicode="&#x153;" horiz-adv-x="1832" d="M1771 313 Q1728 183 1640 102 Q1567 35 1480 4 Q1393 -27 1277 -27 Q1150 -27 1066.5 6.5 Q983 40 914 119 Q850 41 767 7 Q684 -27 563 -27 Q314 -27 177 134 Q55 276 55 493 Q55 736 217 889 Q354 1017 587 1017 Q818 1017 926 877 Q1056 1017 1276 1017 Q1435 1017 1556 939 Q1671 864 1725 740 Q1779 616 1779 422 L1053 422 Q1058 339 1093 287 Q1155 193 1275 193 Q1340 193 1381 219.5 Q1422 246 1460 313 L1771 313 Z M1458 595 Q1451 675 1418 720 Q1364 795 1260 795 Q1171 795 1117.5 743.5 Q1064 692 1051 595 L1458 595 Z M588 780 Q491 780 437.5 705.5 Q384 631 384 497 Q384 368 428 293 Q475 211 579 211 Q773 211 773 504 Q773 620 739 686 Q692 780 588 780 Z " />
<glyph glyph-name="Racute" unicode="&#x154;" horiz-adv-x="1428" d="M122 1365 L796 1365 Q1003 1365 1111 1301 Q1199 1249 1247.5 1162.5 Q1296 1076 1296 970 Q1296 857 1239 767 Q1182 677 1086 638 Q1170 614 1223 534 Q1256 483 1268.5 423 Q1281 363 1299 170 Q1311 45 1333 14 L1344 0 L980 0 Q968 27 963 57.5 Q958 88 948 195 Q937 316 925 363.5 Q913 411 883 448 Q833 508 697 508 L478 508 L478 0 L122 0 L122 1365 Z M478 1085 L478 763 L731 763 Q843 763 890 800 Q945 844 945 927 Q945 1008 891.5 1046.5 Q838 1085 726 1085 L478 1085 Z M1042 1750 L715 1488 L481 1488 L676 1750 L1042 1750 Z " />
<glyph glyph-name="racute" unicode="&#x155;" horiz-adv-x="810" d="M809 1003 L809 712 Q731 732 684 732 Q546 732 477 625 Q438 562 438 431 L438 0 L113 0 L113 990 L426 990 L426 821 Q529 1019 734 1019 Q777 1019 809 1003 Z M816 1402 L515 1126 L309 1126 L476 1402 L816 1402 Z " />
<glyph glyph-name="Rcommaaccent" unicode="&#x156;" horiz-adv-x="1428" d="M122 1365 L796 1365 Q1003 1365 1111 1301 Q1199 1249 1247.5 1162.5 Q1296 1076 1296 970 Q1296 857 1239 767 Q1182 677 1086 638 Q1170 614 1223 534 Q1256 483 1268.5 423 Q1281 363 1299 170 Q1311 45 1333 14 L1344 0 L980 0 Q968 27 963 57.5 Q958 88 948 195 Q937 316 925 363.5 Q913 411 883 448 Q833 508 697 508 L478 508 L478 0 L122 0 L122 1365 Z M478 1085 L478 763 L731 763 Q843 763 890 800 Q945 844 945 927 Q945 1008 891.5 1046.5 Q838 1085 726 1085 L478 1085 Z M565 -493 Q638 -486 682 -462 Q726 -438 731 -401 Q712 -405 700 -405 Q632 -405 582 -360 Q532 -315 532 -253 Q532 -189 581.5 -143 Q631 -97 699 -97 Q783 -97 837 -156.5 Q891 -216 891 -308 Q891 -438 795 -520 Q750 -559 702.5 -577.5 Q655 -596 565 -610 L565 -493 Z " />
<glyph glyph-name="rcommaaccent" unicode="&#x157;" horiz-adv-x="810" d="M809 1003 L809 712 Q731 732 684 732 Q545 732 477 625 Q437 563 437 431 L437 0 L112 0 L112 990 L425 990 L425 821 Q528 1019 734 1019 Q777 1019 809 1003 Z M126 -493 Q199 -486 243 -462 Q287 -438 292 -401 Q273 -405 261 -405 Q193 -405 143 -360 Q93 -315 93 -253 Q93 -189 142 -143 Q191 -97 260 -97 Q344 -97 398 -156.5 Q452 -216 452 -308 Q452 -438 356 -520 Q311 -559 263.5 -577.5 Q216 -596 126 -610 L126 -493 Z " />
<glyph glyph-name="Rcaron" unicode="&#x158;" horiz-adv-x="1428" d="M122 1365 L796 1365 Q1003 1365 1111 1301 Q1199 1249 1247.5 1162.5 Q1296 1076 1296 970 Q1296 857 1239 767 Q1182 677 1086 638 Q1170 614 1223 534 Q1256 483 1268.5 423 Q1281 363 1299 170 Q1311 45 1333 14 L1344 0 L980 0 Q968 27 963 57.5 Q958 88 948 195 Q937 316 925 363.5 Q913 411 883 448 Q833 508 697 508 L478 508 L478 0 L122 0 L122 1365 Z M478 1085 L478 763 L731 763 Q843 763 890 800 Q945 844 945 927 Q945 1008 891.5 1046.5 Q838 1085 726 1085 L478 1085 Z M1041 1750 L816 1488 L532 1488 L305 1750 L545 1750 L669 1609 L794 1750 L1041 1750 Z " />
<glyph glyph-name="rcaron" unicode="&#x159;" horiz-adv-x="810" d="M809 1003 L809 712 Q731 732 684 732 Q546 732 477 625 Q438 562 438 431 L438 0 L113 0 L113 990 L426 990 L426 821 Q529 1019 734 1019 Q777 1019 809 1003 Z M836 1402 L618 1126 L334 1126 L114 1402 L354 1402 L471 1247 L589 1402 L836 1402 Z " />
<glyph glyph-name="Sacute" unicode="&#x15a;" horiz-adv-x="1285" d="M1171 956 L832 956 Q828 1036 770.5 1080 Q713 1124 612 1124 Q525 1124 476.5 1092 Q428 1060 428 1004 Q428 948 477 924 Q518 903 745 845 Q961 790 1058 730 Q1225 626 1225 421 Q1225 200 1052 76 Q900 -34 642 -34 Q276 -34 120 175 Q36 289 32 459 L390 459 Q396 346 459.5 294 Q523 242 655 242 Q863 242 863 381 Q863 446 808.5 478 Q754 510 539 571 Q386 614 314 645 Q242 676 189 721 Q84 811 84 980 Q84 1170 232.5 1284.5 Q381 1399 628 1399 Q883 1399 1024.5 1283.5 Q1166 1168 1171 956 Z M1015 1750 L688 1488 L454 1488 L649 1750 L1015 1750 Z " />
<glyph glyph-name="sacute" unicode="&#x15b;" horiz-adv-x="1039" d="M955 702 L656 702 Q646 764 609.5 790 Q573 816 496 816 Q367 816 367 737 Q367 694 408 674.5 Q449 655 598 627 Q788 590 878 533 Q986 463 986 315 Q986 156 862 66 Q733 -27 510 -27 Q246 -27 121 97 Q38 179 26 326 L335 326 Q343 253 386 219.5 Q429 186 514 186 Q584 186 625 213 Q666 240 666 287 Q666 331 629 351 Q592 371 458 400 Q331 428 273 446 Q215 464 169 489 Q112 522 79.5 580 Q47 638 47 710 Q47 864 176 945 Q290 1017 501 1017 Q771 1017 885 890 Q945 823 955 702 Z M854 1402 L553 1126 L348 1126 L522 1402 L854 1402 Z " />
<glyph glyph-name="Scircumflex" unicode="&#x15c;" horiz-adv-x="1285" d="M1171 956 L832 956 Q828 1036 770.5 1080 Q713 1124 612 1124 Q525 1124 476.5 1092 Q428 1060 428 1004 Q428 948 477 924 Q518 903 745 845 Q961 790 1058 730 Q1225 626 1225 421 Q1225 200 1052 76 Q900 -34 642 -34 Q276 -34 120 175 Q36 289 32 459 L390 459 Q396 346 459.5 294 Q523 242 655 242 Q863 242 863 381 Q863 446 808.5 478 Q754 510 539 571 Q386 614 314 645 Q242 676 189 721 Q84 811 84 980 Q84 1170 232.5 1284.5 Q381 1399 628 1399 Q883 1399 1024.5 1283.5 Q1166 1168 1171 956 Z M1011 1488 L764 1488 L639 1629 L515 1488 L275 1488 L502 1750 L786 1750 L1011 1488 Z " />
<glyph glyph-name="scircumflex" unicode="&#x15d;" horiz-adv-x="1039" d="M955 702 L656 702 Q646 764 609.5 790 Q573 816 496 816 Q367 816 367 737 Q367 694 408 674.5 Q449 655 598 627 Q788 590 878 533 Q986 463 986 315 Q986 156 862 66 Q733 -27 510 -27 Q246 -27 121 97 Q38 179 26 326 L335 326 Q343 253 386 219.5 Q429 186 514 186 Q584 186 625 213 Q666 240 666 287 Q666 331 629 351 Q592 371 458 400 Q331 428 273 446 Q215 464 169 489 Q112 522 79.5 580 Q47 638 47 710 Q47 864 176 945 Q290 1017 501 1017 Q771 1017 885 890 Q945 823 955 702 Z M887 1126 L640 1126 L523 1281 L405 1126 L165 1126 L386 1402 L670 1402 L887 1126 Z " />
<glyph glyph-name="Scedilla" unicode="&#x15e;" horiz-adv-x="1285" d="M623 -34 L570 -120 Q620 -110 649 -110 Q724 -110 771.5 -149.5 Q819 -189 819 -252 Q819 -329 752.5 -378 Q686 -427 582 -427 Q470 -427 347 -380 L386 -295 Q484 -330 549 -330 Q640 -330 640 -261 Q640 -230 616.5 -210.5 Q593 -191 556 -191 Q526 -191 482 -207 L439 -166 L528 -28 Q248 7 120 175 Q36 289 32 459 L390 459 Q396 345 459.5 293 Q523 241 655 241 Q863 241 863 381 Q863 446 808.5 478 Q754 510 539 570 Q386 614 314 644.5 Q242 675 189 721 Q84 810 84 980 Q84 1170 232.5 1284.5 Q381 1399 628 1399 Q883 1399 1024.5 1283.5 Q1166 1168 1171 956 L832 956 Q828 1036 770.5 1080 Q713 1124 612 1124 Q525 1124 476.5 1092 Q428 1060 428 1004 Q428 948 477 924 Q518 903 745 845 Q961 790 1058 730 Q1225 626 1225 421 Q1225 205 1066.5 85 Q908 -35 623 -34 Z " />
<glyph glyph-name="scedilla" unicode="&#x15f;" horiz-adv-x="1039" d="M506 -28 L451 -122 Q502 -112 529 -112 Q605 -112 652.5 -151.5 Q700 -191 700 -254 Q700 -332 633.5 -381 Q567 -430 463 -430 Q350 -430 228 -382 L267 -297 Q365 -333 430 -333 Q521 -333 521 -264 Q521 -233 497.5 -213.5 Q474 -194 437 -194 Q408 -194 363 -209 L320 -169 L416 -22 Q281 -9 195 41 Q37 136 26 326 L335 326 Q343 253 386 219 Q429 185 514 185 Q584 185 625 212 Q666 239 666 286 Q666 330 629 350 Q592 370 458 399 Q247 445 169 489 Q112 521 79.5 579.5 Q47 638 47 710 Q47 864 176 945 Q290 1017 501 1017 Q771 1017 885 890 Q945 823 955 702 L656 702 Q646 764 609.5 790 Q573 816 496 816 Q367 816 367 737 Q367 694 407.5 674.5 Q448 655 598 626 Q788 590 878 532 Q986 463 986 315 Q986 103 768 15 Q662 -28 534 -28 Q527 -28 506 -28 Z " />
<glyph glyph-name="Scaron" unicode="&#x160;" horiz-adv-x="1285" d="M1171 956 L832 956 Q828 1036 770.5 1080 Q713 1124 612 1124 Q525 1124 476.5 1092 Q428 1060 428 1004 Q428 948 477 924 Q518 903 745 845 Q961 790 1058 730 Q1225 626 1225 421 Q1225 200 1052 76 Q900 -34 642 -34 Q276 -34 120 175 Q36 289 32 459 L390 459 Q396 346 459.5 294 Q523 242 655 242 Q863 242 863 381 Q863 446 808.5 478 Q754 510 539 571 Q386 614 314 645 Q242 676 189 721 Q84 811 84 980 Q84 1170 232.5 1284.5 Q381 1399 628 1399 Q883 1399 1024.5 1283.5 Q1166 1168 1171 956 Z M1007 1750 L783 1488 L499 1488 L271 1750 L512 1750 L636 1609 L760 1750 L1007 1750 Z " />
<glyph glyph-name="scaron" unicode="&#x161;" horiz-adv-x="1039" d="M955 702 L656 702 Q646 764 609.5 790 Q573 816 496 816 Q367 816 367 737 Q367 694 408 674.5 Q449 655 598 627 Q788 590 878 533 Q986 463 986 315 Q986 156 862 66 Q733 -27 510 -27 Q246 -27 121 97 Q38 179 26 326 L335 326 Q343 253 386 219.5 Q429 186 514 186 Q584 186 625 213 Q666 240 666 287 Q666 331 629 351 Q592 371 458 400 Q331 428 273 446 Q215 464 169 489 Q112 522 79.5 580 Q47 638 47 710 Q47 864 176 945 Q290 1017 501 1017 Q771 1017 885 890 Q945 823 955 702 Z M887 1402 L670 1126 L386 1126 L165 1402 L405 1402 L523 1247 L640 1402 L887 1402 Z " />
<glyph glyph-name="Tcommaaccent" unicode="&#x162;" horiz-adv-x="1236" d="M1203 1365 L1203 1058 L795 1058 L795 0 L439 0 L439 1058 L33 1058 L33 1365 L1203 1365 Z M469 -493 Q541 -486 585.5 -462 Q630 -438 635 -401 Q616 -405 604 -405 Q536 -405 486 -360 Q436 -315 436 -253 Q436 -189 485.5 -143 Q535 -97 603 -97 Q687 -97 741 -156.5 Q795 -216 795 -308 Q795 -438 699 -520 Q654 -559 606.5 -577.5 Q559 -596 469 -610 L469 -493 Z " />
<glyph glyph-name="tcommaaccent" unicode="&#x163;" horiz-adv-x="717" d="M679 990 L679 776 L475 776 L475 369 Q475 290 489 267 Q511 230 600 230 Q632 230 679 234 L679 -6 Q580 -14 499 -14 Q378 -14 310 8 Q242 30 202 82 Q170 123 160 173.5 Q150 224 150 338 L150 776 L-15 776 L-15 990 L150 990 L150 1292 L475 1292 L475 990 L679 990 Z M244 -493 Q316 -486 360.5 -462 Q405 -438 410 -401 Q391 -405 379 -405 Q310 -405 260.5 -360 Q211 -315 211 -253 Q211 -189 260 -143 Q309 -97 378 -97 Q462 -97 516 -156.5 Q570 -216 570 -308 Q570 -438 474 -520 Q429 -559 381.5 -577.5 Q334 -596 244 -610 L244 -493 Z " />
<glyph glyph-name="Tcaron" unicode="&#x164;" horiz-adv-x="1236" d="M1203 1365 L1203 1058 L795 1058 L795 0 L439 0 L439 1058 L33 1058 L33 1365 L1203 1365 Z M986 1750 L761 1488 L478 1488 L250 1750 L490 1750 L615 1609 L739 1750 L986 1750 Z " />
<glyph glyph-name="tcaron" unicode="&#x165;" horiz-adv-x="948" d="M679 990 L679 776 L475 776 L475 369 Q475 290 489 267 Q511 230 600 230 Q632 230 679 234 L679 -6 Q580 -14 499 -14 Q378 -14 310 8 Q242 30 202 82 Q170 123 160 173.5 Q150 224 150 338 L150 776 L-15 776 L-15 990 L150 990 L150 1292 L475 1292 L475 990 L679 990 Z M601 1161 Q674 1167 718 1191 Q762 1215 767 1252 Q750 1248 736 1248 Q667 1248 617.5 1293 Q568 1338 568 1400 Q568 1465 617.5 1511 Q667 1557 735 1557 Q819 1557 873 1497.5 Q927 1438 927 1346 Q927 1216 831 1133 Q786 1094 738.5 1075.5 Q691 1057 601 1043 L601 1161 Z " />
<glyph glyph-name="Tbar" unicode="&#x166;" horiz-adv-x="1236" d="M1203 1365 L1203 1058 L795 1058 L795 812 L1095 812 L1095 607 L795 607 L795 0 L439 0 L439 607 L138 607 L138 812 L439 812 L439 1058 L33 1058 L33 1365 L1203 1365 Z " />
<glyph glyph-name="tbar" unicode="&#x167;" horiz-adv-x="717" d="M679 990 L679 776 L475 776 L475 629 L658 629 L658 465 L475 465 L475 368 Q475 290 489 267 Q511 230 600 230 Q630 230 679 234 L679 -6 Q580 -14 499 -14 Q378 -14 310 8 Q242 30 202 82 Q170 123 160 173.5 Q150 224 150 338 L150 465 L5 465 L5 629 L150 629 L150 776 L-15 776 L-15 990 L150 990 L150 1292 L475 1292 L475 990 L679 990 Z " />
<glyph glyph-name="Utilde" unicode="&#x168;" horiz-adv-x="1398" d="M1295 1365 L1295 552 Q1295 402 1270 310.5 Q1245 219 1182 144 Q1034 -34 702 -34 Q347 -34 199 168 Q148 239 127 325.5 Q106 412 106 557 L106 1365 L462 1365 L462 530 Q462 402 505 342 Q565 259 708 259 Q830 259 884.5 323 Q939 387 939 530 L939 1365 L1295 1365 Z M1068 1746 Q1043 1619 1007 1573 Q948 1496 862 1496 Q786 1496 666 1541 Q584 1573 555 1573 Q496 1573 478 1492 L330 1492 Q345 1610 401.5 1675.5 Q458 1741 545 1741 Q586 1741 622.5 1731 Q659 1721 771 1678 Q811 1663 840 1663 Q906 1663 920 1746 L1068 1746 Z " />
<glyph glyph-name="utilde" unicode="&#x169;" horiz-adv-x="1201" d="M1092 990 L1092 0 L779 0 L779 133 Q667 -27 457 -27 Q268 -27 173 97 Q106 184 106 371 L106 990 L431 990 L431 461 Q431 334 455 297 Q493 239 585 239 Q698 239 745 331 Q767 376 767 493 L767 990 L1092 990 Z M934 1390 Q912 1256 867.5 1202.5 Q823 1149 734 1149 Q662 1149 569 1189 Q498 1219 468 1219 Q418 1219 403 1141 L263 1141 Q284 1259 311 1302 Q366 1389 462 1389 Q505 1389 536 1379.5 Q567 1370 664 1326 Q697 1311 726 1311 Q779 1311 794 1390 L934 1390 Z " />
<glyph glyph-name="Umacron" unicode="&#x16a;" horiz-adv-x="1398" d="M1295 1365 L1295 552 Q1295 402 1270 310.5 Q1245 219 1182 144 Q1034 -34 702 -34 Q347 -34 199 168 Q148 239 127 325.5 Q106 412 106 557 L106 1365 L462 1365 L462 530 Q462 402 505 342 Q565 259 708 259 Q830 259 884.5 323 Q939 387 939 530 L939 1365 L1295 1365 Z M1060 1694 L1060 1536 L339 1536 L339 1694 L1060 1694 Z " />
<glyph glyph-name="umacron" unicode="&#x16b;" horiz-adv-x="1201" d="M1092 990 L1092 0 L779 0 L779 133 Q667 -27 457 -27 Q268 -27 173 97 Q106 184 106 371 L106 990 L431 990 L431 461 Q431 334 455 297 Q493 239 585 239 Q698 239 745 331 Q767 376 767 493 L767 990 L1092 990 Z M913 1342 L913 1184 L285 1184 L285 1342 L913 1342 Z " />
<glyph glyph-name="Ubreve" unicode="&#x16c;" horiz-adv-x="1398" d="M1295 1365 L1295 552 Q1295 402 1270 310.5 Q1245 219 1182 144 Q1034 -34 702 -34 Q347 -34 199 168 Q148 239 127 325.5 Q106 412 106 557 L106 1365 L462 1365 L462 530 Q462 402 505 342 Q565 259 708 259 Q830 259 884.5 323 Q939 387 939 530 L939 1365 L1295 1365 Z M1044 1752 Q1032 1659 988 1598 Q895 1468 694 1468 Q505 1468 414 1588 Q363 1656 357 1752 L513 1752 Q531 1704 558 1680 Q607 1637 704 1637 Q784 1637 825.5 1663 Q867 1689 888 1752 L1044 1752 Z " />
<glyph glyph-name="ubreve" unicode="&#x16d;" horiz-adv-x="1201" d="M1092 990 L1092 0 L779 0 L779 133 Q667 -27 457 -27 Q268 -27 173 97 Q106 184 106 371 L106 990 L431 990 L431 461 Q431 334 455 297 Q493 239 585 239 Q698 239 745 331 Q767 376 767 493 L767 990 L1092 990 Z M918 1410 Q883 1112 598 1112 Q418 1112 337 1232 Q290 1302 284 1410 L431 1410 Q443 1357 464 1330 Q506 1276 610 1276 Q683 1276 717.5 1305 Q752 1334 771 1410 L918 1410 Z " />
<glyph glyph-name="Uring" unicode="&#x16e;" horiz-adv-x="1398" d="M1295 1365 L1295 552 Q1295 402 1270 310.5 Q1245 219 1182 144 Q1034 -34 702 -34 Q347 -34 199 168 Q148 239 127 325.5 Q106 412 106 557 L106 1365 L462 1365 L462 530 Q462 402 505 342 Q565 259 708 259 Q830 259 884.5 323 Q939 387 939 530 L939 1365 L1295 1365 Z M705 1862 Q815 1862 892 1795 Q961 1735 961 1656 Q961 1564 873 1502 Q800 1450 700 1450 Q585 1450 508 1517 Q440 1577 440 1657 Q440 1748 528 1810 Q600 1862 705 1862 Z M702 1757 Q655 1757 622.5 1728 Q590 1699 590 1657 Q590 1614 622 1584.5 Q654 1555 701 1555 Q746 1555 778.5 1584.5 Q811 1614 811 1656 Q811 1697 779 1727 Q747 1757 702 1757 Z " />
<glyph glyph-name="uring" unicode="&#x16f;" horiz-adv-x="1201" d="M1092 990 L1092 0 L779 0 L779 133 Q667 -27 457 -27 Q268 -27 173 97 Q106 184 106 371 L106 990 L431 990 L431 461 Q431 334 455 297 Q493 239 585 239 Q698 239 745 331 Q767 376 767 493 L767 990 L1092 990 Z M603 1493 Q714 1493 791 1426 Q860 1366 860 1287 Q860 1195 772 1133 Q699 1081 599 1081 Q484 1081 406 1148 Q338 1208 338 1288 Q338 1379 426 1441 Q499 1493 603 1493 Z M601 1388 Q554 1388 521 1359 Q488 1330 488 1288 Q488 1245 520.5 1215.5 Q553 1186 599 1186 Q645 1186 677.5 1215.5 Q710 1245 710 1287 Q710 1328 677.5 1358 Q645 1388 601 1388 Z " />
<glyph glyph-name="Uhungarumlaut" unicode="&#x170;" horiz-adv-x="1398" d="M1295 1365 L1295 552 Q1295 402 1270 310.5 Q1245 219 1182 144 Q1034 -34 702 -34 Q347 -34 199 168 Q148 239 127 325.5 Q106 412 106 557 L106 1365 L462 1365 L462 530 Q462 402 505 342 Q565 259 708 259 Q830 259 884.5 323 Q939 387 939 530 L939 1365 L1295 1365 Z M1266 1750 L994 1488 L801 1488 L961 1750 L1266 1750 Z M870 1750 L598 1488 L405 1488 L565 1750 L870 1750 Z " />
<glyph glyph-name="uhungarumlaut" unicode="&#x171;" horiz-adv-x="1201" d="M1092 990 L1092 0 L779 0 L779 133 Q667 -27 457 -27 Q268 -27 173 97 Q106 184 106 371 L106 990 L431 990 L431 461 Q431 334 455 297 Q493 239 585 239 Q698 239 745 331 Q767 376 767 493 L767 990 L1092 990 Z M1090 1402 L850 1126 L693 1126 L819 1402 L1090 1402 Z M735 1402 L495 1126 L338 1126 L464 1402 L735 1402 Z " />
<glyph glyph-name="Uogonek" unicode="&#x172;" horiz-adv-x="1398" d="M1106 -253 L1106 -373 Q1037 -393 981 -393 Q880 -393 819.5 -347 Q759 -301 759 -225 Q759 -126 888 -20 Q769 -34 693 -34 Q347 -34 199 169 Q148 239 127 325.5 Q106 412 106 557 L106 1365 L462 1365 L462 530 Q462 402 505 342 Q565 259 708 259 Q830 259 884.5 323 Q939 387 939 530 L939 1365 L1295 1365 L1295 552 Q1295 364 1251 256 Q1229 202 1199.5 165.5 Q1170 129 1073 39 Q931 -94 931 -192 Q931 -261 1043 -261 Q1068 -261 1106 -253 Z " />
<glyph glyph-name="uogonek" unicode="&#x173;" horiz-adv-x="1201" d="M1092 0 Q1021 -61 991 -104.5 Q961 -148 961 -191 Q961 -228 987.5 -244.5 Q1014 -261 1073 -261 Q1098 -261 1136 -253 L1136 -373 Q1067 -393 1011 -393 Q898 -393 837 -336 Q789 -292 789 -230 Q789 -167 822 -115 Q855 -63 935 0 L779 0 L779 133 Q667 -27 457 -27 Q268 -27 173 97 Q106 184 106 371 L106 990 L431 990 L431 461 Q431 334 455 297 Q493 239 585 239 Q698 239 745 331 Q767 376 767 493 L767 990 L1092 990 L1092 0 Z " />
<glyph glyph-name="Wcircumflex" unicode="&#x174;" horiz-adv-x="1840" d="M1844 1365 L1469 0 L1113 0 L1005 459 Q978 575 948 761 Q930 876 917 945 Q907 887 889 764 Q866 620 832 465 L729 0 L368 0 L-5 1365 L354 1365 L456 924 Q518 657 551 368 Q590 663 648 919 L750 1365 L1091 1365 L1185 945 Q1252 648 1286 368 Q1327 689 1392 967 L1486 1365 L1844 1365 Z M1288 1488 L1041 1488 L916 1629 L792 1488 L552 1488 L779 1750 L1063 1750 L1288 1488 Z " />
<glyph glyph-name="wcircumflex" unicode="&#x175;" horiz-adv-x="1571" d="M1584 990 L1274 0 L945 0 L846 378 Q812 509 784 707 Q751 498 722 378 L629 0 L298 0 L-13 990 L323 990 L410 663 Q451 511 487 287 Q526 526 562 676 L636 990 L937 990 L1021 641 Q1062 472 1089 287 Q1123 500 1158 635 L1251 990 L1584 990 Z M1147 1126 L900 1126 L782 1281 L665 1126 L424 1126 L645 1402 L929 1402 L1147 1126 Z " />
<glyph glyph-name="Ycircumflex" unicode="&#x176;" horiz-adv-x="1269" d="M1315 1365 L812 513 L812 0 L456 0 L456 513 L-46 1365 L359 1365 L517 1075 Q582 955 636 813 Q703 984 766 1096 L916 1365 L1315 1365 Z M1002 1488 L755 1488 L631 1629 L507 1488 L267 1488 L494 1750 L778 1750 L1002 1488 Z " />
<glyph glyph-name="ycircumflex" unicode="&#x177;" horiz-adv-x="1029" d="M1043 990 L683 -10 Q635 -142 595.5 -201.5 Q556 -261 492 -296 Q413 -340 268 -340 Q224 -340 82 -338 L82 -77 Q102 -77 115 -77 Q159 -78 198 -78 Q270 -78 298 -36 Q307 -22 317 10.5 Q327 43 327 61 Q327 71 322 85 L-16 990 L329 990 L466 551 Q491 469 520 321 Q557 487 580 563 L711 990 L1043 990 Z M876 1126 L629 1126 L511 1281 L394 1126 L153 1126 L374 1402 L658 1402 L876 1126 Z " />
<glyph glyph-name="Ydieresis" unicode="&#x178;" horiz-adv-x="1269" d="M1315 1365 L812 513 L812 0 L456 0 L456 513 L-46 1365 L359 1365 L517 1075 Q582 955 636 813 Q703 984 766 1096 L916 1365 L1315 1365 Z M844 1797 Q919 1797 973.5 1743 Q1028 1689 1028 1613 Q1028 1538 973.5 1483.5 Q919 1429 844 1429 Q768 1429 714 1483.5 Q660 1538 660 1615 Q660 1689 714.5 1743 Q769 1797 844 1797 Z M423 1797 Q498 1797 552.5 1743 Q607 1689 607 1613 Q607 1538 552.5 1483.5 Q498 1429 423 1429 Q347 1429 293 1483.5 Q239 1538 239 1615 Q239 1689 293.5 1743 Q348 1797 423 1797 Z " />
<glyph glyph-name="Zacute" unicode="&#x179;" horiz-adv-x="1275" d="M1208 1365 L1208 1091 L680 492 Q638 444 496 298 Q687 307 780 307 L1234 307 L1234 0 L46 0 L46 289 L599 920 Q639 966 748 1063 L496 1058 L88 1058 L88 1365 L1208 1365 Z M1014 1750 L687 1488 L453 1488 L648 1750 L1014 1750 Z " />
<glyph glyph-name="zacute" unicode="&#x17a;" horiz-adv-x="1017" d="M959 990 L959 744 L616 384 Q601 369 451 246 Q494 243 513 243 L608 246 L997 246 L997 0 L48 0 L48 246 L384 592 Q422 631 561 744 L515 744 L446 744 L89 744 L89 990 L959 990 Z M871 1402 L570 1126 L365 1126 L532 1402 L871 1402 Z " />
<glyph glyph-name="Zdotaccent" unicode="&#x17b;" horiz-adv-x="1275" d="M1208 1365 L1208 1091 L680 492 Q638 444 496 298 Q687 307 780 307 L1234 307 L1234 0 L46 0 L46 289 L599 920 Q639 966 748 1063 L496 1058 L88 1058 L88 1365 L1208 1365 Z M644 1797 Q720 1797 774 1743 Q828 1689 828 1613 Q828 1538 773.5 1483.5 Q719 1429 644 1429 Q568 1429 514 1483.5 Q460 1538 460 1615 Q460 1689 514.5 1743 Q569 1797 644 1797 Z " />
<glyph glyph-name="zdotaccent" unicode="&#x17c;" horiz-adv-x="1017" d="M959 990 L959 744 L616 384 Q601 369 451 246 Q494 243 513 243 L608 246 L997 246 L997 0 L48 0 L48 246 L384 592 Q422 631 561 744 L515 744 L446 744 L89 744 L89 990 L959 990 Z M528 1442 Q603 1442 657.5 1388 Q712 1334 712 1258 Q712 1183 657.5 1128.5 Q603 1074 528 1074 Q452 1074 398 1128.5 Q344 1183 344 1260 Q344 1334 398.5 1388 Q453 1442 528 1442 Z " />
<glyph glyph-name="Zcaron" unicode="&#x17d;" horiz-adv-x="1275" d="M1208 1365 L1208 1091 L680 492 Q638 444 496 298 Q687 307 780 307 L1234 307 L1234 0 L46 0 L46 289 L599 920 Q639 966 748 1063 L496 1058 L88 1058 L88 1365 L1208 1365 Z M1013 1750 L788 1488 L504 1488 L277 1750 L517 1750 L641 1609 L766 1750 L1013 1750 Z " />
<glyph glyph-name="zcaron" unicode="&#x17e;" horiz-adv-x="1017" d="M959 990 L959 744 L616 384 Q601 369 451 246 Q494 243 513 243 L608 246 L997 246 L997 0 L48 0 L48 246 L384 592 Q422 631 561 744 L515 744 L446 744 L89 744 L89 990 L959 990 Z M890 1402 L673 1126 L389 1126 L168 1402 L408 1402 L526 1247 L643 1402 L890 1402 Z " />
<glyph glyph-name="longs" unicode="&#x17f;" horiz-adv-x="700" d="M685 1362 L685 1133 Q638 1136 601 1136 Q526 1136 502.5 1119 Q479 1102 479 1050 L479 0 L154 0 L154 776 L-3 776 L-3 990 L154 990 L154 1035 Q154 1129 173 1185.5 Q192 1242 236 1284 Q327 1368 534 1368 Q580 1368 685 1362 Z " />
<glyph glyph-name="uni018F" unicode="&#x18f;" horiz-adv-x="1483" d="M192 1127 Q265 1238 342 1290 Q504 1399 749 1399 Q1040 1399 1212 1247 Q1416 1067 1416 702 Q1416 386 1254 193 Q1064 -34 746 -34 Q527 -34 359 78 Q67 273 67 686 Q67 745 75 808 L1045 808 Q1044 814 1039 851 Q1021 985 920 1053 Q845 1105 731 1105 Q572 1105 470 987 L192 1127 Z M1043 555 L440 555 Q455 473 486 413 Q530 329 611 290 Q674 259 746 259 Q988 259 1043 555 Z " />
<glyph glyph-name="florin" unicode="&#x192;" horiz-adv-x="1229" d="M1033 941 L1001 742 L814 742 L692 46 Q672 -69 650 -127.5 Q628 -186 587 -232 Q536 -289 459.5 -312 Q383 -335 247 -335 Q188 -335 111 -330 L148 -97 Q183 -98 200 -98 Q262 -98 287.5 -88.5 Q313 -79 326 -51 Q344 -11 366 112 L477 742 L329 742 L362 941 L513 941 L546 1128 Q578 1310 654 1388 Q707 1442 780.5 1465 Q854 1488 973 1488 Q1048 1488 1129 1483 L1088 1249 Q1072 1248 1009 1248 Q945 1248 920 1219.5 Q895 1191 879 1102 L850 941 L1033 941 Z " />
<glyph glyph-name="uni01C4" unicode="&#x1c4;" horiz-adv-x="2610" d="M2337 1749 L2120 1473 L1836 1473 L1615 1749 L1855 1749 L1973 1594 L2090 1749 L2337 1749 Z M126 1365 L708 1365 Q1008 1365 1177 1213 Q1277 1122 1330.5 987.5 Q1384 853 1384 693 Q1384 347 1190 159 Q1080 52 938 22 Q834 0 707 0 L126 0 L126 1365 Z M482 1071 L482 294 L678 294 Q767 294 825.5 314 Q884 334 925 380 Q1022 485 1022 681 Q1022 903 890 1004 Q802 1071 653 1071 L482 1071 Z M2542 1365 L2542 1091 L2014 492 Q1971 443 1830 298 Q2021 307 2114 307 L2567 307 L2567 0 L1380 0 L1380 289 L1933 920 Q1974 966 2083 1063 L1830 1058 L1422 1058 L1422 1365 L2542 1365 Z " />
<glyph glyph-name="uni01C5" unicode="&#x1c5;" horiz-adv-x="2375" d="M2317 990 L2317 744 L1974 384 Q1959 369 1809 246 Q1852 243 1871 243 L1966 246 L2355 246 L2355 0 L1406 0 L1406 246 L1742 592 Q1780 631 1919 744 L1873 744 L1804 744 L1447 744 L1447 990 L2317 990 Z M126 1365 L708 1365 Q1008 1365 1177 1213 Q1277 1122 1330.5 987.5 Q1384 853 1384 693 Q1384 347 1190 159 Q1080 52 938 22 Q834 0 707 0 L126 0 L126 1365 Z M482 1071 L482 294 L678 294 Q767 294 825.5 314 Q884 334 925 380 Q1022 485 1022 681 Q1022 903 890 1004 Q802 1071 653 1071 L482 1071 Z M2236 1412 L2018 1136 L1735 1136 L1514 1412 L1754 1412 L1872 1257 L1989 1412 L2236 1412 Z " />
<glyph glyph-name="uni01C6" unicode="&#x1c6;" horiz-adv-x="2164" d="M2019 1402 L1802 1126 L1518 1126 L1297 1402 L1538 1402 L1655 1247 L1772 1402 L2019 1402 Z M1094 1365 L1094 0 L781 0 L781 117 Q679 -27 500 -27 Q294 -27 173 126 Q59 271 59 502 Q59 713 156 850 Q275 1018 483 1018 Q667 1018 769 876 L769 1365 L1094 1365 Z M586 765 Q491 765 441 698 Q388 626 388 500 Q388 378 439 308 Q489 239 584 239 Q679 239 729 307 Q781 378 781 500 Q781 623 728 695 Q677 765 586 765 Z M2105 990 L2105 744 L1762 384 Q1747 369 1597 246 Q1640 243 1659 243 L1754 246 L2143 246 L2143 0 L1194 0 L1194 246 L1530 592 Q1568 631 1707 744 L1661 744 L1592 744 L1235 744 L1235 990 L2105 990 Z " />
<glyph glyph-name="uni01C7" unicode="&#x1c7;" horiz-adv-x="2228" d="M1123 307 L1123 0 L126 0 L126 1365 L482 1365 L482 307 L1123 307 Z M2125 1365 L2125 452 Q2125 329 2103 254 Q2081 179 2027 115 Q1900 -34 1650 -34 Q1350 -34 1232 168 Q1169 275 1169 483 Q1169 507 1170 542 L1496 542 Q1496 515 1496 506 Q1496 362 1517 321 Q1550 260 1637 260 Q1709 260 1739 300.5 Q1769 341 1769 436 L1769 1365 L2125 1365 Z " />
<glyph glyph-name="uni01C8" unicode="&#x1c8;" horiz-adv-x="1670" d="M1560 990 L1560 11 Q1560 -99 1549 -142 Q1520 -249 1440 -295 Q1360 -341 1202 -341 Q1155 -341 1067 -337 L1067 -77 Q1084 -75 1138 -74 Q1213 -73 1228 -21 Q1235 3 1235 137 L1235 990 L1560 990 Z M1397 1418 Q1473 1418 1527 1364 Q1581 1310 1581 1234 Q1581 1159 1526.5 1104.5 Q1472 1050 1397 1050 Q1321 1050 1267 1104.5 Q1213 1159 1213 1236 Q1213 1310 1267.5 1364 Q1322 1418 1397 1418 Z M1123 307 L1123 0 L126 0 L126 1365 L482 1365 L482 307 L1123 307 Z " />
<glyph glyph-name="uni01C9" unicode="&#x1c9;" horiz-adv-x="912" d="M369 1365 L369 0 L44 0 L44 1365 L369 1365 Z M803 990 L803 11 Q803 -99 792 -142 Q763 -249 683 -295 Q603 -341 445 -341 Q398 -341 310 -337 L310 -77 Q327 -75 381 -74 Q456 -73 471 -21 Q478 3 478 137 L478 990 L803 990 Z M640 1418 Q716 1418 770 1364 Q824 1310 824 1234 Q824 1159 769.5 1104.5 Q715 1050 640 1050 Q564 1050 510 1104.5 Q456 1159 456 1236 Q456 1310 510.5 1364 Q565 1418 640 1418 Z " />
<glyph glyph-name="uni01CA" unicode="&#x1ca;" horiz-adv-x="2454" d="M1310 1365 L1310 0 L963 0 L595 620 L556 689 Q498 791 460 876 Q473 725 473 528 L473 0 L126 0 L126 1365 L486 1365 L825 787 Q926 615 979 501 Q963 703 963 853 L963 1365 L1310 1365 Z M2351 1365 L2351 452 Q2351 329 2329 254 Q2307 179 2253 115 Q2126 -34 1876 -34 Q1577 -34 1458 168 Q1395 276 1395 483 Q1395 507 1395 542 L1722 542 Q1722 515 1722 506 Q1722 362 1744 321 Q1776 260 1864 260 Q1935 260 1965 300.5 Q1995 341 1995 436 L1995 1365 L2351 1365 Z " />
<glyph glyph-name="uni01CB" unicode="&#x1cb;" horiz-adv-x="1915" d="M1310 1365 L1310 0 L963 0 L595 620 L556 689 Q498 791 460 876 Q473 725 473 528 L473 0 L126 0 L126 1365 L486 1365 L825 787 Q926 615 979 501 Q963 703 963 853 L963 1365 L1310 1365 Z M1805 990 L1805 11 Q1805 -99 1794 -142 Q1765 -249 1685 -295 Q1605 -341 1447 -341 Q1401 -341 1312 -337 L1312 -77 Q1330 -75 1383 -74 Q1458 -73 1473 -21 Q1480 3 1480 137 L1480 990 L1805 990 Z M1642 1418 Q1718 1418 1772 1364 Q1826 1310 1826 1234 Q1826 1159 1771.5 1104.5 Q1717 1050 1642 1050 Q1566 1050 1512 1104.5 Q1458 1159 1458 1236 Q1458 1310 1512.5 1364 Q1567 1418 1642 1418 Z " />
<glyph glyph-name="uni01CC" unicode="&#x1cc;" horiz-adv-x="1674" d="M1565 990 L1565 11 Q1565 -99 1554 -142 Q1525 -249 1445 -295 Q1365 -341 1207 -341 Q1160 -341 1072 -337 L1072 -77 Q1089 -75 1143 -74 Q1218 -73 1233 -21 Q1240 3 1240 137 L1240 990 L1565 990 Z M1401 1418 Q1477 1418 1531 1364 Q1585 1310 1585 1234 Q1585 1159 1530.5 1104.5 Q1476 1050 1401 1050 Q1325 1050 1271 1104.5 Q1217 1159 1217 1236 Q1217 1310 1271.5 1364 Q1326 1418 1401 1418 Z M425 990 L425 859 Q542 1017 750 1017 Q872 1017 963 958 Q1038 908 1068 831.5 Q1098 755 1098 614 L1098 0 L773 0 L773 561 Q773 638 757 677 Q726 751 622 751 Q569 751 525.5 727.5 Q482 704 461 664 Q437 619 437 529 L437 0 L112 0 L112 990 L425 990 Z " />
<glyph glyph-name="uni01CD" unicode="&#x1cd;" horiz-adv-x="1370" d="M866 1365 L1377 0 L1008 0 L920 250 L447 250 L358 0 L-7 0 L505 1365 L866 1365 Z M838 505 L774 691 Q717 856 686 998 Q646 848 591 687 L528 505 L838 505 Z M1053 1750 L828 1488 L545 1488 L317 1750 L557 1750 L682 1609 L806 1750 L1053 1750 Z " />
<glyph glyph-name="uni01CE" unicode="&#x1ce;" horiz-adv-x="1120" d="M940 1402 L723 1126 L439 1126 L218 1402 L458 1402 L576 1247 L693 1402 L940 1402 Z M1070 202 L1070 7 Q1009 -20 939 -20 Q772 -20 732 94 Q612 -27 406 -27 Q243 -27 151 54 Q59 135 59 277 Q59 428 157 501 Q208 538 276 558.5 Q344 579 467 593 Q619 611 661 631 Q703 651 703 705 Q703 816 551 816 Q435 816 399 751 Q387 729 379 669 L87 669 Q94 739 104 773.5 Q114 808 138 844 Q252 1020 568 1020 Q759 1020 869 956 Q995 883 995 731 L995 265 Q995 222 1003.5 212 Q1012 202 1049 202 L1070 202 Z M703 461 Q660 438 556 426 Q439 411 395 381.5 Q351 352 351 288 Q351 177 503 177 Q703 177 703 383 L703 461 Z " />
<glyph glyph-name="uni01D1" unicode="&#x1d1;" horiz-adv-x="1483" d="M754 1399 Q1016 1399 1201 1228 Q1416 1029 1416 682 Q1416 387 1254 193 Q1064 -34 746 -34 Q527 -34 359 78 Q195 188 122 372 Q67 510 67 680 Q67 1024 270 1216 Q464 1399 754 1399 Z M749 1106 Q595 1106 513 991 Q429 873 429 683 Q429 475 522 360 Q559 313 619 286 Q679 259 746 259 Q891 259 969 367 Q1054 486 1054 691 Q1054 881 972 993 Q890 1106 749 1106 Z M1104 1773 L887 1497 L603 1497 L382 1773 L622 1773 L740 1618 L857 1773 L1104 1773 Z " />
<glyph glyph-name="uni01D2" unicode="&#x1d2;" horiz-adv-x="1157" d="M578 1017 Q811 1017 956 875 Q1102 732 1102 499 Q1102 262 955 117 Q809 -27 572 -27 Q342 -27 195 123 Q55 268 55 497 Q55 726 196 867 Q345 1017 578 1017 Z M579 779 Q485 779 434.5 705.5 Q384 632 384 495 Q384 362 432 290 Q484 211 579 211 Q672 211 722.5 285.5 Q773 360 773 498 Q773 627 728 697 Q674 779 579 779 Z M940 1402 L722 1126 L438 1126 L218 1402 L458 1402 L575 1247 L693 1402 L940 1402 Z " />
<glyph glyph-name="uni01D3" unicode="&#x1d3;" horiz-adv-x="1398" d="M1295 1365 L1295 552 Q1295 402 1270 310.5 Q1245 219 1182 144 Q1034 -34 702 -34 Q347 -34 199 168 Q148 239 127 325.5 Q106 412 106 557 L106 1365 L462 1365 L462 530 Q462 402 505 342 Q565 259 708 259 Q830 259 884.5 323 Q939 387 939 530 L939 1365 L1295 1365 Z M1067 1750 L842 1488 L559 1488 L331 1750 L571 1750 L696 1609 L820 1750 L1067 1750 Z " />
<glyph glyph-name="uni01D4" unicode="&#x1d4;" horiz-adv-x="1201" d="M1092 990 L1092 0 L779 0 L779 133 Q667 -27 457 -27 Q268 -27 173 97 Q106 184 106 371 L106 990 L431 990 L431 461 Q431 334 455 297 Q493 239 585 239 Q698 239 745 331 Q767 376 767 493 L767 990 L1092 990 Z M960 1402 L742 1126 L459 1126 L238 1402 L478 1402 L596 1247 L713 1402 L960 1402 Z " />
<glyph glyph-name="uni01DD" unicode="&#x1dd;" horiz-adv-x="1163" d="M72 687 Q95 775 160 849 Q308 1017 567 1017 Q802 1017 945 888 Q1108 741 1108 504 Q1108 292 980 143 Q833 -27 579 -27 Q315 -27 174 148 Q53 299 53 540 Q53 552 53 571 L789 571 Q786 677 726.5 737 Q667 797 566 797 Q498 797 456 773 Q414 749 377 687 L72 687 Z M373 385 Q380 324 402 287 Q455 193 577 193 Q664 193 717.5 242.5 Q771 292 785 385 L373 385 Z " />
<glyph glyph-name="Gcaron" unicode="&#x1e6;" horiz-adv-x="1486" d="M1380 743 L1380 0 L1152 0 Q1133 86 1133 127 Q1133 134 1133 148 Q988 -34 722 -34 Q402 -34 221 195 Q67 391 67 680 Q67 1003 268 1208 Q456 1399 759 1399 Q1038 1399 1211 1220 Q1340 1087 1361 902 L1016 902 Q993 1000 925.5 1052.5 Q858 1105 754 1105 Q598 1105 513.5 993.5 Q429 882 429 676 Q429 492 500 389 Q589 260 770 260 Q889 260 963 319 Q1037 378 1055 488 L807 488 L807 743 L1380 743 Z M1132 1750 L907 1488 L623 1488 L396 1750 L636 1750 L760 1609 L885 1750 L1132 1750 Z " />
<glyph glyph-name="gcaron" unicode="&#x1e7;" horiz-adv-x="1187" d="M1076 990 L1076 131 Q1076 19 1061 -47.5 Q1046 -114 1008 -170 Q887 -351 575 -351 Q131 -351 92 -33 L416 -33 Q432 -92 470 -117 Q508 -142 580 -142 Q681 -142 722 -92 Q763 -42 763 81 L763 189 Q658 50 476 50 Q288 50 174 177 Q58 305 58 529 Q58 745 170 877 Q288 1017 483 1017 Q580 1017 643.5 982.5 Q707 948 763 865 L763 990 L1076 990 Z M575 770 Q467 770 416 688 Q377 626 377 535 Q377 419 429 354 Q481 288 573 288 Q681 288 731 377 Q767 439 767 531 Q767 647 710 712 Q660 770 575 770 Z M967 1402 L749 1126 L466 1126 L245 1402 L485 1402 L603 1247 L720 1402 L967 1402 Z " />
<glyph glyph-name="uni01F4" unicode="&#x1f4;" horiz-adv-x="1486" d="M1380 743 L1380 0 L1152 0 Q1133 86 1133 127 Q1133 134 1133 148 Q988 -34 722 -34 Q402 -34 221 195 Q67 391 67 680 Q67 1003 268 1208 Q456 1399 759 1399 Q1038 1399 1211 1220 Q1340 1087 1361 902 L1016 902 Q993 1000 925.5 1052.5 Q858 1105 754 1105 Q598 1105 513.5 993.5 Q429 882 429 676 Q429 492 500 389 Q589 260 770 260 Q889 260 963 319 Q1037 378 1055 488 L807 488 L807 743 L1380 743 Z M1133 1750 L806 1488 L572 1488 L767 1750 L1133 1750 Z " />
<glyph glyph-name="uni01F5" unicode="&#x1f5;" horiz-adv-x="1187" d="M1076 990 L1076 131 Q1076 19 1061 -47.5 Q1046 -114 1008 -170 Q887 -351 575 -351 Q131 -351 92 -33 L416 -33 Q432 -92 470 -117 Q508 -142 580 -142 Q681 -142 722 -92 Q763 -42 763 81 L763 189 Q658 50 476 50 Q288 50 174 177 Q58 305 58 529 Q58 745 170 877 Q288 1017 483 1017 Q580 1017 643.5 982.5 Q707 948 763 865 L763 990 L1076 990 Z M575 770 Q467 770 416 688 Q377 626 377 535 Q377 419 429 354 Q481 288 573 288 Q681 288 731 377 Q767 439 767 531 Q767 647 710 712 Q660 770 575 770 Z M929 1402 L628 1126 L422 1126 L590 1402 L929 1402 Z " />
<glyph glyph-name="Aringacute" unicode="&#x1fa;" horiz-adv-x="1370" d="M866 1365 L1377 0 L1008 0 L920 250 L447 250 L358 0 L-7 0 L505 1365 L866 1365 Z M838 505 L774 691 Q717 856 686 998 Q646 848 591 687 L528 505 L838 505 Z M689 1862 Q800 1862 877 1795 Q946 1735 946 1656 Q946 1564 858 1502 Q785 1450 685 1450 Q570 1450 492 1517 Q424 1577 424 1657 Q424 1748 512 1810 Q585 1862 689 1862 Z M687 1757 Q640 1757 607 1728 Q574 1699 574 1657 Q574 1614 606.5 1584.5 Q639 1555 685 1555 Q731 1555 763.5 1584.5 Q796 1614 796 1656 Q796 1697 763.5 1727 Q731 1757 687 1757 Z M790 2112 L463 1849 L229 1849 L424 2112 L790 2112 Z " />
<glyph glyph-name="aringacute" unicode="&#x1fb;" horiz-adv-x="1120" d="M585 1548 Q696 1548 773 1481 Q842 1421 842 1342 Q842 1250 754 1188 Q681 1136 581 1136 Q466 1136 388 1203 Q320 1263 320 1343 Q320 1434 408 1496 Q480 1548 585 1548 Z M583 1443 Q536 1443 503 1414 Q470 1385 470 1343 Q470 1300 502.5 1270.5 Q535 1241 581 1241 Q627 1241 659.5 1270.5 Q692 1300 692 1342 Q692 1383 659.5 1413 Q627 1443 583 1443 Z M690 1779 L363 1517 L129 1517 L323 1779 L690 1779 Z M1070 202 L1070 7 Q1009 -20 939 -20 Q772 -20 732 94 Q612 -27 406 -27 Q243 -27 151 54 Q59 135 59 277 Q59 428 157 501 Q208 538 276 558.5 Q344 579 467 593 Q619 611 661 631 Q703 651 703 705 Q703 816 551 816 Q435 816 399 751 Q387 729 379 669 L87 669 Q94 739 104 773.5 Q114 808 138 844 Q252 1020 568 1020 Q759 1020 869 956 Q995 883 995 731 L995 265 Q995 222 1003.5 212 Q1012 202 1049 202 L1070 202 Z M703 461 Q660 438 556 426 Q439 411 395 381.5 Q351 352 351 288 Q351 177 503 177 Q703 177 703 383 L703 461 Z " />
<glyph glyph-name="AEacute" unicode="&#x1fc;" horiz-adv-x="1946" d="M1852 1365 L1852 1071 L1215 1071 L1215 845 L1811 845 L1811 565 L1215 565 L1215 294 L1869 294 L1869 0 L878 0 L878 243 L458 243 L350 0 L-32 0 L609 1365 L1852 1365 Z M878 498 L878 1082 L818 1082 L564 498 L878 498 Z M1505 1750 L1178 1488 L944 1488 L1138 1750 L1505 1750 Z " />
<glyph glyph-name="aeacute" unicode="&#x1fd;" horiz-adv-x="1780" d="M1225 1402 L924 1126 L719 1126 L886 1402 L1225 1402 Z M856 122 Q802 68 754 43 Q620 -27 412 -27 Q233 -27 141 64 Q59 144 59 277 Q59 428 157 501 Q208 538 276 558.5 Q344 579 467 593 Q619 610 661 630.5 Q703 651 703 705 Q703 816 551 816 Q435 816 399 751 Q387 729 379 669 L87 669 Q94 739 104 773.5 Q114 808 138 844 Q252 1020 569 1020 Q814 1020 925 913 Q975 960 1054 988.5 Q1133 1017 1215 1017 Q1431 1017 1572 880 Q1727 730 1727 462 Q1727 449 1726 422 L1012 422 Q1014 311 1066 251.5 Q1118 192 1212 192 Q1347 192 1404 307 L1710 307 Q1679 190 1590 105 Q1452 -27 1229 -27 Q1110 -27 1012 12 Q914 51 856 122 Z M1408 595 Q1401 680 1365 726 Q1310 797 1212 797 Q1124 797 1073 745.5 Q1022 694 1011 595 L1408 595 Z M703 461 Q660 439 556 426 Q439 411 395 381.5 Q351 352 351 288 Q351 177 503 177 Q703 177 703 383 L703 461 Z " />
<glyph glyph-name="Oslashacute" unicode="&#x1fe;" horiz-adv-x="1483" d="M1278 1141 Q1416 954 1416 680 Q1416 387 1254 193 Q1064 -34 749 -34 Q501 -34 331 98 L175 -75 L45 39 L208 220 Q67 411 67 683 Q67 1018 270 1216 Q458 1399 744 1399 Q985 1399 1158 1265 L1312 1432 L1438 1317 L1278 1141 Z M1026 882 L556 325 Q627 259 753 259 Q889 259 970 368 Q1055 482 1055 709 Q1055 809 1026 882 Z M461 478 L931 1038 Q854 1106 743 1106 Q596 1106 513 991 Q429 874 429 679 Q429 574 461 478 Z M1117 1750 L790 1488 L557 1488 L751 1750 L1117 1750 Z " />
<glyph glyph-name="oslashacute" unicode="&#x1ff;" horiz-adv-x="1157" d="M181 139 Q55 292 55 497 Q55 722 196 867 Q341 1017 576 1017 Q746 1017 871 942 L977 1061 L1087 965 L984 846 Q1102 699 1102 498 Q1102 262 955 117 Q809 -27 583 -27 Q420 -27 294 45 L182 -86 L70 10 L181 139 Z M390 368 L695 753 Q682 761 676 765 Q629 793 580 793 Q446 793 395 651 Q374 591 374 468 Q374 405 390 368 Z M775 620 L470 230 Q510 197 584 197 Q675 197 729 275 Q783 352 783 516 Q783 569 775 620 Z M1020 1402 L719 1126 L513 1126 L680 1402 L1020 1402 Z " />
<glyph glyph-name="uni0200" unicode="&#x200;" horiz-adv-x="1370" d="M866 1365 L1377 0 L1008 0 L920 250 L447 250 L358 0 L-7 0 L505 1365 L866 1365 Z M838 505 L774 691 Q717 856 686 998 Q646 848 591 687 L528 505 L838 505 Z M132 1750 L437 1750 L597 1488 L404 1488 L132 1750 Z M528 1750 L833 1750 L993 1488 L800 1488 L528 1750 Z " />
<glyph glyph-name="uni0201" unicode="&#x201;" horiz-adv-x="1120" d="M11 1466 L316 1466 L476 1204 L283 1204 L11 1466 Z M407 1466 L712 1466 L872 1204 L679 1204 L407 1466 Z M1070 202 L1070 7 Q1010 -20 939 -20 Q772 -20 732 94 Q612 -27 406 -27 Q243 -27 151 54 Q59 135 59 277 Q59 428 157 501 Q208 538 276 558.5 Q344 579 467 593 Q619 611 661 631 Q703 651 703 705 Q703 816 551 816 Q435 816 399 751 Q387 729 379 669 L87 669 Q94 739 103.5 773.5 Q113 808 137 844 Q252 1020 568 1020 Q759 1020 869 956 Q995 883 995 731 L995 265 Q995 222 1003.5 212 Q1012 202 1049 202 L1070 202 Z M703 461 Q659 438 556 426 Q439 411 395 381.5 Q351 352 351 288 Q351 177 503 177 Q703 177 703 383 L703 461 Z " />
<glyph glyph-name="Scommaaccent" unicode="&#x218;" horiz-adv-x="1285" d="M1171 956 L832 956 Q828 1036 770.5 1080 Q713 1124 612 1124 Q525 1124 476.5 1092 Q428 1060 428 1004 Q428 948 477 924 Q518 903 745 845 Q961 790 1058 730 Q1225 626 1225 421 Q1225 200 1052 76 Q900 -34 642 -34 Q276 -34 120 175 Q36 289 32 459 L390 459 Q396 346 459.5 294 Q523 242 655 242 Q863 242 863 381 Q863 446 808.5 478 Q754 510 539 571 Q386 614 314 645 Q242 676 189 721 Q84 811 84 980 Q84 1170 232.5 1284.5 Q381 1399 628 1399 Q883 1399 1024.5 1283.5 Q1166 1168 1171 956 Z M480 -493 Q552 -486 596.5 -462 Q641 -438 646 -401 Q627 -405 615 -405 Q546 -405 496.5 -360 Q447 -315 447 -253 Q447 -189 496.5 -143 Q546 -97 614 -97 Q698 -97 752 -156.5 Q806 -216 806 -308 Q806 -438 710 -520 Q665 -559 617.5 -577.5 Q570 -596 480 -610 L480 -493 Z " />
<glyph glyph-name="scommaaccent" unicode="&#x219;" horiz-adv-x="1039" d="M955 702 L656 702 Q646 764 609.5 790 Q573 816 496 816 Q367 816 367 737 Q367 694 408 674.5 Q449 655 598 627 Q788 590 878 533 Q986 463 986 315 Q986 156 862 66 Q733 -27 510 -27 Q246 -27 121 97 Q38 179 26 326 L335 326 Q343 253 386 219.5 Q429 186 514 186 Q584 186 625 213 Q666 240 666 287 Q666 331 629 351 Q592 371 458 400 Q331 428 273 446 Q215 464 169 489 Q112 522 79.5 580 Q47 638 47 710 Q47 864 176 945 Q290 1017 501 1017 Q771 1017 885 890 Q945 823 955 702 Z M350 -493 Q422 -486 466.5 -462 Q511 -438 516 -401 Q497 -405 485 -405 Q416 -405 366.5 -360 Q317 -315 317 -253 Q317 -189 366 -143 Q415 -97 484 -97 Q568 -97 622 -156.5 Q676 -216 676 -308 Q676 -438 580 -520 Q535 -559 487.5 -577.5 Q440 -596 350 -610 L350 -493 Z " />
<glyph glyph-name="uni021A" unicode="&#x21a;" horiz-adv-x="1236" d="M1203 1365 L1203 1058 L795 1058 L795 0 L439 0 L439 1058 L33 1058 L33 1365 L1203 1365 Z M469 -493 Q541 -486 585.5 -462 Q630 -438 635 -401 Q616 -405 604 -405 Q536 -405 486 -360 Q436 -315 436 -253 Q436 -189 485.5 -143 Q535 -97 603 -97 Q687 -97 741 -156.5 Q795 -216 795 -308 Q795 -438 699 -520 Q654 -559 606.5 -577.5 Q559 -596 469 -610 L469 -493 Z " />
<glyph glyph-name="uni021B" unicode="&#x21b;" horiz-adv-x="717" d="M679 990 L679 776 L475 776 L475 369 Q475 290 489 267 Q511 230 600 230 Q632 230 679 234 L679 -6 Q580 -14 499 -14 Q378 -14 310 8 Q242 30 202 82 Q170 123 160 173.5 Q150 224 150 338 L150 776 L-15 776 L-15 990 L150 990 L150 1292 L475 1292 L475 990 L679 990 Z M244 -493 Q316 -486 360.5 -462 Q405 -438 410 -401 Q391 -405 379 -405 Q310 -405 260.5 -360 Q211 -315 211 -253 Q211 -189 260 -143 Q309 -97 378 -97 Q462 -97 516 -156.5 Q570 -216 570 -308 Q570 -438 474 -520 Q429 -559 381.5 -577.5 Q334 -596 244 -610 L244 -493 Z " />
<glyph glyph-name="uni0226" unicode="&#x226;" horiz-adv-x="1370" d="M866 1365 L1377 0 L1008 0 L920 250 L447 250 L358 0 L-7 0 L505 1365 L866 1365 Z M838 505 L774 691 Q717 856 686 998 Q646 848 591 687 L528 505 L838 505 Z M684 1797 Q759 1797 813.5 1743 Q868 1689 868 1613 Q868 1538 813.5 1483.5 Q759 1429 684 1429 Q608 1429 554 1483.5 Q500 1538 500 1615 Q500 1689 554.5 1743 Q609 1797 684 1797 Z " />
<glyph glyph-name="uni0227" unicode="&#x227;" horiz-adv-x="1120" d="M580 1442 Q655 1442 709.5 1388 Q764 1334 764 1258 Q764 1183 709.5 1128.5 Q655 1074 580 1074 Q504 1074 450 1128.5 Q396 1183 396 1260 Q396 1334 450.5 1388 Q505 1442 580 1442 Z M1070 202 L1070 7 Q1009 -20 939 -20 Q772 -20 732 94 Q612 -27 406 -27 Q243 -27 151 54 Q59 135 59 277 Q59 428 157 501 Q208 538 276 558.5 Q344 579 467 593 Q619 611 661 631 Q703 651 703 705 Q703 816 551 816 Q435 816 399 751 Q387 729 379 669 L87 669 Q94 739 104 773.5 Q114 808 138 844 Q252 1020 568 1020 Q759 1020 869 956 Q995 883 995 731 L995 265 Q995 222 1003.5 212 Q1012 202 1049 202 L1070 202 Z M703 461 Q660 438 556 426 Q439 411 395 381.5 Q351 352 351 288 Q351 177 503 177 Q703 177 703 383 L703 461 Z " />
<glyph glyph-name="uni0237" unicode="&#x237;" horiz-adv-x="547" d="M438 990 L438 11 Q438 -99 427 -142 Q398 -249 318 -295 Q238 -341 80 -341 Q33 -341 -55 -337 L-55 -77 Q-38 -75 16 -74 Q91 -73 106 -21 Q113 3 113 137 L113 990 L438 990 Z " />
<glyph glyph-name="afii57929" unicode="&#x2bc;" horiz-adv-x="594" d="M138 837 Q215 849 261.5 896.5 Q308 944 314 1017 Q296 1013 282 1013 Q209 1013 157 1065.5 Q105 1118 105 1191 Q105 1267 156.5 1321 Q208 1375 280 1375 Q370 1375 426 1304.5 Q482 1234 482 1121 Q482 937 381 815 Q334 759 283 731 Q232 703 138 682 L138 837 Z " />
<glyph glyph-name="circumflex" unicode="&#x2c6;" horiz-adv-x="1024" d="M873 1126 L626 1126 L509 1281 L391 1126 L151 1126 L372 1402 L655 1402 L873 1126 Z " />
<glyph glyph-name="caron" unicode="&#x2c7;" horiz-adv-x="1024" d="M873 1402 L655 1126 L372 1126 L151 1402 L391 1402 L509 1247 L626 1402 L873 1402 Z " />
<glyph glyph-name="uni02C9" unicode="&#x2c9;" horiz-adv-x="1024" d="M826 1342 L826 1184 L198 1184 L198 1342 L826 1342 Z " />
<glyph glyph-name="breve" unicode="&#x2d8;" horiz-adv-x="1024" d="M829 1410 Q794 1112 509 1112 Q329 1112 248 1232 Q201 1302 195 1410 L342 1410 Q354 1357 375 1330 Q418 1276 522 1276 Q594 1276 629 1305 Q664 1334 682 1410 L829 1410 Z " />
<glyph glyph-name="dotaccent" unicode="&#x2d9;" horiz-adv-x="1024" d="M511 1442 Q586 1442 640.5 1388 Q695 1334 695 1258 Q695 1183 640.5 1128.5 Q586 1074 511 1074 Q435 1074 381 1128.5 Q327 1183 327 1260 Q327 1334 381.5 1388 Q436 1442 511 1442 Z " />
<glyph glyph-name="ring" unicode="&#x2da;" horiz-adv-x="1024" d="M516 1493 Q626 1493 704 1426 Q773 1367 773 1287 Q773 1195 685 1133 Q612 1081 512 1081 Q397 1081 319 1148 Q251 1208 251 1288 Q251 1379 339 1441 Q412 1493 516 1493 Z M514 1388 Q467 1388 434 1359 Q401 1330 401 1288 Q401 1245 433.5 1215.5 Q466 1186 512 1186 Q558 1186 590.5 1215.5 Q623 1245 623 1287 Q623 1328 590.5 1358 Q558 1388 514 1388 Z " />
<glyph glyph-name="ogonek" unicode="&#x2db;" horiz-adv-x="1024" d="M867 0 L1024 0 Q893 -112 893 -191 Q893 -228 919.5 -244.5 Q946 -261 1005 -261 Q1030 -261 1068 -253 L1068 -373 Q998 -393 943 -393 Q830 -393 769 -336 Q721 -292 721 -230 Q721 -166 754 -114.5 Q787 -63 867 0 Z " />
<glyph glyph-name="tilde" unicode="&#x2dc;" horiz-adv-x="1024" d="M847 1390 Q825 1256 780.5 1202.5 Q736 1149 646 1149 Q574 1149 482 1189 Q410 1219 381 1219 Q330 1219 316 1141 L176 1141 Q197 1259 224 1302 Q278 1389 375 1389 Q418 1389 448.5 1379.5 Q479 1370 577 1326 Q610 1311 638 1311 Q692 1311 707 1390 L847 1390 Z " />
<glyph glyph-name="hungarumlaut" unicode="&#x2dd;" horiz-adv-x="1024" d="M960 1402 L720 1126 L563 1126 L689 1402 L960 1402 Z M605 1402 L365 1126 L208 1126 L334 1402 L605 1402 Z " />
<glyph glyph-name="pi" unicode="&#x3c0;" horiz-adv-x="1215" d="M747 744 L469 744 L469 0 L144 0 L144 744 L7 744 L7 990 L1208 990 L1208 744 L1072 744 L1072 0 L747 0 L747 744 Z " />
<glyph glyph-name="uni1E1E" unicode="&#x1e1e;" horiz-adv-x="1170" d="M1135 1365 L1135 1071 L482 1071 L482 806 L1048 806 L1048 526 L482 526 L482 0 L126 0 L126 1365 L1135 1365 Z M629 1797 Q704 1797 758.5 1743 Q813 1689 813 1613 Q813 1538 758.5 1483.5 Q704 1429 629 1429 Q553 1429 499 1483.5 Q445 1538 445 1615 Q445 1689 499.5 1743 Q554 1797 629 1797 Z " />
<glyph glyph-name="Wgrave" unicode="&#x1e80;" horiz-adv-x="1840" d="M1844 1365 L1469 0 L1113 0 L1005 459 Q978 575 948 761 Q930 876 917 945 Q907 887 889 764 Q866 620 832 465 L729 0 L368 0 L-5 1365 L354 1365 L456 924 Q518 657 551 368 Q590 663 648 919 L750 1365 L1091 1365 L1185 945 Q1252 648 1286 368 Q1327 689 1392 967 L1486 1365 L1844 1365 Z M544 1750 L910 1750 L1105 1488 L871 1488 L544 1750 Z " />
<glyph glyph-name="wgrave" unicode="&#x1e81;" horiz-adv-x="1571" d="M1584 990 L1274 0 L945 0 L846 378 Q812 509 784 707 Q751 498 722 378 L629 0 L298 0 L-13 990 L323 990 L410 663 Q451 511 487 287 Q526 526 562 676 L636 990 L937 990 L1021 641 Q1062 472 1089 287 Q1123 500 1158 635 L1251 990 L1584 990 Z M450 1402 L790 1402 L957 1126 L751 1126 L450 1402 Z " />
<glyph glyph-name="Wacute" unicode="&#x1e82;" horiz-adv-x="1840" d="M1246 1750 L919 1488 L685 1488 L879 1750 L1246 1750 Z M1844 1365 L1469 0 L1113 0 L1005 459 Q978 575 948 761 Q930 876 917 945 Q907 887 889 764 Q866 620 832 465 L729 0 L368 0 L-5 1365 L354 1365 L456 924 Q518 657 551 368 Q590 663 648 919 L750 1365 L1091 1365 L1185 945 Q1252 648 1286 368 Q1327 689 1392 967 L1486 1365 L1844 1365 Z " />
<glyph glyph-name="wacute" unicode="&#x1e83;" horiz-adv-x="1571" d="M1584 990 L1274 0 L945 0 L846 378 Q812 509 784 707 Q751 498 722 378 L629 0 L298 0 L-13 990 L323 990 L410 663 Q451 511 487 287 Q526 526 562 676 L636 990 L937 990 L1021 641 Q1062 472 1089 287 Q1123 500 1158 635 L1251 990 L1584 990 Z M1120 1402 L819 1126 L614 1126 L781 1402 L1120 1402 Z " />
<glyph glyph-name="Wdieresis" unicode="&#x1e84;" horiz-adv-x="1840" d="M1844 1365 L1469 0 L1113 0 L1005 459 Q978 575 948 761 Q930 876 917 945 Q907 887 889 764 Q866 620 832 465 L729 0 L368 0 L-5 1365 L354 1365 L456 924 Q518 657 551 368 Q590 663 648 919 L750 1365 L1091 1365 L1185 945 Q1252 648 1286 368 Q1327 689 1392 967 L1486 1365 L1844 1365 Z M1129 1797 Q1205 1797 1259 1743 Q1313 1689 1313 1613 Q1313 1538 1258.5 1483.5 Q1204 1429 1129 1429 Q1053 1429 999 1483.5 Q945 1538 945 1615 Q945 1689 999.5 1743 Q1054 1797 1129 1797 Z M708 1797 Q784 1797 838 1743 Q892 1689 892 1613 Q892 1538 837.5 1483.5 Q783 1429 708 1429 Q632 1429 578 1483.5 Q524 1538 524 1615 Q524 1689 578.5 1743 Q633 1797 708 1797 Z " />
<glyph glyph-name="wdieresis" unicode="&#x1e85;" horiz-adv-x="1571" d="M1584 990 L1274 0 L945 0 L846 378 Q812 509 784 707 Q751 498 722 378 L629 0 L298 0 L-13 990 L323 990 L410 663 Q451 511 487 287 Q526 526 562 676 L636 990 L937 990 L1021 641 Q1062 472 1089 287 Q1123 500 1158 635 L1251 990 L1584 990 Z M988 1442 Q1063 1442 1117.5 1388 Q1172 1334 1172 1258 Q1172 1183 1117.5 1128.5 Q1063 1074 988 1074 Q912 1074 858 1128.5 Q804 1183 804 1260 Q804 1334 858.5 1388 Q913 1442 988 1442 Z M581 1442 Q656 1442 710.5 1388 Q765 1334 765 1258 Q765 1183 710.5 1128.5 Q656 1074 581 1074 Q505 1074 451 1128.5 Q397 1183 397 1260 Q397 1334 451.5 1388 Q506 1442 581 1442 Z " />
<glyph glyph-name="Ygrave" unicode="&#x1ef2;" horiz-adv-x="1269" d="M1315 1365 L812 513 L812 0 L456 0 L456 513 L-46 1365 L359 1365 L517 1075 Q582 955 636 813 Q703 984 766 1096 L916 1365 L1315 1365 Z M258 1750 L625 1750 L819 1488 L585 1488 L258 1750 Z " />
<glyph glyph-name="ygrave" unicode="&#x1ef3;" horiz-adv-x="1029" d="M1043 990 L683 -10 Q635 -142 595.5 -201.5 Q556 -261 492 -296 Q413 -340 268 -340 Q224 -340 82 -338 L82 -77 Q102 -77 115 -77 Q159 -78 198 -78 Q270 -78 298 -36 Q307 -22 317 10.5 Q327 43 327 61 Q327 71 322 85 L-16 990 L329 990 L466 551 Q491 469 520 321 Q557 487 580 563 L711 990 L1043 990 Z M179 1402 L519 1402 L686 1126 L480 1126 L179 1402 Z " />
<glyph glyph-name="uni2011" unicode="&#x2011;" horiz-adv-x="519" d="M519 647 L519 363 L0 363 L0 647 L519 647 Z " />
<glyph glyph-name="figuredash" unicode="&#x2012;" horiz-adv-x="1229" d="M1124 651 L1124 367 L105 367 L105 651 L1124 651 Z " />
<glyph glyph-name="endash" unicode="&#x2013;" horiz-adv-x="1229" d="M1124 651 L1124 367 L105 367 L105 651 L1124 651 Z " />
<glyph glyph-name="emdash" unicode="&#x2014;" horiz-adv-x="1556" d="M1556 654 L1556 370 L0 370 L0 654 L1556 654 Z " />
<glyph glyph-name="afii00208" unicode="&#x2015;" horiz-adv-x="1556" d="M1556 654 L1556 370 L0 370 L0 654 L1556 654 Z " />
<glyph glyph-name="underscoredbl" unicode="&#x2017;" horiz-adv-x="1024" d="M0 -101 L1024 -101 L1024 -244 L0 -244 L0 -101 Z M0 -341 L1024 -341 L1024 -484 L0 -484 L0 -341 Z " />
<glyph glyph-name="quoteleft" unicode="&#x2018;" horiz-adv-x="594" d="M449 1241 Q372 1229 326 1181.5 Q280 1134 273 1061 Q294 1065 305 1065 Q378 1065 430 1012.5 Q482 960 482 887 Q482 811 430.5 757 Q379 703 307 703 Q217 703 161 773.5 Q105 844 105 957 Q105 1141 206 1263 Q253 1319 304 1347 Q355 1375 449 1396 L449 1241 Z " />
<glyph glyph-name="quoteright" unicode="&#x2019;" horiz-adv-x="594" d="M138 836 Q215 849 261.5 896.5 Q308 944 314 1017 Q296 1012 282 1012 Q209 1012 157 1064.5 Q105 1117 105 1190 Q105 1266 156.5 1320.5 Q208 1375 280 1375 Q370 1375 426 1304.5 Q482 1234 482 1121 Q482 937 381 815 Q334 758 283 730.5 Q232 703 138 682 L138 836 Z " />
<glyph glyph-name="quotesinglbase" unicode="&#x201a;" horiz-adv-x="594" d="M138 -184 Q215 -171 261.5 -123.5 Q308 -76 314 -3 Q296 -8 282 -8 Q210 -8 157.5 45 Q105 98 105 171 Q105 246 156.5 300.5 Q208 355 280 355 Q370 355 426 284.5 Q482 214 482 101 Q482 -84 381 -205 Q334 -262 283 -290 Q232 -318 138 -338 L138 -184 Z " />
<glyph glyph-name="quotereversed" unicode="&#x201b;" horiz-adv-x="594" d="M449 837 L449 682 Q330 708 268 754 Q191 813 148 909.5 Q105 1006 105 1121 Q105 1234 160 1302 Q218 1375 307 1375 Q379 1375 430.5 1321 Q482 1267 482 1191 Q482 1118 430 1065.5 Q378 1013 305 1013 Q291 1013 273 1017 Q280 944 326 896.5 Q372 849 449 837 Z " />
<glyph glyph-name="quotedblleft" unicode="&#x201c;" horiz-adv-x="1072" d="M446 1241 Q369 1229 323 1181.5 Q277 1134 270 1061 Q291 1065 302 1065 Q375 1065 427 1012.5 Q479 960 479 887 Q479 811 427.5 757 Q376 703 304 703 Q214 703 158 773.5 Q102 844 102 957 Q102 1141 203 1263 Q250 1319 301 1347 Q352 1375 446 1396 L446 1241 Z M930 1241 Q853 1229 806.5 1181.5 Q760 1134 754 1061 Q775 1065 786 1065 Q859 1065 911 1012.5 Q963 960 963 887 Q963 811 911.5 757 Q860 703 788 703 Q698 703 642 773.5 Q586 844 586 957 Q586 1142 687 1263 Q734 1319 785 1347 Q836 1375 930 1396 L930 1241 Z " />
<glyph glyph-name="quotedblright" unicode="&#x201d;" horiz-adv-x="1072" d="M135 836 Q212 849 258.5 896.5 Q305 944 311 1017 Q293 1012 279 1012 Q206 1012 154 1064.5 Q102 1117 102 1190 Q102 1266 153.5 1320.5 Q205 1375 277 1375 Q367 1375 423 1304.5 Q479 1234 479 1121 Q479 937 378 815 Q331 758 280 730.5 Q229 703 135 682 L135 836 Z M619 836 Q696 849 742.5 896.5 Q789 944 795 1017 Q777 1012 763 1012 Q690 1012 638 1064.5 Q586 1117 586 1190 Q586 1266 637.5 1320.5 Q689 1375 761 1375 Q851 1375 907 1304.5 Q963 1234 963 1121 Q963 937 862 815 Q815 759 764 731 Q713 703 619 682 L619 836 Z " />
<glyph glyph-name="quotedblbase" unicode="&#x201e;" horiz-adv-x="1072" d="M135 -184 Q212 -171 258.5 -123.5 Q305 -76 311 -3 Q293 -8 279 -8 Q207 -8 154.5 45 Q102 98 102 171 Q102 246 153.5 300.5 Q205 355 277 355 Q367 355 423 284.5 Q479 214 479 101 Q479 -84 378 -205 Q331 -262 280 -290 Q229 -318 135 -338 L135 -184 Z M619 -184 Q696 -171 742.5 -123.5 Q789 -76 795 -3 Q777 -8 763 -8 Q691 -8 638.5 45 Q586 98 586 171 Q586 246 637.5 300.5 Q689 355 761 355 Q851 355 907 284.5 Q963 214 963 101 Q963 -84 862 -205 Q815 -262 764 -290 Q713 -318 619 -338 L619 -184 Z " />
<glyph glyph-name="dagger" unicode="&#x2020;" horiz-adv-x="1229" d="M1119 993 L1119 723 L763 723 L763 -335 L463 -335 L463 723 L109 723 L109 993 L463 993 L463 1365 L763 1365 L763 993 L1119 993 Z " />
<glyph glyph-name="daggerdbl" unicode="&#x2021;" horiz-adv-x="1229" d="M463 1365 L763 1365 L763 982 L1119 982 L1119 724 L763 724 L763 328 L1119 328 L1119 70 L763 70 L763 -335 L463 -335 L463 70 L109 70 L109 328 L463 328 L463 724 L109 724 L109 982 L463 982 L463 1365 Z " />
<glyph glyph-name="bullet" unicode="&#x2022;" horiz-adv-x="1365" d="M687 982 Q799 982 881 899 Q964 815 964 696 Q964 578 882 494 Q799 410 683 410 Q567 410 485 493 Q401 577 401 696 Q401 817 485 899 Q569 982 687 982 Z " />
<glyph glyph-name="ellipsis" unicode="&#x2026;" horiz-adv-x="1794" d="M299 359 Q375 359 429 305 Q483 251 483 175 Q483 100 428.5 45.5 Q374 -9 299 -9 Q223 -9 169 45.5 Q115 100 115 177 Q115 251 169.5 305 Q224 359 299 359 Z M897 359 Q973 359 1027 305 Q1081 251 1081 175 Q1081 100 1026.5 45.5 Q972 -9 897 -9 Q821 -9 767 45.5 Q713 100 713 177 Q713 251 767.5 305 Q822 359 897 359 Z M1495 359 Q1571 359 1625 305 Q1679 251 1679 175 Q1679 100 1624.5 45.5 Q1570 -9 1495 -9 Q1419 -9 1365 45.5 Q1311 100 1311 177 Q1311 251 1365.5 305 Q1420 359 1495 359 Z " />
<glyph glyph-name="perthousand" unicode="&#x2030;" horiz-adv-x="2471" d="M374 1376 Q561 1376 642 1238 Q697 1142 697 987 Q697 794 592 699 Q505 621 366 621 Q213 621 129 714 Q45 807 45 986 Q45 1195 158 1298 Q243 1376 374 1376 Z M374 1201 Q319 1201 294.5 1150.5 Q270 1100 270 985 Q270 879 292 837 Q314 795 370 795 Q473 795 473 989 Q473 1201 374 1201 Z M556 -43 L361 -43 L1155 1383 L1346 1383 L556 -43 Z M1332 726 Q1520 726 1600 588 Q1656 492 1656 337 Q1656 144 1550 49 Q1464 -29 1324 -29 Q1171 -29 1087 64 Q1003 156 1003 336 Q1003 545 1116 648 Q1201 726 1332 726 Z M1333 551 Q1277 551 1252.5 500.5 Q1228 450 1228 335 Q1228 229 1250 187 Q1272 145 1329 145 Q1432 145 1432 338 Q1432 551 1333 551 Z M2103 726 Q2290 726 2370 588 Q2426 492 2426 337 Q2426 144 2321 49 Q2235 -29 2095 -29 Q1942 -29 1857 64 Q1774 156 1774 336 Q1774 545 1887 648 Q1972 726 2103 726 Z M2103 551 Q2048 551 2023.5 500.5 Q1999 450 1999 335 Q1999 229 2021 187 Q2043 145 2099 145 Q2202 145 2202 338 Q2202 551 2103 551 Z " />
<glyph glyph-name="guilsinglleft" unicode="&#x2039;" horiz-adv-x="496" d="M386 899 L386 634 L226 506 L386 376 L386 119 L82 358 L82 658 L386 899 Z " />
<glyph glyph-name="guilsinglright" unicode="&#x203a;" horiz-adv-x="496" d="M109 899 L413 658 L413 358 L109 119 L109 376 L269 506 L109 634 L109 899 Z " />
<glyph glyph-name="uni203E" unicode="&#x203e;" horiz-adv-x="1024" d="M0 1810 L1024 1810 L1024 1603 L0 1603 L0 1810 Z " />
<glyph glyph-name="fraction" unicode="&#x2044;" horiz-adv-x="292" d="M582 1345 L-120 0 L-289 0 L416 1345 L582 1345 Z " />
<glyph glyph-name="zerosuperior" unicode="&#x2070;" horiz-adv-x="834" d="M427 1357 Q584 1357 679 1244 Q774 1131 774 945 Q774 755 678.5 644.5 Q583 534 418 534 Q242 534 144 658 Q59 767 59 944 Q59 1123 147 1233 Q246 1357 427 1357 Z M418 1188 Q342 1188 309.5 1130 Q277 1072 277 937 Q277 817 311 761 Q345 705 417 705 Q556 705 556 946 Q556 1071 523 1129.5 Q490 1188 418 1188 Z " />
<glyph glyph-name="foursuperior" unicode="&#x2074;" horiz-adv-x="833" d="M776 894 L776 722 L664 722 L664 546 L444 546 L444 722 L59 722 L59 910 L449 1345 L664 1345 L664 894 L776 894 Z M454 887 L454 1145 L234 887 L454 887 Z " />
<glyph glyph-name="fivesuperior" unicode="&#x2075;" horiz-adv-x="833" d="M729 1345 L729 1172 L334 1172 L307 1042 Q373 1096 482 1096 Q595 1096 672 1045 Q777 975 777 831 Q777 694 677.5 614 Q578 534 409 534 Q242 534 150.5 601 Q59 668 53 795 L274 795 Q289 703 409 703 Q475 703 513.5 736 Q552 769 552 826 Q552 884 514.5 916.5 Q477 949 410 949 Q323 949 285 889 L80 889 L168 1345 L729 1345 Z " />
<glyph glyph-name="sixsuperior" unicode="&#x2076;" horiz-adv-x="833" d="M757 1155 L547 1155 Q513 1202 443 1202 Q310 1202 286 1029 Q356 1100 477 1100 Q605 1100 688.5 1023 Q772 946 772 828 Q772 687 661 605 Q563 534 427 534 Q258 534 161.5 639.5 Q65 745 65 930 Q65 1133 164.5 1245 Q264 1357 445 1357 Q573 1357 649 1308 Q725 1259 757 1155 Z M428 944 Q371 944 335 910 Q299 876 299 823 Q299 771 335 737 Q371 703 426 703 Q483 703 519 737 Q555 771 555 824 Q555 875 518.5 909.5 Q482 944 428 944 Z " />
<glyph glyph-name="sevensuperior" unicode="&#x2077;" horiz-adv-x="833" d="M738 1345 L738 1178 Q600 1041 533.5 890 Q467 739 461 546 L220 546 Q220 554 220 561 Q220 692 307.5 880 Q395 1068 501 1162 Q416 1159 379 1159 L92 1159 L92 1345 L738 1345 Z " />
<glyph glyph-name="eightsuperior" unicode="&#x2078;" horiz-adv-x="832" d="M201 972 Q88 1019 88 1133 Q88 1232 179 1294.5 Q270 1357 417 1357 Q563 1357 653.5 1295.5 Q744 1234 744 1135 Q744 1021 632 972 Q779 924 779 787 Q779 672 681 603 Q583 534 419 534 Q248 534 156 597 Q53 667 53 782 Q53 923 201 972 Z M416 1205 Q358 1205 324 1182 Q290 1159 290 1120 Q290 1080 324.5 1056 Q359 1032 418 1032 Q476 1032 509.5 1056 Q543 1080 543 1121 Q543 1160 509 1182.5 Q475 1205 416 1205 Z M415 898 Q351 898 314 870.5 Q277 843 277 796 Q277 748 315 719.5 Q353 691 417 691 Q482 691 519 718.5 Q556 746 556 795 Q556 842 517.5 870 Q479 898 415 898 Z " />
<glyph glyph-name="ninesuperior" unicode="&#x2079;" horiz-adv-x="832" d="M72 740 L284 740 Q311 691 389 691 Q516 691 541 859 Q472 790 353 790 Q245 790 167 846 Q57 925 57 1062 Q57 1205 170 1287 Q268 1357 402 1357 Q574 1357 670 1253 Q766 1149 766 963 Q766 792 686 674 Q591 534 392 534 Q238 534 151 606 Q97 652 72 740 Z M405 1188 Q346 1188 309.5 1154 Q273 1120 273 1066 Q273 1013 309.5 979 Q346 945 403 945 Q459 945 496 979 Q533 1013 533 1065 Q533 1118 496 1153 Q459 1188 405 1188 Z " />
<glyph glyph-name="zeroinferior" unicode="&#x2080;" horiz-adv-x="834" d="M427 811 Q584 811 679 698 Q774 585 774 399 Q774 209 678.5 98.5 Q583 -12 418 -12 Q242 -12 144 112 Q59 221 59 398 Q59 577 147 687 Q246 811 427 811 Z M418 642 Q342 642 309.5 584 Q277 526 277 391 Q277 271 311 215 Q345 159 417 159 Q556 159 556 400 Q556 525 523 583.5 Q490 642 418 642 Z " />
<glyph glyph-name="oneinferior" unicode="&#x2081;" horiz-adv-x="833" d="M605 799 L605 0 L366 0 L366 482 L319 482 L255 482 L197 482 L160 482 L160 637 Q398 636 415 799 L605 799 Z " />
<glyph glyph-name="twoinferior" unicode="&#x2082;" horiz-adv-x="833" d="M767 177 L767 0 L58 0 Q58 9 58 15 Q58 146 153 236 Q195 275 235 301.5 Q275 328 418 412 Q484 450 506.5 476 Q529 502 529 539 Q529 579 499 603.5 Q469 628 419 628 Q354 628 324 591 Q294 554 291 470 L77 470 Q78 559 92.5 609 Q107 659 145 702 Q241 811 427 811 Q571 811 659 745 Q756 673 756 558 Q756 439 650 359 Q614 333 491 266 Q370 201 335 171 Q429 177 495 177 L767 177 Z " />
<glyph glyph-name="threeinferior" unicode="&#x2083;" horiz-adv-x="833" d="M74 528 Q77 637 136 706 Q227 811 414 811 Q562 811 648 751 Q742 686 742 582 Q742 475 640 430 Q771 385 771 253 Q771 134 673 61 Q575 -12 414 -12 Q224 -12 130 80 Q51 157 51 272 Q51 281 52 298 L268 298 Q268 242 285 214 Q317 162 405 162 Q467 162 502.5 187 Q538 212 538 256 Q538 349 394 349 Q373 349 335 348 L335 492 Q356 489 375 489 Q455 489 491.5 507.5 Q528 526 528 566 Q528 601 496.5 622.5 Q465 644 413 644 Q291 644 289 528 L74 528 Z " />
<glyph glyph-name="fourinferior" unicode="&#x2084;" horiz-adv-x="833" d="M776 348 L776 176 L664 176 L664 0 L444 0 L444 176 L59 176 L59 364 L449 799 L664 799 L664 348 L776 348 Z M454 341 L454 599 L234 341 L454 341 Z " />
<glyph glyph-name="fiveinferior" unicode="&#x2085;" horiz-adv-x="833" d="M729 799 L729 626 L334 626 L307 497 Q374 550 482 550 Q595 550 671 499 Q777 430 777 285 Q777 148 678 68 Q579 -12 409 -12 Q242 -12 150.5 55 Q59 122 53 248 L274 248 Q289 157 409 157 Q475 157 513.5 190 Q552 223 552 280 Q552 338 514.5 370.5 Q477 403 410 403 Q323 403 285 343 L80 343 L168 799 L729 799 Z " />
<glyph glyph-name="sixinferior" unicode="&#x2086;" horiz-adv-x="833" d="M757 609 L547 609 Q513 655 443 655 Q310 655 286 484 Q357 554 477 554 Q605 554 688.5 477 Q772 400 772 282 Q772 141 661 59 Q563 -12 427 -12 Q258 -12 161.5 93.5 Q65 199 65 384 Q65 587 164.5 699 Q264 811 445 811 Q573 811 649 762 Q725 713 757 609 Z M428 398 Q371 398 335 364 Q299 330 299 277 Q299 225 335 191 Q371 157 426 157 Q483 157 519 191 Q555 225 555 278 Q555 329 518.5 363.5 Q482 398 428 398 Z " />
<glyph glyph-name="seveninferior" unicode="&#x2087;" horiz-adv-x="833" d="M738 799 L738 632 Q599 495 533 344 Q467 193 461 0 L220 0 Q220 8 220 15 Q220 146 307.5 333.5 Q395 521 501 616 Q416 613 379 613 L92 613 L92 799 L738 799 Z " />
<glyph glyph-name="eightinferior" unicode="&#x2088;" horiz-adv-x="832" d="M201 426 Q88 473 88 587 Q88 687 179 749 Q270 811 417 811 Q563 811 653.5 749.5 Q744 688 744 589 Q744 475 632 426 Q779 378 779 241 Q779 126 681 57 Q583 -12 419 -12 Q248 -12 156 51 Q53 121 53 236 Q53 377 201 426 Z M416 659 Q358 659 324 636 Q290 613 290 574 Q290 534 324.5 510 Q359 486 418 486 Q476 486 509.5 510 Q543 534 543 575 Q543 614 509 636.5 Q475 659 416 659 Z M415 352 Q351 352 314 324.5 Q277 297 277 250 Q277 202 315 173.5 Q353 145 417 145 Q482 145 519 172.5 Q556 200 556 249 Q556 296 517.5 324 Q479 352 415 352 Z " />
<glyph glyph-name="nineinferior" unicode="&#x2089;" horiz-adv-x="832" d="M72 194 L284 194 Q311 145 389 145 Q517 145 541 313 Q472 244 353 244 Q245 244 167 300 Q57 379 57 516 Q57 659 170 741 Q268 811 402 811 Q574 811 670 707 Q766 603 766 417 Q766 246 686 128 Q592 -12 392 -12 Q238 -12 151 60 Q97 106 72 194 Z M405 642 Q346 642 309.5 608 Q273 574 273 520 Q273 467 309.5 433 Q346 399 403 399 Q459 399 496 433 Q533 467 533 519 Q533 572 496 607 Q459 642 405 642 Z " />
<glyph glyph-name="franc" unicode="&#x20a3;" horiz-adv-x="1405" d="M1078 1365 L1078 1086 L452 1086 L452 785 L744 785 L744 520 L452 520 L452 0 L126 0 L126 1365 L1078 1365 Z M1404 802 L1404 548 Q1340 572 1299 572 Q1181 572 1122 476 Q1089 421 1089 304 L1089 0 L813 0 L813 791 L1078 791 L1078 644 Q1166 816 1340 816 Q1377 816 1404 802 Z " />
<glyph glyph-name="lira" unicode="&#x20a4;" horiz-adv-x="1229" d="M534 886 L767 886 L767 722 L600 722 Q622 644 638 574 L767 574 L767 410 L637 410 Q603 327 519 256 Q593 287 665 287 Q709 287 787 266 Q856 247 889 247 Q991 247 1060 341 L1191 104 Q1136 43 1051 8.5 Q966 -26 869 -26 Q812 -26 775 -19.5 Q738 -13 629 16 Q526 43 463 43 Q363 43 257 -35 L126 163 Q224 236 266 288 Q308 340 326 410 L108 410 L108 574 L309 574 Q278 668 256 722 L108 722 L108 886 L180 886 Q163 948 163 1002 Q163 1175 296.5 1280 Q430 1385 649 1385 Q942 1385 1068 1193 Q1135 1091 1140 922 L825 922 Q822 1121 658 1121 Q595 1121 554 1082 Q513 1043 513 983 Q513 942 534 886 Z " />
<glyph glyph-name="peseta" unicode="&#x20a7;" horiz-adv-x="1834" d="M126 1365 L549 1365 Q693 1365 774 1347 Q855 1329 919 1282 Q1096 1153 1096 891 Q1096 677 965 548 Q904 488 824 461 Q744 434 626 434 L452 434 L452 0 L126 0 L126 1365 Z M1310 446 L1310 326 L1216 326 L1216 170 Q1216 137 1222 130.5 Q1228 124 1258 124 Q1275 124 1310 129 L1310 -1 Q1257 -5 1214 -5 Q1111 -5 1074.5 28.5 Q1038 62 1038 157 L1038 326 L962 326 L962 446 L1038 446 L1038 572 L1216 572 L1216 446 L1310 446 Z M1795 295 L1629 295 Q1626 326 1614 336 Q1602 346 1569 346 Q1522 346 1522 327 Q1522 317 1536.5 312 Q1551 307 1617 295 Q1724 275 1766 243 Q1808 211 1808 149 Q1808 74 1745.5 31.5 Q1683 -11 1574 -11 Q1457 -11 1399 32 Q1341 75 1335 167 L1506 167 Q1509 131 1524 118 Q1539 105 1576 105 Q1632 105 1632 133 Q1632 144 1619.5 149 Q1607 154 1548 166 Q1443 188 1411 205 Q1346 238 1346 311 Q1346 380 1404.5 418 Q1463 456 1569 456 Q1682 456 1736 417.5 Q1790 379 1795 295 Z M452 1087 L452 713 L577 713 Q681 713 727 754 Q780 801 780 893 Q780 992 727 1039.5 Q674 1087 564 1087 L452 1087 Z " />
<glyph glyph-name="Euro" unicode="&#x20ac;" horiz-adv-x="1333" d="M590 863 L1082 863 L985 674 L561 674 Q561 634 567 586 L939 586 L842 397 L621 397 Q708 246 885 246 Q1040 246 1128 367 L1128 -10 Q1000 -48 882 -48 Q543 -48 358 184 Q284 276 243 397 L14 397 L110 586 L204 586 Q200 625 200 674 L14 674 L110 863 L222 863 Q266 1044 382 1174 Q569 1385 889 1385 Q1011 1385 1095.5 1358.5 Q1180 1332 1285 1260 L1128 953 Q1088 1021 1043 1050 Q975 1092 885 1092 Q662 1092 590 863 Z " />
<glyph glyph-name="uni2101" unicode="&#x2101;" horiz-adv-x="2127" d="M1489 1365 L914 0 L750 0 L1326 1365 L1489 1365 Z M616 1365 L954 546 L699 546 L642 693 L344 693 L286 546 L34 546 L372 1365 L616 1365 Z M591 857 L494 1129 L395 857 L591 857 Z M1990 564 L1756 564 Q1752 663 1620 663 Q1508 663 1508 599 Q1508 570 1536.5 557.5 Q1565 545 1708 512 Q1849 480 1913 443 Q2025 380 2025 254 Q2025 127 1921.5 53.5 Q1818 -20 1639 -20 Q1448 -20 1343 59 Q1238 138 1236 284 L1482 284 Q1485 215 1523.5 185.5 Q1562 156 1648 156 Q1776 156 1776 231 Q1776 266 1741.5 283.5 Q1707 301 1571 336 Q1401 380 1341 426 Q1270 481 1270 584 Q1270 699 1368.5 768.5 Q1467 838 1630 838 Q1802 838 1894.5 767.5 Q1987 697 1990 564 Z " />
<glyph glyph-name="afii61248" unicode="&#x2105;" horiz-adv-x="1880" d="M1273 1365 L698 0 L534 0 L1109 1365 L1273 1365 Z M747 921 Q728 783 636.5 706.5 Q545 630 399 630 Q222 630 121 745 Q34 844 34 989 Q34 1165 146 1269 Q245 1360 401 1360 Q546 1360 639 1286 Q732 1212 742 1090 L522 1090 Q513 1139 482.5 1166.5 Q452 1194 405 1194 Q337 1194 300.5 1141.5 Q264 1089 264 991 Q264 800 402 800 Q510 800 528 921 L747 921 Z M1406 732 Q1569 732 1670 632 Q1773 532 1773 369 Q1773 203 1670 101 Q1568 0 1402 0 Q1241 0 1138 106 Q1040 207 1040 367 Q1040 528 1139 627 Q1243 732 1406 732 Z M1407 566 Q1341 566 1305.5 514.5 Q1270 463 1270 366 Q1270 272 1303 222 Q1340 166 1407 166 Q1472 166 1507.5 218.5 Q1543 271 1543 368 Q1543 459 1511 508 Q1474 566 1407 566 Z " />
<glyph glyph-name="afii61289" unicode="&#x2113;" horiz-adv-x="1024" d="M531 524 Q490 263 490 176 Q490 125 516 125 Q531 125 540.5 138 Q550 151 583 211 Q607 257 636 257 Q681 257 681 203 Q681 129 621 48 Q548 -49 448 -49 Q380 -49 331 -3 Q282 43 265 121 Q249 199 250 315 Q192 243 172 243 Q157 243 144 267 Q131 291 131 319 Q131 342 141.5 359 Q152 376 204 437 Q230 467 267 517 Q327 877 425 1103 Q538 1366 715 1366 Q813 1366 862 1293 Q901 1235 901 1154 Q901 981 743 753 Q719 717 581 576 Q550 543 531 524 Z M553 691 Q630 777 690 897 Q764 1047 764 1132 Q764 1199 722 1199 Q675 1199 647 1117 Q594 967 553 691 Z " />
<glyph glyph-name="afii61352" unicode="&#x2116;" horiz-adv-x="2167" d="M1310 1365 L1310 0 L963 0 L595 620 L556 689 Q498 791 460 876 Q473 725 473 528 L473 0 L126 0 L126 1365 L486 1365 L825 787 Q926 615 979 501 Q963 703 963 853 L963 1365 L1310 1365 Z M1763 1056 Q1918 1056 2014 961 Q2112 866 2112 710 Q2112 552 2014 455 Q1917 359 1758 359 Q1605 359 1508 459 Q1414 556 1414 709 Q1414 862 1508 956 Q1607 1056 1763 1056 Z M1764 855 Q1662 855 1662 708 Q1662 560 1764 560 Q1812 560 1838 599 Q1864 638 1864 709 Q1864 778 1837.5 816.5 Q1811 855 1764 855 Z M2112 295 L2112 75 L1414 75 L1414 295 L2112 295 Z " />
<glyph glyph-name="uni2120" unicode="&#x2120;" horiz-adv-x="1938" d="M709 1125 L507 1125 Q504 1219 388 1219 Q289 1219 289 1156 Q289 1128 313.5 1116 Q338 1104 464 1073 Q587 1042 642 1007 Q739 947 739 828 Q739 707 649 637 Q559 567 405 567 Q245 567 151.5 641 Q58 715 55 843 Q55 846 55 856 L267 856 Q268 852 268 847 Q275 733 411 733 Q524 733 524 807 Q524 840 492.5 858 Q461 876 345 908 Q198 949 145 994 Q84 1046 84 1143 Q84 1253 169.5 1319.5 Q255 1386 397 1386 Q516 1386 594 1340 Q672 1294 698 1209 Q707 1178 709 1125 Z M1829 1365 L1829 587 L1611 587 L1611 1065 L1402 587 L1231 587 L1020 1054 L1020 587 L802 587 L802 1365 L1130 1365 L1321 909 L1506 1365 L1829 1365 Z " />
<glyph glyph-name="trademark" unicode="&#x2122;" horiz-adv-x="1988" d="M759 1365 L759 1179 L506 1179 L506 587 L271 587 L271 1179 L20 1179 L20 1365 L759 1365 Z M1879 1365 L1879 587 L1661 587 L1661 1065 L1452 587 L1281 587 L1070 1054 L1070 587 L852 587 L852 1365 L1180 1365 L1371 909 L1556 1365 L1879 1365 Z " />
<glyph glyph-name="Omega" unicode="&#x2126;" horiz-adv-x="1365" d="M56 0 L56 291 L315 291 Q207 360 149 434 Q48 565 48 759 Q48 1028 239 1219 Q420 1399 682 1399 Q945 1399 1126 1219 Q1316 1028 1316 758 Q1316 553 1201 416 Q1149 355 1049 291 L1308 291 L1308 0 L752 0 L752 268 Q848 317 901 405 Q976 530 976 698 Q976 871 894 986 Q809 1105 683 1105 Q557 1105 473 989.5 Q389 874 389 701 Q389 381 613 268 L613 0 L56 0 Z " />
<glyph glyph-name="estimated" unicode="&#x212e;" horiz-adv-x="1148" d="M300 495 L300 149 Q418 36 578 36 Q699 36 783.5 89 Q868 142 946 266 L1013 226 Q923 85 824 26 Q725 -33 580 -33 Q358 -33 218 121 Q84 268 84 495 Q84 725 218 871 Q359 1024 578 1024 Q796 1024 933.5 877.5 Q1071 731 1072 495 L300 495 Z M856 564 L856 842 Q730 957 575 957 Q421 957 300 842 L300 564 L856 564 Z " />
<glyph glyph-name="onethird" unicode="&#x2153;" horiz-adv-x="1958" d="M605 1345 L605 546 L366 546 L366 1028 L319 1028 L255 1028 L197 1028 L160 1028 L160 1184 Q398 1182 415 1345 L605 1345 Z M1414 1345 L712 0 L543 0 L1247 1345 L1414 1345 Z M1199 528 Q1202 637 1261 706 Q1351 811 1539 811 Q1687 811 1773 751 Q1867 686 1867 582 Q1867 475 1765 430 Q1896 385 1896 253 Q1896 134 1797.5 61 Q1699 -12 1539 -12 Q1349 -12 1255 80 Q1176 157 1176 272 Q1176 281 1177 298 L1393 298 Q1394 241 1410 214 Q1442 162 1530 162 Q1592 162 1627.5 187 Q1663 212 1663 256 Q1663 349 1519 349 Q1498 349 1460 348 L1460 492 Q1481 489 1500 489 Q1580 489 1616.5 507.5 Q1653 526 1653 566 Q1653 601 1621.5 622.5 Q1590 644 1538 644 Q1416 644 1414 528 L1199 528 Z " />
<glyph glyph-name="twothirds" unicode="&#x2154;" horiz-adv-x="1958" d="M767 724 L767 547 L58 547 Q58 556 58 562 Q58 693 153 783 Q194 822 234 848 Q274 874 418 958 Q485 998 507 1023 Q529 1048 529 1085 Q529 1125 499 1149.5 Q469 1174 419 1174 Q354 1174 324 1137 Q294 1100 291 1016 L77 1016 Q78 1105 92.5 1155 Q107 1205 145 1248 Q241 1357 427 1357 Q571 1357 659 1291 Q756 1220 756 1104 Q756 986 650 906 Q613 879 491 813 Q368 747 335 718 Q426 724 495 724 L767 724 Z M1414 1345 L712 0 L543 0 L1248 1345 L1414 1345 Z M1200 528 Q1203 637 1262 706 Q1353 811 1540 811 Q1688 811 1774 751 Q1868 686 1868 582 Q1868 475 1766 430 Q1897 385 1897 253 Q1897 134 1799 61 Q1701 -12 1540 -12 Q1350 -12 1256 80 Q1177 157 1177 272 Q1177 281 1178 298 L1394 298 Q1394 242 1411 214 Q1443 162 1531 162 Q1593 162 1628.5 187 Q1664 212 1664 256 Q1664 349 1520 349 Q1499 349 1461 348 L1461 492 Q1482 489 1501 489 Q1581 489 1617.5 507.5 Q1654 526 1654 566 Q1654 601 1622.5 622.5 Q1591 644 1539 644 Q1417 644 1415 528 L1200 528 Z " />
<glyph glyph-name="uni2155" unicode="&#x2155;" horiz-adv-x="1958" d="M605 1345 L605 546 L366 546 L366 1028 L319 1028 L255 1028 L197 1028 L160 1028 L160 1184 Q398 1182 415 1345 L605 1345 Z M1414 1345 L712 0 L543 0 L1247 1345 L1414 1345 Z M1854 799 L1854 626 L1459 626 L1432 497 Q1499 550 1607 550 Q1720 550 1796 499 Q1902 430 1902 285 Q1902 148 1803 68 Q1704 -12 1534 -12 Q1367 -12 1275.5 54.5 Q1184 121 1178 248 L1399 248 Q1414 157 1534 157 Q1600 157 1638.5 190 Q1677 223 1677 280 Q1677 338 1639.5 370.5 Q1602 403 1535 403 Q1448 403 1410 343 L1205 343 L1293 799 L1854 799 Z " />
<glyph glyph-name="uni2156" unicode="&#x2156;" horiz-adv-x="1958" d="M767 724 L767 547 L58 547 Q58 556 58 562 Q58 693 153 783 Q194 822 234 848 Q274 874 418 958 Q485 998 507 1023 Q529 1048 529 1085 Q529 1125 499 1149.5 Q469 1174 419 1174 Q354 1174 324 1137 Q294 1100 291 1016 L77 1016 Q78 1105 92.5 1155 Q107 1205 145 1248 Q241 1357 427 1357 Q571 1357 659 1291 Q756 1220 756 1104 Q756 986 650 906 Q613 879 491 813 Q368 747 335 718 Q426 724 495 724 L767 724 Z M1414 1345 L712 0 L543 0 L1248 1345 L1414 1345 Z M1854 799 L1854 626 L1459 626 L1432 497 Q1499 550 1608 550 Q1720 550 1796 499 Q1902 430 1902 285 Q1902 148 1803 68 Q1704 -12 1534 -12 Q1367 -12 1275.5 54.5 Q1184 121 1178 248 L1399 248 Q1414 157 1534 157 Q1600 157 1638.5 190 Q1677 223 1677 280 Q1677 338 1639.5 370.5 Q1602 403 1535 403 Q1448 403 1410 343 L1205 343 L1293 799 L1854 799 Z " />
<glyph glyph-name="uni2157" unicode="&#x2157;" horiz-adv-x="1958" d="M74 1075 Q77 1184 136 1253 Q227 1357 414 1357 Q562 1357 648 1298 Q742 1233 742 1129 Q742 1023 640 977 Q771 932 771 799 Q771 680 673 607 Q575 534 414 534 Q224 534 130 626 Q51 703 51 818 Q51 827 52 844 L268 844 Q268 788 285 760 Q317 707 405 707 Q467 707 502.5 732.5 Q538 758 538 802 Q538 896 394 896 Q377 896 335 894 L335 1039 Q356 1036 375 1036 Q455 1036 491.5 1054.5 Q528 1073 528 1113 Q528 1148 496.5 1169.5 Q465 1191 413 1191 Q291 1191 289 1075 L74 1075 Z M1414 1345 L712 0 L543 0 L1247 1345 L1414 1345 Z M1853 799 L1853 626 L1458 626 L1431 497 Q1498 550 1606 550 Q1719 550 1795 499 Q1901 430 1901 285 Q1901 148 1802 68 Q1703 -12 1533 -12 Q1366 -12 1274.5 54.5 Q1183 121 1177 248 L1398 248 Q1413 157 1533 157 Q1599 157 1637.5 190 Q1676 223 1676 280 Q1676 338 1638.5 370.5 Q1601 403 1534 403 Q1447 403 1409 343 L1204 343 L1292 799 L1853 799 Z " />
<glyph glyph-name="uni2158" unicode="&#x2158;" horiz-adv-x="1958" d="M776 894 L776 722 L664 722 L664 546 L444 546 L444 722 L59 722 L59 910 L449 1345 L664 1345 L664 894 L776 894 Z M454 887 L454 1145 L234 887 L454 887 Z M1414 1345 L712 0 L543 0 L1248 1345 L1414 1345 Z M1854 799 L1854 626 L1459 626 L1432 497 Q1499 550 1607 550 Q1719 550 1796 499 Q1902 430 1902 285 Q1902 148 1802.5 68 Q1703 -12 1534 -12 Q1367 -12 1275.5 54.5 Q1184 121 1178 248 L1399 248 Q1415 157 1534 157 Q1600 157 1638.5 190 Q1677 223 1677 280 Q1677 338 1639.5 370.5 Q1602 403 1535 403 Q1448 403 1410 343 L1205 343 L1293 799 L1854 799 Z " />
<glyph glyph-name="uni2159" unicode="&#x2159;" horiz-adv-x="1958" d="M605 1345 L605 546 L366 546 L366 1028 L319 1028 L255 1028 L197 1028 L160 1028 L160 1184 Q398 1182 415 1345 L605 1345 Z M1414 1345 L712 0 L543 0 L1247 1345 L1414 1345 Z M1882 609 L1672 609 Q1638 655 1568 655 Q1435 655 1411 484 Q1482 554 1601 554 Q1730 554 1813.5 477 Q1897 400 1897 282 Q1897 141 1786 59 Q1687 -12 1552 -12 Q1382 -12 1285.5 93.5 Q1189 199 1189 384 Q1189 587 1288.5 699 Q1388 811 1569 811 Q1697 811 1773 762 Q1849 713 1882 609 Z M1552 398 Q1495 398 1459 364 Q1423 330 1423 277 Q1423 225 1459 191 Q1495 157 1551 157 Q1607 157 1643.5 191 Q1680 225 1680 278 Q1680 329 1643.5 363.5 Q1607 398 1552 398 Z " />
<glyph glyph-name="uni215A" unicode="&#x215a;" horiz-adv-x="1958" d="M729 1345 L729 1172 L334 1172 L307 1042 Q373 1096 482 1096 Q595 1096 672 1045 Q777 975 777 831 Q777 694 677.5 614 Q578 534 409 534 Q242 534 150.5 601 Q59 668 53 795 L274 795 Q289 703 409 703 Q475 703 513.5 736 Q552 769 552 826 Q552 884 514.5 916.5 Q477 949 410 949 Q323 949 285 889 L80 889 L168 1345 L729 1345 Z M1415 1345 L713 0 L544 0 L1248 1345 L1415 1345 Z M1882 609 L1673 609 Q1639 655 1569 655 Q1436 655 1412 484 Q1483 554 1602 554 Q1731 554 1814.5 477 Q1898 400 1898 282 Q1898 141 1787 59 Q1688 -12 1553 -12 Q1383 -12 1286.5 93.5 Q1190 199 1190 384 Q1190 587 1289.5 699 Q1389 811 1570 811 Q1698 811 1774 762 Q1850 713 1882 609 Z M1553 398 Q1496 398 1460 364 Q1424 330 1424 277 Q1424 225 1460 191 Q1496 157 1552 157 Q1608 157 1644.5 191 Q1681 225 1681 278 Q1681 329 1644.5 363.5 Q1608 398 1553 398 Z " />
<glyph glyph-name="oneeighth" unicode="&#x215b;" horiz-adv-x="1957" d="M605 1345 L605 546 L366 546 L366 1028 L319 1028 L255 1028 L197 1028 L160 1028 L160 1184 Q398 1182 415 1345 L605 1345 Z M1414 1345 L712 0 L543 0 L1247 1345 L1414 1345 Z M1325 426 Q1213 474 1213 587 Q1213 686 1304 748.5 Q1395 811 1541 811 Q1687 811 1777.5 749.5 Q1868 688 1868 589 Q1868 475 1757 426 Q1904 378 1904 241 Q1904 126 1806 57 Q1708 -12 1544 -12 Q1373 -12 1281 51 Q1178 121 1178 236 Q1178 376 1325 426 Z M1541 659 Q1483 659 1449 636 Q1415 613 1415 574 Q1415 534 1449.5 510 Q1484 486 1542 486 Q1600 486 1633.5 510 Q1667 534 1667 575 Q1667 614 1633.5 636.5 Q1600 659 1541 659 Z M1540 352 Q1476 352 1439 324.5 Q1402 297 1402 250 Q1402 202 1440 173.5 Q1478 145 1542 145 Q1607 145 1644 172.5 Q1681 200 1681 249 Q1681 296 1642.5 324 Q1604 352 1540 352 Z " />
<glyph glyph-name="threeeighths" unicode="&#x215c;" horiz-adv-x="1957" d="M74 1075 Q77 1184 136 1253 Q227 1357 414 1357 Q562 1357 648 1298 Q742 1233 742 1129 Q742 1023 640 977 Q771 932 771 799 Q771 680 673 607 Q575 534 414 534 Q224 534 130 626 Q51 703 51 818 Q51 827 52 844 L268 844 Q268 788 285 760 Q317 707 405 707 Q467 707 502.5 732.5 Q538 758 538 802 Q538 896 394 896 Q377 896 335 894 L335 1039 Q356 1036 375 1036 Q455 1036 491.5 1054.5 Q528 1073 528 1113 Q528 1148 496.5 1169.5 Q465 1191 413 1191 Q291 1191 289 1075 L74 1075 Z M1414 1345 L712 0 L543 0 L1247 1345 L1414 1345 Z M1325 426 Q1213 473 1213 587 Q1213 687 1304 749 Q1395 811 1541 811 Q1687 811 1777.5 749.5 Q1868 688 1868 589 Q1868 475 1756 426 Q1904 378 1904 241 Q1904 126 1806 57 Q1708 -12 1544 -12 Q1372 -12 1280 51 Q1177 121 1177 236 Q1177 376 1325 426 Z M1541 659 Q1483 659 1449 636 Q1415 613 1415 574 Q1415 534 1449.5 510 Q1484 486 1542 486 Q1600 486 1633.5 510 Q1667 534 1667 575 Q1667 614 1633.5 636.5 Q1600 659 1541 659 Z M1540 352 Q1476 352 1438.5 324.5 Q1401 297 1401 250 Q1401 202 1439 173.5 Q1477 145 1541 145 Q1606 145 1643.5 172.5 Q1681 200 1681 249 Q1681 296 1642.5 324 Q1604 352 1540 352 Z " />
<glyph glyph-name="fiveeighths" unicode="&#x215d;" horiz-adv-x="1958" d="M729 1345 L729 1172 L334 1172 L307 1042 Q373 1096 482 1096 Q595 1096 672 1045 Q777 975 777 831 Q777 694 677.5 614 Q578 534 409 534 Q242 534 150.5 601 Q59 668 53 795 L274 795 Q289 703 409 703 Q475 703 513.5 736 Q552 769 552 826 Q552 884 514.5 916.5 Q477 949 410 949 Q323 949 285 889 L80 889 L168 1345 L729 1345 Z M1415 1345 L713 0 L544 0 L1248 1345 L1415 1345 Z M1326 426 Q1214 474 1214 587 Q1214 686 1305 748.5 Q1396 811 1542 811 Q1688 811 1778.5 749.5 Q1869 688 1869 589 Q1869 475 1758 426 Q1905 378 1905 241 Q1905 126 1807 57 Q1709 -12 1545 -12 Q1373 -12 1281 51 Q1178 121 1178 236 Q1178 377 1326 426 Z M1542 659 Q1484 659 1450 636 Q1416 613 1416 574 Q1416 534 1450.5 510 Q1485 486 1543 486 Q1601 486 1634.5 510 Q1668 534 1668 575 Q1668 614 1634.5 636.5 Q1601 659 1542 659 Z M1541 352 Q1477 352 1439.5 324.5 Q1402 297 1402 250 Q1402 202 1440 173.5 Q1478 145 1542 145 Q1607 145 1644.5 172.5 Q1682 200 1682 249 Q1682 296 1643.5 324 Q1605 352 1541 352 Z " />
<glyph glyph-name="seveneighths" unicode="&#x215e;" horiz-adv-x="1957" d="M738 1345 L738 1178 Q600 1041 533.5 890 Q467 739 461 546 L220 546 Q220 554 220 561 Q220 692 307.5 880 Q395 1068 501 1162 Q416 1159 379 1159 L92 1159 L92 1345 L738 1345 Z M1414 1345 L712 0 L543 0 L1248 1345 L1414 1345 Z M1326 426 Q1213 473 1213 587 Q1213 686 1304 748.5 Q1395 811 1542 811 Q1688 811 1778.5 749.5 Q1869 688 1869 589 Q1869 475 1757 426 Q1904 378 1904 241 Q1904 126 1806 57 Q1708 -12 1544 -12 Q1373 -12 1281 51 Q1178 121 1178 236 Q1178 377 1326 426 Z M1541 659 Q1483 659 1449 636 Q1415 613 1415 574 Q1415 534 1449.5 510 Q1484 486 1543 486 Q1601 486 1634.5 510 Q1668 534 1668 575 Q1668 614 1634 636.5 Q1600 659 1541 659 Z M1540 352 Q1476 352 1439 324.5 Q1402 297 1402 250 Q1402 202 1440 173.5 Q1478 145 1542 145 Q1607 145 1644 172.5 Q1681 200 1681 249 Q1681 296 1642.5 324 Q1604 352 1540 352 Z " />
<glyph glyph-name="partialdiff" unicode="&#x2202;" horiz-adv-x="1024" d="M108 1099 L146 1357 Q351 1336 506 1278 Q693 1209 821 1059 Q993 857 993 547 Q993 235 809 85 Q684 -17 501 -17 Q289 -17 159 119 Q28 255 28 454 Q28 628 137 750 Q255 883 438 883 Q516 883 568.5 866 Q621 849 674 807 Q626 891 586 932.5 Q546 974 483 1006 Q336 1080 108 1099 Z M512 637 Q441 637 387 589 Q324 533 324 441 Q324 359 380 302 Q434 247 507 247 Q577 247 630 298 Q690 354 690 443 Q690 533 632 588 Q579 637 512 637 Z " />
<glyph glyph-name="emptyset" unicode="&#x2205;" horiz-adv-x="1266" d="M899 1365 L997 1314 L899 1133 Q1130 972 1130 717 Q1130 576 1055 455 Q990 350 885 288 Q766 219 622 219 Q528 219 460 252 L332 1 L232 52 L358 301 Q137 463 137 715 Q137 943 308 1091 Q448 1212 636 1212 Q718 1212 802 1183 L899 1365 Z M514 353 Q580 335 633 335 Q801 335 916 458 Q1016 566 1016 715 Q1016 812 971.5 896 Q927 980 852 1027 L514 353 Z M749 1079 Q692 1096 639 1096 Q455 1096 340 958 Q251 851 251 716 Q251 533 410 406 L749 1079 Z " />
<glyph glyph-name="increment" unicode="&#x2206;" horiz-adv-x="1344" d="M18 0 L496 1365 L844 1365 L1326 0 L18 0 Z M444 291 L892 291 L672 1012 L444 291 Z " />
<glyph glyph-name="product" unicode="&#x220f;" horiz-adv-x="1365" d="M34 1536 L1332 1536 L1332 1268 L1186 1268 L1186 -244 L1332 -244 L1332 -512 L759 -512 L759 -244 L886 -244 L886 1268 L480 1268 L480 -244 L604 -244 L604 -512 L34 -512 L34 -244 L183 -244 L183 1268 L34 1268 L34 1536 Z " />
<glyph glyph-name="summation" unicode="&#x2211;" horiz-adv-x="1365" d="M1287 1536 L1287 998 L985 998 L948 1228 L445 1228 L937 542 L448 -204 L967 -204 L988 37 L1305 37 L1305 -512 L69 -512 L69 -158 L540 541 L69 1181 L69 1536 L1287 1536 Z " />
<glyph glyph-name="minus" unicode="&#x2212;" horiz-adv-x="1229" d="M116 554 L116 778 L1113 778 L1113 554 L116 554 Z " />
<glyph glyph-name="fraction001" unicode="&#x2215;" horiz-adv-x="292" d="M582 1345 L-120 0 L-289 0 L416 1345 L582 1345 Z " />
<glyph glyph-name="uni2218" unicode="&#x2218;" horiz-adv-x="1024" d="M516 983 Q628 983 710 900 Q793 816 793 696 Q793 578 711 494 Q628 410 512 410 Q396 410 314 493 Q230 578 230 696 Q230 818 314 900 Q398 983 516 983 Z M514 886 Q435 886 381 831 Q326 776 326 696 Q326 618 381 562 Q436 507 512 507 Q589 507 643 562.5 Q697 618 697 696 Q697 777 642 831 Q587 886 514 886 Z " />
<glyph glyph-name="middot" unicode="&#x2219;" horiz-adv-x="598" d="M299 693 Q375 693 429 639 Q483 585 483 509 Q483 434 428.5 379.5 Q374 325 299 325 Q223 325 169 379.5 Q115 434 115 511 Q115 585 169.5 639 Q224 693 299 693 Z " />
<glyph glyph-name="radical" unicode="&#x221a;" horiz-adv-x="1365" d="M1365 1693 L1365 1416 L1035 1416 L688 0 L295 0 L186 502 L0 502 L0 779 L376 779 L424 579 Q445 497 461 285 L480 285 Q510 569 595 912 L789 1693 L1365 1693 Z " />
<glyph glyph-name="infinity" unicode="&#x221e;" horiz-adv-x="1365" d="M688 545 Q543 368 362 368 Q205 368 111 476 Q35 564 35 697 Q35 853 141 943 Q235 1023 362 1023 Q539 1023 678 847 Q812 1023 1003 1023 Q1170 1023 1264 904 Q1330 819 1330 696 Q1330 540 1226 449 Q1134 368 1005 368 Q821 368 688 545 Z M796 696 Q881 575 969 575 Q1022 575 1057.5 610 Q1093 645 1093 696 Q1093 747 1057 781.5 Q1021 816 968 816 Q881 816 796 696 Z M569 695 Q485 816 395 816 Q343 816 307.5 781 Q272 746 272 694 Q272 643 308 608.5 Q344 574 397 574 Q485 574 569 695 Z " />
<glyph glyph-name="integral" unicode="&#x222b;" horiz-adv-x="1024" d="M64 -491 L119 -174 Q169 -195 208 -195 Q295 -195 321 -124 Q331 -98 331 107 L331 855 Q332 1096 334.5 1147 Q337 1198 354 1260 Q389 1394 512 1472 Q613 1536 771 1536 Q847 1536 959 1516 L905 1198 Q854 1218 814 1218 Q730 1218 702 1148 Q692 1121 692 1028 L692 178 Q692 -44 690.5 -88.5 Q689 -133 681 -179 Q652 -341 535 -429 Q426 -510 244 -510 Q143 -510 64 -491 Z " />
<glyph glyph-name="similar" unicode="&#x223c;" horiz-adv-x="1024" d="M185 465 L15 608 Q52 703 99 770 Q191 903 329 903 Q366 903 414 889 Q462 875 557 837 Q672 791 704 791 Q776 791 838 908 L1008 766 Q964 657 925.5 602.5 Q887 548 832 514 Q765 472 689 472 Q648 472 606 484.5 Q564 497 458 541 Q356 583 315 583 Q248 583 185 465 Z " />
<glyph glyph-name="approxequal" unicode="&#x2248;" horiz-adv-x="1024" d="M186 713 L16 833 Q53 927 100 995 Q192 1128 330 1128 Q373 1128 423 1112 Q473 1096 635 1032 Q673 1016 706 1016 Q746 1016 772.5 1035 Q799 1054 839 1111 L1009 991 Q952 850 890 785 Q809 699 687 699 Q643 699 603.5 710.5 Q564 722 459 766 Q358 808 314 808 Q251 808 186 713 Z M186 240 L16 360 Q53 455 100 522 Q192 655 330 655 Q396 655 558 589 Q673 543 706 543 Q746 543 772.5 562 Q799 581 839 638 L1009 518 Q951 377 890 312 Q809 226 688 226 Q644 226 602.5 238 Q561 250 459 293 Q359 335 314 335 Q279 335 251 314 Q223 293 186 240 Z " />
<glyph glyph-name="notequal" unicode="&#x2260;" horiz-adv-x="1024" d="M521 1003 L665 1273 L883 1152 L799 1003 L956 1003 L956 708 L680 708 L600 563 L955 563 L955 268 L492 268 L368 42 L151 163 L212 268 L68 268 L68 563 L320 563 L401 708 L69 708 L69 1003 L521 1003 Z " />
<glyph glyph-name="lessequal" unicode="&#x2264;" horiz-adv-x="1024" d="M955 1352 L955 1021 L454 875 L953 730 L955 400 L68 729 L68 1024 L955 1352 Z M955 347 L955 37 L68 37 L68 347 L955 347 Z " />
<glyph glyph-name="greaterequal" unicode="&#x2265;" horiz-adv-x="1024" d="M68 400 L70 730 L569 875 L68 1021 L68 1352 L955 1024 L955 729 L68 400 Z M68 37 L68 347 L955 347 L955 37 L68 37 Z " />
<glyph glyph-name="lozenge" unicode="&#x25ca;" horiz-adv-x="1365" d="M683 1419 L1214 683 L683 -53 L151 683 L683 1419 Z M683 1238 L279 683 L683 129 L1086 683 L683 1238 Z " />
<glyph glyph-name="uniE001" unicode="&#xe001;" horiz-adv-x="834" d="M445 1173 L445 1041 Q548 1016 590 1002 Q680 971 719 923.5 Q758 876 758 797 Q758 691 674.5 625.5 Q591 560 445 551 L445 459 L367 459 L367 552 Q206 564 125 659 Q92 698 79.5 737 Q67 776 64 845 L269 845 Q271 787 292.5 759 Q314 731 367 717 L367 869 Q278 891 228 912 Q91 970 91 1103 Q91 1200 166.5 1264.5 Q242 1329 367 1339 L367 1420 L445 1420 L445 1339 Q733 1309 733 1066 L529 1066 Q525 1118 506.5 1141.5 Q488 1165 445 1173 Z M367 1175 Q293 1165 293 1119 Q293 1097 308.5 1085 Q324 1073 367 1061 L367 1175 Z M445 712 Q554 719 554 777 Q554 827 445 852 L445 712 Z " />
<glyph glyph-name="uniE002" unicode="&#xe002;" horiz-adv-x="1229" d="M56 414 L250 414 L287 600 L138 600 L138 817 L331 817 L366 996 L594 996 L557 817 L726 817 L763 996 L989 996 L953 817 L1101 817 L1101 600 L910 600 L873 414 L1020 414 L1020 196 L830 196 L789 0 L563 0 L602 196 L434 196 L394 0 L166 0 L207 196 L56 196 L56 414 Z M477 414 L646 414 L683 600 L514 600 L477 414 Z " />
<glyph glyph-name="uniE003" unicode="&#xe003;" horiz-adv-x="1173" d="M285 1384 Q390 1384 447.5 1316 Q505 1248 505 1124 Q505 997 433 932 Q373 878 279 878 Q174 878 116.5 942 Q59 1006 59 1124 Q59 1244 120 1314 Q181 1384 285 1384 Z M283 1219 Q253 1217 253 1125 Q253 1076 258.5 1059.5 Q264 1043 281 1043 Q311 1043 311 1127 Q311 1220 283 1219 Z M431 480 L247 480 L754 1390 L935 1390 L431 480 Z M905 994 Q1010 994 1067 926 Q1124 858 1124 734 Q1124 607 1052 542 Q993 488 899 488 Q794 488 736.5 552 Q679 616 679 734 Q679 854 740 924 Q801 994 905 994 Z M903 829 Q873 829 873 735 Q873 686 878.5 669.5 Q884 653 900 653 Q930 653 930 736 Q930 829 903 829 Z " />
<glyph glyph-name="ff" unicode="&#xfb00;" horiz-adv-x="1359" d="M685 1362 L685 1133 Q638 1136 601 1136 Q526 1136 502.5 1119 Q479 1102 479 1050 L479 990 L812 990 L812 1035 Q812 1129 831 1185.5 Q850 1242 894 1284 Q985 1368 1192 1368 Q1239 1368 1343 1362 L1343 1133 Q1296 1136 1259 1136 Q1184 1136 1160.5 1119 Q1137 1102 1137 1050 L1137 990 L1331 990 L1331 776 L1137 776 L1137 0 L812 0 L812 776 L479 776 L479 0 L154 0 L154 776 L-3 776 L-3 990 L154 990 L154 1035 Q154 1129 173 1185.5 Q192 1242 236 1284 Q327 1368 534 1368 Q580 1368 685 1362 Z " />
<glyph glyph-name="fi" unicode="&#xfb01;" horiz-adv-x="1248" d="M685 1362 L685 1133 Q638 1136 601 1136 Q526 1136 502.5 1119 Q479 1102 479 1050 L479 990 L673 990 L673 776 L479 776 L479 0 L154 0 L154 776 L-3 776 L-3 990 L154 990 L154 1035 Q154 1129 173 1185.5 Q192 1242 236 1284 Q327 1368 534 1368 Q581 1368 685 1362 Z M974 1418 Q1050 1418 1104 1364 Q1158 1310 1158 1234 Q1158 1159 1103.5 1104.5 Q1049 1050 974 1050 Q898 1050 844 1104.5 Q790 1159 790 1236 Q790 1310 844.5 1364 Q899 1418 974 1418 Z M1137 990 L1137 0 L812 0 L812 990 L1137 990 Z " />
<glyph glyph-name="fl" unicode="&#xfb02;" horiz-adv-x="1248" d="M685 1362 L685 1133 Q638 1136 601 1136 Q526 1136 502.5 1119 Q479 1102 479 1050 L479 990 L673 990 L673 776 L479 776 L479 0 L154 0 L154 776 L-3 776 L-3 990 L154 990 L154 1035 Q154 1129 173 1185.5 Q192 1242 236 1284 Q327 1368 534 1368 Q581 1368 685 1362 Z M1137 1365 L1137 0 L812 0 L812 1365 L1137 1365 Z " />
<glyph glyph-name="ffi" unicode="&#xfb03;" horiz-adv-x="1906" d="M685 1362 L685 1133 Q638 1136 601 1136 Q526 1136 502.5 1119 Q479 1102 479 1050 L479 990 L812 990 L812 1035 Q812 1129 831 1185.5 Q850 1242 894 1284 Q985 1368 1192 1368 Q1239 1368 1343 1362 L1343 1133 Q1296 1136 1259 1136 Q1184 1136 1160.5 1119 Q1137 1102 1137 1050 L1137 990 L1331 990 L1331 776 L1137 776 L1137 0 L812 0 L812 776 L479 776 L479 0 L154 0 L154 776 L-3 776 L-3 990 L154 990 L154 1035 Q154 1129 173 1185.5 Q192 1242 236 1284 Q327 1368 534 1368 Q580 1368 685 1362 Z M1632 1418 Q1708 1418 1762 1364 Q1816 1310 1816 1234 Q1816 1159 1761.5 1104.5 Q1707 1050 1632 1050 Q1556 1050 1502 1104.5 Q1448 1159 1448 1236 Q1448 1310 1502.5 1364 Q1557 1418 1632 1418 Z M1795 990 L1795 0 L1470 0 L1470 990 L1795 990 Z " />
<glyph glyph-name="ffl" unicode="&#xfb04;" horiz-adv-x="1906" d="M685 1362 L685 1133 Q638 1136 601 1136 Q526 1136 502.5 1119 Q479 1102 479 1050 L479 990 L812 990 L812 1035 Q812 1129 831 1185.5 Q850 1242 894 1284 Q985 1368 1192 1368 Q1239 1368 1343 1362 L1343 1133 Q1296 1136 1259 1136 Q1184 1136 1160.5 1119 Q1137 1102 1137 1050 L1137 990 L1331 990 L1331 776 L1137 776 L1137 0 L812 0 L812 776 L479 776 L479 0 L154 0 L154 776 L-3 776 L-3 990 L154 990 L154 1035 Q154 1129 173 1185.5 Q192 1242 236 1284 Q327 1368 534 1368 Q580 1368 685 1362 Z M1795 1365 L1795 0 L1470 0 L1470 1365 L1795 1365 Z " />
</font>
</svg>
