<?xml version="1.0" encoding="UTF-8"?>
<svg xmlns="http://www.w3.org/2000/svg" xmlns:xlink="http://www.w3.org/1999/xlink" version="1.2" >
<font id="UHCSans-MediumItalic">
<font-face  font-family="UHC Sans" units-per-em="2048" ascent="1667" descent="-381" font-style="italic" font-weight="500" font-stretch="normal" slope="-12" cap-height="1365" x-height="990" underline-position="-200" underline-thickness="114" />
<missing-glyph  horiz-adv-x="512" d="M51 0 L51 1365 L461 1365 L461 0 L51 0 Z M410 51 L410 1314 L102 1314 L102 51 L410 51 Z " />
<glyph glyph-name="space" unicode="&#x20;" horiz-adv-x="512" d="" />
<glyph glyph-name="exclam" unicode="&#x21;" horiz-adv-x="582" d="M230 213 Q276 213 308.5 178.5 Q341 144 341 95 Q341 47 308 13 Q275 -21 229 -21 Q185 -21 152 14 Q119 49 119 97 Q119 144 152 178.5 Q185 213 230 213 Z M588 1365 L497 940 L325 338 L238 338 L318 940 L409 1365 L588 1365 Z " />
<glyph glyph-name="quotedbl" unicode="&#x22;" horiz-adv-x="669" d="M619 816 L540 816 L630 1365 L764 1365 L619 816 Z M270 816 L191 816 L280 1365 L414 1365 L270 816 Z " />
<glyph glyph-name="numbersign" unicode="&#x23;" horiz-adv-x="1092" d="M69 538 L269 538 L330 846 L154 846 L154 969 L355 969 L433 1367 L568 1367 L487 969 L803 969 L883 1367 L1016 1367 L936 969 L1109 969 L1109 846 L912 846 L850 538 L1027 538 L1027 415 L824 415 L742 0 L610 0 L692 415 L376 415 L293 0 L161 0 L244 415 L69 415 L69 538 Z M402 538 L719 538 L778 846 L462 846 L402 538 Z " />
<glyph glyph-name="dollar" unicode="&#x24;" horiz-adv-x="1092" d="M801 1537 L768 1383 Q885 1365 948 1318 Q1076 1225 1076 1056 Q1076 1045 1074 1015 L917 1015 Q920 1040 920 1049 Q920 1134 873 1187 Q826 1240 741 1252 L641 773 Q807 721 872 659 Q977 560 977 411 Q977 238 862 112 Q733 -28 501 -28 Q487 -28 474 -28 L440 -193 L351 -193 L385 -28 Q221 -5 134.5 93.5 Q48 192 48 357 Q48 381 50 415 L209 415 Q206 383 206 361 Q206 138 414 108 L526 647 Q515 651 510 653 Q409 686 372 704 Q335 722 297 757 Q201 843 201 981 Q201 1159 321 1273 Q380 1329 465.5 1360 Q551 1391 646 1391 Q655 1391 681 1390 L712 1537 L801 1537 Z M558 799 L654 1260 Q633 1263 626 1263 Q569 1263 506 1231.5 Q443 1200 410 1155 Q360 1087 360 1002 Q360 892 451 840 Q473 828 558 799 Z M610 625 L501 101 Q637 100 726 181 Q817 265 817 394 Q817 482 769.5 534.5 Q722 587 610 625 Z " />
<glyph glyph-name="percent" unicode="&#x25;" horiz-adv-x="1598" d="M526 1367 Q651 1367 721.5 1292 Q792 1217 792 1085 Q792 937 722 815 Q618 633 426 633 Q302 633 232 709 Q162 785 162 920 Q162 1008 190.5 1094.5 Q219 1181 268 1242 Q368 1367 526 1367 Z M375 -42 L225 -42 L1321 1383 L1468 1383 L375 -42 Z M521 1260 Q400 1260 340 1096 Q306 1003 306 911 Q306 842 329 800 Q363 740 436 740 Q506 740 562 807 Q602 855 625.5 930 Q649 1005 649 1083 Q649 1168 615.5 1214 Q582 1260 521 1260 Z M1262 707 Q1386 707 1457 631 Q1528 555 1528 422 Q1528 280 1457 155 Q1354 -27 1161 -27 Q1039 -27 968 48.5 Q897 124 897 255 Q897 450 1003 583 Q1101 707 1262 707 Z M1256 600 Q1136 600 1075 437 Q1041 345 1041 249 Q1041 168 1075.5 124 Q1110 80 1172 80 Q1241 80 1297 147 Q1337 193 1360.5 268.5 Q1384 344 1384 423 Q1384 600 1256 600 Z " />
<glyph glyph-name="ampersand" unicode="&#x26;" horiz-adv-x="1222" d="M1126 646 Q1111 549 1053.5 435.5 Q996 322 927 254 L1092 0 L905 0 L819 144 Q723 52 634.5 14 Q546 -24 430 -24 Q259 -24 156 76 Q54 176 54 323 Q54 436 105.5 516 Q157 596 280 676 Q331 709 429 762 Q368 863 346 923.5 Q324 984 324 1050 Q324 1157 380 1239 Q469 1371 657 1371 Q809 1371 895 1282 Q965 1209 965 1103 Q965 993 894.5 911.5 Q824 830 636 723 L844 381 Q939 492 969 646 L1126 646 Z M565 833 Q663 883 710 921 Q766 967 789.5 1006.5 Q813 1046 813 1095 Q813 1157 771 1196 Q727 1237 655 1237 Q582 1237 534 1194 Q477 1143 477 1060 Q477 1015 495 968.5 Q513 922 565 833 Z M506 651 Q406 598 349 556 Q214 458 214 331 Q214 235 278.5 173.5 Q343 112 445 112 Q525 112 603 150.5 Q681 189 742 259 L506 651 Z " />
<glyph glyph-name="quotesingle" unicode="&#x27;" horiz-adv-x="319" d="M270 816 L191 816 L280 1365 L414 1365 L270 816 Z " />
<glyph glyph-name="parenleft" unicode="&#x28;" horiz-adv-x="606" d="M698 1365 Q625 1287 529.5 1140.5 Q434 994 375 870 Q234 574 234 220 Q234 72 263.5 -104.5 Q293 -281 334 -381 L227 -381 Q155 -219 113.5 -37.5 Q72 144 72 300 Q72 661 277 990 Q334 1083 420 1194 Q506 1305 565 1365 L698 1365 Z " />
<glyph glyph-name="parenright" unicode="&#x29;" horiz-adv-x="606" d="M-88 -381 Q-15 -302 81 -156 Q177 -10 236 114 Q377 410 377 764 Q377 911 347.5 1087.5 Q318 1264 277 1365 L383 1365 Q457 1201 498 1021 Q539 841 539 684 Q539 323 334 -6 Q277 -98 192 -208 Q107 -318 45 -381 L-88 -381 Z " />
<glyph glyph-name="asterisk" unicode="&#x2a;" horiz-adv-x="1092" d="M783 1354 L739 1147 L949 1171 L958 1076 L754 1051 L847 859 L754 815 L663 1013 L514 847 L444 916 L589 1076 L407 1171 L456 1257 L640 1163 L683 1365 L783 1354 Z " />
<glyph glyph-name="plus" unicode="&#x2b;" horiz-adv-x="1092" d="M142 734 L521 734 L521 1113 L651 1113 L651 734 L1029 734 L1029 604 L651 604 L651 225 L521 225 L521 604 L142 604 L142 734 Z " />
<glyph glyph-name="comma" unicode="&#x2c;" horiz-adv-x="511" d="M19 -156 Q75 -146 120 -103.5 Q165 -61 176 -5 Q168 -8 160 -8 L154 -8 Q109 -8 75.5 25 Q42 58 42 102 Q42 152 76 187.5 Q110 223 156 223 Q211 223 245.5 178.5 Q280 134 280 64 Q280 -45 197 -138 Q118 -227 -1 -247 L19 -156 Z " />
<glyph glyph-name="hyphen" unicode="&#x2d;" horiz-adv-x="464" d="M487 586 L453 429 L-11 429 L22 586 L487 586 Z " />
<glyph glyph-name="period" unicode="&#x2e;" horiz-adv-x="511" d="M177 223 Q223 223 255 188.5 Q287 154 287 104 Q287 57 254 23 Q221 -11 176 -11 Q130 -11 97.5 24.5 Q65 60 65 109 Q65 154 98.5 188.5 Q132 223 177 223 Z " />
<glyph glyph-name="slash" unicode="&#x2f;" horiz-adv-x="758" d="M874 1365 L-104 -381 L-242 -381 L736 1365 L874 1365 Z " />
<glyph glyph-name="zero" unicode="0" horiz-adv-x="1092" d="M689 1391 Q877 1391 972 1272 Q1067 1153 1067 919 Q1067 751 1023.5 574.5 Q980 398 905 263 Q745 -28 481 -28 Q290 -28 194 118 Q106 251 106 465 Q106 629 153.5 811.5 Q201 994 278 1127 Q352 1255 458 1323 Q564 1391 689 1391 Z M678 1247 Q512 1247 398 998 Q344 880 309.5 720.5 Q275 561 275 429 Q275 115 493 115 Q632 115 723 263 Q798 386 847.5 577 Q897 768 897 934 Q897 1102 842 1174 Q817 1206 771 1226.5 Q725 1247 678 1247 Z " />
<glyph glyph-name="one" unicode="1" horiz-adv-x="1092" d="M908 1395 L619 0 L447 0 L666 1061 Q527 1026 367 1026 Q342 1026 316 1028 L342 1153 Q490 1157 605.5 1220.5 Q721 1284 784 1395 L908 1395 Z " />
<glyph glyph-name="two" unicode="2" horiz-adv-x="1092" d="M936 146 L905 0 L36 0 Q49 207 205 368 Q262 427 332 476 Q402 525 585 634 Q717 713 794 790 Q886 883 886 1014 Q886 1119 826 1181 Q761 1248 651 1248 Q523 1248 442 1158.5 Q361 1069 348 913 L191 913 Q197 1057 269 1177 Q397 1390 660 1390 Q832 1390 936 1296 Q1051 1193 1051 1019 Q1051 902 999.5 808.5 Q948 715 834 626 Q769 576 587 466 Q267 278 227 145 Q256 146 358 146 L936 146 Z " />
<glyph glyph-name="three" unicode="3" horiz-adv-x="1092" d="M232 434 Q230 406 230 386 Q230 285 272 220 Q339 116 495 116 Q667 116 757 244 Q814 327 814 430 Q814 576 703 632 Q652 658 555 658 Q524 658 479 655 L508 793 Q539 792 565 792 Q730 792 804 856 Q885 927 885 1047 Q885 1114 850 1164 Q792 1247 659 1247 Q543 1247 465.5 1171.5 Q388 1096 368 963 L210 963 Q228 1101 306 1215 Q425 1390 669 1390 Q856 1390 964 1281 Q1054 1189 1054 1054 Q1054 932 991 848 Q928 764 810 726 Q892 694 938 619 Q984 544 984 443 Q984 367 956.5 285.5 Q929 204 884 146 Q820 65 716 18.5 Q612 -28 492 -28 Q375 -28 281 17 Q187 62 133 143 Q69 240 69 369 Q69 397 73 434 L232 434 Z " />
<glyph glyph-name="four" unicode="4" horiz-adv-x="1092" d="M1008 469 L979 334 L794 334 L724 0 L563 0 L632 334 L35 334 L67 486 L872 1395 L1014 1395 L822 469 L1008 469 Z M661 469 L747 881 Q772 1001 802 1124 Q738 1043 613 903 L293 543 Q265 511 219 466 Q242 467 323 469 L661 469 Z " />
<glyph glyph-name="five" unicode="5" horiz-adv-x="1092" d="M1052 1365 L1021 1219 L470 1219 L357 843 Q467 918 600 918 Q774 918 881 800 Q985 684 985 503 Q985 307 865 152 Q725 -27 477 -27 Q275 -27 167 85 Q65 189 65 361 Q65 366 65 375 L229 375 Q228 273 270 211 Q334 116 480 116 Q671 116 759 283 Q813 386 813 504 Q813 615 759 686 Q690 776 554 776 Q470 776 403.5 739.5 Q337 703 297 635 L153 643 L364 1365 L1052 1365 Z " />
<glyph glyph-name="six" unicode="6" horiz-adv-x="1092" d="M1091 1029 L927 1029 Q922 1126 891 1173 Q840 1251 725 1251 Q550 1251 440 1066 Q408 1012 388 961.5 Q368 911 316 755 Q427 893 613 893 Q785 893 893 778 Q1001 663 1001 480 Q1001 273 872 123 Q741 -29 525 -29 Q295 -29 190 131 Q108 257 108 458 Q108 610 151.5 785 Q195 960 264 1089 Q427 1391 728 1391 Q892 1391 986 1308 Q1092 1214 1092 1047 Q1092 1043 1091 1029 Z M570 752 Q464 752 387 681 Q336 635 306.5 559 Q277 483 277 400 Q277 268 347 189.5 Q417 111 535 111 Q680 111 762 239 Q828 340 828 477 Q828 617 751 690 Q724 716 671 734 Q618 752 570 752 Z " />
<glyph glyph-name="seven" unicode="7" horiz-adv-x="1092" d="M1155 1365 L1125 1223 Q1034 1133 923.5 986 Q813 839 732 701 Q531 358 422 0 L236 0 Q329 332 565 709 Q649 843 757.5 983 Q866 1123 951 1207 Q923 1208 897 1208 L818 1207 L243 1207 L276 1365 L1155 1365 Z " />
<glyph glyph-name="eight" unicode="8" horiz-adv-x="1092" d="M787 728 Q852 699 895 650 Q980 554 980 412 Q980 315 935.5 222 Q891 129 815 68 Q695 -28 506 -28 Q339 -28 226 56 Q78 166 78 376 Q78 524 165 625 Q252 726 404 754 Q318 807 280 870 Q242 933 242 1024 Q242 1189 363 1295 Q471 1391 640 1391 Q748 1391 834.5 1352 Q921 1313 972 1240 Q1031 1157 1031 1048 Q1031 930 963.5 841.5 Q896 753 787 728 Z M645 1251 Q535 1251 469.5 1185 Q404 1119 404 1008 Q404 928 449 873 Q510 798 632 798 Q719 798 778 844 Q864 909 864 1034 Q864 1136 806 1193.5 Q748 1251 645 1251 Z M549 666 Q403 666 321 571 Q252 491 252 369 Q252 273 303 205 Q373 112 512 112 Q632 112 709 181 Q807 267 807 415 Q807 533 739 599.5 Q671 666 549 666 Z " />
<glyph glyph-name="nine" unicode="9" horiz-adv-x="1092" d="M96 337 L253 337 Q253 327 253 323 Q253 226 313.5 169 Q374 112 477 112 Q648 112 750 294 Q782 351 803.5 417.5 Q825 484 860 631 Q745 476 552 476 Q388 476 279 589 Q173 698 173 880 Q173 1090 300 1237 Q364 1311 455.5 1351.5 Q547 1392 650 1392 Q807 1392 912 1306 Q1055 1188 1055 909 Q1055 757 1017.5 581.5 Q980 406 922 285 Q841 119 728 41 Q627 -28 472 -28 Q240 -28 143 132 Q96 211 96 337 Z M651 1251 Q498 1251 412 1125 Q339 1017 339 879 Q339 759 405.5 687.5 Q472 616 585 616 Q664 616 730 658 Q813 709 854 815 Q884 892 884 979 Q884 1083 842 1153 Q784 1251 651 1251 Z " />
<glyph glyph-name="colon" unicode="&#x3a;" horiz-adv-x="545" d="M211 223 Q257 223 289 188.5 Q321 154 321 104 Q321 57 288 23 Q255 -11 210 -11 Q164 -11 131.5 24.5 Q99 60 99 109 Q99 154 132.5 188.5 Q166 223 211 223 Z M372 981 Q418 981 450 946.5 Q482 912 482 862 Q482 815 449 781 Q416 747 371 747 Q325 747 292.5 782.5 Q260 818 260 867 Q260 912 293.5 946.5 Q327 981 372 981 Z " />
<glyph glyph-name="semicolon" unicode="&#x3b;" horiz-adv-x="545" d="M56 -156 Q112 -146 157 -103.5 Q202 -61 213 -5 Q205 -8 197 -8 L191 -8 Q146 -8 112.5 25 Q79 58 79 102 Q79 152 113 187.5 Q147 223 193 223 Q248 223 282.5 178.5 Q317 134 317 64 Q317 -45 234 -138 Q155 -227 36 -247 L56 -156 Z M373 981 Q419 981 451 946.5 Q483 912 483 862 Q483 815 450 781 Q417 747 372 747 Q326 747 293.5 782.5 Q261 818 261 867 Q261 912 294.5 946.5 Q328 981 373 981 Z " />
<glyph glyph-name="less" unicode="&#x3c;" horiz-adv-x="1024" d="M998 1188 L998 1010 L300 686 L997 362 L998 186 L111 611 L111 763 L998 1188 Z " />
<glyph glyph-name="equal" unicode="&#x3d;" horiz-adv-x="1092" d="M144 580 L1032 580 L1034 450 L147 450 L144 580 Z M138 887 L1025 887 L1028 757 L141 757 L138 887 Z " />
<glyph glyph-name="greater" unicode="&#x3e;" horiz-adv-x="1024" d="M112 186 L112 363 L810 687 L113 1012 L112 1188 L999 763 L999 610 L112 186 Z " />
<glyph glyph-name="question" unicode="&#x3f;" horiz-adv-x="1028" d="M438 213 Q484 213 516.5 178.5 Q549 144 549 95 Q549 47 516 13 Q483 -21 437 -21 Q393 -21 360 14 Q327 49 327 97 Q327 144 360.5 178.5 Q394 213 438 213 Z M569 350 L411 350 Q432 486 490 576 Q522 626 558.5 658.5 Q595 691 706 770 Q804 839 847 902.5 Q890 966 890 1040 Q890 1132 834 1185 Q773 1244 664 1244 Q512 1244 426 1120 Q383 1058 360 938 L201 938 Q216 1074 271 1167 Q398 1385 672 1385 Q848 1385 951 1297 Q1060 1205 1060 1055 Q1060 931 990 832 Q936 756 759 629 Q664 562 631 513 Q598 464 569 350 Z " />
<glyph glyph-name="at" unicode="&#x40;" horiz-adv-x="1801" d="M1010 246 Q901 134 728 134 Q593 134 514.5 204.5 Q436 275 436 397 Q436 496 494 569 Q545 635 639 662.5 Q733 690 941 702 Q1030 707 1062 727 Q1109 756 1109 837 Q1109 875 1100 895.5 Q1091 916 1066 930 Q1027 953 952 953 Q800 953 741 866 Q722 839 709 779 L706 760 L549 760 Q566 864 593 913 Q691 1093 945 1093 Q1075 1093 1164 1042 Q1266 984 1266 874 Q1266 820 1246 730 L1173 398 Q1155 317 1155 299 Q1155 295 1157 288 Q1191 277 1233 277 Q1418 277 1509 435 Q1574 549 1574 685 Q1574 826 1502 948 Q1377 1159 1117 1218 Q1022 1239 920 1239 Q712 1239 539 1146 Q366 1053 264 871 Q175 713 175 532 Q175 393 228 270 Q367 -56 838 -56 Q1059 -56 1277 19 L1326 -116 Q1311 -121 1291 -129 Q1090 -202 832 -202 Q405 -202 192 51 Q97 163 55 326 Q29 427 29 532 Q29 864 261 1113 Q408 1272 629 1341 Q769 1385 922 1385 Q1217 1385 1429 1240 Q1611 1116 1687 911 Q1729 798 1729 678 Q1729 462 1606 306 Q1473 137 1225 137 Q1121 137 1073 161 Q1025 185 1010 246 Z M1060 595 Q1005 578 906 572 Q731 561 662 524.5 Q593 488 593 405 Q593 274 758 274 Q985 274 1039 505 L1060 595 Z " />
<glyph glyph-name="A" unicode="A" horiz-adv-x="1296" d="M938 1365 L1182 0 L995 0 L930 418 L357 418 L114 0 L-90 0 L735 1365 L938 1365 Z M806 1211 Q717 1040 587 818 L439 565 L908 565 L855 893 Q817 1114 806 1211 Z " />
<glyph glyph-name="B" unicode="B" horiz-adv-x="1315" d="M345 1365 L783 1365 Q926 1365 995.5 1356 Q1065 1347 1120 1321 Q1194 1285 1234.5 1215 Q1275 1145 1275 1051 Q1275 918 1206.5 829 Q1138 740 1013 713 Q1078 694 1123 655 Q1218 573 1218 435 Q1218 298 1137 184 Q1035 39 846 10 Q776 0 607 0 L55 0 L345 1365 Z M488 1212 L395 776 L727 776 Q836 776 895 787 Q954 798 992 825 Q1039 857 1067 912.5 Q1095 968 1095 1029 Q1095 1147 993 1190 Q942 1212 789 1212 L488 1212 Z M365 638 L262 153 L593 153 Q824 153 905 198 Q966 232 1002 294.5 Q1038 357 1038 428 Q1038 558 932 610 Q896 628 853.5 633 Q811 638 687 638 L365 638 Z " />
<glyph glyph-name="C" unicode="C" horiz-adv-x="1380" d="M1308 464 Q1270 298 1167 175 Q996 -30 689 -30 Q422 -30 274 132 Q128 291 128 564 Q128 720 180 874 Q232 1028 322 1139 Q530 1396 875 1396 Q1125 1396 1267 1249 Q1381 1131 1381 955 Q1381 946 1380 927 L1205 927 Q1198 1075 1129 1149 Q1040 1245 851 1245 Q676 1245 544 1134 Q424 1033 357 854 Q304 710 304 562 Q304 367 392 257 Q503 120 694 120 Q858 120 969.5 209 Q1081 298 1124 464 L1308 464 Z " />
<glyph glyph-name="D" unicode="D" horiz-adv-x="1365" d="M345 1365 L667 1365 Q889 1365 970 1344 Q1169 1294 1262 1117 Q1328 989 1328 819 Q1328 662 1274 508 Q1220 354 1126 242 Q998 90 817 36 Q746 15 670.5 7.5 Q595 0 449 0 L55 0 L345 1365 Z M488 1212 L262 153 L488 153 Q704 153 799 194 Q1010 285 1104 550 Q1153 687 1153 820 Q1153 1082 979 1170 Q898 1212 718 1212 L488 1212 Z " />
<glyph glyph-name="E" unicode="E" horiz-adv-x="1195" d="M1290 1365 L1257 1212 L488 1212 L395 776 L1113 776 L1082 629 L363 629 L262 153 L1042 153 L1009 0 L55 0 L345 1365 L1290 1365 Z " />
<glyph glyph-name="F" unicode="F" horiz-adv-x="1097" d="M1242 1365 L1210 1212 L488 1212 L395 777 L1033 777 L1001 630 L364 630 L230 0 L55 0 L345 1365 L1242 1365 Z " />
<glyph glyph-name="G" unicode="G" horiz-adv-x="1467" d="M1392 726 L1237 0 L1123 0 L1119 89 Q1117 129 1116 149 Q1035 55 932.5 12 Q830 -31 688 -31 Q422 -31 274.5 124.5 Q127 280 127 560 Q127 789 217 980 Q313 1181 485 1288.5 Q657 1396 884 1396 Q1148 1396 1290 1259 Q1414 1139 1419 949 L1241 949 Q1231 1066 1179 1129 Q1084 1245 878 1245 Q631 1245 470 1060 Q389 967 344 819 Q304 689 304 557 Q304 341 425 222 Q529 120 710 120 Q905 120 1023.5 231 Q1142 342 1200 579 L763 579 L795 726 L1392 726 Z " />
<glyph glyph-name="H" unicode="H" horiz-adv-x="1387" d="M1418 1365 L1128 0 L953 0 L1088 635 L365 635 L230 0 L55 0 L345 1365 L520 1365 L397 788 L1121 788 L1243 1365 L1418 1365 Z " />
<glyph glyph-name="I" unicode="I" horiz-adv-x="489" d="M520 1365 L230 0 L55 0 L345 1365 L520 1365 Z " />
<glyph glyph-name="J" unicode="J" horiz-adv-x="957" d="M1008 1365 L819 474 Q787 323 763 248 Q739 173 706 124 Q603 -33 369 -33 Q163 -33 69 79 Q0 161 0 291 Q0 360 17 448 L191 448 Q173 344 173 301 Q173 120 370 120 Q487 120 553 199 Q597 252 639 448 L834 1365 L1008 1365 Z " />
<glyph glyph-name="K" unicode="K" horiz-adv-x="1272" d="M1402 1365 L743 805 L1185 0 L982 0 L609 695 L328 462 L230 0 L55 0 L345 1365 L520 1365 L375 683 Q410 715 514 805 L584 866 L1159 1365 L1402 1365 Z " />
<glyph glyph-name="L" unicode="L" horiz-adv-x="1104" d="M520 1365 L262 153 L994 153 L962 0 L55 0 L345 1365 L520 1365 Z " />
<glyph glyph-name="M" unicode="M" horiz-adv-x="1681" d="M1712 1365 L1422 0 L1247 0 L1374 597 Q1428 852 1529 1214 Q1448 1058 1314 830 L823 0 L667 0 L517 877 Q502 961 468 1214 Q413 862 353 580 L230 0 L55 0 L345 1365 L594 1365 L732 508 Q765 309 776 175 Q828 283 915 432 L1458 1365 L1712 1365 Z " />
<glyph glyph-name="N" unicode="N" horiz-adv-x="1408" d="M1439 1365 L1149 0 L946 0 L561 905 Q493 1066 464 1165 Q449 1030 395 777 L230 0 L55 0 L345 1365 L542 1365 L926 462 Q989 312 1029 189 Q1069 449 1112 649 L1264 1365 L1439 1365 Z " />
<glyph glyph-name="O" unicode="O" horiz-adv-x="1490" d="M876 1395 Q1086 1395 1233 1288 Q1448 1131 1448 809 Q1448 467 1250 223 Q1044 -31 703 -31 Q383 -31 231 195 Q128 347 128 569 Q128 827 251 1042 Q347 1212 509.5 1303.5 Q672 1395 876 1395 Z M867 1245 Q640 1245 490 1084 Q404 993 355.5 856 Q307 719 307 569 Q307 395 382 284 Q494 119 717 119 Q940 119 1094 293 Q1189 402 1232 549 Q1271 684 1271 813 Q1271 1000 1171 1121 Q1068 1245 867 1245 Z " />
<glyph glyph-name="P" unicode="P" horiz-adv-x="1232" d="M345 1365 L810 1365 Q1024 1365 1114 1312 Q1274 1216 1274 1010 Q1274 856 1190 736 Q1094 600 930 576 Q845 563 695 563 L349 563 L230 0 L55 0 L345 1365 Z M488 1212 L381 710 L693 710 Q821 710 880 720.5 Q939 731 981 761 Q1033 798 1063.5 860 Q1094 922 1094 990 Q1094 1117 1007 1174 Q947 1212 751 1212 L488 1212 Z " />
<glyph glyph-name="Q" unicode="Q" horiz-adv-x="1504" d="M1328 -31 L1223 -137 L1032 47 Q887 -31 695 -31 Q434 -31 284 130 Q129 298 129 568 Q129 814 238 1016 Q344 1210 536 1311 Q697 1395 879 1395 Q1129 1395 1285 1245 Q1449 1087 1449 802 Q1449 601 1372 423 Q1295 245 1159 133 L1328 -31 Z M889 391 L1042 244 Q1146 336 1206 486 Q1266 636 1266 804 Q1266 974 1193 1086 Q1088 1245 872 1245 Q724 1245 598 1167 Q439 1069 362 869 Q308 727 308 572 Q308 379 399 260 Q507 120 715 120 Q817 120 913 160 L785 283 L889 391 Z " />
<glyph glyph-name="R" unicode="R" horiz-adv-x="1356" d="M341 1365 L853 1365 Q972 1365 1036.5 1354.5 Q1101 1344 1151 1317 Q1312 1231 1312 1024 Q1312 879 1233 782 Q1154 685 1008 651 Q1082 618 1114 566 Q1146 514 1146 425 Q1146 370 1131 222 Q1125 156 1125 114 Q1125 44 1149 0 L962 0 Q946 35 946 105 Q946 142 957 236 Q972 360 972 421 Q972 521 920.5 555.5 Q869 590 722 590 L351 590 L226 0 L51 0 L341 1365 Z M484 1212 L383 737 L756 737 Q857 737 919.5 748.5 Q982 760 1020 786 Q1070 821 1099 879.5 Q1128 938 1128 1004 Q1128 1123 1042 1177 Q988 1212 833 1212 L484 1212 Z " />
<glyph glyph-name="S" unicode="S" horiz-adv-x="1209" d="M1177 969 L1006 969 Q1005 1097 951 1156 Q870 1243 687 1243 Q534 1243 452 1179 Q369 1115 369 1013 Q369 925 434 875.5 Q499 826 673 783 Q866 735 949 684 Q1102 591 1102 396 Q1102 223 972 103 Q830 -27 567 -27 Q323 -27 186 85 Q45 200 45 423 Q45 432 45 453 L219 453 Q219 439 219 436 Q219 276 299 203 Q388 123 572 123 Q768 123 863 226 Q927 295 927 386 Q927 484 859 538 Q804 581 629 626 Q506 657 448 678.5 Q390 700 339 733 Q199 823 199 1003 Q199 1094 240.5 1173 Q282 1252 356 1304 Q484 1393 693 1393 Q884 1393 1004 1320 Q1095 1265 1136.5 1187.5 Q1178 1110 1178 993 Q1178 989 1177 969 Z " />
<glyph glyph-name="T" unicode="T" horiz-adv-x="1164" d="M1322 1365 L1289 1212 L827 1212 L569 0 L394 0 L652 1212 L185 1212 L217 1365 L1322 1365 Z " />
<glyph glyph-name="U" unicode="U" horiz-adv-x="1367" d="M1418 1365 L1244 546 Q1210 387 1181.5 307 Q1153 227 1108 165 Q967 -29 640 -29 Q422 -29 291 60 Q131 170 131 378 Q131 454 158 583 L325 1365 L499 1365 L330 568 Q304 446 304 385 Q304 251 401 185 Q491 123 636 123 Q880 123 978 270 Q1005 313 1025.5 375.5 Q1046 438 1073 562 L1243 1365 L1418 1365 Z " />
<glyph glyph-name="V" unicode="V" horiz-adv-x="1197" d="M1373 1365 L603 0 L397 0 L200 1365 L387 1365 L490 523 Q510 361 525 203 L529 163 L548 200 Q644 387 695 477 L1180 1365 L1373 1365 Z " />
<glyph glyph-name="W" unicode="W" horiz-adv-x="1773" d="M1940 1365 L1316 0 L1123 0 L1059 860 Q1043 1130 1040 1196 Q965 1013 858 783 L493 0 L299 0 L209 1365 L388 1365 L422 666 Q437 334 437 275 Q437 250 435 187 Q474 294 640 649 L972 1365 L1174 1365 L1224 722 Q1251 368 1253 203 Q1327 396 1468 715 L1754 1365 L1940 1365 Z " />
<glyph glyph-name="X" unicode="X" horiz-adv-x="1173" d="M1281 1365 L719 689 L1065 0 L877 0 L763 233 Q659 444 601 578 Q541 501 493 443 L133 0 L-78 0 L519 715 L192 1365 L386 1365 L528 1072 Q597 928 638 827 L656 849 L747 959 L870 1113 L1074 1365 L1281 1365 Z " />
<glyph glyph-name="Y" unicode="Y" horiz-adv-x="1158" d="M1366 1365 L700 543 L584 0 L410 0 L528 558 L168 1365 L361 1365 L550 918 Q617 759 637 705 Q692 783 771 882 L1154 1365 L1366 1365 Z " />
<glyph glyph-name="Z" unicode="Z" horiz-adv-x="1193" d="M1266 1365 L1235 1218 L331 279 Q255 200 200 148 Q273 153 407 153 L1074 153 L1042 0 L-48 0 L-17 147 L851 1047 Q922 1121 1015 1212 Q990 1213 982 1213 L886 1212 L233 1212 L266 1365 L1266 1365 Z " />
<glyph glyph-name="bracketleft" unicode="&#x5b;" horiz-adv-x="606" d="M696 1365 L669 1239 L464 1239 L147 -255 L352 -255 L325 -381 L-36 -381 L335 1365 L696 1365 Z " />
<glyph glyph-name="backslash" unicode="&#x5c;" horiz-adv-x="744" d="M260 1365 L385 1365 L624 -381 L500 -381 L260 1365 Z " />
<glyph glyph-name="bracketright" unicode="&#x5d;" horiz-adv-x="606" d="M-86 -381 L-59 -255 L146 -255 L463 1239 L258 1239 L285 1365 L646 1365 L275 -381 L-86 -381 Z " />
<glyph glyph-name="asciicircum" unicode="&#x5e;" horiz-adv-x="1024" d="M268 760 L103 760 L454 1369 L655 1369 L1006 760 L840 760 L553 1248 L268 760 Z " />
<glyph glyph-name="underscore" unicode="&#x5f;" horiz-adv-x="1024" d="M43 -143 L1067 -143 L1067 -257 L43 -257 L43 -143 Z " />
<glyph glyph-name="grave" unicode="&#x60;" horiz-adv-x="1024" d="M747 1133 L638 1133 L439 1410 L624 1410 L747 1133 Z " />
<glyph glyph-name="a" unicode="a" horiz-adv-x="1035" d="M909 111 L887 -10 Q820 -23 777 -23 Q714 -23 686 8 Q675 19 664.5 43 Q654 67 654 78 L655 101 L654 106 L655 109 Q656 115 657 117 L653 121 Q589 42 518 12 Q435 -23 326 -23 Q178 -23 98.5 49.5 Q19 122 19 257 Q19 426 145 498 Q215 538 270 549 Q325 560 583 587 Q678 597 718 621 Q768 652 768 727 Q768 869 569 869 Q456 869 388.5 824 Q321 779 302 692 L140 692 Q171 856 291 938 Q403 1013 578 1013 Q731 1013 821 960 Q930 897 930 770 Q930 708 911 628 L823 253 Q810 196 810 158 Q810 108 871 108 Q888 108 909 111 Z M720 506 Q671 479 633 470.5 Q595 462 443 445 Q304 429 243 385 Q182 341 182 257 Q182 195 232 158 Q282 121 366 121 Q463 121 538 161 Q613 201 653 274 Q684 330 724 506 L720 506 Z " />
<glyph glyph-name="b" unicode="b" horiz-adv-x="1154" d="M492 1365 L386 867 Q518 1019 702 1019 Q845 1019 942 941 Q1083 828 1083 598 Q1083 461 1036.5 337 Q990 213 904 122 Q830 43 749 7.5 Q668 -28 563 -28 Q402 -28 315 51 Q246 113 230 184 L191 0 L41 0 L331 1365 L492 1365 Z M664 881 Q571 881 493.5 830.5 Q416 780 366 688 Q333 626 310.5 535 Q288 444 288 373 Q288 283 330 216 Q398 107 545 107 Q673 107 770 202 Q840 272 880.5 375.5 Q921 479 921 592 Q921 730 854 805.5 Q787 881 664 881 Z " />
<glyph glyph-name="c" unicode="c" horiz-adv-x="1030" d="M936 324 Q890 158 768.5 65 Q647 -28 477 -28 Q262 -28 157 108 Q72 218 72 388 Q72 492 105 602.5 Q138 713 193 792 Q349 1017 628 1017 Q811 1017 907 920 Q995 832 995 697 Q995 693 994 676 L832 676 Q832 684 832 686 Q832 782 775.5 832 Q719 882 611 882 Q459 882 355 756 Q302 691 270 592 Q238 493 238 392 Q238 267 290 196 Q354 108 486 108 Q689 108 767 324 L936 324 Z " />
<glyph glyph-name="d" unicode="d" horiz-adv-x="1152" d="M1196 1365 L906 0 L756 0 L787 146 Q738 62 651 17 Q564 -28 451 -28 Q265 -28 168 75 Q67 182 67 366 Q67 596 192 782 Q350 1017 622 1017 Q739 1017 817 971 Q895 925 923 840 L1035 1365 L1196 1365 Z M628 882 Q434 882 324 707 Q284 642 260 551.5 Q236 461 236 373 Q236 233 314 165 Q379 108 482 108 Q671 108 782 299 Q821 366 846 460 Q871 554 871 632 Q871 757 794 826 Q730 882 628 882 Z " />
<glyph glyph-name="e" unicode="e" horiz-adv-x="1064" d="M942 311 Q919 213 849 128 Q721 -27 490 -27 Q264 -27 156 118 Q73 229 73 395 Q73 496 103.5 601.5 Q134 707 187 785 Q260 895 370.5 956 Q481 1017 606 1017 Q789 1017 893 907.5 Q997 798 997 605 Q997 538 984 448 L241 448 Q236 411 236 381 Q236 272 286 204 Q357 107 497 107 Q704 107 775 311 L942 311 Z M263 581 L839 581 Q839 597 839 611 Q839 727 795 791 Q733 882 599 882 Q477 882 388.5 802.5 Q300 723 263 581 Z " />
<glyph glyph-name="f" unicode="f" horiz-adv-x="578" d="M643 990 L615 857 L418 857 L236 0 L75 0 L257 857 L91 857 L119 990 L285 990 L293 1026 Q324 1161 335.5 1198 Q347 1235 367 1267 Q440 1383 617 1383 Q685 1383 747 1366 L720 1229 Q680 1241 639 1241 Q556 1241 519.5 1201 Q483 1161 457 1042 L447 990 L643 990 Z " />
<glyph glyph-name="g" unicode="g" horiz-adv-x="1138" d="M1102 990 L925 157 Q892 1 867 -74.5 Q842 -150 803 -211 Q676 -407 387 -407 Q193 -407 87 -313 Q-9 -227 -9 -109 Q-9 -105 -9 -98 L157 -98 Q178 -279 399 -279 Q565 -279 650 -175 Q674 -145 701.5 -75.5 Q729 -6 744 62 L761 145 Q652 -10 446 -10 Q312 -10 215 67 Q74 179 74 387 Q74 510 117 635.5 Q160 761 232 846 Q375 1017 595 1017 Q712 1017 794.5 963.5 Q877 910 914 810 L952 990 L1102 990 Z M595 883 Q492 883 410 816 Q305 729 259 557 Q236 469 236 395 Q236 254 319 183 Q384 128 483 128 Q657 128 761 301 Q798 363 820.5 450.5 Q843 538 843 622 Q843 742 776 812.5 Q709 883 595 883 Z " />
<glyph glyph-name="h" unicode="h" horiz-adv-x="1104" d="M492 1365 L381 841 Q465 936 546 977 Q627 1018 730 1018 Q858 1018 936 949.5 Q1014 881 1014 769 Q1014 704 991 594 L864 0 L703 0 L827 581 Q848 681 848 731 Q848 883 680 883 Q603 883 529 844.5 Q455 806 403 740 Q343 663 313 521 L202 0 L41 0 L331 1365 L492 1365 Z " />
<glyph glyph-name="i" unicode="i" horiz-adv-x="449" d="M413 990 L202 0 L41 0 L251 990 L413 990 Z M391 1383 Q437 1383 469.5 1348.5 Q502 1314 502 1265 Q502 1217 469 1183 Q436 1149 390 1149 Q346 1149 313 1184 Q280 1219 280 1267 Q280 1314 313.5 1348.5 Q347 1383 391 1383 Z " />
<glyph glyph-name="j" unicode="j" horiz-adv-x="428" d="M393 990 L185 13 L169 -59 Q130 -235 102 -290 Q46 -400 -106 -400 Q-152 -400 -204 -388 L-174 -251 Q-145 -265 -112 -265 Q-57 -265 -37.5 -226 Q-18 -187 24 15 L232 990 L393 990 Z M371 1383 Q417 1383 449.5 1348.5 Q482 1314 482 1265 Q482 1217 449 1183 Q416 1149 370 1149 Q326 1149 293 1184 Q260 1219 260 1267 Q260 1314 293.5 1348.5 Q327 1383 371 1383 Z " />
<glyph glyph-name="k" unicode="k" horiz-adv-x="971" d="M492 1365 L320 554 Q347 576 397 619 L828 989 L1047 989 L611 626 L857 0 L674 0 L482 525 L277 354 L202 0 L41 0 L331 1365 L492 1365 Z " />
<glyph glyph-name="l" unicode="l" horiz-adv-x="448" d="M492 1365 L202 0 L41 0 L331 1365 L492 1365 Z " />
<glyph glyph-name="m" unicode="m" horiz-adv-x="1668" d="M402 990 L369 837 Q414 912 515.5 965.5 Q617 1019 716 1019 Q817 1019 882 970 Q947 921 962 834 Q1115 1020 1316 1020 Q1425 1020 1501 966 Q1584 906 1584 803 Q1584 733 1555 596 L1428 0 L1267 0 L1392 587 Q1417 705 1417 757 Q1417 884 1266 884 Q1144 884 1044 780 Q994 728 970 673 Q946 618 920 492 L815 0 L654 0 L779 587 Q806 727 806 761 Q806 818 768.5 850.5 Q731 883 666 883 Q546 883 437 778 Q387 730 360.5 675 Q334 620 313 520 L202 0 L41 0 L251 990 L402 990 Z " />
<glyph glyph-name="n" unicode="n" horiz-adv-x="1104" d="M402 990 L368 832 Q422 915 521 966 Q620 1017 726 1017 Q831 1017 911 968 Q1016 904 1016 773 Q1016 714 991 597 L864 0 L703 0 L832 605 Q850 691 850 749 Q850 882 680 882 Q529 882 421 761 Q346 677 312 518 L202 0 L41 0 L251 990 L402 990 Z " />
<glyph glyph-name="o" unicode="o" horiz-adv-x="1115" d="M631 1019 Q840 1019 950 900 Q1046 795 1046 605 Q1046 486 1007 369.5 Q968 253 899 164 Q749 -29 501 -29 Q241 -29 139 149 Q78 256 78 397 Q78 524 122 644.5 Q166 765 243 848 Q400 1019 631 1019 Z M622 883 Q466 883 360 754 Q305 687 272 592 Q239 497 239 403 Q239 296 286 219 Q354 107 510 107 Q676 107 784 263 Q830 330 857 420.5 Q884 511 884 599 Q884 732 814 807.5 Q744 883 622 883 Z " />
<glyph glyph-name="p" unicode="p" horiz-adv-x="1153" d="M402 990 L372 850 Q415 924 508 971 Q601 1018 705 1018 Q865 1018 969 916 Q1082 806 1082 593 Q1082 379 975 207 Q827 -28 558 -28 Q432 -28 350 22 Q268 72 237 166 L121 -381 L-40 -381 L251 990 L402 990 Z M665 882 Q506 882 400 746 Q354 687 320 573 Q286 459 286 366 Q286 246 358 175 Q430 104 551 104 Q715 104 820 255 Q920 400 920 597 Q920 746 841 819 Q774 882 665 882 Z " />
<glyph glyph-name="q" unicode="q" horiz-adv-x="1155" d="M1119 990 L827 -381 L666 -381 L775 131 Q697 46 618.5 9 Q540 -28 438 -28 Q262 -28 168 75 Q67 186 67 367 Q67 489 109 613.5 Q151 738 222 825 Q378 1018 623 1018 Q742 1018 817.5 972 Q893 926 934 830 L968 990 L1119 990 Z M620 882 Q463 882 357 756 Q303 691 269 585.5 Q235 480 235 375 Q235 246 298 176.5 Q361 107 477 107 Q589 107 678 175 Q773 247 826 399 Q870 522 870 633 Q870 748 802.5 815 Q735 882 620 882 Z " />
<glyph glyph-name="r" unicode="r" horiz-adv-x="658" d="M774 1012 L737 839 Q705 844 671 844 Q522 844 418 724 Q361 658 329 563 Q308 500 295 440 L202 0 L41 0 L251 990 L402 990 L357 778 Q398 882 498.5 949 Q599 1016 713 1016 Q742 1016 774 1012 Z " />
<glyph glyph-name="s" unicode="s" horiz-adv-x="924" d="M868 702 L708 702 Q707 882 491 882 Q399 882 346 846 Q292 809 292 751 Q292 682 377 639 Q417 619 561 560 Q687 509 737 462 Q811 391 811 292 Q811 227 782.5 165 Q754 103 706 62 Q601 -28 406 -28 Q213 -28 111 60.5 Q9 149 9 315 L168 315 Q167 241 201 192 Q262 104 423 104 Q529 104 589 152 Q648 198 648 266 Q648 319 610 354 Q572 389 473 428 Q274 506 215 555 Q129 626 129 736 Q129 862 233.5 940 Q338 1018 506 1018 Q697 1018 790 922 Q868 841 868 714 Q868 710 868 702 Z " />
<glyph glyph-name="t" unicode="t" horiz-adv-x="596" d="M629 990 L601 857 L404 857 L289 314 Q275 249 275 211 Q275 166 291 149 Q313 127 368 127 Q408 127 467 142 L437 3 Q380 -8 319 -8 Q202 -8 154 32 Q102 75 102 151 Q102 193 128 314 L243 857 L74 857 L102 990 L271 990 L334 1282 L495 1282 L433 990 L629 990 Z " />
<glyph glyph-name="u" unicode="u" horiz-adv-x="1089" d="M1053 990 L842 0 L692 0 L724 152 Q666 67 578 20 Q490 -27 388 -27 Q278 -27 197 23 Q94 87 94 226 Q94 283 117 392 L244 990 L406 990 L296 476 Q258 288 258 246 Q258 107 437 107 Q572 107 672 223 Q747 310 781 470 L892 990 L1053 990 Z " />
<glyph glyph-name="v" unicode="v" horiz-adv-x="870" d="M977 990 L427 0 L250 0 L109 990 L282 990 L347 457 Q363 325 370 156 Q414 265 500 427 L800 990 L977 990 Z " />
<glyph glyph-name="w" unicode="w" horiz-adv-x="1403" d="M1502 990 L992 0 L817 0 L774 609 Q768 685 766 785 L696 623 L410 0 L236 0 L118 990 L291 990 L323 646 Q355 278 355 180 Q379 250 424 350 L713 990 L898 990 L937 459 Q949 295 949 241 Q949 212 949 187 Q997 312 1130 586 L1327 990 L1502 990 Z " />
<glyph glyph-name="x" unicode="x" horiz-adv-x="890" d="M967 990 L542 513 L794 0 L606 0 L482 283 Q441 376 427 407 L407 383 L348 313 L90 0 L-109 0 L357 526 L136 990 L323 990 L435 723 Q457 671 473 626 Q503 665 548 720 L770 990 L967 990 Z " />
<glyph glyph-name="y" unicode="y" horiz-adv-x="890" d="M997 990 L497 97 Q356 -155 289 -249 Q181 -400 23 -400 Q-26 -400 -94 -383 L-62 -243 Q4 -265 35 -265 Q89 -265 137 -219 Q161 -196 228 -90 Q284 -11 284 -3 Q284 -1 284 1 L109 990 L284 990 L346 582 Q390 299 401 190 Q446 290 554 493 L819 990 L997 990 Z " />
<glyph glyph-name="z" unicode="z" horiz-adv-x="877" d="M912 990 L887 875 L310 263 Q232 180 172 127 Q257 133 437 133 L782 133 L754 0 L-55 0 L-29 120 L544 727 L672 857 L570 857 L400 857 L127 857 L155 990 L912 990 Z " />
<glyph glyph-name="braceleft" unicode="&#x7b;" horiz-adv-x="601" d="M190 491 Q231 465 247.5 434 Q264 403 264 353 Q264 310 252 253 L190 -36 Q173 -117 173 -163 Q173 -212 210 -231.5 Q247 -251 340 -253 L312 -381 L299 -381 Q142 -381 90 -348 Q11 -298 11 -192 Q11 -148 26 -77 L92 231 Q102 281 102 315 Q102 399 16 426 L45 562 Q113 581 148.5 623.5 Q184 666 202 750 L273 1087 Q305 1233 385 1299 Q433 1338 491 1351.5 Q549 1365 671 1365 L684 1365 L656 1237 Q542 1233 491.5 1188 Q441 1143 415 1020 L352 723 Q331 627 296 576 Q261 525 190 491 Z " />
<glyph glyph-name="bar" unicode="&#x7c;" horiz-adv-x="1024" d="M466 1365 L644 1365 L644 -341 L466 -341 L466 1365 Z " />
<glyph glyph-name="braceright" unicode="&#x7d;" horiz-adv-x="601" d="M416 494 Q375 519 358.5 550 Q342 581 342 631 Q342 676 354 731 L415 1020 Q433 1104 433 1147 Q433 1195 396 1215 Q359 1235 266 1237 L293 1365 L307 1365 Q464 1365 516 1332 Q595 1282 595 1176 Q595 1134 580 1061 L514 753 Q504 706 504 669 Q504 585 590 558 L561 422 Q493 403 457 360.5 Q421 318 404 234 L332 -103 Q301 -250 221 -315 Q173 -354 114.5 -367.5 Q56 -381 -65 -381 L-78 -381 L-51 -253 Q64 -249 114.5 -204 Q165 -159 191 -36 L254 261 Q274 357 309.5 408 Q345 459 416 494 Z " />
<glyph glyph-name="asciitilde" unicode="&#x7e;" horiz-adv-x="1365" d="M329 1181 L236 1255 Q342 1491 517 1491 Q593 1491 753 1412 Q838 1371 872.5 1358.5 Q907 1346 940 1346 Q1041 1346 1124 1496 L1218 1422 Q1114 1188 920 1188 Q880 1188 838.5 1203.5 Q797 1219 676 1278 Q568 1331 510 1331 Q458 1331 416.5 1296.5 Q375 1262 329 1181 Z " />
<glyph glyph-name="nbspace" unicode="&#xa0;" horiz-adv-x="512" d="" />
<glyph glyph-name="exclamdown" unicode="&#xa1;" horiz-adv-x="582" d="M360 1012 Q405 1012 437.5 977.5 Q470 943 470 894 Q470 846 437 812 Q404 778 358 778 Q314 778 281 813 Q248 848 248 896 Q248 943 281.5 977.5 Q315 1012 360 1012 Z M1 -375 L91 50 L264 652 L351 652 L270 50 L180 -375 L1 -375 Z " />
<glyph glyph-name="cent" unicode="&#xa2;" horiz-adv-x="1092" d="M1065 861 L903 861 Q901 1044 730 1065 L565 292 Q660 294 732 351 Q804 408 838 508 L1007 508 Q991 443 948.5 376.5 Q906 310 849 262 Q784 208 712.5 184.5 Q641 161 537 159 L495 -39 L412 -39 L454 159 Q310 187 233 281 Q142 391 142 565 Q142 705 190 832 Q238 959 325 1049 Q394 1119 485.5 1159 Q577 1199 675 1201 L712 1377 L796 1377 L759 1201 Q913 1180 990 1088 Q1064 999 1065 861 Z M646 1064 Q526 1054 435 950 Q377 884 341 779.5 Q305 675 305 573 Q305 347 483 299 L646 1064 Z " />
<glyph glyph-name="sterling" unicode="&#xa3;" horiz-adv-x="1092" d="M724 712 L706 631 L446 631 Q461 552 461 499 Q461 412 427 347.5 Q393 283 304 203 Q283 184 221 132 Q348 188 429 188 Q479 188 563 163 Q662 134 688.5 128 Q715 122 749 122 Q793 122 822.5 133.5 Q852 145 940 199 L1000 60 Q862 -33 734 -33 Q667 -33 530 17 Q420 57 352 57 Q302 57 271 45.5 Q240 34 122 -28 L66 118 Q193 217 250 303 Q307 389 307 481 Q307 547 281 631 L122 631 L140 712 L260 712 Q218 841 218 957 Q218 1086 295 1202 Q359 1297 464 1346 Q560 1390 677 1390 Q906 1390 1023 1227 Q1097 1124 1097 987 Q1097 965 1095 939 L931 939 Q933 966 933 974 Q933 1097 871 1166 Q804 1241 677 1241 Q519 1241 435 1119 Q384 1043 384 937 Q384 825 424 712 L724 712 Z " />
<glyph glyph-name="currency" unicode="&#xa4;" horiz-adv-x="1365" d="M219 290 L332 402 Q275 483 251.5 550.5 Q228 618 228 706 Q228 799 252 868.5 Q276 938 334 1013 L218 1128 L305 1217 L422 1101 Q565 1212 734 1212 Q819 1212 890 1187.5 Q961 1163 1038 1106 L1152 1217 L1238 1128 L1125 1018 Q1185 941 1207 880 Q1237 797 1237 707 Q1237 616 1213 547.5 Q1189 479 1130 402 L1243 290 L1157 202 L1044 314 Q970 256 909 234 Q821 202 731 202 Q642 202 570 228 Q498 254 420 314 L305 202 L219 290 Z M741 1073 Q572 1073 462 952 Q367 847 367 709 Q367 543 489 433 Q593 339 735 339 Q898 339 1008 460 Q1102 565 1102 706 Q1102 867 980 979 Q877 1073 741 1073 Z " />
<glyph glyph-name="yen" unicode="&#xa5;" horiz-adv-x="1092" d="M433 336 L120 336 L145 452 L457 452 L477 546 L434 673 L149 673 L174 789 L394 789 L200 1365 L376 1365 L518 899 L533 846 Q574 717 581 692 Q634 778 692 863 L1028 1365 L1222 1365 L822 789 L1042 789 L1017 673 L739 673 L642 532 L625 452 L931 452 L906 336 L600 336 L531 0 L363 0 L433 336 Z " />
<glyph glyph-name="brokenbar" unicode="&#xa6;" horiz-adv-x="1024" d="M466 1365 L644 1365 L644 677 L466 677 L466 1365 Z M466 314 L644 314 L644 -341 L466 -341 L466 314 Z " />
<glyph glyph-name="section" unicode="&#xa7;" horiz-adv-x="1092" d="M1029 1027 L872 1027 Q873 1042 873 1046 Q873 1132 824.5 1181.5 Q776 1231 691 1231 Q610 1231 560.5 1188.5 Q511 1146 511 1076 Q511 1008 573 928 Q588 909 712 781 Q887 605 928 541 Q980 463 980 373 Q980 255 904 172 Q828 89 704 72 Q759 -2 759 -94 Q759 -210 672 -295 Q575 -389 407 -389 Q196 -389 101 -242 Q50 -164 50 -58 Q50 -50 50 -35 L207 -35 Q207 -46 207 -50 Q207 -141 260 -195 Q316 -254 419 -254 Q500 -254 549 -209 Q598 -164 598 -100 Q598 -51 565.5 -1 Q533 49 431 156 Q226 373 173.5 452 Q121 531 121 625 Q121 738 195.5 820 Q270 902 392 922 Q347 1000 347 1075 Q347 1179 422 1262 Q516 1366 691 1366 Q852 1366 943 1281 Q1031 1200 1031 1063 Q1031 1054 1029 1027 Z M689 576 L454 820 Q454 821 453 821 Q451 821 395 802 Q344 784 311 738.5 Q278 693 278 641 Q278 595 307 544.5 Q336 494 408 418 L637 170 Q639 168 641 169 L652 173 Q711 192 728.5 200.5 Q746 209 768 230 Q821 280 821 348 Q821 398 792 448 Q763 498 689 576 Z " />
<glyph glyph-name="dieresis" unicode="&#xa8;" horiz-adv-x="1024" d="M499 1387 Q545 1387 577.5 1352.5 Q610 1318 610 1269 Q610 1221 577 1187 Q544 1153 498 1153 Q454 1153 421 1188 Q388 1223 388 1271 Q388 1318 421 1352.5 Q454 1387 499 1387 Z M834 1387 Q879 1387 911.5 1352.5 Q944 1318 944 1269 Q944 1221 911 1187 Q878 1153 832 1153 Q788 1153 755 1188 Q722 1223 722 1271 Q722 1318 755 1352.5 Q788 1387 834 1387 Z " />
<glyph glyph-name="copyright" unicode="&#xa9;" horiz-adv-x="1606" d="M1202 598 Q1189 443 1093 358 Q997 273 837 273 Q643 273 538 402 Q448 511 448 682 Q448 866 557.5 979 Q667 1092 846 1092 Q992 1092 1088.5 1018.5 Q1185 945 1196 826 L1069 826 Q1051 903 992.5 945 Q934 987 843 987 Q702 987 631 880 Q576 797 576 682 Q576 542 648 460 Q720 378 843 378 Q1049 378 1076 598 L1202 598 Z M855 1396 Q1047 1396 1218 1291 Q1390 1185 1480 1007 Q1558 853 1558 682 Q1558 481 1453 310 Q1349 139 1170 47 Q1017 -31 846 -31 Q646 -31 475 74 Q303 178 211 358 Q133 511 133 681 Q133 884 238 1056 Q341 1225 523 1319 Q675 1396 855 1396 Z M854 1296 Q597 1296 419 1118 Q334 1032 287 918 Q241 804 241 681 Q241 510 331 362 Q420 214 572 136 Q702 69 846 69 Q1096 69 1273 249 Q1450 428 1450 683 Q1450 856 1361 1004 Q1274 1149 1121 1229 Q993 1296 854 1296 Z " />
<glyph glyph-name="ordfeminine" unicode="&#xaa;" horiz-adv-x="756" d="M709 608 L100 608 L114 676 L723 676 L709 608 Z M262 1192 Q288 1380 509 1380 Q608 1380 661.5 1344.5 Q715 1309 715 1243 Q715 1217 701 1152 L663 974 Q654 937 654 921 Q654 894 675 894 Q688 894 709 900 L695 820 Q658 808 631 808 Q562 808 552 873 Q477 804 374 804 Q291 804 244 844 Q193 888 193 961 Q193 1054 275 1102 Q329 1134 450 1142 Q569 1150 590 1166 Q611 1183 611 1228 Q611 1294 504 1294 Q440 1294 407.5 1270.5 Q375 1247 363 1192 L262 1192 Z M585 1086 Q548 1071 468 1064 Q392 1058 361 1048 Q299 1029 299 967 Q299 931 327.5 908.5 Q356 886 403 886 Q475 886 517.5 928 Q560 970 579 1061 L585 1086 Z " />
<glyph glyph-name="guillemotleft" unicode="&#xab;" horiz-adv-x="883" d="M461 824 L425 654 L196 525 L360 346 L327 191 L90 454 L133 630 L461 824 Z M833 825 L796 653 L568 526 L731 346 L699 193 L462 455 L504 630 L833 825 Z " />
<glyph glyph-name="logicalnot" unicode="&#xac;" horiz-adv-x="1024" d="M825 0 L825 415 L111 415 L111 571 L998 571 L998 0 L825 0 Z " />
<glyph glyph-name="uni00AD" unicode="&#xad;" horiz-adv-x="464" d="M487 586 L453 429 L-11 429 L22 586 L487 586 Z " />
<glyph glyph-name="registered" unicode="&#xae;" horiz-adv-x="1078" d="M482 1400 Q674 1400 797 1262 Q904 1141 904 972 Q904 779 768 655 Q649 546 482 546 Q303 546 182 669 Q61 792 61 976 Q61 1058 90 1134 Q155 1301 322 1369 Q400 1400 482 1400 Z M482 1323 Q326 1323 230 1211 Q145 1113 145 971 Q145 821 241 721.5 Q337 622 482 622 Q627 622 722 721 Q817 820 817 975 Q817 1136 712 1236 Q620 1323 482 1323 Z M396 1132 L396 992 L519 992 Q589 992 589 1068 Q589 1132 513 1132 L396 1132 Z M608 963 Q648 949 661.5 922 Q675 895 678 823 Q681 761 700 733 L596 733 Q589 761 584 838 Q579 919 507 919 L396 919 L396 733 L303 733 L303 1212 L536 1212 Q603 1212 643 1176 Q683 1140 683 1079 Q683 1030 667 1005.5 Q651 981 608 963 Z " />
<glyph glyph-name="overscore" unicode="&#xaf;" horiz-adv-x="1024" d="M977 1317 L953 1205 L367 1205 L391 1317 L977 1317 Z " />
<glyph glyph-name="degree" unicode="&#xb0;" horiz-adv-x="854" d="M551 1364 Q677 1364 768 1270 Q851 1183 851 1059 Q851 936 762 847 Q674 760 551 760 Q417 760 326 859 Q248 944 248 1062 Q248 1203 350 1289 Q439 1364 551 1364 Z M548 1273 Q469 1273 411 1218 Q342 1153 342 1062 Q342 984 393 924 Q454 851 550 851 Q634 851 696 912.5 Q758 974 758 1058 Q758 1148 699 1208 Q635 1273 548 1273 Z " />
<glyph glyph-name="plusminus" unicode="&#xb1;" horiz-adv-x="1092" d="M142 734 L521 734 L521 1113 L651 1113 L651 734 L1029 734 L1029 604 L651 604 L651 239 L521 239 L521 604 L142 604 L142 734 Z M142 171 L1029 171 L1029 41 L142 41 L142 171 Z " />
<glyph glyph-name="twosuperior" unicode="&#xb2;" horiz-adv-x="722" d="M694 646 L672 546 L112 546 Q119 676 218 770 Q278 826 457 925 Q556 979 597.5 1027.5 Q639 1076 639 1135 Q639 1195 600 1231 Q561 1267 494 1267 Q415 1267 368 1217 Q321 1167 315 1075 L202 1075 Q205 1165 251 1238 Q332 1365 502 1365 Q613 1365 681 1309 Q757 1247 757 1142 Q757 1011 620 912 Q578 881 465 818 Q361 761 320 728 Q279 695 248 646 Q259 646 322 646 L694 646 Z " />
<glyph glyph-name="threesuperior" unicode="&#xb3;" horiz-adv-x="722" d="M247 811 Q246 797 246 783 Q246 628 411 628 Q515 628 567 699 Q600 743 600 799 Q600 928 442 928 Q422 928 385 925 L405 1019 L447 1019 Q639 1019 639 1155 Q639 1207 602 1237 Q565 1267 501 1267 Q352 1267 326 1104 L214 1104 Q230 1227 308 1296 Q386 1365 509 1365 Q620 1365 689.5 1308.5 Q759 1252 759 1162 Q759 1029 622 973 Q721 916 721 809 Q721 709 658 634 Q618 585 551 557.5 Q484 530 407 530 Q283 530 207 596 Q131 662 131 769 Q131 787 133 811 L247 811 Z " />
<glyph glyph-name="acute" unicode="&#xb4;" horiz-adv-x="1024" d="M978 1410 L656 1133 L542 1133 L769 1410 L978 1410 Z " />
<glyph glyph-name="mu" unicode="&#xb5;" horiz-adv-x="1089" d="M-46 -341 L235 983 L388 983 L271 431 Q252 343 252 299 Q252 215 309 159 Q366 104 450 104 Q587 104 683 220 Q766 320 794 449 L907 983 L1060 983 L851 0 L698 0 L737 184 Q610 -26 421 -26 Q338 -26 287 9.5 Q236 45 205 123 L107 -341 L-46 -341 Z " />
<glyph glyph-name="paragraph" unicode="&#xb6;" horiz-adv-x="1092" d="M272 -381 L490 646 Q390 646 332 669 Q173 730 173 916 Q173 1012 218 1107 Q263 1202 338 1263 Q462 1365 688 1365 L1173 1365 L1150 1256 L1061 1256 L713 -381 L581 -381 L929 1256 L753 1256 L405 -381 L272 -381 Z " />
<glyph glyph-name="periodcentered" unicode="&#xb7;" horiz-adv-x="511" d="M263 625 Q309 625 341 590.5 Q373 556 373 506 Q373 459 340 425 Q307 391 262 391 Q216 391 183.5 426.5 Q151 462 151 511 Q151 556 184.5 590.5 Q218 625 263 625 Z " />
<glyph glyph-name="cedilla" unicode="&#xb8;" horiz-adv-x="1024" d="M516 0 L428 -110 Q467 -102 491 -102 Q560 -102 605 -141 Q650 -180 650 -239 Q650 -312 586.5 -360.5 Q523 -409 427 -409 Q337 -409 232 -367 L267 -299 Q347 -329 409 -329 Q455 -329 484 -307 Q513 -285 513 -250 Q513 -217 485.5 -195.5 Q458 -174 417 -174 Q387 -174 345 -187 L314 -153 L438 0 L516 0 Z " />
<glyph glyph-name="onesuperior" unicode="&#xb9;" horiz-adv-x="722" d="M665 1361 L492 546 L370 546 L499 1154 Q404 1136 318 1136 Q304 1136 279 1137 L297 1222 Q494 1226 576 1361 L665 1361 Z " />
<glyph glyph-name="ordmasculine" unicode="&#xba;" horiz-adv-x="728" d="M695 608 L86 608 L100 676 L709 676 L695 608 Z M511 1381 Q626 1381 688.5 1321 Q751 1261 751 1150 Q751 1001 662.5 902 Q574 803 441 803 Q325 803 260.5 865.5 Q196 928 196 1041 Q196 1187 286 1284 Q376 1381 511 1381 Z M504 1294 Q420 1294 364 1228 Q300 1152 300 1047 Q300 973 339 931.5 Q378 890 448 890 Q536 890 593 970 Q646 1045 646 1144 Q646 1214 608 1254 Q570 1294 504 1294 Z " />
<glyph glyph-name="guillemotright" unicode="&#xbb;" horiz-adv-x="882" d="M195 823 L429 562 L392 387 L61 191 L98 363 L324 491 L163 671 L195 823 Z M567 825 L804 563 L761 387 L432 192 L468 362 L697 492 L534 670 L567 825 Z " />
<glyph glyph-name="onequarter" unicode="&#xbc;" horiz-adv-x="1756" d="M665 1361 L492 546 L370 546 L499 1154 Q404 1136 318 1136 Q304 1136 279 1137 L297 1222 Q494 1226 576 1361 L665 1361 Z M1357 1349 L591 0 L481 0 L1247 1349 L1357 1349 Z M1653 286 L1633 193 L1516 193 L1475 0 L1360 0 L1401 193 L1025 193 L1046 291 L1550 819 L1650 819 L1536 286 L1653 286 Z M1427 280 L1504 642 L1155 280 L1427 280 Z " />
<glyph glyph-name="onehalf" unicode="&#xbd;" horiz-adv-x="1756" d="M665 1361 L492 546 L370 546 L499 1154 Q404 1136 318 1136 Q304 1136 279 1137 L297 1222 Q494 1226 576 1361 L665 1361 Z M1357 1349 L591 0 L481 0 L1247 1349 L1357 1349 Z M1611 100 L1590 0 L1029 0 Q1036 130 1136 224 Q1195 281 1375 379 Q1473 433 1515 481.5 Q1557 530 1557 590 Q1557 650 1517.5 686 Q1478 722 1412 722 Q1332 722 1285 671.5 Q1238 621 1232 529 L1119 529 Q1122 620 1168 692 Q1250 820 1420 820 Q1531 820 1599 764 Q1675 702 1675 597 Q1675 465 1538 366 Q1494 334 1382 272 Q1278 215 1237 182 Q1196 149 1165 100 Q1176 100 1239 100 L1611 100 Z " />
<glyph glyph-name="threequarters" unicode="&#xbe;" horiz-adv-x="1756" d="M247 811 Q246 797 246 783 Q246 628 411 628 Q515 628 567 699 Q600 743 600 799 Q600 928 442 928 Q422 928 385 925 L405 1019 L447 1019 Q639 1019 639 1155 Q639 1207 602 1237 Q565 1267 501 1267 Q352 1267 326 1104 L214 1104 Q230 1227 308 1296 Q386 1365 509 1365 Q620 1365 689.5 1308.5 Q759 1252 759 1162 Q759 1029 622 973 Q721 916 721 809 Q721 709 658 634 Q618 585 551 557.5 Q484 530 407 530 Q283 530 207 596 Q131 662 131 769 Q131 787 133 811 L247 811 Z M1357 1349 L591 0 L480 0 L1246 1349 L1357 1349 Z M1653 286 L1633 193 L1516 193 L1475 0 L1360 0 L1401 193 L1025 193 L1046 291 L1550 819 L1649 819 L1536 286 L1653 286 Z M1427 280 L1504 642 L1155 280 L1427 280 Z " />
<glyph glyph-name="questiondown" unicode="&#xbf;" horiz-adv-x="1028" d="M594 1012 Q640 1012 672.5 977.5 Q705 943 705 894 Q705 846 672 812 Q639 778 593 778 Q549 778 516 813 Q483 848 483 896 Q483 943 516.5 977.5 Q550 1012 594 1012 Z M464 640 L622 640 Q600 503 543 414 Q511 365 474 331.5 Q437 298 327 220 Q230 151 186.5 87.5 Q143 24 143 -49 Q143 -142 199 -195 Q261 -254 369 -254 Q521 -254 607 -130 Q652 -66 673 52 L832 52 Q816 -84 762 -177 Q635 -395 361 -395 Q185 -395 81 -307 Q-27 -215 -27 -65 Q-27 60 43 158 Q96 233 274 361 Q369 429 401.5 477 Q434 525 464 640 Z " />
<glyph glyph-name="Agrave" unicode="&#xc0;" horiz-adv-x="1296" d="M938 1365 L1182 0 L995 0 L930 418 L357 418 L114 0 L-90 0 L735 1365 L938 1365 Z M806 1211 Q717 1040 587 818 L439 565 L908 565 L855 893 Q817 1114 806 1211 Z M961 1475 L838 1475 L650 1742 L842 1742 L961 1475 Z " />
<glyph glyph-name="Aacute" unicode="&#xc1;" horiz-adv-x="1296" d="M938 1365 L1182 0 L995 0 L930 418 L357 418 L114 0 L-90 0 L735 1365 L938 1365 Z M806 1211 Q717 1040 587 818 L439 565 L908 565 L855 893 Q817 1114 806 1211 Z M1188 1742 L873 1475 L745 1475 L971 1742 L1188 1742 Z " />
<glyph glyph-name="Acircumflex" unicode="&#xc2;" horiz-adv-x="1296" d="M938 1365 L1182 0 L995 0 L930 418 L357 418 L114 0 L-90 0 L735 1365 L938 1365 Z M806 1211 Q717 1040 587 818 L439 565 L908 565 L855 893 Q817 1114 806 1211 Z M1133 1475 L988 1475 L893 1642 L706 1475 L552 1475 L826 1736 L991 1736 L1133 1475 Z " />
<glyph glyph-name="Atilde" unicode="&#xc3;" horiz-adv-x="1297" d="M938 1365 L1182 0 L995 0 L930 418 L357 418 L114 0 L-90 0 L735 1365 L938 1365 Z M806 1211 Q717 1040 587 818 L439 565 L908 565 L855 893 Q817 1114 806 1211 Z M1222 1708 Q1159 1495 1032 1495 Q985 1495 907 1531 Q778 1592 753 1592 Q708 1592 665 1503 L566 1503 Q626 1712 757 1712 Q790 1712 817.5 1702 Q845 1692 968 1635 Q1008 1616 1033 1616 Q1087 1616 1123 1708 L1222 1708 Z " />
<glyph glyph-name="Adieresis" unicode="&#xc4;" horiz-adv-x="1297" d="M938 1365 L1182 0 L995 0 L930 418 L357 418 L114 0 L-90 0 L735 1365 L938 1365 Z M806 1211 Q717 1040 587 818 L439 565 L908 565 L855 893 Q817 1114 806 1211 Z M639 1722 Q685 1722 717.5 1687.5 Q750 1653 750 1604 Q750 1556 717 1522 Q684 1488 638 1488 Q594 1488 561 1523 Q528 1558 528 1606 Q528 1653 561.5 1687.5 Q595 1722 639 1722 Z M1059 1722 Q1104 1722 1136.5 1687.5 Q1169 1653 1169 1604 Q1169 1556 1136 1522 Q1103 1488 1057 1488 Q1013 1488 980 1523 Q947 1558 947 1606 Q947 1653 980 1687.5 Q1013 1722 1059 1722 Z " />
<glyph glyph-name="Aring" unicode="&#xc5;" horiz-adv-x="1296" d="M938 1365 L1182 0 L995 0 L930 418 L357 418 L114 0 L-90 0 L735 1365 L938 1365 Z M806 1211 Q717 1040 587 818 L439 565 L908 565 L855 893 Q817 1114 806 1211 Z M870 1842 Q957 1842 1018 1774 Q1071 1716 1071 1638 Q1071 1548 1003 1487 Q945 1434 867 1434 Q777 1434 715 1501 Q663 1557 663 1638 Q663 1728 731 1789 Q788 1842 870 1842 Z M866 1744 Q820 1744 790.5 1714.5 Q761 1685 761 1639 Q761 1592 790 1562 Q819 1532 865 1532 Q909 1532 941 1563 Q973 1594 973 1638 Q973 1681 941 1712.5 Q909 1744 866 1744 Z " />
<glyph glyph-name="AE" unicode="&#xc6;" horiz-adv-x="1803" d="M1894 1365 L1862 1212 L1191 1212 L1098 776 L1731 776 L1700 629 L1067 629 L966 153 L1649 153 L1617 0 L759 0 L844 401 L389 401 L103 0 L-109 0 L890 1365 L1894 1365 Z M1016 1211 L966 1211 L495 548 L875 548 L1016 1211 Z " />
<glyph glyph-name="Ccedilla" unicode="&#xc7;" horiz-adv-x="1380" d="M1381 927 L1203 927 Q1204 944 1204 950 Q1204 1087 1097 1175 Q1011 1245 869 1245 Q687 1245 545 1133 Q418 1032 354 850 Q303 704 303 556 Q303 325 434 211 Q539 120 695 120 Q854 120 968 211 Q1082 302 1123 463 L1305 463 Q1266 258 1096 102 Q1031 43 921.5 6 Q812 -31 701 -31 Q685 -31 654 -30 L590 -110 Q629 -102 652 -102 Q721 -102 766 -141 Q811 -180 811 -239 Q811 -312 747.5 -360.5 Q684 -409 588 -409 Q499 -409 393 -367 L429 -299 Q508 -329 570 -329 Q616 -329 645 -307 Q674 -285 674 -250 Q674 -218 646.5 -196 Q619 -174 579 -174 Q549 -174 506 -187 L475 -153 L583 -22 Q384 12 271 132 Q128 285 128 557 Q128 718 179 871.5 Q230 1025 320 1135 Q531 1395 875 1395 Q1109 1395 1243.5 1271 Q1378 1147 1381 927 Z " />
<glyph glyph-name="Egrave" unicode="&#xc8;" horiz-adv-x="1195" d="M1290 1365 L1257 1212 L488 1212 L395 776 L1113 776 L1082 629 L363 629 L262 153 L1042 153 L1009 0 L55 0 L345 1365 L1290 1365 Z M952 1475 L829 1475 L641 1742 L833 1742 L952 1475 Z " />
<glyph glyph-name="Eacute" unicode="&#xc9;" horiz-adv-x="1195" d="M1290 1365 L1257 1212 L488 1212 L395 776 L1113 776 L1082 629 L363 629 L262 153 L1042 153 L1009 0 L55 0 L345 1365 L1290 1365 Z M1147 1742 L832 1475 L705 1475 L931 1742 L1147 1742 Z " />
<glyph glyph-name="Ecircumflex" unicode="&#xca;" horiz-adv-x="1195" d="M1290 1365 L1257 1212 L488 1212 L395 776 L1113 776 L1082 629 L363 629 L262 153 L1042 153 L1009 0 L55 0 L345 1365 L1290 1365 Z M1125 1475 L980 1475 L885 1642 L699 1475 L544 1475 L818 1736 L983 1736 L1125 1475 Z " />
<glyph glyph-name="Edieresis" unicode="&#xcb;" horiz-adv-x="1195" d="M1290 1365 L1257 1212 L488 1212 L395 776 L1113 776 L1082 629 L363 629 L262 153 L1042 153 L1009 0 L55 0 L345 1365 L1290 1365 Z M658 1722 Q704 1722 736.5 1687.5 Q769 1653 769 1604 Q769 1556 736 1522 Q703 1488 657 1488 Q613 1488 580 1523 Q547 1558 547 1606 Q547 1653 580.5 1687.5 Q614 1722 658 1722 Z M1077 1722 Q1122 1722 1154.5 1687.5 Q1187 1653 1187 1604 Q1187 1556 1154 1522 Q1121 1488 1075 1488 Q1031 1488 998 1523 Q965 1558 965 1606 Q965 1653 998 1687.5 Q1031 1722 1077 1722 Z " />
<glyph glyph-name="Igrave" unicode="&#xcc;" horiz-adv-x="489" d="M520 1365 L230 0 L55 0 L345 1365 L520 1365 Z M558 1475 L435 1475 L247 1742 L439 1742 L558 1475 Z " />
<glyph glyph-name="Iacute" unicode="&#xcd;" horiz-adv-x="489" d="M520 1365 L230 0 L55 0 L345 1365 L520 1365 Z M757 1742 L476 1475 L348 1475 L547 1742 L757 1742 Z " />
<glyph glyph-name="Icircumflex" unicode="&#xce;" horiz-adv-x="489" d="M520 1365 L230 0 L55 0 L345 1365 L520 1365 Z M719 1475 L574 1475 L493 1642 L320 1475 L172 1475 L426 1736 L590 1736 L719 1475 Z " />
<glyph glyph-name="Idieresis" unicode="&#xcf;" horiz-adv-x="489" d="M520 1365 L230 0 L55 0 L345 1365 L520 1365 Z M309 1722 Q354 1722 386.5 1687.5 Q419 1653 419 1604 Q419 1556 386 1522 Q353 1488 307 1488 Q263 1488 230 1523 Q197 1558 197 1606 Q197 1653 230 1687.5 Q263 1722 309 1722 Z M612 1722 Q657 1722 689.5 1687.5 Q722 1653 722 1604 Q722 1556 689 1522 Q656 1488 610 1488 Q566 1488 533 1523 Q500 1558 500 1606 Q500 1653 533 1687.5 Q566 1722 612 1722 Z " />
<glyph glyph-name="Eth" unicode="&#xd0;" horiz-adv-x="1365" d="M345 1365 L667 1365 Q890 1365 970 1344 Q1169 1294 1262 1117 Q1328 989 1328 819 Q1328 662 1274 508 Q1220 354 1126 242 Q997 90 817 36 Q746 15 670.5 7.5 Q595 0 450 0 L55 0 L192 641 L55 641 L84 778 L221 778 L345 1365 Z M395 778 L755 778 L726 641 L366 641 L262 153 L488 153 Q704 153 800 194 Q1010 285 1104 550 Q1153 686 1153 820 Q1153 1082 979 1170 Q898 1212 718 1212 L488 1212 L395 778 Z " />
<glyph glyph-name="Ntilde" unicode="&#xd1;" horiz-adv-x="1408" d="M1439 1365 L1149 0 L946 0 L561 905 Q493 1066 464 1165 Q449 1030 395 777 L230 0 L55 0 L345 1365 L542 1365 L926 462 Q989 312 1029 189 Q1069 449 1112 649 L1264 1365 L1439 1365 Z M1284 1708 Q1221 1495 1094 1495 Q1048 1495 970 1531 Q840 1592 815 1592 Q771 1592 727 1503 L629 1503 Q689 1712 819 1712 Q853 1712 880.5 1702 Q908 1692 1031 1635 Q1071 1616 1096 1616 Q1149 1616 1186 1708 L1284 1708 Z " />
<glyph glyph-name="Ograve" unicode="&#xd2;" horiz-adv-x="1490" d="M876 1395 Q1086 1395 1233 1288 Q1448 1131 1448 809 Q1448 467 1250 223 Q1044 -31 703 -31 Q383 -31 232 195 Q129 347 129 569 Q129 827 251 1042 Q347 1212 509.5 1303.5 Q672 1395 876 1395 Z M867 1245 Q640 1245 490 1084 Q404 993 355.5 855.5 Q307 718 307 569 Q307 396 382 284 Q494 119 717 119 Q940 119 1093 293 Q1189 402 1232 549 Q1271 684 1271 813 Q1271 1000 1171 1121 Q1067 1245 867 1245 Z M1065 1475 L943 1475 L754 1742 L946 1742 L1065 1475 Z " />
<glyph glyph-name="Oacute" unicode="&#xd3;" horiz-adv-x="1490" d="M876 1395 Q1086 1395 1233 1288 Q1448 1131 1448 809 Q1448 467 1250 223 Q1044 -31 703 -31 Q383 -31 232 195 Q129 347 129 569 Q129 827 251 1042 Q347 1212 509.5 1303.5 Q672 1395 876 1395 Z M867 1245 Q640 1245 490 1084 Q404 993 355.5 855.5 Q307 718 307 569 Q307 396 382 284 Q494 119 717 119 Q940 119 1093 293 Q1189 402 1232 549 Q1271 684 1271 813 Q1271 1000 1171 1121 Q1067 1245 867 1245 Z M1261 1742 L946 1475 L818 1475 L1044 1742 L1261 1742 Z " />
<glyph glyph-name="Ocircumflex" unicode="&#xd4;" horiz-adv-x="1490" d="M876 1395 Q1086 1395 1233 1288 Q1448 1131 1448 809 Q1448 467 1250 223 Q1044 -31 703 -31 Q383 -31 232 195 Q129 347 129 569 Q129 827 251 1042 Q347 1212 509.5 1303.5 Q672 1395 876 1395 Z M867 1245 Q640 1245 490 1084 Q404 993 355.5 855.5 Q307 718 307 569 Q307 396 382 284 Q494 119 717 119 Q940 119 1093 293 Q1189 402 1232 549 Q1271 684 1271 813 Q1271 1000 1171 1121 Q1067 1245 867 1245 Z M1220 1475 L1075 1475 L980 1642 L793 1475 L639 1475 L913 1736 L1077 1736 L1220 1475 Z " />
<glyph glyph-name="Otilde" unicode="&#xd5;" horiz-adv-x="1490" d="M876 1395 Q1086 1395 1233 1288 Q1448 1131 1448 809 Q1448 467 1250 223 Q1044 -31 703 -31 Q383 -31 232 195 Q129 347 129 569 Q129 827 251 1042 Q347 1212 509.5 1303.5 Q672 1395 876 1395 Z M867 1245 Q640 1245 490 1084 Q404 993 355.5 855.5 Q307 718 307 569 Q307 396 382 284 Q494 119 717 119 Q940 119 1093 293 Q1189 402 1232 549 Q1271 684 1271 813 Q1271 1000 1171 1121 Q1067 1245 867 1245 Z M1305 1708 Q1242 1495 1115 1495 Q1069 1495 991 1531 Q861 1592 836 1592 Q790 1592 748 1503 L650 1503 Q709 1712 840 1712 Q873 1712 900.5 1702 Q928 1692 1051 1635 Q1091 1616 1116 1616 Q1170 1616 1206 1708 L1305 1708 Z " />
<glyph glyph-name="Odieresis" unicode="&#xd6;" horiz-adv-x="1490" d="M876 1395 Q1086 1395 1233 1288 Q1448 1131 1448 809 Q1448 467 1250 223 Q1044 -31 703 -31 Q383 -31 232 195 Q129 347 129 569 Q129 827 251 1042 Q347 1212 509.5 1303.5 Q672 1395 876 1395 Z M867 1245 Q640 1245 490 1084 Q404 993 355.5 855.5 Q307 718 307 569 Q307 396 382 284 Q494 119 717 119 Q940 119 1093 293 Q1189 402 1232 549 Q1271 684 1271 813 Q1271 1000 1171 1121 Q1067 1245 867 1245 Z M761 1722 Q807 1722 839.5 1687.5 Q872 1653 872 1604 Q872 1556 839 1522 Q806 1488 760 1488 Q716 1488 683 1523 Q650 1558 650 1606 Q650 1653 683 1687.5 Q716 1722 761 1722 Z M1180 1722 Q1226 1722 1258.5 1687.5 Q1291 1653 1291 1604 Q1291 1556 1258 1522 Q1225 1488 1179 1488 Q1135 1488 1102 1523 Q1069 1558 1069 1606 Q1069 1653 1102 1687.5 Q1135 1722 1180 1722 Z " />
<glyph glyph-name="multiply" unicode="&#xd7;" horiz-adv-x="1092" d="M202 377 L494 669 L202 961 L294 1053 L586 761 L878 1053 L970 961 L678 669 L969 377 L878 285 L586 577 L294 285 L202 377 Z " />
<glyph glyph-name="Oslash" unicode="&#xd8;" horiz-adv-x="1490" d="M1539 1328 L1359 1157 Q1449 1044 1449 809 Q1449 545 1319 331 Q1214 157 1051.5 63.5 Q889 -30 692 -30 Q557 -30 457 8 Q357 46 279 127 L108 -39 L30 44 L210 211 Q161 317 143 391 Q125 465 125 563 Q125 761 198 941 Q289 1169 494 1291 Q667 1395 883 1395 Q1010 1395 1105 1360 Q1200 1325 1290 1245 L1462 1410 L1539 1328 Z M1153 1134 Q1118 1182 1037.5 1214.5 Q957 1247 871 1247 Q650 1247 499 1097 Q396 995 347 842 Q304 709 304 566 Q304 447 348 333 L1153 1134 Z M1218 1038 L409 233 Q464 188 505 167 Q598 120 718 120 Q910 120 1061 262 Q1158 352 1212 489 Q1272 638 1272 803 Q1272 938 1218 1038 Z " />
<glyph glyph-name="Ugrave" unicode="&#xd9;" horiz-adv-x="1367" d="M1418 1365 L1244 546 Q1211 388 1182 307 Q1153 226 1108 165 Q966 -29 640 -29 Q422 -29 291 60 Q131 170 131 378 Q131 454 158 583 L325 1365 L499 1365 L330 568 Q304 446 304 385 Q304 251 401 185 Q491 123 636 123 Q880 123 978 270 Q1006 313 1026.5 376 Q1047 439 1073 562 L1243 1365 L1418 1365 Z M1011 1475 L888 1475 L699 1742 L891 1742 L1011 1475 Z " />
<glyph glyph-name="Uacute" unicode="&#xda;" horiz-adv-x="1367" d="M1418 1365 L1244 546 Q1211 388 1182 307 Q1153 226 1108 165 Q966 -29 640 -29 Q422 -29 291 60 Q131 170 131 378 Q131 454 158 583 L325 1365 L499 1365 L330 568 Q304 446 304 385 Q304 251 401 185 Q491 123 636 123 Q880 123 978 270 Q1006 313 1026.5 376 Q1047 439 1073 562 L1243 1365 L1418 1365 Z M1213 1742 L898 1475 L770 1475 L996 1742 L1213 1742 Z " />
<glyph glyph-name="Ucircumflex" unicode="&#xdb;" horiz-adv-x="1367" d="M1418 1365 L1244 546 Q1211 388 1182 307 Q1153 226 1108 165 Q966 -29 640 -29 Q422 -29 291 60 Q131 170 131 378 Q131 454 158 583 L325 1365 L499 1365 L330 568 Q304 446 304 385 Q304 251 401 185 Q491 123 636 123 Q880 123 978 270 Q1006 313 1026.5 376 Q1047 439 1073 562 L1243 1365 L1418 1365 Z M1179 1475 L1033 1475 L938 1642 L752 1475 L597 1475 L871 1736 L1036 1736 L1179 1475 Z " />
<glyph glyph-name="Udieresis" unicode="&#xdc;" horiz-adv-x="1367" d="M1418 1365 L1244 546 Q1211 388 1182 307 Q1153 226 1108 165 Q966 -29 640 -29 Q422 -29 291 60 Q131 170 131 378 Q131 454 158 583 L325 1365 L499 1365 L330 568 Q304 446 304 385 Q304 251 401 185 Q491 123 636 123 Q880 123 978 270 Q1006 313 1026.5 376 Q1047 439 1073 562 L1243 1365 L1418 1365 Z M713 1722 Q759 1722 791.5 1687.5 Q824 1653 824 1604 Q824 1556 791 1522 Q758 1488 712 1488 Q668 1488 635 1523 Q602 1558 602 1606 Q602 1653 635 1687.5 Q668 1722 713 1722 Z M1132 1722 Q1178 1722 1210.5 1687.5 Q1243 1653 1243 1604 Q1243 1556 1210 1522 Q1177 1488 1131 1488 Q1087 1488 1054 1523 Q1021 1558 1021 1606 Q1021 1653 1054.5 1687.5 Q1088 1722 1132 1722 Z " />
<glyph glyph-name="Yacute" unicode="&#xdd;" horiz-adv-x="1158" d="M1366 1365 L700 543 L584 0 L410 0 L528 558 L168 1365 L361 1365 L550 918 Q617 759 637 705 Q692 783 771 882 L1154 1365 L1366 1365 Z M1095 1742 L780 1475 L652 1475 L878 1742 L1095 1742 Z " />
<glyph glyph-name="Thorn" unicode="&#xde;" horiz-adv-x="1239" d="M345 1365 L520 1365 L476 1161 L766 1161 Q981 1161 1070 1108 Q1230 1012 1230 806 Q1230 651 1146 532 Q1050 395 886 371 Q800 358 652 358 L306 358 L230 0 L55 0 L345 1365 Z M444 1008 L337 505 L649 505 Q777 505 836.5 515.5 Q896 526 938 556 Q989 594 1019.5 656 Q1050 718 1050 785 Q1050 913 963 970 Q904 1008 707 1008 L444 1008 Z " />
<glyph glyph-name="germandbls" unicode="&#xdf;" horiz-adv-x="1066" d="M379 117 Q418 109 453 109 Q615 109 711 215 Q803 316 803 468 Q803 580 737.5 633.5 Q672 687 537 687 Q522 687 500 685 L528 818 Q548 816 567 816 Q731 816 811 909 Q876 983 876 1085 Q876 1160 823.5 1205 Q771 1250 683 1250 Q617 1250 561 1223.5 Q505 1197 474 1152 Q435 1095 399 925 L202 0 L41 0 L239 929 Q271 1084 298.5 1149.5 Q326 1215 381 1270 Q495 1384 697 1384 Q864 1384 955 1300 Q1041 1222 1041 1095 Q1041 968 964.5 878.5 Q888 789 755 758 Q857 738 916.5 662.5 Q976 587 976 477 Q976 293 854 145 Q712 -25 466 -25 Q413 -25 351 -17 L379 117 Z " />
<glyph glyph-name="agrave" unicode="&#xe0;" horiz-adv-x="1035" d="M745 1133 L636 1133 L437 1410 L623 1410 L745 1133 Z M909 111 L887 -10 Q820 -23 777 -23 Q714 -23 686 8 Q675 19 664.5 43 Q654 67 654 78 L655 101 L654 106 L655 109 Q656 115 657 117 L653 121 Q589 42 518 12 Q435 -23 326 -23 Q178 -23 98.5 49.5 Q19 122 19 257 Q19 426 145 498 Q215 538 270 549 Q325 560 583 587 Q678 597 718 621 Q768 652 768 727 Q768 869 569 869 Q456 869 388.5 824 Q321 779 302 692 L140 692 Q171 856 291 938 Q403 1013 578 1013 Q731 1013 821 960 Q930 897 930 770 Q930 708 911 628 L823 253 Q810 196 810 158 Q810 108 871 108 Q888 108 909 111 Z M720 506 Q671 479 633 470.5 Q595 462 443 445 Q304 429 243 385 Q182 341 182 257 Q182 195 232 158 Q282 121 366 121 Q463 121 538 161 Q613 201 653 274 Q684 330 724 506 L720 506 Z " />
<glyph glyph-name="aacute" unicode="&#xe1;" horiz-adv-x="1035" d="M943 1410 L621 1133 L506 1133 L733 1410 L943 1410 Z M909 111 L887 -10 Q820 -23 777 -23 Q714 -23 686 8 Q675 19 664.5 43 Q654 67 654 78 L655 101 L654 106 L655 109 Q656 115 657 117 L653 121 Q589 42 518 12 Q435 -23 326 -23 Q178 -23 98.5 49.5 Q19 122 19 257 Q19 426 145 498 Q215 538 270 549 Q325 560 583 587 Q678 597 718 621 Q768 652 768 727 Q768 869 569 869 Q456 869 388.5 824 Q321 779 302 692 L140 692 Q171 856 291 938 Q403 1013 578 1013 Q731 1013 821 960 Q930 897 930 770 Q930 708 911 628 L823 253 Q810 196 810 158 Q810 108 871 108 Q888 108 909 111 Z M720 506 Q671 479 633 470.5 Q595 462 443 445 Q304 429 243 385 Q182 341 182 257 Q182 195 232 158 Q282 121 366 121 Q463 121 538 161 Q613 201 653 274 Q684 330 724 506 L720 506 Z " />
<glyph glyph-name="acircumflex" unicode="&#xe2;" horiz-adv-x="1035" d="M896 1133 L753 1133 L669 1315 L487 1133 L333 1133 L602 1409 L766 1409 L896 1133 Z M909 111 L887 -10 Q820 -23 777 -23 Q714 -23 686 8 Q675 19 664.5 43 Q654 67 654 78 L655 101 L654 106 L655 109 Q656 115 657 117 L653 121 Q589 42 518 12 Q435 -23 326 -23 Q178 -23 98.5 49.5 Q19 122 19 257 Q19 426 145 498 Q215 538 270 549 Q325 560 583 587 Q678 597 718 621 Q768 652 768 727 Q768 869 569 869 Q456 869 388.5 824 Q321 779 302 692 L140 692 Q171 856 291 938 Q403 1013 578 1013 Q731 1013 821 960 Q930 897 930 770 Q930 708 911 628 L823 253 Q810 196 810 158 Q810 108 871 108 Q888 108 909 111 Z M720 506 Q671 479 633 470.5 Q595 462 443 445 Q304 429 243 385 Q182 341 182 257 Q182 195 232 158 Q282 121 366 121 Q463 121 538 161 Q613 201 653 274 Q684 330 724 506 L720 506 Z " />
<glyph glyph-name="atilde" unicode="&#xe3;" horiz-adv-x="1035" d="M963 1369 Q921 1254 881 1209 Q841 1164 780 1164 Q738 1164 665 1200 Q550 1258 517 1258 Q463 1258 438 1168 L346 1168 Q382 1281 420.5 1325.5 Q459 1370 521 1370 Q547 1370 572 1360.5 Q597 1351 721 1295 Q765 1275 780 1275 Q842 1275 870 1369 L963 1369 Z M909 111 L887 -10 Q820 -23 777 -23 Q714 -23 686 8 Q675 19 664.5 43 Q654 67 654 78 L655 101 L654 106 L655 109 Q656 115 657 117 L653 121 Q589 42 518 12 Q435 -23 326 -23 Q178 -23 98.5 49.5 Q19 122 19 257 Q19 426 145 498 Q215 538 270 549 Q325 560 583 587 Q678 597 718 621 Q768 652 768 727 Q768 869 569 869 Q456 869 388.5 824 Q321 779 302 692 L140 692 Q171 856 291 938 Q403 1013 578 1013 Q731 1013 821 960 Q930 897 930 770 Q930 708 911 628 L823 253 Q810 196 810 158 Q810 108 871 108 Q888 108 909 111 Z M720 506 Q671 479 633 470.5 Q595 462 443 445 Q304 429 243 385 Q182 341 182 257 Q182 195 232 158 Q282 121 366 121 Q463 121 538 161 Q613 201 653 274 Q684 330 724 506 L720 506 Z " />
<glyph glyph-name="adieresis" unicode="&#xe4;" horiz-adv-x="1035" d="M483 1387 Q529 1387 561.5 1352.5 Q594 1318 594 1269 Q594 1221 561 1187 Q528 1153 482 1153 Q438 1153 405 1188 Q372 1223 372 1271 Q372 1318 405.5 1352.5 Q439 1387 483 1387 Z M817 1387 Q863 1387 895.5 1352.5 Q928 1318 928 1269 Q928 1221 895 1187 Q862 1153 816 1153 Q772 1153 739 1188 Q706 1223 706 1271 Q706 1318 739 1352.5 Q772 1387 817 1387 Z M909 111 L887 -10 Q820 -23 777 -23 Q714 -23 686 8 Q675 19 664.5 43 Q654 67 654 78 L655 101 L654 106 L655 109 Q656 115 657 117 L653 121 Q589 42 518 12 Q435 -23 326 -23 Q178 -23 98.5 49.5 Q19 122 19 257 Q19 426 145 498 Q215 538 270 549 Q325 560 583 587 Q678 597 718 621 Q768 652 768 727 Q768 869 569 869 Q456 869 388.5 824 Q321 779 302 692 L140 692 Q171 856 291 938 Q403 1013 578 1013 Q731 1013 821 960 Q930 897 930 770 Q930 708 911 628 L823 253 Q810 196 810 158 Q810 108 871 108 Q888 108 909 111 Z M720 506 Q671 479 633 470.5 Q595 462 443 445 Q304 429 243 385 Q182 341 182 257 Q182 195 232 158 Q282 121 366 121 Q463 121 538 161 Q613 201 653 274 Q684 330 724 506 L720 506 Z " />
<glyph glyph-name="aring" unicode="&#xe5;" horiz-adv-x="1035" d="M652 1487 Q739 1487 800 1419 Q853 1361 853 1283 Q853 1192 785 1131 Q727 1078 649 1078 Q559 1078 497 1145 Q445 1202 445 1283 Q445 1373 513 1434 Q570 1487 652 1487 Z M648 1389 Q602 1389 572.5 1359.5 Q543 1330 543 1283 Q543 1236 572 1206 Q601 1176 647 1176 Q691 1176 723 1207.5 Q755 1239 755 1282 Q755 1325 723 1357 Q691 1389 648 1389 Z M909 111 L887 -10 Q820 -23 777 -23 Q714 -23 686 8 Q675 19 664.5 43 Q654 67 654 78 L655 101 L654 106 L655 109 Q656 115 657 117 L653 121 Q589 42 518 12 Q435 -23 326 -23 Q178 -23 98.5 49.5 Q19 122 19 257 Q19 426 145 498 Q215 538 270 549 Q325 560 583 587 Q678 597 718 621 Q768 652 768 727 Q768 869 569 869 Q456 869 388.5 824 Q321 779 302 692 L140 692 Q171 856 291 938 Q403 1013 578 1013 Q731 1013 821 960 Q930 897 930 770 Q930 708 911 628 L823 253 Q810 196 810 158 Q810 108 871 108 Q888 108 909 111 Z M720 506 Q671 479 633 470.5 Q595 462 443 445 Q304 429 243 385 Q182 341 182 257 Q182 195 232 158 Q282 121 366 121 Q463 121 538 161 Q613 201 653 274 Q684 330 724 506 L720 506 Z " />
<glyph glyph-name="ae" unicode="&#xe6;" horiz-adv-x="1663" d="M734 173 Q674 91 620 55 Q503 -23 328 -23 Q168 -23 89 59 Q19 131 19 257 Q19 425 145 498 Q215 538 270 549 Q325 560 583 587 Q678 597 718 621 Q768 652 768 727 Q768 869 569 869 Q456 869 388.5 824 Q321 779 302 692 L140 692 Q171 856 291 938 Q403 1013 579 1013 Q845 1013 912 863 Q916 868 925 879 Q1038 1017 1240 1017 Q1412 1017 1510.5 916.5 Q1609 816 1609 640 Q1609 562 1583 448 L866 448 Q853 391 853 343 Q853 245 903 185 Q967 108 1095 108 Q1231 108 1323 209 Q1365 255 1385 311 L1551 311 Q1514 205 1434 119 Q1362 42 1277 7.5 Q1192 -27 1072 -27 Q795 -27 734 173 Z M891 581 L1445 581 Q1450 614 1450 641 Q1450 736 1403 800 Q1342 883 1219 883 Q1069 883 974 765 Q913 689 891 581 Z M720 506 Q671 479 633 470.5 Q595 462 443 445 Q305 429 243.5 385 Q182 341 182 257 Q182 195 232 158 Q282 121 366 121 Q463 121 538.5 161 Q614 201 653 273 Q684 329 724 506 L720 506 Z " />
<glyph glyph-name="ccedilla" unicode="&#xe7;" horiz-adv-x="1030" d="M451 -27 L385 -110 Q424 -102 448 -102 Q517 -102 562 -140.5 Q607 -179 607 -239 Q607 -312 543.5 -360.5 Q480 -409 384 -409 Q294 -409 189 -367 L224 -299 Q304 -329 365 -329 Q412 -329 441 -307 Q470 -285 470 -250 Q470 -217 442.5 -195.5 Q415 -174 374 -174 Q344 -174 302 -187 L270 -153 L379 -19 Q268 2 201 61 Q72 174 72 388 Q72 492 105 602.5 Q138 713 193 792 Q349 1017 628 1017 Q811 1017 907 920 Q995 832 995 697 Q995 693 994 676 L832 676 Q832 684 832 686 Q832 782 775.5 832 Q719 882 611 882 Q459 882 355 756 Q302 691 270 592 Q238 493 238 392 Q238 267 290 196 Q354 108 486 108 Q689 108 767 324 L936 324 Q904 208 826 119 Q697 -28 485 -28 Q472 -28 451 -27 Z " />
<glyph glyph-name="egrave" unicode="&#xe8;" horiz-adv-x="1064" d="M942 311 Q919 213 849 128 Q721 -27 490 -27 Q264 -27 156 118 Q73 229 73 395 Q73 496 103.5 601.5 Q134 707 187 785 Q260 895 370.5 956 Q481 1017 606 1017 Q789 1017 893 907.5 Q997 798 997 605 Q997 538 984 448 L241 448 Q236 411 236 381 Q236 272 286 204 Q357 107 497 107 Q704 107 775 311 L942 311 Z M263 581 L839 581 Q839 597 839 611 Q839 727 795 791 Q733 882 599 882 Q477 882 388.5 802.5 Q300 723 263 581 Z M760 1133 L651 1133 L452 1410 L638 1410 L760 1133 Z " />
<glyph glyph-name="eacute" unicode="&#xe9;" horiz-adv-x="1064" d="M942 311 Q919 213 849 128 Q721 -27 490 -27 Q264 -27 156 118 Q73 229 73 395 Q73 496 103.5 601.5 Q134 707 187 785 Q260 895 370.5 956 Q481 1017 606 1017 Q789 1017 893 907.5 Q997 798 997 605 Q997 538 984 448 L241 448 Q236 411 236 381 Q236 272 286 204 Q357 107 497 107 Q704 107 775 311 L942 311 Z M263 581 L839 581 Q839 597 839 611 Q839 727 795 791 Q733 882 599 882 Q477 882 388.5 802.5 Q300 723 263 581 Z M972 1410 L649 1133 L535 1133 L762 1410 L972 1410 Z " />
<glyph glyph-name="ecircumflex" unicode="&#xea;" horiz-adv-x="1064" d="M942 311 Q919 213 849 128 Q721 -27 490 -27 Q264 -27 156 118 Q73 229 73 395 Q73 496 103.5 601.5 Q134 707 187 785 Q260 895 370.5 956 Q481 1017 606 1017 Q789 1017 893 907.5 Q997 798 997 605 Q997 538 984 448 L241 448 Q236 411 236 381 Q236 272 286 204 Q357 107 497 107 Q704 107 775 311 L942 311 Z M263 581 L839 581 Q839 597 839 611 Q839 727 795 791 Q733 882 599 882 Q477 882 388.5 802.5 Q300 723 263 581 Z M929 1133 L785 1133 L701 1315 L520 1133 L365 1133 L634 1409 L798 1409 L929 1133 Z " />
<glyph glyph-name="edieresis" unicode="&#xeb;" horiz-adv-x="1064" d="M942 311 Q919 213 849 128 Q721 -27 490 -27 Q264 -27 156 118 Q73 229 73 395 Q73 496 103.5 601.5 Q134 707 187 785 Q260 895 370.5 956 Q481 1017 606 1017 Q789 1017 893 907.5 Q997 798 997 605 Q997 538 984 448 L241 448 Q236 411 236 381 Q236 272 286 204 Q357 107 497 107 Q704 107 775 311 L942 311 Z M263 581 L839 581 Q839 597 839 611 Q839 727 795 791 Q733 882 599 882 Q477 882 388.5 802.5 Q300 723 263 581 Z M519 1387 Q565 1387 597.5 1352.5 Q630 1318 630 1269 Q630 1221 597 1187 Q564 1153 518 1153 Q474 1153 441 1188 Q408 1223 408 1271 Q408 1318 441.5 1352.5 Q475 1387 519 1387 Z M853 1387 Q899 1387 931.5 1352.5 Q964 1318 964 1269 Q964 1221 931 1187 Q898 1153 852 1153 Q808 1153 775 1188 Q742 1223 742 1271 Q742 1318 775 1352.5 Q808 1387 853 1387 Z " />
<glyph glyph-name="igrave" unicode="&#xec;" horiz-adv-x="448" d="M413 990 L202 0 L41 0 L251 990 L413 990 Z M457 1133 L348 1133 L149 1410 L334 1410 L457 1133 Z " />
<glyph glyph-name="iacute" unicode="&#xed;" horiz-adv-x="448" d="M413 990 L202 0 L41 0 L251 990 L413 990 Z M671 1410 L382 1133 L268 1133 L468 1410 L671 1410 Z " />
<glyph glyph-name="icircumflex" unicode="&#xee;" horiz-adv-x="448" d="M413 990 L202 0 L41 0 L251 990 L413 990 Z M610 1133 L466 1133 L403 1315 L242 1133 L94 1133 L336 1409 L500 1409 L610 1133 Z " />
<glyph glyph-name="idieresis" unicode="&#xef;" horiz-adv-x="448" d="M413 990 L202 0 L41 0 L251 990 L413 990 Z M258 1387 Q304 1387 336.5 1352.5 Q369 1318 369 1269 Q369 1221 336 1187 Q303 1153 257 1153 Q213 1153 180 1188 Q147 1223 147 1271 Q147 1318 180.5 1352.5 Q214 1387 258 1387 Z M524 1387 Q570 1387 602.5 1352.5 Q635 1318 635 1269 Q635 1221 602 1187 Q569 1153 523 1153 Q479 1153 446 1188 Q413 1223 413 1271 Q413 1318 446.5 1352.5 Q480 1387 524 1387 Z " />
<glyph glyph-name="eth" unicode="&#xf0;" horiz-adv-x="1115" d="M557 1195 L702 1249 L634 1364 L730 1408 L813 1287 L977 1344 L1022 1259 L862 1203 Q949 1056 996.5 900.5 Q1044 745 1044 605 Q1044 334 897 153 Q751 -27 501 -27 Q287 -27 174 97 Q81 200 81 410 Q81 629 190 782 Q270 896 382 956.5 Q494 1017 622 1017 Q694 1017 740 1000 Q786 983 843 936 Q795 1085 748 1161 L595 1108 L557 1195 Z M623 883 Q469 883 359 748 Q238 599 238 409 Q238 302 286 223 Q355 108 510 108 Q671 108 778 248 Q828 312 857.5 409.5 Q887 507 887 604 Q887 751 806 822 Q737 883 623 883 Z " />
<glyph glyph-name="ntilde" unicode="&#xf1;" horiz-adv-x="1104" d="M402 990 L368 832 Q422 915 521 966 Q620 1017 726 1017 Q831 1017 911 968 Q1016 904 1016 773 Q1016 714 991 597 L864 0 L703 0 L832 605 Q850 691 850 749 Q850 882 680 882 Q529 882 421 761 Q346 677 312 518 L202 0 L41 0 L251 990 L402 990 Z M1001 1369 Q958 1253 918.5 1208.5 Q879 1164 818 1164 Q776 1164 703 1200 Q588 1258 555 1258 Q501 1258 476 1168 L384 1168 Q420 1281 458.5 1325.5 Q497 1370 559 1370 Q585 1370 610 1360.5 Q635 1351 759 1295 Q803 1275 819 1275 Q881 1275 908 1369 L1001 1369 Z " />
<glyph glyph-name="ograve" unicode="&#xf2;" horiz-adv-x="1115" d="M631 1019 Q840 1019 950 900 Q1046 795 1046 605 Q1046 486 1007 369.5 Q968 253 899 164 Q749 -29 501 -29 Q241 -29 139 149 Q78 256 78 397 Q78 524 122 644.5 Q166 765 243 848 Q400 1019 631 1019 Z M622 883 Q466 883 360 754 Q305 686 272 591.5 Q239 497 239 403 Q239 296 286 219 Q354 107 510 107 Q676 107 784 263 Q830 330 857 420.5 Q884 511 884 599 Q884 731 814 807 Q744 883 622 883 Z M793 1133 L684 1133 L485 1410 L670 1410 L793 1133 Z " />
<glyph glyph-name="oacute" unicode="&#xf3;" horiz-adv-x="1115" d="M631 1019 Q840 1019 950 900 Q1046 795 1046 605 Q1046 486 1007 369.5 Q968 253 899 164 Q749 -29 501 -29 Q241 -29 139 149 Q78 256 78 397 Q78 524 122 644.5 Q166 765 243 848 Q400 1019 631 1019 Z M622 883 Q466 883 360 754 Q305 686 272 591.5 Q239 497 239 403 Q239 296 286 219 Q354 107 510 107 Q676 107 784 263 Q830 330 857 420.5 Q884 511 884 599 Q884 731 814 807 Q744 883 622 883 Z M1018 1410 L695 1133 L581 1133 L808 1410 L1018 1410 Z " />
<glyph glyph-name="ocircumflex" unicode="&#xf4;" horiz-adv-x="1115" d="M631 1019 Q840 1019 950 900 Q1046 795 1046 605 Q1046 486 1007 369.5 Q968 253 899 164 Q749 -29 501 -29 Q241 -29 139 149 Q78 256 78 397 Q78 524 122 644.5 Q166 765 243 848 Q400 1019 631 1019 Z M622 883 Q466 883 360 754 Q305 686 272 591.5 Q239 497 239 403 Q239 296 286 219 Q354 107 510 107 Q676 107 784 263 Q830 330 857 420.5 Q884 511 884 599 Q884 731 814 807 Q744 883 622 883 Z M965 1133 L821 1133 L737 1315 L556 1133 L401 1133 L670 1409 L834 1409 L965 1133 Z " />
<glyph glyph-name="otilde" unicode="&#xf5;" horiz-adv-x="1115" d="M631 1019 Q840 1019 950 900 Q1046 795 1046 605 Q1046 486 1007 369.5 Q968 253 899 164 Q749 -29 501 -29 Q241 -29 139 149 Q78 256 78 397 Q78 524 122 644.5 Q166 765 243 848 Q400 1019 631 1019 Z M622 883 Q466 883 360 754 Q305 686 272 591.5 Q239 497 239 403 Q239 296 286 219 Q354 107 510 107 Q676 107 784 263 Q830 330 857 420.5 Q884 511 884 599 Q884 731 814 807 Q744 883 622 883 Z M1031 1369 Q988 1253 948.5 1208.5 Q909 1164 848 1164 Q806 1164 734 1200 Q619 1258 585 1258 Q532 1258 506 1168 L414 1168 Q444 1260 466 1293 Q516 1370 589 1370 Q615 1370 640 1360.5 Q665 1351 789 1295 Q833 1275 849 1275 Q911 1275 938 1369 L1031 1369 Z " />
<glyph glyph-name="odieresis" unicode="&#xf6;" horiz-adv-x="1115" d="M631 1019 Q840 1019 950 900 Q1046 795 1046 605 Q1046 486 1007 369.5 Q968 253 899 164 Q749 -29 501 -29 Q241 -29 139 149 Q78 256 78 397 Q78 524 122 644.5 Q166 765 243 848 Q400 1019 631 1019 Z M622 883 Q466 883 360 754 Q305 686 272 591.5 Q239 497 239 403 Q239 296 286 219 Q354 107 510 107 Q676 107 784 263 Q830 330 857 420.5 Q884 511 884 599 Q884 731 814 807 Q744 883 622 883 Z M555 1387 Q601 1387 633.5 1352.5 Q666 1318 666 1269 Q666 1221 633 1187 Q600 1153 554 1153 Q510 1153 477 1188 Q444 1223 444 1271 Q444 1318 477 1352.5 Q510 1387 555 1387 Z M889 1387 Q935 1387 967.5 1352.5 Q1000 1318 1000 1269 Q1000 1221 967 1187 Q934 1153 888 1153 Q844 1153 811 1188 Q778 1223 778 1271 Q778 1318 811 1352.5 Q844 1387 889 1387 Z " />
<glyph glyph-name="divide" unicode="&#xf7;" horiz-adv-x="1092" d="M587 1102 Q632 1102 664.5 1069 Q697 1036 697 991 Q697 944 664.5 911.5 Q632 879 585 879 Q539 879 506.5 912 Q474 945 474 991 Q474 1037 507 1069.5 Q540 1102 587 1102 Z M587 459 Q632 459 664.5 426 Q697 393 697 348 Q697 301 664.5 268.5 Q632 236 586 236 Q539 236 506.5 268.5 Q474 301 474 348 Q474 394 507 426.5 Q540 459 587 459 Z M142 734 L1029 734 L1029 604 L142 604 L142 734 Z " />
<glyph glyph-name="oslash" unicode="&#xf8;" horiz-adv-x="1115" d="M1127 934 L999 821 Q1044 737 1044 602 Q1044 445 977 295 Q831 -30 500 -30 Q394 -30 319.5 -4 Q245 22 184 81 L50 -36 L-17 39 L124 166 Q76 266 76 392 Q76 534 126.5 661.5 Q177 789 268 875 Q419 1017 627 1017 Q732 1017 814.5 986.5 Q897 956 942 901 L1060 1008 L1127 934 Z M820 804 Q791 841 737.5 861.5 Q684 882 617 882 Q425 882 309 686 Q231 554 231 379 Q231 324 255 272 L820 804 Z M870 714 L309 180 Q333 147 387.5 127.5 Q442 108 508 108 Q687 108 800 292 Q887 433 887 619 Q887 664 870 714 Z " />
<glyph glyph-name="ugrave" unicode="&#xf9;" horiz-adv-x="1089" d="M1053 990 L842 0 L692 0 L724 152 Q666 66 578 19.5 Q490 -27 387 -27 Q278 -27 197 23 Q94 87 94 226 Q94 283 117 392 L244 990 L406 990 L296 476 Q258 289 258 246 Q258 107 437 107 Q572 107 672 223 Q747 310 781 470 L892 990 L1053 990 Z M779 1133 L670 1133 L471 1410 L656 1410 L779 1133 Z " />
<glyph glyph-name="uacute" unicode="&#xfa;" horiz-adv-x="1089" d="M1053 990 L842 0 L692 0 L724 152 Q666 66 578 19.5 Q490 -27 387 -27 Q278 -27 197 23 Q94 87 94 226 Q94 283 117 392 L244 990 L406 990 L296 476 Q258 289 258 246 Q258 107 437 107 Q572 107 672 223 Q747 310 781 470 L892 990 L1053 990 Z M997 1410 L675 1133 L560 1133 L787 1410 L997 1410 Z " />
<glyph glyph-name="ucircumflex" unicode="&#xfb;" horiz-adv-x="1089" d="M1053 990 L842 0 L692 0 L724 152 Q666 66 578 19.5 Q490 -27 387 -27 Q278 -27 197 23 Q94 87 94 226 Q94 283 117 392 L244 990 L406 990 L296 476 Q258 289 258 246 Q258 107 437 107 Q572 107 672 223 Q747 310 781 470 L892 990 L1053 990 Z M950 1133 L807 1133 L723 1315 L541 1133 L387 1133 L656 1409 L820 1409 L950 1133 Z " />
<glyph glyph-name="udieresis" unicode="&#xfc;" horiz-adv-x="1089" d="M1053 990 L842 0 L692 0 L724 152 Q666 66 578 19.5 Q490 -27 387 -27 Q278 -27 197 23 Q94 87 94 226 Q94 283 117 392 L244 990 L406 990 L296 476 Q258 289 258 246 Q258 107 437 107 Q572 107 672 223 Q747 310 781 470 L892 990 L1053 990 Z M538 1387 Q584 1387 616.5 1352.5 Q649 1318 649 1269 Q649 1221 616 1187 Q583 1153 537 1153 Q493 1153 460 1188 Q427 1223 427 1271 Q427 1318 460 1352.5 Q493 1387 538 1387 Z M873 1387 Q918 1387 950.5 1352.5 Q983 1318 983 1269 Q983 1221 950 1187 Q917 1153 871 1153 Q827 1153 794 1188 Q761 1223 761 1271 Q761 1318 794 1352.5 Q827 1387 873 1387 Z " />
<glyph glyph-name="yacute" unicode="&#xfd;" horiz-adv-x="890" d="M997 990 L497 97 Q356 -155 289 -249 Q181 -400 23 -400 Q-26 -400 -94 -383 L-62 -243 Q5 -265 35 -265 Q89 -265 137 -219 Q161 -196 228 -90 Q284 -11 284 -3 Q284 -1 284 1 L109 990 L284 990 L346 582 Q391 294 401 190 Q448 295 554 493 L819 990 L997 990 Z M892 1410 L569 1133 L455 1133 L682 1410 L892 1410 Z " />
<glyph glyph-name="thorn" unicode="&#xfe;" horiz-adv-x="1153" d="M492 1365 L386 866 Q507 1018 705 1018 Q865 1018 969 916 Q1082 806 1082 593 Q1082 379 975 207 Q827 -28 558 -28 Q432 -28 350 22 Q268 72 237 166 L121 -381 L-40 -381 L331 1365 L492 1365 Z M662 882 Q503 882 397 746 Q351 687 317 573 Q283 459 283 366 Q283 246 355 175 Q427 104 548 104 Q712 104 817 255 Q917 400 917 596 Q917 746 838 819 Q771 882 662 882 Z " />
<glyph glyph-name="ydieresis" unicode="&#xff;" horiz-adv-x="890" d="M997 990 L497 97 Q356 -155 289 -249 Q181 -400 23 -400 Q-26 -400 -94 -383 L-62 -243 Q5 -265 35 -265 Q89 -265 137 -219 Q161 -196 228 -90 Q284 -11 284 -3 Q284 -1 284 1 L109 990 L284 990 L346 582 Q391 294 401 190 Q448 295 554 493 L819 990 L997 990 Z M439 1387 Q485 1387 517.5 1352.5 Q550 1318 550 1269 Q550 1221 517 1187 Q484 1153 438 1153 Q394 1153 361 1188 Q328 1223 328 1271 Q328 1318 361 1352.5 Q394 1387 439 1387 Z M774 1387 Q819 1387 851.5 1352.5 Q884 1318 884 1269 Q884 1221 851 1187 Q818 1153 772 1153 Q728 1153 695 1188 Q662 1223 662 1271 Q662 1318 695 1352.5 Q728 1387 774 1387 Z " />
<glyph glyph-name="Amacron" unicode="&#x100;" horiz-adv-x="1297" d="M938 1365 L1182 0 L995 0 L930 418 L357 418 L114 0 L-90 0 L735 1365 L938 1365 Z M806 1211 Q717 1040 587 818 L439 565 L908 565 L855 893 Q817 1114 806 1211 Z M1210 1658 L1186 1545 L559 1545 L583 1658 L1210 1658 Z " />
<glyph glyph-name="amacron" unicode="&#x101;" horiz-adv-x="1035" d="M955 1317 L932 1205 L345 1205 L369 1317 L955 1317 Z M909 111 L887 -10 Q820 -23 777 -23 Q714 -23 686 8 Q675 19 664.5 43 Q654 67 654 78 L655 101 L654 106 L655 109 Q656 115 657 117 L653 121 Q589 42 518 12 Q435 -23 326 -23 Q178 -23 98.5 49.5 Q19 122 19 257 Q19 426 145 498 Q215 538 270 549 Q325 560 583 587 Q678 597 718 621 Q768 652 768 727 Q768 869 569 869 Q456 869 388.5 824 Q321 779 302 692 L140 692 Q171 856 291 938 Q403 1013 578 1013 Q731 1013 821 960 Q930 897 930 770 Q930 708 911 628 L823 253 Q810 196 810 158 Q810 108 871 108 Q888 108 909 111 Z M720 506 Q671 479 633 470.5 Q595 462 443 445 Q304 429 243 385 Q182 341 182 257 Q182 195 232 158 Q282 121 366 121 Q463 121 538 161 Q613 201 653 274 Q684 330 724 506 L720 506 Z " />
<glyph glyph-name="Abreve" unicode="&#x102;" horiz-adv-x="1297" d="M938 1365 L1182 0 L995 0 L930 418 L357 418 L114 0 L-90 0 L735 1365 L938 1365 Z M806 1211 Q717 1040 587 818 L439 565 L908 565 L855 893 Q817 1114 806 1211 Z M1189 1737 Q1163 1643 1106 1579 Q1009 1471 855 1471 Q741 1471 678 1527 Q615 1583 615 1686 Q615 1706 618 1737 L715 1737 Q714 1724 714 1716 Q714 1657 755.5 1621 Q797 1585 864 1585 Q943 1585 1005.5 1626.5 Q1068 1668 1093 1737 L1189 1737 Z " />
<glyph glyph-name="abreve" unicode="&#x103;" horiz-adv-x="1035" d="M956 1408 Q882 1142 641 1142 Q412 1142 412 1367 Q412 1378 414 1408 L507 1408 Q510 1333 533 1301 Q568 1252 652 1252 Q805 1252 863 1408 L956 1408 Z M909 111 L887 -10 Q820 -23 777 -23 Q714 -23 686 8 Q675 19 664.5 43 Q654 67 654 78 L655 101 L654 106 L655 109 Q656 115 657 117 L653 121 Q589 42 518 12 Q435 -23 326 -23 Q178 -23 98.5 49.5 Q19 122 19 257 Q19 426 145 498 Q215 538 270 549 Q325 560 583 587 Q678 597 718 621 Q768 652 768 727 Q768 869 569 869 Q456 869 388.5 824 Q321 779 302 692 L140 692 Q171 856 291 938 Q403 1013 578 1013 Q731 1013 821 960 Q930 897 930 770 Q930 708 911 628 L823 253 Q810 196 810 158 Q810 108 871 108 Q888 108 909 111 Z M720 506 Q671 479 633 470.5 Q595 462 443 445 Q304 429 243 385 Q182 341 182 257 Q182 195 232 158 Q282 121 366 121 Q463 121 538 161 Q613 201 653 274 Q684 330 724 506 L720 506 Z " />
<glyph glyph-name="Aogonek" unicode="&#x104;" horiz-adv-x="1297" d="M1182 0 Q1091 -66 1060.5 -103 Q1030 -140 1030 -183 Q1030 -264 1148 -264 Q1182 -264 1226 -250 L1219 -339 Q1152 -360 1097 -360 Q994 -360 945 -311 Q905 -272 905 -212 Q905 -151 943.5 -104 Q982 -57 1077 0 L995 0 L930 418 L357 418 L114 0 L-90 0 L735 1365 L938 1365 L1182 0 Z M806 1211 Q717 1040 587 818 L439 565 L908 565 L855 893 Q817 1114 806 1211 Z " />
<glyph glyph-name="aogonek" unicode="&#x105;" horiz-adv-x="1035" d="M887 -10 Q855 -16 830 -20 Q710 -96 710 -183 Q710 -264 828 -264 Q862 -264 907 -250 L900 -339 Q833 -360 779 -360 Q674 -360 625 -311 Q585 -272 585 -211 Q585 -103 734 -18 Q655 2 655 101 L655 103 L657 117 L653 121 Q589 42 518 12 Q435 -23 327 -23 Q168 -23 89 59 Q19 132 19 257 Q19 426 145 498 Q215 538 270 549 Q325 560 583 587 Q678 597 718 621 Q768 652 768 727 Q768 869 569 869 Q456 869 388.5 824 Q321 779 302 692 L140 692 Q171 856 291 938 Q403 1013 578 1013 Q731 1013 821 960 Q930 897 930 770 Q930 708 911 628 L823 253 Q810 196 810 159 Q810 108 869 108 Q888 108 909 111 L887 -10 Z M720 506 Q671 479 633 470.5 Q595 462 443 445 Q304 429 243 385 Q182 341 182 257 Q182 195 232 158 Q282 121 366 121 Q463 121 538 161 Q613 201 653 274 Q684 330 724 506 L720 506 Z " />
<glyph glyph-name="Cacute" unicode="&#x106;" horiz-adv-x="1380" d="M1308 464 Q1268 295 1167 175 Q996 -30 689 -30 Q422 -30 274 132 Q128 291 128 564 Q128 720 180 874 Q232 1028 322 1139 Q530 1396 874 1396 Q1125 1396 1267 1249 Q1381 1130 1381 957 Q1381 947 1380 927 L1205 927 Q1198 1075 1129 1149 Q1041 1245 851 1245 Q676 1245 544 1134 Q424 1032 357 854 Q304 710 304 561 Q304 367 392 257 Q503 120 694 120 Q858 120 969.5 209 Q1081 298 1124 464 L1308 464 Z M1226 1742 L911 1475 L784 1475 L1010 1742 L1226 1742 Z " />
<glyph glyph-name="cacute" unicode="&#x107;" horiz-adv-x="1030" d="M936 324 Q890 158 768.5 65 Q647 -28 477 -28 Q262 -28 157 108 Q72 218 72 388 Q72 492 105 602.5 Q138 713 193 792 Q349 1017 628 1017 Q811 1017 907 920 Q995 832 995 697 Q995 693 994 676 L832 676 Q832 684 832 686 Q832 782 775.5 832 Q719 882 611 882 Q459 882 355 756 Q302 691 270 592 Q238 493 238 392 Q238 267 290 196 Q354 108 486 108 Q686 108 767 324 L936 324 Z M988 1410 L666 1133 L552 1133 L778 1410 L988 1410 Z " />
<glyph glyph-name="Ccircumflex" unicode="&#x108;" horiz-adv-x="1380" d="M1308 464 Q1268 295 1167 175 Q996 -30 689 -30 Q422 -30 274 132 Q128 291 128 564 Q128 720 180 874 Q232 1028 322 1139 Q530 1396 874 1396 Q1125 1396 1267 1249 Q1381 1130 1381 957 Q1381 947 1380 927 L1205 927 Q1198 1075 1129 1149 Q1041 1245 851 1245 Q676 1245 544 1134 Q424 1032 357 854 Q304 710 304 561 Q304 367 392 257 Q503 120 694 120 Q858 120 969.5 209 Q1081 298 1124 464 L1308 464 Z M1192 1475 L1047 1475 L952 1642 L765 1475 L611 1475 L885 1736 L1049 1736 L1192 1475 Z " />
<glyph glyph-name="ccircumflex" unicode="&#x109;" horiz-adv-x="1030" d="M936 324 Q890 158 768.5 65 Q647 -28 477 -28 Q262 -28 157 108 Q72 218 72 388 Q72 492 105 602.5 Q138 713 193 792 Q349 1017 628 1017 Q811 1017 907 920 Q995 832 995 697 Q995 693 994 676 L832 676 Q832 684 832 686 Q832 782 775.5 832 Q719 882 611 882 Q459 882 355 756 Q302 691 270 592 Q238 493 238 392 Q238 267 290 196 Q354 108 486 108 Q689 108 767 324 L936 324 Z M921 1133 L777 1133 L693 1315 L512 1133 L358 1133 L626 1409 L791 1409 L921 1133 Z " />
<glyph glyph-name="Cdotaccent" unicode="&#x10a;" horiz-adv-x="1380" d="M1308 464 Q1268 295 1167 175 Q996 -30 689 -30 Q422 -30 274 132 Q128 291 128 564 Q128 720 180 874 Q232 1028 322 1139 Q530 1396 874 1396 Q1125 1396 1267 1249 Q1381 1130 1381 957 Q1381 947 1380 927 L1205 927 Q1198 1075 1129 1149 Q1041 1245 851 1245 Q676 1245 544 1134 Q424 1032 357 854 Q304 710 304 561 Q304 367 392 257 Q503 120 694 120 Q858 120 969.5 209 Q1081 298 1124 464 L1308 464 Z M936 1722 Q982 1722 1014.5 1687.5 Q1047 1653 1047 1604 Q1047 1556 1014 1522 Q981 1488 935 1488 Q891 1488 858 1523 Q825 1558 825 1606 Q825 1653 858 1687.5 Q891 1722 936 1722 Z " />
<glyph glyph-name="cdotaccent" unicode="&#x10b;" horiz-adv-x="1030" d="M936 324 Q890 158 768.5 65 Q647 -28 477 -28 Q262 -28 157 108 Q72 218 72 388 Q72 492 105 602.5 Q138 713 193 792 Q349 1017 628 1017 Q811 1017 907 920 Q995 832 995 697 Q995 693 994 676 L832 676 Q832 684 832 686 Q832 782 775.5 832 Q719 882 611 882 Q459 882 355 756 Q302 691 270 592 Q238 493 238 392 Q238 267 290 196 Q354 108 486 108 Q686 108 767 324 L936 324 Z M702 1387 Q748 1387 780.5 1352.5 Q813 1318 813 1269 Q813 1221 780 1187 Q747 1153 701 1153 Q657 1153 624 1188 Q591 1223 591 1271 Q591 1318 624 1352.5 Q657 1387 702 1387 Z " />
<glyph glyph-name="Ccaron" unicode="&#x10c;" horiz-adv-x="1380" d="M1308 464 Q1268 295 1167 175 Q996 -30 689 -30 Q422 -30 274 132 Q128 291 128 564 Q128 720 180 874 Q232 1028 322 1139 Q530 1396 874 1396 Q1125 1396 1267 1249 Q1381 1130 1381 957 Q1381 947 1380 927 L1205 927 Q1198 1075 1129 1149 Q1041 1245 851 1245 Q676 1245 544 1134 Q424 1032 357 854 Q304 710 304 561 Q304 367 392 257 Q503 120 694 120 Q858 120 969.5 209 Q1081 298 1124 464 L1308 464 Z M673 1736 L818 1736 L913 1569 L1100 1736 L1254 1736 L980 1475 L816 1475 L673 1736 Z " />
<glyph glyph-name="ccaron" unicode="&#x10d;" horiz-adv-x="1030" d="M936 324 Q890 158 768.5 65 Q647 -28 477 -28 Q262 -28 157 108 Q72 218 72 388 Q72 492 105 602.5 Q138 713 193 792 Q349 1017 628 1017 Q811 1017 907 920 Q995 832 995 697 Q995 693 994 676 L832 676 Q832 684 832 686 Q832 782 775.5 832 Q719 882 611 882 Q459 882 355 756 Q302 691 270 592 Q238 493 238 392 Q238 267 290 196 Q354 108 486 108 Q686 108 767 324 L936 324 Z M1029 1408 L754 1133 L589 1133 L455 1408 L601 1408 L687 1228 L876 1408 L1029 1408 Z " />
<glyph glyph-name="Dcaron" unicode="&#x10e;" horiz-adv-x="1365" d="M345 1365 L667 1365 Q889 1365 970 1344 Q1169 1294 1262 1117 Q1328 989 1328 819 Q1328 662 1274 508 Q1220 354 1126 242 Q998 90 817 36 Q746 15 670.5 7.5 Q595 0 449 0 L55 0 L345 1365 Z M488 1212 L262 153 L488 153 Q704 153 799 194 Q1010 285 1104 550 Q1153 687 1153 820 Q1153 1082 979 1170 Q898 1212 718 1212 L488 1212 Z M563 1736 L708 1736 L803 1569 L990 1736 L1144 1736 L870 1475 L705 1475 L563 1736 Z " />
<glyph glyph-name="dcaron" unicode="&#x10f;" horiz-adv-x="1331" d="M1196 1365 L906 0 L756 0 L787 146 Q738 62 651 17 Q564 -28 451 -28 Q265 -28 168 75 Q67 182 67 366 Q67 596 192 782 Q350 1017 622 1017 Q739 1017 817 971 Q895 925 923 840 L1035 1365 L1196 1365 Z M628 882 Q434 882 324 707 Q284 642 260 551.5 Q236 461 236 373 Q236 233 314 165 Q379 108 482 108 Q671 108 782 299 Q821 366 846 460 Q871 554 871 632 Q871 757 794 826 Q730 882 628 882 Z M1282 1072 Q1328 1080 1364 1114.5 Q1400 1149 1408 1193 Q1402 1191 1395 1191 L1390 1191 Q1354 1191 1327.5 1217.5 Q1301 1244 1301 1280 Q1301 1319 1328 1347.5 Q1355 1376 1392 1376 Q1437 1376 1464.5 1340.5 Q1492 1305 1492 1248 Q1492 1159 1427 1087.5 Q1362 1016 1266 1000 L1282 1072 Z " />
<glyph glyph-name="Dcroat" unicode="&#x110;" horiz-adv-x="1365" d="M345 1365 L667 1365 Q890 1365 970 1344 Q1169 1294 1262 1117 Q1328 989 1328 819 Q1328 662 1274 508 Q1220 354 1126 242 Q997 90 817 36 Q746 15 670.5 7.5 Q595 0 450 0 L55 0 L192 641 L55 641 L84 778 L221 778 L345 1365 Z M395 778 L755 778 L726 641 L366 641 L262 153 L488 153 Q704 153 800 194 Q1010 285 1104 550 Q1153 686 1153 820 Q1153 1082 979 1170 Q898 1212 718 1212 L488 1212 L395 778 Z " />
<glyph glyph-name="dcroat" unicode="&#x111;" horiz-adv-x="1152" d="M1144 1119 L906 0 L756 0 L787 146 Q738 62 651 17 Q564 -28 451 -28 Q265 -28 168 75 Q67 182 67 366 Q67 596 192 782 Q350 1017 622 1017 Q739 1017 817 971 Q895 925 923 840 L983 1119 L641 1119 L667 1238 L1008 1238 L1035 1365 L1196 1365 L1169 1238 L1306 1238 L1280 1119 L1144 1119 Z M628 882 Q434 882 324 707 Q284 642 260 551.5 Q236 461 236 373 Q236 233 314 165 Q379 108 482 108 Q671 108 782 299 Q821 366 846 460 Q871 554 871 632 Q871 757 794 826 Q730 882 628 882 Z " />
<glyph glyph-name="Emacron" unicode="&#x112;" horiz-adv-x="1195" d="M1290 1365 L1257 1212 L488 1212 L395 776 L1113 776 L1082 629 L363 629 L262 153 L1042 153 L1009 0 L55 0 L345 1365 L1290 1365 Z M1192 1658 L1169 1545 L541 1545 L565 1658 L1192 1658 Z " />
<glyph glyph-name="emacron" unicode="&#x113;" horiz-adv-x="1064" d="M942 311 Q919 213 849 128 Q721 -27 490 -27 Q264 -27 156 118 Q73 229 73 395 Q73 496 103.5 601.5 Q134 707 187 785 Q260 895 370.5 956 Q481 1017 606 1017 Q789 1017 893 907.5 Q997 798 997 605 Q997 538 984 448 L241 448 Q236 411 236 381 Q236 272 286 204 Q357 107 497 107 Q704 107 775 311 L942 311 Z M263 581 L839 581 Q839 597 839 611 Q839 727 795 791 Q733 882 599 882 Q477 882 388.5 802.5 Q300 723 263 581 Z M991 1317 L967 1205 L381 1205 L405 1317 L991 1317 Z " />
<glyph glyph-name="Ebreve" unicode="&#x114;" horiz-adv-x="1195" d="M1290 1365 L1257 1212 L488 1212 L395 776 L1113 776 L1082 629 L363 629 L262 153 L1042 153 L1009 0 L55 0 L345 1365 L1290 1365 Z M1160 1737 Q1134 1643 1077 1579 Q980 1471 826 1471 Q712 1471 649 1527 Q586 1583 586 1686 Q586 1705 589 1737 L686 1737 Q685 1723 685 1716 Q685 1657 726.5 1621 Q768 1585 835 1585 Q914 1585 977 1626.5 Q1040 1668 1064 1737 L1160 1737 Z " />
<glyph glyph-name="ebreve" unicode="&#x115;" horiz-adv-x="1064" d="M942 311 Q919 213 849 128 Q721 -27 490 -27 Q264 -27 156 118 Q73 229 73 395 Q73 496 103.5 601.5 Q134 707 187 785 Q260 895 370.5 956 Q481 1017 606 1017 Q789 1017 893 907.5 Q997 798 997 605 Q997 538 984 448 L241 448 Q236 411 236 381 Q236 272 286 204 Q357 107 497 107 Q704 107 775 311 L942 311 Z M263 581 L839 581 Q839 597 839 611 Q839 727 795 791 Q733 882 599 882 Q477 882 388.5 802.5 Q300 723 263 581 Z M985 1408 Q911 1142 670 1142 Q441 1142 441 1367 Q441 1378 443 1408 L536 1408 Q539 1333 562 1301 Q597 1252 681 1252 Q834 1252 892 1408 L985 1408 Z " />
<glyph glyph-name="Edotaccent" unicode="&#x116;" horiz-adv-x="1195" d="M1290 1365 L1257 1212 L488 1212 L395 776 L1113 776 L1082 629 L363 629 L262 153 L1042 153 L1009 0 L55 0 L345 1365 L1290 1365 Z M860 1722 Q906 1722 938.5 1687.5 Q971 1653 971 1604 Q971 1556 938 1522 Q905 1488 859 1488 Q815 1488 782 1523 Q749 1558 749 1606 Q749 1653 782 1687.5 Q815 1722 860 1722 Z " />
<glyph glyph-name="edotaccent" unicode="&#x117;" horiz-adv-x="1064" d="M942 311 Q919 213 849 128 Q721 -27 490 -27 Q264 -27 156 118 Q73 229 73 395 Q73 496 103.5 601.5 Q134 707 187 785 Q260 895 370.5 956 Q481 1017 606 1017 Q789 1017 893 907.5 Q997 798 997 605 Q997 538 984 448 L241 448 Q236 411 236 381 Q236 272 286 204 Q357 107 497 107 Q704 107 775 311 L942 311 Z M263 581 L839 581 Q839 597 839 611 Q839 727 795 791 Q733 882 599 882 Q477 882 388.5 802.5 Q300 723 263 581 Z M683 1387 Q729 1387 761.5 1352.5 Q794 1318 794 1269 Q794 1221 761 1187 Q728 1153 682 1153 Q638 1153 605 1188 Q572 1223 572 1271 Q572 1318 605 1352.5 Q638 1387 683 1387 Z " />
<glyph glyph-name="Eogonek" unicode="&#x118;" horiz-adv-x="1195" d="M1009 0 Q919 -65 888 -102.5 Q857 -140 857 -183 Q857 -264 975 -264 Q1009 -264 1053 -250 L1046 -339 Q980 -360 925 -360 Q821 -360 772 -311 Q732 -272 732 -212 Q732 -152 770.5 -104 Q809 -56 904 0 L55 0 L345 1365 L1290 1365 L1257 1212 L488 1212 L395 776 L1113 776 L1082 629 L363 629 L262 153 L1042 153 L1009 0 Z " />
<glyph glyph-name="eogonek" unicode="&#x119;" horiz-adv-x="1064" d="M764 -250 L757 -339 Q691 -360 636 -360 Q532 -360 483 -311 Q443 -272 443 -211 Q443 -156 476 -113 Q509 -70 589 -20 Q526 -28 482 -28 Q264 -28 156 118 Q73 229 73 394 Q73 496 103.5 601.5 Q134 707 187 785 Q260 895 370.5 956 Q481 1017 606 1017 Q789 1017 893 907.5 Q997 798 997 605 Q997 538 984 448 L241 448 Q236 411 236 381 Q236 272 286 204 Q357 107 497 107 Q704 107 775 311 L942 311 Q920 218 866.5 149.5 Q813 81 686 -17 Q568 -108 568 -184 Q568 -264 686 -264 Q720 -264 764 -250 Z M263 581 L839 581 Q839 597 839 611 Q839 727 795 791 Q733 882 599 882 Q477 882 388.5 802.5 Q300 723 263 581 Z " />
<glyph glyph-name="Ecaron" unicode="&#x11a;" horiz-adv-x="1195" d="M1290 1365 L1257 1212 L488 1212 L395 776 L1113 776 L1082 629 L363 629 L262 153 L1042 153 L1009 0 L55 0 L345 1365 L1290 1365 Z M615 1736 L760 1736 L855 1569 L1041 1736 L1196 1736 L922 1475 L757 1475 L615 1736 Z " />
<glyph glyph-name="ecaron" unicode="&#x11b;" horiz-adv-x="1064" d="M942 311 Q919 213 849 128 Q721 -27 490 -27 Q264 -27 156 118 Q73 229 73 395 Q73 496 103.5 601.5 Q134 707 187 785 Q260 895 370.5 956 Q481 1017 606 1017 Q789 1017 893 907.5 Q997 798 997 605 Q997 538 984 448 L241 448 Q236 411 236 381 Q236 272 286 204 Q357 107 497 107 Q704 107 775 311 L942 311 Z M263 581 L839 581 Q839 597 839 611 Q839 727 795 791 Q733 882 599 882 Q477 882 388.5 802.5 Q300 723 263 581 Z M1009 1408 L734 1133 L569 1133 L435 1408 L581 1408 L667 1228 L856 1408 L1009 1408 Z " />
<glyph glyph-name="Gcircumflex" unicode="&#x11c;" horiz-adv-x="1467" d="M1392 726 L1237 0 L1123 0 L1119 89 Q1117 129 1116 149 Q1035 55 932.5 12 Q830 -31 688 -31 Q422 -31 274.5 124.5 Q127 280 127 561 Q127 789 218 980 Q312 1181 484.5 1288.5 Q657 1396 884 1396 Q1149 1396 1290 1259 Q1414 1138 1419 949 L1241 949 Q1231 1065 1179 1129 Q1084 1245 878 1245 Q631 1245 470 1060 Q389 967 344 819 Q304 689 304 557 Q304 341 425 222 Q529 120 710 120 Q905 120 1024 231.5 Q1143 343 1200 579 L763 579 L795 726 L1392 726 Z M1215 1475 L1069 1475 L974 1642 L788 1475 L633 1475 L907 1736 L1072 1736 L1215 1475 Z " />
<glyph glyph-name="gcircumflex" unicode="&#x11d;" horiz-adv-x="1138" d="M1102 990 L925 157 Q891 -1 866.5 -75 Q842 -149 803 -211 Q676 -407 387 -407 Q193 -407 87 -313 Q-9 -228 -9 -109 Q-9 -105 -9 -98 L157 -98 Q178 -279 399 -279 Q565 -279 650 -175 Q674 -145 702 -75 Q730 -5 744 62 L761 145 Q652 -10 446 -10 Q312 -10 215 67 Q74 179 74 387 Q74 510 117 635.5 Q160 761 232 846 Q375 1017 595 1017 Q712 1017 794.5 963.5 Q877 910 914 810 L952 990 L1102 990 Z M595 883 Q491 883 410 816 Q305 728 259 557 Q236 469 236 394 Q236 254 319 183 Q384 128 483 128 Q658 128 761 301 Q799 363 821 450.5 Q843 538 843 621 Q843 742 776.5 812.5 Q710 883 595 883 Z M996 1133 L852 1133 L768 1315 L587 1133 L433 1133 L701 1409 L866 1409 L996 1133 Z " />
<glyph glyph-name="Gbreve" unicode="&#x11e;" horiz-adv-x="1467" d="M1392 726 L1237 0 L1123 0 L1119 89 Q1117 129 1116 149 Q1035 55 932.5 12 Q830 -31 688 -31 Q422 -31 274.5 124.5 Q127 280 127 561 Q127 789 218 980 Q312 1181 484.5 1288.5 Q657 1396 884 1396 Q1149 1396 1290 1259 Q1414 1138 1419 949 L1241 949 Q1231 1065 1179 1129 Q1084 1245 878 1245 Q631 1245 470 1060 Q389 967 344 819 Q304 689 304 557 Q304 341 425 222 Q529 120 710 120 Q905 120 1024 231.5 Q1143 343 1200 579 L763 579 L795 726 L1392 726 Z M1280 1737 Q1254 1643 1197 1579 Q1101 1471 947 1471 Q832 1471 769 1527 Q706 1583 706 1685 Q706 1704 709 1737 L806 1737 Q804 1585 955 1585 Q1034 1585 1096.5 1626.5 Q1159 1668 1184 1737 L1280 1737 Z " />
<glyph glyph-name="gbreve" unicode="&#x11f;" horiz-adv-x="1138" d="M1102 990 L925 157 Q891 -1 866.5 -75 Q842 -149 803 -211 Q676 -407 387 -407 Q193 -407 87 -313 Q-9 -228 -9 -109 Q-9 -105 -9 -98 L157 -98 Q178 -279 399 -279 Q565 -279 650 -175 Q674 -145 702 -75 Q730 -5 744 62 L761 145 Q652 -10 446 -10 Q312 -10 215 67 Q74 179 74 387 Q74 510 117 635.5 Q160 761 232 846 Q375 1017 595 1017 Q712 1017 794.5 963.5 Q877 910 914 810 L952 990 L1102 990 Z M595 883 Q491 883 410 816 Q305 728 259 557 Q236 469 236 394 Q236 254 319 183 Q384 128 483 128 Q658 128 761 301 Q799 363 821 450.5 Q843 538 843 621 Q843 742 776.5 812.5 Q710 883 595 883 Z M1044 1408 Q969 1142 729 1142 Q617 1142 558.5 1199.5 Q500 1257 500 1366 Q500 1379 501 1408 L595 1408 Q598 1333 621 1301 Q656 1252 740 1252 Q893 1252 950 1408 L1044 1408 Z " />
<glyph glyph-name="Gdotaccent" unicode="&#x120;" horiz-adv-x="1467" d="M1392 726 L1237 0 L1123 0 L1119 89 Q1117 129 1116 149 Q1035 55 932.5 12 Q830 -31 688 -31 Q422 -31 274.5 124.5 Q127 280 127 561 Q127 789 218 980 Q312 1181 484.5 1288.5 Q657 1396 884 1396 Q1149 1396 1290 1259 Q1414 1138 1419 949 L1241 949 Q1231 1065 1179 1129 Q1084 1245 878 1245 Q631 1245 470 1060 Q389 967 344 819 Q304 689 304 557 Q304 341 425 222 Q529 120 710 120 Q905 120 1024 231.5 Q1143 343 1200 579 L763 579 L795 726 L1392 726 Z M958 1722 Q1004 1722 1036.5 1687.5 Q1069 1653 1069 1604 Q1069 1556 1036 1522 Q1003 1488 957 1488 Q913 1488 880 1523 Q847 1558 847 1606 Q847 1653 880.5 1687.5 Q914 1722 958 1722 Z " />
<glyph glyph-name="gdotaccent" unicode="&#x121;" horiz-adv-x="1138" d="M1102 990 L925 157 Q891 -1 866.5 -75 Q842 -149 803 -211 Q676 -407 387 -407 Q193 -407 87 -313 Q-9 -228 -9 -109 Q-9 -105 -9 -98 L157 -98 Q178 -279 399 -279 Q565 -279 650 -175 Q674 -145 702 -75 Q730 -5 744 62 L761 145 Q652 -10 446 -10 Q312 -10 215 67 Q74 179 74 387 Q74 510 117 635.5 Q160 761 232 846 Q375 1017 595 1017 Q712 1017 794.5 963.5 Q877 910 914 810 L952 990 L1102 990 Z M595 883 Q491 883 410 816 Q305 728 259 557 Q236 469 236 394 Q236 254 319 183 Q384 128 483 128 Q658 128 761 301 Q799 363 821 450.5 Q843 538 843 621 Q843 742 776.5 812.5 Q710 883 595 883 Z M743 1387 Q789 1387 821.5 1352.5 Q854 1318 854 1269 Q854 1221 821 1187 Q788 1153 742 1153 Q698 1153 665 1188 Q632 1223 632 1271 Q632 1318 665 1352.5 Q698 1387 743 1387 Z " />
<glyph glyph-name="Gcommaaccent" unicode="&#x122;" horiz-adv-x="1467" d="M1392 726 L1237 0 L1123 0 L1119 89 Q1117 129 1116 149 Q1035 55 932.5 12 Q830 -31 688 -31 Q422 -31 274.5 124.5 Q127 280 127 561 Q127 789 218 980 Q312 1181 484.5 1288.5 Q657 1396 884 1396 Q1149 1396 1290 1259 Q1414 1138 1419 949 L1241 949 Q1231 1065 1179 1129 Q1084 1245 878 1245 Q631 1245 470 1060 Q389 967 344 819 Q304 689 304 557 Q304 341 425 222 Q529 120 710 120 Q905 120 1024 231.5 Q1143 343 1200 579 L763 579 L795 726 L1392 726 Z M537 -409 Q583 -401 619 -367 Q655 -333 663 -288 Q657 -291 650 -291 L645 -291 Q609 -291 582.5 -264 Q556 -237 556 -202 Q556 -162 583 -133.5 Q610 -105 647 -105 Q692 -105 719.5 -140.5 Q747 -176 747 -233 Q747 -323 682 -394.5 Q617 -466 521 -482 L537 -409 Z " />
<glyph glyph-name="gcommaaccent" unicode="&#x123;" horiz-adv-x="1138" d="M1102 990 L925 157 Q891 -1 866.5 -75 Q842 -149 803 -211 Q676 -407 387 -407 Q193 -407 87 -313 Q-9 -228 -9 -109 Q-9 -105 -9 -98 L157 -98 Q178 -279 399 -279 Q565 -279 650 -175 Q674 -145 702 -75 Q730 -5 744 62 L761 145 Q652 -10 446 -10 Q312 -10 215 67 Q74 179 74 387 Q74 510 117 635.5 Q160 761 232 846 Q375 1017 595 1017 Q712 1017 794.5 963.5 Q877 910 914 810 L952 990 L1102 990 Z M595 883 Q491 883 410 816 Q305 728 259 557 Q236 469 236 394 Q236 254 319 183 Q384 128 483 128 Q658 128 761 301 Q799 363 821 450.5 Q843 538 843 621 Q843 742 776.5 812.5 Q710 883 595 883 Z M843 1427 Q797 1419 761.5 1384.5 Q726 1350 717 1306 Q723 1308 730 1308 L735 1308 Q771 1308 798 1281.5 Q825 1255 825 1219 Q825 1180 798 1151 Q771 1122 734 1122 Q689 1122 661.5 1157.5 Q634 1193 634 1250 Q634 1340 698.5 1411.5 Q763 1483 859 1500 L843 1427 Z " />
<glyph glyph-name="Hcircumflex" unicode="&#x124;" horiz-adv-x="1387" d="M1418 1365 L1128 0 L953 0 L1088 635 L365 635 L230 0 L55 0 L345 1365 L520 1365 L397 788 L1121 788 L1243 1365 L1418 1365 Z M1175 1475 L1030 1475 L935 1642 L748 1475 L594 1475 L868 1736 L1033 1736 L1175 1475 Z " />
<glyph glyph-name="hcircumflex" unicode="&#x125;" horiz-adv-x="1104" d="M492 1365 L381 841 Q465 936 546 977 Q627 1018 730 1018 Q858 1018 936 949.5 Q1014 881 1014 769 Q1014 704 991 594 L864 0 L703 0 L827 581 Q848 681 848 731 Q848 883 680 883 Q603 883 529 844.5 Q455 806 403 740 Q343 663 313 521 L202 0 L41 0 L331 1365 L492 1365 Z M922 1475 L777 1475 L681 1642 L495 1475 L340 1475 L615 1736 L779 1736 L922 1475 Z " />
<glyph glyph-name="Hbar" unicode="&#x126;" horiz-adv-x="1387" d="M1376 1167 L1513 1167 L1484 1030 L1347 1030 L1128 0 L953 0 L1088 635 L365 635 L230 0 L55 0 L274 1030 L138 1030 L167 1167 L303 1167 L345 1365 L520 1365 L478 1167 L1202 1167 L1244 1365 L1418 1365 L1376 1167 Z M449 1030 L397 788 L1121 788 L1173 1030 L449 1030 Z " />
<glyph glyph-name="hbar" unicode="&#x127;" horiz-adv-x="1104" d="M331 1365 L492 1365 L465 1238 L807 1238 L781 1119 L440 1119 L381 841 Q465 935 546 976.5 Q627 1018 730 1018 Q858 1018 936 949.5 Q1014 881 1014 769 Q1014 704 991 594 L864 0 L703 0 L827 581 Q848 681 848 731 Q848 883 680 883 Q603 883 529 844.5 Q455 806 403 740 Q343 663 313 521 L202 0 L41 0 L279 1119 L142 1119 L168 1238 L304 1238 L331 1365 Z " />
<glyph glyph-name="Itilde" unicode="&#x128;" horiz-adv-x="489" d="M520 1365 L230 0 L55 0 L345 1365 L520 1365 Z M811 1708 Q748 1495 621 1495 Q575 1495 497 1531 Q367 1592 342 1592 Q298 1592 254 1503 L156 1503 Q216 1712 346 1712 Q380 1712 407.5 1702 Q435 1692 557 1635 Q598 1616 623 1616 Q676 1616 713 1708 L811 1708 Z " />
<glyph glyph-name="itilde" unicode="&#x129;" horiz-adv-x="448" d="M413 990 L202 0 L41 0 L251 990 L413 990 Z M704 1369 Q661 1254 621.5 1209 Q582 1164 521 1164 Q479 1164 406 1200 Q291 1258 258 1258 Q204 1258 179 1168 L86 1168 Q123 1281 161.5 1325.5 Q200 1370 262 1370 Q288 1370 313 1360.5 Q338 1351 462 1295 Q506 1275 521 1275 Q583 1275 611 1369 L704 1369 Z " />
<glyph glyph-name="Imacron" unicode="&#x12a;" horiz-adv-x="489" d="M520 1365 L230 0 L55 0 L345 1365 L520 1365 Z M733 1658 L710 1545 L232 1545 L256 1658 L733 1658 Z " />
<glyph glyph-name="imacron" unicode="&#x12b;" horiz-adv-x="449" d="M413 990 L202 0 L41 0 L251 990 L413 990 Z M613 1317 L589 1205 L166 1205 L190 1317 L613 1317 Z " />
<glyph glyph-name="Ibreve" unicode="&#x12c;" horiz-adv-x="489" d="M520 1365 L230 0 L55 0 L345 1365 L520 1365 Z M765 1737 Q739 1643 682 1579 Q585 1471 431 1471 Q317 1471 254 1527 Q191 1583 191 1686 Q191 1706 194 1737 L291 1737 Q290 1724 290 1716 Q290 1657 331.5 1621 Q373 1585 440 1585 Q519 1585 581.5 1626.5 Q644 1668 669 1737 L765 1737 Z " />
<glyph glyph-name="ibreve" unicode="&#x12d;" horiz-adv-x="448" d="M413 990 L202 0 L41 0 L251 990 L413 990 Z M660 1401 Q644 1318 584 1246 Q502 1147 381 1147 Q282 1147 228 1203.5 Q174 1260 174 1363 Q174 1376 175 1401 L268 1401 Q268 1392 268 1385 Q268 1325 302 1289.5 Q336 1254 394 1254 Q446 1254 494.5 1295 Q543 1336 567 1401 L660 1401 Z " />
<glyph glyph-name="Iogonek" unicode="&#x12e;" horiz-adv-x="489" d="M230 0 Q91 -95 91 -183 Q91 -220 117.5 -242 Q144 -264 189 -264 Q214 -264 260 -250 L252 -339 Q186 -360 142 -360 Q64 -360 15 -319 Q-34 -278 -34 -212 Q-34 -98 131 0 L55 0 L345 1365 L520 1365 L230 0 Z " />
<glyph glyph-name="iogonek" unicode="&#x12f;" horiz-adv-x="449" d="M202 0 Q134 -62 105.5 -103.5 Q77 -145 77 -182 Q77 -218 102 -240.5 Q127 -263 166 -263 Q188 -263 232 -250 L225 -339 Q158 -360 119 -360 Q48 -360 0 -318 Q-48 -276 -48 -213 Q-48 -154 -11.5 -107 Q25 -60 117 0 L41 0 L251 990 L412 990 L202 0 Z M391 1383 Q436 1383 468.5 1348.5 Q501 1314 501 1265 Q501 1217 468 1183 Q435 1149 389 1149 Q345 1149 312 1184 Q279 1219 279 1267 Q279 1314 312 1348.5 Q345 1383 391 1383 Z " />
<glyph glyph-name="Idot" unicode="&#x130;" horiz-adv-x="489" d="M520 1365 L230 0 L55 0 L345 1365 L520 1365 Z M483 1722 Q529 1722 561.5 1687.5 Q594 1653 594 1604 Q594 1556 561 1522 Q528 1488 482 1488 Q438 1488 405 1523 Q372 1558 372 1606 Q372 1653 405 1687.5 Q438 1722 483 1722 Z " />
<glyph glyph-name="dotlessi" unicode="&#x131;" horiz-adv-x="448" d="M413 990 L202 0 L41 0 L251 990 L413 990 Z " />
<glyph glyph-name="IJ" unicode="&#x132;" horiz-adv-x="1433" d="M520 1365 L230 0 L55 0 L345 1365 L520 1365 Z M1484 1365 L1295 474 Q1263 323 1238.5 248 Q1214 173 1182 124 Q1078 -33 845 -33 Q638 -33 544 79 Q475 161 475 291 Q475 361 493 448 L667 448 Q648 344 648 301 Q648 120 845 120 Q962 120 1028 199 Q1073 252 1114 448 L1309 1365 L1484 1365 Z " />
<glyph glyph-name="ij" unicode="&#x133;" horiz-adv-x="863" d="M413 990 L202 0 L41 0 L251 990 L413 990 Z M391 1383 Q437 1383 469.5 1348.5 Q502 1314 502 1265 Q502 1217 469 1183 Q436 1149 390 1149 Q346 1149 313 1184 Q280 1219 280 1267 Q280 1314 313.5 1348.5 Q347 1383 391 1383 Z M827 990 L620 13 L604 -59 Q565 -236 537 -290 Q480 -400 329 -400 Q283 -400 231 -388 L260 -251 Q289 -265 323 -265 Q378 -265 397 -226 Q416 -187 459 15 L666 990 L827 990 Z M805 1383 Q851 1383 883.5 1348.5 Q916 1314 916 1265 Q916 1217 883 1183 Q850 1149 804 1149 Q760 1149 727 1184 Q694 1219 694 1267 Q694 1314 727 1348.5 Q760 1383 805 1383 Z " />
<glyph glyph-name="Jcircumflex" unicode="&#x134;" horiz-adv-x="957" d="M1008 1365 L819 474 Q787 323 763 248 Q739 173 706 124 Q603 -33 369 -33 Q163 -33 69 79 Q0 161 0 291 Q0 360 17 448 L191 448 Q173 344 173 301 Q173 120 370 120 Q487 120 553 199 Q597 252 639 448 L834 1365 L1008 1365 Z M1215 1475 L1070 1475 L975 1642 L789 1475 L634 1475 L908 1736 L1073 1736 L1215 1475 Z " />
<glyph glyph-name="jcircumflex" unicode="&#x135;" horiz-adv-x="429" d="M393 990 L185 13 L169 -59 Q130 -235 102 -290 Q46 -400 -106 -400 Q-152 -400 -204 -388 L-174 -251 Q-145 -265 -112 -265 Q-57 -265 -37.5 -226 Q-18 -187 24 15 L232 990 L393 990 Z M621 1133 L477 1133 L393 1315 L212 1133 L57 1133 L326 1409 L491 1409 L621 1133 Z " />
<glyph glyph-name="Kcommaaccent" unicode="&#x136;" horiz-adv-x="1272" d="M1402 1365 L743 805 L1185 0 L982 0 L609 695 L328 462 L230 0 L55 0 L345 1365 L520 1365 L375 683 Q410 715 514 805 L584 866 L1159 1365 L1402 1365 Z M399 -409 Q445 -401 480.5 -367 Q516 -333 525 -288 Q519 -291 512 -291 L507 -291 Q471 -291 444 -264 Q417 -237 417 -202 Q417 -162 444 -133.5 Q471 -105 508 -105 Q552 -105 580 -140.5 Q608 -176 608 -233 Q608 -323 543.5 -394.5 Q479 -466 383 -482 L399 -409 Z " />
<glyph glyph-name="kcommaaccent" unicode="&#x137;" horiz-adv-x="971" d="M492 1365 L320 554 Q347 576 397 619 L828 989 L1047 989 L611 626 L857 0 L674 0 L482 525 L277 354 L202 0 L41 0 L331 1365 L492 1365 Z M255 -409 Q301 -401 336.5 -367 Q372 -333 381 -288 Q375 -291 368 -291 L363 -291 Q327 -291 300 -264 Q273 -237 273 -202 Q273 -162 300 -133.5 Q327 -105 364 -105 Q408 -105 436 -140.5 Q464 -176 464 -233 Q464 -323 399.5 -394.5 Q335 -466 239 -482 L255 -409 Z " />
<glyph glyph-name="kgreenlandic" unicode="&#x138;" horiz-adv-x="971" d="M413 990 L320 554 Q347 576 397 619 L828 989 L1047 989 L611 626 L857 0 L674 0 L482 525 L277 354 L202 0 L41 0 L251 990 L413 990 Z " />
<glyph glyph-name="Lacute" unicode="&#x139;" horiz-adv-x="1104" d="M520 1365 L262 153 L994 153 L962 0 L55 0 L345 1365 L520 1365 Z M788 1742 L473 1475 L345 1475 L571 1742 L788 1742 Z " />
<glyph glyph-name="lacute" unicode="&#x13a;" horiz-adv-x="448" d="M492 1365 L202 0 L41 0 L331 1365 L492 1365 Z M740 1742 L459 1475 L338 1475 L537 1742 L740 1742 Z " />
<glyph glyph-name="Lcommaaccent" unicode="&#x13b;" horiz-adv-x="1104" d="M520 1365 L262 153 L994 153 L962 0 L55 0 L345 1365 L520 1365 Z M345 -409 Q391 -401 426.5 -367 Q462 -333 471 -288 Q465 -291 458 -291 L453 -291 Q417 -291 390 -264 Q363 -237 363 -202 Q363 -162 390 -133.5 Q417 -105 454 -105 Q499 -105 526.5 -140.5 Q554 -176 554 -233 Q554 -323 489.5 -394.5 Q425 -466 329 -482 L345 -409 Z " />
<glyph glyph-name="lcommaaccent" unicode="&#x13c;" horiz-adv-x="448" d="M493 1365 L203 0 L42 0 L332 1365 L493 1365 Z M-40 -409 Q6 -401 41.5 -367 Q77 -333 86 -288 Q80 -291 73 -291 L68 -291 Q32 -291 5.5 -264 Q-21 -237 -21 -202 Q-21 -162 6 -133.5 Q33 -105 70 -105 Q114 -105 142 -140.5 Q170 -176 170 -233 Q170 -323 105 -394.5 Q40 -466 -56 -482 L-40 -409 Z " />
<glyph glyph-name="Lcaron" unicode="&#x13d;" horiz-adv-x="1104" d="M520 1365 L262 153 L994 153 L962 0 L55 0 L345 1365 L520 1365 Z M729 1072 Q775 1080 810.5 1114.5 Q846 1149 855 1193 Q849 1191 842 1191 L837 1191 Q801 1191 774 1217.5 Q747 1244 747 1280 Q747 1319 774 1347.5 Q801 1376 838 1376 Q882 1376 910 1340.5 Q938 1305 938 1248 Q938 1158 873.5 1087 Q809 1016 713 1000 L729 1072 Z " />
<glyph glyph-name="lcaron" unicode="&#x13e;" horiz-adv-x="628" d="M492 1365 L202 0 L41 0 L331 1365 L492 1365 Z M578 1072 Q624 1080 660 1114.5 Q696 1149 705 1193 Q698 1191 691 1191 L686 1191 Q650 1191 623.5 1217.5 Q597 1244 597 1280 Q597 1319 624 1347.5 Q651 1376 688 1376 Q733 1376 760.5 1340.5 Q788 1305 788 1248 Q788 1159 723.5 1087.5 Q659 1016 562 1000 L578 1072 Z " />
<glyph glyph-name="Ldot" unicode="&#x13f;" horiz-adv-x="1104" d="M520 1365 L262 153 L994 153 L962 0 L55 0 L345 1365 L520 1365 Z M841 814 Q887 814 919 779.5 Q951 745 951 695 Q951 648 918 614 Q885 580 840 580 Q794 580 761.5 615.5 Q729 651 729 700 Q729 745 762.5 779.5 Q796 814 841 814 Z " />
<glyph glyph-name="ldot" unicode="&#x140;" horiz-adv-x="687" d="M492 1365 L202 0 L41 0 L331 1365 L492 1365 Z M615 814 Q661 814 693 779.5 Q725 745 725 695 Q725 648 692 614 Q659 580 614 580 Q568 580 535.5 615.5 Q503 651 503 700 Q503 745 536.5 779.5 Q570 814 615 814 Z " />
<glyph glyph-name="Lslash" unicode="&#x141;" horiz-adv-x="1104" d="M358 601 L262 153 L994 153 L962 0 L55 0 L168 528 L9 429 L45 597 L203 696 L345 1365 L520 1365 L393 768 L758 999 L723 831 L358 601 Z " />
<glyph glyph-name="lslash" unicode="&#x142;" horiz-adv-x="448" d="M343 665 L202 0 L41 0 L169 602 L29 515 L62 669 L202 756 L331 1365 L492 1365 L376 819 L516 906 L484 752 L343 665 Z " />
<glyph glyph-name="Nacute" unicode="&#x143;" horiz-adv-x="1408" d="M1439 1365 L1149 0 L946 0 L561 905 Q493 1066 464 1165 Q449 1030 395 777 L230 0 L55 0 L345 1365 L542 1365 L926 462 Q989 312 1029 189 Q1069 449 1112 649 L1264 1365 L1439 1365 Z M1227 1742 L912 1475 L784 1475 L1010 1742 L1227 1742 Z " />
<glyph glyph-name="nacute" unicode="&#x144;" horiz-adv-x="1104" d="M402 990 L368 832 Q422 915 521 966 Q620 1017 726 1017 Q831 1017 911 968 Q1016 904 1016 773 Q1016 714 991 597 L864 0 L703 0 L832 605 Q850 691 850 749 Q850 882 680 882 Q529 882 421 761 Q346 677 312 518 L202 0 L41 0 L251 990 L402 990 Z M984 1410 L662 1133 L548 1133 L774 1410 L984 1410 Z " />
<glyph glyph-name="Ncommaaccent" unicode="&#x145;" horiz-adv-x="1408" d="M1439 1365 L1149 0 L946 0 L561 905 Q493 1066 464 1165 Q449 1030 395 777 L230 0 L55 0 L345 1365 L542 1365 L926 462 Q989 312 1029 189 Q1069 449 1112 649 L1264 1365 L1439 1365 Z M426 -409 Q472 -401 507.5 -367 Q543 -333 552 -288 Q546 -291 539 -291 L534 -291 Q498 -291 471.5 -264 Q445 -237 445 -202 Q445 -162 472 -133.5 Q499 -105 536 -105 Q580 -105 608 -140.5 Q636 -176 636 -233 Q636 -323 571 -394.5 Q506 -466 410 -482 L426 -409 Z " />
<glyph glyph-name="ncommaaccent" unicode="&#x146;" horiz-adv-x="1104" d="M402 990 L368 832 Q422 915 521 966 Q620 1017 726 1017 Q831 1017 911 968 Q1016 904 1016 773 Q1016 714 991 597 L864 0 L703 0 L832 605 Q850 691 850 749 Q850 882 680 882 Q529 882 421 761 Q346 677 312 518 L202 0 L41 0 L251 990 L402 990 Z M287 -409 Q333 -401 369 -367 Q405 -333 413 -288 Q407 -291 400 -291 L395 -291 Q359 -291 332.5 -264 Q306 -237 306 -202 Q306 -162 333 -133.5 Q360 -105 397 -105 Q442 -105 469.5 -140.5 Q497 -176 497 -233 Q497 -323 432 -394.5 Q367 -466 271 -482 L287 -409 Z " />
<glyph glyph-name="Ncaron" unicode="&#x147;" horiz-adv-x="1408" d="M1439 1365 L1149 0 L946 0 L561 905 Q493 1066 464 1165 Q449 1030 395 777 L230 0 L55 0 L345 1365 L542 1365 L926 462 Q989 312 1029 189 Q1069 449 1112 649 L1264 1365 L1439 1365 Z M687 1736 L832 1736 L927 1569 L1114 1736 L1268 1736 L994 1475 L830 1475 L687 1736 Z " />
<glyph glyph-name="ncaron" unicode="&#x148;" horiz-adv-x="1104" d="M402 990 L368 832 Q422 915 521 966 Q620 1017 726 1017 Q831 1017 911 968 Q1016 904 1016 773 Q1016 714 991 597 L864 0 L703 0 L832 605 Q850 691 850 749 Q850 882 680 882 Q529 882 421 761 Q346 677 312 518 L202 0 L41 0 L251 990 L402 990 Z M1019 1408 L743 1133 L578 1133 L444 1408 L590 1408 L676 1228 L865 1408 L1019 1408 Z " />
<glyph glyph-name="napostrophe" unicode="&#x149;" horiz-adv-x="1519" d="M266 993 Q322 1002 367 1045 Q412 1088 423 1144 Q415 1140 407 1140 L401 1140 Q356 1140 322.5 1173 Q289 1206 289 1251 Q289 1301 323 1336.5 Q357 1372 403 1372 Q458 1372 492.5 1327.5 Q527 1283 527 1213 Q527 1104 444 1010 Q365 922 246 902 L266 993 Z M817 990 L783 832 Q837 915 936 966 Q1035 1017 1141 1017 Q1246 1017 1326 968 Q1431 904 1431 773 Q1431 713 1406 597 L1280 0 L1118 0 L1247 605 Q1265 690 1265 749 Q1265 882 1095 882 Q944 882 836 761 Q761 677 727 518 L617 0 L456 0 L667 990 L817 990 Z " />
<glyph glyph-name="Eng" unicode="&#x14a;" horiz-adv-x="1384" d="M520 1365 L477 1162 Q556 1244 613 1283 Q782 1397 993 1397 Q1188 1397 1280 1295 Q1346 1222 1346 1109 Q1346 1038 1317 903 L1120 -25 Q1090 -167 1073.5 -215 Q1057 -263 1025 -302 Q948 -398 778 -398 Q745 -398 705 -392 L734 -254 Q766 -261 792 -261 Q844 -261 870 -243 Q896 -225 908 -181 Q925 -122 945 -26 L1127 828 Q1161 990 1161 1041 Q1161 1125 1104 1184 Q1041 1249 902 1249 Q721 1249 586 1136 Q506 1069 461.5 974.5 Q417 880 377 692 L230 0 L55 0 L345 1365 L520 1365 Z " />
<glyph glyph-name="eng" unicode="&#x14b;" horiz-adv-x="1104" d="M402 990 L368 832 Q422 915 521 966 Q620 1017 726 1017 Q831 1017 911 968 Q1016 904 1016 773 Q1016 714 991 597 L867 13 L851 -59 Q812 -235 784 -290 Q728 -400 576 -400 Q530 -400 478 -388 L508 -251 Q537 -265 570 -265 Q625 -265 644.5 -226 Q664 -187 706 15 L832 605 Q850 691 850 749 Q850 882 680 882 Q529 882 421 761 Q346 677 312 518 L202 0 L41 0 L251 990 L402 990 Z " />
<glyph glyph-name="Omacron" unicode="&#x14c;" horiz-adv-x="1490" d="M876 1395 Q1086 1395 1233 1288 Q1448 1131 1448 809 Q1448 467 1250 223 Q1044 -31 703 -31 Q383 -31 232 195 Q129 347 129 569 Q129 827 251 1042 Q347 1212 509.5 1303.5 Q672 1395 876 1395 Z M867 1245 Q640 1245 490 1084 Q404 993 355.5 855.5 Q307 718 307 569 Q307 396 382 284 Q494 119 717 119 Q940 119 1093 293 Q1189 402 1232 549 Q1271 684 1271 813 Q1271 1000 1171 1121 Q1067 1245 867 1245 Z M1302 1658 L1278 1545 L651 1545 L674 1658 L1302 1658 Z " />
<glyph glyph-name="omacron" unicode="&#x14d;" horiz-adv-x="1115" d="M631 1019 Q840 1019 950 900 Q1046 795 1046 605 Q1046 486 1007 369.5 Q968 253 899 164 Q749 -29 501 -29 Q241 -29 139 149 Q78 256 78 397 Q78 524 122 644.5 Q166 765 243 848 Q400 1019 631 1019 Z M622 883 Q466 883 360 754 Q305 686 272 591.5 Q239 497 239 403 Q239 296 286 219 Q354 107 510 107 Q676 107 784 263 Q830 330 857 420.5 Q884 511 884 599 Q884 731 814 807 Q744 883 622 883 Z M1023 1317 L1000 1205 L413 1205 L437 1317 L1023 1317 Z " />
<glyph glyph-name="Obreve" unicode="&#x14e;" horiz-adv-x="1490" d="M876 1395 Q1086 1395 1233 1288 Q1448 1131 1448 809 Q1448 467 1250 223 Q1044 -31 703 -31 Q383 -31 231 195 Q128 347 128 569 Q128 827 251 1042 Q347 1212 509.5 1303.5 Q672 1395 876 1395 Z M867 1245 Q640 1245 490 1084 Q404 993 355.5 856 Q307 719 307 569 Q307 395 382 284 Q494 119 717 119 Q940 119 1094 293 Q1189 402 1232 549 Q1271 684 1271 813 Q1271 1000 1171 1121 Q1068 1245 867 1245 Z M1224 1737 Q1198 1643 1141 1579 Q1044 1471 890 1471 Q776 1471 713 1527.5 Q650 1584 650 1686 Q650 1702 653 1737 L750 1737 Q749 1723 749 1716 Q749 1657 790.5 1621 Q832 1585 899 1585 Q978 1585 1041 1626.5 Q1104 1668 1128 1737 L1224 1737 Z " />
<glyph glyph-name="obreve" unicode="&#x14f;" horiz-adv-x="1115" d="M631 1019 Q840 1019 950 900 Q1046 795 1046 605 Q1046 486 1007 369.5 Q968 253 899 164 Q749 -29 501 -29 Q241 -29 139 149 Q78 256 78 397 Q78 524 122 644.5 Q166 765 243 848 Q400 1019 631 1019 Z M622 883 Q466 883 360 754 Q305 687 272 592 Q239 497 239 403 Q239 296 286 219 Q354 107 510 107 Q676 107 784 263 Q830 330 857 420.5 Q884 511 884 599 Q884 732 814 807.5 Q744 883 622 883 Z M1010 1408 Q936 1142 695 1142 Q466 1142 466 1367 Q466 1378 468 1408 L561 1408 Q565 1333 588 1301 Q623 1252 707 1252 Q860 1252 917 1408 L1010 1408 Z " />
<glyph glyph-name="Ohungarumlaut" unicode="&#x150;" horiz-adv-x="1490" d="M876 1395 Q1086 1395 1233 1288 Q1448 1131 1448 809 Q1448 467 1250 223 Q1044 -31 703 -31 Q383 -31 231 195 Q128 347 128 569 Q128 827 251 1042 Q347 1212 509.5 1303.5 Q672 1395 876 1395 Z M867 1245 Q640 1245 490 1084 Q404 993 355.5 856 Q307 719 307 569 Q307 395 382 284 Q494 119 717 119 Q940 119 1094 293 Q1189 402 1232 549 Q1271 684 1271 813 Q1271 1000 1171 1121 Q1068 1245 867 1245 Z M1083 1742 L830 1475 L716 1475 L887 1742 L1083 1742 Z M1397 1742 L1144 1475 L1030 1475 L1201 1742 L1397 1742 Z " />
<glyph glyph-name="ohungarumlaut" unicode="&#x151;" horiz-adv-x="1115" d="M631 1019 Q840 1019 950 900 Q1046 795 1046 605 Q1046 486 1007 369.5 Q968 253 899 164 Q749 -29 501 -29 Q241 -29 139 149 Q78 256 78 397 Q78 524 122 644.5 Q166 765 243 848 Q400 1019 631 1019 Z M622 883 Q466 883 360 754 Q305 687 272 592 Q239 497 239 403 Q239 296 286 219 Q354 107 510 107 Q676 107 784 263 Q830 330 857 420.5 Q884 511 884 599 Q884 732 814 807.5 Q744 883 622 883 Z M835 1410 L594 1133 L490 1133 L649 1410 L835 1410 Z M1109 1410 L867 1133 L764 1133 L929 1410 L1109 1410 Z " />
<glyph glyph-name="OE" unicode="&#x152;" horiz-adv-x="2080" d="M2171 1365 L2138 1212 L1406 1212 L1313 776 L1984 776 L1953 629 L1282 629 L1181 153 L1926 153 L1893 0 L984 0 L1008 114 Q883 -27 665 -27 Q405 -27 259 157 Q130 320 130 573 Q130 813 237 1013 Q345 1214 539 1314 Q689 1392 859 1392 Q1031 1392 1145 1314 Q1218 1264 1242 1217 L1274 1365 L2171 1365 Z M1078 494 L1175 947 Q1186 999 1186 1025 Q1186 1066 1158.5 1110 Q1131 1154 1088 1181 Q993 1242 862 1242 Q641 1242 489 1078 Q388 969 340 800 Q308 688 308 573 Q308 330 439 210 Q536 121 683 121 Q760 121 831 148 Q994 209 1046 361 Q1059 401 1078 494 Z " />
<glyph glyph-name="oe" unicode="&#x153;" horiz-adv-x="1743" d="M1633 311 Q1576 149 1453.5 60.5 Q1331 -28 1162 -28 Q1004 -28 923 30 Q852 81 816 172 Q752 81 689 40 Q586 -28 443 -28 Q241 -28 144 100 Q66 203 66 364 Q66 548 157 721 Q230 858 348 937 Q470 1018 629 1018 Q751 1018 834.5 966.5 Q918 915 950 821 Q1080 1017 1323 1017 Q1522 1017 1621 881 Q1689 788 1689 637 Q1689 542 1662 448 L949 448 Q935 392 935 345 Q935 251 978 192 Q1040 107 1175 107 Q1383 107 1466 311 L1633 311 Z M605 885 Q453 885 358 758 Q301 682 267.5 578.5 Q234 475 234 376 Q234 249 293 178 Q353 107 468 107 Q654 107 752 301 Q782 361 808 471 Q834 581 834 648 Q834 769 765 830 Q703 885 605 885 Z M973 581 L1525 581 Q1531 614 1531 638 Q1531 731 1484 799 Q1425 882 1300 882 Q1177 882 1093 804.5 Q1009 727 973 581 Z " />
<glyph glyph-name="Racute" unicode="&#x154;" horiz-adv-x="1356" d="M341 1365 L853 1365 Q972 1365 1036.5 1354.5 Q1101 1344 1151 1317 Q1312 1231 1312 1024 Q1312 879 1233 782 Q1154 685 1008 651 Q1082 618 1114 566 Q1146 514 1146 425 Q1146 370 1131 222 Q1125 156 1125 114 Q1125 44 1149 0 L962 0 Q946 35 946 105 Q946 142 957 236 Q972 360 972 421 Q972 521 920.5 555.5 Q869 590 722 590 L351 590 L226 0 L51 0 L341 1365 Z M484 1212 L383 737 L756 737 Q857 737 919.5 748.5 Q982 760 1020 786 Q1070 821 1099 879.5 Q1128 938 1128 1004 Q1128 1123 1042 1177 Q988 1212 833 1212 L484 1212 Z M1132 1742 L817 1475 L690 1475 L916 1742 L1132 1742 Z " />
<glyph glyph-name="racute" unicode="&#x155;" horiz-adv-x="658" d="M774 1012 L737 839 Q705 844 671 844 Q522 844 418 724 Q361 658 330 563 Q308 498 295 440 L202 0 L41 0 L251 990 L402 990 L357 778 Q398 882 498.5 949 Q599 1016 713 1016 Q742 1016 774 1012 Z M836 1410 L514 1133 L400 1133 L626 1410 L836 1410 Z " />
<glyph glyph-name="Rcommaaccent" unicode="&#x156;" horiz-adv-x="1356" d="M341 1365 L853 1365 Q972 1365 1036.5 1354.5 Q1101 1344 1151 1317 Q1312 1231 1312 1024 Q1312 879 1233 782 Q1154 685 1008 651 Q1082 618 1114 566 Q1146 514 1146 425 Q1146 370 1131 222 Q1125 156 1125 114 Q1125 44 1149 0 L962 0 Q946 35 946 105 Q946 142 957 236 Q972 360 972 421 Q972 521 920.5 555.5 Q869 590 722 590 L351 590 L226 0 L51 0 L341 1365 Z M484 1212 L383 737 L756 737 Q857 737 919.5 748.5 Q982 760 1020 786 Q1070 821 1099 879.5 Q1128 938 1128 1004 Q1128 1123 1042 1177 Q988 1212 833 1212 L484 1212 Z M400 -409 Q446 -401 482 -367 Q518 -333 527 -288 Q520 -291 513 -291 L508 -291 Q472 -291 445.5 -264 Q419 -237 419 -202 Q419 -162 446 -133.5 Q473 -105 510 -105 Q554 -105 582 -140.5 Q610 -176 610 -233 Q610 -323 545.5 -394.5 Q481 -466 384 -482 L400 -409 Z " />
<glyph glyph-name="rcommaaccent" unicode="&#x157;" horiz-adv-x="658" d="M774 1012 L737 839 Q705 844 671 844 Q522 844 419 724 Q361 658 330 563 Q309 500 296 440 L203 0 L42 0 L252 990 L402 990 L357 778 Q399 882 499.5 949 Q600 1016 714 1016 Q742 1016 774 1012 Z M-35 -409 Q11 -401 46.5 -367 Q82 -333 91 -288 Q85 -291 78 -291 L73 -291 Q37 -291 10.5 -264 Q-16 -237 -16 -202 Q-16 -162 11 -133.5 Q38 -105 75 -105 Q119 -105 147 -140.5 Q175 -176 175 -233 Q175 -323 110 -394.5 Q45 -466 -51 -482 L-35 -409 Z " />
<glyph glyph-name="Rcaron" unicode="&#x158;" horiz-adv-x="1356" d="M341 1365 L853 1365 Q972 1365 1036.5 1354.5 Q1101 1344 1151 1317 Q1312 1231 1312 1024 Q1312 879 1233 782 Q1154 685 1008 651 Q1082 618 1114 566 Q1146 514 1146 425 Q1146 370 1131 222 Q1125 156 1125 114 Q1125 44 1149 0 L962 0 Q946 35 946 105 Q946 142 957 236 Q972 360 972 421 Q972 521 920.5 555.5 Q869 590 722 590 L351 590 L226 0 L51 0 L341 1365 Z M484 1212 L383 737 L756 737 Q857 737 919.5 748.5 Q982 760 1020 786 Q1070 821 1099 879.5 Q1128 938 1128 1004 Q1128 1123 1042 1177 Q988 1212 833 1212 L484 1212 Z M586 1736 L731 1736 L826 1569 L1013 1736 L1167 1736 L893 1475 L729 1475 L586 1736 Z " />
<glyph glyph-name="rcaron" unicode="&#x159;" horiz-adv-x="658" d="M774 1012 L737 839 Q705 844 671 844 Q522 844 418 724 Q361 658 329 563 Q308 500 295 440 L202 0 L41 0 L251 990 L402 990 L357 778 Q398 882 498.5 949 Q599 1016 713 1016 Q742 1016 774 1012 Z M874 1408 L598 1133 L433 1133 L300 1408 L446 1408 L531 1228 L720 1408 L874 1408 Z " />
<glyph glyph-name="Sacute" unicode="&#x15a;" horiz-adv-x="1209" d="M1177 969 L1006 969 Q1005 1043 993 1083.5 Q981 1124 951 1156 Q870 1243 687 1243 Q534 1243 452 1179 Q369 1115 369 1013 Q369 925 434 875.5 Q499 826 673 783 Q866 735 949 684 Q1102 591 1102 396 Q1102 223 972 103 Q830 -27 567 -27 Q323 -27 186 85 Q45 200 45 423 Q45 432 45 453 L219 453 Q219 439 219 436 Q219 276 299 203 Q388 123 572 123 Q768 123 863 226 Q927 295 927 386 Q927 484 859 538 Q804 581 629 626 Q506 657 448 678.5 Q390 700 339 733 Q199 823 199 1003 Q199 1094 240.5 1173 Q282 1252 356 1304 Q484 1393 693 1393 Q884 1393 1004 1320 Q1097 1264 1137.5 1186.5 Q1178 1109 1178 988 Q1178 986 1177 969 Z M1073 1742 L757 1475 L630 1475 L856 1742 L1073 1742 Z " />
<glyph glyph-name="sacute" unicode="&#x15b;" horiz-adv-x="924" d="M868 702 L708 702 Q707 882 491 882 Q399 882 346 846 Q292 809 292 751 Q292 682 377 639 Q417 619 562 560 Q687 510 737 462 Q812 391 812 292 Q812 227 783.5 165 Q755 103 706 62 Q602 -28 407 -28 Q214 -28 111.5 60.5 Q9 149 9 315 L168 315 Q167 241 201 192 Q263 104 423 104 Q530 104 590 152 Q649 198 649 266 Q649 319 611 354 Q573 389 474 428 Q275 506 216 555 Q129 626 129 735 Q129 862 233.5 940 Q338 1018 506 1018 Q697 1018 790 922 Q868 841 868 714 Q868 710 868 702 Z M874 1410 L552 1133 L438 1133 L664 1410 L874 1410 Z " />
<glyph glyph-name="Scircumflex" unicode="&#x15c;" horiz-adv-x="1209" d="M1177 969 L1006 969 Q1005 1043 993 1083.5 Q981 1124 951 1156 Q870 1243 687 1243 Q534 1243 452 1179 Q369 1115 369 1013 Q369 925 434 875.5 Q499 826 673 783 Q866 735 949 684 Q1102 591 1102 396 Q1102 223 972 103 Q830 -27 567 -27 Q323 -27 186 85 Q45 200 45 423 Q45 432 45 453 L219 453 Q219 439 219 436 Q219 276 299 203 Q388 123 572 123 Q768 123 863 226 Q927 295 927 386 Q927 484 859 538 Q804 581 629 626 Q506 657 448 678.5 Q390 700 339 733 Q199 823 199 1003 Q199 1094 240.5 1173 Q282 1252 356 1304 Q484 1393 693 1393 Q884 1393 1004 1320 Q1097 1264 1137.5 1186.5 Q1178 1109 1178 988 Q1178 986 1177 969 Z M1052 1475 L907 1475 L812 1642 L625 1475 L471 1475 L745 1736 L909 1736 L1052 1475 Z " />
<glyph glyph-name="scircumflex" unicode="&#x15d;" horiz-adv-x="924" d="M868 702 L708 702 Q707 882 491 882 Q399 882 346 846 Q292 809 292 751 Q292 682 377 639 Q417 619 562 560 Q687 510 737 462 Q812 391 812 292 Q812 227 783.5 165 Q755 103 706 62 Q602 -28 407 -28 Q214 -28 111.5 60.5 Q9 149 9 315 L168 315 Q167 241 201 192 Q263 104 423 104 Q530 104 590 152 Q649 198 649 266 Q649 319 611 354 Q573 389 474 428 Q275 506 216 555 Q129 626 129 735 Q129 862 233.5 940 Q338 1018 506 1018 Q697 1018 790 922 Q868 841 868 714 Q868 710 868 702 Z M834 1133 L691 1133 L607 1315 L426 1133 L271 1133 L540 1409 L704 1409 L834 1133 Z " />
<glyph glyph-name="Scedilla" unicode="&#x15e;" horiz-adv-x="1209" d="M518 -27 L453 -110 Q492 -102 516 -102 Q585 -102 629.5 -140.5 Q674 -179 674 -239 Q674 -312 610.5 -360.5 Q547 -409 451 -409 Q362 -409 256 -367 L292 -299 Q372 -329 433 -329 Q479 -329 508 -307 Q537 -285 537 -250 Q537 -217 509.5 -195.5 Q482 -174 441 -174 Q412 -174 369 -187 L338 -153 L447 -19 Q45 41 45 423 Q45 432 45 453 L219 453 Q219 439 219 436 Q219 277 299 204 Q388 124 572 124 Q768 124 863 227 Q927 295 927 387 Q927 485 859 539 Q804 581 629 626 Q506 658 448 679.5 Q390 701 339 734 Q199 824 199 1003 Q199 1094 240.5 1173.5 Q282 1253 356 1304 Q484 1393 693 1393 Q884 1393 1004 1320 Q1095 1265 1136.5 1187.5 Q1178 1110 1178 993 Q1178 989 1177 969 L1006 969 Q1005 1097 951 1156 Q870 1243 687 1243 Q534 1243 452 1179 Q369 1115 369 1013 Q369 925 434 875.5 Q499 826 673 783 Q867 734 949 684 Q1102 591 1102 396 Q1102 224 972 104 Q891 29 794 1 Q697 -27 518 -27 Z " />
<glyph glyph-name="scedilla" unicode="&#x15f;" horiz-adv-x="924" d="M370 -27 L304 -110 Q343 -102 367 -102 Q436 -102 481 -140.5 Q526 -179 526 -239 Q526 -312 462.5 -360.5 Q399 -409 303 -409 Q213 -409 108 -367 L143 -299 Q223 -329 284 -329 Q331 -329 360 -307 Q389 -285 389 -250 Q389 -217 361.5 -195.5 Q334 -174 293 -174 Q263 -174 221 -187 L189 -153 L298 -19 Q9 33 10 315 L169 315 Q168 241 202 192 Q263 104 424 104 Q530 104 590 152 Q649 198 649 266 Q649 319 611 354 Q573 389 474 428 Q275 506 216 555 Q130 626 130 736 Q130 862 234.5 940 Q339 1018 507 1018 Q698 1018 791 922 Q869 841 869 714 Q869 710 869 702 L709 702 Q708 882 492 882 Q400 882 347 846 Q293 809 293 751 Q293 682 378 639 Q418 619 562 560 Q688 509 738 462 Q812 391 812 292 Q812 206 765 131.5 Q718 57 641 19 Q547 -27 400 -27 Q389 -27 370 -27 Z " />
<glyph glyph-name="Scaron" unicode="&#x160;" horiz-adv-x="1209" d="M1177 969 L1006 969 Q1005 1043 993 1083.5 Q981 1124 951 1156 Q870 1243 687 1243 Q534 1243 452 1179 Q369 1115 369 1013 Q369 925 434 875.5 Q499 826 673 783 Q866 735 949 684 Q1102 591 1102 396 Q1102 223 972 103 Q830 -27 567 -27 Q323 -27 186 85 Q45 200 45 423 Q45 432 45 453 L219 453 Q219 439 219 436 Q219 276 299 203 Q388 123 572 123 Q768 123 863 226 Q927 295 927 386 Q927 484 859 538 Q804 581 629 626 Q506 657 448 678.5 Q390 700 339 733 Q199 823 199 1003 Q199 1094 240.5 1173 Q282 1252 356 1304 Q484 1393 693 1393 Q884 1393 1004 1320 Q1097 1264 1137.5 1186.5 Q1178 1109 1178 988 Q1178 986 1177 969 Z M526 1736 L671 1736 L766 1569 L953 1736 L1107 1736 L833 1475 L669 1475 L526 1736 Z " />
<glyph glyph-name="scaron" unicode="&#x161;" horiz-adv-x="924" d="M868 702 L708 702 Q707 882 491 882 Q399 882 346 846 Q292 809 292 751 Q292 682 377 639 Q417 619 562 560 Q687 510 737 462 Q812 391 812 292 Q812 227 783.5 165 Q755 103 706 62 Q602 -28 407 -28 Q214 -28 111.5 60.5 Q9 149 9 315 L168 315 Q167 241 201 192 Q263 104 423 104 Q530 104 590 152 Q649 198 649 266 Q649 319 611 354 Q573 389 474 428 Q275 506 216 555 Q129 626 129 735 Q129 862 233.5 940 Q338 1018 506 1018 Q697 1018 790 922 Q868 841 868 714 Q868 710 868 702 Z M915 1408 L640 1133 L475 1133 L341 1408 L487 1408 L573 1228 L762 1408 L915 1408 Z " />
<glyph glyph-name="Tcommaaccent" unicode="&#x162;" horiz-adv-x="1164" d="M1322 1365 L1289 1212 L827 1212 L569 0 L394 0 L652 1212 L185 1212 L217 1365 L1322 1365 Z M324 -409 Q370 -401 406 -367 Q442 -333 451 -288 Q444 -291 437 -291 L432 -291 Q396 -291 369.5 -264 Q343 -237 343 -202 Q343 -162 370 -133.5 Q397 -105 434 -105 Q478 -105 506 -140.5 Q534 -176 534 -233 Q534 -323 469.5 -394.5 Q405 -466 308 -482 L324 -409 Z " />
<glyph glyph-name="tcommaaccent" unicode="&#x163;" horiz-adv-x="596" d="M630 990 L601 857 L405 857 L289 314 Q275 247 275 211 Q275 166 291 149 Q313 127 368 127 Q409 127 467 142 L437 3 Q381 -8 319 -8 Q202 -8 154 32 Q102 75 102 151 Q102 192 128 314 L243 857 L74 857 L103 990 L272 990 L334 1282 L495 1282 L433 990 L630 990 Z M75 -409 Q121 -401 156.5 -367 Q192 -333 201 -288 Q195 -291 188 -291 L183 -291 Q147 -291 120.5 -264 Q94 -237 94 -202 Q94 -162 121 -133.5 Q148 -105 185 -105 Q229 -105 257 -140.5 Q285 -176 285 -233 Q285 -323 220 -394.5 Q155 -466 59 -482 L75 -409 Z " />
<glyph glyph-name="Tcaron" unicode="&#x164;" horiz-adv-x="1164" d="M1322 1365 L1289 1212 L827 1212 L569 0 L394 0 L652 1212 L185 1212 L217 1365 L1322 1365 Z M565 1736 L710 1736 L805 1569 L991 1736 L1146 1736 L872 1475 L707 1475 L565 1736 Z " />
<glyph glyph-name="tcaron" unicode="&#x165;" horiz-adv-x="665" d="M629 990 L601 857 L404 857 L289 314 Q275 249 275 211 Q275 166 291 149 Q313 127 368 127 Q408 127 467 142 L437 3 Q380 -8 319 -8 Q202 -8 154 32 Q102 75 102 151 Q102 193 128 314 L243 857 L74 857 L102 990 L271 990 L334 1282 L495 1282 L433 990 L629 990 Z M615 1165 Q661 1173 697 1207.5 Q733 1242 742 1286 Q735 1284 728 1284 L723 1284 Q687 1284 660.5 1310.5 Q634 1337 634 1373 Q634 1412 661 1441 Q688 1470 725 1470 Q770 1470 797.5 1434.5 Q825 1399 825 1342 Q825 1252 760.5 1180.5 Q696 1109 599 1092 L615 1165 Z " />
<glyph glyph-name="Tbar" unicode="&#x166;" horiz-adv-x="1164" d="M1322 1365 L1289 1212 L827 1212 L746 833 L1087 833 L1058 696 L717 696 L569 0 L394 0 L542 696 L201 696 L230 833 L571 833 L652 1212 L185 1212 L217 1365 L1322 1365 Z " />
<glyph glyph-name="tbar" unicode="&#x167;" horiz-adv-x="596" d="M630 990 L601 858 L405 858 L364 667 L540 667 L515 548 L339 548 L289 314 Q275 248 275 212 Q275 164 295.5 145.5 Q316 127 368 127 Q410 127 467 142 L437 3 Q381 -8 319 -8 Q201 -8 154 32 Q102 75 102 151 Q102 191 128 314 L178 548 L26 548 L51 667 L203 667 L243 857 L74 857 L102 990 L272 990 L334 1282 L495 1282 L433 990 L630 990 Z " />
<glyph glyph-name="Utilde" unicode="&#x168;" horiz-adv-x="1367" d="M1418 1365 L1244 546 Q1210 387 1181.5 307 Q1153 227 1108 165 Q967 -29 640 -29 Q422 -29 291 60 Q131 170 131 378 Q131 454 158 583 L325 1365 L499 1365 L330 568 Q304 446 304 385 Q304 251 401 185 Q491 123 636 123 Q880 123 978 270 Q1005 313 1025.5 375.5 Q1046 438 1073 562 L1243 1365 L1418 1365 Z M1250 1708 Q1187 1495 1060 1495 Q1014 1495 935 1531 Q806 1592 781 1592 Q737 1592 693 1503 L595 1503 Q654 1712 785 1712 Q818 1712 846 1702 Q874 1692 996 1635 Q1036 1616 1061 1616 Q1115 1616 1151 1708 L1250 1708 Z " />
<glyph glyph-name="utilde" unicode="&#x169;" horiz-adv-x="1089" d="M1053 990 L842 0 L692 0 L724 152 Q666 66 578 19.5 Q490 -27 387 -27 Q278 -27 197 23 Q94 87 94 226 Q94 283 117 392 L244 990 L406 990 L296 476 Q258 289 258 246 Q258 107 437 107 Q572 107 672 223 Q747 310 781 470 L892 990 L1053 990 Z M1020 1369 Q978 1254 938 1209 Q898 1164 838 1164 Q795 1164 723 1200 Q608 1258 575 1258 Q520 1258 495 1168 L403 1168 Q438 1278 477.5 1324 Q517 1370 578 1370 Q605 1370 630 1360.5 Q655 1351 779 1295 Q822 1275 838 1275 Q899 1275 928 1369 L1020 1369 Z " />
<glyph glyph-name="Umacron" unicode="&#x16a;" horiz-adv-x="1367" d="M1418 1365 L1244 546 Q1211 388 1182 307 Q1153 226 1108 165 Q966 -29 640 -29 Q422 -29 291 60 Q131 170 131 378 Q131 454 158 583 L325 1365 L499 1365 L330 568 Q304 446 304 385 Q304 251 401 185 Q491 123 636 123 Q880 123 978 270 Q1006 313 1026.5 376 Q1047 439 1073 562 L1243 1365 L1418 1365 Z M1247 1658 L1223 1545 L596 1545 L620 1658 L1247 1658 Z " />
<glyph glyph-name="umacron" unicode="&#x16b;" horiz-adv-x="1089" d="M1053 990 L842 0 L692 0 L724 152 Q666 67 578 20 Q490 -27 388 -27 Q278 -27 197 23 Q94 87 94 226 Q94 283 117 392 L244 990 L406 990 L296 476 Q258 288 258 246 Q258 107 437 107 Q572 107 672 223 Q714 272 738 326.5 Q762 381 781 470 L892 990 L1053 990 Z M1012 1317 L988 1205 L401 1205 L425 1317 L1012 1317 Z " />
<glyph glyph-name="Ubreve" unicode="&#x16c;" horiz-adv-x="1367" d="M1418 1365 L1244 546 Q1210 387 1181.5 307 Q1153 227 1108 165 Q967 -29 640 -29 Q422 -29 291 60 Q131 170 131 378 Q131 454 158 583 L325 1365 L499 1365 L330 568 Q304 446 304 385 Q304 251 401 185 Q491 123 636 123 Q880 123 978 270 Q1005 313 1025.5 375.5 Q1046 438 1073 562 L1243 1365 L1418 1365 Z M1204 1737 Q1178 1643 1120 1579 Q1024 1471 870 1471 Q755 1471 692 1527 Q629 1583 629 1686 Q629 1704 633 1737 L730 1737 Q728 1722 728 1716 Q728 1657 769.5 1621 Q811 1585 878 1585 Q957 1585 1020 1626.5 Q1083 1668 1107 1737 L1204 1737 Z " />
<glyph glyph-name="ubreve" unicode="&#x16d;" horiz-adv-x="1089" d="M1053 990 L842 0 L692 0 L724 152 Q666 66 578 19.5 Q490 -27 387 -27 Q278 -27 197 23 Q94 87 94 226 Q94 283 117 392 L244 990 L406 990 L296 476 Q258 289 258 246 Q258 107 437 107 Q572 107 672 223 Q747 310 781 470 L892 990 L1053 990 Z M1009 1408 Q934 1142 694 1142 Q465 1142 465 1368 Q465 1378 467 1408 L560 1408 Q563 1334 587 1301 Q622 1252 705 1252 Q859 1252 916 1408 L1009 1408 Z " />
<glyph glyph-name="Uring" unicode="&#x16e;" horiz-adv-x="1367" d="M1418 1365 L1244 546 Q1211 388 1182 307 Q1153 226 1108 165 Q966 -29 640 -29 Q422 -29 291 60 Q131 170 131 378 Q131 454 158 583 L325 1365 L499 1365 L330 568 Q304 446 304 385 Q304 251 401 185 Q491 123 636 123 Q880 123 978 270 Q1006 313 1026.5 376 Q1047 439 1073 562 L1243 1365 L1418 1365 Z M921 1842 Q1008 1842 1069 1774 Q1122 1716 1122 1638 Q1122 1547 1054 1487 Q996 1434 918 1434 Q828 1434 766 1501 Q714 1557 714 1639 Q714 1728 782 1789 Q839 1842 921 1842 Z M917 1744 Q871 1744 841.5 1714.5 Q812 1685 812 1639 Q812 1592 841 1562 Q870 1532 916 1532 Q960 1532 992 1563 Q1024 1594 1024 1638 Q1024 1681 992 1712.5 Q960 1744 917 1744 Z " />
<glyph glyph-name="uring" unicode="&#x16f;" horiz-adv-x="1089" d="M1053 990 L842 0 L692 0 L724 152 Q666 66 578 19.5 Q490 -27 387 -27 Q278 -27 197 23 Q94 87 94 226 Q94 283 117 392 L244 990 L406 990 L296 476 Q258 289 258 246 Q258 107 437 107 Q572 107 672 223 Q747 310 781 470 L892 990 L1053 990 Z M706 1487 Q793 1487 854 1419 Q907 1361 907 1283 Q907 1192 839 1131 Q781 1078 703 1078 Q613 1078 551 1145 Q499 1201 499 1283 Q499 1373 566 1434 Q625 1487 706 1487 Z M702 1389 Q656 1389 626.5 1359 Q597 1329 597 1283 Q597 1236 626 1206 Q655 1176 700 1176 Q745 1176 777 1207.5 Q809 1239 809 1283 Q809 1326 777 1357.5 Q745 1389 702 1389 Z " />
<glyph glyph-name="Uhungarumlaut" unicode="&#x170;" horiz-adv-x="1367" d="M1418 1365 L1244 546 Q1210 387 1181.5 307 Q1153 227 1108 165 Q967 -29 640 -29 Q422 -29 291 60 Q131 170 131 378 Q131 454 158 583 L325 1365 L499 1365 L330 568 Q304 446 304 385 Q304 251 401 185 Q491 123 636 123 Q880 123 978 270 Q1005 313 1025.5 375.5 Q1046 438 1073 562 L1243 1365 L1418 1365 Z M1027 1742 L773 1475 L659 1475 L831 1742 L1027 1742 Z M1341 1742 L1087 1475 L973 1475 L1145 1742 L1341 1742 Z " />
<glyph glyph-name="uhungarumlaut" unicode="&#x171;" horiz-adv-x="1089" d="M1053 990 L842 0 L692 0 L724 152 Q666 67 578 20 Q490 -27 388 -27 Q278 -27 197 23 Q94 87 94 226 Q94 283 117 392 L244 990 L406 990 L296 476 Q258 288 258 246 Q258 107 437 107 Q572 107 672 223 Q747 310 781 470 L892 990 L1053 990 Z M821 1410 L579 1133 L476 1133 L635 1410 L821 1410 Z M1094 1410 L852 1133 L749 1133 L914 1410 L1094 1410 Z " />
<glyph glyph-name="Uogonek" unicode="&#x172;" horiz-adv-x="1367" d="M962 -250 L955 -339 Q889 -360 834 -360 Q730 -360 681 -311 Q641 -272 641 -212 Q641 -104 786 -18 Q702 -29 643 -29 Q422 -29 291 61 Q131 170 131 378 Q131 454 158 583 L325 1365 L499 1365 L330 568 Q304 446 304 385 Q304 251 401 185 Q491 123 636 123 Q880 123 978 270 Q1005 313 1025.5 375.5 Q1046 438 1073 562 L1243 1365 L1418 1365 L1244 546 Q1210 385 1181.5 305 Q1153 225 1108 165 Q1073 118 1034 85.5 Q995 53 880 -25 Q766 -101 766 -183 Q766 -264 884 -264 Q918 -264 962 -250 Z " />
<glyph glyph-name="uogonek" unicode="&#x173;" horiz-adv-x="1089" d="M842 0 Q690 -104 690 -183 Q690 -264 808 -264 Q842 -264 886 -250 L879 -339 Q812 -360 758 -360 Q654 -360 605 -311 Q565 -272 565 -212 Q565 -151 603.5 -105 Q642 -59 744 0 L692 0 L724 152 Q666 67 578 20 Q490 -27 388 -27 Q278 -27 197 23 Q94 87 94 226 Q94 283 117 392 L244 990 L406 990 L296 476 Q258 288 258 246 Q258 107 437 107 Q572 107 672 223 Q747 310 781 470 L892 990 L1053 990 L842 0 Z " />
<glyph glyph-name="Wcircumflex" unicode="&#x174;" horiz-adv-x="1773" d="M1940 1365 L1316 0 L1123 0 L1059 860 Q1043 1130 1040 1196 Q965 1013 858 783 L493 0 L299 0 L209 1365 L388 1365 L422 666 Q437 334 437 275 Q437 250 435 187 Q474 294 640 649 L972 1365 L1174 1365 L1224 722 Q1251 368 1253 203 Q1327 396 1468 715 L1754 1365 L1940 1365 Z M1375 1475 L1230 1475 L1135 1642 L948 1475 L794 1475 L1068 1736 L1232 1736 L1375 1475 Z " />
<glyph glyph-name="wcircumflex" unicode="&#x175;" horiz-adv-x="1403" d="M1502 990 L992 0 L817 0 L774 609 Q768 685 766 785 L696 623 L410 0 L236 0 L118 990 L291 990 L323 646 Q355 278 355 180 Q379 250 424 350 L713 990 L898 990 L937 459 Q949 295 949 241 Q949 212 949 187 Q997 312 1130 586 L1327 990 L1502 990 Z M1109 1133 L965 1133 L881 1315 L700 1133 L545 1133 L814 1409 L978 1409 L1109 1133 Z " />
<glyph glyph-name="Ycircumflex" unicode="&#x176;" horiz-adv-x="1158" d="M1366 1365 L700 543 L584 0 L410 0 L528 558 L168 1365 L361 1365 L550 918 Q617 759 637 705 Q692 783 771 882 L1154 1365 L1366 1365 Z M1054 1475 L909 1475 L814 1642 L627 1475 L473 1475 L747 1736 L911 1736 L1054 1475 Z " />
<glyph glyph-name="ycircumflex" unicode="&#x177;" horiz-adv-x="890" d="M997 990 L497 97 Q356 -155 289 -249 Q181 -400 23 -400 Q-26 -400 -94 -383 L-62 -243 Q5 -265 35 -265 Q89 -265 137 -219 Q161 -196 228 -90 Q284 -11 284 -3 Q284 -1 284 1 L109 990 L284 990 L346 582 Q391 294 401 190 Q448 295 554 493 L819 990 L997 990 Z M852 1133 L708 1133 L624 1315 L443 1133 L289 1133 L557 1409 L722 1409 L852 1133 Z " />
<glyph glyph-name="Ydieresis" unicode="&#x178;" horiz-adv-x="1158" d="M1366 1365 L700 543 L584 0 L410 0 L528 558 L168 1365 L361 1365 L550 918 Q617 759 637 705 Q692 783 771 882 L1154 1365 L1366 1365 Z M595 1722 Q641 1722 673.5 1687.5 Q706 1653 706 1604 Q706 1556 673 1522 Q640 1488 594 1488 Q550 1488 517 1523 Q484 1558 484 1606 Q484 1653 517.5 1687.5 Q551 1722 595 1722 Z M1015 1722 Q1060 1722 1092.5 1687.5 Q1125 1653 1125 1604 Q1125 1556 1092 1522 Q1059 1488 1013 1488 Q969 1488 936 1523 Q903 1558 903 1606 Q903 1653 936 1687.5 Q969 1722 1015 1722 Z " />
<glyph glyph-name="Zacute" unicode="&#x179;" horiz-adv-x="1193" d="M1266 1365 L1235 1218 L331 279 Q255 200 200 148 Q273 153 407 153 L1074 153 L1042 0 L-48 0 L-17 147 L851 1047 Q922 1121 1015 1212 Q990 1213 982 1213 L886 1212 L233 1212 L266 1365 L1266 1365 Z M1106 1742 L791 1475 L663 1475 L889 1742 L1106 1742 Z " />
<glyph glyph-name="zacute" unicode="&#x17a;" horiz-adv-x="877" d="M912 990 L887 875 L310 263 Q232 180 172 127 Q257 133 437 133 L782 133 L754 0 L-55 0 L-29 120 L544 727 L672 857 L570 857 L400 857 L127 857 L155 990 L912 990 Z M878 1410 L555 1133 L441 1133 L668 1410 L878 1410 Z " />
<glyph glyph-name="Zdotaccent" unicode="&#x17b;" horiz-adv-x="1193" d="M1266 1365 L1235 1218 L331 279 Q255 200 200 148 Q273 153 407 153 L1074 153 L1042 0 L-48 0 L-17 147 L851 1047 Q922 1121 1015 1212 Q990 1213 982 1213 L886 1212 L233 1212 L266 1365 L1266 1365 Z M796 1722 Q841 1722 873.5 1687.5 Q906 1653 906 1604 Q906 1556 873 1522 Q840 1488 794 1488 Q750 1488 717 1523 Q684 1558 684 1606 Q684 1653 717 1687.5 Q750 1722 796 1722 Z " />
<glyph glyph-name="zdotaccent" unicode="&#x17c;" horiz-adv-x="877" d="M912 990 L887 875 L310 263 Q232 180 172 127 Q257 133 437 133 L782 133 L754 0 L-55 0 L-29 120 L544 727 L672 857 L570 857 L400 857 L127 857 L155 990 L912 990 Z M579 1387 Q625 1387 657.5 1352.5 Q690 1318 690 1269 Q690 1221 657 1187 Q624 1153 578 1153 Q534 1153 501 1188 Q468 1223 468 1271 Q468 1318 501.5 1352.5 Q535 1387 579 1387 Z " />
<glyph glyph-name="Zcaron" unicode="&#x17d;" horiz-adv-x="1193" d="M1266 1365 L1235 1218 L331 279 Q255 200 200 148 Q273 153 407 153 L1074 153 L1042 0 L-48 0 L-17 147 L851 1047 Q922 1121 1015 1212 Q990 1213 982 1213 L886 1212 L233 1212 L266 1365 L1266 1365 Z M546 1736 L691 1736 L786 1569 L972 1736 L1127 1736 L853 1475 L688 1475 L546 1736 Z " />
<glyph glyph-name="zcaron" unicode="&#x17e;" horiz-adv-x="877" d="M912 990 L887 875 L310 263 Q232 180 172 127 Q257 133 437 133 L782 133 L754 0 L-55 0 L-29 120 L544 727 L672 857 L570 857 L400 857 L127 857 L155 990 L912 990 Z M909 1408 L633 1133 L468 1133 L335 1408 L480 1408 L566 1228 L755 1408 L909 1408 Z " />
<glyph glyph-name="longs" unicode="&#x17f;" horiz-adv-x="578" d="M236 0 L75 0 L257 857 L91 857 L119 990 L285 990 L293 1026 Q324 1161 335.5 1198 Q347 1235 367 1267 Q440 1383 617 1383 Q685 1383 747 1366 L720 1229 Q680 1241 639 1241 Q556 1241 519.5 1201 Q483 1161 457 1042 L236 0 Z " />
<glyph glyph-name="uni018F" unicode="&#x18f;" horiz-adv-x="1470" d="M1274 752 Q1278 800 1278 830 Q1278 995 1202 1096 Q1154 1159 1073 1194 Q992 1229 895 1229 Q741 1229 613.5 1154 Q486 1079 393 933 L215 980 Q463 1388 904 1388 Q1169 1388 1318 1235 Q1462 1088 1462 833 Q1462 625 1374 427 Q1257 165 1025 44 Q859 -43 659 -43 Q388 -43 237 109 Q91 256 91 506 Q91 633 130 752 L1274 752 Z M1240 592 L278 592 Q274 552 274 516 Q274 349 351 248 Q452 115 657 115 Q859 115 1011.5 240 Q1164 365 1240 592 Z " />
<glyph glyph-name="florin" unicode="&#x192;" horiz-adv-x="1092" d="M946 883 L912 755 L698 755 L484 -53 Q454 -165 433.5 -217.5 Q413 -270 383 -307 Q305 -404 146 -404 Q100 -404 42 -393 L77 -256 Q114 -265 144 -265 Q233 -265 271 -190 Q291 -150 318 -45 L531 755 L351 755 L385 883 L565 883 L638 1161 Q663 1255 686.5 1302 Q710 1349 750 1384 Q830 1453 966 1453 Q1024 1453 1091 1438 L1057 1302 Q1015 1313 977 1313 Q899 1313 862 1272.5 Q825 1232 793 1112 L732 883 L946 883 Z " />
<glyph glyph-name="uni01C4" unicode="&#x1c4;" horiz-adv-x="2397" d="M345 1365 L667 1365 Q889 1365 970 1344 Q1169 1294 1262 1117 Q1328 989 1328 819 Q1328 662 1274 508 Q1220 354 1126 242 Q998 90 817 36 Q746 15 670.5 7.5 Q595 0 449 0 L55 0 L345 1365 Z M488 1212 L262 153 L488 153 Q704 153 799 194 Q1010 285 1104 550 Q1153 687 1153 820 Q1153 1082 979 1170 Q898 1212 718 1212 L488 1212 Z M2470 1365 L2439 1218 L1535 279 Q1459 200 1403 148 Q1477 153 1611 153 L2278 153 L2245 0 L1156 0 L1187 147 L2055 1047 Q2126 1121 2219 1212 Q2194 1213 2186 1213 L2090 1212 L1437 1212 L1469 1365 L2470 1365 Z M1747 1736 L1892 1736 L1987 1569 L2174 1736 L2328 1736 L2054 1475 L1889 1475 L1747 1736 Z " />
<glyph glyph-name="uni01C5" unicode="&#x1c5;" horiz-adv-x="2168" d="M345 1365 L667 1365 Q889 1365 970 1344 Q1169 1294 1262 1117 Q1328 989 1328 819 Q1328 662 1274 508 Q1220 354 1126 242 Q998 90 817 36 Q746 15 670.5 7.5 Q595 0 449 0 L55 0 L345 1365 Z M488 1212 L262 153 L488 153 Q704 153 799 194 Q1010 285 1104 550 Q1153 687 1153 820 Q1153 1082 979 1170 Q898 1212 718 1212 L488 1212 Z M2203 990 L2178 875 L1602 263 Q1524 180 1464 127 Q1548 133 1729 133 L2074 133 L2046 0 L1236 0 L1262 120 L1835 727 L1963 857 L1861 857 L1691 857 L1418 857 L1447 990 L2203 990 Z M1598 1390 L1743 1390 L1838 1222 L2024 1390 L2179 1390 L1905 1128 L1740 1128 L1598 1390 Z " />
<glyph glyph-name="uni01C6" unicode="&#x1c6;" horiz-adv-x="1923" d="M1957 990 L1933 875 L1356 263 Q1278 180 1218 127 Q1303 133 1483 133 L1828 133 L1800 0 L991 0 L1016 120 L1590 727 L1718 857 L1615 857 L1446 857 L1173 857 L1201 990 L1957 990 Z M1196 1365 L906 0 L756 0 L787 146 Q738 62 651 17 Q564 -28 451 -28 Q265 -28 168 75 Q67 182 67 366 Q67 596 192 782 Q350 1017 622 1017 Q739 1017 817 971 Q895 925 923 840 L1035 1365 L1196 1365 Z M628 882 Q434 882 324 707 Q284 642 260 551.5 Q236 461 236 373 Q236 233 314 165 Q379 108 482 108 Q671 108 782 299 Q821 366 846 460 Q871 554 871 632 Q871 757 794 826 Q730 882 628 882 Z M1362 1370 L1507 1370 L1602 1203 L1789 1370 L1943 1370 L1669 1109 L1504 1109 L1362 1370 Z " />
<glyph glyph-name="uni01C7" unicode="&#x1c7;" horiz-adv-x="2022" d="M520 1365 L262 153 L994 153 L962 0 L55 0 L345 1365 L520 1365 Z M2073 1365 L1884 474 Q1851 323 1827 248 Q1803 173 1771 124 Q1667 -33 1434 -33 Q1227 -33 1133 79 Q1064 161 1064 291 Q1064 360 1081 448 L1255 448 Q1237 346 1237 301 Q1237 120 1434 120 Q1551 120 1617 199 Q1662 252 1703 448 L1898 1365 L2073 1365 Z " />
<glyph glyph-name="uni01C8" unicode="&#x1c8;" horiz-adv-x="1507" d="M520 1365 L262 153 L994 153 L962 0 L55 0 L345 1365 L520 1365 Z M1472 990 L1264 13 L1248 -59 Q1209 -235 1181 -290 Q1125 -400 973 -400 Q927 -400 875 -388 L905 -251 Q934 -265 967 -265 Q1022 -265 1041.5 -226 Q1061 -187 1103 15 L1311 990 L1472 990 Z M1451 1383 Q1496 1383 1528.5 1348.5 Q1561 1314 1561 1265 Q1561 1217 1528 1183 Q1495 1149 1449 1149 Q1405 1149 1372 1184 Q1339 1219 1339 1267 Q1339 1314 1372 1348.5 Q1405 1383 1451 1383 Z " />
<glyph glyph-name="uni01C9" unicode="&#x1c9;" horiz-adv-x="727" d="M691 990 L484 13 L468 -59 Q429 -235 400 -290 Q344 -400 192 -400 Q146 -400 94 -388 L124 -251 Q153 -265 186 -265 Q242 -265 261 -226 Q280 -187 323 15 L530 990 L691 990 Z M669 1383 Q715 1383 747.5 1348.5 Q780 1314 780 1265 Q780 1217 747 1183 Q714 1149 668 1149 Q624 1149 591 1184 Q558 1219 558 1267 Q558 1314 591 1348.5 Q624 1383 669 1383 Z M492 1365 L202 0 L41 0 L331 1365 L492 1365 Z " />
<glyph glyph-name="uni01CA" unicode="&#x1ca;" horiz-adv-x="2277" d="M1439 1365 L1149 0 L946 0 L561 905 Q493 1066 464 1165 Q449 1030 395 777 L230 0 L55 0 L345 1365 L542 1365 L926 462 Q989 312 1029 189 Q1069 449 1112 649 L1264 1365 L1439 1365 Z M2328 1365 L2139 474 Q2107 323 2082.5 248 Q2058 173 2026 124 Q1922 -33 1689 -33 Q1482 -33 1388 79 Q1319 161 1319 291 Q1319 361 1337 448 L1511 448 Q1492 346 1492 301 Q1492 120 1689 120 Q1807 120 1872 199 Q1917 252 1959 448 L2154 1365 L2328 1365 Z " />
<glyph glyph-name="uni01CB" unicode="&#x1cb;" horiz-adv-x="1700" d="M1439 1365 L1149 0 L946 0 L561 905 Q493 1066 464 1165 Q449 1030 395 777 L230 0 L55 0 L345 1365 L542 1365 L926 462 Q989 312 1029 189 Q1069 449 1112 649 L1264 1365 L1439 1365 Z M1664 990 L1457 13 L1441 -59 Q1402 -235 1374 -290 Q1318 -400 1165 -400 Q1120 -400 1068 -388 L1097 -251 Q1126 -265 1160 -265 Q1215 -265 1234 -226 Q1253 -187 1296 15 L1503 990 L1664 990 Z M1642 1383 Q1688 1383 1720.5 1348.5 Q1753 1314 1753 1265 Q1753 1217 1720 1183 Q1687 1149 1641 1149 Q1597 1149 1564 1184 Q1531 1219 1531 1267 Q1531 1314 1564 1348.5 Q1597 1383 1642 1383 Z " />
<glyph glyph-name="uni01CC" unicode="&#x1cc;" horiz-adv-x="1382" d="M1346 990 L1139 13 L1123 -59 Q1084 -235 1055 -290 Q1000 -400 847 -400 Q802 -400 749 -388 L779 -251 Q808 -265 841 -265 Q897 -265 916 -226 Q935 -187 978 15 L1185 990 L1346 990 Z M1324 1383 Q1370 1383 1402.5 1348.5 Q1435 1314 1435 1265 Q1435 1217 1402 1183 Q1369 1149 1323 1149 Q1279 1149 1246 1184 Q1213 1219 1213 1267 Q1213 1314 1246 1348.5 Q1279 1383 1324 1383 Z M402 990 L368 832 Q422 915 521 966 Q620 1017 726 1017 Q831 1017 911 968 Q1016 904 1016 773 Q1016 714 991 597 L864 0 L703 0 L832 605 Q850 691 850 749 Q850 882 680 882 Q529 882 421 761 Q346 677 312 518 L202 0 L41 0 L251 990 L402 990 Z " />
<glyph glyph-name="uni01CD" unicode="&#x1cd;" horiz-adv-x="1296" d="M938 1365 L1182 0 L995 0 L930 418 L357 418 L114 0 L-90 0 L735 1365 L938 1365 Z M806 1211 Q717 1040 587 818 L439 565 L908 565 L855 893 Q817 1114 806 1211 Z M624 1736 L770 1736 L865 1569 L1051 1736 L1206 1736 L932 1475 L767 1475 L624 1736 Z " />
<glyph glyph-name="uni01CE" unicode="&#x1ce;" horiz-adv-x="1035" d="M981 1408 L705 1133 L540 1133 L406 1408 L552 1408 L638 1228 L827 1408 L981 1408 Z M909 111 L887 -10 Q820 -23 777 -23 Q714 -23 686 8 Q675 19 664.5 43 Q654 67 654 78 L655 101 L654 106 L655 109 Q656 115 657 117 L653 121 Q589 42 518 12 Q435 -23 326 -23 Q178 -23 98.5 49.5 Q19 122 19 257 Q19 426 145 498 Q215 538 270 549 Q325 560 583 587 Q678 597 718 621 Q768 652 768 727 Q768 869 569 869 Q456 869 388.5 824 Q321 779 302 692 L140 692 Q171 856 291 938 Q403 1013 578 1013 Q731 1013 821 960 Q930 897 930 770 Q930 708 911 628 L823 253 Q810 196 810 158 Q810 108 871 108 Q888 108 909 111 Z M720 506 Q671 479 633 470.5 Q595 462 443 445 Q304 429 243 385 Q182 341 182 257 Q182 195 232 158 Q282 121 366 121 Q463 121 538 161 Q613 201 653 274 Q684 330 724 506 L720 506 Z " />
<glyph glyph-name="uni01D1" unicode="&#x1d1;" horiz-adv-x="1490" d="M876 1395 Q1086 1395 1233 1288 Q1448 1131 1448 809 Q1448 467 1250 223 Q1044 -31 703 -31 Q383 -31 231 195 Q128 347 128 569 Q128 827 251 1042 Q347 1212 509.5 1303.5 Q672 1395 876 1395 Z M867 1245 Q640 1245 490 1084 Q404 993 355.5 856 Q307 719 307 569 Q307 395 382 284 Q494 119 717 119 Q940 119 1094 293 Q1189 402 1232 549 Q1271 684 1271 813 Q1271 1000 1171 1121 Q1068 1245 867 1245 Z M736 1736 L881 1736 L976 1569 L1162 1736 L1317 1736 L1043 1475 L878 1475 L736 1736 Z " />
<glyph glyph-name="uni01D2" unicode="&#x1d2;" horiz-adv-x="1115" d="M631 1019 Q840 1019 950 900 Q1046 795 1046 605 Q1046 486 1007 369.5 Q968 253 899 164 Q749 -29 501 -29 Q241 -29 139 149 Q78 256 78 397 Q78 524 122 644.5 Q166 765 243 848 Q400 1019 631 1019 Z M622 883 Q466 883 360 754 Q305 687 272 592 Q239 497 239 403 Q239 296 286 219 Q354 107 510 107 Q676 107 784 263 Q830 330 857 420.5 Q884 511 884 599 Q884 732 814 807.5 Q744 883 622 883 Z M480 1409 L623 1409 L707 1227 L889 1409 L1043 1409 L774 1133 L610 1133 L480 1409 Z " />
<glyph glyph-name="uni01D3" unicode="&#x1d3;" horiz-adv-x="1367" d="M1418 1365 L1244 546 Q1211 388 1182 307 Q1153 226 1108 165 Q966 -29 640 -29 Q422 -29 291 60 Q131 170 131 378 Q131 454 158 583 L325 1365 L499 1365 L330 568 Q304 446 304 385 Q304 251 401 185 Q491 123 636 123 Q880 123 978 270 Q1006 313 1026.5 376 Q1047 439 1073 562 L1243 1365 L1418 1365 Z M666 1736 L812 1736 L907 1569 L1093 1736 L1248 1736 L974 1475 L809 1475 L666 1736 Z " />
<glyph glyph-name="uni01D4" unicode="&#x1d4;" horiz-adv-x="1089" d="M1053 990 L842 0 L692 0 L724 152 Q666 66 578 19.5 Q490 -27 387 -27 Q278 -27 197 23 Q94 87 94 226 Q94 283 117 392 L244 990 L406 990 L296 476 Q258 289 258 246 Q258 107 437 107 Q572 107 672 223 Q747 310 781 470 L892 990 L1053 990 Z M466 1409 L610 1409 L694 1227 L875 1409 L1030 1409 L761 1133 L596 1133 L466 1409 Z " />
<glyph glyph-name="uni01DD" unicode="&#x1dd;" horiz-adv-x="1079" d="M135 679 Q161 781 228 862 Q357 1017 588 1017 Q814 1017 922 872 Q1005 761 1005 595 Q1005 493 974.5 388 Q944 283 891 205 Q817 95 706.5 34 Q596 -27 471 -27 Q288 -27 184 82.5 Q80 192 80 384 Q80 449 93 542 L836 542 Q842 575 842 608 Q842 719 792 786 Q720 883 581 883 Q480 883 408 830.5 Q336 778 302 679 L135 679 Z M814 409 L238 409 Q238 392 238 382 Q238 263 282 199 Q345 108 478 108 Q600 108 688.5 187.5 Q777 267 814 409 Z " />
<glyph glyph-name="Gcaron" unicode="&#x1e6;" horiz-adv-x="1467" d="M1392 726 L1237 0 L1123 0 L1119 89 Q1117 129 1116 149 Q1035 55 932.5 12 Q830 -31 688 -31 Q422 -31 274.5 124.5 Q127 280 127 561 Q127 789 218 980 Q312 1181 484.5 1288.5 Q657 1396 884 1396 Q1149 1396 1290 1259 Q1414 1138 1419 949 L1241 949 Q1231 1065 1179 1129 Q1084 1245 878 1245 Q631 1245 470 1060 Q389 967 344 819 Q304 689 304 557 Q304 341 425 222 Q529 120 710 120 Q905 120 1024 231.5 Q1143 343 1200 579 L763 579 L795 726 L1392 726 Z M702 1736 L848 1736 L943 1569 L1129 1736 L1284 1736 L1010 1475 L845 1475 L702 1736 Z " />
<glyph glyph-name="gcaron" unicode="&#x1e7;" horiz-adv-x="1138" d="M1102 990 L925 157 Q891 -1 866.5 -75 Q842 -149 803 -211 Q676 -407 387 -407 Q193 -407 87 -313 Q-9 -228 -9 -109 Q-9 -105 -9 -98 L157 -98 Q178 -279 399 -279 Q565 -279 650 -175 Q674 -145 702 -75 Q730 -5 744 62 L761 145 Q652 -10 446 -10 Q312 -10 215 67 Q74 179 74 387 Q74 510 117 635.5 Q160 761 232 846 Q375 1017 595 1017 Q712 1017 794.5 963.5 Q877 910 914 810 L952 990 L1102 990 Z M595 883 Q491 883 410 816 Q305 728 259 557 Q236 469 236 394 Q236 254 319 183 Q384 128 483 128 Q658 128 761 301 Q799 363 821 450.5 Q843 538 843 621 Q843 742 776.5 812.5 Q710 883 595 883 Z M1067 1408 L791 1133 L626 1133 L492 1408 L638 1408 L724 1228 L913 1408 L1067 1408 Z " />
<glyph glyph-name="uni01F4" unicode="&#x1f4;" horiz-adv-x="1467" d="M1392 726 L1237 0 L1123 0 L1119 89 Q1117 129 1116 149 Q1035 55 932.5 12 Q830 -31 688 -31 Q422 -31 274.5 124.5 Q127 280 127 561 Q127 789 218 980 Q312 1181 484.5 1288.5 Q657 1396 884 1396 Q1149 1396 1290 1259 Q1414 1138 1419 949 L1241 949 Q1231 1065 1179 1129 Q1084 1245 878 1245 Q631 1245 470 1060 Q389 967 344 819 Q304 689 304 557 Q304 341 425 222 Q529 120 710 120 Q905 120 1024 231.5 Q1143 343 1200 579 L763 579 L795 726 L1392 726 Z M1249 1742 L934 1475 L806 1475 L1032 1742 L1249 1742 Z " />
<glyph glyph-name="uni01F5" unicode="&#x1f5;" horiz-adv-x="1138" d="M1102 990 L925 157 Q892 1 867 -74.5 Q842 -150 803 -211 Q676 -407 387 -407 Q193 -407 87 -313 Q-9 -227 -9 -109 Q-9 -105 -9 -98 L157 -98 Q178 -279 399 -279 Q565 -279 650 -175 Q674 -145 701.5 -75.5 Q729 -6 744 62 L761 145 Q652 -10 446 -10 Q312 -10 215 67 Q74 179 74 387 Q74 510 117 635.5 Q160 761 232 846 Q375 1017 595 1017 Q712 1017 794.5 963.5 Q877 910 914 810 L952 990 L1102 990 Z M595 883 Q492 883 410 816 Q305 729 259 557 Q236 469 236 395 Q236 254 319 183 Q384 128 483 128 Q657 128 761 301 Q798 363 820.5 450.5 Q843 538 843 622 Q843 742 776 812.5 Q709 883 595 883 Z M908 1410 L586 1133 L471 1133 L698 1410 L908 1410 Z " />
<glyph glyph-name="Aringacute" unicode="&#x1fa;" horiz-adv-x="1296" d="M938 1365 L1182 0 L995 0 L930 418 L357 418 L114 0 L-90 0 L735 1365 L938 1365 Z M806 1211 Q717 1040 587 818 L439 565 L908 565 L855 893 Q817 1114 806 1211 Z M848 1842 Q935 1842 996 1774 Q1049 1716 1049 1638 Q1049 1548 981 1487 Q923 1434 845 1434 Q755 1434 693 1501 Q641 1557 641 1638 Q641 1728 709 1789 Q766 1842 848 1842 Z M844 1744 Q798 1744 768.5 1714.5 Q739 1685 739 1639 Q739 1592 768 1562 Q797 1532 843 1532 Q887 1532 919 1563 Q951 1594 951 1638 Q951 1681 919 1712.5 Q887 1744 844 1744 Z M986 2082 L671 1814 L543 1814 L769 2082 L986 2082 Z " />
<glyph glyph-name="aringacute" unicode="&#x1fb;" horiz-adv-x="1035" d="M659 1487 Q746 1487 807 1419 Q860 1361 860 1283 Q860 1192 793 1131 Q734 1078 656 1078 Q566 1078 504 1145 Q452 1202 452 1283 Q452 1373 520 1434 Q577 1487 659 1487 Z M655 1389 Q609 1389 579.5 1359.5 Q550 1330 550 1283 Q550 1236 579 1206 Q608 1176 653 1176 Q698 1176 730 1207.5 Q762 1239 762 1282 Q762 1325 730 1357 Q698 1389 655 1389 Z M733 1707 L410 1430 L296 1430 L523 1707 L733 1707 Z M909 111 L887 -10 Q820 -23 777 -23 Q714 -23 686 8 Q675 19 664.5 43 Q654 67 654 78 L655 101 L654 106 L655 109 Q656 115 657 117 L653 121 Q589 42 518 12 Q435 -23 326 -23 Q178 -23 98.5 49.5 Q19 122 19 257 Q19 426 145 498 Q215 538 270 549 Q325 560 583 587 Q678 597 718 621 Q768 652 768 727 Q768 869 569 869 Q456 869 388.5 824 Q321 779 302 692 L140 692 Q171 856 291 938 Q403 1013 578 1013 Q731 1013 821 960 Q930 897 930 770 Q930 708 911 628 L823 253 Q810 196 810 158 Q810 108 871 108 Q888 108 909 111 Z M720 506 Q671 479 633 470.5 Q595 462 443 445 Q304 429 243 385 Q182 341 182 257 Q182 195 232 158 Q282 121 366 121 Q463 121 538 161 Q613 201 653 274 Q684 330 724 506 L720 506 Z " />
<glyph glyph-name="AEacute" unicode="&#x1fc;" horiz-adv-x="1803" d="M1894 1365 L1862 1212 L1191 1212 L1098 776 L1731 776 L1700 629 L1067 629 L966 153 L1649 153 L1617 0 L759 0 L844 401 L389 401 L103 0 L-109 0 L890 1365 L1894 1365 Z M1016 1211 L966 1211 L495 548 L875 548 L1016 1211 Z M1651 1742 L1336 1475 L1208 1475 L1434 1742 L1651 1742 Z " />
<glyph glyph-name="aeacute" unicode="&#x1fd;" horiz-adv-x="1663" d="M1212 1410 L890 1133 L776 1133 L1003 1410 L1212 1410 Z M734 173 Q674 91 620 55 Q503 -23 328 -23 Q168 -23 89 59 Q19 131 19 257 Q19 425 145 498 Q215 538 270 549 Q325 560 583 587 Q678 597 718 621 Q768 652 768 727 Q768 869 569 869 Q456 869 388.5 824 Q321 779 302 692 L140 692 Q171 856 291 938 Q403 1013 579 1013 Q845 1013 912 863 Q916 868 925 879 Q1038 1017 1240 1017 Q1412 1017 1510.5 916.5 Q1609 816 1609 640 Q1609 562 1583 448 L866 448 Q853 391 853 343 Q853 245 903 185 Q967 108 1095 108 Q1231 108 1323 209 Q1365 255 1385 311 L1551 311 Q1514 205 1434 119 Q1362 42 1277 7.5 Q1192 -27 1072 -27 Q795 -27 734 173 Z M891 581 L1445 581 Q1450 614 1450 641 Q1450 736 1403 800 Q1342 883 1219 883 Q1069 883 974 765 Q913 689 891 581 Z M720 506 Q671 479 633 470.5 Q595 462 443 445 Q305 429 243.5 385 Q182 341 182 257 Q182 195 232 158 Q282 121 366 121 Q463 121 538.5 161 Q614 201 653 273 Q684 329 724 506 L720 506 Z " />
<glyph glyph-name="Oslashacute" unicode="&#x1fe;" horiz-adv-x="1490" d="M1539 1328 L1359 1157 Q1449 1044 1449 809 Q1449 545 1319 331 Q1214 157 1051.5 63.5 Q889 -30 692 -30 Q557 -30 457 8 Q357 46 279 127 L108 -39 L30 44 L210 211 Q161 317 143 391 Q125 465 125 563 Q125 761 198 941 Q289 1169 494 1291 Q667 1395 883 1395 Q1010 1395 1105 1360 Q1200 1325 1290 1245 L1462 1410 L1539 1328 Z M1153 1134 Q1118 1182 1037.5 1214.5 Q957 1247 871 1247 Q650 1247 499 1097 Q396 995 347 842 Q304 709 304 566 Q304 447 348 333 L1153 1134 Z M1218 1038 L409 233 Q464 188 505 167 Q598 120 718 120 Q910 120 1061 262 Q1158 352 1212 489 Q1272 638 1272 803 Q1272 938 1218 1038 Z M1153 1742 L838 1475 L710 1475 L936 1742 L1153 1742 Z " />
<glyph glyph-name="oslashacute" unicode="&#x1ff;" horiz-adv-x="1024" d="M1127 934 L999 821 Q1044 737 1044 602 Q1044 445 977 295 Q831 -30 500 -30 Q394 -30 319.5 -4 Q245 22 184 81 L50 -36 L-17 39 L124 166 Q76 266 76 392 Q76 534 126.5 661.5 Q177 789 268 875 Q419 1017 627 1017 Q732 1017 814.5 986.5 Q897 956 942 901 L1060 1008 L1127 934 Z M820 804 Q791 841 737.5 861.5 Q684 882 617 882 Q425 882 309 686 Q231 554 231 379 Q231 324 255 272 L820 804 Z M870 714 L309 180 Q333 147 387.5 127.5 Q442 108 508 108 Q687 108 800 292 Q887 433 887 619 Q887 664 870 714 Z M917 1410 L595 1133 L480 1133 L707 1410 L917 1410 Z " />
<glyph glyph-name="uni0200" unicode="&#x200;" horiz-adv-x="1296" d="M938 1365 L1182 0 L995 0 L930 418 L357 418 L114 0 L-90 0 L735 1365 L938 1365 Z M806 1211 Q717 1040 587 818 L439 565 L908 565 L855 893 Q817 1114 806 1211 Z M691 1742 L887 1742 L1058 1475 L944 1475 L691 1742 Z M377 1742 L573 1742 L744 1475 L630 1475 L377 1742 Z " />
<glyph glyph-name="uni0201" unicode="&#x201;" horiz-adv-x="1035" d="M531 1467 L727 1467 L899 1200 L785 1200 L531 1467 Z M217 1467 L413 1467 L585 1200 L471 1200 L217 1467 Z M146 694 Q168 852 278 935 Q388 1018 574 1018 Q745 1018 837.5 955 Q930 892 930 776 Q930 728 903 607 L832 276 Q815 204 815 174 Q815 115 864 115 Q883 115 911 122 L888 -2 Q834 -20 788 -20 Q727 -20 692 10.5 Q657 41 657 94 Q657 103 659 122 Q615 72 578 45 Q476 -27 329 -27 Q183 -27 103 45 Q17 122 17 253 Q17 419 157 503 Q209 535 279 551.5 Q349 568 466 576 Q610 587 654 595 Q698 603 725 625 Q769 661 769 753 Q769 817 717.5 850.5 Q666 884 568 884 Q454 884 389 837.5 Q324 791 302 694 L146 694 Z M724 512 Q687 470 499 456 Q363 445 304 426 Q248 408 214.5 362.5 Q181 317 181 259 Q181 187 234 144 Q288 100 374 100 Q531 100 625 220 Q676 284 708 437 L724 512 Z " />
<glyph glyph-name="Scommaaccent" unicode="&#x218;" horiz-adv-x="1209" d="M1177 969 L1006 969 Q1005 1097 951 1156 Q870 1243 687 1243 Q534 1243 452 1179 Q369 1115 369 1013 Q369 925 434 875.5 Q499 826 673 783 Q866 735 949 684 Q1102 591 1102 396 Q1102 223 972 103 Q830 -27 567 -27 Q323 -27 186 85 Q45 200 45 423 Q45 432 45 453 L219 453 Q219 439 219 436 Q219 276 299 203 Q388 123 572 123 Q768 123 863 226 Q927 295 927 386 Q927 484 859 538 Q804 581 629 626 Q506 657 448 678.5 Q390 700 339 733 Q199 823 199 1003 Q199 1094 240.5 1173 Q282 1252 356 1304 Q484 1393 693 1393 Q884 1393 1004 1320 Q1095 1265 1136.5 1187.5 Q1178 1110 1178 993 Q1178 989 1177 969 Z M373 -409 Q419 -401 455 -367 Q491 -333 500 -288 Q493 -291 486 -291 L481 -291 Q445 -291 418.5 -264 Q392 -237 392 -202 Q392 -162 419 -133.5 Q446 -105 483 -105 Q527 -105 555 -140.5 Q583 -176 583 -233 Q583 -323 518.5 -394.5 Q454 -466 357 -482 L373 -409 Z " />
<glyph glyph-name="scommaaccent" unicode="&#x219;" horiz-adv-x="924" d="M868 702 L708 702 Q707 882 491 882 Q399 882 346 846 Q292 809 292 751 Q292 682 377 639 Q417 619 562 560 Q687 510 737 462 Q812 391 812 292 Q812 227 783.5 165 Q755 103 706 62 Q602 -28 407 -28 Q214 -28 111.5 60.5 Q9 149 9 315 L168 315 Q167 241 201 192 Q263 104 423 104 Q530 104 590 152 Q649 198 649 266 Q649 319 611 354 Q573 389 474 428 Q275 506 216 555 Q129 626 129 735 Q129 862 233.5 940 Q338 1018 506 1018 Q697 1018 790 922 Q868 841 868 714 Q868 710 868 702 Z M211 -409 Q257 -401 293 -367 Q329 -333 338 -288 Q331 -291 324 -291 L319 -291 Q283 -291 256.5 -264 Q230 -237 230 -202 Q230 -162 257 -133.5 Q284 -105 321 -105 Q366 -105 393.5 -140.5 Q421 -176 421 -233 Q421 -323 356.5 -394.5 Q292 -466 195 -482 L211 -409 Z " />
<glyph glyph-name="uni021A" unicode="&#x21a;" horiz-adv-x="1164" d="M1322 1365 L1289 1212 L827 1212 L569 0 L394 0 L652 1212 L185 1212 L217 1365 L1322 1365 Z M324 -409 Q370 -401 406 -367 Q442 -333 451 -288 Q444 -291 437 -291 L432 -291 Q396 -291 369.5 -264 Q343 -237 343 -202 Q343 -162 370 -133.5 Q397 -105 434 -105 Q478 -105 506 -140.5 Q534 -176 534 -233 Q534 -323 469.5 -394.5 Q405 -466 308 -482 L324 -409 Z " />
<glyph glyph-name="uni021B" unicode="&#x21b;" horiz-adv-x="596" d="M630 990 L601 857 L405 857 L289 314 Q275 247 275 211 Q275 166 291 149 Q313 127 368 127 Q409 127 467 142 L437 3 Q381 -8 319 -8 Q202 -8 154 32 Q102 75 102 151 Q102 192 128 314 L243 857 L74 857 L103 990 L272 990 L334 1282 L495 1282 L433 990 L630 990 Z M75 -409 Q121 -401 156.5 -367 Q192 -333 201 -288 Q195 -291 188 -291 L183 -291 Q147 -291 120.5 -264 Q94 -237 94 -202 Q94 -162 121 -133.5 Q148 -105 185 -105 Q229 -105 257 -140.5 Q285 -176 285 -233 Q285 -323 220 -394.5 Q155 -466 59 -482 L75 -409 Z " />
<glyph glyph-name="uni0226" unicode="&#x226;" horiz-adv-x="1296" d="M938 1365 L1182 0 L995 0 L930 418 L357 418 L114 0 L-90 0 L735 1365 L938 1365 Z M806 1211 Q717 1040 587 818 L439 565 L908 565 L855 893 Q817 1114 806 1211 Z M887 1722 Q933 1722 965.5 1687.5 Q998 1653 998 1604 Q998 1556 965 1522 Q932 1488 886 1488 Q842 1488 809 1523 Q776 1558 776 1606 Q776 1653 809 1687.5 Q842 1722 887 1722 Z " />
<glyph glyph-name="uni0227" unicode="&#x227;" horiz-adv-x="1035" d="M650 1387 Q696 1387 728.5 1352.5 Q761 1318 761 1269 Q761 1221 728 1187 Q695 1153 649 1153 Q605 1153 572 1188 Q539 1223 539 1271 Q539 1318 572.5 1352.5 Q606 1387 650 1387 Z M909 111 L887 -10 Q820 -23 777 -23 Q714 -23 686 8 Q675 19 664.5 43 Q654 67 654 78 L655 101 L654 106 L655 109 Q656 115 657 117 L653 121 Q589 42 518 12 Q435 -23 326 -23 Q178 -23 98.5 49.5 Q19 122 19 257 Q19 426 145 498 Q215 538 270 549 Q325 560 583 587 Q678 597 718 621 Q768 652 768 727 Q768 869 569 869 Q456 869 388.5 824 Q321 779 302 692 L140 692 Q171 856 291 938 Q403 1013 578 1013 Q731 1013 821 960 Q930 897 930 770 Q930 708 911 628 L823 253 Q810 196 810 158 Q810 108 871 108 Q888 108 909 111 Z M720 506 Q671 479 633 470.5 Q595 462 443 445 Q304 429 243 385 Q182 341 182 257 Q182 195 232 158 Q282 121 366 121 Q463 121 538 161 Q613 201 653 274 Q684 330 724 506 L720 506 Z " />
<glyph glyph-name="uni0237" unicode="&#x237;" horiz-adv-x="428" d="M393 990 L185 13 L169 -59 Q130 -235 102 -290 Q46 -400 -106 -400 Q-152 -400 -204 -388 L-174 -251 Q-145 -265 -112 -265 Q-57 -265 -37.5 -226 Q-18 -187 24 15 L232 990 L393 990 Z " />
<glyph glyph-name="afii57929" unicode="&#x2bc;" horiz-adv-x="511" d="M266 993 Q322 1002 367 1045 Q412 1088 423 1144 Q415 1140 407 1140 L401 1140 Q356 1140 322.5 1173 Q289 1206 289 1251 Q289 1301 323 1336.5 Q357 1372 403 1372 Q458 1372 492.5 1327.5 Q527 1283 527 1213 Q527 1104 444 1010 Q365 922 246 902 L266 993 Z " />
<glyph glyph-name="circumflex" unicode="&#x2c6;" horiz-adv-x="1024" d="M918 1133 L775 1133 L691 1315 L510 1133 L355 1133 L624 1409 L788 1409 L918 1133 Z " />
<glyph glyph-name="caron" unicode="&#x2c7;" horiz-adv-x="1024" d="M414 1409 L558 1409 L642 1227 L823 1409 L977 1409 L709 1133 L544 1133 L414 1409 Z " />
<glyph glyph-name="uni02C9" unicode="&#x2c9;" horiz-adv-x="1024" d="M977 1317 L953 1205 L367 1205 L391 1317 L977 1317 Z " />
<glyph glyph-name="breve" unicode="&#x2d8;" horiz-adv-x="1024" d="M965 1408 Q890 1142 650 1142 Q421 1142 421 1367 Q421 1380 422 1408 L515 1408 Q519 1333 542 1301 Q577 1252 661 1252 Q814 1252 871 1408 L965 1408 Z " />
<glyph glyph-name="dotaccent" unicode="&#x2d9;" horiz-adv-x="1024" d="M679 1387 Q725 1387 757.5 1352.5 Q790 1318 790 1269 Q790 1221 757 1187 Q724 1153 678 1153 Q634 1153 601 1188 Q568 1223 568 1271 Q568 1318 601 1352.5 Q634 1387 679 1387 Z " />
<glyph glyph-name="ring" unicode="&#x2da;" horiz-adv-x="1024" d="M654 1487 Q741 1487 802 1419 Q855 1361 855 1283 Q855 1192 787 1131 Q729 1078 651 1078 Q561 1078 499 1145 Q447 1202 447 1283 Q447 1373 515 1434 Q572 1487 654 1487 Z M650 1389 Q604 1389 574.5 1359.5 Q545 1330 545 1283 Q545 1236 574 1206 Q603 1176 649 1176 Q693 1176 725 1207.5 Q757 1239 757 1282 Q757 1325 725 1357 Q693 1389 650 1389 Z " />
<glyph glyph-name="ogonek" unicode="&#x2db;" horiz-adv-x="1024" d="M760 0 L865 0 Q774 -66 743.5 -102.5 Q713 -139 713 -183 Q713 -264 831 -264 Q864 -264 909 -250 L902 -339 Q835 -360 781 -360 Q677 -360 628 -311 Q588 -271 588 -212 Q588 -152 626.5 -104.5 Q665 -57 760 0 Z " />
<glyph glyph-name="tilde" unicode="&#x2dc;" horiz-adv-x="1024" d="M988 1369 Q946 1254 906 1209 Q866 1164 805 1164 Q763 1164 691 1200 Q576 1258 543 1258 Q489 1258 463 1168 L371 1168 Q407 1281 446 1325.5 Q485 1370 546 1370 Q572 1370 597.5 1360.5 Q623 1351 747 1295 Q790 1275 806 1275 Q867 1275 896 1369 L988 1369 Z " />
<glyph glyph-name="hungarumlaut" unicode="&#x2dd;" horiz-adv-x="1024" d="M769 1410 L527 1133 L424 1133 L583 1410 L769 1410 Z M1042 1410 L800 1133 L697 1133 L862 1410 L1042 1410 Z " />
<glyph glyph-name="pi" unicode="&#x3c0;" horiz-adv-x="1164" d="M93 0 L276 861 L128 861 L155 990 L1225 990 L1198 861 L1051 861 L868 0 L709 0 L892 861 L435 861 L252 0 L93 0 Z " />
<glyph glyph-name="uni1E1E" unicode="&#x1e1e;" horiz-adv-x="1097" d="M1242 1365 L1210 1212 L488 1212 L395 777 L1033 777 L1001 630 L364 630 L230 0 L55 0 L345 1365 L1242 1365 Z M835 1722 Q881 1722 913.5 1687.5 Q946 1653 946 1604 Q946 1556 913 1522 Q880 1488 834 1488 Q790 1488 757 1523 Q724 1558 724 1606 Q724 1653 757 1687.5 Q790 1722 835 1722 Z " />
<glyph glyph-name="Wgrave" unicode="&#x1e80;" horiz-adv-x="1773" d="M1940 1365 L1316 0 L1123 0 L1059 860 Q1043 1130 1040 1196 Q965 1013 858 783 L493 0 L299 0 L209 1365 L388 1365 L422 666 Q437 334 437 275 Q437 250 435 187 Q474 294 640 649 L972 1365 L1174 1365 L1224 722 Q1251 368 1253 203 Q1327 396 1468 715 L1754 1365 L1940 1365 Z M1200 1475 L1077 1475 L889 1742 L1081 1742 L1200 1475 Z " />
<glyph glyph-name="wgrave" unicode="&#x1e81;" horiz-adv-x="1403" d="M1502 990 L992 0 L817 0 L774 609 Q768 685 766 785 L696 623 L410 0 L236 0 L118 990 L291 990 L323 646 Q355 278 355 180 Q379 250 424 350 L713 990 L898 990 L937 459 Q949 295 949 241 Q949 212 949 187 Q997 312 1130 586 L1327 990 L1502 990 Z M937 1133 L828 1133 L629 1410 L814 1410 L937 1133 Z " />
<glyph glyph-name="Wacute" unicode="&#x1e82;" horiz-adv-x="1773" d="M1449 1742 L1134 1475 L1006 1475 L1232 1742 L1449 1742 Z M1940 1365 L1316 0 L1123 0 L1059 860 Q1043 1130 1040 1196 Q965 1013 858 783 L493 0 L299 0 L209 1365 L388 1365 L422 666 Q437 334 437 275 Q437 250 435 187 Q474 294 640 649 L972 1365 L1174 1365 L1224 722 Q1251 368 1253 203 Q1327 396 1468 715 L1754 1365 L1940 1365 Z " />
<glyph glyph-name="wacute" unicode="&#x1e83;" horiz-adv-x="1403" d="M1502 990 L992 0 L817 0 L774 609 Q768 685 766 785 L696 623 L410 0 L236 0 L118 990 L291 990 L323 646 Q355 278 355 180 Q379 250 424 350 L713 990 L898 990 L937 459 Q949 295 949 241 Q949 212 949 187 Q997 312 1130 586 L1327 990 L1502 990 Z M1109 1410 L787 1133 L672 1133 L899 1410 L1109 1410 Z " />
<glyph glyph-name="Wdieresis" unicode="&#x1e84;" horiz-adv-x="1773" d="M1940 1365 L1316 0 L1123 0 L1059 860 Q1043 1130 1040 1196 Q965 1013 858 783 L493 0 L299 0 L209 1365 L388 1365 L422 666 Q437 334 437 275 Q437 250 435 187 Q474 294 640 649 L972 1365 L1174 1365 L1224 722 Q1251 368 1253 203 Q1327 396 1468 715 L1754 1365 L1940 1365 Z M917 1722 Q962 1722 994.5 1687.5 Q1027 1653 1027 1604 Q1027 1556 994 1522 Q961 1488 915 1488 Q871 1488 838 1523 Q805 1558 805 1606 Q805 1653 838 1687.5 Q871 1722 917 1722 Z M1336 1722 Q1381 1722 1413.5 1687.5 Q1446 1653 1446 1604 Q1446 1556 1413 1522 Q1380 1488 1334 1488 Q1290 1488 1257 1523 Q1224 1558 1224 1606 Q1224 1653 1257 1687.5 Q1290 1722 1336 1722 Z " />
<glyph glyph-name="wdieresis" unicode="&#x1e85;" horiz-adv-x="1403" d="M1502 990 L992 0 L817 0 L774 609 Q768 685 766 785 L696 623 L410 0 L236 0 L118 990 L291 990 L323 646 Q355 278 355 180 Q379 250 424 350 L713 990 L898 990 L937 459 Q949 295 949 241 Q949 212 949 187 Q997 312 1130 586 L1327 990 L1502 990 Z M690 1387 Q735 1387 767.5 1352.5 Q800 1318 800 1269 Q800 1221 767 1187 Q734 1153 688 1153 Q644 1153 611 1188 Q578 1223 578 1271 Q578 1318 611 1352.5 Q644 1387 690 1387 Z M1023 1387 Q1069 1387 1101.5 1352.5 Q1134 1318 1134 1269 Q1134 1221 1101 1187 Q1068 1153 1022 1153 Q978 1153 945 1188 Q912 1223 912 1271 Q912 1318 945.5 1352.5 Q979 1387 1023 1387 Z " />
<glyph glyph-name="Ygrave" unicode="&#x1ef2;" horiz-adv-x="1158" d="M1366 1365 L700 543 L584 0 L410 0 L528 558 L168 1365 L361 1365 L550 918 Q617 759 637 705 Q692 783 771 882 L1154 1365 L1366 1365 Z M865 1475 L743 1475 L554 1742 L746 1742 L865 1475 Z " />
<glyph glyph-name="ygrave" unicode="&#x1ef3;" horiz-adv-x="890" d="M997 990 L497 97 Q356 -155 289 -249 Q181 -400 23 -400 Q-26 -400 -94 -383 L-62 -243 Q4 -265 35 -265 Q89 -265 137 -219 Q161 -196 228 -90 Q284 -11 284 -3 Q284 -1 284 1 L109 990 L284 990 L346 582 Q390 299 401 190 Q446 290 554 493 L819 990 L997 990 Z M680 1133 L571 1133 L372 1410 L558 1410 L680 1133 Z " />
<glyph glyph-name="uni2011" unicode="&#x2011;" horiz-adv-x="464" d="M487 586 L453 429 L-11 429 L22 586 L487 586 Z " />
<glyph glyph-name="figuredash" unicode="&#x2012;" horiz-adv-x="1092" d="M1009 586 L1009 429 L94 429 L94 586 L1009 586 Z " />
<glyph glyph-name="endash" unicode="&#x2013;" horiz-adv-x="1092" d="M1009 586 L1009 429 L94 429 L94 586 L1009 586 Z " />
<glyph glyph-name="emdash" unicode="&#x2014;" horiz-adv-x="1420" d="M1415 612 L1415 455 L28 455 L28 612 L1415 612 Z " />
<glyph glyph-name="afii00208" unicode="&#x2015;" horiz-adv-x="1420" d="M1415 612 L1415 455 L28 455 L28 612 L1415 612 Z " />
<glyph glyph-name="underscoredbl" unicode="&#x2017;" horiz-adv-x="1024" d="M43 -120 L1067 -120 L1067 -203 L43 -203 L43 -120 Z M43 -358 L1067 -358 L1067 -442 L43 -442 L43 -358 Z " />
<glyph glyph-name="quoteleft" unicode="&#x2018;" horiz-adv-x="511" d="M511 1308 Q455 1299 410 1256 Q365 1213 353 1158 Q362 1161 370 1161 L376 1161 Q421 1161 454.5 1128 Q488 1095 488 1050 Q488 1001 454 965 Q420 929 374 929 Q319 929 284.5 973.5 Q250 1018 250 1088 Q250 1197 333 1291 Q412 1379 531 1399 L511 1308 Z " />
<glyph glyph-name="quoteright" unicode="&#x2019;" horiz-adv-x="511" d="M266 993 Q322 1002 367 1045 Q412 1088 423 1144 Q415 1140 407 1140 L401 1140 Q356 1140 322.5 1173 Q289 1206 289 1251 Q289 1301 323 1336.5 Q357 1372 403 1372 Q458 1372 492.5 1327.5 Q527 1283 527 1213 Q527 1104 444 1010 Q365 922 246 902 L266 993 Z " />
<glyph glyph-name="quotesinglbase" unicode="&#x201a;" horiz-adv-x="511" d="M19 -168 Q75 -158 120 -115 Q165 -72 176 -17 Q168 -20 160 -20 L154 -20 Q109 -20 75.5 13 Q42 46 42 91 Q42 140 76 176 Q110 212 156 212 Q211 212 245.5 167.5 Q280 123 280 53 Q280 -56 197 -150 Q118 -238 -1 -258 L19 -168 Z " />
<glyph glyph-name="quotereversed" unicode="&#x201b;" horiz-adv-x="511" d="M452 956 L433 865 Q348 921 308 1012 Q279 1080 279 1154 Q279 1241 325 1304.5 Q371 1368 433 1368 Q482 1368 514 1334.5 Q546 1301 546 1252 Q546 1201 513 1169 Q480 1137 428 1137 Q392 1137 369 1158 Q364 1137 364 1124 Q364 1073 387.5 1028 Q411 983 452 956 Z " />
<glyph glyph-name="quotedblleft" unicode="&#x201c;" horiz-adv-x="845" d="M507 1312 Q451 1303 406 1260 Q361 1217 349 1162 Q358 1165 366 1165 L372 1165 Q417 1165 450.5 1132 Q484 1099 484 1054 Q484 1005 450 969 Q416 933 370 933 Q315 933 280.5 977.5 Q246 1022 246 1092 Q246 1201 329 1295 Q408 1383 527 1403 L507 1312 Z M853 1312 Q797 1303 752 1260 Q707 1217 696 1162 Q704 1165 713 1165 L718 1165 Q763 1165 796.5 1132 Q830 1099 830 1054 Q830 1005 796 969 Q762 933 716 933 Q661 933 626.5 977.5 Q592 1022 592 1092 Q592 1202 675 1295 Q754 1383 873 1403 L853 1312 Z " />
<glyph glyph-name="quotedblright" unicode="&#x201d;" horiz-adv-x="845" d="M260 993 Q316 1002 361 1045 Q406 1088 417 1144 Q409 1140 401 1140 L395 1140 Q350 1140 316.5 1173 Q283 1206 283 1251 Q283 1301 317 1336.5 Q351 1372 397 1372 Q452 1372 486.5 1327.5 Q521 1283 521 1213 Q521 1104 438 1010 Q359 922 240 902 L260 993 Z M606 993 Q663 1002 707.5 1045 Q752 1088 764 1144 Q755 1140 747 1140 L741 1140 Q696 1140 662.5 1173 Q629 1206 629 1251 Q629 1301 663 1336.5 Q697 1372 743 1372 Q798 1372 832.5 1327.5 Q867 1283 867 1213 Q867 1104 784 1010 Q705 922 586 902 L606 993 Z " />
<glyph glyph-name="quotedblbase" unicode="&#x201e;" horiz-adv-x="845" d="M12 -156 Q68 -146 113 -103.5 Q158 -61 169 -5 Q161 -8 153 -8 L147 -8 Q102 -8 68.5 25 Q35 58 35 102 Q35 152 69 187.5 Q103 223 149 223 Q204 223 238.5 178.5 Q273 134 273 64 Q273 -45 190 -138 Q111 -227 -8 -247 L12 -156 Z M358 -156 Q415 -146 459.5 -103.5 Q504 -61 516 -5 Q507 -8 499 -8 L493 -8 Q448 -8 414.5 25 Q381 58 381 102 Q381 152 415 187.5 Q449 223 495 223 Q550 223 584.5 178.5 Q619 134 619 64 Q619 -45 536 -138 Q457 -227 338 -247 L358 -156 Z " />
<glyph glyph-name="dagger" unicode="&#x2020;" horiz-adv-x="1092" d="M813 1365 L728 967 L1101 967 L1072 828 L699 828 L442 -381 L281 -381 L538 828 L167 828 L197 967 L567 967 L652 1365 L813 1365 Z " />
<glyph glyph-name="daggerdbl" unicode="&#x2021;" horiz-adv-x="1092" d="M808 1365 L717 937 L1096 937 L1067 800 L688 800 L556 179 L935 179 L906 42 L527 42 L437 -381 L281 -381 L371 42 L1 42 L30 179 L400 179 L533 800 L162 800 L191 937 L562 937 L653 1365 L808 1365 Z " />
<glyph glyph-name="bullet" unicode="&#x2022;" horiz-adv-x="1365" d="M730 982 Q842 982 924 899 Q1007 815 1007 696 Q1007 578 925 494 Q842 410 726 410 Q610 410 528 493 Q444 577 444 696 Q444 817 528 899 Q612 982 730 982 Z " />
<glyph glyph-name="ellipsis" unicode="&#x2026;" horiz-adv-x="1532" d="M177 223 Q223 223 255 188.5 Q287 154 287 104 Q287 57 254 23 Q221 -11 176 -11 Q130 -11 97.5 24.5 Q65 60 65 109 Q65 154 98.5 188.5 Q132 223 177 223 Z M688 223 Q734 223 766 188.5 Q798 154 798 104 Q798 57 765 23 Q732 -11 687 -11 Q641 -11 608.5 24.5 Q576 60 576 109 Q576 154 609.5 188.5 Q643 223 688 223 Z M1198 223 Q1244 223 1276 188.5 Q1308 154 1308 104 Q1308 57 1275 23 Q1242 -11 1197 -11 Q1151 -11 1118.5 24.5 Q1086 60 1086 109 Q1086 154 1119.5 188.5 Q1153 223 1198 223 Z " />
<glyph glyph-name="perthousand" unicode="&#x2030;" horiz-adv-x="2364" d="M526 1367 Q651 1367 721.5 1292 Q792 1217 792 1085 Q792 937 722 815 Q618 633 426 633 Q302 633 232 709 Q162 785 162 920 Q162 1008 190.5 1094.5 Q219 1181 268 1242 Q368 1367 526 1367 Z M375 -42 L225 -42 L1321 1383 L1468 1383 L375 -42 Z M521 1260 Q400 1260 340 1096 Q306 1003 306 911 Q306 842 329 800 Q363 740 436 740 Q506 740 562 807 Q602 855 625.5 930 Q649 1005 649 1083 Q649 1168 615.5 1214 Q582 1260 521 1260 Z M1262 707 Q1386 707 1457 631 Q1528 555 1528 422 Q1528 280 1457 155 Q1354 -27 1161 -27 Q1039 -27 968 48.5 Q897 124 897 255 Q897 450 1003 583 Q1101 707 1262 707 Z M1256 600 Q1136 600 1075 437 Q1041 345 1041 249 Q1041 168 1075.5 124 Q1110 80 1172 80 Q1241 80 1297 147 Q1337 193 1360.5 268.5 Q1384 344 1384 423 Q1384 600 1256 600 Z M2028 707 Q2152 707 2223 631 Q2294 555 2294 422 Q2294 280 2223 155 Q2120 -27 1927 -27 Q1805 -27 1734 48.5 Q1663 124 1663 255 Q1663 450 1769 583 Q1867 707 2028 707 Z M2022 600 Q1901 600 1841 437 Q1807 344 1807 249 Q1807 169 1841.5 124.5 Q1876 80 1938 80 Q2007 80 2063 147 Q2103 193 2126.5 269 Q2150 345 2150 423 Q2150 600 2022 600 Z " />
<glyph glyph-name="guilsinglleft" unicode="&#x2039;" horiz-adv-x="511" d="M461 824 L425 654 L196 525 L359 346 L327 192 L90 455 L131 629 L461 824 Z " />
<glyph glyph-name="guilsinglright" unicode="&#x203a;" horiz-adv-x="511" d="M195 824 L432 560 L390 387 L61 192 L97 363 L326 492 L162 670 L195 824 Z " />
<glyph glyph-name="uni203E" unicode="&#x203e;" horiz-adv-x="1024" d="M43 1752 L1067 1752 L1067 1641 L43 1641 L43 1752 Z " />
<glyph glyph-name="fraction" unicode="&#x2044;" horiz-adv-x="311" d="M635 1349 L-131 0 L-242 0 L524 1349 L635 1349 Z " />
<glyph glyph-name="zerosuperior" unicode="&#x2070;" horiz-adv-x="722" d="M521 1365 Q769 1365 769 1078 Q769 869 672 702 Q571 529 399 529 Q283 529 218 608 Q153 687 153 827 Q153 923 181.5 1027.5 Q210 1132 257 1208 Q354 1365 521 1365 Z M518 1267 Q413 1267 346 1128 Q315 1064 294.5 974 Q274 884 274 810 Q274 627 409 627 Q492 627 545 709 Q589 777 618.5 883.5 Q648 990 648 1084 Q648 1267 518 1267 Z " />
<glyph glyph-name="foursuperior" unicode="&#x2074;" horiz-adv-x="722" d="M736 832 L716 739 L600 739 L559 546 L443 546 L484 739 L108 739 L129 837 L633 1365 L733 1365 L619 832 L736 832 Z M510 826 L588 1188 L239 826 L510 826 Z " />
<glyph glyph-name="fivesuperior" unicode="&#x2075;" horiz-adv-x="722" d="M757 1349 L735 1249 L388 1249 L326 1053 Q399 1090 469 1090 Q581 1090 650 1021 Q720 950 720 840 Q720 726 645 637 Q556 530 396 530 Q268 530 197.5 594.5 Q127 659 128 776 L245 776 Q246 628 400 628 Q515 628 566 719 Q597 775 597 839 Q597 903 562 944 Q520 993 438 993 Q332 993 282 913 L179 917 L310 1349 L757 1349 Z " />
<glyph glyph-name="sixsuperior" unicode="&#x2076;" horiz-adv-x="722" d="M783 1142 L666 1142 Q660 1269 542 1269 Q458 1269 405.5 1212.5 Q353 1156 306 1016 Q384 1077 477 1077 Q589 1077 660 1007.5 Q731 938 731 828 Q731 699 644.5 614.5 Q558 530 426 530 Q295 530 224.5 606.5 Q154 683 154 825 Q154 912 180.5 1012.5 Q207 1113 248 1186 Q351 1365 545 1365 Q650 1365 712 1316 Q783 1259 783 1156 Q783 1149 783 1142 Z M454 980 Q375 980 325 927 Q275 874 275 790 Q275 716 318.5 671 Q362 626 435 626 Q511 626 559.5 682 Q608 738 608 826 Q608 898 567 939 Q526 980 454 980 Z " />
<glyph glyph-name="sevensuperior" unicode="&#x2077;" horiz-adv-x="723" d="M821 1349 L801 1256 Q505 970 367 546 L236 546 Q288 721 407 913 Q526 1105 669 1242 Q638 1242 600 1242 L231 1242 L254 1349 L821 1349 Z " />
<glyph glyph-name="eightsuperior" unicode="&#x2078;" horiz-adv-x="722" d="M608 973 Q666 937 688 901 Q718 850 718 790 Q718 677 632 603.5 Q546 530 415 530 Q258 530 184 627 Q136 689 136 773 Q136 857 182 910.5 Q228 964 325 993 Q275 1025 254.5 1060.5 Q234 1096 234 1147 Q234 1242 306 1303.5 Q378 1365 490 1365 Q603 1365 674 1307.5 Q745 1250 745 1159 Q745 1093 712 1048.5 Q679 1004 608 973 Z M492 1269 Q426 1269 388 1234.5 Q350 1200 350 1139 Q350 1085 388 1053.5 Q426 1022 490 1022 Q553 1022 589.5 1056 Q626 1090 626 1148 Q626 1204 590.5 1236.5 Q555 1269 492 1269 Z M437 932 Q355 932 307 888.5 Q259 845 259 771 Q259 705 303 665.5 Q347 626 421 626 Q493 626 538 664 Q595 710 595 790 Q595 856 553 894 Q511 932 437 932 Z " />
<glyph glyph-name="ninesuperior" unicode="&#x2079;" horiz-adv-x="722" d="M147 755 L260 755 Q260 748 260 745 Q260 690 296.5 658 Q333 626 397 626 Q483 626 533.5 686.5 Q584 747 620 894 Q544 822 439 822 Q329 822 260 890 Q191 958 191 1066 Q191 1188 271 1274 Q356 1366 497 1366 Q625 1366 693 1290.5 Q761 1215 761 1072 Q761 984 739 884.5 Q717 785 681 716 Q632 619 563 574.5 Q494 530 393 530 Q274 530 210.5 588 Q147 646 147 755 Z M495 1269 Q403 1269 353 1200 Q310 1142 310 1067 Q310 999 351 958.5 Q392 918 462 918 Q539 918 589 973.5 Q639 1029 639 1115 Q639 1187 601 1228 Q563 1269 495 1269 Z " />
<glyph glyph-name="zeroinferior" unicode="&#x2080;" horiz-adv-x="722" d="M405 819 Q653 819 653 532 Q653 324 556 157 Q455 -16 283 -16 Q167 -16 102 62.5 Q37 141 37 282 Q37 378 65.5 482 Q94 586 141 662 Q238 819 405 819 Z M402 721 Q297 721 230 583 Q199 518 178.5 428 Q158 338 158 265 Q158 82 293 82 Q376 82 429 164 Q473 231 502.5 338 Q532 445 532 538 Q532 721 402 721 Z " />
<glyph glyph-name="oneinferior" unicode="&#x2081;" horiz-adv-x="722" d="M549 815 L376 0 L254 0 L383 608 Q288 590 202 590 Q188 590 163 591 L181 676 Q378 680 460 815 L549 815 Z " />
<glyph glyph-name="twoinferior" unicode="&#x2082;" horiz-adv-x="722" d="M578 100 L556 0 L-4 0 Q3 130 102 224 Q162 281 341 379 Q439 433 481 481.5 Q523 530 523 590 Q523 650 484 686 Q445 722 378 722 Q299 722 252 671.5 Q205 621 199 529 L86 529 Q89 620 135 692 Q216 820 386 820 Q497 820 565 764 Q641 702 641 597 Q641 465 504 366 Q461 335 349 272 Q245 215 204 182 Q163 149 132 100 Q143 100 206 100 L578 100 Z " />
<glyph glyph-name="threeinferior" unicode="&#x2083;" horiz-adv-x="722" d="M131 265 Q130 251 130 237 Q130 82 295 82 Q399 82 451 152 Q484 197 484 252 Q484 381 326 381 Q309 381 269 379 L289 473 Q315 472 331 472 Q523 472 523 608 Q523 660 486 690.5 Q449 721 385 721 Q236 721 210 558 L98 558 Q114 681 192 750 Q270 819 393 819 Q504 819 573.5 762.5 Q643 706 643 616 Q643 483 506 427 Q605 371 605 263 Q605 163 542 88 Q502 39 435 11.5 Q368 -16 291 -16 Q167 -16 91 50 Q15 116 15 223 Q15 241 17 265 L131 265 Z " />
<glyph glyph-name="fourinferior" unicode="&#x2084;" horiz-adv-x="722" d="M620 286 L600 193 L484 193 L443 0 L327 0 L368 193 L-8 193 L13 291 L517 819 L617 819 L503 286 L620 286 Z M394 280 L472 642 L123 280 L394 280 Z " />
<glyph glyph-name="fiveinferior" unicode="&#x2085;" horiz-adv-x="722" d="M641 803 L619 703 L272 703 L210 507 Q283 543 353 543 Q464 543 534 473.5 Q604 404 604 294 Q604 180 529 90 Q440 -16 280 -16 Q152 -16 81.5 48.5 Q11 113 12 230 L129 230 Q130 82 284 82 Q399 82 450 173 Q481 228 481 292 Q481 357 446 397 Q404 446 322 446 Q215 446 166 366 L63 371 L194 803 L641 803 Z " />
<glyph glyph-name="sixinferior" unicode="&#x2086;" horiz-adv-x="722" d="M666 596 L549 596 Q543 724 425 724 Q341 724 288.5 667 Q236 610 189 469 Q267 531 360 531 Q472 531 543 461.5 Q614 392 614 282 Q614 153 527.5 68 Q441 -17 309 -17 Q178 -17 107.5 59.5 Q37 136 37 278 Q37 366 63.5 466.5 Q90 567 131 640 Q234 820 428 820 Q533 820 595 770 Q666 714 666 610 Q666 603 666 596 Z M337 434 Q258 434 208 381 Q158 328 158 244 Q158 169 201.5 124 Q245 79 318 79 Q394 79 442.5 135 Q491 191 491 279 Q491 352 450 393 Q409 434 337 434 Z " />
<glyph glyph-name="seveninferior" unicode="&#x2087;" horiz-adv-x="723" d="M705 803 L685 710 Q389 424 251 0 L120 0 Q172 175 291 367 Q410 559 553 696 Q522 696 484 696 L115 696 L138 803 L705 803 Z " />
<glyph glyph-name="eightinferior" unicode="&#x2088;" horiz-adv-x="722" d="M492 427 Q550 391 572 355 Q602 304 602 244 Q602 131 516 57.5 Q430 -16 299 -16 Q142 -16 68 81 Q20 143 20 227 Q20 311 66 364.5 Q112 418 209 446 Q159 479 138.5 514.5 Q118 550 118 602 Q118 697 190 758.5 Q262 820 374 820 Q487 820 558 762.5 Q629 705 629 613 Q629 547 596 502.5 Q563 458 492 427 Z M376 723 Q310 723 272 688.5 Q234 654 234 593 Q234 539 272 507.5 Q310 476 374 476 Q437 476 473.5 510 Q510 544 510 602 Q510 658 474.5 690.5 Q439 723 376 723 Z M321 385 Q239 385 191 341.5 Q143 298 143 225 Q143 159 187 119.5 Q231 80 305 80 Q377 80 422 117 Q479 164 479 243 Q479 310 437 347.5 Q395 385 321 385 Z " />
<glyph glyph-name="nineinferior" unicode="&#x2089;" horiz-adv-x="722" d="M31 209 L144 209 Q144 202 144 199 Q144 144 180.5 112 Q217 80 281 80 Q367 80 417.5 140.5 Q468 201 504 348 Q428 276 323 276 Q214 276 144.5 344 Q75 412 75 520 Q75 642 155 728 Q240 820 381 820 Q509 820 577 744.5 Q645 669 645 526 Q645 438 623 338.5 Q601 239 565 170 Q516 73 447 28.5 Q378 -16 277 -16 Q158 -16 94.5 42 Q31 100 31 209 Z M379 723 Q287 723 237 654 Q194 596 194 521 Q194 453 235 412.5 Q276 372 346 372 Q423 372 473 427.5 Q523 483 523 569 Q523 641 485 682 Q447 723 379 723 Z " />
<glyph glyph-name="franc" unicode="&#x20a3;" horiz-adv-x="1259" d="M1124 1365 L1092 1213 L479 1213 L386 762 L792 762 L761 616 L355 616 L227 0 L55 0 L339 1365 L1124 1365 Z M1334 785 L1301 627 Q1274 634 1239 634 Q1107 634 1014 523 Q941 435 904 259 L850 0 L705 0 L864 765 L999 765 L959 571 Q996 665 1086.5 727 Q1177 789 1280 789 Q1304 789 1334 785 Z " />
<glyph glyph-name="lira" unicode="&#x20a4;" horiz-adv-x="1092" d="M307 494 L93 494 L111 575 L295 575 Q292 591 285 618 L270 685 Q251 754 244 779 L151 779 L169 860 L226 860 Q218 912 218 950 Q218 1086 296 1202 Q359 1297 465 1346 Q561 1390 677 1390 Q906 1390 1023 1227 Q1097 1124 1097 987 Q1097 965 1095 939 L931 939 Q933 966 933 974 Q933 1097 871 1166 Q804 1241 678 1241 Q519 1241 437 1119 Q384 1041 384 939 Q384 909 391 860 L753 860 L735 779 L407 779 Q415 752 420 736 Q444 655 455 575 L695 575 L677 494 L460 494 Q459 392 414 323.5 Q369 255 221 132 Q347 188 429 188 Q479 188 563 163 Q662 134 688.5 128 Q715 122 749 122 Q793 122 823 134 Q853 146 940 198 L1000 60 Q937 17 865.5 -8 Q794 -33 734 -33 Q667 -33 530 17 Q420 57 352 57 Q302 57 270.5 45.5 Q239 34 122 -28 L66 118 Q307 305 307 471 Q307 484 307 494 Z " />
<glyph glyph-name="peseta" unicode="&#x20a7;" horiz-adv-x="1780" d="M339 1365 L598 1365 Q812 1365 900 1311 Q968 1269 1009 1200 Q1059 1114 1059 1004 Q1059 846 975 724 Q879 585 716 560 Q631 547 483 547 L341 547 L227 0 L55 0 L339 1365 Z M479 1212 L372 694 L481 694 Q609 694 668 705 Q727 716 769 747 Q820 785 850.5 849 Q881 913 881 983 Q881 1114 794 1173 Q735 1212 539 1212 L479 1212 Z M1211 544 L1190 446 L1078 446 L1021 172 Q1014 138 1014 122 Q1014 101 1022.5 93 Q1031 85 1055 85 Q1081 85 1128 100 L1106 -5 Q1064 -14 1022 -14 Q887 -14 887 84 Q887 107 901 172 L958 446 L862 446 L883 544 L979 544 L1011 702 L1131 702 L1099 544 L1211 544 Z M1708 364 L1588 364 Q1588 417 1562 439 Q1536 461 1475 461 Q1381 461 1381 410 Q1381 389 1401 373.5 Q1421 358 1475 338 Q1559 306 1593 289 Q1680 246 1680 161 Q1680 77 1613.5 26.5 Q1547 -24 1436 -24 Q1315 -24 1256 28 Q1197 80 1196 187 L1315 187 Q1315 182 1315 172 Q1315 126 1350.5 99.5 Q1386 73 1450 73 Q1499 73 1528.5 91.5 Q1558 110 1558 141 Q1558 165 1538 181 Q1518 197 1465 217 Q1348 260 1314 287 Q1259 329 1259 395 Q1259 468 1323 514 Q1387 560 1489 560 Q1595 560 1652 512.5 Q1709 465 1709 378 Q1709 375 1708 364 Z " />
<glyph glyph-name="Euro" unicode="&#x20ac;" horiz-adv-x="1374" d="M450 825 L1164 825 L1060 687 L416 687 Q415 682 413 668 Q407 631 406 590 L984 590 L880 450 L414 450 Q436 330 493 257 Q603 120 798 120 Q1016 120 1144 278 L1091 31 Q997 -5 936.5 -17.5 Q876 -30 794 -30 Q476 -30 329 192 Q259 297 237 450 L14 450 L117 590 L230 590 Q232 641 239 687 L68 687 L172 825 L268 825 Q316 1001 423 1134 Q631 1391 977 1391 Q1280 1391 1428 1179 L1299 1005 Q1252 1240 952 1240 Q781 1240 651.5 1134.5 Q522 1029 452 831 L450 825 Z " />
<glyph glyph-name="uni2101" unicode="&#x2101;" horiz-adv-x="2009" d="M1509 1407 L747 -42 L628 -42 L1390 1407 L1509 1407 Z M709 1365 L877 546 L744 546 L700 792 L348 792 L199 546 L55 546 L572 1365 L709 1365 Z M617 1246 Q570 1161 492 1033 L407 893 L682 893 L647 1077 Q623 1202 617 1246 Z M1883 572 L1762 572 Q1761 649 1727 684 Q1677 734 1564 734 Q1476 734 1425 700 Q1374 666 1374 608 Q1374 558 1414.5 529.5 Q1455 501 1564 476 Q1686 447 1740 417 Q1841 359 1841 238 Q1841 123 1747.5 53.5 Q1654 -16 1500 -16 Q1328 -16 1244 57.5 Q1160 131 1161 281 L1284 281 Q1284 196 1313 156 Q1363 86 1505 86 Q1624 86 1680 144 Q1717 181 1717 231 Q1717 287 1680 314.5 Q1643 342 1531 369 Q1401 401 1346 433 Q1253 489 1253 600 Q1253 707 1339.5 771.5 Q1426 836 1569 836 Q1719 836 1801.5 772 Q1884 708 1884 592 Q1884 588 1883 572 Z " />
<glyph glyph-name="afii61248" unicode="&#x2105;" horiz-adv-x="1649" d="M1207 1407 L445 -42 L326 -42 L1088 1407 L1207 1407 Z M659 881 Q628 767 542 701 Q456 635 337 635 Q186 635 113 730 Q53 807 53 926 Q53 998 76.5 1075.5 Q100 1153 138 1208 Q247 1366 442 1366 Q567 1366 633 1304.5 Q699 1243 699 1127 L585 1127 Q586 1272 430 1272 Q324 1272 251 1184 Q169 1084 169 928 Q169 832 214 781 Q259 730 343 730 Q486 730 540 881 L659 881 Z M1236 741 Q1382 741 1459 658 Q1526 585 1526 451 Q1526 275 1423 143 Q1318 8 1144 8 Q1003 8 925.5 86 Q848 164 848 306 Q848 395 879 479.5 Q910 564 963 622 Q1073 741 1236 741 Z M1229 646 Q1120 646 1046 556 Q961 452 961 310 Q961 235 994 181 Q1042 103 1151 103 Q1266 103 1342 212 Q1412 313 1412 447 Q1412 540 1363 593 Q1314 646 1229 646 Z " />
<glyph glyph-name="afii61289" unicode="&#x2113;" horiz-adv-x="1024" d="M547 542 Q525 426 506.5 295 Q488 164 488 127 Q488 75 524 75 Q549 75 571 99 Q593 123 622 183 Q641 221 663 221 Q692 221 692 190 Q692 147 651 81 Q579 -36 482 -36 Q412 -36 374 13.5 Q336 63 336 154 Q336 218 353 394 Q268 305 243 305 Q234 305 225 317.5 Q216 330 216 343 Q216 364 255 399 Q295 436 368 521 Q438 896 532 1133 Q629 1381 776 1381 Q838 1381 875 1334.5 Q912 1288 912 1210 Q912 1035 781 824 Q711 711 547 542 Z M565 658 Q710 815 775 982 Q828 1119 828 1213 Q828 1245 814 1266 Q800 1287 777 1287 Q722 1287 687 1194 Q632 1048 565 658 Z " />
<glyph glyph-name="afii61352" unicode="&#x2116;" horiz-adv-x="2328" d="M1418 1365 L1127 0 L926 0 L452 1096 L219 0 L48 0 L338 1365 L533 1365 L1012 261 L1246 1365 L1418 1365 Z M1925 1166 Q2125 1166 2228 1026 Q2296 934 2296 807 Q2296 612 2154 453 Q2007 287 1784 287 Q1612 287 1511 382.5 Q1410 478 1410 640 Q1410 843 1551 999 Q1703 1166 1925 1166 Z M1912 1017 Q1766 1017 1667 887 Q1586 779 1586 653 Q1586 525 1671 469 Q1723 435 1792 435 Q1938 435 2040 565 Q2120 666 2120 804 Q2120 905 2065 961 Q2010 1017 1912 1017 Z M1289 0 L1323 160 L2144 160 L2109 0 L1289 0 Z " />
<glyph glyph-name="uni2120" unicode="&#x2120;" horiz-adv-x="1873" d="M904 1129 L803 1129 Q797 1293 629 1293 Q532 1293 475.5 1256.5 Q419 1220 419 1157 Q419 1069 553 1032 L646 1006 Q857 947 857 803 Q857 695 765 626.5 Q673 558 528 558 Q378 558 298 627 Q218 696 218 826 L218 843 L323 843 L323 835 Q323 735 370 691.5 Q417 648 525 648 Q632 648 693 686.5 Q754 725 754 794 Q754 836 727.5 859.5 Q701 883 631 904 L496 944 Q316 997 316 1151 Q316 1255 402 1318.5 Q488 1382 630 1382 Q776 1382 848 1305 Q904 1243 904 1141 L904 1129 Z M1273 1364 L1387 745 L1749 1364 L1931 1364 L1764 577 L1663 577 L1811 1272 L1807 1272 L1392 577 L1317 577 L1191 1272 L1187 1272 L1040 577 L939 577 L1105 1364 L1273 1364 Z " />
<glyph glyph-name="trademark" unicode="&#x2122;" horiz-adv-x="1760" d="M838 1368 L816 1263 L568 1263 L423 578 L294 578 L438 1263 L191 1263 L212 1368 L838 1368 Z M1157 1368 L1264 775 L1610 1368 L1817 1368 L1650 578 L1526 578 L1663 1237 L1660 1237 L1272 578 L1181 578 L1066 1237 L1062 1237 L923 578 L798 578 L964 1368 L1157 1368 Z " />
<glyph glyph-name="Omega" unicode="&#x2126;" horiz-adv-x="1364" d="M99 0 L99 148 L465 148 Q96 364 96 746 Q96 1059 331 1256 Q501 1398 724 1398 Q948 1398 1118 1256 Q1353 1059 1353 745 Q1353 364 984 148 L1350 148 L1350 0 L815 0 L815 138 Q949 212 1029 306 Q1182 488 1182 717 Q1182 972 1010 1133 Q887 1249 726 1249 Q563 1249 439 1133 Q267 973 267 718 Q267 340 634 138 L634 0 L99 0 Z " />
<glyph glyph-name="estimated" unicode="&#x212e;" horiz-adv-x="1209" d="M1078 513 L314 513 L313 296 Q345 193 394 149 Q474 77 614 77 Q860 77 957 291 L1047 291 Q1017 195 959 127 Q839 -13 611 -13 Q386 -13 260 133 Q137 275 137 521 Q137 783 273 929 Q404 1070 614 1070 Q787 1070 910 974 Q1001 904 1038 802.5 Q1075 701 1078 513 Z M929 584 L929 774 Q911 824 882 859 Q828 923 764.5 951.5 Q701 980 614 980 Q474 980 394 895 Q357 856 319 775 L318 584 L929 584 Z " />
<glyph glyph-name="onethird" unicode="&#x2153;" horiz-adv-x="1755" d="M665 1361 L492 546 L370 546 L499 1154 Q404 1136 318 1136 Q304 1136 279 1137 L297 1222 Q494 1226 576 1361 L665 1361 Z M1357 1349 L591 0 L481 0 L1247 1349 L1357 1349 Z M1164 265 Q1163 247 1163 237 Q1163 82 1328 82 Q1432 82 1484 152 Q1517 197 1517 252 Q1517 381 1359 381 Q1342 381 1302 379 L1322 473 Q1348 472 1364 472 Q1556 472 1556 608 Q1556 660 1519 690.5 Q1482 721 1418 721 Q1269 721 1243 558 L1131 558 Q1147 681 1225 750 Q1303 819 1426 819 Q1537 819 1606.5 762.5 Q1676 706 1676 616 Q1676 483 1539 427 Q1638 371 1638 263 Q1638 163 1575 88 Q1488 -16 1323 -16 Q1200 -16 1124 50 Q1048 116 1048 223 Q1048 239 1050 265 L1164 265 Z " />
<glyph glyph-name="twothirds" unicode="&#x2154;" horiz-adv-x="1755" d="M694 646 L672 546 L112 546 Q119 676 218 770 Q278 826 457 925 Q556 979 597.5 1027.5 Q639 1076 639 1135 Q639 1195 600 1231 Q561 1267 494 1267 Q415 1267 368 1217 Q321 1167 315 1075 L202 1075 Q205 1165 251 1238 Q332 1365 502 1365 Q613 1365 681 1309 Q757 1247 757 1142 Q757 1011 620 912 Q578 881 465 818 Q361 761 320 728 Q279 695 248 646 Q259 646 322 646 L694 646 Z M1357 1349 L591 0 L481 0 L1247 1349 L1357 1349 Z M1164 265 Q1163 247 1163 237 Q1163 82 1328 82 Q1432 82 1484 152 Q1517 197 1517 252 Q1517 381 1359 381 Q1342 381 1302 379 L1322 473 Q1348 472 1364 472 Q1556 472 1556 608 Q1556 660 1519 690.5 Q1482 721 1418 721 Q1269 721 1243 558 L1131 558 Q1147 681 1225 750 Q1303 819 1426 819 Q1537 819 1606.5 762.5 Q1676 706 1676 616 Q1676 483 1539 427 Q1638 371 1638 263 Q1638 163 1575 88 Q1535 39 1468 11.5 Q1401 -16 1323 -16 Q1200 -16 1124 50 Q1048 116 1048 223 Q1048 239 1050 265 L1164 265 Z " />
<glyph glyph-name="uni2155" unicode="&#x2155;" horiz-adv-x="1756" d="M665 1361 L492 546 L370 546 L499 1154 Q404 1136 318 1136 Q304 1136 279 1137 L297 1222 Q494 1226 576 1361 L665 1361 Z M1357 1349 L591 0 L481 0 L1247 1349 L1357 1349 Z M1673 803 L1652 703 L1305 703 L1243 507 Q1316 543 1385 543 Q1496 543 1566.5 473.5 Q1637 404 1637 294 Q1637 180 1562 90 Q1473 -16 1313 -16 Q1184 -16 1114 48.5 Q1044 113 1045 230 L1162 230 Q1163 82 1317 82 Q1404 82 1459 140.5 Q1514 199 1514 292 Q1514 357 1479 397 Q1437 446 1354 446 Q1248 446 1198 366 L1096 371 L1227 803 L1673 803 Z " />
<glyph glyph-name="uni2156" unicode="&#x2156;" horiz-adv-x="1756" d="M694 646 L672 546 L112 546 Q119 676 218 770 Q278 826 457 925 Q556 979 597.5 1027.5 Q639 1076 639 1135 Q639 1195 600 1231 Q561 1267 494 1267 Q415 1267 368 1217 Q321 1167 315 1075 L202 1075 Q205 1165 251 1238 Q332 1365 502 1365 Q613 1365 681 1309 Q757 1247 757 1142 Q757 1011 620 912 Q578 881 465 818 Q361 761 320 728 Q279 695 248 646 Q259 646 322 646 L694 646 Z M1357 1349 L591 0 L481 0 L1247 1349 L1357 1349 Z M1673 803 L1652 703 L1305 703 L1243 507 Q1316 543 1385 543 Q1496 543 1566.5 473.5 Q1637 404 1637 294 Q1637 180 1562 90 Q1473 -16 1313 -16 Q1184 -16 1114 48.5 Q1044 113 1045 230 L1162 230 Q1163 82 1317 82 Q1432 82 1483 173 Q1514 228 1514 292 Q1514 357 1479 397 Q1437 446 1354 446 Q1248 446 1198 366 L1096 371 L1227 803 L1673 803 Z " />
<glyph glyph-name="uni2157" unicode="&#x2157;" horiz-adv-x="1755" d="M247 811 Q246 797 246 783 Q246 628 411 628 Q515 628 567 699 Q600 743 600 799 Q600 928 442 928 Q422 928 385 925 L405 1019 L447 1019 Q639 1019 639 1155 Q639 1207 602 1237 Q565 1267 501 1267 Q352 1267 326 1104 L214 1104 Q230 1227 308 1296 Q386 1365 509 1365 Q620 1365 689.5 1308.5 Q759 1252 759 1162 Q759 1029 622 973 Q721 916 721 809 Q721 709 658 634 Q618 585 551 557.5 Q484 530 407 530 Q283 530 207 596 Q131 662 131 769 Q131 787 133 811 L247 811 Z M1357 1349 L591 0 L480 0 L1246 1349 L1357 1349 Z M1673 803 L1652 703 L1305 703 L1243 507 Q1316 543 1385 543 Q1496 543 1566.5 473.5 Q1637 404 1637 294 Q1637 180 1562 90 Q1473 -16 1313 -16 Q1184 -16 1113.5 48.5 Q1043 113 1045 230 L1161 230 Q1162 82 1317 82 Q1432 82 1483 173 Q1514 228 1514 292 Q1514 357 1479 397 Q1437 446 1354 446 Q1248 446 1198 366 L1096 371 L1227 803 L1673 803 Z " />
<glyph glyph-name="uni2158" unicode="&#x2158;" horiz-adv-x="1756" d="M736 832 L716 739 L600 739 L559 546 L443 546 L484 739 L108 739 L129 837 L633 1365 L733 1365 L619 832 L736 832 Z M510 826 L588 1188 L239 826 L510 826 Z M1358 1349 L591 0 L481 0 L1247 1349 L1358 1349 Z M1674 803 L1652 703 L1305 703 L1243 507 Q1316 543 1386 543 Q1497 543 1567 473.5 Q1637 404 1637 294 Q1637 180 1562 90 Q1473 -16 1313 -16 Q1185 -16 1114.5 48.5 Q1044 113 1045 230 L1162 230 Q1163 82 1317 82 Q1432 82 1483 173 Q1514 228 1514 292 Q1514 357 1479 397 Q1437 446 1355 446 Q1248 446 1199 366 L1097 371 L1227 803 L1674 803 Z " />
<glyph glyph-name="uni2159" unicode="&#x2159;" horiz-adv-x="1756" d="M665 1361 L492 546 L370 546 L499 1154 Q404 1136 318 1136 Q304 1136 279 1137 L297 1222 Q494 1226 576 1361 L665 1361 Z M1357 1349 L591 0 L481 0 L1247 1349 L1357 1349 Z M1700 596 L1583 596 Q1576 724 1459 724 Q1375 724 1322.5 667 Q1270 610 1222 469 Q1301 531 1394 531 Q1506 531 1576.5 461.5 Q1647 392 1647 282 Q1647 153 1560.5 68 Q1474 -17 1342 -17 Q1211 -17 1141 59.5 Q1071 136 1071 278 Q1071 366 1097 466.5 Q1123 567 1165 640 Q1268 820 1462 820 Q1568 820 1629 770 Q1700 712 1700 610 Q1700 606 1700 596 Z M1370 434 Q1291 434 1241.5 381 Q1192 328 1192 244 Q1192 169 1235 124 Q1278 79 1351 79 Q1427 79 1475.5 135 Q1524 191 1524 279 Q1524 352 1483 393 Q1442 434 1370 434 Z " />
<glyph glyph-name="uni215A" unicode="&#x215a;" horiz-adv-x="1755" d="M757 1349 L735 1249 L388 1249 L326 1053 Q399 1090 469 1090 Q581 1090 650 1021 Q720 950 720 840 Q720 726 645 637 Q556 530 396 530 Q268 530 197.5 594.5 Q127 659 128 776 L245 776 Q246 628 400 628 Q515 628 566 719 Q597 775 597 839 Q597 903 562 944 Q520 993 438 993 Q332 993 282 913 L179 917 L310 1349 L757 1349 Z M1358 1349 L592 0 L481 0 L1247 1349 L1358 1349 Z M1700 596 L1583 596 Q1577 724 1459 724 Q1376 724 1323 667 Q1270 610 1223 469 Q1301 531 1394 531 Q1506 531 1577 461.5 Q1648 392 1648 282 Q1648 153 1561.5 68 Q1475 -17 1343 -17 Q1212 -17 1142 59.5 Q1072 136 1072 278 Q1072 366 1098 466.5 Q1124 567 1166 640 Q1269 820 1462 820 Q1578 820 1639.5 762 Q1701 704 1700 596 Z M1371 434 Q1292 434 1242.5 381 Q1193 328 1193 244 Q1193 168 1236.5 123.5 Q1280 79 1352 79 Q1428 79 1476.5 135 Q1525 191 1525 279 Q1525 352 1484 393 Q1443 434 1371 434 Z " />
<glyph glyph-name="oneeighth" unicode="&#x215b;" horiz-adv-x="1756" d="M665 1361 L492 546 L370 546 L499 1154 Q404 1136 318 1136 Q304 1136 279 1137 L297 1222 Q494 1226 576 1361 L665 1361 Z M1357 1349 L591 0 L481 0 L1247 1349 L1357 1349 Z M1525 427 Q1583 391 1604 355 Q1635 304 1635 244 Q1635 131 1549 57.5 Q1463 -16 1332 -16 Q1175 -16 1101 81 Q1053 143 1053 227 Q1053 311 1099 364.5 Q1145 418 1242 446 Q1192 479 1171 514.5 Q1150 550 1150 602 Q1150 697 1222.5 758.5 Q1295 820 1406 820 Q1519 820 1590.5 762.5 Q1662 705 1662 613 Q1662 547 1629 502.5 Q1596 458 1525 427 Z M1409 723 Q1342 723 1304 688 Q1266 653 1266 593 Q1266 539 1304 507.5 Q1342 476 1406 476 Q1469 476 1506 510 Q1543 544 1543 602 Q1543 658 1507.5 690.5 Q1472 723 1409 723 Z M1353 385 Q1272 385 1224 341.5 Q1176 298 1176 225 Q1176 159 1220 119.5 Q1264 80 1338 80 Q1410 80 1455 117 Q1512 164 1512 243 Q1512 310 1470 347.5 Q1428 385 1353 385 Z " />
<glyph glyph-name="threeeighths" unicode="&#x215c;" horiz-adv-x="1755" d="M247 811 Q246 797 246 783 Q246 628 411 628 Q515 628 567 699 Q600 743 600 799 Q600 928 442 928 Q422 928 385 925 L405 1019 L447 1019 Q639 1019 639 1155 Q639 1207 602 1237 Q565 1267 501 1267 Q352 1267 326 1104 L214 1104 Q230 1227 308 1296 Q386 1365 509 1365 Q620 1365 689.5 1308.5 Q759 1252 759 1162 Q759 1029 622 973 Q721 916 721 809 Q721 709 658 634 Q618 585 551 557.5 Q484 530 407 530 Q283 530 207 596 Q131 662 131 769 Q131 787 133 811 L247 811 Z M1357 1349 L591 0 L480 0 L1246 1349 L1357 1349 Z M1525 427 Q1583 391 1604 355 Q1635 304 1635 244 Q1635 131 1549 57.5 Q1463 -16 1332 -16 Q1175 -16 1101 81 Q1053 143 1053 227 Q1053 311 1099 364.5 Q1145 418 1242 446 Q1192 479 1171 514.5 Q1150 550 1150 602 Q1150 697 1222.5 758.5 Q1295 820 1406 820 Q1519 820 1590.5 762.5 Q1662 705 1662 613 Q1662 547 1629 502.5 Q1596 458 1525 427 Z M1409 723 Q1342 723 1304 688.5 Q1266 654 1266 593 Q1266 539 1304 507.5 Q1342 476 1406 476 Q1469 476 1506 510 Q1543 544 1543 602 Q1543 658 1507.5 690.5 Q1472 723 1409 723 Z M1354 385 Q1272 385 1224 341.5 Q1176 298 1176 225 Q1176 159 1220 119.5 Q1264 80 1338 80 Q1410 80 1455 117 Q1512 164 1512 243 Q1512 310 1470 347.5 Q1428 385 1354 385 Z " />
</font>
</svg>
