<?xml version="1.0" encoding="UTF-8"?>
<svg xmlns="http://www.w3.org/2000/svg" xmlns:xlink="http://www.w3.org/1999/xlink" version="1.2" >
<font id="UHCSans-Light">
<font-face  font-family="UHC Sans" units-per-em="2048" ascent="1694" descent="-354" font-style="normal" font-weight="300" font-stretch="normal" cap-height="1365" x-height="982" underline-position="-195" underline-thickness="67" />
<missing-glyph  horiz-adv-x="512" d="M51 0 L51 1365 L461 1365 L461 0 L51 0 Z M410 51 L410 1314 L102 1314 L102 51 L410 51 Z " />
<glyph glyph-name="space" unicode="&#x20;" horiz-adv-x="512" d="" />
<glyph glyph-name="exclam" unicode="&#x21;" horiz-adv-x="493" d="M309 1365 L295 345 L240 345 L226 1365 L309 1365 Z M269 141 Q297 141 317 119.5 Q337 98 337 69 Q337 39 316.5 17.5 Q296 -4 268 -4 Q240 -4 219.5 17.5 Q199 39 199 69 Q199 99 219.5 120 Q240 141 269 141 Z " />
<glyph glyph-name="quotedbl" unicode="&#x22;" horiz-adv-x="571" d="M201 819 L132 819 L123 1365 L210 1365 L201 819 Z M438 819 L370 819 L361 1365 L448 1365 L438 819 Z " />
<glyph glyph-name="numbersign" unicode="&#x23;" horiz-adv-x="1147" d="M79 494 L287 494 L366 891 L167 891 L167 954 L378 954 L460 1364 L534 1364 L451 954 L849 954 L933 1364 L1006 1364 L922 954 L1113 954 L1113 891 L909 891 L831 494 L1028 494 L1028 431 L817 431 L731 0 L660 0 L745 431 L347 431 L261 0 L188 0 L274 431 L79 431 L79 494 Z M359 494 L758 494 L837 891 L438 891 L359 494 Z " />
<glyph glyph-name="dollar" unicode="&#x24;" horiz-adv-x="1206" d="M577 -20 Q461 -17 340 44 Q200 114 159 263 Q147 310 140 398 L220 398 Q230 266 274.5 196 Q319 126 420 84 Q482 59 577 46 L577 665 Q563 668 528 676 Q349 717 275 783 Q174 872 174 1022 Q174 1225 334 1324 Q421 1379 530 1385 L577 1386 L577 1537 L626 1537 L626 1384 L634 1384 L643 1383 Q823 1373 933 1264 Q1028 1167 1039 1017 L958 1017 Q946 1159 859.5 1238 Q773 1317 626 1320 L626 722 Q865 667 948 604 Q1078 507 1078 351 Q1078 151 910 50 Q851 15 802 2.5 Q753 -10 643 -19 Q640 -19 626 -20 L626 -188 L577 -188 L577 -20 Z M577 732 L577 1321 L571 1321 L564 1321 Q422 1321 336.5 1240.5 Q251 1160 251 1026 Q251 881 362 810 Q423 771 577 732 Z M626 656 L626 46 L636 46 L646 46 Q802 46 897.5 129 Q993 212 993 347 Q993 440 948.5 500.5 Q904 561 806 602 Q786 610 719 630.5 Q652 651 626 656 Z " />
<glyph glyph-name="percent" unicode="&#x25;" horiz-adv-x="1602" d="M387 1365 Q527 1365 603 1279 Q683 1187 683 1009 Q683 838 606.5 747 Q530 656 387 656 Q247 656 171 743 Q89 836 89 1011 Q89 1182 166 1273.5 Q243 1365 387 1365 Z M386 1303 Q266 1303 211 1204 Q168 1126 168 1009 Q168 893 211 817 Q267 719 390 719 Q479 719 537 784 Q605 862 605 1010 Q605 1126 560 1202 Q501 1303 386 1303 Z M449 -39 L368 -39 L1158 1381 L1235 1381 L449 -39 Z M1218 686 Q1357 686 1433 599 Q1514 508 1514 325 Q1514 135 1416 44 Q1341 -24 1220 -24 Q1076 -24 1002 62 Q921 158 921 330 Q921 528 1021 618 Q1096 686 1218 686 Z M1216 623 Q1114 623 1057 546 Q1000 469 1000 332 Q1000 209 1043 137 Q1100 39 1221 39 Q1312 39 1369 105 Q1437 183 1437 327 Q1437 445 1392 523 Q1335 623 1216 623 Z " />
<glyph glyph-name="ampersand" unicode="&#x26;" horiz-adv-x="1190" d="M1001 564 Q998 415 930 272 L1155 0 L1057 0 L891 205 Q746 -27 492 -27 Q327 -27 215 63 Q91 163 91 328 Q91 448 171.5 544 Q252 640 447 754 Q329 900 295 963 Q261 1026 261 1094 Q261 1209 343.5 1282 Q426 1355 556 1355 Q670 1355 747 1291 Q839 1215 839 1098 Q839 971 728 867 Q681 821 555 737 L880 333 Q922 445 929 564 L1001 564 Z M513 789 Q765 934 765 1093 Q765 1178 704 1234 Q643 1290 552 1290 Q448 1290 386 1226 Q333 1172 333 1094 Q333 1019 410 918 Q486 820 513 789 Z M489 701 Q319 604 244 517 Q169 430 169 329 Q169 191 280 107 Q372 37 498 37 Q604 37 695.5 96 Q787 155 845 260 L489 701 Z " />
<glyph glyph-name="quotesingle" unicode="&#x27;" horiz-adv-x="333" d="M201 819 L132 819 L123 1365 L210 1365 L201 819 Z " />
<glyph glyph-name="parenleft" unicode="&#x28;" horiz-adv-x="531" d="M404 1365 Q293 1180 231.5 953.5 Q170 727 170 500 Q170 61 404 -354 L338 -354 Q211 -128 151 81 Q91 290 91 506 Q91 723 157.5 955.5 Q224 1188 338 1365 L404 1365 Z " />
<glyph glyph-name="parenright" unicode="&#x29;" horiz-adv-x="531" d="M126 -354 Q238 -168 299.5 58 Q361 284 361 510 Q361 949 126 1365 L193 1365 Q299 1176 354 1014 Q440 764 440 505 Q440 288 373.5 56 Q307 -176 193 -354 L126 -354 Z " />
<glyph glyph-name="asterisk" unicode="&#x2a;" horiz-adv-x="1147" d="M855 1143 L616 1064 L765 864 L721 831 L573 1033 L420 834 L375 868 L528 1064 L292 1143 L310 1195 L545 1115 L545 1365 L600 1365 L600 1115 L836 1195 L855 1143 Z " />
<glyph glyph-name="plus" unicode="&#x2b;" horiz-adv-x="1147" d="M111 691 L541 691 L541 1123 L607 1123 L607 691 L1037 691 L1037 625 L607 625 L607 193 L541 193 L541 625 L111 625 L111 691 Z " />
<glyph glyph-name="comma" unicode="&#x2c;" horiz-adv-x="410" d="M144 -222 L144 -167 Q213 -130 218 -2 L204 -5 L198 -5 Q169 -5 148.5 15 Q128 35 128 64 Q128 95 149 118 Q170 141 197 141 Q277 141 277 12 Q277 -80 241 -143.5 Q205 -207 144 -222 Z " />
<glyph glyph-name="hyphen" unicode="&#x2d;" horiz-adv-x="437" d="M437 541 L437 471 L0 471 L0 541 L437 541 Z " />
<glyph glyph-name="period" unicode="&#x2e;" horiz-adv-x="410" d="M206 141 Q234 141 254 119.5 Q274 98 274 69 Q274 39 253.5 17.5 Q233 -4 205 -4 Q177 -4 156.5 17.5 Q136 39 136 69 Q136 99 156.5 120 Q177 141 206 141 Z " />
<glyph glyph-name="slash" unicode="&#x2f;" horiz-adv-x="834" d="M757 1365 L-9 -354 L-79 -354 L691 1365 L757 1365 Z " />
<glyph glyph-name="zero" unicode="0" horiz-adv-x="1147" d="M579 1395 Q738 1395 858 1287 Q1052 1113 1052 683 Q1052 392 961 213 Q901 96 799.5 33 Q698 -30 570 -30 Q340 -30 217 148.5 Q94 327 94 662 Q94 982 197 1166 Q259 1277 357.5 1336 Q456 1395 579 1395 Z M580 1324 Q440 1324 342 1231 Q173 1068 173 657 Q173 414 246 253 Q296 142 393 87 Q475 41 571 41 Q762 41 867.5 209 Q973 377 973 682 Q973 944 897 1104 Q843 1217 752 1275 Q674 1324 580 1324 Z " />
<glyph glyph-name="one" unicode="1" horiz-adv-x="1147" d="M687 1394 L687 0 L605 0 L605 1243 Q470 1090 254 1065 L254 1134 Q385 1160 467 1219 Q549 1278 617 1394 L687 1394 Z " />
<glyph glyph-name="two" unicode="2" horiz-adv-x="1147" d="M1017 72 L1017 0 L135 0 Q153 167 231.5 265.5 Q310 364 574 551 Q767 688 841.5 789 Q916 890 916 1013 Q916 1164 816 1248 Q729 1322 588 1322 Q465 1322 379 1260 Q308 1208 275.5 1125 Q243 1042 241 909 L164 909 Q166 1029 187.5 1106.5 Q209 1184 259 1248 Q312 1317 399.5 1355 Q487 1393 592 1393 Q769 1393 878 1297 Q995 1193 995 1015 Q995 838 863 696 Q774 600 534 431 Q363 310 302 239.5 Q241 169 225 72 L250 72 L289 72 L1017 72 Z " />
<glyph glyph-name="three" unicode="3" horiz-adv-x="1147" d="M144 940 Q150 1115 220 1221 Q334 1395 583 1395 Q770 1395 881 1296 Q990 1198 990 1043 Q990 919 920.5 838 Q851 757 726 735 Q832 716 896 669 Q1026 575 1026 390 Q1026 200 890 78 Q769 -30 570 -30 Q327 -30 201 127 Q109 242 109 414 Q109 425 110 454 L185 454 Q184 432 184 426 Q184 254 279 153 Q384 41 572 41 Q746 41 851 146 Q947 241 947 381 Q947 537 845.5 617 Q744 697 547 697 Q524 697 502 696 L502 766 Q533 764 558 764 Q696 764 781 811 Q911 884 911 1040 Q911 1170 821.5 1247 Q732 1324 580 1324 Q409 1324 315.5 1225.5 Q222 1127 217 940 L144 940 Z " />
<glyph glyph-name="four" unicode="4" horiz-adv-x="1147" d="M1037 429 L1037 356 L819 356 L819 0 L744 0 L744 356 L105 356 L105 441 L743 1398 L819 1398 L819 429 L1037 429 Z M744 429 L744 1121 Q744 1213 745 1297 Q684 1195 653 1149 L256 553 L171 429 L221 429 L279 429 L744 429 Z " />
<glyph glyph-name="five" unicode="5" horiz-adv-x="1147" d="M966 1365 L966 1293 L353 1293 L274 904 Q255 809 243 753 Q369 920 578 920 Q795 920 922 760 Q1026 628 1026 449 Q1026 256 907 120 Q778 -28 570 -28 Q366 -28 245.5 92 Q125 212 121 418 L196 418 Q203 298 241 225 Q288 136 379 88 Q467 43 569 43 Q748 43 856 176 Q947 288 947 446 Q947 615 848 727 Q740 849 567 849 Q352 849 235 662 L161 665 L297 1365 L966 1365 Z " />
<glyph glyph-name="six" unicode="6" horiz-adv-x="1147" d="M1010 1032 L932 1032 Q912 1151 842 1223 Q746 1322 601 1322 Q319 1322 233 967 Q199 825 195 607 Q236 720 306 788 Q425 904 599 904 Q789 904 916 768 Q1038 637 1038 440 Q1038 246 913 109 Q787 -30 587 -30 Q422 -30 304 70 Q208 151 165 284.5 Q122 418 122 634 Q122 963 221 1154 Q345 1393 602 1393 Q770 1393 877 1298.5 Q984 1204 1010 1032 Z M593 833 Q421 833 312 707 Q217 598 217 440 Q217 271 323 157 Q431 41 589 41 Q759 41 867 170 Q959 281 959 439 Q959 597 867 705 Q758 833 593 833 Z " />
<glyph glyph-name="seven" unicode="7" horiz-adv-x="1147" d="M1024 1365 L1024 1293 Q1002 1265 929 1183 Q704 924 576 575 Q477 307 460 2 L378 2 Q387 354 553 713 Q716 1058 955 1294 L841 1293 L176 1293 L176 1365 L1024 1365 Z " />
<glyph glyph-name="eight" unicode="8" horiz-adv-x="1147" d="M410 742 Q291 770 227 849 Q163 928 163 1048 Q163 1224 293 1319 Q398 1395 573 1395 Q777 1395 883 1297 Q983 1204 983 1052 Q983 932 919.5 852.5 Q856 773 737 743 Q851 721 917 667 Q1038 567 1038 389 Q1038 191 907 76 Q788 -30 577 -30 Q350 -30 229 85 Q108 199 108 382 Q108 528 186.5 621.5 Q265 715 410 742 Z M573 1324 Q415 1324 331 1253 Q242 1177 242 1047 Q242 919 330.5 846.5 Q419 774 575 774 Q737 774 823 854 Q904 928 904 1046 Q904 1187 810 1259 Q724 1324 573 1324 Z M571 707 Q400 707 296 626 Q187 541 187 384 Q187 224 290.5 132.5 Q394 41 575 41 Q767 41 867 143 Q959 237 959 384 Q959 558 833 639 Q729 707 571 707 Z " />
<glyph glyph-name="nine" unicode="9" horiz-adv-x="1147" d="M146 326 L221 326 Q239 221 302 149 Q397 41 555 41 Q748 41 850.5 209.5 Q953 378 953 696 Q953 716 952 768 Q944 748 940 738 Q901 642 848 585 Q733 462 550 462 Q341 462 213 617 Q108 744 108 924 Q108 1136 250 1273 Q376 1395 556 1395 Q740 1395 863 1276 Q950 1192 989 1061 Q1028 930 1028 724 Q1028 429 961 264 Q841 -30 555 -30 Q389 -30 277 67 Q165 164 146 326 Z M561 1324 Q391 1324 283 1198 Q187 1087 187 926 Q187 774 276 665 Q383 533 557 533 Q730 533 836 660 Q929 771 929 928 Q929 1086 835 1195 Q723 1324 561 1324 Z " />
<glyph glyph-name="colon" unicode="&#x3a;" horiz-adv-x="444" d="M241 141 Q269 141 289 119.5 Q309 98 309 69 Q309 39 288.5 17.5 Q268 -4 240 -4 Q212 -4 191.5 17.5 Q171 39 171 69 Q171 99 191.5 120 Q212 141 241 141 Z M241 895 Q269 895 289 873.5 Q309 852 309 823 Q309 793 288.5 771.5 Q268 750 240 750 Q212 750 191.5 771.5 Q171 793 171 823 Q171 853 191.5 874 Q212 895 241 895 Z " />
<glyph glyph-name="semicolon" unicode="&#x3b;" horiz-adv-x="444" d="M178 -222 L178 -167 Q247 -130 252 -2 L238 -5 L232 -5 Q203 -5 182.5 15 Q162 35 162 64 Q162 95 183 118 Q204 141 231 141 Q311 141 311 12 Q311 -80 275 -143.5 Q239 -207 178 -222 Z M241 895 Q269 895 289 873.5 Q309 852 309 823 Q309 793 288.5 771.5 Q268 750 240 750 Q212 750 191.5 771.5 Q171 793 171 823 Q171 853 191.5 874 Q212 895 241 895 Z " />
<glyph glyph-name="less" unicode="&#x3c;" horiz-adv-x="1024" d="M955 1120 L955 1032 L163 684 L955 336 L955 248 L68 644 L68 724 L955 1120 Z " />
<glyph glyph-name="equal" unicode="&#x3d;" horiz-adv-x="1147" d="M111 833 L1037 833 L1037 766 L111 766 L111 833 Z M111 558 L1037 558 L1037 492 L111 492 L111 558 Z " />
<glyph glyph-name="greater" unicode="&#x3e;" horiz-adv-x="1024" d="M69 248 L69 336 L861 684 L69 1032 L69 1120 L956 724 L956 644 L69 248 Z " />
<glyph glyph-name="question" unicode="&#x3f;" horiz-adv-x="1010" d="M112 942 Q114 1106 173 1208 Q225 1296 318.5 1345 Q412 1394 528 1394 Q715 1394 822 1286 Q919 1189 919 1052 Q919 926 838 822 Q809 785 686 668 Q626 611 605 582 Q584 553 572 512 Q558 463 557 344 L480 344 Q479 494 506 558.5 Q533 623 634 717 Q758 833 799 899 Q840 965 840 1049 Q840 1162 758 1243 Q673 1327 525 1327 Q320 1327 232 1160 Q190 1081 186 942 L112 942 Z M518 141 Q546 141 566 119.5 Q586 98 586 69 Q586 39 565.5 17.5 Q545 -4 517 -4 Q489 -4 468.5 17.5 Q448 39 448 69 Q448 99 468.5 120 Q489 141 518 141 Z " />
<glyph glyph-name="at" unicode="&#x40;" horiz-adv-x="1824" d="M1265 -68 L1288 -140 Q1182 -183 1076 -197 Q981 -209 908 -209 Q758 -209 617 -153 Q408 -70 274 113 Q116 327 116 588 Q116 739 174 885 Q257 1094 439 1229 Q651 1386 912 1386 Q1063 1386 1206 1329 Q1415 1246 1549 1068 Q1709 857 1709 601 Q1709 402 1601 272.5 Q1493 143 1328 143 Q1165 143 1165 293 L1165 317 L1163 317 Q1101 218 1023 174.5 Q945 131 828 131 Q687 131 610 196 Q533 261 533 380 Q533 509 625 567 Q680 601 753.5 620.5 Q827 640 958 654 Q1079 667 1114 693 Q1151 722 1151 799 Q1151 992 913 992 Q795 992 734 943.5 Q673 895 657 789 L574 789 Q587 921 675.5 989.5 Q764 1058 923 1058 Q1236 1058 1236 782 L1236 296 Q1236 209 1325 209 Q1455 209 1544 322 Q1633 435 1633 600 Q1633 732 1579 864 Q1502 1050 1337 1170 Q1146 1310 912 1310 Q774 1310 645 1258 Q455 1181 334 1018 Q192 826 192 588 Q192 452 245 320 Q321 129 486 7 Q675 -133 907 -133 Q1011 -133 1095.5 -117.5 Q1180 -102 1265 -68 Z M1148 646 Q1135 624 1101 615 Q1067 606 916 586 Q760 565 689 517.5 Q618 470 618 386 Q618 302 672.5 250 Q727 198 816 198 Q960 198 1053 277 Q1151 361 1151 486 L1151 646 L1148 646 Z " />
<glyph glyph-name="A" unicode="A" horiz-adv-x="1230" d="M665 1367 L1208 0 L1116 0 L945 438 L286 438 L112 0 L23 0 L576 1367 L665 1367 Z M918 510 L669 1143 Q644 1207 619 1286 L607 1253 Q576 1170 568 1149 L313 510 L918 510 Z " />
<glyph glyph-name="B" unicode="B" horiz-adv-x="1290" d="M173 1365 L714 1365 Q899 1365 998 1304 Q1071 1259 1111.5 1186 Q1152 1113 1152 1026 Q1152 907 1080.5 823 Q1009 739 889 717 Q988 699 1040 668 Q1115 624 1157 548 Q1199 472 1199 381 Q1199 268 1142 180 Q1085 92 980 45 Q882 0 700 0 L173 0 L173 1365 Z M256 1293 L256 744 L646 744 Q837 744 914 778 Q986 809 1027.5 873 Q1069 937 1069 1017 Q1069 1180 932 1251 Q852 1293 692 1293 L256 1293 Z M256 672 L256 72 L694 72 Q898 72 995 138 Q1116 221 1116 381 Q1116 525 1012.5 598.5 Q909 672 705 672 L256 672 Z " />
<glyph glyph-name="C" unicode="C" horiz-adv-x="1394" d="M1316 530 Q1299 330 1186 185 Q1018 -31 724 -31 Q576 -31 450 29.5 Q324 90 239 203 Q98 390 98 680 Q98 993 270 1193 Q446 1396 734 1396 Q1000 1396 1164 1223 Q1276 1104 1294 956 L1213 956 Q1185 1084 1101 1173 Q958 1324 728 1324 Q460 1324 306 1111 Q181 939 181 682 Q181 424 298 259 Q379 146 502 89 Q607 41 725 41 Q935 41 1072 172 Q1209 303 1235 530 L1316 530 Z " />
<glyph glyph-name="D" unicode="D" horiz-adv-x="1352" d="M173 1365 L634 1365 Q777 1365 879 1331 Q981 1297 1061 1223 Q1155 1137 1205.5 1003 Q1256 869 1256 705 Q1256 345 1064 154 Q982 72 881.5 36 Q781 0 634 0 L173 0 L173 1365 Z M256 1293 L256 72 L607 72 Q752 72 841 100.5 Q930 129 1001 197 Q1173 365 1173 697 Q1173 996 1018 1155 Q947 1228 855 1260.5 Q763 1293 629 1293 L256 1293 Z " />
<glyph glyph-name="E" unicode="E" horiz-adv-x="1181" d="M1093 1365 L1093 1293 L256 1293 L256 747 L1043 747 L1043 675 L256 675 L256 72 L1103 72 L1103 0 L173 0 L173 1365 L1093 1365 Z " />
<glyph glyph-name="F" unicode="F" horiz-adv-x="1071" d="M1033 1365 L1033 1293 L256 1293 L256 745 L954 745 L954 673 L256 673 L256 0 L173 0 L173 1365 L1033 1365 Z " />
<glyph glyph-name="G" unicode="G" horiz-adv-x="1475" d="M1336 668 L1336 0 L1276 0 L1267 332 Q1230 217 1156 137 Q1001 -31 742 -31 Q541 -31 387 68 Q250 157 174 314 Q98 471 98 668 Q98 827 146 966 Q194 1105 283 1203 Q458 1396 743 1396 Q1011 1396 1178 1217 Q1287 1101 1313 943 L1234 943 Q1199 1114 1064 1219 Q929 1324 743 1324 Q462 1324 303 1103 Q181 933 181 667 Q181 405 315 239 Q474 41 744 41 Q933 41 1068 143 Q1163 214 1213 324 Q1263 434 1263 571 Q1263 579 1263 596 L759 596 L759 668 L1336 668 Z " />
<glyph glyph-name="H" unicode="H" horiz-adv-x="1384" d="M1214 1365 L1214 0 L1131 0 L1131 679 L254 679 L254 0 L171 0 L171 1365 L254 1365 L254 751 L1131 751 L1131 1365 L1214 1365 Z " />
<glyph glyph-name="I" unicode="I" horiz-adv-x="426" d="M255 1365 L255 0 L172 0 L172 1365 L255 1365 Z " />
<glyph glyph-name="J" unicode="J" horiz-adv-x="941" d="M789 1365 L789 371 Q789 190 720 99 Q621 -32 411 -32 Q214 -32 122 67.5 Q30 167 30 381 Q30 404 31 433 L111 433 Q110 402 110 387 Q110 239 146 171 Q216 40 412 40 Q577 40 653 141 Q706 212 706 376 L706 1365 L789 1365 Z " />
<glyph glyph-name="K" unicode="K" horiz-adv-x="1260" d="M1229 1365 L599 798 L1267 0 L1162 0 L540 742 L256 484 L256 0 L173 0 L173 1365 L256 1365 L256 696 L256 634 L256 581 Q296 621 342 663 L1119 1365 L1229 1365 Z " />
<glyph glyph-name="L" unicode="L" horiz-adv-x="1065" d="M1035 72 L1035 0 L172 0 L172 1365 L255 1365 L255 72 L1035 72 Z " />
<glyph glyph-name="M" unicode="M" horiz-adv-x="1660" d="M1491 1365 L1491 0 L1408 0 L1408 1021 Q1408 1168 1418 1288 L1408 1261 L1392 1219 Q1359 1134 1357 1128 L875 0 L794 0 L311 1115 Q298 1146 260 1252 L248 1285 Q256 1091 256 1022 L256 0 L173 0 L173 1365 L291 1365 L767 261 L789 205 Q820 127 834 87 Q887 226 901 258 L1374 1365 L1491 1365 Z " />
<glyph glyph-name="N" unicode="N" horiz-adv-x="1401" d="M1231 1365 L1231 0 L1135 0 L369 1081 Q309 1166 251 1269 Q254 1222 255 1126 L256 1060 L256 0 L173 0 L173 1365 L271 1365 L1021 303 Q1080 220 1154 98 Q1148 214 1148 359 L1148 1365 L1231 1365 Z " />
<glyph glyph-name="O" unicode="O" horiz-adv-x="1494" d="M753 1396 Q939 1396 1095 1296 Q1256 1191 1332 1011 Q1395 861 1395 674 Q1395 390 1247 202 Q1063 -31 743 -31 Q428 -31 247 201 Q98 392 98 680 Q98 1002 273 1192 Q459 1396 753 1396 Z M754 1324 Q499 1324 336 1143 Q181 969 181 684 Q181 418 316 245 Q475 41 744 41 Q1006 41 1167 231 Q1312 402 1312 675 Q1312 963 1158 1140 Q997 1324 754 1324 Z " />
<glyph glyph-name="P" unicode="P" horiz-adv-x="1215" d="M173 1365 L704 1365 Q812 1365 877.5 1350.5 Q943 1336 996 1301 Q1150 1199 1150 989 Q1150 809 1037.5 707 Q925 605 727 605 L256 605 L256 0 L173 0 L173 1365 Z M256 1293 L256 677 L679 677 Q775 677 826.5 686.5 Q878 696 924 723 Q1067 806 1067 984 Q1067 1158 945 1240 Q899 1271 845.5 1282 Q792 1293 690 1293 L256 1293 Z " />
<glyph glyph-name="Q" unicode="Q" horiz-adv-x="1493" d="M1400 -9 L1358 -63 L1133 98 Q981 -31 749 -31 Q453 -31 266 177 Q98 366 98 673 Q98 995 276 1193 Q460 1396 749 1396 Q1043 1396 1227 1182 Q1394 988 1394 686 Q1394 523 1340.5 381 Q1287 239 1188 142 L1400 -9 Z M1125 189 Q1311 393 1311 686 Q1311 941 1182 1110 Q1020 1324 748 1324 Q612 1324 497 1267 Q382 1210 305 1103 Q181 933 181 677 Q181 415 306 253 Q386 148 511 92 Q625 41 750 41 Q934 41 1067 146 L853 297 L898 353 L1125 189 Z " />
<glyph glyph-name="R" unicode="R" horiz-adv-x="1305" d="M165 1365 L728 1365 Q912 1365 1011 1301 Q1163 1203 1163 1002 Q1163 868 1086.5 778.5 Q1010 689 872 662 Q1001 643 1062 577 Q1107 528 1121.5 467 Q1136 406 1144 227 Q1152 56 1176 18 L1187 0 L1095 0 Q1072 37 1065 212 Q1058 382 1039.5 449 Q1021 516 969 559 Q925 596 857.5 611 Q790 626 672 626 L248 626 L248 0 L165 0 L165 1365 Z M248 1293 L248 698 L660 698 Q856 698 949 754 Q1080 832 1080 999 Q1080 1162 955 1240 Q870 1293 700 1293 L248 1293 Z " />
<glyph glyph-name="S" unicode="S" horiz-adv-x="1204" d="M1077 978 L995 978 Q985 1120 917 1196 Q865 1257 773 1289.5 Q681 1322 565 1322 Q391 1322 291 1252 Q182 1176 182 1036 Q182 881 331 818 Q400 788 663 727 Q803 694 864.5 673.5 Q926 653 976 622 Q1112 537 1112 361 Q1112 178 976 74.5 Q840 -29 599 -29 Q396 -29 258 52 Q61 167 58 452 L138 452 Q140 284 222 184 Q278 117 377.5 80 Q477 43 603 43 Q823 43 931 137 Q1029 222 1029 356 Q1029 508 890 577 Q819 612 571 669 Q412 706 344.5 728.5 Q277 751 223 785 Q99 865 99 1035 Q99 1202 225 1298 Q351 1394 570 1394 Q856 1394 989 1234 Q1068 1140 1077 978 Z " />
<glyph glyph-name="T" unicode="T" horiz-adv-x="1106" d="M1078 1365 L1078 1293 L594 1293 L594 0 L511 0 L511 1293 L28 1293 L28 1365 L1078 1365 Z " />
<glyph glyph-name="U" unicode="U" horiz-adv-x="1357" d="M1206 1365 L1206 530 Q1206 300 1125 174 Q992 -31 688 -31 Q350 -31 219 197 Q151 315 151 535 L151 1365 L234 1365 L234 530 Q234 411 252 336 Q270 261 314 200 Q427 41 688 41 Q938 41 1047 200 Q1123 311 1123 532 L1123 1365 L1206 1365 Z " />
<glyph glyph-name="V" unicode="V" horiz-adv-x="1168" d="M1146 1365 L637 0 L540 0 L23 1365 L114 1365 L523 272 Q536 237 590 74 Q615 160 655 269 L1061 1365 L1146 1365 Z " />
<glyph glyph-name="W" unicode="W" horiz-adv-x="1796" d="M1762 1365 L1371 0 L1277 0 L956 1077 Q947 1106 923 1197 Q906 1256 899 1289 Q891 1257 874 1195 L859 1140 L840 1075 L526 0 L432 0 L35 1365 L124 1365 L425 318 Q429 305 442 253 Q447 233 458 193 Q472 139 482 89 Q491 135 507 193 L540 314 L849 1365 L951 1365 L1267 305 Q1278 269 1302 179 Q1316 125 1324 89 Q1343 174 1360 239 L1378 305 L1679 1365 L1762 1365 Z " />
<glyph glyph-name="X" unicode="X" horiz-adv-x="1168" d="M1123 1365 L637 702 L1148 0 L1047 0 L645 550 Q637 560 618 590 Q604 611 584 639 L518 547 L117 0 L20 0 L534 702 L50 1365 L149 1365 L522 855 Q530 843 547 817 Q566 788 584 761 L651 857 L1029 1365 L1123 1365 Z " />
<glyph glyph-name="Y" unicode="Y" horiz-adv-x="1173" d="M1180 1365 L628 570 L628 0 L545 0 L545 570 L-5 1365 L94 1365 L528 736 Q554 699 589 641 Q627 704 647 732 L1086 1365 L1180 1365 Z " />
<glyph glyph-name="Z" unicode="Z" horiz-adv-x="1150" d="M1080 1365 L1080 1285 L207 144 Q172 99 151 70 Q269 72 294 72 L1098 72 L1098 0 L60 0 L60 83 L938 1229 Q972 1271 989 1294 Q911 1293 870 1293 L119 1293 L119 1365 L1080 1365 Z " />
<glyph glyph-name="bracketleft" unicode="&#x5b;" horiz-adv-x="534" d="M423 1365 L423 1301 L235 1301 L235 -290 L423 -290 L423 -354 L160 -354 L160 1365 L423 1365 Z " />
<glyph glyph-name="backslash" unicode="&#x5c;" horiz-adv-x="834" d="M78 1365 L144 1365 L914 -354 L843 -354 L78 1365 Z " />
<glyph glyph-name="bracketright" unicode="&#x5d;" horiz-adv-x="534" d="M112 -354 L112 -290 L300 -290 L300 1301 L112 1301 L112 1365 L375 1365 L375 -354 L112 -354 Z " />
<glyph glyph-name="asciicircum" unicode="&#x5e;" horiz-adv-x="1024" d="M172 790 L81 790 L460 1367 L564 1367 L944 790 L851 790 L510 1305 L172 790 Z " />
<glyph glyph-name="underscore" unicode="&#x5f;" horiz-adv-x="1024" d="M0 -161 L1024 -161 L1024 -228 L0 -228 L0 -161 Z " />
<glyph glyph-name="grave" unicode="&#x60;" horiz-adv-x="1024" d="M364 1406 L596 1137 L525 1137 L264 1406 L364 1406 Z " />
<glyph glyph-name="a" unicode="a" horiz-adv-x="1005" d="M970 74 L970 6 Q933 2 912 2 Q840 2 812 35.5 Q784 69 784 155 L784 179 L776 179 Q733 114 700.5 81 Q668 48 621 22 Q527 -28 396 -28 Q239 -28 152.5 45 Q66 118 66 251 Q66 405 179 468 Q242 504 302.5 517 Q363 530 592 559 Q686 571 721 593 Q772 627 772 713 Q772 831 701.5 888 Q631 945 486 945 Q360 945 281 884 Q243 854 224.5 815.5 Q206 777 197 707 L111 707 Q122 790 145 837 Q233 1011 504 1011 Q858 1011 858 702 L858 135 Q858 68 923 68 Q948 68 970 74 Z M775 558 Q760 534 727.5 524 Q695 514 580 498 Q390 473 313 447 Q152 393 152 255 Q152 157 218 98 Q284 39 394 39 Q545 39 654 126 Q778 224 778 375 L778 558 L775 558 Z " />
<glyph glyph-name="b" unicode="b" horiz-adv-x="1132" d="M238 1365 L238 751 Q338 1011 612 1011 Q812 1011 933 864 Q1045 728 1045 493 Q1045 249 921 105 Q806 -29 611 -29 Q468 -29 372 39 Q276 107 237 236 L237 0 L159 0 L159 1365 L238 1365 Z M609 944 Q439 944 339 825 Q238 704 238 492 Q238 275 348 149 Q446 38 605 38 Q767 38 863 154 Q967 279 967 491 Q967 679 887 797 Q788 944 609 944 Z " />
<glyph glyph-name="c" unicode="c" horiz-adv-x="1026" d="M959 345 Q942 217 878 129 Q763 -29 541 -29 Q302 -29 180 155 Q89 292 89 486 Q89 735 219 874 Q347 1011 549 1011 Q720 1011 826 923.5 Q932 836 950 680 L872 680 Q852 780 804 838 Q714 944 550 944 Q354 944 251 795 Q167 673 167 490 Q167 301 259 175 Q359 38 538 38 Q680 38 771 120 Q862 202 881 345 L959 345 Z " />
<glyph glyph-name="d" unicode="d" horiz-adv-x="1134" d="M976 1365 L976 0 L901 0 L901 239 Q876 158 827 99 Q719 -29 527 -29 Q306 -29 188 134 Q88 272 88 486 Q88 734 213 875 Q334 1011 526 1011 Q662 1011 752.5 949 Q843 887 898 756 L898 1365 L976 1365 Z M537 944 Q368 944 269 826 Q166 702 166 487 Q166 306 244 186 Q340 38 530 38 Q707 38 807 169 Q900 290 900 491 Q900 695 807 812 Q702 944 537 944 Z " />
<glyph glyph-name="e" unicode="e" horiz-adv-x="1044" d="M955 336 Q936 232 891 160 Q772 -29 537 -29 Q322 -29 200 124 Q89 265 89 483 Q89 725 219 871 Q343 1011 536 1011 Q689 1011 797 920 Q921 817 954 638 Q966 574 965 479 L169 479 Q170 364 198 285 Q236 175 315 111 Q406 38 537 38 Q704 38 803 161 Q857 228 878 336 L955 336 Z M886 546 Q879 693 821 786 Q723 944 535 944 Q403 944 306 860 Q192 762 170 546 L886 546 Z " />
<glyph glyph-name="f" unicode="f" horiz-adv-x="508" d="M482 1366 L482 1297 Q438 1306 405 1306 Q308 1306 273 1248 Q258 1224 254 1190 Q250 1156 250 1065 L250 982 L456 982 L456 915 L250 915 L250 0 L172 0 L172 915 L3 915 L3 982 L172 982 L172 1084 Q172 1222 200 1273 Q253 1372 399 1372 Q433 1372 482 1366 Z " />
<glyph glyph-name="g" unicode="g" horiz-adv-x="1109" d="M952 983 L952 79 Q952 -105 896 -202 Q796 -374 524 -374 Q347 -374 246.5 -296 Q146 -218 135 -72 L213 -72 Q225 -164 268 -213 Q349 -307 524 -307 Q709 -307 791.5 -216.5 Q874 -126 874 77 L874 283 Q845 214 816 176 Q707 34 506 34 Q303 34 187 184 Q89 309 89 512 Q89 738 203 872 Q322 1012 520 1012 Q646 1012 738.5 946 Q831 880 877 757 L877 983 L952 983 Z M526 945 Q341 945 244 804 Q167 692 167 523 Q167 328 261 213 Q353 101 514 101 Q693 101 796 240 Q873 346 873 522 Q873 732 765 845 Q711 900 637 925 Q578 945 526 945 Z " />
<glyph glyph-name="h" unicode="h" horiz-adv-x="1087" d="M237 1365 L237 875 L234 760 Q333 1011 586 1011 Q784 1011 880 868 Q937 782 937 629 L937 0 L859 0 L859 618 Q859 765 805 837 Q724 944 572 944 Q390 944 297 786 Q237 683 237 498 L237 0 L159 0 L159 1365 L237 1365 Z " />
<glyph glyph-name="i" unicode="i" horiz-adv-x="393" d="M198 1345 Q226 1345 246 1323.5 Q266 1302 266 1273 Q266 1243 245.5 1221.5 Q225 1200 197 1200 Q169 1200 148.5 1221.5 Q128 1243 128 1273 Q128 1303 148.5 1324 Q169 1345 198 1345 Z M236 982 L236 0 L158 0 L158 982 L236 982 Z " />
<glyph glyph-name="j" unicode="j" horiz-adv-x="389" d="M231 982 L231 -103 Q231 -186 219 -232 Q207 -278 177 -307 Q125 -359 6 -359 Q-17 -359 -39 -356 L-39 -289 Q-10 -290 0 -290 Q56 -290 81 -281.5 Q106 -273 123 -248 Q153 -204 153 -109 L153 982 L231 982 Z M193 1345 Q221 1345 241 1323.5 Q261 1302 261 1273 Q261 1243 240.5 1221.5 Q220 1200 192 1200 Q164 1200 143.5 1221.5 Q123 1243 123 1273 Q123 1303 143.5 1324 Q164 1345 193 1345 Z " />
<glyph glyph-name="k" unicode="k" horiz-adv-x="1004" d="M948 982 L518 616 L978 0 L880 0 L459 562 L237 373 L237 0 L159 0 L159 1365 L237 1365 L237 574 Q237 501 237 461 L315 531 L843 982 L948 982 Z " />
<glyph glyph-name="l" unicode="l" horiz-adv-x="393" d="M236 1365 L236 0 L158 0 L158 1365 L236 1365 Z " />
<glyph glyph-name="m" unicode="m" horiz-adv-x="1619" d="M237 982 L237 784 Q269 871 326 923 Q420 1011 555 1011 Q774 1011 842 800 Q884 888 933 931 Q1024 1011 1161 1011 Q1320 1011 1406 906 Q1442 862 1456 811 Q1470 760 1470 675 L1470 0 L1392 0 L1392 666 Q1392 786 1352 846 Q1286 944 1144 944 Q1008 944 932.5 855 Q857 766 857 606 L857 0 L779 0 L779 649 Q779 765 749 825 Q691 944 539 944 Q399 944 318.5 841.5 Q238 739 238 560 L238 0 L159 0 L159 982 L237 982 Z " />
<glyph glyph-name="n" unicode="n" horiz-adv-x="1091" d="M237 982 L237 769 Q332 1011 596 1011 Q781 1011 877 886 Q914 838 927.5 783 Q941 728 941 628 L941 0 L863 0 L863 608 Q863 743 833 807 Q802 870 734.5 907 Q667 944 581 944 Q441 944 349 857 Q289 801 263.5 721 Q238 641 238 511 L238 0 L159 0 L159 982 L237 982 Z " />
<glyph glyph-name="o" unicode="o" horiz-adv-x="1087" d="M552 1011 Q765 1011 891 848 Q998 709 998 485 Q998 253 879 116 Q754 -29 544 -29 Q326 -29 201 126 Q89 266 89 489 Q89 709 200 850 Q327 1011 552 1011 Z M550 944 Q375 944 268 816 Q167 694 167 490 Q167 286 265 166 Q370 38 546 38 Q721 38 822 164 Q920 286 920 485 Q920 680 829 805 Q778 875 698 911 Q626 944 550 944 Z " />
<glyph glyph-name="p" unicode="p" horiz-adv-x="1127" d="M237 982 L237 750 Q260 828 316 893 Q419 1011 602 1011 Q811 1011 928 859 Q1039 714 1039 488 Q1039 275 936 134 Q817 -29 604 -29 Q467 -29 371.5 37 Q276 103 238 225 L238 -354 L159 -354 L159 982 L237 982 Z M601 944 Q413 944 316 803 Q237 688 237 486 Q237 284 321 173 Q424 38 599 38 Q783 38 883 191 Q961 309 961 487 Q961 686 872 809 Q774 944 601 944 Z " />
<glyph glyph-name="q" unicode="q" horiz-adv-x="1126" d="M968 982 L968 -354 L890 -354 L890 226 Q859 144 805 86 Q697 -29 520 -29 Q309 -29 191 130 Q88 269 88 487 Q88 727 211 872 Q328 1011 528 1011 Q665 1011 751 950 Q837 889 894 751 L894 982 L968 982 Z M537 944 Q357 944 260 815 Q166 690 166 484 Q166 288 256 168 Q354 38 527 38 Q710 38 808 178 Q894 301 894 487 Q894 685 806 809 Q710 944 537 944 Z " />
<glyph glyph-name="r" unicode="r" horiz-adv-x="606" d="M618 989 L618 911 Q598 912 589 912 Q418 912 318 779 Q271 716 254.5 642.5 Q238 569 238 425 L238 0 L159 0 L159 982 L237 982 L237 724 Q297 903 443 961 Q514 989 618 989 Z " />
<glyph glyph-name="s" unicode="s" horiz-adv-x="920" d="M810 696 L732 696 Q724 786 692 836 Q622 944 432 944 Q315 944 248 901 Q163 848 163 747 Q163 686 196 651 Q228 616 282.5 595.5 Q337 575 475 544 Q651 504 726 461 Q841 396 841 261 Q841 195 809.5 137.5 Q778 80 723 43 Q616 -29 454 -29 Q261 -29 158 63 Q55 155 51 330 L128 330 Q133 215 176 155 Q259 38 455 38 Q596 38 676 97 Q763 160 763 258 Q763 340 698 385.5 Q633 431 460 471 Q257 517 194 552 Q85 611 85 742 Q85 891 216 964 Q301 1011 439 1011 Q644 1011 740 901 Q801 831 810 696 Z " />
<glyph glyph-name="t" unicode="t" horiz-adv-x="513" d="M452 982 L452 915 L241 915 L241 249 Q241 146 257 114 Q284 62 369 62 Q403 62 452 72 L452 2 Q400 -5 359 -5 Q229 -5 187 70 Q172 97 167.5 135.5 Q163 174 163 280 L163 915 L-16 915 L-16 982 L163 982 L163 1289 L241 1289 L241 982 L452 982 Z " />
<glyph glyph-name="u" unicode="u" horiz-adv-x="1082" d="M926 982 L926 0 L851 0 L851 208 Q743 -29 499 -29 Q331 -29 241.5 68.5 Q152 166 152 350 L152 982 L230 982 L230 396 Q230 247 262 178 Q291 114 354 78 Q426 36 515 36 Q678 36 772 168 Q848 276 848 449 L848 982 L926 982 Z " />
<glyph glyph-name="v" unicode="v" horiz-adv-x="880" d="M870 982 L499 0 L409 0 L10 982 L95 982 L376 293 Q384 272 435 133 L455 77 Q508 229 533 296 L790 982 L870 982 Z " />
<glyph glyph-name="w" unicode="w" horiz-adv-x="1403" d="M1382 982 L1065 0 L977 0 L744 746 Q725 807 703 892 Q678 797 663 748 L430 0 L338 0 L22 982 L105 982 L333 264 Q351 207 384 84 Q429 256 434 269 L656 982 L752 982 L975 265 Q992 209 1024 86 Q1055 207 1072 261 L1302 982 L1382 982 Z " />
<glyph glyph-name="x" unicode="x" horiz-adv-x="894" d="M849 982 L493 518 L887 0 L787 0 L480 407 Q467 424 443 460 L407 409 L100 0 L7 0 L396 514 L37 982 L137 982 L399 634 Q405 627 445 571 Q478 620 489 634 L757 982 L849 982 Z " />
<glyph glyph-name="y" unicode="y" horiz-adv-x="894" d="M884 982 L462 -102 Q400 -261 353 -303 Q297 -353 192 -353 Q168 -353 146 -352 L118 -350 L118 -280 Q157 -286 182 -286 Q268 -286 311 -240 Q331 -219 342.5 -196.5 Q354 -174 398 -66 Q426 -6 426 0 Q426 4 424 8 L10 982 L98 982 L422 212 Q429 194 466 89 Q495 180 511 222 L803 982 L884 982 Z " />
<glyph glyph-name="z" unicode="z" horiz-adv-x="850" d="M800 982 L800 918 L191 136 L136 67 Q195 67 219 67 L830 67 L830 0 L48 0 L48 73 L653 848 Q661 859 709 915 Q686 915 642 915 L97 915 L97 982 L800 982 Z " />
<glyph glyph-name="braceleft" unicode="&#x7b;" horiz-adv-x="534" d="M116 505 Q177 475 202 422 Q227 369 227 272 L227 -78 Q227 -146 237.5 -183.5 Q248 -221 274 -248 Q316 -290 398 -290 L418 -290 L418 -354 L404 -354 Q265 -354 208.5 -284.5 Q152 -215 152 -47 L152 275 Q152 365 126 408 Q100 451 33 474 L33 538 Q99 559 125.5 602 Q152 645 152 731 L152 1091 Q152 1233 212.5 1299 Q273 1365 405 1365 L418 1365 L418 1301 L398 1301 Q310 1301 268.5 1252 Q227 1203 227 1099 L227 729 Q227 634 202.5 585 Q178 536 116 505 Z " />
<glyph glyph-name="bar" unicode="&#x7c;" horiz-adv-x="1024" d="M469 1365 L556 1365 L556 -341 L469 -341 L469 1365 Z " />
<glyph glyph-name="braceright" unicode="&#x7d;" horiz-adv-x="534" d="M418 505 Q357 536 332 589 Q307 642 307 739 L307 1089 Q307 1157 296.5 1194.5 Q286 1232 259 1259 Q218 1301 136 1301 L116 1301 L116 1365 L130 1365 Q268 1365 325 1295.5 Q382 1226 382 1058 L382 736 Q382 645 407.5 602 Q433 559 501 537 L501 473 Q435 452 408.5 409 Q382 366 382 279 L382 -80 Q382 -222 321 -288 Q260 -354 129 -354 L116 -354 L116 -290 L136 -290 Q224 -290 265.5 -241 Q307 -192 307 -88 L307 282 Q307 377 331 426 Q355 475 418 505 Z " />
<glyph glyph-name="asciitilde" unicode="&#x7e;" horiz-adv-x="1365" d="M249 1217 L195 1256 Q251 1361 315 1411 Q379 1461 459 1461 Q538 1461 699 1376 Q786 1330 827.5 1315 Q869 1300 907 1300 Q969 1300 1017 1337.5 Q1065 1375 1117 1465 L1171 1426 Q1068 1221 902 1221 Q856 1221 809 1239 Q762 1257 633 1324 Q521 1383 456 1383 Q396 1383 348.5 1344.5 Q301 1306 249 1217 Z " />
<glyph glyph-name="nbspace" unicode="&#xa0;" horiz-adv-x="512" d="" />
<glyph glyph-name="exclamdown" unicode="&#xa1;" horiz-adv-x="493" d="M184 -384 L198 636 L253 636 L267 -384 L184 -384 Z M226 965 Q254 965 274 943.5 Q294 922 294 893 Q294 863 273.5 841.5 Q253 820 225 820 Q197 820 176.5 841.5 Q156 863 156 893 Q156 923 176.5 944 Q197 965 226 965 Z " />
<glyph glyph-name="cent" unicode="&#xa2;" horiz-adv-x="1147" d="M1000 532 Q980 372 881 272 Q777 168 609 162 L609 -42 L561 -42 L561 162 Q379 175 272 293 Q144 435 144 679 Q144 904 254 1041 Q364 1178 561 1198 L561 1365 L609 1365 L609 1198 Q779 1189 879 1097 Q976 1008 994 867 L916 867 Q895 986 815.5 1054.5 Q736 1123 609 1132 L609 227 Q763 234 849 344 Q909 422 925 532 L1000 532 Z M561 1130 Q415 1114 330 1016 Q223 895 223 681 Q223 483 310 366 Q397 249 561 227 L561 1130 Z " />
<glyph glyph-name="sterling" unicode="&#xa3;" horiz-adv-x="1147" d="M1031 924 L955 924 Q949 1324 587 1324 Q414 1324 319 1232 Q231 1149 231 1026 Q231 972 247.5 922 Q264 872 309 786 Q331 745 358 693 L664 693 L664 643 L385 643 Q432 538 432 433 Q432 307 351 189 Q320 144 234 56 Q317 99 351.5 110 Q386 121 440 121 Q487 121 524 111 Q561 101 688 54 Q742 34 795 34 Q858 34 931.5 71.5 Q1005 109 1054 167 L1097 107 Q957 -39 796 -39 Q749 -39 711.5 -29.5 Q674 -20 546 26 Q475 51 411 51 Q354 51 305.5 32 Q257 13 187 -37 L137 35 Q243 118 300.5 218.5 Q358 319 358 421 Q358 532 302 643 L149 643 L149 693 L274 693 L265 709 Q203 823 189 857 Q152 947 152 1030 Q152 1204 291 1309 Q404 1395 589 1395 Q806 1395 918.5 1275 Q1031 1155 1031 924 Z " />
<glyph glyph-name="currency" unicode="&#xa4;" horiz-adv-x="1365" d="M155 235 L335 420 Q224 557 224 716 Q224 872 335 1010 L148 1194 L198 1244 L382 1060 Q522 1175 682 1175 Q846 1175 982 1061 L1167 1244 L1217 1194 L1032 1011 Q1142 873 1142 715 Q1142 554 1033 420 L1218 235 L1168 185 L983 370 Q849 260 685 260 Q528 260 387 370 L204 185 L155 235 Z M688 1100 Q525 1100 413 986 Q303 874 303 716 Q303 559 414 447 Q526 335 683 335 Q841 335 952 448 Q1063 559 1063 716 Q1063 878 953 987 Q839 1100 688 1100 Z " />
<glyph glyph-name="yen" unicode="&#xa5;" horiz-adv-x="1147" d="M420 794 L98 1365 L190 1365 L573 678 L959 1365 L1046 1365 L723 794 L1006 794 L1006 744 L695 744 L609 592 L609 497 L965 497 L965 447 L609 447 L609 0 L534 0 L534 447 L180 447 L180 497 L534 497 L534 592 L448 744 L139 744 L139 794 L420 794 Z " />
<glyph glyph-name="brokenbar" unicode="&#xa6;" horiz-adv-x="1024" d="M469 1365 L556 1365 L556 699 L469 699 L469 1365 Z M469 314 L556 314 L556 -341 L469 -341 L469 314 Z " />
<glyph glyph-name="section" unicode="&#xa7;" horiz-adv-x="1147" d="M899 1009 L823 1009 Q819 1109 784 1166 Q716 1279 555 1279 Q453 1279 388.5 1225.5 Q324 1172 324 1086 Q324 1009 375 957 Q412 920 538 850 Q791 707 873 642 Q1008 533 1008 402 Q1008 312 950.5 241 Q893 170 791 134 Q854 78 880 29.5 Q906 -19 906 -81 Q906 -202 814.5 -278 Q723 -354 578 -354 Q413 -354 320.5 -260 Q228 -166 228 1 L304 1 Q308 -141 377.5 -214 Q447 -287 578 -287 Q695 -287 763 -226 Q826 -168 826 -85 Q826 7 746 74 Q689 122 511 226 Q286 357 230 412 Q138 501 138 612 Q138 705 193.5 776.5 Q249 848 349 884 Q247 967 247 1085 Q247 1200 334 1273 Q421 1346 557 1346 Q719 1346 806.5 1260 Q894 1174 899 1009 Z M399 845 Q322 811 287 779 Q213 712 213 618 Q213 522 310 446 Q361 406 658 227 Q709 197 737 176 Q831 205 882 261.5 Q933 318 933 392 Q933 484 845 563 Q757 642 493 789 Q433 822 399 845 Z " />
<glyph glyph-name="dieresis" unicode="&#xa8;" horiz-adv-x="1024" d="M681 1346 Q709 1346 729 1324.5 Q749 1303 749 1274 Q749 1244 728.5 1222.5 Q708 1201 680 1201 Q652 1201 631.5 1222.5 Q611 1244 611 1274 Q611 1304 631.5 1325 Q652 1346 681 1346 Z M346 1346 Q374 1346 394 1324.5 Q414 1303 414 1274 Q414 1244 393.5 1222.5 Q373 1201 345 1201 Q317 1201 296.5 1222.5 Q276 1244 276 1274 Q276 1304 296.5 1325 Q317 1346 346 1346 Z " />
<glyph glyph-name="copyright" unicode="&#xa9;" horiz-adv-x="1623" d="M1177 604 Q1167 484 1096 399 Q993 276 815 276 Q643 276 537.5 387.5 Q432 499 432 681 Q432 860 537 973 Q645 1089 820 1089 Q957 1089 1053.5 1016 Q1150 943 1164 829 L1102 829 Q1085 904 1036 952 Q952 1035 817 1035 Q674 1035 585 937.5 Q496 840 496 682 Q496 540 565 449 Q656 330 815 330 Q940 330 1020 403 Q1100 476 1115 604 L1177 604 Z M821 1396 Q1013 1396 1184 1291 Q1356 1185 1447 1007 Q1525 854 1525 682 Q1525 481 1420 310 Q1315 138 1136 47 Q983 -31 812 -31 Q611 -31 440 74 Q268 179 176 358 Q98 512 98 681 Q98 883 203 1056 Q306 1225 489 1319 Q640 1396 821 1396 Z M820 1341 Q543 1341 351 1149 Q259 1057 209 935 Q159 814 159 681 Q159 497 256 338 Q352 180 516 96 Q656 24 812 24 Q1082 24 1273 217 Q1464 410 1464 683 Q1464 869 1368 1027 Q1275 1183 1108 1269 Q970 1341 820 1341 Z " />
<glyph glyph-name="ordfeminine" unicode="&#xaa;" horiz-adv-x="765" d="M687 608 L78 608 L78 676 L687 676 L687 608 Z M649 875 L649 825 Q624 816 604 816 Q560 816 543.5 835.5 Q527 855 525 908 Q481 850 442 830 Q389 804 319 804 Q229 804 178.5 845.5 Q128 887 128 960 Q128 1070 236 1110 Q281 1126 452 1140 Q495 1143 509 1155.5 Q523 1168 523 1201 Q523 1265 495 1291 Q455 1328 375 1328 Q229 1328 216 1186 L158 1186 Q170 1380 381 1380 Q448 1380 498 1357 Q548 1334 568 1295 Q583 1264 583 1171 L583 1098 L583 1000 L583 958 L583 924 Q583 887 588 877.5 Q593 868 612 868 Q626 868 649 875 Z M523 1110 Q484 1093 409 1085 Q291 1073 249 1055 Q189 1028 189 965 Q189 914 225 884.5 Q261 855 323 855 Q416 855 470 908 Q523 961 523 1034 L523 1110 Z " />
<glyph glyph-name="guillemotleft" unicode="&#xab;" horiz-adv-x="705" d="M325 219 L105 467 L105 541 L325 791 L325 701 L158 502 L325 315 L325 219 Z M572 218 L351 465 L351 539 L572 792 L572 703 L404 502 L572 309 L572 218 Z " />
<glyph glyph-name="logicalnot" unicode="&#xac;" horiz-adv-x="1024" d="M870 0 L870 478 L68 478 L68 555 L955 555 L955 0 L870 0 Z " />
<glyph glyph-name="uni00AD" unicode="&#xad;" horiz-adv-x="437" d="M437 541 L437 471 L0 471 L0 541 L437 541 Z " />
<glyph glyph-name="registered" unicode="&#xae;" horiz-adv-x="1076" d="M355 1207 L555 1207 Q631 1207 672 1174 Q713 1141 713 1078 Q713 1009 656 974 Q686 955 694.5 933 Q703 911 707 840 Q710 799 713.5 788 Q717 777 738 751 L664 751 Q649 778 647 833 Q645 883 638.5 903 Q632 923 616 932 Q594 944 537 944 L417 944 L417 751 L355 751 L355 1207 Z M417 1150 L417 1001 L533 1001 Q651 1001 651 1077 Q651 1150 546 1150 L417 1150 Z M533 1407 Q715 1407 845 1265 Q955 1144 955 979 Q955 787 813 660 Q691 550 527 550 Q336 550 208 691 Q98 813 98 982 Q98 1167 240 1296 Q362 1407 533 1407 Z M521 1348 Q363 1348 252 1226 Q157 1121 157 979 Q157 814 279 704 Q384 609 526 609 Q692 609 801 731 Q896 837 896 982 Q896 1141 773 1253 Q669 1348 521 1348 Z " />
<glyph glyph-name="overscore" unicode="&#xaf;" horiz-adv-x="1024" d="M771 1293 L771 1233 L254 1233 L254 1293 L771 1293 Z " />
<glyph glyph-name="degree" unicode="&#xb0;" horiz-adv-x="748" d="M376 1353 Q491 1353 575 1267 Q654 1186 654 1071 Q654 956 572 874 Q491 792 376 792 Q251 792 167 884 Q94 963 94 1074 Q94 1204 189 1283 Q272 1353 376 1353 Z M372 1292 Q289 1292 229 1235 Q157 1168 157 1073 Q157 991 210 928 Q275 853 375 853 Q462 853 526.5 917 Q591 981 591 1068 Q591 1162 528 1226 Q463 1292 372 1292 Z " />
<glyph glyph-name="plusminus" unicode="&#xb1;" horiz-adv-x="1147" d="M111 691 L541 691 L541 1123 L607 1123 L607 691 L1037 691 L1037 625 L607 625 L607 192 L541 192 L541 625 L111 625 L111 691 Z M111 121 L1037 121 L1037 55 L111 55 L111 121 Z " />
<glyph glyph-name="twosuperior" unicode="&#xb2;" horiz-adv-x="734" d="M645 605 L645 546 L90 546 Q101 650 148.5 707.5 Q196 765 363 874 Q479 951 523.5 1006 Q568 1061 568 1128 Q568 1205 516 1250 Q464 1295 376 1295 Q175 1295 172 1061 L108 1061 Q110 1196 169 1266 Q239 1351 378 1351 Q493 1351 562.5 1290.5 Q632 1230 632 1129 Q632 1038 575.5 971.5 Q519 905 347 792 Q248 728 214.5 693.5 Q181 659 164 605 L645 605 Z " />
<glyph glyph-name="threesuperior" unicode="&#xb3;" horiz-adv-x="733" d="M95 1078 Q99 1188 144 1250 Q216 1352 373 1352 Q490 1352 559 1294 Q629 1236 629 1145 Q629 1017 499 971 Q650 928 650 776 Q650 667 570.5 598.5 Q491 530 364 530 Q233 530 154 600 Q75 670 75 787 Q75 799 76 820 L138 820 Q137 803 137 797 Q137 698 197.5 642 Q258 586 366 586 Q463 586 524.5 637.5 Q586 689 586 771 Q586 942 349 942 Q334 942 314 940 L314 997 Q335 996 357 996 Q457 996 510.5 1034.5 Q564 1073 564 1144 Q564 1213 511.5 1254.5 Q459 1296 371 1296 Q163 1296 157 1078 L95 1078 Z " />
<glyph glyph-name="acute" unicode="&#xb4;" horiz-adv-x="1024" d="M755 1406 L502 1137 L433 1137 L658 1406 L755 1406 Z " />
<glyph glyph-name="mu" unicode="&#xb5;" horiz-adv-x="1024" d="M125 -335 L125 983 L203 983 L203 405 Q203 288 220 234 Q247 146 323 92.5 Q399 39 497 39 Q650 39 739 161 Q821 273 821 430 L821 983 L899 983 L899 0 L821 0 L821 215 Q781 114 725 61 Q633 -29 495 -29 Q397 -29 327.5 10.5 Q258 50 203 137 L203 -335 L125 -335 Z " />
<glyph glyph-name="paragraph" unicode="&#xb6;" horiz-adv-x="1147" d="M523 -354 L523 638 Q501 637 491 637 Q371 637 278 691 Q201 735 156 815 Q109 898 109 998 Q109 1098 155.5 1182 Q202 1266 282 1311 Q377 1365 549 1365 L1013 1365 L1013 1301 L904 1301 L904 -354 L822 -354 L822 1301 L605 1301 L605 -354 L523 -354 Z " />
<glyph glyph-name="periodcentered" unicode="&#xb7;" horiz-adv-x="410" d="M206 558 Q234 558 254 536.5 Q274 515 274 486 Q274 456 253.5 434.5 Q233 413 205 413 Q177 413 156.5 434.5 Q136 456 136 486 Q136 516 156.5 537 Q177 558 206 558 Z " />
<glyph glyph-name="cedilla" unicode="&#xb8;" horiz-adv-x="1024" d="M547 0 L461 -108 Q506 -100 534 -100 Q599 -100 640 -133 Q681 -166 681 -219 Q681 -288 626 -329.5 Q571 -371 479 -371 Q407 -371 303 -333 L324 -287 Q403 -321 472 -321 Q533 -321 569.5 -295.5 Q606 -270 606 -229 Q606 -193 576 -170.5 Q546 -148 498 -148 Q459 -148 406 -168 L378 -143 L493 0 L547 0 Z " />
<glyph glyph-name="onesuperior" unicode="&#xb9;" horiz-adv-x="733" d="M444 1339 L444 546 L378 546 L378 1227 Q298 1153 164 1138 L164 1192 Q249 1208 298.5 1240 Q348 1272 389 1339 L444 1339 Z " />
<glyph glyph-name="ordmasculine" unicode="&#xba;" horiz-adv-x="765" d="M687 608 L78 608 L78 676 L687 676 L687 608 Z M388 1380 Q504 1380 575 1300 Q646 1220 646 1089 Q646 961 577 884 Q504 804 383 804 Q255 804 184 891 Q119 969 119 1091 Q119 1213 183 1291 Q257 1380 388 1380 Z M386 1328 Q292 1328 236 1263.5 Q180 1199 180 1092 Q180 985 233 922 Q289 856 384 856 Q477 856 532 921 Q585 984 585 1089 Q585 1192 536 1257 Q482 1328 386 1328 Z " />
<glyph glyph-name="guillemotright" unicode="&#xbb;" horiz-adv-x="705" d="M379 791 L599 544 L599 469 L379 219 L379 310 L546 509 L379 696 L379 791 Z M132 792 L355 546 L355 472 L132 218 L132 307 L302 508 L132 702 L132 792 Z " />
<glyph glyph-name="onequarter" unicode="&#xbc;" horiz-adv-x="1749" d="M444 1339 L444 546 L378 546 L378 1227 Q298 1153 164 1138 L164 1192 Q249 1208 298.5 1240 Q348 1272 389 1339 L444 1339 Z M1322 1335 L491 0 L426 0 L1257 1335 L1322 1335 Z M1673 254 L1673 198 L1540 198 L1540 0 L1477 0 L1477 198 L1087 198 L1087 255 L1480 794 L1540 794 L1540 254 L1673 254 Z M1477 254 L1477 702 L1152 254 L1477 254 Z " />
<glyph glyph-name="onehalf" unicode="&#xbd;" horiz-adv-x="1748" d="M444 1339 L444 546 L378 546 L378 1227 Q298 1153 164 1138 L164 1192 Q249 1208 298.5 1240 Q348 1272 389 1339 L444 1339 Z M1322 1335 L491 0 L426 0 L1257 1335 L1322 1335 Z M1660 59 L1660 0 L1105 0 Q1116 104 1164 162 Q1212 220 1378 329 Q1494 405 1538.5 460.5 Q1583 516 1583 583 Q1583 660 1531 705 Q1479 750 1391 750 Q1190 750 1187 515 L1123 515 Q1125 651 1184 721 Q1254 806 1393 806 Q1509 806 1578 745 Q1647 684 1647 583 Q1647 493 1590.5 426 Q1534 359 1362 246 Q1263 181 1229.5 147 Q1196 113 1179 59 L1660 59 Z " />
<glyph glyph-name="threequarters" unicode="&#xbe;" horiz-adv-x="1749" d="M95 1078 Q99 1188 144 1250 Q216 1352 373 1352 Q490 1352 559 1294 Q629 1236 629 1145 Q629 1017 499 971 Q650 928 650 776 Q650 667 570.5 598.5 Q491 530 364 530 Q233 530 154 600 Q75 670 75 787 Q75 799 76 820 L138 820 Q137 803 137 797 Q137 698 197.5 642 Q258 586 366 586 Q463 586 524.5 637.5 Q586 689 586 771 Q586 942 349 942 Q334 942 314 940 L314 997 Q335 996 357 996 Q457 996 510.5 1034.5 Q564 1073 564 1144 Q564 1213 511.5 1254.5 Q459 1296 371 1296 Q163 1296 157 1078 L95 1078 Z M1322 1335 L490 0 L426 0 L1257 1335 L1322 1335 Z M1673 254 L1673 198 L1540 198 L1540 0 L1477 0 L1477 198 L1087 198 L1087 255 L1480 794 L1540 794 L1540 254 L1673 254 Z M1477 254 L1477 702 L1152 254 L1477 254 Z " />
<glyph glyph-name="questiondown" unicode="&#xbf;" horiz-adv-x="1011" d="M899 40 Q897 -125 837 -227 Q785 -315 692 -364 Q599 -413 483 -413 Q295 -413 188 -305 Q91 -208 91 -70 Q91 55 172 160 Q201 198 323 314 Q383 371 404.5 400 Q426 429 437 470 Q451 520 452 638 L531 638 Q531 489 504.5 425 Q478 361 375 265 Q283 178 245 131 Q170 37 170 -67 Q170 -190 258.5 -268 Q347 -346 485 -346 Q691 -346 779 -179 Q820 -100 824 40 L899 40 Z M493 964 Q521 964 541 942.5 Q561 921 561 892 Q561 862 540.5 840.5 Q520 819 492 819 Q464 819 443.5 840.5 Q423 862 423 892 Q423 922 443.5 943 Q464 964 493 964 Z " />
<glyph glyph-name="Agrave" unicode="&#xc0;" horiz-adv-x="1230" d="M665 1367 L1208 0 L1116 0 L945 438 L286 438 L112 0 L23 0 L576 1367 L665 1367 Z M918 510 L669 1143 Q644 1207 619 1286 L607 1253 Q576 1170 568 1149 L313 510 L918 510 Z M342 1730 L445 1730 L697 1481 L623 1481 L342 1730 Z " />
<glyph glyph-name="Aacute" unicode="&#xc1;" horiz-adv-x="1230" d="M665 1367 L1208 0 L1116 0 L945 438 L286 438 L112 0 L23 0 L576 1367 L665 1367 Z M918 510 L669 1143 Q644 1207 619 1286 L607 1253 Q576 1170 568 1149 L313 510 L918 510 Z M902 1730 L622 1481 L547 1481 L799 1730 L902 1730 Z " />
<glyph glyph-name="Acircumflex" unicode="&#xc2;" horiz-adv-x="1230" d="M665 1367 L1208 0 L1116 0 L945 438 L286 438 L112 0 L23 0 L576 1367 L665 1367 Z M918 510 L669 1143 Q644 1207 619 1286 L607 1253 Q576 1170 568 1149 L313 510 L918 510 Z M911 1481 L826 1481 L612 1688 L398 1481 L320 1481 L573 1737 L657 1737 L911 1481 Z " />
<glyph glyph-name="Atilde" unicode="&#xc3;" horiz-adv-x="1230" d="M665 1367 L1208 0 L1116 0 L945 438 L286 438 L112 0 L23 0 L576 1367 L665 1367 Z M918 510 L669 1143 Q644 1207 619 1286 L607 1253 Q576 1170 568 1149 L313 510 L918 510 Z M902 1690 Q869 1525 755 1525 Q701 1525 625 1571 Q560 1610 540 1618.5 Q520 1627 495 1627 Q422 1627 398 1522 L343 1522 Q353 1576 373 1612 Q418 1690 499 1690 Q550 1690 627 1643 Q713 1590 755 1590 Q820 1590 846 1690 L902 1690 Z " />
<glyph glyph-name="Adieresis" unicode="&#xc4;" horiz-adv-x="1230" d="M665 1367 L1208 0 L1116 0 L945 438 L286 438 L112 0 L23 0 L576 1367 L665 1367 Z M918 510 L669 1143 Q644 1207 619 1286 L607 1253 Q576 1170 568 1149 L313 510 L918 510 Z M814 1686 Q842 1686 862 1664.5 Q882 1643 882 1614 Q882 1584 861.5 1562.5 Q841 1541 813 1541 Q785 1541 764.5 1562.5 Q744 1584 744 1614 Q744 1644 764.5 1665 Q785 1686 814 1686 Z M418 1686 Q446 1686 466 1664.5 Q486 1643 486 1614 Q486 1584 465.5 1562.5 Q445 1541 417 1541 Q389 1541 368.5 1562.5 Q348 1584 348 1614 Q348 1644 368.5 1665 Q389 1686 418 1686 Z " />
<glyph glyph-name="Aring" unicode="&#xc5;" horiz-adv-x="1230" d="M665 1367 L1208 0 L1116 0 L945 438 L286 438 L112 0 L23 0 L576 1367 L665 1367 Z M918 510 L669 1143 Q644 1207 619 1286 L607 1253 Q576 1170 568 1149 L313 510 L918 510 Z M618 1835 Q697 1835 753 1778 Q809 1721 809 1641 Q809 1560 752 1504 Q696 1447 616 1447 Q536 1447 479 1504 Q422 1561 422 1641 Q422 1722 479 1778.5 Q536 1835 618 1835 Z M617 1782 Q557 1782 516 1741 Q475 1700 475 1641 Q475 1583 516.5 1541.5 Q558 1500 616 1500 Q674 1500 715 1541.5 Q756 1583 756 1641 Q756 1699 715 1740.5 Q674 1782 617 1782 Z " />
<glyph glyph-name="AE" unicode="&#xc6;" horiz-adv-x="1750" d="M1665 1365 L1665 1293 L940 1293 L940 747 L1610 747 L1610 675 L940 675 L940 72 L1669 72 L1669 0 L857 0 L857 488 L355 488 L102 0 L8 0 L724 1365 L1665 1365 Z M857 560 L857 1293 L771 1293 L390 560 L857 560 Z " />
<glyph glyph-name="Ccedilla" unicode="&#xc7;" horiz-adv-x="1394" d="M1316 530 Q1303 352 1194 202 Q1030 -22 730 -30 L666 -113 Q712 -104 737 -104 Q800 -104 841.5 -138 Q883 -172 883 -223 Q883 -290 827 -333 Q771 -376 683 -376 Q607 -376 507 -337 L527 -290 Q612 -325 678 -325 Q734 -325 770.5 -298.5 Q807 -272 807 -231 Q807 -197 777.5 -174.5 Q748 -152 703 -152 Q667 -152 612 -171 L581 -147 L672 -30 Q416 -9 256 185 Q98 376 98 678 Q98 976 252 1167 Q437 1396 732 1396 Q950 1396 1101.5 1277.5 Q1253 1159 1294 956 L1210 956 Q1187 1057 1124 1140 Q1050 1237 943 1282 Q841 1325 732 1325 Q604 1325 492.5 1268 Q381 1211 305 1108 Q181 939 181 683 Q181 421 303 256 Q463 40 716 40 Q969 40 1117 226 Q1223 359 1233 530 L1316 530 Z " />
<glyph glyph-name="Egrave" unicode="&#xc8;" horiz-adv-x="1181" d="M1093 1365 L1093 1293 L256 1293 L256 747 L1043 747 L1043 675 L256 675 L256 72 L1103 72 L1103 0 L173 0 L173 1365 L1093 1365 Z M393 1730 L496 1730 L748 1481 L673 1481 L393 1730 Z " />
<glyph glyph-name="Eacute" unicode="&#xc9;" horiz-adv-x="1181" d="M1093 1365 L1093 1293 L256 1293 L256 747 L1043 747 L1043 675 L256 675 L256 72 L1103 72 L1103 0 L173 0 L173 1365 L1093 1365 Z M899 1730 L618 1481 L543 1481 L796 1730 L899 1730 Z " />
<glyph glyph-name="Ecircumflex" unicode="&#xca;" horiz-adv-x="1181" d="M1093 1365 L1093 1293 L256 1293 L256 747 L1043 747 L1043 675 L256 675 L256 72 L1103 72 L1103 0 L173 0 L173 1365 L1093 1365 Z M934 1481 L849 1481 L635 1688 L422 1481 L344 1481 L596 1737 L681 1737 L934 1481 Z " />
<glyph glyph-name="Edieresis" unicode="&#xcb;" horiz-adv-x="1181" d="M1093 1365 L1093 1293 L256 1293 L256 747 L1043 747 L1043 675 L256 675 L256 72 L1103 72 L1103 0 L173 0 L173 1365 L1093 1365 Z M837 1686 Q865 1686 885 1664.5 Q905 1643 905 1614 Q905 1584 884.5 1562.5 Q864 1541 836 1541 Q808 1541 787.5 1562.5 Q767 1584 767 1614 Q767 1644 787.5 1665 Q808 1686 837 1686 Z M441 1686 Q469 1686 489 1664.5 Q509 1643 509 1614 Q509 1584 488.5 1562.5 Q468 1541 440 1541 Q412 1541 391.5 1562.5 Q371 1584 371 1614 Q371 1644 391.5 1665 Q412 1686 441 1686 Z " />
<glyph glyph-name="Igrave" unicode="&#xcc;" horiz-adv-x="426" d="M255 1365 L255 0 L172 0 L172 1365 L255 1365 Z M-40 1730 L63 1730 L295 1481 L220 1481 L-40 1730 Z " />
<glyph glyph-name="Iacute" unicode="&#xcd;" horiz-adv-x="426" d="M255 1365 L255 0 L172 0 L172 1365 L255 1365 Z M466 1730 L206 1481 L131 1481 L363 1730 L466 1730 Z " />
<glyph glyph-name="Icircumflex" unicode="&#xce;" horiz-adv-x="426" d="M255 1365 L255 0 L172 0 L172 1365 L255 1365 Z M481 1481 L396 1481 L210 1688 L23 1481 L-55 1481 L170 1737 L255 1737 L481 1481 Z " />
<glyph glyph-name="Idieresis" unicode="&#xcf;" horiz-adv-x="426" d="M256 1365 L256 0 L173 0 L173 1365 L256 1365 Z M345 1686 Q373 1686 393 1664.5 Q413 1643 413 1614 Q413 1584 392.5 1562.5 Q372 1541 344 1541 Q316 1541 295.5 1562.5 Q275 1584 275 1614 Q275 1644 295.5 1665 Q316 1686 345 1686 Z M84 1686 Q112 1686 132 1665 Q152 1644 152 1614 Q152 1584 131.5 1562.5 Q111 1541 83 1541 Q55 1541 34.5 1562.5 Q14 1584 14 1614 Q14 1644 34.5 1665 Q55 1686 84 1686 Z " />
<glyph glyph-name="Eth" unicode="&#xd0;" horiz-adv-x="1352" d="M173 750 L173 1365 L634 1365 Q777 1365 879.5 1331.5 Q982 1298 1061 1224 Q1154 1137 1204.5 1002.5 Q1255 868 1255 705 Q1255 345 1064 153 Q983 72 882.5 36 Q782 0 635 0 L173 0 L173 679 L9 679 L9 750 L173 750 Z M256 750 L653 750 L653 679 L256 679 L256 71 L607 71 Q752 71 841 99.5 Q930 128 1000 197 Q1172 365 1172 697 Q1172 996 1018 1156 Q947 1228 855 1261 Q763 1294 629 1294 L256 1294 L256 750 Z " />
<glyph glyph-name="Ntilde" unicode="&#xd1;" horiz-adv-x="1401" d="M1231 1365 L1231 0 L1135 0 L369 1081 Q309 1166 251 1269 Q254 1222 255 1126 L256 1060 L256 0 L173 0 L173 1365 L271 1365 L1021 303 Q1080 220 1154 98 Q1148 214 1148 359 L1148 1365 L1231 1365 Z M980 1690 Q948 1525 833 1525 Q779 1525 703 1571 Q638 1610 618.5 1618.5 Q599 1627 574 1627 Q500 1627 476 1522 L421 1522 Q431 1576 452 1612 Q496 1690 577 1690 Q628 1690 705 1643 Q792 1590 833 1590 Q899 1590 924 1690 L980 1690 Z " />
<glyph glyph-name="Ograve" unicode="&#xd2;" horiz-adv-x="1494" d="M753 1396 Q939 1396 1095 1296 Q1256 1191 1332 1011 Q1395 861 1395 674 Q1395 390 1247 202 Q1063 -31 743 -31 Q428 -31 247 201 Q98 392 98 680 Q98 1002 273 1192 Q459 1396 753 1396 Z M754 1324 Q499 1324 336 1143 Q181 969 181 684 Q181 418 316 245 Q475 41 744 41 Q1006 41 1167 231 Q1312 402 1312 675 Q1312 963 1158 1140 Q997 1324 754 1324 Z M487 1730 L590 1730 L842 1481 L767 1481 L487 1730 Z " />
<glyph glyph-name="Oacute" unicode="&#xd3;" horiz-adv-x="1494" d="M753 1396 Q939 1396 1095 1296 Q1256 1191 1332 1011 Q1395 861 1395 674 Q1395 390 1247 202 Q1063 -31 743 -31 Q428 -31 247 201 Q98 392 98 680 Q98 1002 273 1192 Q459 1396 753 1396 Z M754 1324 Q499 1324 336 1143 Q181 969 181 684 Q181 418 316 245 Q475 41 744 41 Q1006 41 1167 231 Q1312 402 1312 675 Q1312 963 1158 1140 Q997 1324 754 1324 Z M1006 1730 L726 1481 L651 1481 L903 1730 L1006 1730 Z " />
<glyph glyph-name="Ocircumflex" unicode="&#xd4;" horiz-adv-x="1494" d="M753 1396 Q939 1396 1095 1296 Q1256 1191 1332 1011 Q1395 861 1395 674 Q1395 390 1247 202 Q1063 -31 743 -31 Q428 -31 247 201 Q98 392 98 680 Q98 1002 273 1192 Q459 1396 753 1396 Z M754 1324 Q499 1324 336 1143 Q181 969 181 684 Q181 418 316 245 Q475 41 744 41 Q1006 41 1167 231 Q1312 402 1312 675 Q1312 963 1158 1140 Q997 1324 754 1324 Z M1042 1481 L957 1481 L743 1688 L529 1481 L451 1481 L704 1737 L788 1737 L1042 1481 Z " />
<glyph glyph-name="Otilde" unicode="&#xd5;" horiz-adv-x="1494" d="M753 1396 Q939 1396 1095 1296 Q1256 1191 1332 1011 Q1395 861 1395 674 Q1395 390 1247 202 Q1063 -31 743 -31 Q428 -31 247 201 Q98 392 98 680 Q98 1002 273 1192 Q459 1396 753 1396 Z M754 1324 Q499 1324 336 1143 Q181 969 181 684 Q181 418 316 245 Q475 41 744 41 Q1006 41 1167 231 Q1312 402 1312 675 Q1312 963 1158 1140 Q997 1324 754 1324 Z M1053 1690 Q1021 1525 906 1525 Q852 1525 776 1571 Q711 1610 691.5 1618.5 Q672 1627 647 1627 Q573 1627 549 1522 L495 1522 Q504 1576 525 1612 Q570 1690 650 1690 Q701 1690 779 1643 Q865 1590 906 1590 Q972 1590 997 1690 L1053 1690 Z " />
<glyph glyph-name="Odieresis" unicode="&#xd6;" horiz-adv-x="1494" d="M753 1396 Q939 1396 1095 1296 Q1256 1191 1332 1011 Q1395 861 1395 674 Q1395 390 1247 202 Q1063 -31 743 -31 Q428 -31 247 201 Q98 392 98 680 Q98 1002 273 1192 Q459 1396 753 1396 Z M754 1324 Q499 1324 336 1143 Q181 969 181 684 Q181 418 316 245 Q475 41 744 41 Q1006 41 1167 231 Q1312 402 1312 675 Q1312 963 1158 1140 Q997 1324 754 1324 Z M945 1686 Q973 1686 993 1664.5 Q1013 1643 1013 1614 Q1013 1584 992.5 1562.5 Q972 1541 944 1541 Q916 1541 895.5 1562.5 Q875 1584 875 1614 Q875 1644 895.5 1665 Q916 1686 945 1686 Z M549 1686 Q577 1686 597 1664.5 Q617 1643 617 1614 Q617 1584 596.5 1562.5 Q576 1541 548 1541 Q520 1541 499.5 1562.5 Q479 1584 479 1614 Q479 1644 499.5 1665 Q520 1686 549 1686 Z " />
<glyph glyph-name="multiply" unicode="&#xd7;" horiz-adv-x="1147" d="M218 1061 L574 705 L930 1061 L977 1014 L620 658 L977 302 L930 255 L574 611 L218 255 L171 302 L527 658 L171 1014 L218 1061 Z " />
<glyph glyph-name="Oslash" unicode="&#xd8;" horiz-adv-x="1494" d="M1365 1318 L1232 1174 Q1303 1079 1334 1008 Q1395 867 1395 671 Q1395 387 1241 198 Q1056 -31 745 -31 Q608 -31 490.5 16 Q373 63 293 150 L149 -7 L107 35 L253 192 Q192 277 163 343 Q98 489 98 681 Q98 999 271 1191 Q455 1396 744 1396 Q1016 1396 1193 1216 L1322 1357 L1365 1318 Z M1141 1159 Q983 1324 743 1324 Q479 1324 318 1125 Q181 957 181 678 Q181 551 215 440 Q249 329 310 255 L1141 1159 Z M1179 1113 L346 208 Q409 132 518 86.5 Q627 41 744 41 Q872 41 983.5 92 Q1095 143 1171 236 Q1312 408 1312 670 Q1312 811 1282.5 908.5 Q1253 1006 1179 1113 Z " />
<glyph glyph-name="Ugrave" unicode="&#xd9;" horiz-adv-x="1357" d="M1206 1365 L1206 530 Q1206 300 1125 174 Q992 -31 688 -31 Q350 -31 219 197 Q151 315 151 535 L151 1365 L234 1365 L234 530 Q234 411 252 336 Q270 261 314 200 Q427 41 688 41 Q938 41 1047 200 Q1123 311 1123 532 L1123 1365 L1206 1365 Z M433 1730 L536 1730 L788 1481 L713 1481 L433 1730 Z " />
<glyph glyph-name="Uacute" unicode="&#xda;" horiz-adv-x="1357" d="M1206 1365 L1206 530 Q1206 300 1125 174 Q992 -31 688 -31 Q350 -31 219 197 Q151 315 151 535 L151 1365 L234 1365 L234 530 Q234 411 252 336 Q270 261 314 200 Q427 41 688 41 Q938 41 1047 200 Q1123 311 1123 532 L1123 1365 L1206 1365 Z M952 1730 L672 1481 L597 1481 L849 1730 L952 1730 Z " />
<glyph glyph-name="Ucircumflex" unicode="&#xdb;" horiz-adv-x="1357" d="M1206 1365 L1206 530 Q1206 300 1125 174 Q992 -31 688 -31 Q350 -31 219 197 Q151 315 151 535 L151 1365 L234 1365 L234 530 Q234 411 252 336 Q270 261 314 200 Q427 41 688 41 Q938 41 1047 200 Q1123 311 1123 532 L1123 1365 L1206 1365 Z M974 1481 L889 1481 L675 1688 L461 1481 L383 1481 L636 1737 L720 1737 L974 1481 Z " />
<glyph glyph-name="Udieresis" unicode="&#xdc;" horiz-adv-x="1357" d="M1206 1365 L1206 530 Q1206 300 1125 174 Q992 -31 688 -31 Q350 -31 219 197 Q151 315 151 535 L151 1365 L234 1365 L234 530 Q234 411 252 336 Q270 261 314 200 Q427 41 688 41 Q938 41 1047 200 Q1123 311 1123 532 L1123 1365 L1206 1365 Z M877 1686 Q905 1686 925 1664.5 Q945 1643 945 1614 Q945 1584 924.5 1562.5 Q904 1541 876 1541 Q848 1541 827.5 1562.5 Q807 1584 807 1614 Q807 1644 827.5 1665 Q848 1686 877 1686 Z M481 1686 Q509 1686 529 1664.5 Q549 1643 549 1614 Q549 1584 528.5 1562.5 Q508 1541 480 1541 Q452 1541 431.5 1562.5 Q411 1584 411 1614 Q411 1644 431.5 1665 Q452 1686 481 1686 Z " />
<glyph glyph-name="Yacute" unicode="&#xdd;" horiz-adv-x="1173" d="M1180 1365 L628 570 L628 0 L545 0 L545 570 L-5 1365 L94 1365 L528 736 Q554 699 589 641 Q627 704 647 732 L1086 1365 L1180 1365 Z M860 1730 L579 1481 L504 1481 L757 1730 L860 1730 Z " />
<glyph glyph-name="Thorn" unicode="&#xde;" horiz-adv-x="1222" d="M256 393 L256 0 L173 0 L173 1365 L256 1365 L256 1154 L704 1154 Q811 1154 877.5 1139.5 Q944 1125 996 1091 Q1150 989 1150 777 Q1150 596 1038 494.5 Q926 393 727 393 L256 393 Z M256 1083 L256 464 L679 464 Q776 464 827 473.5 Q878 483 924 510 Q1067 593 1067 773 Q1067 947 945 1030 Q899 1061 845.5 1072 Q792 1083 690 1083 L256 1083 Z " />
<glyph glyph-name="germandbls" unicode="&#xdf;" horiz-adv-x="1029" d="M448 61 Q487 59 515 59 Q690 59 771 143 Q864 239 864 403 Q864 544 793 627 Q745 683 666 706 Q587 729 448 728 L448 795 Q469 794 476 794 Q627 794 709 863 Q793 933 793 1062 Q793 1174 719 1249 Q638 1331 509 1331 Q237 1331 237 1025 L237 0 L159 0 L159 976 Q159 1088 168.5 1144.5 Q178 1201 204 1244 Q246 1316 328 1357 Q410 1398 512 1398 Q666 1398 765 1310 Q871 1215 871 1062 Q871 946 813 871.5 Q755 797 643 768 Q719 760 776 728 Q942 635 942 405 Q942 198 808 80 Q709 -7 531 -7 Q505 -7 448 -5 L448 61 Z " />
<glyph glyph-name="agrave" unicode="&#xe0;" horiz-adv-x="1005" d="M368 1406 L600 1137 L529 1137 L268 1406 L368 1406 Z M970 74 L970 6 Q933 2 912 2 Q840 2 812 35.5 Q784 69 784 155 L784 179 L776 179 Q733 114 700.5 81 Q668 48 621 22 Q527 -28 396 -28 Q239 -28 152.5 45 Q66 118 66 251 Q66 405 179 468 Q242 504 302.5 517 Q363 530 592 559 Q686 571 721 593 Q772 627 772 713 Q772 831 701.5 888 Q631 945 486 945 Q360 945 281 884 Q243 854 224.5 815.5 Q206 777 197 707 L111 707 Q122 790 145 837 Q233 1011 504 1011 Q858 1011 858 702 L858 135 Q858 68 923 68 Q948 68 970 74 Z M775 558 Q760 534 727.5 524 Q695 514 580 498 Q390 473 313 447 Q152 393 152 255 Q152 157 218 98 Q284 39 394 39 Q545 39 654 126 Q778 224 778 375 L778 558 L775 558 Z " />
<glyph glyph-name="aacute" unicode="&#xe1;" horiz-adv-x="1005" d="M745 1406 L492 1137 L423 1137 L648 1406 L745 1406 Z M970 74 L970 6 Q933 2 912 2 Q840 2 812 35.5 Q784 69 784 155 L784 179 L776 179 Q733 114 700.5 81 Q668 48 621 22 Q527 -28 396 -28 Q239 -28 152.5 45 Q66 118 66 251 Q66 405 179 468 Q242 504 302.5 517 Q363 530 592 559 Q686 571 721 593 Q772 627 772 713 Q772 831 701.5 888 Q631 945 486 945 Q360 945 281 884 Q243 854 224.5 815.5 Q206 777 197 707 L111 707 Q122 790 145 837 Q233 1011 504 1011 Q858 1011 858 702 L858 135 Q858 68 923 68 Q948 68 970 74 Z M775 558 Q760 534 727.5 524 Q695 514 580 498 Q390 473 313 447 Q152 393 152 255 Q152 157 218 98 Q284 39 394 39 Q545 39 654 126 Q778 224 778 375 L778 558 L775 558 Z " />
<glyph glyph-name="acircumflex" unicode="&#xe2;" horiz-adv-x="1005" d="M766 1137 L682 1137 L499 1356 L315 1137 L239 1137 L462 1406 L542 1406 L766 1137 Z M970 74 L970 6 Q933 2 912 2 Q840 2 812 35.5 Q784 69 784 155 L784 179 L776 179 Q733 114 700.5 81 Q668 48 621 22 Q527 -28 396 -28 Q239 -28 152.5 45 Q66 118 66 251 Q66 405 179 468 Q242 504 302.5 517 Q363 530 592 559 Q686 571 721 593 Q772 627 772 713 Q772 831 701.5 888 Q631 945 486 945 Q360 945 281 884 Q243 854 224.5 815.5 Q206 777 197 707 L111 707 Q122 790 145 837 Q233 1011 504 1011 Q858 1011 858 702 L858 135 Q858 68 923 68 Q948 68 970 74 Z M775 558 Q760 534 727.5 524 Q695 514 580 498 Q390 473 313 447 Q152 393 152 255 Q152 157 218 98 Q284 39 394 39 Q545 39 654 126 Q778 224 778 375 L778 558 L775 558 Z " />
<glyph glyph-name="atilde" unicode="&#xe3;" horiz-adv-x="1005" d="M753 1349 Q745 1274 709 1228.5 Q673 1183 622 1183 Q574 1183 505 1229 Q447 1268 429 1276.5 Q411 1285 390 1285 Q356 1285 334 1257 Q312 1229 307 1181 L252 1181 Q259 1234 278 1270 Q319 1348 392 1348 Q437 1348 507 1301 Q586 1247 621 1247 Q649 1247 670 1274.5 Q691 1302 699 1349 L753 1349 Z M970 74 L970 6 Q933 2 912 2 Q840 2 812 35.5 Q784 69 784 155 L784 179 L776 179 Q733 114 700.5 81 Q668 48 621 22 Q527 -28 396 -28 Q239 -28 152.5 45 Q66 118 66 251 Q66 405 179 468 Q242 504 302.5 517 Q363 530 592 559 Q686 571 721 593 Q772 627 772 713 Q772 831 701.5 888 Q631 945 486 945 Q360 945 281 884 Q243 854 224.5 815.5 Q206 777 197 707 L111 707 Q122 790 145 837 Q233 1011 504 1011 Q858 1011 858 702 L858 135 Q858 68 923 68 Q948 68 970 74 Z M775 558 Q760 534 727.5 524 Q695 514 580 498 Q390 473 313 447 Q152 393 152 255 Q152 157 218 98 Q284 39 394 39 Q545 39 654 126 Q778 224 778 375 L778 558 L775 558 Z " />
<glyph glyph-name="adieresis" unicode="&#xe4;" horiz-adv-x="1005" d="M670 1346 Q698 1346 718 1324.5 Q738 1303 738 1274 Q738 1244 718 1222.5 Q698 1201 669 1201 Q641 1201 620.5 1222.5 Q600 1244 600 1274 Q600 1304 620.5 1325 Q641 1346 670 1346 Z M336 1346 Q364 1346 384 1324.5 Q404 1303 404 1274 Q404 1244 383.5 1222.5 Q363 1201 335 1201 Q307 1201 286.5 1222.5 Q266 1244 266 1274 Q266 1304 286.5 1325 Q307 1346 336 1346 Z M970 74 L970 6 Q933 2 912 2 Q840 2 812 35.5 Q784 69 784 155 L784 179 L776 179 Q733 114 700.5 81 Q668 48 621 22 Q527 -28 396 -28 Q239 -28 152.5 45 Q66 118 66 251 Q66 405 179 468 Q242 504 302.5 517 Q363 530 592 559 Q686 571 721 593 Q772 627 772 713 Q772 831 701.5 888 Q631 945 486 945 Q360 945 281 884 Q243 854 224.5 815.5 Q206 777 197 707 L111 707 Q122 790 145 837 Q233 1011 504 1011 Q858 1011 858 702 L858 135 Q858 68 923 68 Q948 68 970 74 Z M775 558 Q760 534 727.5 524 Q695 514 580 498 Q390 473 313 447 Q152 393 152 255 Q152 157 218 98 Q284 39 394 39 Q545 39 654 126 Q778 224 778 375 L778 558 L775 558 Z " />
<glyph glyph-name="aring" unicode="&#xe5;" horiz-adv-x="1005" d="M505 1459 Q576 1459 626.5 1407.5 Q677 1356 677 1284 Q677 1212 626 1161 Q575 1110 503 1110 Q431 1110 379.5 1161.5 Q328 1213 328 1284 Q328 1358 379.5 1408.5 Q431 1459 505 1459 Z M505 1410 Q451 1410 414 1373.5 Q377 1337 377 1284 Q377 1232 414 1195.5 Q451 1159 503 1159 Q555 1159 592 1195.5 Q629 1232 629 1284 Q629 1336 592.5 1373 Q556 1410 505 1410 Z M970 74 L970 6 Q933 2 912 2 Q840 2 812 35.5 Q784 69 784 155 L784 179 L776 179 Q733 114 700.5 81 Q668 48 621 22 Q527 -28 396 -28 Q239 -28 152.5 45 Q66 118 66 251 Q66 405 179 468 Q242 504 302.5 517 Q363 530 592 559 Q686 571 721 593 Q772 627 772 713 Q772 831 701.5 888 Q631 945 486 945 Q360 945 281 884 Q243 854 224.5 815.5 Q206 777 197 707 L111 707 Q122 790 145 837 Q233 1011 504 1011 Q858 1011 858 702 L858 135 Q858 68 923 68 Q948 68 970 74 Z M775 558 Q760 534 727.5 524 Q695 514 580 498 Q390 473 313 447 Q152 393 152 255 Q152 157 218 98 Q284 39 394 39 Q545 39 654 126 Q778 224 778 375 L778 558 L775 558 Z " />
<glyph glyph-name="ae" unicode="&#xe6;" horiz-adv-x="1726" d="M826 239 Q791 140 696 67 Q572 -28 394 -28 Q238 -28 151.5 45.5 Q65 119 65 251 Q65 405 178 468 Q241 504 302 517.5 Q363 531 591 559 Q685 571 720 594 Q771 627 771 713 Q771 831 700.5 888 Q630 945 485 945 Q359 945 280 884 Q242 854 223.5 815.5 Q205 777 196 707 L110 707 Q121 790 144 837 Q232 1011 503 1011 Q656 1011 739 957 Q822 903 850 786 Q894 892 989.5 951.5 Q1085 1011 1213 1011 Q1422 1011 1540 863 Q1645 732 1645 522 Q1645 505 1644 479 L853 479 Q852 340 895 242 Q983 36 1212 36 Q1496 36 1557 329 L1632 329 Q1607 196 1536 112 Q1417 -29 1208 -29 Q1068 -29 967 42 Q866 113 826 239 Z M1567 546 Q1565 693 1502 791 Q1403 944 1214 944 Q1092 944 1001 877 Q931 825 896 747.5 Q861 670 852 546 L1567 546 Z M774 558 Q759 534 726.5 524 Q694 514 579 498 Q388 472 312 447 Q151 393 151 255 Q151 157 217 98 Q283 39 393 39 Q544 39 653 126 Q777 224 777 375 L777 558 L774 558 Z " />
<glyph glyph-name="ccedilla" unicode="&#xe7;" horiz-adv-x="1026" d="M959 347 Q939 178 829 78 Q716 -25 550 -25 Q546 -25 535 -25 L470 -108 Q514 -100 543 -100 Q608 -100 648.5 -133 Q689 -166 689 -219 Q689 -288 634 -329.5 Q579 -371 488 -371 Q415 -371 312 -333 L333 -287 Q412 -321 481 -321 Q542 -321 578.5 -295.5 Q615 -270 615 -229 Q615 -193 584.5 -170.5 Q554 -148 506 -148 Q468 -148 414 -168 L387 -143 L481 -25 Q325 -1 234 90 Q167 157 128 264 Q89 371 89 485 Q89 725 214 868.5 Q339 1012 549 1012 Q749 1012 869 877 Q935 802 951 683 L873 683 Q822 943 549 943 Q353 943 251 796 Q168 675 168 492 Q168 307 251 184 Q349 38 537 38 Q680 38 770.5 119 Q861 200 883 347 L959 347 Z " />
<glyph glyph-name="egrave" unicode="&#xe8;" horiz-adv-x="1044" d="M955 336 Q936 232 891 160 Q772 -29 537 -29 Q322 -29 200 124 Q89 265 89 483 Q89 725 219 871 Q343 1011 536 1011 Q689 1011 797 920 Q921 817 954 638 Q966 574 965 479 L169 479 Q170 364 198 285 Q236 175 315 111 Q406 38 537 38 Q704 38 803 161 Q857 228 878 336 L955 336 Z M886 546 Q879 693 821 786 Q723 944 535 944 Q403 944 306 860 Q192 762 170 546 L886 546 Z M388 1406 L620 1137 L549 1137 L288 1406 L388 1406 Z " />
<glyph glyph-name="eacute" unicode="&#xe9;" horiz-adv-x="1044" d="M955 336 Q936 232 891 160 Q772 -29 537 -29 Q322 -29 200 124 Q89 265 89 483 Q89 725 219 871 Q343 1011 536 1011 Q689 1011 797 920 Q921 817 954 638 Q966 574 965 479 L169 479 Q170 364 198 285 Q236 175 315 111 Q406 38 537 38 Q704 38 803 161 Q857 228 878 336 L955 336 Z M886 546 Q879 693 821 786 Q723 944 535 944 Q403 944 306 860 Q192 762 170 546 L886 546 Z M766 1406 L513 1137 L443 1137 L668 1406 L766 1406 Z " />
<glyph glyph-name="ecircumflex" unicode="&#xea;" horiz-adv-x="1044" d="M955 336 Q936 232 891 160 Q772 -29 537 -29 Q322 -29 200 124 Q89 265 89 483 Q89 725 219 871 Q343 1011 536 1011 Q689 1011 797 920 Q921 817 954 638 Q966 574 965 479 L169 479 Q170 364 198 285 Q236 175 315 111 Q406 38 537 38 Q704 38 803 161 Q857 228 878 336 L955 336 Z M886 546 Q879 693 821 786 Q723 944 535 944 Q403 944 306 860 Q192 762 170 546 L886 546 Z M799 1137 L716 1137 L532 1356 L349 1137 L273 1137 L495 1406 L576 1406 L799 1137 Z " />
<glyph glyph-name="edieresis" unicode="&#xeb;" horiz-adv-x="1044" d="M955 336 Q936 232 891 160 Q772 -29 537 -29 Q322 -29 200 124 Q89 265 89 483 Q89 725 219 871 Q343 1011 536 1011 Q689 1011 797 920 Q921 817 954 638 Q966 574 965 479 L169 479 Q170 364 198 285 Q236 175 315 111 Q406 38 537 38 Q704 38 803 161 Q857 228 878 336 L955 336 Z M886 546 Q879 693 821 786 Q723 944 535 944 Q403 944 306 860 Q192 762 170 546 L886 546 Z M704 1346 Q732 1346 752 1324.5 Q772 1303 772 1274 Q772 1244 751.5 1222.5 Q731 1201 703 1201 Q675 1201 654.5 1222.5 Q634 1244 634 1274 Q634 1304 654.5 1325 Q675 1346 704 1346 Z M370 1346 Q398 1346 418 1324.5 Q438 1303 438 1274 Q438 1244 417.5 1222.5 Q397 1201 369 1201 Q341 1201 320.5 1222.5 Q300 1244 300 1274 Q300 1304 320.5 1325 Q341 1346 370 1346 Z " />
<glyph glyph-name="igrave" unicode="&#xec;" horiz-adv-x="393" d="M236 982 L236 0 L158 0 L158 982 L236 982 Z M55 1406 L267 1137 L195 1137 L-45 1406 L55 1406 Z " />
<glyph glyph-name="iacute" unicode="&#xed;" horiz-adv-x="393" d="M237 982 L237 0 L159 0 L159 982 L237 982 Z M433 1406 L200 1137 L131 1137 L336 1406 L433 1406 Z " />
<glyph glyph-name="icircumflex" unicode="&#xee;" horiz-adv-x="393" d="M237 982 L237 0 L159 0 L159 982 L237 982 Z M419 1137 L336 1137 L193 1356 L50 1137 L-26 1137 L156 1406 L236 1406 L419 1137 Z " />
<glyph glyph-name="idieresis" unicode="&#xef;" horiz-adv-x="393" d="M237 982 L237 0 L159 0 L159 982 L237 982 Z M310 1346 Q338 1346 358 1324.5 Q378 1303 378 1274 Q378 1244 357.5 1222.5 Q337 1201 309 1201 Q281 1201 260.5 1222.5 Q240 1244 240 1274 Q240 1304 260.5 1325 Q281 1346 310 1346 Z M85 1346 Q113 1346 133 1324.5 Q153 1303 153 1274 Q153 1244 132.5 1222.5 Q112 1201 84 1201 Q56 1201 35.5 1222.5 Q15 1244 15 1274 Q15 1304 35.5 1325 Q56 1346 85 1346 Z " />
<glyph glyph-name="eth" unicode="&#xf0;" horiz-adv-x="1087" d="M427 1134 L593 1208 L499 1372 L556 1400 L659 1236 L842 1315 L865 1260 L690 1184 L861 914 Q938 792 968 697.5 Q998 603 998 485 Q998 262 888 124 Q766 -29 547 -29 Q318 -29 196 133 Q89 275 89 491 Q89 739 227 882 Q351 1011 545 1011 Q629 1011 727 977 L626 1155 L452 1082 L427 1134 Z M550 944 Q375 944 269 816 Q168 694 168 490 Q168 286 266 166 Q370 38 547 38 Q721 38 822 164 Q920 286 920 486 Q920 680 829 805 Q778 875 698 911 Q626 944 550 944 Z " />
<glyph glyph-name="ntilde" unicode="&#xf1;" horiz-adv-x="1091" d="M237 982 L237 769 Q332 1011 596 1011 Q781 1011 877 886 Q914 838 927.5 783 Q941 728 941 628 L941 0 L863 0 L863 608 Q863 743 833 807 Q802 870 734.5 907 Q667 944 581 944 Q441 944 349 857 Q289 801 263.5 721 Q238 641 238 511 L238 0 L159 0 L159 982 L237 982 Z M796 1349 Q788 1274 752 1228.5 Q716 1183 665 1183 Q617 1183 548 1229 Q490 1268 472.5 1276.5 Q455 1285 433 1285 Q400 1285 378 1257 Q356 1229 350 1181 L295 1181 Q302 1234 321 1270 Q363 1348 435 1348 Q481 1348 550 1301 Q630 1247 664 1247 Q692 1247 713 1274.5 Q734 1302 742 1349 L796 1349 Z " />
<glyph glyph-name="ograve" unicode="&#xf2;" horiz-adv-x="1087" d="M552 1011 Q765 1011 891 848 Q998 709 998 485 Q998 253 879 116 Q754 -29 544 -29 Q326 -29 201 126 Q89 266 89 489 Q89 709 200 850 Q327 1011 552 1011 Z M550 944 Q375 944 268 816 Q167 694 167 490 Q167 286 265 166 Q370 38 546 38 Q721 38 822 164 Q920 286 920 485 Q920 680 829 805 Q778 875 698 911 Q626 944 550 944 Z M403 1406 L635 1137 L563 1137 L303 1406 L403 1406 Z " />
<glyph glyph-name="oacute" unicode="&#xf3;" horiz-adv-x="1087" d="M552 1011 Q765 1011 891 848 Q998 709 998 485 Q998 253 879 116 Q754 -29 544 -29 Q326 -29 201 126 Q89 266 89 489 Q89 709 200 850 Q327 1011 552 1011 Z M550 944 Q375 944 268 816 Q167 694 167 490 Q167 286 265 166 Q370 38 546 38 Q721 38 822 164 Q920 286 920 485 Q920 680 829 805 Q778 875 698 911 Q626 944 550 944 Z M787 1406 L534 1137 L464 1137 L689 1406 L787 1406 Z " />
<glyph glyph-name="ocircumflex" unicode="&#xf4;" horiz-adv-x="1087" d="M552 1011 Q765 1011 891 848 Q998 709 998 485 Q998 253 879 116 Q754 -29 544 -29 Q326 -29 201 126 Q89 266 89 489 Q89 709 200 850 Q327 1011 552 1011 Z M550 944 Q375 944 268 816 Q167 694 167 490 Q167 286 265 166 Q370 38 546 38 Q721 38 822 164 Q920 286 920 485 Q920 680 829 805 Q778 875 698 911 Q626 944 550 944 Z M807 1137 L724 1137 L540 1356 L356 1137 L280 1137 L503 1406 L583 1406 L807 1137 Z " />
<glyph glyph-name="otilde" unicode="&#xf5;" horiz-adv-x="1087" d="M552 1011 Q765 1011 891 848 Q998 709 998 485 Q998 253 879 116 Q754 -29 544 -29 Q326 -29 201 126 Q89 266 89 489 Q89 709 200 850 Q327 1011 552 1011 Z M550 944 Q375 944 268 816 Q167 694 167 490 Q167 286 265 166 Q370 38 546 38 Q721 38 822 164 Q920 286 920 485 Q920 680 829 805 Q778 875 698 911 Q626 944 550 944 Z M808 1349 Q800 1274 764 1228.5 Q728 1183 677 1183 Q629 1183 560 1229 Q502 1268 484.5 1276.5 Q467 1285 445 1285 Q412 1285 390 1257 Q368 1229 362 1181 L307 1181 Q314 1234 333 1270 Q374 1348 447 1348 Q493 1348 562 1301 Q642 1247 676 1247 Q704 1247 725 1274.5 Q746 1302 754 1349 L808 1349 Z " />
<glyph glyph-name="odieresis" unicode="&#xf6;" horiz-adv-x="1087" d="M552 1011 Q765 1011 891 848 Q998 709 998 485 Q998 253 879 116 Q754 -29 544 -29 Q326 -29 201 126 Q89 266 89 489 Q89 709 200 850 Q327 1011 552 1011 Z M550 944 Q375 944 268 816 Q167 694 167 490 Q167 286 265 166 Q370 38 546 38 Q721 38 822 164 Q920 286 920 485 Q920 680 829 805 Q778 875 698 911 Q626 944 550 944 Z M712 1346 Q740 1346 760 1324.5 Q780 1303 780 1274 Q780 1244 759.5 1222.5 Q739 1201 711 1201 Q683 1201 662.5 1222.5 Q642 1244 642 1274 Q642 1304 662.5 1325 Q683 1346 712 1346 Z M377 1346 Q405 1346 425 1324.5 Q445 1303 445 1274 Q445 1244 424.5 1222.5 Q404 1201 376 1201 Q348 1201 327.5 1222.5 Q307 1244 307 1274 Q307 1304 327.5 1325 Q348 1346 377 1346 Z " />
<glyph glyph-name="divide" unicode="&#xf7;" horiz-adv-x="1147" d="M111 692 L1037 692 L1037 626 L111 626 L111 692 Z M577 1019 Q605 1019 626 998 Q647 977 647 948 Q647 918 626 897 Q605 876 575 876 Q546 876 525 897 Q504 918 504 948 Q504 978 525 998.5 Q546 1019 577 1019 Z M577 441 Q605 441 626.5 419.5 Q648 398 648 369 Q648 339 626.5 317.5 Q605 296 575 296 Q545 296 524 317.5 Q503 339 503 369 Q503 399 524.5 420 Q546 441 577 441 Z " />
<glyph glyph-name="oslash" unicode="&#xf8;" horiz-adv-x="1087" d="M1004 939 L902 831 Q999 694 999 493 Q999 257 885 121 Q761 -29 550 -29 Q347 -29 218 112 L112 1 L76 36 L188 154 Q89 293 89 493 Q89 724 213 866 Q340 1011 544 1011 Q737 1011 869 873 L968 976 L1004 939 Z M819 820 Q778 862 743 886 Q659 944 545 944 Q356 944 251 797 Q167 678 167 488 Q167 332 240 207 L819 820 Z M849 777 L270 163 Q309 105 384 71.5 Q459 38 550 38 Q721 38 821 157.5 Q921 277 921 483 Q921 655 849 777 Z " />
<glyph glyph-name="ugrave" unicode="&#xf9;" horiz-adv-x="1082" d="M926 982 L926 0 L851 0 L851 208 Q743 -29 499 -29 Q331 -29 241.5 68.5 Q152 166 152 350 L152 982 L230 982 L230 396 Q230 247 262 178 Q291 114 354 78 Q426 36 515 36 Q678 36 772 168 Q848 276 848 449 L848 982 L926 982 Z M400 1406 L632 1137 L561 1137 L300 1406 L400 1406 Z " />
<glyph glyph-name="uacute" unicode="&#xfa;" horiz-adv-x="1082" d="M926 982 L926 0 L851 0 L851 208 Q743 -29 499 -29 Q331 -29 241.5 68.5 Q152 166 152 350 L152 982 L230 982 L230 396 Q230 247 262 178 Q291 114 354 78 Q426 36 515 36 Q678 36 772 168 Q848 276 848 449 L848 982 L926 982 Z M784 1406 L531 1137 L462 1137 L687 1406 L784 1406 Z " />
<glyph glyph-name="ucircumflex" unicode="&#xfb;" horiz-adv-x="1082" d="M926 982 L926 0 L851 0 L851 208 Q743 -29 499 -29 Q331 -29 241.5 68.5 Q152 166 152 350 L152 982 L230 982 L230 396 Q230 247 262 178 Q291 114 354 78 Q426 36 515 36 Q678 36 772 168 Q848 276 848 449 L848 982 L926 982 Z M804 1137 L721 1137 L538 1356 L354 1137 L278 1137 L500 1406 L581 1406 L804 1137 Z " />
<glyph glyph-name="udieresis" unicode="&#xfc;" horiz-adv-x="1082" d="M926 982 L926 0 L851 0 L851 208 Q743 -29 499 -29 Q331 -29 241.5 68.5 Q152 166 152 350 L152 982 L230 982 L230 396 Q230 247 262 178 Q291 114 354 78 Q426 36 515 36 Q678 36 772 168 Q848 276 848 449 L848 982 L926 982 Z M709 1346 Q737 1346 757 1324.5 Q777 1303 777 1274 Q777 1244 756.5 1222.5 Q736 1201 708 1201 Q680 1201 659.5 1222.5 Q639 1244 639 1274 Q639 1304 659.5 1325 Q680 1346 709 1346 Z M375 1346 Q403 1346 423 1324.5 Q443 1303 443 1274 Q443 1244 422.5 1222.5 Q402 1201 374 1201 Q346 1201 325.5 1222.5 Q305 1244 305 1274 Q305 1304 325.5 1325 Q346 1346 375 1346 Z " />
<glyph glyph-name="yacute" unicode="&#xfd;" horiz-adv-x="894" d="M884 982 L462 -102 Q400 -261 353 -303 Q297 -353 192 -353 Q168 -353 146 -352 L118 -350 L118 -280 Q157 -286 182 -286 Q268 -286 311 -240 Q331 -219 342.5 -196.5 Q354 -174 398 -66 Q426 -6 426 0 Q426 4 424 8 L10 982 L98 982 L422 212 Q429 194 466 89 Q495 180 511 222 L803 982 L884 982 Z M704 1406 L451 1137 L382 1137 L607 1406 L704 1406 Z " />
<glyph glyph-name="thorn" unicode="&#xfe;" horiz-adv-x="1127" d="M238 1365 L238 750 Q334 1011 602 1011 Q811 1011 928 858 Q1039 714 1039 487 Q1039 275 936 134 Q817 -29 604 -29 Q467 -29 371.5 37 Q276 103 238 225 L238 -354 L159 -354 L159 1365 L238 1365 Z M601 944 Q413 944 316 803 Q235 685 235 483 Q235 287 321 173 Q423 38 599 38 Q783 38 883 191 Q961 309 961 487 Q961 686 872 809 Q774 944 601 944 Z " />
<glyph glyph-name="ydieresis" unicode="&#xff;" horiz-adv-x="894" d="M884 982 L462 -102 Q400 -261 353 -303 Q297 -353 192 -353 Q168 -353 146 -352 L118 -350 L118 -280 Q157 -286 182 -286 Q268 -286 311 -240 Q331 -219 342.5 -196.5 Q354 -174 398 -66 Q426 -6 426 0 Q426 4 424 8 L10 982 L98 982 L422 212 Q429 194 466 89 Q495 180 511 222 L803 982 L884 982 Z M615 1346 Q643 1346 663 1324.5 Q683 1303 683 1274 Q683 1244 662.5 1222.5 Q642 1201 614 1201 Q586 1201 565.5 1222.5 Q545 1244 545 1274 Q545 1304 565.5 1325 Q586 1346 615 1346 Z M281 1346 Q309 1346 329 1324.5 Q349 1303 349 1274 Q349 1244 329 1222.5 Q309 1201 280 1201 Q252 1201 231.5 1222.5 Q211 1244 211 1274 Q211 1304 231.5 1325 Q252 1346 281 1346 Z " />
<glyph glyph-name="Amacron" unicode="&#x100;" horiz-adv-x="1230" d="M665 1367 L1208 0 L1116 0 L945 438 L286 438 L112 0 L23 0 L576 1367 L665 1367 Z M918 510 L669 1143 Q644 1207 619 1286 L607 1253 Q576 1170 568 1149 L313 510 L918 510 Z M911 1633 L911 1569 L333 1569 L333 1633 L911 1633 Z " />
<glyph glyph-name="amacron" unicode="&#x101;" horiz-adv-x="1005" d="M760 1293 L760 1233 L244 1233 L244 1293 L760 1293 Z M970 74 L970 6 Q933 2 912 2 Q840 2 812 35.5 Q784 69 784 155 L784 179 L776 179 Q733 114 700.5 81 Q668 48 621 22 Q527 -28 396 -28 Q239 -28 152.5 45 Q66 118 66 251 Q66 405 179 468 Q242 504 302.5 517 Q363 530 592 559 Q686 571 721 593 Q772 627 772 713 Q772 831 701.5 888 Q631 945 486 945 Q360 945 281 884 Q243 854 224.5 815.5 Q206 777 197 707 L111 707 Q122 790 145 837 Q233 1011 504 1011 Q858 1011 858 702 L858 135 Q858 68 923 68 Q948 68 970 74 Z M775 558 Q760 534 727.5 524 Q695 514 580 498 Q390 473 313 447 Q152 393 152 255 Q152 157 218 98 Q284 39 394 39 Q545 39 654 126 Q778 224 778 375 L778 558 L775 558 Z " />
<glyph glyph-name="Abreve" unicode="&#x102;" horiz-adv-x="1230" d="M665 1367 L1208 0 L1116 0 L945 438 L286 438 L112 0 L23 0 L576 1367 L665 1367 Z M918 510 L669 1143 Q644 1207 619 1286 L607 1253 Q576 1170 568 1149 L313 510 L918 510 Z M885 1723 Q873 1650 841 1604 Q765 1495 614 1495 Q502 1495 428.5 1557.5 Q355 1620 346 1723 L409 1723 Q420 1666 448 1632 Q506 1558 617 1558 Q786 1558 822 1723 L885 1723 Z " />
<glyph glyph-name="abreve" unicode="&#x103;" horiz-adv-x="1005" d="M748 1381 Q737 1308 708 1262 Q638 1153 501 1153 Q399 1153 332 1215.5 Q265 1278 256 1381 L314 1381 Q325 1325 349 1291 Q403 1216 504 1216 Q658 1216 690 1381 L748 1381 Z M970 74 L970 6 Q933 2 912 2 Q840 2 812 35.5 Q784 69 784 155 L784 179 L776 179 Q733 114 700.5 81 Q668 48 621 22 Q527 -28 396 -28 Q239 -28 152.5 45 Q66 118 66 251 Q66 405 179 468 Q242 504 302.5 517 Q363 530 592 559 Q686 571 721 593 Q772 627 772 713 Q772 831 701.5 888 Q631 945 486 945 Q360 945 281 884 Q243 854 224.5 815.5 Q206 777 197 707 L111 707 Q122 790 145 837 Q233 1011 504 1011 Q858 1011 858 702 L858 135 Q858 68 923 68 Q948 68 970 74 Z M775 558 Q760 534 727.5 524 Q695 514 580 498 Q390 473 313 447 Q152 393 152 255 Q152 157 218 98 Q284 39 394 39 Q545 39 654 126 Q778 224 778 375 L778 558 L775 558 Z " />
<glyph glyph-name="Aogonek" unicode="&#x104;" horiz-adv-x="1230" d="M1208 0 Q1093 -85 1093 -170 Q1093 -219 1133 -250 Q1173 -281 1236 -281 Q1274 -281 1329 -263 L1330 -321 Q1268 -341 1220 -341 Q1128 -341 1074 -292 Q1026 -249 1026 -181 Q1026 -87 1135 0 L1116 0 L945 438 L286 438 L112 0 L23 0 L576 1367 L665 1367 L1208 0 Z M918 510 L669 1143 Q644 1207 619 1286 L607 1253 Q576 1170 568 1149 L313 510 L918 510 Z " />
<glyph glyph-name="aogonek" unicode="&#x105;" horiz-adv-x="1005" d="M895 2 Q833 5 808.5 39 Q784 73 784 155 L784 179 L776 179 Q733 114 700.5 81 Q668 48 621 22 Q527 -28 396 -28 Q239 -28 152.5 45 Q66 118 66 251 Q66 405 179 468 Q242 504 302.5 517 Q363 530 592 559 Q686 571 721 593 Q772 627 772 713 Q772 831 701.5 888 Q631 945 486 945 Q360 945 281 884 Q243 854 224.5 815.5 Q206 777 197 707 L111 707 Q122 790 145 837 Q233 1011 504 1011 Q858 1011 858 702 L858 131 Q858 68 928 68 Q950 68 970 71 L970 7 L922 -5 Q815 -87 815 -170 Q815 -219 854.5 -250 Q894 -281 958 -281 Q996 -281 1051 -263 L1052 -321 Q990 -341 941 -341 Q850 -341 796 -292 Q748 -249 748 -181 Q748 -88 857 0 L895 2 Z M775 558 Q760 534 727.5 524 Q695 514 580 498 Q390 473 313 447 Q152 393 152 255 Q152 157 218 98 Q284 39 394 39 Q545 39 654 126 Q778 224 778 375 L778 558 L775 558 Z " />
<glyph glyph-name="Cacute" unicode="&#x106;" horiz-adv-x="1394" d="M1316 530 Q1299 330 1186 185 Q1018 -31 724 -31 Q576 -31 450 29.5 Q324 90 239 203 Q98 390 98 680 Q98 993 270 1193 Q446 1396 734 1396 Q1000 1396 1164 1223 Q1276 1104 1294 956 L1213 956 Q1185 1084 1101 1173 Q958 1324 728 1324 Q460 1324 306 1111 Q181 939 181 682 Q181 424 298 259 Q379 146 502 89 Q607 41 725 41 Q935 41 1072 172 Q1209 303 1235 530 L1316 530 Z M983 1730 L703 1481 L628 1481 L880 1730 L983 1730 Z " />
<glyph glyph-name="cacute" unicode="&#x107;" horiz-adv-x="1026" d="M959 345 Q942 217 878 129 Q763 -29 541 -29 Q302 -29 180 155 Q89 292 89 486 Q89 735 219 874 Q347 1011 549 1011 Q720 1011 826 923.5 Q932 836 950 680 L872 680 Q852 780 804 838 Q714 944 550 944 Q354 944 251 795 Q167 673 167 490 Q167 301 259 175 Q359 38 538 38 Q680 38 771 120 Q862 202 881 345 L959 345 Z M784 1406 L531 1137 L461 1137 L686 1406 L784 1406 Z " />
<glyph glyph-name="Ccircumflex" unicode="&#x108;" horiz-adv-x="1394" d="M1316 530 Q1299 330 1186 185 Q1018 -31 724 -31 Q576 -31 450 29.5 Q324 90 239 203 Q98 390 98 680 Q98 993 270 1193 Q446 1396 734 1396 Q1000 1396 1164 1223 Q1276 1104 1294 956 L1213 956 Q1185 1084 1101 1173 Q958 1324 728 1324 Q460 1324 306 1111 Q181 939 181 682 Q181 424 298 259 Q379 146 502 89 Q607 41 725 41 Q935 41 1072 172 Q1209 303 1235 530 L1316 530 Z M1019 1481 L934 1481 L720 1688 L507 1481 L428 1481 L681 1737 L766 1737 L1019 1481 Z " />
<glyph glyph-name="ccircumflex" unicode="&#x109;" horiz-adv-x="1026" d="M959 345 Q942 217 878 129 Q763 -29 541 -29 Q302 -29 180 155 Q89 292 89 486 Q89 735 219 874 Q347 1011 549 1011 Q720 1011 826 923.5 Q932 836 950 680 L872 680 Q852 780 804 838 Q714 944 550 944 Q354 944 251 795 Q167 673 167 490 Q167 301 259 175 Q359 38 538 38 Q680 38 771 120 Q862 202 881 345 L959 345 Z M824 1137 L740 1137 L557 1356 L373 1137 L297 1137 L520 1406 L600 1406 L824 1137 Z " />
<glyph glyph-name="Cdotaccent" unicode="&#x10a;" horiz-adv-x="1394" d="M1316 530 Q1299 330 1186 185 Q1018 -31 724 -31 Q576 -31 450 29.5 Q324 90 239 203 Q98 390 98 680 Q98 993 270 1193 Q446 1396 734 1396 Q1000 1396 1164 1223 Q1276 1104 1294 956 L1213 956 Q1185 1084 1101 1173 Q958 1324 728 1324 Q460 1324 306 1111 Q181 939 181 682 Q181 424 298 259 Q379 146 502 89 Q607 41 725 41 Q935 41 1072 172 Q1209 303 1235 530 L1316 530 Z M723 1686 Q751 1686 771 1664.5 Q791 1643 791 1614 Q791 1584 770.5 1562.5 Q750 1541 722 1541 Q694 1541 673.5 1562.5 Q653 1584 653 1614 Q653 1644 673.5 1665 Q694 1686 723 1686 Z " />
<glyph glyph-name="cdotaccent" unicode="&#x10b;" horiz-adv-x="1026" d="M959 345 Q942 217 878 129 Q763 -29 541 -29 Q302 -29 180 155 Q89 292 89 486 Q89 735 219 874 Q347 1011 549 1011 Q720 1011 826 923.5 Q932 836 950 680 L872 680 Q852 780 804 838 Q714 944 550 944 Q354 944 251 795 Q167 673 167 490 Q167 301 259 175 Q359 38 538 38 Q680 38 771 120 Q862 202 881 345 L959 345 Z M540 1346 Q568 1346 588 1324.5 Q608 1303 608 1274 Q608 1244 587.5 1222.5 Q567 1201 539 1201 Q511 1201 490.5 1222.5 Q470 1244 470 1274 Q470 1304 490.5 1325 Q511 1346 540 1346 Z " />
<glyph glyph-name="Ccaron" unicode="&#x10c;" horiz-adv-x="1394" d="M1316 530 Q1299 330 1186 185 Q1018 -31 724 -31 Q576 -31 450 29.5 Q324 90 239 203 Q98 390 98 680 Q98 993 270 1193 Q446 1396 734 1396 Q1000 1396 1164 1223 Q1276 1104 1294 956 L1213 956 Q1185 1084 1101 1173 Q958 1324 728 1324 Q460 1324 306 1111 Q181 939 181 682 Q181 424 298 259 Q379 146 502 89 Q607 41 725 41 Q935 41 1072 172 Q1209 303 1235 530 L1316 530 Z M428 1737 L514 1737 L727 1530 L941 1737 L1019 1737 L767 1481 L682 1481 L428 1737 Z " />
<glyph glyph-name="ccaron" unicode="&#x10d;" horiz-adv-x="1026" d="M959 345 Q942 217 878 129 Q763 -29 541 -29 Q302 -29 180 155 Q89 292 89 486 Q89 735 219 874 Q347 1011 549 1011 Q720 1011 826 923.5 Q932 836 950 680 L872 680 Q852 780 804 838 Q714 944 550 944 Q354 944 251 795 Q167 673 167 490 Q167 301 259 175 Q359 38 538 38 Q680 38 771 120 Q862 202 881 345 L959 345 Z M277 1406 L361 1406 L544 1186 L728 1406 L804 1406 L581 1137 L501 1137 L277 1406 Z " />
<glyph glyph-name="Dcaron" unicode="&#x10e;" horiz-adv-x="1352" d="M173 1365 L634 1365 Q777 1365 879 1331 Q981 1297 1061 1223 Q1155 1137 1205.5 1003 Q1256 869 1256 705 Q1256 345 1064 154 Q982 72 881.5 36 Q781 0 634 0 L173 0 L173 1365 Z M256 1293 L256 72 L607 72 Q752 72 841 100.5 Q930 129 1001 197 Q1173 365 1173 697 Q1173 996 1018 1155 Q947 1228 855 1260.5 Q763 1293 629 1293 L256 1293 Z M313 1737 L398 1737 L612 1530 L826 1737 L904 1737 L651 1481 L567 1481 L313 1737 Z " />
<glyph glyph-name="dcaron" unicode="&#x10f;" horiz-adv-x="1323" d="M976 1365 L976 0 L901 0 L901 239 Q876 158 827 99 Q719 -29 527 -29 Q306 -29 188 134 Q88 272 88 486 Q88 734 213 875 Q334 1011 526 1011 Q662 1011 752.5 949 Q843 887 898 756 L898 1365 L976 1365 Z M537 944 Q368 944 269 826 Q166 702 166 487 Q166 306 244 186 Q340 38 530 38 Q707 38 807 169 Q900 290 900 491 Q900 695 807 812 Q702 944 537 944 Z M1136 1092 Q1206 1122 1210 1227 L1197 1225 L1191 1225 Q1161 1225 1141 1245 Q1121 1265 1121 1294 Q1121 1325 1142 1348 Q1163 1371 1190 1371 Q1269 1371 1269 1251 Q1269 1163 1234 1106.5 Q1199 1050 1136 1037 L1136 1092 Z " />
<glyph glyph-name="Dcroat" unicode="&#x110;" horiz-adv-x="1352" d="M173 750 L173 1365 L634 1365 Q777 1365 879.5 1331.5 Q982 1298 1061 1224 Q1154 1137 1204.5 1002.5 Q1255 868 1255 705 Q1255 345 1064 153 Q983 72 882.5 36 Q782 0 635 0 L173 0 L173 679 L9 679 L9 750 L173 750 Z M256 750 L653 750 L653 679 L256 679 L256 71 L607 71 Q752 71 841 99.5 Q930 128 1000 197 Q1172 365 1172 697 Q1172 996 1018 1156 Q947 1228 855 1261 Q763 1294 629 1294 L256 1294 L256 750 Z " />
<glyph glyph-name="dcroat" unicode="&#x111;" horiz-adv-x="1134" d="M898 1200 L898 1365 L976 1365 L976 1200 L1126 1200 L1126 1133 L976 1133 L976 0 L901 0 L901 239 Q876 158 827 99 Q719 -29 527 -29 Q306 -29 188 134 Q88 272 88 486 Q88 734 213 876 Q334 1011 526 1011 Q662 1011 753 949 Q844 887 898 756 L898 1133 L551 1133 L551 1200 L898 1200 Z M537 944 Q368 944 270 826 Q167 703 167 487 Q167 306 245 186 Q340 38 530 38 Q707 38 807 169 Q900 290 900 491 Q900 694 807 812 Q702 944 537 944 Z " />
<glyph glyph-name="Emacron" unicode="&#x112;" horiz-adv-x="1181" d="M1093 1365 L1093 1293 L256 1293 L256 747 L1043 747 L1043 675 L256 675 L256 72 L1103 72 L1103 0 L173 0 L173 1365 L1093 1365 Z M928 1633 L928 1569 L350 1569 L350 1633 L928 1633 Z " />
<glyph glyph-name="emacron" unicode="&#x113;" horiz-adv-x="1044" d="M955 336 Q936 232 891 160 Q772 -29 537 -29 Q322 -29 200 124 Q89 265 89 483 Q89 725 219 871 Q343 1011 536 1011 Q689 1011 797 920 Q921 817 954 638 Q966 574 965 479 L169 479 Q170 364 198 285 Q236 175 315 111 Q406 38 537 38 Q704 38 803 161 Q857 228 878 336 L955 336 Z M886 546 Q879 693 821 786 Q723 944 535 944 Q403 944 306 860 Q192 762 170 546 L886 546 Z M794 1293 L794 1233 L278 1233 L278 1293 L794 1293 Z " />
<glyph glyph-name="Ebreve" unicode="&#x114;" horiz-adv-x="1181" d="M1093 1365 L1093 1293 L256 1293 L256 747 L1043 747 L1043 675 L256 675 L256 72 L1103 72 L1103 0 L173 0 L173 1365 L1093 1365 Z M909 1723 Q897 1650 865 1604 Q788 1495 638 1495 Q526 1495 452.5 1557.5 Q379 1620 369 1723 L432 1723 Q444 1666 471 1632 Q530 1558 640 1558 Q810 1558 846 1723 L909 1723 Z " />
<glyph glyph-name="ebreve" unicode="&#x115;" horiz-adv-x="1044" d="M955 336 Q936 232 891 160 Q772 -29 537 -29 Q322 -29 200 124 Q89 265 89 483 Q89 725 219 871 Q343 1011 536 1011 Q689 1011 797 920 Q921 817 954 638 Q966 574 965 479 L169 479 Q170 364 198 285 Q236 175 315 111 Q406 38 537 38 Q704 38 803 161 Q857 228 878 336 L955 336 Z M886 546 Q879 693 821 786 Q723 944 535 944 Q403 944 306 860 Q192 762 170 546 L886 546 Z M768 1381 Q757 1308 728 1262 Q658 1153 521 1153 Q419 1153 352 1215.5 Q285 1278 277 1381 L335 1381 Q345 1325 369 1291 Q423 1216 525 1216 Q678 1216 710 1381 L768 1381 Z " />
<glyph glyph-name="Edotaccent" unicode="&#x116;" horiz-adv-x="1181" d="M1093 1365 L1093 1293 L256 1293 L256 747 L1043 747 L1043 675 L256 675 L256 72 L1103 72 L1103 0 L173 0 L173 1365 L1093 1365 Z M643 1686 Q671 1686 691 1664.5 Q711 1643 711 1614 Q711 1584 690.5 1562.5 Q670 1541 642 1541 Q614 1541 593.5 1562.5 Q573 1584 573 1614 Q573 1644 593.5 1665 Q614 1686 643 1686 Z " />
<glyph glyph-name="edotaccent" unicode="&#x117;" horiz-adv-x="1044" d="M955 336 Q936 232 891 160 Q772 -29 537 -29 Q322 -29 200 124 Q89 265 89 483 Q89 725 219 871 Q343 1011 536 1011 Q689 1011 797 920 Q921 817 954 638 Q966 574 965 479 L169 479 Q170 364 198 285 Q236 175 315 111 Q406 38 537 38 Q704 38 803 161 Q857 228 878 336 L955 336 Z M886 546 Q879 693 821 786 Q723 944 535 944 Q403 944 306 860 Q192 762 170 546 L886 546 Z M536 1346 Q564 1346 584 1324.5 Q604 1303 604 1274 Q604 1244 583.5 1222.5 Q563 1201 535 1201 Q507 1201 486.5 1222.5 Q466 1244 466 1274 Q466 1304 486.5 1325 Q507 1346 536 1346 Z " />
<glyph glyph-name="Eogonek" unicode="&#x118;" horiz-adv-x="1182" d="M1093 1365 L1093 1293 L256 1293 L256 747 L1043 747 L1043 675 L256 675 L256 72 L1103 72 L1103 0 Q989 -84 989 -170 Q989 -219 1028.5 -250 Q1068 -281 1132 -281 Q1170 -281 1224 -263 L1226 -321 Q1163 -341 1115 -341 Q1024 -341 970 -292 Q922 -249 922 -181 Q922 -86 1031 0 L173 0 L173 1365 L1093 1365 Z " />
<glyph glyph-name="eogonek" unicode="&#x119;" horiz-adv-x="1044" d="M706 -11 Q613 -92 613 -171 Q613 -219 653 -250 Q693 -281 756 -281 Q794 -281 849 -263 L850 -321 Q788 -341 740 -341 Q648 -341 594 -292 Q546 -249 546 -178 Q546 -92 634 -20 Q582 -29 541 -29 Q370 -29 256 66 Q89 207 89 483 Q89 725 219 871 Q344 1011 536 1011 Q689 1011 797 920 Q921 817 954 638 Q966 574 965 479 L169 479 Q170 364 198 285 Q236 175 315 111 Q406 38 537 38 Q704 38 803 161 Q857 228 878 336 L955 336 Q934 218 882.5 146 Q831 74 706 -11 Z M886 546 Q879 693 821 786 Q723 944 535 944 Q403 944 306 860 Q192 762 170 546 L886 546 Z " />
<glyph glyph-name="Ecaron" unicode="&#x11a;" horiz-adv-x="1181" d="M1093 1365 L1093 1293 L256 1293 L256 747 L1043 747 L1043 675 L256 675 L256 72 L1103 72 L1103 0 L173 0 L173 1365 L1093 1365 Z M344 1737 L429 1737 L643 1530 L856 1737 L934 1737 L682 1481 L597 1481 L344 1737 Z " />
<glyph glyph-name="ecaron" unicode="&#x11b;" horiz-adv-x="1044" d="M955 336 Q936 232 891 160 Q772 -29 537 -29 Q322 -29 200 124 Q89 265 89 483 Q89 725 219 871 Q343 1011 536 1011 Q689 1011 797 920 Q921 817 954 638 Q966 574 965 479 L169 479 Q170 364 198 285 Q236 175 315 111 Q406 38 537 38 Q704 38 803 161 Q857 228 878 336 L955 336 Z M886 546 Q879 693 821 786 Q723 944 535 944 Q403 944 306 860 Q192 762 170 546 L886 546 Z M273 1406 L356 1406 L540 1186 L723 1406 L799 1406 L577 1137 L496 1137 L273 1406 Z " />
<glyph glyph-name="Gcircumflex" unicode="&#x11c;" horiz-adv-x="1475" d="M1336 668 L1336 0 L1276 0 L1267 332 Q1230 217 1156 137 Q1001 -31 742 -31 Q541 -31 387 68 Q250 157 174 314 Q98 471 98 668 Q98 827 146 966 Q194 1105 283 1203 Q458 1396 743 1396 Q1011 1396 1178 1217 Q1287 1101 1313 943 L1234 943 Q1199 1114 1064 1219 Q929 1324 743 1324 Q462 1324 303 1103 Q181 933 181 667 Q181 405 315 239 Q474 41 744 41 Q933 41 1068 143 Q1163 214 1213 324 Q1263 434 1263 571 Q1263 579 1263 596 L759 596 L759 668 L1336 668 Z M1053 1481 L968 1481 L754 1688 L540 1481 L462 1481 L715 1737 L799 1737 L1053 1481 Z " />
<glyph glyph-name="gcircumflex" unicode="&#x11d;" horiz-adv-x="1109" d="M952 983 L952 79 Q952 -105 896 -202 Q796 -374 524 -374 Q347 -374 246.5 -296 Q146 -218 135 -72 L213 -72 Q225 -164 268 -213 Q349 -307 524 -307 Q709 -307 791.5 -216.5 Q874 -126 874 77 L874 283 Q845 214 816 176 Q707 34 506 34 Q303 34 187 184 Q89 309 89 512 Q89 738 203 872 Q322 1012 520 1012 Q646 1012 738.5 946 Q831 880 877 757 L877 983 L952 983 Z M526 945 Q341 945 244 804 Q167 692 167 523 Q167 328 261 213 Q353 101 514 101 Q693 101 796 240 Q873 346 873 522 Q873 732 765 845 Q711 900 637 925 Q578 945 526 945 Z M798 1137 L714 1137 L531 1356 L347 1137 L271 1137 L494 1406 L574 1406 L798 1137 Z " />
<glyph glyph-name="Gbreve" unicode="&#x11e;" horiz-adv-x="1475" d="M1336 668 L1336 0 L1276 0 L1267 332 Q1230 217 1156 137 Q1001 -31 742 -31 Q541 -31 387 68 Q250 157 174 314 Q98 471 98 668 Q98 827 146 966 Q194 1105 283 1203 Q458 1396 743 1396 Q1011 1396 1178 1217 Q1287 1101 1313 943 L1234 943 Q1199 1114 1064 1219 Q929 1324 743 1324 Q462 1324 303 1103 Q181 933 181 667 Q181 405 315 239 Q474 41 744 41 Q933 41 1068 143 Q1163 214 1213 324 Q1263 434 1263 571 Q1263 579 1263 596 L759 596 L759 668 L1336 668 Z M1014 1723 Q1002 1650 970 1604 Q893 1495 743 1495 Q631 1495 557.5 1557.5 Q484 1620 474 1723 L537 1723 Q549 1666 576 1632 Q635 1558 745 1558 Q915 1558 951 1723 L1014 1723 Z " />
<glyph glyph-name="gbreve" unicode="&#x11f;" horiz-adv-x="1109" d="M952 983 L952 79 Q952 -105 896 -202 Q796 -374 524 -374 Q347 -374 246.5 -296 Q146 -218 135 -72 L213 -72 Q225 -164 268 -213 Q349 -307 524 -307 Q709 -307 791.5 -216.5 Q874 -126 874 77 L874 283 Q845 214 816 176 Q707 34 506 34 Q303 34 187 184 Q89 309 89 512 Q89 738 203 872 Q322 1012 520 1012 Q646 1012 738.5 946 Q831 880 877 757 L877 983 L952 983 Z M526 945 Q341 945 244 804 Q167 692 167 523 Q167 328 261 213 Q353 101 514 101 Q693 101 796 240 Q873 346 873 522 Q873 732 765 845 Q711 900 637 925 Q578 945 526 945 Z M773 1381 Q762 1308 733 1262 Q663 1153 526 1153 Q424 1153 357 1215.5 Q290 1278 282 1381 L340 1381 Q350 1325 375 1291 Q428 1216 530 1216 Q683 1216 716 1381 L773 1381 Z " />
<glyph glyph-name="Gdotaccent" unicode="&#x120;" horiz-adv-x="1475" d="M1336 668 L1336 0 L1276 0 L1267 332 Q1230 217 1156 137 Q1001 -31 742 -31 Q541 -31 387 68 Q250 157 174 314 Q98 471 98 668 Q98 827 146 966 Q194 1105 283 1203 Q458 1396 743 1396 Q1011 1396 1178 1217 Q1287 1101 1313 943 L1234 943 Q1199 1114 1064 1219 Q929 1324 743 1324 Q462 1324 303 1103 Q181 933 181 667 Q181 405 315 239 Q474 41 744 41 Q933 41 1068 143 Q1163 214 1213 324 Q1263 434 1263 571 Q1263 579 1263 596 L759 596 L759 668 L1336 668 Z M737 1686 Q765 1686 785 1664.5 Q805 1643 805 1614 Q805 1584 784.5 1562.5 Q764 1541 736 1541 Q708 1541 687.5 1562.5 Q667 1584 667 1614 Q667 1644 687.5 1665 Q708 1686 737 1686 Z " />
<glyph glyph-name="gdotaccent" unicode="&#x121;" horiz-adv-x="1109" d="M952 983 L952 79 Q952 -105 896 -202 Q796 -374 524 -374 Q347 -374 246.5 -296 Q146 -218 135 -72 L213 -72 Q225 -164 268 -213 Q349 -307 524 -307 Q709 -307 791.5 -216.5 Q874 -126 874 77 L874 283 Q845 214 816 176 Q707 34 506 34 Q303 34 187 184 Q89 309 89 512 Q89 738 203 872 Q322 1012 520 1012 Q646 1012 738.5 946 Q831 880 877 757 L877 983 L952 983 Z M526 945 Q341 945 244 804 Q167 692 167 523 Q167 328 261 213 Q353 101 514 101 Q693 101 796 240 Q873 346 873 522 Q873 732 765 845 Q711 900 637 925 Q578 945 526 945 Z M527 1346 Q555 1346 575 1324.5 Q595 1303 595 1274 Q595 1244 574.5 1222.5 Q554 1201 526 1201 Q498 1201 477.5 1222.5 Q457 1244 457 1274 Q457 1304 477.5 1325 Q498 1346 527 1346 Z " />
<glyph glyph-name="Gcommaaccent" unicode="&#x122;" horiz-adv-x="1475" d="M1336 668 L1336 0 L1276 0 L1267 332 Q1230 217 1156 137 Q1001 -31 742 -31 Q541 -31 387 68 Q250 157 174 314 Q98 471 98 668 Q98 827 146 966 Q194 1105 283 1203 Q458 1396 743 1396 Q1011 1396 1178 1217 Q1287 1101 1313 943 L1234 943 Q1199 1114 1064 1219 Q929 1324 743 1324 Q462 1324 303 1103 Q181 933 181 667 Q181 405 315 239 Q474 41 744 41 Q933 41 1068 143 Q1163 214 1213 324 Q1263 434 1263 571 Q1263 579 1263 596 L759 596 L759 668 L1336 668 Z M671 -382 Q741 -352 746 -247 L732 -249 L726 -249 Q696 -249 676 -229 Q656 -209 656 -180 Q656 -150 677 -127 Q698 -104 726 -104 Q805 -104 805 -224 Q805 -312 769.5 -368.5 Q734 -425 671 -437 L671 -382 Z " />
<glyph glyph-name="gcommaaccent" unicode="&#x123;" horiz-adv-x="1109" d="M966 983 L966 79 Q966 -105 910 -202 Q810 -374 538 -374 Q361 -374 260.5 -296 Q160 -218 149 -72 L227 -72 Q239 -164 282 -213 Q363 -307 538 -307 Q723 -307 805.5 -216.5 Q888 -126 888 77 L888 283 Q859 214 830 176 Q721 34 520 34 Q317 34 201 184 Q103 309 103 512 Q103 738 217 872 Q336 1012 534 1012 Q660 1012 752.5 946 Q845 880 891 757 L891 983 L966 983 Z M525 945 Q340 945 243 804 Q166 691 166 523 Q166 329 261 213 Q353 101 513 101 Q693 101 795 240 Q873 346 873 522 Q873 732 765 845 Q711 900 637 925 Q578 945 525 945 Z M579 1416 Q509 1386 505 1281 L519 1283 L524 1283 Q554 1283 574.5 1263 Q595 1243 595 1214 Q595 1184 574 1161 Q553 1138 526 1138 Q446 1138 446 1258 Q446 1346 481.5 1402.5 Q517 1459 579 1472 L579 1416 Z " />
<glyph glyph-name="Hcircumflex" unicode="&#x124;" horiz-adv-x="1384" d="M1214 1365 L1214 0 L1131 0 L1131 679 L254 679 L254 0 L171 0 L171 1365 L254 1365 L254 751 L1131 751 L1131 1365 L1214 1365 Z M988 1481 L903 1481 L689 1688 L475 1481 L397 1481 L650 1737 L734 1737 L988 1481 Z " />
<glyph glyph-name="hcircumflex" unicode="&#x125;" horiz-adv-x="1087" d="M237 1365 L237 875 L234 760 Q333 1011 586 1011 Q784 1011 880 868 Q937 782 937 629 L937 0 L859 0 L859 618 Q859 765 805 837 Q724 944 572 944 Q390 944 297 786 Q237 683 237 498 L237 0 L159 0 L159 1365 L237 1365 Z M752 1481 L667 1481 L453 1688 L239 1481 L161 1481 L414 1737 L498 1737 L752 1481 Z " />
<glyph glyph-name="Hbar" unicode="&#x126;" horiz-adv-x="1384" d="M1213 1085 L1363 1085 L1363 1014 L1213 1014 L1213 0 L1130 0 L1130 679 L253 679 L253 0 L170 0 L170 1014 L20 1014 L20 1085 L170 1085 L170 1365 L253 1365 L253 1085 L1130 1085 L1130 1365 L1213 1365 L1213 1085 Z M253 1014 L253 751 L1130 751 L1130 1014 L253 1014 Z " />
<glyph glyph-name="hbar" unicode="&#x127;" horiz-adv-x="1087" d="M237 0 L159 0 L159 1133 L9 1133 L9 1200 L159 1200 L159 1365 L237 1365 L237 1200 L584 1200 L584 1133 L237 1133 L237 875 L234 760 Q333 1011 586 1011 Q784 1011 880 868 Q937 782 937 629 L937 0 L859 0 L859 618 Q859 765 805 837 Q724 944 572 944 Q390 944 297 786 Q237 683 237 498 L237 0 Z " />
<glyph glyph-name="Itilde" unicode="&#x128;" horiz-adv-x="426" d="M255 1365 L255 0 L172 0 L172 1365 L255 1365 Z M493 1690 Q460 1525 346 1525 Q292 1525 216 1571 Q151 1610 131 1618.5 Q111 1627 86 1627 Q13 1627 -11 1522 L-66 1522 Q-56 1576 -36 1612 Q9 1690 90 1690 Q141 1690 218 1643 Q304 1590 346 1590 Q411 1590 437 1690 L493 1690 Z " />
<glyph glyph-name="itilde" unicode="&#x129;" horiz-adv-x="393" d="M237 982 L237 0 L159 0 L159 982 L237 982 Z M447 1349 Q440 1274 404 1228.5 Q368 1183 317 1183 Q268 1183 199 1229 Q141 1268 123.5 1276.5 Q106 1285 84 1285 Q51 1285 29 1257 Q7 1229 2 1181 L-54 1181 Q-47 1234 -28 1270 Q14 1348 86 1348 Q132 1348 202 1301 Q281 1247 315 1247 Q343 1247 364.5 1274.5 Q386 1302 393 1349 L447 1349 Z " />
<glyph glyph-name="Imacron" unicode="&#x12a;" horiz-adv-x="426" d="M255 1365 L255 0 L172 0 L172 1365 L255 1365 Z M433 1633 L433 1569 L-8 1569 L-8 1633 L433 1633 Z " />
<glyph glyph-name="imacron" unicode="&#x12b;" horiz-adv-x="393" d="M237 982 L237 0 L159 0 L159 982 L237 982 Z M400 1293 L400 1233 L-7 1233 L-7 1293 L400 1293 Z " />
<glyph glyph-name="Ibreve" unicode="&#x12c;" horiz-adv-x="426" d="M255 1365 L255 0 L172 0 L172 1365 L255 1365 Z M482 1723 Q470 1650 438 1604 Q362 1495 211 1495 Q99 1495 25.5 1557.5 Q-48 1620 -57 1723 L6 1723 Q17 1666 45 1632 Q103 1558 214 1558 Q384 1558 420 1723 L482 1723 Z " />
<glyph glyph-name="ibreve" unicode="&#x12d;" horiz-adv-x="393" d="M237 982 L237 0 L159 0 L159 982 L237 982 Z M422 1381 Q412 1307 388 1265 Q360 1213 307 1183 Q254 1153 193 1153 Q97 1153 38.5 1213 Q-20 1273 -29 1381 L29 1381 Q61 1215 196 1215 Q331 1215 364 1381 L422 1381 Z " />
<glyph glyph-name="Iogonek" unicode="&#x12e;" horiz-adv-x="426" d="M172 1365 L255 1365 L255 0 Q212 -31 187 -76.5 Q162 -122 162 -168 Q162 -218 194.5 -249 Q227 -280 279 -280 Q308 -280 356 -263 L357 -321 Q308 -340 267 -340 Q187 -340 140 -292 Q94 -244 94 -172 Q94 -89 172 0 L172 1365 Z " />
<glyph glyph-name="iogonek" unicode="&#x12f;" horiz-adv-x="393" d="M237 0 Q143 -72 143 -172 Q143 -220 174 -250.5 Q205 -281 255 -281 Q286 -281 331 -263 L332 -321 Q288 -341 247 -341 Q168 -341 123 -294 Q76 -245 76 -178 Q76 -96 159 0 L159 982 L237 982 L237 0 Z M199 1345 Q227 1345 247 1323.5 Q267 1302 267 1273 Q267 1243 247 1221.5 Q227 1200 198 1200 Q170 1200 149.5 1221.5 Q129 1243 129 1273 Q129 1303 149.5 1324 Q170 1345 199 1345 Z " />
<glyph glyph-name="Idot" unicode="&#x130;" horiz-adv-x="426" d="M255 1365 L255 0 L172 0 L172 1365 L255 1365 Z M215 1686 Q243 1686 263 1665 Q283 1644 283 1614 Q283 1584 262.5 1562.5 Q242 1541 214 1541 Q186 1541 165.5 1562.5 Q145 1584 145 1614 Q145 1644 165.5 1665 Q186 1686 215 1686 Z " />
<glyph glyph-name="dotlessi" unicode="&#x131;" horiz-adv-x="393" d="M237 982 L237 0 L159 0 L159 982 L237 982 Z " />
<glyph glyph-name="IJ" unicode="&#x132;" horiz-adv-x="1353" d="M255 1365 L255 0 L172 0 L172 1365 L255 1365 Z M1201 1365 L1201 371 Q1201 190 1132 99 Q1033 -32 823 -32 Q626 -32 534 68 Q442 168 442 381 Q442 404 443 433 L523 433 Q522 410 522 387 Q522 240 558 171 Q628 40 824 40 Q989 40 1065 141 Q1118 212 1118 376 L1118 1365 L1201 1365 Z " />
<glyph glyph-name="ij" unicode="&#x133;" horiz-adv-x="777" d="M199 1345 Q227 1345 247 1323.5 Q267 1302 267 1273 Q267 1243 246.5 1221.5 Q226 1200 198 1200 Q170 1200 149.5 1221.5 Q129 1243 129 1273 Q129 1303 149.5 1324 Q170 1345 199 1345 Z M237 982 L237 0 L159 0 L159 982 L237 982 Z M621 982 L621 -103 Q621 -186 609 -232 Q597 -278 567 -307 Q515 -359 395 -359 Q372 -359 350 -356 L350 -289 Q379 -290 389 -290 Q445 -290 470.5 -281.5 Q496 -273 513 -248 Q543 -204 543 -109 L543 982 L621 982 Z M583 1345 Q611 1345 631 1323.5 Q651 1302 651 1273 Q651 1243 630.5 1221.5 Q610 1200 582 1200 Q554 1200 533.5 1221.5 Q513 1243 513 1273 Q513 1303 533.5 1324 Q554 1345 583 1345 Z " />
<glyph glyph-name="Jcircumflex" unicode="&#x134;" horiz-adv-x="941" d="M789 1365 L789 371 Q789 190 720 99 Q621 -32 411 -32 Q214 -32 122 67.5 Q30 167 30 381 Q30 404 31 433 L111 433 Q110 402 110 387 Q110 239 146 171 Q216 40 412 40 Q577 40 653 141 Q706 212 706 376 L706 1365 L789 1365 Z M1030 1481 L945 1481 L731 1688 L517 1481 L439 1481 L692 1737 L776 1737 L1030 1481 Z " />
<glyph glyph-name="jcircumflex" unicode="&#x135;" horiz-adv-x="384" d="M227 982 L227 -103 Q227 -186 215 -232 Q203 -278 173 -307 Q121 -359 2 -359 Q-21 -359 -43 -356 L-43 -289 Q-14 -290 -4 -290 Q52 -290 77 -281.5 Q102 -273 119 -248 Q149 -204 149 -109 L149 982 L227 982 Z M456 1137 L372 1137 L189 1356 L5 1137 L-71 1137 L152 1406 L232 1406 L456 1137 Z " />
<glyph glyph-name="Kcommaaccent" unicode="&#x136;" horiz-adv-x="1260" d="M1229 1365 L599 798 L1267 0 L1162 0 L540 742 L256 484 L256 0 L173 0 L173 1365 L256 1365 L256 696 L256 634 L256 581 Q296 621 342 663 L1119 1365 L1229 1365 Z M592 -382 Q662 -352 666 -247 L653 -249 L647 -249 Q617 -249 597 -229 Q577 -209 577 -180 Q577 -150 598 -127 Q619 -104 646 -104 Q726 -104 726 -224 Q726 -312 690.5 -368.5 Q655 -425 592 -437 L592 -382 Z " />
<glyph glyph-name="kcommaaccent" unicode="&#x137;" horiz-adv-x="1004" d="M948 982 L518 616 L978 0 L880 0 L459 562 L237 373 L237 0 L159 0 L159 1365 L237 1365 L237 574 Q237 501 237 461 L315 531 L843 982 L948 982 Z M472 -382 Q542 -352 546 -247 L533 -249 L527 -249 Q497 -249 477 -229.5 Q457 -210 457 -180 Q457 -150 478 -127 Q499 -104 526 -104 Q606 -104 606 -224 Q606 -312 570.5 -368.5 Q535 -425 472 -437 L472 -382 Z " />
<glyph glyph-name="kgreenlandic" unicode="&#x138;" horiz-adv-x="1004" d="M948 982 L518 616 L978 0 L880 0 L459 562 L237 373 L237 0 L159 0 L159 982 L237 982 L237 574 Q237 501 237 461 L315 531 L843 982 L948 982 Z " />
<glyph glyph-name="Lacute" unicode="&#x139;" horiz-adv-x="1065" d="M1035 72 L1035 0 L172 0 L172 1365 L255 1365 L255 72 L1035 72 Z M519 1730 L239 1481 L164 1481 L416 1730 L519 1730 Z " />
<glyph glyph-name="lacute" unicode="&#x13a;" horiz-adv-x="393" d="M236 1365 L236 0 L158 0 L158 1365 L236 1365 Z M463 1730 L210 1481 L135 1481 L360 1730 L463 1730 Z " />
<glyph glyph-name="Lcommaaccent" unicode="&#x13b;" horiz-adv-x="1065" d="M1035 72 L1035 0 L172 0 L172 1365 L255 1365 L255 72 L1035 72 Z M556 -382 Q625 -352 630 -247 L616 -249 L610 -249 Q581 -249 560.5 -229 Q540 -209 540 -180 Q540 -150 561 -127 Q582 -104 609 -104 Q689 -104 689 -224 Q689 -311 653.5 -368 Q618 -425 556 -437 L556 -382 Z " />
<glyph glyph-name="lcommaaccent" unicode="&#x13c;" horiz-adv-x="393" d="M236 1365 L236 0 L158 0 L158 1365 L236 1365 Z M140 -382 Q209 -352 214 -247 L200 -249 L194 -249 Q165 -249 144.5 -229 Q124 -209 124 -180 Q124 -150 145 -127 Q166 -104 193 -104 Q273 -104 273 -224 Q273 -312 237.5 -368.5 Q202 -425 140 -437 L140 -382 Z " />
<glyph glyph-name="Lcaron" unicode="&#x13d;" horiz-adv-x="1065" d="M1035 72 L1035 0 L172 0 L172 1365 L255 1365 L255 72 L1035 72 Z M610 1092 Q680 1122 684 1227 L671 1225 L665 1225 Q635 1225 615 1245 Q595 1265 595 1294 Q595 1325 616 1348 Q637 1371 664 1371 Q743 1371 743 1251 Q743 1163 708 1106 Q673 1049 610 1037 L610 1092 Z " />
<glyph glyph-name="lcaron" unicode="&#x13e;" horiz-adv-x="583" d="M236 1365 L236 0 L158 0 L158 1365 L236 1365 Z M395 1092 Q465 1122 470 1227 L456 1225 L450 1225 Q421 1225 400.5 1245 Q380 1265 380 1294 Q380 1325 401 1348 Q422 1371 449 1371 Q529 1371 529 1251 Q529 1163 493.5 1106.5 Q458 1050 395 1037 L395 1092 Z " />
<glyph glyph-name="Ldot" unicode="&#x13f;" horiz-adv-x="1065" d="M1035 72 L1035 0 L172 0 L172 1365 L255 1365 L255 72 L1035 72 Z M740 748 Q768 748 788 726.5 Q808 705 808 676 Q808 646 787.5 624.5 Q767 603 739 603 Q711 603 690.5 624.5 Q670 646 670 676 Q670 706 690.5 727 Q711 748 740 748 Z " />
<glyph glyph-name="ldot" unicode="&#x140;" horiz-adv-x="496" d="M236 1365 L236 0 L158 0 L158 1365 L236 1365 Z M446 748 Q474 748 494 726.5 Q514 705 514 676 Q514 646 493.5 624.5 Q473 603 445 603 Q417 603 396.5 624.5 Q376 646 376 676 Q376 706 396.5 727 Q417 748 446 748 Z " />
<glyph glyph-name="Lslash" unicode="&#x141;" horiz-adv-x="1065" d="M172 693 L172 1365 L255 1365 L255 742 L549 962 L549 879 L255 659 L255 72 L1035 72 L1035 0 L172 0 L172 610 L22 497 L22 580 L172 693 Z " />
<glyph glyph-name="lslash" unicode="&#x142;" horiz-adv-x="393" d="M157 778 L157 1365 L236 1365 L236 826 L372 928 L372 849 L236 746 L236 0 L157 0 L157 698 L20 596 L20 675 L157 778 Z " />
<glyph glyph-name="Nacute" unicode="&#x143;" horiz-adv-x="1401" d="M1231 1365 L1231 0 L1135 0 L369 1081 Q309 1166 251 1269 Q254 1222 255 1126 L256 1060 L256 0 L173 0 L173 1365 L271 1365 L1021 303 Q1080 220 1154 98 Q1148 214 1148 359 L1148 1365 L1231 1365 Z M974 1730 L694 1481 L619 1481 L871 1730 L974 1730 Z " />
<glyph glyph-name="nacute" unicode="&#x144;" horiz-adv-x="1091" d="M237 982 L237 769 Q332 1011 596 1011 Q781 1011 877 886 Q914 838 927.5 783 Q941 728 941 628 L941 0 L863 0 L863 608 Q863 743 833 807 Q802 870 734.5 907 Q667 944 581 944 Q441 944 349 857 Q289 801 263.5 721 Q238 641 238 511 L238 0 L159 0 L159 982 L237 982 Z M775 1406 L522 1137 L452 1137 L677 1406 L775 1406 Z " />
<glyph glyph-name="Ncommaaccent" unicode="&#x145;" horiz-adv-x="1401" d="M1231 1365 L1231 0 L1135 0 L369 1081 Q309 1166 251 1269 Q254 1222 255 1126 L256 1060 L256 0 L173 0 L173 1365 L271 1365 L1021 303 Q1080 220 1154 98 Q1148 214 1148 359 L1148 1365 L1231 1365 Z M621 -382 Q691 -352 696 -247 L682 -249 L676 -249 Q646 -249 626 -229 Q606 -209 606 -180 Q606 -150 627 -127 Q648 -104 675 -104 Q755 -104 755 -224 Q755 -312 719.5 -368.5 Q684 -425 621 -437 L621 -382 Z " />
<glyph glyph-name="ncommaaccent" unicode="&#x146;" horiz-adv-x="1091" d="M237 982 L237 769 Q332 1011 596 1011 Q781 1011 877 886 Q914 838 927.5 783 Q941 728 941 628 L941 0 L863 0 L863 608 Q863 743 833 807 Q802 870 734.5 907 Q667 944 581 944 Q441 944 349 857 Q289 801 263.5 721 Q238 641 238 511 L238 0 L159 0 L159 982 L237 982 Z M489 -382 Q558 -352 563 -247 L549 -249 L543 -249 Q514 -249 493.5 -229 Q473 -209 473 -180 Q473 -150 494 -127 Q515 -104 542 -104 Q622 -104 622 -224 Q622 -312 586.5 -368.5 Q551 -425 489 -437 L489 -382 Z " />
<glyph glyph-name="Ncaron" unicode="&#x147;" horiz-adv-x="1401" d="M1231 1365 L1231 0 L1135 0 L369 1081 Q309 1166 251 1269 Q254 1222 255 1126 L256 1060 L256 0 L173 0 L173 1365 L271 1365 L1021 303 Q1080 220 1154 98 Q1148 214 1148 359 L1148 1365 L1231 1365 Z M405 1737 L491 1737 L704 1530 L918 1737 L996 1737 L743 1481 L659 1481 L405 1737 Z " />
<glyph glyph-name="ncaron" unicode="&#x148;" horiz-adv-x="1091" d="M237 982 L237 769 Q332 1011 596 1011 Q781 1011 877 886 Q914 838 927.5 783 Q941 728 941 628 L941 0 L863 0 L863 608 Q863 743 833 807 Q802 870 734.5 907 Q667 944 581 944 Q441 944 349 857 Q289 801 263.5 721 Q238 641 238 511 L238 0 L159 0 L159 982 L237 982 Z M289 1406 L372 1406 L556 1186 L740 1406 L816 1406 L593 1137 L512 1137 L289 1406 Z " />
<glyph glyph-name="napostrophe" unicode="&#x149;" horiz-adv-x="1295" d="M144 948 L144 1004 Q213 1040 218 1168 L204 1166 L198 1166 Q169 1166 148.5 1185.5 Q128 1205 128 1235 Q128 1265 149 1288 Q170 1311 197 1311 Q277 1311 277 1182 Q277 1090 241 1026.5 Q205 963 144 948 Z M442 982 L442 769 Q474 850 520 898 Q628 1011 802 1011 Q987 1011 1083 886 Q1120 838 1133.5 783 Q1147 728 1147 628 L1147 0 L1069 0 L1069 608 Q1069 743 1039 807 Q1008 870 940 907 Q872 944 786 944 Q647 944 554 857 Q494 801 468.5 721 Q443 641 443 511 L443 0 L364 0 L364 982 L442 982 Z " />
<glyph glyph-name="Eng" unicode="&#x14a;" horiz-adv-x="1384" d="M254 1365 L254 1081 Q300 1188 363 1249 Q512 1396 751 1396 Q1001 1396 1129 1231 Q1178 1169 1196 1097 Q1214 1025 1214 893 L1214 -103 Q1214 -187 1201.5 -232.5 Q1189 -278 1159 -307 Q1106 -359 983 -359 Q961 -359 939 -356 L939 -289 Q959 -291 978 -291 Q1034 -291 1059 -282.5 Q1084 -274 1101 -249 Q1131 -205 1131 -109 L1131 867 Q1131 1051 1088 1137 Q1042 1229 943 1277 Q847 1324 734 1324 Q538 1324 409 1207 Q326 1131 290 1022.5 Q254 914 254 738 L254 0 L171 0 L171 1365 L254 1365 Z " />
<glyph glyph-name="eng" unicode="&#x14b;" horiz-adv-x="1091" d="M237 982 L237 769 Q332 1011 596 1011 Q781 1011 877 886 Q914 838 927.5 783 Q941 728 941 628 L941 -103 Q941 -186 929 -232 Q917 -278 887 -307 Q835 -359 716 -359 Q694 -359 671 -356 L671 -289 Q695 -290 710 -290 Q766 -290 791 -281.5 Q816 -273 833 -248 Q863 -204 863 -109 L863 608 Q863 743 833 807 Q802 870 734.5 907 Q667 944 581 944 Q441 944 349 857 Q289 801 263.5 721 Q238 641 238 511 L238 0 L159 0 L159 982 L237 982 Z " />
<glyph glyph-name="Omacron" unicode="&#x14c;" horiz-adv-x="1494" d="M753 1396 Q939 1396 1095 1296 Q1256 1191 1332 1011 Q1395 861 1395 674 Q1395 390 1247 202 Q1063 -31 743 -31 Q428 -31 247 201 Q98 392 98 680 Q98 1002 273 1192 Q459 1396 753 1396 Z M754 1324 Q499 1324 336 1143 Q181 969 181 684 Q181 418 316 245 Q475 41 744 41 Q1006 41 1167 231 Q1312 402 1312 675 Q1312 963 1158 1140 Q997 1324 754 1324 Z M1035 1633 L1035 1569 L457 1569 L457 1633 L1035 1633 Z " />
<glyph glyph-name="omacron" unicode="&#x14d;" horiz-adv-x="1087" d="M552 1011 Q765 1011 891 848 Q998 709 998 485 Q998 253 879 116 Q754 -29 544 -29 Q326 -29 201 126 Q89 266 89 489 Q89 709 200 850 Q327 1011 552 1011 Z M550 944 Q375 944 268 816 Q167 694 167 490 Q167 286 265 166 Q370 38 546 38 Q721 38 822 164 Q920 286 920 485 Q920 680 829 805 Q778 875 698 911 Q626 944 550 944 Z M802 1293 L802 1233 L285 1233 L285 1293 L802 1293 Z " />
<glyph glyph-name="Obreve" unicode="&#x14e;" horiz-adv-x="1494" d="M753 1396 Q939 1396 1095 1296 Q1256 1191 1332 1011 Q1395 861 1395 674 Q1395 390 1247 202 Q1063 -31 743 -31 Q428 -31 247 201 Q98 392 98 680 Q98 1002 273 1192 Q459 1396 753 1396 Z M754 1324 Q499 1324 336 1143 Q181 969 181 684 Q181 418 316 245 Q475 41 744 41 Q1006 41 1167 231 Q1312 402 1312 675 Q1312 963 1158 1140 Q997 1324 754 1324 Z M1016 1723 Q1004 1650 972 1604 Q896 1495 745 1495 Q633 1495 559.5 1557.5 Q486 1620 477 1723 L540 1723 Q551 1666 579 1632 Q637 1558 748 1558 Q918 1558 954 1723 L1016 1723 Z " />
<glyph glyph-name="obreve" unicode="&#x14f;" horiz-adv-x="1087" d="M552 1011 Q765 1011 891 848 Q998 709 998 485 Q998 253 879 116 Q754 -29 544 -29 Q326 -29 201 126 Q89 266 89 489 Q89 709 200 850 Q327 1011 552 1011 Z M550 944 Q375 944 268 816 Q167 694 167 490 Q167 286 265 166 Q370 38 546 38 Q721 38 822 164 Q920 286 920 485 Q920 680 829 805 Q778 875 698 911 Q626 944 550 944 Z M789 1381 Q779 1308 749 1262 Q679 1153 543 1153 Q441 1153 373.5 1215.5 Q306 1278 298 1381 L356 1381 Q366 1325 391 1291 Q444 1216 546 1216 Q700 1216 732 1381 L789 1381 Z " />
<glyph glyph-name="Ohungarumlaut" unicode="&#x150;" horiz-adv-x="1494" d="M753 1396 Q939 1396 1095 1296 Q1256 1191 1332 1011 Q1395 861 1395 674 Q1395 390 1247 202 Q1063 -31 743 -31 Q428 -31 247 201 Q98 392 98 680 Q98 1002 273 1192 Q459 1396 753 1396 Z M754 1324 Q499 1324 336 1143 Q181 969 181 684 Q181 418 316 245 Q475 41 744 41 Q1006 41 1167 231 Q1312 402 1312 675 Q1312 963 1158 1140 Q997 1324 754 1324 Z M839 1730 L627 1481 L558 1481 L742 1730 L839 1730 Z M1126 1730 L914 1481 L845 1481 L1029 1730 L1126 1730 Z " />
<glyph glyph-name="ohungarumlaut" unicode="&#x151;" horiz-adv-x="1087" d="M552 1011 Q765 1011 891 848 Q998 709 998 485 Q998 253 879 116 Q754 -29 544 -29 Q326 -29 201 126 Q89 266 89 489 Q89 709 200 850 Q327 1011 552 1011 Z M550 944 Q375 944 268 816 Q167 694 167 490 Q167 286 265 166 Q370 38 546 38 Q721 38 822 164 Q920 286 920 485 Q920 680 829 805 Q778 875 698 911 Q626 944 550 944 Z M874 1406 L689 1137 L630 1137 L787 1406 L874 1406 Z M641 1406 L457 1137 L398 1137 L555 1406 L641 1406 Z " />
<glyph glyph-name="OE" unicode="&#x152;" horiz-adv-x="2118" d="M2033 1365 L2033 1293 L1223 1293 L1223 747 L1951 747 L1951 675 L1223 675 L1223 72 L2037 72 L2037 0 L1142 0 L1142 137 Q1070 58 963.5 13.5 Q857 -31 736 -31 Q436 -31 246 206 Q98 392 98 676 Q98 993 273 1187 Q462 1396 749 1396 Q865 1396 969.5 1355.5 Q1074 1315 1142 1244 L1142 1365 L2033 1365 Z M1140 253 L1140 1122 Q1140 1166 1039 1238 Q915 1324 754 1324 Q483 1324 315 1115 Q181 948 181 677 Q181 392 336 221 Q499 41 741 41 Q932 41 1064 150 Q1140 213 1140 253 Z " />
<glyph glyph-name="oe" unicode="&#x153;" horiz-adv-x="1758" d="M1671 324 Q1641 199 1583 124 Q1464 -29 1255 -29 Q957 -29 883 266 Q802 -29 513 -29 Q299 -29 181 140 Q89 271 89 485 Q89 726 206 870 Q322 1011 515 1011 Q703 1011 806 884 Q854 826 886 718 Q923 836 982 899 Q1088 1011 1263 1011 Q1412 1011 1518 927 Q1681 797 1680 479 L921 479 Q921 467 921 435 Q921 265 1006 158 Q1100 38 1263 38 Q1519 38 1597 324 L1671 324 Z M1602 546 Q1593 715 1539 797 Q1443 944 1260 944 Q1167 944 1092 901 Q1017 858 974 780 Q926 695 919 546 L1602 546 Z M519 944 Q344 944 253 813 Q167 687 167 480 Q167 283 254 163 Q346 38 516 38 Q696 38 781 184 Q851 304 851 492 Q851 700 770 817 Q684 944 519 944 Z " />
<glyph glyph-name="Racute" unicode="&#x154;" horiz-adv-x="1305" d="M165 1365 L728 1365 Q912 1365 1011 1301 Q1163 1203 1163 1002 Q1163 868 1086.5 778.5 Q1010 689 872 662 Q1001 643 1062 577 Q1107 528 1121.5 467 Q1136 406 1144 227 Q1152 56 1176 18 L1187 0 L1095 0 Q1072 37 1065 212 Q1058 382 1039.5 449 Q1021 516 969 559 Q925 596 857.5 611 Q790 626 672 626 L248 626 L248 0 L165 0 L165 1365 Z M248 1293 L248 698 L660 698 Q856 698 949 754 Q1080 832 1080 999 Q1080 1162 955 1240 Q870 1293 700 1293 L248 1293 Z M844 1730 L563 1481 L488 1481 L741 1730 L844 1730 Z " />
<glyph glyph-name="racute" unicode="&#x155;" horiz-adv-x="606" d="M618 989 L618 911 Q598 912 589 912 Q418 912 318 779 Q271 716 254.5 642.5 Q238 569 238 425 L238 0 L159 0 L159 982 L237 982 L237 724 Q297 903 443 961 Q514 989 618 989 Z M614 1406 L361 1137 L292 1137 L517 1406 L614 1406 Z " />
<glyph glyph-name="Rcommaaccent" unicode="&#x156;" horiz-adv-x="1305" d="M165 1365 L728 1365 Q912 1365 1011 1301 Q1163 1203 1163 1002 Q1163 868 1086.5 778.5 Q1010 689 872 662 Q1001 643 1062 577 Q1107 528 1121.5 467 Q1136 406 1144 227 Q1152 56 1176 18 L1187 0 L1095 0 Q1072 37 1065 212 Q1058 382 1039.5 449 Q1021 516 969 559 Q925 596 857.5 611 Q790 626 672 626 L248 626 L248 0 L165 0 L165 1365 Z M248 1293 L248 698 L660 698 Q856 698 949 754 Q1080 832 1080 999 Q1080 1162 955 1240 Q870 1293 700 1293 L248 1293 Z M587 -382 Q656 -352 661 -247 L647 -249 L642 -249 Q612 -249 591.5 -229 Q571 -209 571 -180 Q571 -150 592 -127 Q613 -104 640 -104 Q720 -104 720 -224 Q720 -312 684.5 -368.5 Q649 -425 587 -437 L587 -382 Z " />
<glyph glyph-name="rcommaaccent" unicode="&#x157;" horiz-adv-x="606" d="M617 989 L617 911 Q597 912 588 912 Q418 912 318 779 Q271 716 254.5 642.5 Q238 569 238 425 L238 0 L159 0 L159 982 L237 982 L237 724 Q297 903 443 961 Q513 989 617 989 Z M137 -382 Q206 -352 211 -247 L197 -249 L191 -249 Q162 -249 141.5 -229 Q121 -209 121 -180 Q121 -150 142 -127 Q163 -104 190 -104 Q270 -104 270 -224 Q270 -312 234.5 -368.5 Q199 -425 137 -437 L137 -382 Z " />
<glyph glyph-name="Rcaron" unicode="&#x158;" horiz-adv-x="1305" d="M165 1365 L728 1365 Q912 1365 1011 1301 Q1163 1203 1163 1002 Q1163 868 1086.5 778.5 Q1010 689 872 662 Q1001 643 1062 577 Q1107 528 1121.5 467 Q1136 406 1144 227 Q1152 56 1176 18 L1187 0 L1095 0 Q1072 37 1065 212 Q1058 382 1039.5 449 Q1021 516 969 559 Q925 596 857.5 611 Q790 626 672 626 L248 626 L248 0 L165 0 L165 1365 Z M248 1293 L248 698 L660 698 Q856 698 949 754 Q1080 832 1080 999 Q1080 1162 955 1240 Q870 1293 700 1293 L248 1293 Z M309 1737 L394 1737 L608 1530 L822 1737 L900 1737 L647 1481 L563 1481 L309 1737 Z " />
<glyph glyph-name="rcaron" unicode="&#x159;" horiz-adv-x="606" d="M618 989 L618 911 Q598 912 589 912 Q418 912 318 779 Q271 716 254.5 643 Q238 570 238 425 L238 0 L159 0 L159 982 L237 982 L237 724 Q297 903 443 961 Q514 989 618 989 Z M108 1406 L191 1406 L375 1186 L559 1406 L635 1406 L412 1137 L332 1137 L108 1406 Z " />
<glyph glyph-name="Sacute" unicode="&#x15a;" horiz-adv-x="1204" d="M1077 978 L995 978 Q985 1120 917 1196 Q865 1257 773 1289.5 Q681 1322 565 1322 Q391 1322 291 1252 Q182 1176 182 1036 Q182 881 331 818 Q400 788 663 727 Q803 694 864.5 673.5 Q926 653 976 622 Q1112 537 1112 361 Q1112 178 976 74.5 Q840 -29 599 -29 Q396 -29 258 52 Q61 167 58 452 L138 452 Q140 284 222 184 Q278 117 377.5 80 Q477 43 603 43 Q823 43 931 137 Q1029 222 1029 356 Q1029 508 890 577 Q819 612 571 669 Q412 706 344.5 728.5 Q277 751 223 785 Q99 865 99 1035 Q99 1202 225 1298 Q351 1394 570 1394 Q856 1394 989 1234 Q1068 1140 1077 978 Z M834 1730 L554 1481 L479 1481 L731 1730 L834 1730 Z " />
<glyph glyph-name="sacute" unicode="&#x15b;" horiz-adv-x="920" d="M810 696 L732 696 Q724 786 692 836 Q622 944 432 944 Q315 944 248 901 Q163 848 163 747 Q163 686 196 651 Q228 616 282.5 595.5 Q337 575 475 544 Q651 504 726 461 Q841 396 841 261 Q841 195 809.5 137.5 Q778 80 723 43 Q616 -29 454 -29 Q261 -29 158 63 Q55 155 51 330 L128 330 Q133 215 176 155 Q259 38 455 38 Q596 38 676 97 Q763 160 763 258 Q763 340 698 385.5 Q633 431 460 471 Q257 517 194 552 Q85 611 85 742 Q85 891 216 964 Q301 1011 439 1011 Q644 1011 740 901 Q801 831 810 696 Z M675 1406 L422 1137 L353 1137 L578 1406 L675 1406 Z " />
<glyph glyph-name="Scircumflex" unicode="&#x15c;" horiz-adv-x="1204" d="M1077 978 L995 978 Q985 1120 917 1196 Q865 1257 773 1289.5 Q681 1322 565 1322 Q391 1322 291 1252 Q182 1176 182 1036 Q182 881 331 818 Q400 788 663 727 Q803 694 864.5 673.5 Q926 653 976 622 Q1112 537 1112 361 Q1112 178 976 74.5 Q840 -29 599 -29 Q396 -29 258 52 Q61 167 58 452 L138 452 Q140 284 222 184 Q278 117 377.5 80 Q477 43 603 43 Q823 43 931 137 Q1029 222 1029 356 Q1029 508 890 577 Q819 612 571 669 Q412 706 344.5 728.5 Q277 751 223 785 Q99 865 99 1035 Q99 1202 225 1298 Q351 1394 570 1394 Q856 1394 989 1234 Q1068 1140 1077 978 Z M884 1481 L798 1481 L585 1688 L371 1481 L293 1481 L546 1737 L630 1737 L884 1481 Z " />
<glyph glyph-name="scircumflex" unicode="&#x15d;" horiz-adv-x="920" d="M810 696 L732 696 Q724 786 692 836 Q622 944 432 944 Q315 944 248 901 Q163 848 163 747 Q163 686 196 651 Q228 616 282.5 595.5 Q337 575 475 544 Q651 504 726 461 Q841 396 841 261 Q841 195 809.5 137.5 Q778 80 723 43 Q616 -29 454 -29 Q261 -29 158 63 Q55 155 51 330 L128 330 Q133 215 176 155 Q259 38 455 38 Q596 38 676 97 Q763 160 763 258 Q763 340 698 385.5 Q633 431 460 471 Q257 517 194 552 Q85 611 85 742 Q85 891 216 964 Q301 1011 439 1011 Q644 1011 740 901 Q801 831 810 696 Z M702 1137 L619 1137 L435 1356 L252 1137 L176 1137 L398 1406 L479 1406 L702 1137 Z " />
<glyph glyph-name="Scedilla" unicode="&#x15e;" horiz-adv-x="1204" d="M603 -29 L540 -113 Q585 -104 610 -104 Q673 -104 714.5 -137.5 Q756 -171 756 -223 Q756 -290 700 -333 Q644 -376 557 -376 Q480 -376 380 -337 L401 -290 Q487 -325 552 -325 Q608 -325 644.5 -298 Q681 -271 681 -231 Q681 -197 651.5 -174.5 Q622 -152 577 -152 Q540 -152 485 -171 L454 -147 L546 -27 Q62 3 58 452 L138 452 Q140 284 222 185 Q278 117 377.5 80.5 Q477 44 603 44 Q823 44 931 138 Q1029 223 1029 357 Q1029 508 890 577 Q819 613 571 670 Q414 706 345.5 729 Q277 752 223 786 Q99 865 99 1036 Q99 1202 225 1298 Q351 1394 570 1394 Q856 1394 989 1234 Q1068 1140 1077 978 L995 978 Q985 1120 917 1196 Q865 1257 773 1289.5 Q681 1322 565 1322 Q391 1322 291 1252 Q182 1176 182 1036 Q182 881 331 818 Q400 789 663 727 Q803 695 865 674 Q927 653 976 622 Q1112 538 1112 361 Q1112 179 978.5 76.5 Q845 -26 603 -29 Z " />
<glyph glyph-name="scedilla" unicode="&#x15f;" horiz-adv-x="920" d="M458 -29 L395 -108 Q440 -100 468 -100 Q533 -100 574 -133 Q615 -166 615 -219 Q615 -288 560 -329.5 Q505 -371 413 -371 Q341 -371 237 -333 L258 -287 Q337 -321 406 -321 Q467 -321 503.5 -295.5 Q540 -270 540 -229 Q540 -193 510 -170.5 Q480 -148 432 -148 Q393 -148 340 -168 L312 -143 L405 -27 Q58 6 51 330 L128 330 Q133 215 176 155 Q259 38 455 38 Q596 38 676 97 Q763 160 763 258 Q763 340 698 385.5 Q633 431 460 471 Q257 517 194 552 Q85 611 85 742 Q85 891 216 964 Q301 1011 439 1011 Q644 1011 740 901 Q801 831 810 696 L732 696 Q724 786 692 836 Q622 944 432 944 Q315 944 248 901 Q163 848 163 747 Q163 686 196 651 Q228 617 282.5 596 Q337 575 475 544 Q651 504 726 461 Q841 396 841 261 Q841 132 736.5 53 Q632 -26 458 -29 Z " />
<glyph glyph-name="Scaron" unicode="&#x160;" horiz-adv-x="1204" d="M1077 978 L995 978 Q985 1120 917 1196 Q865 1257 773 1289.5 Q681 1322 565 1322 Q391 1322 291 1252 Q182 1176 182 1036 Q182 881 331 818 Q400 788 663 727 Q803 694 864.5 673.5 Q926 653 976 622 Q1112 537 1112 361 Q1112 178 976 74.5 Q840 -29 599 -29 Q396 -29 258 52 Q61 167 58 452 L138 452 Q140 284 222 184 Q278 117 377.5 80 Q477 43 603 43 Q823 43 931 137 Q1029 222 1029 356 Q1029 508 890 577 Q819 612 571 669 Q412 706 344.5 728.5 Q277 751 223 785 Q99 865 99 1035 Q99 1202 225 1298 Q351 1394 570 1394 Q856 1394 989 1234 Q1068 1140 1077 978 Z M279 1737 L365 1737 L578 1530 L792 1737 L870 1737 L617 1481 L533 1481 L279 1737 Z " />
<glyph glyph-name="scaron" unicode="&#x161;" horiz-adv-x="920" d="M810 696 L732 696 Q724 786 692 836 Q622 944 432 944 Q315 944 248 901 Q163 848 163 747 Q163 686 196 651 Q228 616 282.5 595.5 Q337 575 475 544 Q651 504 726 461 Q841 396 841 261 Q841 195 809.5 137.5 Q778 80 723 43 Q616 -29 454 -29 Q261 -29 158 63 Q55 155 51 330 L128 330 Q133 215 176 155 Q259 38 455 38 Q596 38 676 97 Q763 160 763 258 Q763 340 698 385.5 Q633 431 460 471 Q257 517 194 552 Q85 611 85 742 Q85 891 216 964 Q301 1011 439 1011 Q644 1011 740 901 Q801 831 810 696 Z M176 1406 L259 1406 L443 1186 L626 1406 L702 1406 L480 1137 L399 1137 L176 1406 Z " />
<glyph glyph-name="Tcommaaccent" unicode="&#x162;" horiz-adv-x="1106" d="M1078 1365 L1078 1293 L594 1293 L594 0 L511 0 L511 1293 L28 1293 L28 1365 L1078 1365 Z M495 -382 Q565 -352 569 -247 L555 -249 L550 -249 Q520 -249 499.5 -229 Q479 -209 479 -180 Q479 -150 500 -127 Q521 -104 548 -104 Q628 -104 628 -224 Q628 -312 592.5 -368.5 Q557 -425 495 -437 L495 -382 Z " />
<glyph glyph-name="tcommaaccent" unicode="&#x163;" horiz-adv-x="513" d="M452 982 L452 915 L241 915 L241 249 Q241 146 257 114 Q284 62 369 62 Q403 62 452 72 L452 2 Q400 -5 359 -5 Q229 -5 187 70 Q172 97 167.5 135.5 Q163 174 163 280 L163 915 L-16 915 L-16 982 L163 982 L163 1289 L241 1289 L241 982 L452 982 Z M241 -382 Q311 -352 315 -247 L302 -249 L296 -249 Q266 -249 246 -229 Q226 -209 226 -180 Q226 -150 246.5 -127 Q267 -104 295 -104 Q374 -104 374 -224 Q374 -312 338.5 -368.5 Q303 -425 241 -437 L241 -382 Z " />
<glyph glyph-name="Tcaron" unicode="&#x164;" horiz-adv-x="1106" d="M1078 1365 L1078 1293 L594 1293 L594 0 L511 0 L511 1293 L28 1293 L28 1365 L1078 1365 Z M258 1737 L343 1737 L557 1530 L770 1737 L848 1737 L596 1481 L511 1481 L258 1737 Z " />
<glyph glyph-name="tcaron" unicode="&#x165;" horiz-adv-x="613" d="M452 977 L452 910 L241 910 L241 245 Q241 140 257 109 Q284 56 369 56 Q403 56 452 67 L452 -3 Q399 -10 359 -10 Q229 -10 187 65 Q172 92 167.5 130.5 Q163 169 163 275 L163 910 L-16 910 L-16 977 L163 977 L163 1284 L241 1284 L241 977 L452 977 Z M399 1187 Q469 1217 473 1322 L460 1320 L454 1320 Q424 1320 404 1339.5 Q384 1359 384 1389 Q384 1419 405 1442 Q426 1465 453 1465 Q533 1465 533 1345 Q533 1258 497.5 1201 Q462 1144 399 1132 L399 1187 Z " />
<glyph glyph-name="Tbar" unicode="&#x166;" horiz-adv-x="1106" d="M1078 1365 L1078 1293 L594 1293 L594 892 L909 892 L909 820 L594 820 L594 0 L511 0 L511 820 L197 820 L197 892 L511 892 L511 1293 L28 1293 L28 1365 L1078 1365 Z " />
<glyph glyph-name="tbar" unicode="&#x167;" horiz-adv-x="513" d="M452 982 L452 915 L241 915 L241 724 L431 724 L431 657 L241 657 L241 250 Q241 145 257 114 Q284 62 369 62 Q403 62 452 72 L452 2 Q400 -5 359 -5 Q229 -5 187 70 Q172 97 167.5 135.5 Q163 174 163 280 L163 657 L4 657 L4 724 L163 724 L163 915 L-16 915 L-16 982 L163 982 L163 1289 L241 1289 L241 982 L452 982 Z " />
<glyph glyph-name="Utilde" unicode="&#x168;" horiz-adv-x="1357" d="M1206 1365 L1206 530 Q1206 300 1125 174 Q992 -31 688 -31 Q350 -31 219 197 Q151 315 151 535 L151 1365 L234 1365 L234 530 Q234 411 252 336 Q270 261 314 200 Q427 41 688 41 Q938 41 1047 200 Q1123 311 1123 532 L1123 1365 L1206 1365 Z M958 1690 Q926 1525 811 1525 Q757 1525 681 1571 Q616 1610 596.5 1618.5 Q577 1627 552 1627 Q478 1627 454 1522 L399 1522 Q409 1576 430 1612 Q474 1690 555 1690 Q606 1690 683 1643 Q770 1590 811 1590 Q877 1590 902 1690 L958 1690 Z " />
<glyph glyph-name="utilde" unicode="&#x169;" horiz-adv-x="1082" d="M926 982 L926 0 L851 0 L851 208 Q743 -29 499 -29 Q331 -29 241.5 68.5 Q152 166 152 350 L152 982 L230 982 L230 396 Q230 247 262 178 Q291 114 354 78 Q426 36 515 36 Q678 36 772 168 Q848 276 848 449 L848 982 L926 982 Z M792 1349 Q784 1274 748 1228.5 Q712 1183 661 1183 Q612 1183 544 1229 Q486 1268 468 1276.5 Q450 1285 428 1285 Q395 1285 373 1257 Q351 1229 346 1181 L290 1181 Q297 1234 317 1270 Q358 1348 431 1348 Q476 1348 546 1301 Q625 1247 660 1247 Q688 1247 709 1274.5 Q730 1302 737 1349 L792 1349 Z " />
<glyph glyph-name="Umacron" unicode="&#x16a;" horiz-adv-x="1357" d="M1206 1365 L1206 530 Q1206 300 1125 174 Q992 -31 688 -31 Q350 -31 219 197 Q151 315 151 535 L151 1365 L234 1365 L234 530 Q234 411 252 336 Q270 261 314 200 Q427 41 688 41 Q938 41 1047 200 Q1123 311 1123 532 L1123 1365 L1206 1365 Z M968 1633 L968 1569 L390 1569 L390 1633 L968 1633 Z " />
<glyph glyph-name="umacron" unicode="&#x16b;" horiz-adv-x="1082" d="M926 982 L926 0 L851 0 L851 208 Q743 -29 499 -29 Q331 -29 241.5 68.5 Q152 166 152 350 L152 982 L230 982 L230 396 Q230 247 262 178 Q291 114 354 78 Q426 36 515 36 Q678 36 772 168 Q848 276 848 449 L848 982 L926 982 Z M799 1293 L799 1233 L283 1233 L283 1293 L799 1293 Z " />
<glyph glyph-name="Ubreve" unicode="&#x16c;" horiz-adv-x="1357" d="M1206 1365 L1206 530 Q1206 300 1125 174 Q992 -31 688 -31 Q350 -31 219 197 Q151 315 151 535 L151 1365 L234 1365 L234 530 Q234 411 252 336 Q270 261 314 200 Q427 41 688 41 Q938 41 1047 200 Q1123 311 1123 532 L1123 1365 L1206 1365 Z M948 1723 Q937 1650 904 1604 Q828 1495 677 1495 Q566 1495 492.5 1557.5 Q419 1620 409 1723 L472 1723 Q483 1666 511 1632 Q569 1558 680 1558 Q850 1558 886 1723 L948 1723 Z " />
<glyph glyph-name="ubreve" unicode="&#x16d;" horiz-adv-x="1082" d="M926 982 L926 0 L851 0 L851 208 Q743 -29 499 -29 Q331 -29 241.5 68.5 Q152 166 152 350 L152 982 L230 982 L230 396 Q230 247 262 178 Q291 114 354 78 Q426 36 515 36 Q678 36 772 168 Q848 276 848 449 L848 982 L926 982 Z M787 1381 Q776 1308 747 1262 Q677 1153 540 1153 Q438 1153 370.5 1215.5 Q303 1278 295 1381 L353 1381 Q364 1325 388 1291 Q442 1216 543 1216 Q697 1216 729 1381 L787 1381 Z " />
<glyph glyph-name="Uring" unicode="&#x16e;" horiz-adv-x="1357" d="M1206 1365 L1206 530 Q1206 300 1125 174 Q992 -31 688 -31 Q350 -31 219 197 Q151 315 151 535 L151 1365 L234 1365 L234 530 Q234 411 252 336 Q270 261 314 200 Q427 41 688 41 Q938 41 1047 200 Q1123 311 1123 532 L1123 1365 L1206 1365 Z M682 1835 Q760 1835 816.5 1778 Q873 1721 873 1641 Q873 1560 816 1504 Q760 1447 679 1447 Q599 1447 542 1504 Q485 1561 485 1641 Q485 1722 542 1778.5 Q599 1835 682 1835 Z M681 1782 Q621 1782 579.5 1741 Q538 1700 538 1641 Q538 1583 579.5 1541.5 Q621 1500 679 1500 Q737 1500 778.5 1541 Q820 1582 820 1641 Q820 1699 779 1740.5 Q738 1782 681 1782 Z " />
<glyph glyph-name="uring" unicode="&#x16f;" horiz-adv-x="1082" d="M926 982 L926 0 L851 0 L851 208 Q743 -29 499 -29 Q331 -29 241.5 68.5 Q152 166 152 350 L152 982 L230 982 L230 396 Q230 247 262 178 Q291 114 354 78 Q426 36 515 36 Q678 36 772 168 Q848 276 848 449 L848 982 L926 982 Z M544 1459 Q615 1459 665.5 1407.5 Q716 1356 716 1284 Q716 1212 665 1161 Q614 1110 542 1110 Q470 1110 418.5 1161.5 Q367 1213 367 1284 Q367 1358 418.5 1408.5 Q470 1459 544 1459 Z M544 1410 Q490 1410 453 1373.5 Q416 1337 416 1284 Q416 1232 453 1195.5 Q490 1159 542 1159 Q594 1159 631 1195.5 Q668 1232 668 1284 Q668 1336 631.5 1373 Q595 1410 544 1410 Z " />
<glyph glyph-name="Uhungarumlaut" unicode="&#x170;" horiz-adv-x="1357" d="M1206 1365 L1206 530 Q1206 300 1125 174 Q992 -31 688 -31 Q350 -31 219 197 Q151 315 151 535 L151 1365 L234 1365 L234 530 Q234 411 252 336 Q270 261 314 200 Q427 41 688 41 Q938 41 1047 200 Q1123 311 1123 532 L1123 1365 L1206 1365 Z M771 1730 L559 1481 L491 1481 L675 1730 L771 1730 Z M1058 1730 L846 1481 L777 1481 L961 1730 L1058 1730 Z " />
<glyph glyph-name="uhungarumlaut" unicode="&#x171;" horiz-adv-x="1082" d="M926 982 L926 0 L851 0 L851 208 Q743 -29 499 -29 Q331 -29 241.5 68.5 Q152 166 152 350 L152 982 L230 982 L230 396 Q230 247 262 178 Q291 114 354 78 Q426 36 515 36 Q678 36 772 168 Q848 276 848 449 L848 982 L926 982 Z M857 1406 L673 1137 L614 1137 L771 1406 L857 1406 Z M625 1406 L440 1137 L382 1137 L539 1406 L625 1406 Z " />
<glyph glyph-name="Uogonek" unicode="&#x172;" horiz-adv-x="1357" d="M151 1365 L234 1365 L234 530 Q234 411 252 336 Q270 261 314 200 Q427 41 688 41 Q938 41 1047 200 Q1123 311 1123 532 L1123 1365 L1206 1365 L1206 530 Q1206 352 1163 247 Q1098 99 954 22 Q821 -54 821 -156 Q821 -205 861 -236 Q901 -267 964 -267 Q1002 -267 1057 -249 L1058 -307 Q996 -327 948 -327 Q856 -327 802 -279 Q754 -235 754 -167 Q754 -89 831 -18 Q754 -31 685 -31 Q350 -31 219 197 Q151 315 151 535 L151 1365 Z " />
<glyph glyph-name="uogonek" unicode="&#x173;" horiz-adv-x="1082" d="M152 982 L230 982 L230 396 Q230 247 262 178 Q291 114 354 78 Q426 36 515 36 Q678 36 772 168 Q848 276 848 449 L848 982 L926 982 L926 0 Q811 -87 811 -170 Q811 -219 851 -250 Q891 -281 954 -281 Q992 -281 1047 -263 L1048 -321 Q986 -341 938 -341 Q846 -341 792 -292 Q744 -249 744 -178 Q744 -85 851 0 L851 208 Q743 -29 499 -29 Q331 -29 241.5 68.5 Q152 166 152 350 L152 982 Z " />
<glyph glyph-name="Wcircumflex" unicode="&#x174;" horiz-adv-x="1796" d="M1762 1365 L1371 0 L1277 0 L956 1077 Q947 1106 923 1197 Q906 1256 899 1289 Q891 1257 874 1195 L859 1140 L840 1075 L526 0 L432 0 L35 1365 L124 1365 L425 318 Q429 305 442 253 Q447 233 458 193 Q472 139 482 89 Q491 135 507 193 L540 314 L849 1365 L951 1365 L1267 305 Q1278 269 1302 179 Q1316 125 1324 89 Q1343 174 1360 239 L1378 305 L1679 1365 L1762 1365 Z M1194 1481 L1109 1481 L895 1688 L681 1481 L603 1481 L856 1737 L940 1737 L1194 1481 Z " />
<glyph glyph-name="wcircumflex" unicode="&#x175;" horiz-adv-x="1403" d="M1382 982 L1065 0 L977 0 L744 746 Q725 807 703 892 Q678 797 663 748 L430 0 L338 0 L22 982 L105 982 L333 264 Q351 207 384 84 Q429 256 434 269 L656 982 L752 982 L975 265 Q992 209 1024 86 Q1055 207 1072 261 L1302 982 L1382 982 Z M965 1137 L882 1137 L698 1356 L514 1137 L438 1137 L661 1406 L742 1406 L965 1137 Z " />
<glyph glyph-name="Ycircumflex" unicode="&#x176;" horiz-adv-x="1173" d="M1180 1365 L628 570 L628 0 L545 0 L545 570 L-5 1365 L94 1365 L528 736 Q554 699 589 641 Q627 704 647 732 L1086 1365 L1180 1365 Z M883 1481 L798 1481 L584 1688 L370 1481 L292 1481 L545 1737 L629 1737 L883 1481 Z " />
<glyph glyph-name="ycircumflex" unicode="&#x177;" horiz-adv-x="894" d="M884 982 L462 -102 Q400 -261 353 -303 Q297 -353 192 -353 Q168 -353 146 -352 L118 -350 L118 -280 Q157 -286 182 -286 Q268 -286 311 -240 Q331 -219 342.5 -196.5 Q354 -174 398 -66 Q426 -6 426 0 Q426 4 424 8 L10 982 L98 982 L422 212 Q429 194 466 89 Q495 180 511 222 L803 982 L884 982 Z M711 1137 L627 1137 L444 1356 L260 1137 L184 1137 L406 1406 L487 1406 L711 1137 Z " />
<glyph glyph-name="Ydieresis" unicode="&#x178;" horiz-adv-x="1173" d="M1180 1365 L628 570 L628 0 L545 0 L545 570 L-5 1365 L94 1365 L528 736 Q554 699 589 641 Q627 704 647 732 L1086 1365 L1180 1365 Z M787 1686 Q815 1686 835 1665 Q855 1644 855 1614 Q855 1584 834.5 1562.5 Q814 1541 786 1541 Q758 1541 737.5 1562.5 Q717 1584 717 1614 Q717 1644 737.5 1665 Q758 1686 787 1686 Z M391 1686 Q419 1686 439 1664.5 Q459 1643 459 1614 Q459 1584 438.5 1562.5 Q418 1541 390 1541 Q362 1541 341.5 1562.5 Q321 1584 321 1614 Q321 1644 341.5 1665 Q362 1686 391 1686 Z " />
<glyph glyph-name="Zacute" unicode="&#x179;" horiz-adv-x="1150" d="M1080 1365 L1080 1285 L207 144 Q172 99 151 70 Q269 72 294 72 L1098 72 L1098 0 L60 0 L60 83 L938 1229 Q972 1271 989 1294 Q911 1293 870 1293 L119 1293 L119 1365 L1080 1365 Z M848 1730 L567 1481 L492 1481 L745 1730 L848 1730 Z " />
<glyph glyph-name="zacute" unicode="&#x17a;" horiz-adv-x="850" d="M800 982 L800 918 L191 136 L136 67 Q195 67 219 67 L830 67 L830 0 L48 0 L48 73 L653 848 Q661 859 709 915 Q686 915 642 915 L97 915 L97 982 L800 982 Z M682 1406 L429 1137 L359 1137 L584 1406 L682 1406 Z " />
<glyph glyph-name="Zdotaccent" unicode="&#x17b;" horiz-adv-x="1150" d="M1080 1365 L1080 1285 L207 144 Q172 99 151 70 Q269 72 294 72 L1098 72 L1098 0 L60 0 L60 83 L938 1229 Q972 1271 989 1294 Q911 1293 870 1293 L119 1293 L119 1365 L1080 1365 Z M600 1686 Q628 1686 648 1664.5 Q668 1643 668 1614 Q668 1584 647.5 1562.5 Q627 1541 599 1541 Q571 1541 550.5 1562.5 Q530 1584 530 1614 Q530 1644 550.5 1665 Q571 1686 600 1686 Z " />
<glyph glyph-name="zdotaccent" unicode="&#x17c;" horiz-adv-x="850" d="M800 982 L800 918 L191 136 L136 67 Q195 67 219 67 L830 67 L830 0 L48 0 L48 73 L653 848 Q661 859 709 915 Q686 915 642 915 L97 915 L97 982 L800 982 Z M452 1346 Q480 1346 500 1324.5 Q520 1303 520 1274 Q520 1244 499.5 1222.5 Q479 1201 451 1201 Q423 1201 402.5 1222.5 Q382 1244 382 1274 Q382 1304 402.5 1325 Q423 1346 452 1346 Z " />
<glyph glyph-name="Zcaron" unicode="&#x17d;" horiz-adv-x="1150" d="M1080 1365 L1080 1285 L207 144 Q172 99 151 70 Q269 72 294 72 L1098 72 L1098 0 L60 0 L60 83 L938 1229 Q972 1271 989 1294 Q911 1293 870 1293 L119 1293 L119 1365 L1080 1365 Z M306 1737 L392 1737 L605 1530 L819 1737 L897 1737 L644 1481 L560 1481 L306 1737 Z " />
<glyph glyph-name="zcaron" unicode="&#x17e;" horiz-adv-x="850" d="M800 982 L800 918 L191 136 L136 67 Q195 67 219 67 L830 67 L830 0 L48 0 L48 73 L653 848 Q661 859 709 915 Q686 915 642 915 L97 915 L97 982 L800 982 Z M189 1406 L272 1406 L456 1186 L640 1406 L716 1406 L493 1137 L413 1137 L189 1406 Z " />
<glyph glyph-name="longs" unicode="&#x17f;" horiz-adv-x="508" d="M482 1366 L482 1297 Q438 1306 405 1306 Q308 1306 273 1248 Q258 1224 254 1190 Q250 1156 250 1065 L250 0 L172 0 L172 915 L3 915 L3 982 L172 982 L172 1084 Q172 1222 200 1273 Q253 1372 399 1372 Q433 1372 482 1366 Z " />
<glyph glyph-name="uni018F" unicode="&#x18f;" horiz-adv-x="1494" d="M104 741 L1312 740 Q1297 931 1217 1062 Q1139 1190 1013 1259 Q894 1324 748 1324 Q605 1324 498 1267.5 Q391 1211 287 1080 L223 1130 Q312 1242 402 1299 Q554 1396 747 1396 Q1036 1396 1220 1192 Q1398 994 1398 677 Q1398 390 1250 202 Q1067 -31 746 -31 Q496 -31 328 115 Q102 313 104 741 Z M183 673 Q194 461 263 331 Q340 185 477 108 Q597 41 746 41 Q999 41 1157.5 217 Q1316 393 1315 673 L183 673 Z " />
<glyph glyph-name="florin" unicode="&#x192;" horiz-adv-x="1147" d="M896 933 L885 869 L655 869 L506 21 Q470 -181 408 -265 Q341 -354 215 -354 Q170 -354 117 -344 L129 -273 Q178 -282 213 -282 Q307 -282 354 -204 Q396 -136 431 64 L573 869 L362 869 L374 933 L585 933 L622 1148 Q654 1328 707 1393 Q778 1481 915 1481 Q967 1481 1031 1469 L1017 1400 Q963 1413 918 1413 Q816 1413 765 1341 Q746 1315 732.5 1273 Q719 1231 706 1155 L667 933 L896 933 Z " />
<glyph glyph-name="uni01C4" unicode="&#x1c4;" horiz-adv-x="2296" d="M1449 1737 L1535 1737 L1748 1530 L1962 1737 L2040 1737 L1788 1481 L1703 1481 L1449 1737 Z M170 1365 L631 1365 Q774 1365 876 1331 Q978 1297 1058 1223 Q1152 1137 1202.5 1003 Q1253 869 1253 705 Q1253 345 1061 154 Q979 72 878.5 36 Q778 0 631 0 L170 0 L170 1365 Z M253 1293 L253 72 L604 72 Q749 72 838 100.5 Q927 129 998 197 Q1170 365 1170 697 Q1170 996 1015 1155 Q944 1228 852 1260.5 Q760 1293 626 1293 L253 1293 Z M2227 1365 L2227 1285 L1353 144 Q1318 99 1297 70 Q1415 72 1440 72 L2244 72 L2244 0 L1207 0 L1207 83 L2084 1229 Q2119 1271 2136 1294 Q2058 1293 2016 1293 L1265 1293 L1265 1365 L2227 1365 Z " />
<glyph glyph-name="uni01C5" unicode="&#x1c5;" horiz-adv-x="2087" d="M167 1365 L628 1365 Q771 1365 873 1331 Q975 1297 1055 1223 Q1149 1137 1199.5 1003 Q1250 869 1250 705 Q1250 345 1058 154 Q976 72 875.5 36 Q775 0 628 0 L167 0 L167 1365 Z M250 1293 L250 72 L601 72 Q746 72 835 100.5 Q924 129 995 197 Q1167 365 1167 697 Q1167 996 1012 1155 Q941 1228 849 1260.5 Q757 1293 623 1293 L250 1293 Z M2037 982 L2037 918 L1428 136 L1373 67 Q1432 67 1456 67 L2066 67 L2066 0 L1285 0 L1285 73 L1890 848 Q1898 859 1946 915 Q1923 915 1879 915 L1334 915 L1334 982 L2037 982 Z M1426 1406 L1509 1406 L1693 1186 L1877 1406 L1953 1406 L1730 1137 L1649 1137 L1426 1406 Z " />
<glyph glyph-name="uni01C6" unicode="&#x1c6;" horiz-adv-x="1890" d="M1289 1406 L1373 1406 L1556 1186 L1740 1406 L1816 1406 L1593 1137 L1513 1137 L1289 1406 Z M1840 982 L1840 918 L1231 136 L1176 67 Q1235 67 1259 67 L1870 67 L1870 0 L1088 0 L1088 73 L1693 848 Q1701 859 1749 915 Q1726 915 1682 915 L1137 915 L1137 982 L1840 982 Z M976 1365 L976 0 L901 0 L901 239 Q879 161 828 99 Q720 -29 528 -29 Q307 -29 189 134 Q89 272 89 486 Q89 734 214 875 Q335 1011 527 1011 Q663 1011 753.5 949 Q844 887 899 756 L899 1365 L976 1365 Z M538 944 Q368 944 270 826 Q167 703 167 487 Q167 306 245 186 Q340 38 531 38 Q702 38 801 159 Q900 280 900 491 Q900 695 808 812 Q703 944 538 944 Z " />
<glyph glyph-name="uni01C7" unicode="&#x1c7;" horiz-adv-x="1997" d="M1029 72 L1029 0 L166 0 L166 1365 L249 1365 L249 72 L1029 72 Z M1845 1365 L1845 371 Q1845 190 1776 99 Q1677 -32 1467 -32 Q1270 -32 1178 68 Q1086 168 1086 381 Q1086 397 1087 433 L1167 433 Q1166 402 1166 387 Q1166 239 1202 171 Q1272 40 1468 40 Q1633 40 1709 141 Q1762 212 1762 376 L1762 1365 L1845 1365 Z " />
<glyph glyph-name="uni01C8" unicode="&#x1c8;" horiz-adv-x="1409" d="M1029 72 L1029 0 L166 0 L166 1365 L249 1365 L249 72 L1029 72 Z M1251 982 L1251 -103 Q1251 -186 1239 -232 Q1227 -278 1197 -307 Q1145 -359 1026 -359 Q1003 -359 981 -356 L981 -289 Q1010 -290 1020 -290 Q1076 -290 1101 -281.5 Q1126 -273 1143 -248 Q1173 -204 1173 -109 L1173 982 L1251 982 Z M1213 1345 Q1241 1345 1261 1323.5 Q1281 1302 1281 1273 Q1281 1243 1260.5 1221.5 Q1240 1200 1212 1200 Q1184 1200 1163.5 1221.5 Q1143 1243 1143 1273 Q1143 1303 1163.5 1324 Q1184 1345 1213 1345 Z " />
<glyph glyph-name="uni01C9" unicode="&#x1c9;" horiz-adv-x="619" d="M462 982 L462 -103 Q462 -186 450 -232 Q438 -278 408 -307 Q356 -359 237 -359 Q214 -359 192 -356 L192 -289 Q221 -290 231 -290 Q287 -290 312 -281.5 Q337 -273 354 -248 Q384 -204 384 -109 L384 982 L462 982 Z M424 1345 Q452 1345 472 1323.5 Q492 1302 492 1273 Q492 1243 471.5 1221.5 Q451 1200 423 1200 Q395 1200 374.5 1221.5 Q354 1243 354 1273 Q354 1303 374.5 1324 Q395 1345 424 1345 Z M236 1365 L236 0 L158 0 L158 1365 L236 1365 Z " />
<glyph glyph-name="uni01CA" unicode="&#x1ca;" horiz-adv-x="2234" d="M1224 1365 L1224 0 L1128 0 L362 1081 Q302 1166 244 1269 Q247 1222 248 1126 L249 1060 L249 0 L166 0 L166 1365 L264 1365 L1014 303 Q1073 220 1147 98 Q1141 214 1141 359 L1141 1365 L1224 1365 Z M2082 1365 L2082 371 Q2082 190 2013 99 Q1914 -32 1704 -32 Q1507 -32 1415 67.5 Q1323 167 1323 381 Q1323 404 1324 433 L1404 433 Q1403 402 1403 387 Q1403 239 1439 171 Q1509 40 1705 40 Q1870 40 1946 141 Q1999 212 1999 376 L1999 1365 L2082 1365 Z " />
<glyph glyph-name="uni01CB" unicode="&#x1cb;" horiz-adv-x="1595" d="M1231 1365 L1231 0 L1135 0 L369 1081 Q309 1166 251 1269 Q254 1222 255 1126 L256 1060 L256 0 L173 0 L173 1365 L271 1365 L1021 303 Q1080 220 1154 98 Q1148 214 1148 359 L1148 1365 L1231 1365 Z M1438 982 L1438 -103 Q1438 -186 1426 -232 Q1414 -278 1384 -307 Q1332 -359 1213 -359 Q1190 -359 1168 -356 L1168 -289 Q1197 -290 1207 -290 Q1263 -290 1288 -281.5 Q1313 -273 1330 -248 Q1360 -204 1360 -109 L1360 982 L1438 982 Z M1400 1345 Q1428 1345 1448 1323.5 Q1468 1302 1468 1273 Q1468 1243 1447.5 1221.5 Q1427 1200 1399 1200 Q1371 1200 1350.5 1221.5 Q1330 1243 1330 1273 Q1330 1303 1350.5 1324 Q1371 1345 1400 1345 Z " />
<glyph glyph-name="uni01CC" unicode="&#x1cc;" horiz-adv-x="1321" d="M1163 982 L1163 -103 Q1163 -186 1151 -232 Q1139 -278 1109 -307 Q1057 -359 938 -359 Q915 -359 893 -356 L893 -289 Q922 -290 932 -290 Q988 -290 1013 -281.5 Q1038 -273 1055 -248 Q1085 -204 1085 -109 L1085 982 L1163 982 Z M1125 1345 Q1153 1345 1173 1323.5 Q1193 1302 1193 1273 Q1193 1243 1172.5 1221.5 Q1152 1200 1124 1200 Q1096 1200 1075.5 1221.5 Q1055 1243 1055 1273 Q1055 1303 1075.5 1324 Q1096 1345 1125 1345 Z M244 982 L244 769 Q339 1011 603 1011 Q788 1011 884 886 Q921 838 934.5 783 Q948 728 948 628 L948 0 L870 0 L870 608 Q870 743 840 807 Q809 870 741.5 907 Q674 944 588 944 Q448 944 356 857 Q296 801 270.5 721 Q245 641 245 511 L245 0 L166 0 L166 982 L244 982 Z " />
<glyph glyph-name="uni01CD" unicode="&#x1cd;" horiz-adv-x="1230" d="M665 1367 L1208 0 L1116 0 L945 438 L286 438 L112 0 L23 0 L576 1367 L665 1367 Z M918 510 L669 1143 Q644 1207 619 1286 L607 1253 Q576 1170 568 1149 L313 510 L918 510 Z M320 1737 L405 1737 L619 1530 L833 1737 L911 1737 L658 1481 L574 1481 L320 1737 Z " />
<glyph glyph-name="uni01CE" unicode="&#x1ce;" horiz-adv-x="1005" d="M239 1406 L322 1406 L506 1186 L690 1406 L766 1406 L543 1137 L462 1137 L239 1406 Z M970 74 L970 6 Q933 2 912 2 Q840 2 812 35.5 Q784 69 784 155 L784 179 L776 179 Q733 114 700.5 81 Q668 48 621 22 Q527 -28 396 -28 Q239 -28 152.5 45 Q66 118 66 251 Q66 405 179 468 Q242 504 302.5 517 Q363 530 592 559 Q686 571 721 593 Q772 627 772 713 Q772 831 701.5 888 Q631 945 486 945 Q360 945 281 884 Q243 854 224.5 815.5 Q206 777 197 707 L111 707 Q122 790 145 837 Q233 1011 504 1011 Q858 1011 858 702 L858 135 Q858 68 923 68 Q948 68 970 74 Z M775 558 Q760 534 727.5 524 Q695 514 580 498 Q390 473 313 447 Q152 393 152 255 Q152 157 218 98 Q284 39 394 39 Q545 39 654 126 Q778 224 778 375 L778 558 L775 558 Z " />
<glyph glyph-name="uni01D1" unicode="&#x1d1;" horiz-adv-x="1494" d="M753 1396 Q939 1396 1095 1296 Q1256 1191 1332 1011 Q1395 861 1395 674 Q1395 390 1247 202 Q1063 -31 743 -31 Q428 -31 247 201 Q98 392 98 680 Q98 1002 273 1192 Q459 1396 753 1396 Z M754 1324 Q499 1324 336 1143 Q181 969 181 684 Q181 418 316 245 Q475 41 744 41 Q1006 41 1167 231 Q1312 402 1312 675 Q1312 963 1158 1140 Q997 1324 754 1324 Z M484 1737 L569 1737 L783 1530 L996 1737 L1074 1737 L822 1481 L737 1481 L484 1737 Z " />
<glyph glyph-name="uni01D2" unicode="&#x1d2;" horiz-adv-x="1087" d="M552 1011 Q765 1011 891 848 Q998 709 998 485 Q998 253 879 116 Q754 -29 544 -29 Q326 -29 201 126 Q89 266 89 489 Q89 709 200 850 Q327 1011 552 1011 Z M550 944 Q375 944 268 816 Q167 694 167 490 Q167 286 265 166 Q370 38 546 38 Q721 38 822 164 Q920 286 920 485 Q920 680 829 805 Q778 875 698 911 Q626 944 550 944 Z M280 1406 L364 1406 L547 1186 L731 1406 L807 1406 L584 1137 L504 1137 L280 1406 Z " />
<glyph glyph-name="uni01D3" unicode="&#x1d3;" horiz-adv-x="1357" d="M1206 1365 L1206 530 Q1206 300 1125 174 Q992 -31 688 -31 Q350 -31 219 197 Q151 315 151 535 L151 1365 L234 1365 L234 530 Q234 411 252 336 Q270 261 314 200 Q427 41 688 41 Q938 41 1047 200 Q1123 311 1123 532 L1123 1365 L1206 1365 Z M383 1737 L469 1737 L682 1530 L896 1737 L974 1737 L721 1481 L637 1481 L383 1737 Z " />
<glyph glyph-name="uni01D4" unicode="&#x1d4;" horiz-adv-x="1082" d="M926 982 L926 0 L851 0 L851 208 Q743 -29 499 -29 Q331 -29 241.5 68.5 Q152 166 152 350 L152 982 L230 982 L230 396 Q230 247 262 178 Q291 114 354 78 Q426 36 515 36 Q678 36 772 168 Q848 276 848 449 L848 982 L926 982 Z M278 1406 L361 1406 L545 1186 L728 1406 L804 1406 L582 1137 L501 1137 L278 1406 Z " />
<glyph glyph-name="uni01DD" unicode="&#x1dd;" horiz-adv-x="1044" d="M100 646 Q118 750 163 822 Q282 1011 518 1011 Q733 1011 855 858 Q966 717 966 499 Q966 257 836 111 Q711 -29 519 -29 Q366 -29 257 62 Q133 165 100 344 Q89 408 89 503 L885 503 Q884 618 857 697 Q819 807 739 871 Q649 944 517 944 Q350 944 252 821 Q198 754 176 646 L100 646 Z M168 436 Q175 289 233 196 Q280 121 355 79.5 Q430 38 519 38 Q651 38 749 122 Q863 220 885 436 L168 436 Z " />
<glyph glyph-name="Gcaron" unicode="&#x1e6;" horiz-adv-x="1475" d="M1336 668 L1336 0 L1276 0 L1267 332 Q1230 217 1156 137 Q1001 -31 742 -31 Q541 -31 387 68 Q250 157 174 314 Q98 471 98 668 Q98 827 146 966 Q194 1105 283 1203 Q458 1396 743 1396 Q1011 1396 1178 1217 Q1287 1101 1313 943 L1234 943 Q1199 1114 1064 1219 Q929 1324 743 1324 Q462 1324 303 1103 Q181 933 181 667 Q181 405 315 239 Q474 41 744 41 Q933 41 1068 143 Q1163 214 1213 324 Q1263 434 1263 571 Q1263 579 1263 596 L759 596 L759 668 L1336 668 Z M442 1737 L527 1737 L741 1530 L954 1737 L1033 1737 L780 1481 L695 1481 L442 1737 Z " />
<glyph glyph-name="gcaron" unicode="&#x1e7;" horiz-adv-x="1109" d="M952 983 L952 79 Q952 -105 896 -202 Q796 -374 524 -374 Q347 -374 246.5 -296 Q146 -218 135 -72 L213 -72 Q225 -164 268 -213 Q349 -307 524 -307 Q709 -307 791.5 -216.5 Q874 -126 874 77 L874 283 Q845 214 816 176 Q707 34 506 34 Q303 34 187 184 Q89 309 89 512 Q89 738 203 872 Q322 1012 520 1012 Q646 1012 738.5 946 Q831 880 877 757 L877 983 L952 983 Z M526 945 Q341 945 244 804 Q167 692 167 523 Q167 328 261 213 Q353 101 514 101 Q693 101 796 240 Q873 346 873 522 Q873 732 765 845 Q711 900 637 925 Q578 945 526 945 Z M264 1406 L347 1406 L531 1186 L715 1406 L791 1406 L568 1137 L488 1137 L264 1406 Z " />
<glyph glyph-name="uni01F4" unicode="&#x1f4;" horiz-adv-x="1475" d="M1336 668 L1336 0 L1276 0 L1267 332 Q1230 217 1156 137 Q1001 -31 742 -31 Q541 -31 387 68 Q250 157 174 314 Q98 471 98 668 Q98 827 146 966 Q194 1105 283 1203 Q458 1396 743 1396 Q1011 1396 1178 1217 Q1287 1101 1313 943 L1234 943 Q1199 1114 1064 1219 Q929 1324 743 1324 Q462 1324 303 1103 Q181 933 181 667 Q181 405 315 239 Q474 41 744 41 Q933 41 1068 143 Q1163 214 1213 324 Q1263 434 1263 571 Q1263 579 1263 596 L759 596 L759 668 L1336 668 Z M997 1730 L716 1481 L641 1481 L894 1730 L997 1730 Z " />
<glyph glyph-name="uni01F5" unicode="&#x1f5;" horiz-adv-x="1109" d="M952 983 L952 79 Q952 -105 896 -202 Q796 -374 524 -374 Q347 -374 246.5 -296 Q146 -218 135 -72 L213 -72 Q225 -164 268 -213 Q349 -307 524 -307 Q709 -307 791.5 -216.5 Q874 -126 874 77 L874 283 Q845 214 816 176 Q707 34 506 34 Q303 34 187 184 Q89 309 89 512 Q89 738 203 872 Q322 1012 520 1012 Q646 1012 738.5 946 Q831 880 877 757 L877 983 L952 983 Z M526 945 Q341 945 244 804 Q167 692 167 523 Q167 328 261 213 Q353 101 514 101 Q693 101 796 240 Q873 346 873 522 Q873 732 765 845 Q711 900 637 925 Q578 945 526 945 Z M798 1406 L545 1137 L476 1137 L701 1406 L798 1406 Z " />
<glyph glyph-name="Aringacute" unicode="&#x1fa;" horiz-adv-x="1230" d="M665 1367 L1208 0 L1116 0 L945 438 L286 438 L112 0 L23 0 L576 1367 L665 1367 Z M918 510 L669 1143 Q644 1207 619 1286 L607 1253 Q576 1170 568 1149 L313 510 L918 510 Z M618 1835 Q697 1835 753 1778 Q809 1721 809 1641 Q809 1560 752 1504 Q696 1447 616 1447 Q536 1447 479 1504 Q422 1561 422 1641 Q422 1722 479 1778.5 Q536 1835 618 1835 Z M617 1782 Q557 1782 516 1741 Q475 1700 475 1641 Q475 1583 516.5 1541.5 Q558 1500 616 1500 Q674 1500 715 1541.5 Q756 1583 756 1641 Q756 1699 715 1740.5 Q674 1782 617 1782 Z M690 2069 L410 1821 L335 1821 L587 2069 L690 2069 Z " />
<glyph glyph-name="aringacute" unicode="&#x1fb;" horiz-adv-x="1005" d="M514 1459 Q585 1459 635.5 1407.5 Q686 1356 686 1284 Q686 1212 635 1161 Q584 1110 512 1110 Q440 1110 388.5 1161.5 Q337 1213 337 1284 Q337 1358 388.5 1408.5 Q440 1459 514 1459 Z M514 1410 Q460 1410 423 1373.5 Q386 1337 386 1284 Q386 1232 423 1195.5 Q460 1159 512 1159 Q564 1159 601 1195.5 Q638 1232 638 1284 Q638 1336 601.5 1373 Q565 1410 514 1410 Z M567 1663 L314 1394 L244 1394 L469 1663 L567 1663 Z M970 74 L970 6 Q933 2 912 2 Q840 2 812 35.5 Q784 69 784 155 L784 179 L776 179 Q733 114 700.5 81 Q668 48 621 22 Q527 -28 396 -28 Q239 -28 152.5 45 Q66 118 66 251 Q66 405 179 468 Q242 504 302.5 517 Q363 530 592 559 Q686 571 721 593 Q772 627 772 713 Q772 831 701.5 888 Q631 945 486 945 Q360 945 281 884 Q243 854 224.5 815.5 Q206 777 197 707 L111 707 Q122 790 145 837 Q233 1011 504 1011 Q858 1011 858 702 L858 135 Q858 68 923 68 Q948 68 970 74 Z M775 558 Q760 534 727.5 524 Q695 514 580 498 Q390 473 313 447 Q152 393 152 255 Q152 157 218 98 Q284 39 394 39 Q545 39 654 126 Q778 224 778 375 L778 558 L775 558 Z " />
<glyph glyph-name="AEacute" unicode="&#x1fc;" horiz-adv-x="1750" d="M1665 1365 L1665 1293 L940 1293 L940 747 L1610 747 L1610 675 L940 675 L940 72 L1669 72 L1669 0 L857 0 L857 488 L355 488 L102 0 L8 0 L724 1365 L1665 1365 Z M857 560 L857 1293 L771 1293 L390 560 L857 560 Z M1473 1730 L1192 1481 L1117 1481 L1370 1730 L1473 1730 Z " />
<glyph glyph-name="aeacute" unicode="&#x1fd;" horiz-adv-x="1726" d="M1106 1406 L853 1137 L783 1137 L1008 1406 L1106 1406 Z M826 239 Q791 140 696 67 Q572 -28 394 -28 Q238 -28 151.5 45.5 Q65 119 65 251 Q65 405 178 468 Q241 504 302 517.5 Q363 531 591 559 Q685 571 720 594 Q771 627 771 713 Q771 831 700.5 888 Q630 945 485 945 Q359 945 280 884 Q242 854 223.5 815.5 Q205 777 196 707 L110 707 Q121 790 144 837 Q232 1011 503 1011 Q656 1011 739 957 Q822 903 850 786 Q894 892 989.5 951.5 Q1085 1011 1213 1011 Q1422 1011 1540 863 Q1645 732 1645 522 Q1645 505 1644 479 L853 479 Q852 340 895 242 Q983 36 1212 36 Q1496 36 1557 329 L1632 329 Q1607 196 1536 112 Q1417 -29 1208 -29 Q1068 -29 967 42 Q866 113 826 239 Z M1567 546 Q1565 693 1502 791 Q1403 944 1214 944 Q1092 944 1001 877 Q931 825 896 747.5 Q861 670 852 546 L1567 546 Z M774 558 Q759 534 726.5 524 Q694 514 579 498 Q388 472 312 447 Q151 393 151 255 Q151 157 217 98 Q283 39 393 39 Q544 39 653 126 Q777 224 777 375 L777 558 L774 558 Z " />
<glyph glyph-name="Oslashacute" unicode="&#x1fe;" horiz-adv-x="1494" d="M1365 1318 L1232 1174 Q1303 1079 1334 1008 Q1395 867 1395 671 Q1395 387 1241 198 Q1056 -31 745 -31 Q608 -31 490.5 16 Q373 63 293 150 L149 -7 L107 35 L253 192 Q192 277 163 343 Q98 489 98 681 Q98 999 271 1191 Q455 1396 744 1396 Q1016 1396 1193 1216 L1322 1357 L1365 1318 Z M1141 1159 Q983 1324 743 1324 Q479 1324 318 1125 Q181 957 181 678 Q181 551 215 440 Q249 329 310 255 L1141 1159 Z M1179 1113 L346 208 Q409 132 518 86.5 Q627 41 744 41 Q872 41 983.5 92 Q1095 143 1171 236 Q1312 408 1312 670 Q1312 811 1282.5 908.5 Q1253 1006 1179 1113 Z M1020 1730 L739 1481 L664 1481 L917 1730 L1020 1730 Z " />
<glyph glyph-name="oslashacute" unicode="&#x1ff;" horiz-adv-x="1087" d="M1004 939 L902 831 Q999 694 999 493 Q999 257 885 121 Q761 -29 550 -29 Q347 -29 218 112 L112 1 L76 36 L188 154 Q89 293 89 493 Q89 724 213 866 Q340 1011 544 1011 Q737 1011 869 873 L968 976 L1004 939 Z M819 820 Q778 862 743 886 Q659 944 545 944 Q356 944 251 797 Q167 678 167 488 Q167 332 240 207 L819 820 Z M849 777 L270 163 Q309 105 384 71.5 Q459 38 550 38 Q721 38 821 157.5 Q921 277 921 483 Q921 655 849 777 Z M787 1406 L534 1137 L465 1137 L690 1406 L787 1406 Z " />
<glyph glyph-name="uni0200" unicode="&#x200;" horiz-adv-x="1230" d="M665 1367 L1208 0 L1116 0 L945 438 L286 438 L112 0 L23 0 L576 1367 L665 1367 Z M918 510 L669 1143 Q644 1207 619 1286 L607 1253 Q576 1170 568 1149 L313 510 L918 510 Z M525 1730 L622 1730 L806 1481 L737 1481 L525 1730 Z M238 1730 L335 1730 L519 1481 L450 1481 L238 1730 Z " />
<glyph glyph-name="uni0201" unicode="&#x201;" horiz-adv-x="1005" d="M416 1405 L513 1405 L697 1156 L628 1156 L416 1405 Z M129 1405 L226 1405 L410 1156 L341 1156 L129 1405 Z M970 74 L970 6 Q933 2 912 2 Q840 2 812 35.5 Q784 69 784 155 L784 179 L776 179 Q733 114 700.5 81 Q668 48 621 22 Q527 -28 396 -28 Q239 -28 152.5 45 Q66 118 66 251 Q66 405 179 468 Q242 504 302.5 517 Q363 530 592 559 Q686 571 721 593 Q772 627 772 713 Q772 831 701.5 888 Q631 945 486 945 Q360 945 281 884 Q243 854 224.5 815.5 Q206 777 197 707 L111 707 Q122 790 145 837 Q233 1011 504 1011 Q858 1011 858 702 L858 135 Q858 68 923 68 Q948 68 970 74 Z M775 558 Q760 534 727.5 524 Q695 514 580 498 Q390 473 313 447 Q152 393 152 255 Q152 157 218 98 Q284 39 394 39 Q545 39 654 126 Q778 224 778 375 L778 558 L775 558 Z " />
<glyph glyph-name="Scommaaccent" unicode="&#x218;" horiz-adv-x="1204" d="M1077 978 L995 978 Q985 1120 917 1196 Q865 1257 773 1289.5 Q681 1322 565 1322 Q391 1322 291 1252 Q182 1176 182 1036 Q182 881 331 818 Q400 788 663 727 Q803 694 864.5 673.5 Q926 653 976 622 Q1112 537 1112 361 Q1112 178 976 74.5 Q840 -29 599 -29 Q396 -29 258 52 Q61 167 58 452 L138 452 Q140 284 222 184 Q278 117 377.5 80 Q477 43 603 43 Q823 43 931 137 Q1029 222 1029 356 Q1029 508 890 577 Q819 612 571 669 Q412 706 344.5 728.5 Q277 751 223 785 Q99 865 99 1035 Q99 1202 225 1298 Q351 1394 570 1394 Q856 1394 989 1234 Q1068 1140 1077 978 Z M525 -382 Q594 -352 599 -247 L585 -249 L580 -249 Q550 -249 529.5 -229.5 Q509 -210 509 -180 Q509 -150 530 -127 Q551 -104 578 -104 Q658 -104 658 -224 Q658 -311 622.5 -368 Q587 -425 525 -437 L525 -382 Z " />
<glyph glyph-name="scommaaccent" unicode="&#x219;" horiz-adv-x="920" d="M810 696 L732 696 Q724 786 692 836 Q622 944 432 944 Q315 944 248 901 Q163 848 163 747 Q163 686 196 651 Q228 616 282.5 595.5 Q337 575 475 544 Q651 504 726 461 Q841 396 841 261 Q841 195 809.5 137.5 Q778 80 723 43 Q616 -29 454 -29 Q261 -29 158 63 Q55 155 51 330 L128 330 Q133 215 176 155 Q259 38 455 38 Q596 38 676 97 Q763 160 763 258 Q763 340 698 385.5 Q633 431 460 471 Q257 517 194 552 Q85 611 85 742 Q85 891 216 964 Q301 1011 439 1011 Q644 1011 740 901 Q801 831 810 696 Z M375 -382 Q445 -352 450 -247 L436 -249 L430 -249 Q400 -249 380 -229 Q360 -209 360 -180 Q360 -150 381 -127 Q402 -104 429 -104 Q509 -104 509 -224 Q509 -312 473.5 -368.5 Q438 -425 375 -437 L375 -382 Z " />
<glyph glyph-name="uni021A" unicode="&#x21a;" horiz-adv-x="1106" d="M1078 1365 L1078 1293 L594 1293 L594 0 L511 0 L511 1293 L28 1293 L28 1365 L1078 1365 Z M495 -382 Q565 -352 569 -247 L555 -249 L550 -249 Q520 -249 499.5 -229 Q479 -209 479 -180 Q479 -150 500 -127 Q521 -104 548 -104 Q628 -104 628 -224 Q628 -312 592.5 -368.5 Q557 -425 495 -437 L495 -382 Z " />
<glyph glyph-name="uni021B" unicode="&#x21b;" horiz-adv-x="513" d="M452 982 L452 915 L241 915 L241 249 Q241 146 257 114 Q284 62 369 62 Q403 62 452 72 L452 2 Q400 -5 359 -5 Q229 -5 187 70 Q172 97 167.5 135.5 Q163 174 163 280 L163 915 L-16 915 L-16 982 L163 982 L163 1289 L241 1289 L241 982 L452 982 Z M241 -382 Q311 -352 315 -247 L302 -249 L296 -249 Q266 -249 246 -229 Q226 -209 226 -180 Q226 -150 246.5 -127 Q267 -104 295 -104 Q374 -104 374 -224 Q374 -312 338.5 -368.5 Q303 -425 241 -437 L241 -382 Z " />
<glyph glyph-name="uni0226" unicode="&#x226;" horiz-adv-x="1230" d="M665 1367 L1208 0 L1116 0 L945 438 L286 438 L112 0 L23 0 L576 1367 L665 1367 Z M918 510 L669 1143 Q644 1207 619 1286 L607 1253 Q576 1170 568 1149 L313 510 L918 510 Z M619 1686 Q647 1686 667 1664.5 Q687 1643 687 1614 Q687 1584 666.5 1562.5 Q646 1541 618 1541 Q590 1541 569.5 1562.5 Q549 1584 549 1614 Q549 1644 569.5 1665 Q590 1686 619 1686 Z " />
<glyph glyph-name="uni0227" unicode="&#x227;" horiz-adv-x="1005" d="M502 1346 Q530 1346 550 1324.5 Q570 1303 570 1274 Q570 1244 549.5 1222.5 Q529 1201 501 1201 Q473 1201 452.5 1222.5 Q432 1244 432 1274 Q432 1304 452.5 1325 Q473 1346 502 1346 Z M970 74 L970 6 Q933 2 912 2 Q840 2 812 35.5 Q784 69 784 155 L784 179 L776 179 Q733 114 700.5 81 Q668 48 621 22 Q527 -28 396 -28 Q239 -28 152.5 45 Q66 118 66 251 Q66 405 179 468 Q242 504 302.5 517 Q363 530 592 559 Q686 571 721 593 Q772 627 772 713 Q772 831 701.5 888 Q631 945 486 945 Q360 945 281 884 Q243 854 224.5 815.5 Q206 777 197 707 L111 707 Q122 790 145 837 Q233 1011 504 1011 Q858 1011 858 702 L858 135 Q858 68 923 68 Q948 68 970 74 Z M775 558 Q760 534 727.5 524 Q695 514 580 498 Q390 473 313 447 Q152 393 152 255 Q152 157 218 98 Q284 39 394 39 Q545 39 654 126 Q778 224 778 375 L778 558 L775 558 Z " />
<glyph glyph-name="uni0237" unicode="&#x237;" horiz-adv-x="384" d="M226 982 L226 -103 Q226 -186 214 -232 Q202 -278 172 -307 Q120 -359 1 -359 Q-22 -359 -44 -356 L-44 -289 Q-15 -290 -5 -290 Q51 -290 76 -281.5 Q101 -273 118 -248 Q148 -204 148 -109 L148 982 L226 982 Z " />
<glyph glyph-name="afii57929" unicode="&#x2bc;" horiz-adv-x="410" d="M144 948 L144 1004 Q213 1040 218 1168 L204 1166 L198 1166 Q169 1166 148.5 1185.5 Q128 1205 128 1235 Q128 1265 149 1288 Q170 1311 197 1311 Q277 1311 277 1182 Q277 1090 241 1026.5 Q205 963 144 948 Z " />
<glyph glyph-name="circumflex" unicode="&#x2c6;" horiz-adv-x="1024" d="M776 1137 L692 1137 L509 1356 L325 1137 L249 1137 L472 1406 L552 1406 L776 1137 Z " />
<glyph glyph-name="caron" unicode="&#x2c7;" horiz-adv-x="1024" d="M249 1406 L332 1406 L516 1186 L700 1406 L776 1406 L553 1137 L473 1137 L249 1406 Z " />
<glyph glyph-name="uni02C9" unicode="&#x2c9;" horiz-adv-x="1024" d="M771 1293 L771 1233 L254 1233 L254 1293 L771 1293 Z " />
<glyph glyph-name="breve" unicode="&#x2d8;" horiz-adv-x="1024" d="M758 1381 Q747 1308 717 1262 Q648 1153 511 1153 Q409 1153 341.5 1215.5 Q274 1278 266 1381 L324 1381 Q334 1325 359 1291 Q412 1216 514 1216 Q668 1216 700 1381 L758 1381 Z " />
<glyph glyph-name="dotaccent" unicode="&#x2d9;" horiz-adv-x="1024" d="M512 1346 Q540 1346 560 1324.5 Q580 1303 580 1274 Q580 1244 559.5 1222.5 Q539 1201 511 1201 Q483 1201 462.5 1222.5 Q442 1244 442 1274 Q442 1304 462.5 1325 Q483 1346 512 1346 Z " />
<glyph glyph-name="ring" unicode="&#x2da;" horiz-adv-x="1024" d="M515 1459 Q586 1459 636.5 1407.5 Q687 1356 687 1284 Q687 1212 636 1161 Q585 1110 513 1110 Q441 1110 389.5 1161.5 Q338 1213 338 1284 Q338 1358 389.5 1408.5 Q441 1459 515 1459 Z M515 1410 Q461 1410 424 1373.5 Q387 1337 387 1284 Q387 1232 424 1195.5 Q461 1159 513 1159 Q565 1159 602 1195.5 Q639 1232 639 1284 Q639 1336 602.5 1373 Q566 1410 515 1410 Z " />
<glyph glyph-name="ogonek" unicode="&#x2db;" horiz-adv-x="1024" d="M591 0 L663 0 Q549 -85 549 -170 Q549 -219 588.5 -250 Q628 -281 692 -281 Q730 -281 785 -263 L786 -321 Q724 -341 675 -341 Q584 -341 530 -292 Q482 -249 482 -181 Q482 -86 591 0 Z " />
<glyph glyph-name="tilde" unicode="&#x2dc;" horiz-adv-x="1024" d="M762 1349 Q755 1274 719 1228.5 Q683 1183 632 1183 Q583 1183 514 1229 Q456 1268 438.5 1276.5 Q421 1285 399 1285 Q366 1285 344 1257 Q322 1229 317 1181 L261 1181 Q268 1234 287 1270 Q329 1348 401 1348 Q447 1348 517 1301 Q596 1247 630 1247 Q658 1247 679.5 1274.5 Q701 1302 708 1349 L762 1349 Z " />
<glyph glyph-name="hungarumlaut" unicode="&#x2dd;" horiz-adv-x="1024" d="M828 1406 L644 1137 L585 1137 L742 1406 L828 1406 Z M596 1406 L412 1137 L353 1137 L510 1406 L596 1406 Z " />
<glyph glyph-name="pi" unicode="&#x3c0;" horiz-adv-x="1035" d="M864 915 L864 0 L785 0 L785 915 L250 915 L250 0 L171 0 L171 915 L34 915 L34 982 L1000 982 L1000 915 L864 915 Z " />
<glyph glyph-name="uni1E1E" unicode="&#x1e1e;" horiz-adv-x="1071" d="M1033 1365 L1033 1293 L256 1293 L256 745 L954 745 L954 673 L256 673 L256 0 L173 0 L173 1365 L1033 1365 Z M611 1686 Q639 1686 659 1664.5 Q679 1643 679 1614 Q679 1584 658.5 1562.5 Q638 1541 610 1541 Q582 1541 561.5 1562.5 Q541 1584 541 1614 Q541 1644 561.5 1665 Q582 1686 611 1686 Z " />
<glyph glyph-name="Wgrave" unicode="&#x1e80;" horiz-adv-x="1796" d="M1762 1365 L1371 0 L1277 0 L956 1077 Q947 1106 923 1197 Q906 1256 899 1289 Q891 1257 874 1195 L859 1140 L840 1075 L526 0 L432 0 L35 1365 L124 1365 L425 318 Q429 305 442 253 Q447 233 458 193 Q472 139 482 89 Q491 135 507 193 L540 314 L849 1365 L951 1365 L1267 305 Q1278 269 1302 179 Q1316 125 1324 89 Q1343 174 1360 239 L1378 305 L1679 1365 L1762 1365 Z M625 1730 L728 1730 L981 1481 L906 1481 L625 1730 Z " />
<glyph glyph-name="wgrave" unicode="&#x1e81;" horiz-adv-x="1403" d="M1382 982 L1065 0 L977 0 L744 746 Q725 807 703 892 Q678 797 663 748 L430 0 L338 0 L22 982 L105 982 L333 264 Q351 207 384 84 Q429 256 434 269 L656 982 L752 982 L975 265 Q992 209 1024 86 Q1055 207 1072 261 L1302 982 L1382 982 Z M554 1406 L786 1137 L715 1137 L454 1406 L554 1406 Z " />
<glyph glyph-name="Wacute" unicode="&#x1e82;" horiz-adv-x="1796" d="M1762 1365 L1371 0 L1277 0 L956 1077 Q947 1106 923 1197 Q906 1256 899 1289 Q891 1257 874 1195 L859 1140 L840 1075 L526 0 L432 0 L35 1365 L124 1365 L425 318 Q429 305 442 253 Q447 233 458 193 Q472 139 482 89 Q491 135 507 193 L540 314 L849 1365 L951 1365 L1267 305 Q1278 269 1302 179 Q1316 125 1324 89 Q1343 174 1360 239 L1378 305 L1679 1365 L1762 1365 Z M1223 1730 L942 1481 L867 1481 L1120 1730 L1223 1730 Z " />
<glyph glyph-name="wacute" unicode="&#x1e83;" horiz-adv-x="1403" d="M1382 982 L1065 0 L977 0 L744 746 Q725 807 703 892 Q678 797 663 748 L430 0 L338 0 L22 982 L105 982 L333 264 Q351 207 384 84 Q429 256 434 269 L656 982 L752 982 L975 265 Q992 209 1024 86 Q1055 207 1072 261 L1302 982 L1382 982 Z M945 1406 L692 1137 L622 1137 L847 1406 L945 1406 Z " />
<glyph glyph-name="Wdieresis" unicode="&#x1e84;" horiz-adv-x="1796" d="M1762 1365 L1371 0 L1277 0 L956 1077 Q947 1106 923 1197 Q906 1256 899 1289 Q891 1257 874 1195 L859 1140 L840 1075 L526 0 L432 0 L35 1365 L124 1365 L425 318 Q429 305 442 253 Q447 233 458 193 Q472 139 482 89 Q491 135 507 193 L540 314 L849 1365 L951 1365 L1267 305 Q1278 269 1302 179 Q1316 125 1324 89 Q1343 174 1360 239 L1378 305 L1679 1365 L1762 1365 Z M1097 1686 Q1125 1686 1145 1664.5 Q1165 1643 1165 1614 Q1165 1584 1144.5 1562.5 Q1124 1541 1096 1541 Q1068 1541 1047.5 1562.5 Q1027 1584 1027 1614 Q1027 1644 1047.5 1665 Q1068 1686 1097 1686 Z M701 1686 Q729 1686 749 1664.5 Q769 1643 769 1614 Q769 1584 748.5 1562.5 Q728 1541 700 1541 Q672 1541 651.5 1562.5 Q631 1584 631 1614 Q631 1644 651.5 1665 Q672 1686 701 1686 Z " />
<glyph glyph-name="wdieresis" unicode="&#x1e85;" horiz-adv-x="1403" d="M1382 982 L1065 0 L977 0 L744 746 Q725 807 703 892 Q678 797 663 748 L430 0 L338 0 L22 982 L105 982 L333 264 Q351 207 384 84 Q429 256 434 269 L656 982 L752 982 L975 265 Q992 209 1024 86 Q1055 207 1072 261 L1302 982 L1382 982 Z M870 1346 Q898 1346 918 1324.5 Q938 1303 938 1274 Q938 1244 917.5 1222.5 Q897 1201 869 1201 Q841 1201 820.5 1222.5 Q800 1244 800 1274 Q800 1304 820.5 1325 Q841 1346 870 1346 Z M535 1346 Q563 1346 583 1324.5 Q603 1303 603 1274 Q603 1244 582.5 1222.5 Q562 1201 534 1201 Q506 1201 485.5 1222.5 Q465 1244 465 1274 Q465 1304 485.5 1325 Q506 1346 535 1346 Z " />
<glyph glyph-name="Ygrave" unicode="&#x1ef2;" horiz-adv-x="1173" d="M1180 1365 L628 570 L628 0 L545 0 L545 570 L-5 1365 L94 1365 L528 736 Q554 699 589 641 Q627 704 647 732 L1086 1365 L1180 1365 Z M313 1730 L416 1730 L668 1481 L593 1481 L313 1730 Z " />
<glyph glyph-name="ygrave" unicode="&#x1ef3;" horiz-adv-x="894" d="M884 982 L462 -102 Q400 -261 353 -303 Q297 -353 192 -353 Q168 -353 146 -352 L118 -350 L118 -280 Q157 -286 182 -286 Q268 -286 311 -240 Q331 -219 342.5 -196.5 Q354 -174 398 -66 Q426 -6 426 0 Q426 4 424 8 L10 982 L98 982 L422 212 Q429 194 466 89 Q495 180 511 222 L803 982 L884 982 Z M299 1406 L531 1137 L460 1137 L199 1406 L299 1406 Z " />
<glyph glyph-name="uni2011" unicode="&#x2011;" horiz-adv-x="437" d="M437 541 L437 471 L0 471 L0 541 L437 541 Z " />
<glyph glyph-name="figuredash" unicode="&#x2012;" horiz-adv-x="1147" d="M1003 541 L1003 471 L143 471 L143 541 L1003 541 Z " />
<glyph glyph-name="endash" unicode="&#x2013;" horiz-adv-x="1147" d="M1003 541 L1003 471 L143 471 L143 541 L1003 541 Z " />
<glyph glyph-name="emdash" unicode="&#x2014;" horiz-adv-x="1311" d="M1311 557 L1311 487 L0 487 L0 557 L1311 557 Z " />
<glyph glyph-name="afii00208" unicode="&#x2015;" horiz-adv-x="1311" d="M1311 557 L1311 487 L0 487 L0 557 L1311 557 Z " />
<glyph glyph-name="underscoredbl" unicode="&#x2017;" horiz-adv-x="1024" d="M0 -131 L1024 -131 L1024 -182 L0 -182 L0 -131 Z M0 -368 L1024 -368 L1024 -421 L0 -421 L0 -368 Z " />
<glyph glyph-name="quoteleft" unicode="&#x2018;" horiz-adv-x="410" d="M289 1331 L289 1276 Q220 1240 215 1112 L229 1115 L234 1115 Q264 1115 284.5 1095 Q305 1075 305 1045 Q305 1015 284 992 Q263 969 236 969 Q156 969 156 1098 Q156 1190 192 1253.5 Q228 1317 289 1331 Z " />
<glyph glyph-name="quoteright" unicode="&#x2019;" horiz-adv-x="410" d="M144 948 L144 1004 Q213 1040 218 1168 L204 1166 L198 1166 Q169 1166 148.5 1185.5 Q128 1205 128 1235 Q128 1265 149 1288 Q170 1311 197 1311 Q277 1311 277 1182 Q277 1090 241 1026.5 Q205 963 144 948 Z " />
<glyph glyph-name="quotesinglbase" unicode="&#x201a;" horiz-adv-x="410" d="M144 -222 L144 -167 Q213 -130 218 -2 L204 -5 L198 -5 Q169 -5 148.5 15 Q128 35 128 64 Q128 95 149 118 Q170 141 197 141 Q277 141 277 12 Q277 -80 241 -143.5 Q205 -207 144 -222 Z " />
<glyph glyph-name="quotereversed" unicode="&#x201b;" horiz-adv-x="410" d="M187 1168 Q192 1040 261 1004 L261 948 Q223 958 198 982 Q166 1012 147 1067 Q128 1122 128 1182 Q128 1311 208 1311 Q235 1311 256 1288 Q277 1265 277 1235 Q277 1205 256.5 1185.5 Q236 1166 206 1166 L201 1166 L187 1168 Z " />
<glyph glyph-name="quotedblleft" unicode="&#x201c;" horiz-adv-x="647" d="M289 1331 L289 1276 Q220 1240 215 1112 L229 1115 L234 1115 Q264 1115 284.5 1095 Q305 1075 305 1045 Q305 1015 284 992 Q263 969 236 969 Q156 969 156 1098 Q156 1190 192 1253.5 Q228 1317 289 1331 Z M527 1331 L527 1276 Q457 1240 453 1112 L466 1115 L472 1115 Q502 1115 522 1095 Q542 1075 542 1045 Q542 1015 521 992 Q500 969 473 969 Q393 969 393 1098 Q393 1190 429.5 1253.5 Q466 1317 527 1331 Z " />
<glyph glyph-name="quotedblright" unicode="&#x201d;" horiz-adv-x="647" d="M144 948 L144 1004 Q213 1040 218 1168 L204 1166 L198 1166 Q169 1166 148.5 1185.5 Q128 1205 128 1235 Q128 1265 149 1288 Q170 1311 197 1311 Q277 1311 277 1182 Q277 1090 241 1026.5 Q205 963 144 948 Z M381 948 L381 1004 Q451 1040 455 1168 L442 1166 L436 1166 Q406 1166 386 1185.5 Q366 1205 366 1235 Q366 1265 387 1288 Q408 1311 435 1311 Q515 1311 515 1182 Q515 1090 478.5 1026.5 Q442 963 381 948 Z " />
<glyph glyph-name="quotedblbase" unicode="&#x201e;" horiz-adv-x="647" d="M144 -222 L144 -167 Q213 -130 218 -2 L204 -5 L198 -5 Q169 -5 148.5 15 Q128 35 128 64 Q128 95 149 118 Q170 141 197 141 Q277 141 277 12 Q277 -80 241 -143.5 Q205 -207 144 -222 Z M381 -222 L381 -167 Q451 -130 455 -2 L442 -5 L436 -5 Q406 -5 386 15 Q366 35 366 64 Q366 95 387 118 Q408 141 435 141 Q515 141 515 12 Q515 -80 478.5 -143.5 Q442 -207 381 -222 Z " />
<glyph glyph-name="dagger" unicode="&#x2020;" horiz-adv-x="1147" d="M1004 920 L1004 852 L610 852 L610 -354 L535 -354 L535 852 L142 852 L142 920 L535 920 L535 1365 L610 1365 L610 920 L1004 920 Z " />
<glyph glyph-name="daggerdbl" unicode="&#x2021;" horiz-adv-x="1147" d="M1003 964 L1003 896 L611 896 L611 116 L1003 116 L1003 48 L611 48 L611 -354 L536 -354 L536 48 L143 48 L143 116 L536 116 L536 896 L143 896 L143 964 L536 964 L536 1365 L611 1365 L611 964 L1003 964 Z " />
<glyph glyph-name="bullet" unicode="&#x2022;" horiz-adv-x="1365" d="M687 983 Q799 983 881 900 Q964 816 964 697 Q964 578 882 494 Q799 410 683 410 Q568 410 485 493 Q401 578 401 696 Q401 818 485 900 Q569 983 687 983 Z " />
<glyph glyph-name="ellipsis" unicode="&#x2026;" horiz-adv-x="1229" d="M206 141 Q234 141 254 119.5 Q274 98 274 69 Q274 39 253.5 17.5 Q233 -4 205 -4 Q177 -4 156.5 17.5 Q136 39 136 69 Q136 99 156.5 120 Q177 141 206 141 Z M616 141 Q644 141 664 119.5 Q684 98 684 69 Q684 39 663.5 17.5 Q643 -4 615 -4 Q587 -4 566.5 17.5 Q546 39 546 69 Q546 99 566.5 120 Q587 141 616 141 Z M1025 141 Q1053 141 1073 119.5 Q1093 98 1093 69 Q1093 39 1072.5 17.5 Q1052 -4 1024 -4 Q996 -4 975.5 17.5 Q955 39 955 69 Q955 99 975.5 120 Q996 141 1025 141 Z " />
<glyph glyph-name="perthousand" unicode="&#x2030;" horiz-adv-x="2286" d="M387 1365 Q527 1365 603 1279 Q683 1187 683 1009 Q683 838 606.5 747 Q530 656 387 656 Q247 656 171 743 Q89 836 89 1011 Q89 1182 166 1273.5 Q243 1365 387 1365 Z M386 1303 Q266 1303 211 1204 Q168 1126 168 1009 Q168 893 211 817 Q267 719 390 719 Q479 719 537 784 Q605 862 605 1010 Q605 1126 560 1202 Q501 1303 386 1303 Z M449 -39 L368 -39 L1158 1381 L1235 1381 L449 -39 Z M1218 686 Q1357 686 1433 599 Q1514 508 1514 325 Q1514 135 1416 44 Q1341 -24 1220 -24 Q1076 -24 1002 62 Q921 158 921 330 Q921 528 1021 618 Q1096 686 1218 686 Z M1216 623 Q1114 623 1057 546 Q1000 469 1000 332 Q1000 209 1043 137 Q1100 39 1221 39 Q1312 39 1369 105 Q1437 183 1437 327 Q1437 445 1392 523 Q1335 623 1216 623 Z M1902 686 Q2041 686 2117 599 Q2198 508 2198 325 Q2198 135 2100 44 Q2025 -24 1904 -24 Q1760 -24 1686 62 Q1605 158 1605 330 Q1605 528 1705 618 Q1780 686 1902 686 Z M1900 623 Q1798 623 1741 546 Q1684 469 1684 332 Q1684 209 1727 137 Q1784 39 1905 39 Q1995 39 2053 105 Q2121 183 2121 327 Q2121 445 2076 523 Q2019 623 1900 623 Z " />
<glyph glyph-name="guilsinglleft" unicode="&#x2039;" horiz-adv-x="460" d="M328 218 L105 465 L105 539 L328 792 L328 703 L158 502 L328 309 L328 218 Z " />
<glyph glyph-name="guilsinglright" unicode="&#x203a;" horiz-adv-x="460" d="M132 792 L355 546 L355 472 L132 218 L132 307 L302 508 L132 702 L132 792 Z " />
<glyph glyph-name="uni203E" unicode="&#x203e;" horiz-adv-x="1024" d="M0 1723 L1024 1723 L1024 1661 L0 1661 L0 1723 Z " />
<glyph glyph-name="fraction" unicode="&#x2044;" horiz-adv-x="282" d="M589 1335 L-242 0 L-307 0 L524 1335 L589 1335 Z " />
<glyph glyph-name="zerosuperior" unicode="&#x2070;" horiz-adv-x="734" d="M372 1351 Q512 1351 590.5 1243 Q669 1135 669 940 Q669 770 612 671 Q531 529 366 529 Q222 529 144.5 632 Q67 735 67 928 Q67 1113 131 1218 Q212 1351 372 1351 Z M372 1295 Q257 1295 194.5 1199 Q132 1103 132 925 Q132 790 176 701 Q232 585 367 585 Q481 585 543 677.5 Q605 770 605 939 Q605 1086 560 1175 Q498 1295 372 1295 Z " />
<glyph glyph-name="foursuperior" unicode="&#x2074;" horiz-adv-x="734" d="M659 800 L659 744 L526 744 L526 546 L463 546 L463 744 L73 744 L73 801 L466 1341 L526 1341 L526 800 L659 800 Z M463 800 L463 1248 L138 800 L463 800 Z " />
<glyph glyph-name="fivesuperior" unicode="&#x2075;" horiz-adv-x="734" d="M614 1335 L614 1276 L238 1276 L180 1010 Q260 1082 369 1082 Q504 1082 584 989 Q650 912 650 808 Q650 688 568.5 608.5 Q487 529 364 529 Q233 529 158.5 600 Q84 671 82 798 L144 798 Q149 723 171 684 Q197 638 248.5 611.5 Q300 585 364 585 Q470 585 533 657 Q586 718 586 805 Q586 897 528 958 Q465 1025 363 1025 Q234 1025 164 919 L105 921 L191 1335 L614 1335 Z " />
<glyph glyph-name="sixsuperior" unicode="&#x2076;" horiz-adv-x="733" d="M643 1131 L579 1131 Q567 1201 525 1241 Q468 1295 384 1295 Q270 1295 213.5 1210.5 Q157 1126 146 939 Q221 1075 383 1075 Q500 1075 579 997.5 Q658 920 658 804 Q658 690 579 611 Q500 530 375 530 Q220 530 141 648 Q83 736 83 913 Q83 1102 145 1212 Q223 1351 385 1351 Q493 1351 559.5 1294.5 Q626 1238 643 1131 Z M379 1019 Q277 1019 213 950 Q157 890 157 804 Q157 712 219 649 Q283 586 376 586 Q477 586 540 656 Q594 717 594 803 Q594 891 540 949 Q475 1019 379 1019 Z " />
<glyph glyph-name="sevensuperior" unicode="&#x2077;" horiz-adv-x="734" d="M650 1335 L650 1281 Q635 1263 589 1217 Q467 1091 391.5 913 Q316 735 305 546 L239 546 Q244 739 336 936.5 Q428 1134 579 1276 L116 1276 L116 1335 L650 1335 Z " />
<glyph glyph-name="eightsuperior" unicode="&#x2078;" horiz-adv-x="735" d="M232 976 Q109 1028 109 1147 Q109 1241 178.5 1296 Q248 1351 367 1351 Q487 1351 556 1297 Q625 1243 625 1150 Q625 1027 502 976 Q659 928 659 775 Q659 661 581.5 595.5 Q504 530 369 530 Q227 530 152 597 Q75 664 75 771 Q75 926 232 976 Z M367 1295 Q275 1295 224 1256 Q173 1217 173 1147 Q173 1078 225 1039.5 Q277 1001 368 1001 Q459 1001 510 1039.5 Q561 1078 561 1146 Q561 1217 510.5 1256 Q460 1295 367 1295 Z M366 948 Q260 948 200.5 901.5 Q141 855 141 773 Q141 685 201.5 635.5 Q262 586 368 586 Q482 586 540 641 Q593 692 593 772 Q593 855 533 901.5 Q473 948 366 948 Z " />
<glyph glyph-name="ninesuperior" unicode="&#x2079;" horiz-adv-x="735" d="M98 746 L160 746 Q173 671 225.5 628 Q278 585 357 585 Q591 585 592 951 Q520 807 354 807 Q223 807 142 897 Q76 971 76 1077 Q76 1200 166 1280 Q244 1351 358 1351 Q444 1351 511 1310.5 Q578 1270 614 1197 Q654 1114 654 963 Q654 794 612 700 Q537 529 357 529 Q249 529 180 587 Q111 645 98 746 Z M361 1295 Q262 1295 198 1226 Q142 1165 142 1078 Q142 995 194 936 Q257 864 359 864 Q460 864 522 933 Q577 994 577 1079 Q577 1165 522 1224 Q456 1295 361 1295 Z " />
<glyph glyph-name="zeroinferior" unicode="&#x2080;" horiz-adv-x="734" d="M372 806 Q512 806 590.5 698 Q669 590 669 395 Q669 225 612 126 Q531 -16 366 -16 Q222 -16 144.5 87 Q67 190 67 383 Q67 567 131 673 Q212 806 372 806 Z M372 750 Q257 750 194.5 654 Q132 558 132 380 Q132 245 176 156 Q232 40 367 40 Q481 40 543 132.5 Q605 225 605 394 Q605 541 560 630 Q498 750 372 750 Z " />
<glyph glyph-name="oneinferior" unicode="&#x2081;" horiz-adv-x="733" d="M444 793 L444 0 L378 0 L378 681 Q298 607 164 592 L164 647 Q249 662 298.5 694.5 Q348 727 389 793 L444 793 Z " />
<glyph glyph-name="twoinferior" unicode="&#x2082;" horiz-adv-x="734" d="M645 59 L645 0 L90 0 Q101 104 149 162 Q197 220 363 329 Q479 405 523.5 460.5 Q568 516 568 583 Q568 660 516 705 Q464 750 376 750 Q175 750 172 515 L108 515 Q110 651 169 721 Q239 806 378 806 Q494 806 563 745 Q632 684 632 583 Q632 493 575.5 426 Q519 359 347 246 Q248 181 214.5 147 Q181 113 164 59 L645 59 Z " />
<glyph glyph-name="threeinferior" unicode="&#x2083;" horiz-adv-x="733" d="M95 532 Q99 641 144 704 Q216 806 373 806 Q490 806 559 748 Q629 690 629 599 Q629 470 499 424 Q650 382 650 230 Q650 120 570.5 52 Q491 -16 364 -16 Q233 -16 154 54 Q75 124 75 241 Q75 253 76 273 L138 273 Q137 257 137 251 Q137 151 197.5 95.5 Q258 40 366 40 Q463 40 524.5 91.5 Q586 143 586 225 Q586 395 349 395 Q338 395 314 394 L314 450 Q336 449 357 449 Q457 449 510.5 487.5 Q564 526 564 597 Q564 667 511.5 708.5 Q459 750 371 750 Q163 750 157 532 L95 532 Z " />
<glyph glyph-name="fourinferior" unicode="&#x2084;" horiz-adv-x="734" d="M659 254 L659 198 L526 198 L526 0 L463 0 L463 198 L73 198 L73 255 L466 794 L526 794 L526 254 L659 254 Z M463 254 L463 702 L138 254 L463 254 Z " />
<glyph glyph-name="fiveinferior" unicode="&#x2085;" horiz-adv-x="734" d="M614 789 L614 730 L238 730 L180 463 Q259 536 369 536 Q504 536 584 443 Q650 366 650 262 Q650 142 568.5 63 Q487 -16 364 -16 Q233 -16 158.5 55 Q84 126 82 252 L144 252 Q149 178 171 138 Q197 93 248.5 66.5 Q300 40 364 40 Q469 40 533 112 Q586 173 586 260 Q586 352 528 413 Q465 479 363 479 Q233 479 164 373 L105 375 L191 789 L614 789 Z " />
<glyph glyph-name="sixinferior" unicode="&#x2086;" horiz-adv-x="733" d="M643 585 L579 585 Q567 656 525 696 Q468 750 384 750 Q270 750 213.5 665 Q157 580 146 393 Q222 528 383 528 Q500 528 579 450.5 Q658 373 658 258 Q658 144 579 65 Q500 -16 375 -16 Q220 -16 141 102 Q83 191 83 367 Q83 557 145 667 Q223 806 385 806 Q493 806 559.5 749 Q626 692 643 585 Z M379 472 Q283 472 220 411 Q157 350 157 258 Q157 165 219 103 Q283 40 376 40 Q476 40 540 110 Q594 171 594 257 Q594 344 540 402 Q475 472 379 472 Z " />
<glyph glyph-name="seveninferior" unicode="&#x2087;" horiz-adv-x="734" d="M650 789 L650 735 Q635 717 589 671 Q467 544 391.5 366.5 Q316 189 305 0 L239 0 Q244 193 336 390 Q428 587 579 730 L116 730 L116 789 L650 789 Z " />
<glyph glyph-name="eightinferior" unicode="&#x2088;" horiz-adv-x="735" d="M232 430 Q109 482 109 601 Q109 696 178.5 751 Q248 806 367 806 Q487 806 556 752 Q625 698 625 604 Q625 480 502 430 Q659 381 659 229 Q659 115 581.5 49.5 Q504 -16 369 -16 Q228 -16 152 51 Q75 118 75 225 Q75 380 232 430 Z M367 750 Q275 750 224 711 Q173 672 173 601 Q173 533 225 494 Q277 455 368 455 Q458 455 509.5 494 Q561 533 561 601 Q561 672 510.5 711 Q460 750 367 750 Z M366 402 Q260 402 200.5 355.5 Q141 309 141 227 Q141 139 201.5 89.5 Q262 40 368 40 Q482 40 540 95 Q593 146 593 226 Q593 309 533 355.5 Q473 402 366 402 Z " />
<glyph glyph-name="nineinferior" unicode="&#x2089;" horiz-adv-x="735" d="M98 201 L160 201 Q173 126 225.5 83 Q278 40 357 40 Q591 40 592 405 Q520 261 354 261 Q223 261 142 351 Q76 425 76 531 Q76 655 166 735 Q244 806 358 806 Q444 806 511 765.5 Q578 725 614 652 Q654 569 654 418 Q654 249 612 155 Q537 -16 357 -16 Q249 -16 180 42 Q111 100 98 201 Z M361 750 Q262 750 198 681 Q142 620 142 532 Q142 450 194 390 Q257 318 359 318 Q460 318 522 387 Q577 448 577 534 Q577 620 522 679 Q456 750 361 750 Z " />
<glyph glyph-name="franc" unicode="&#x20a3;" horiz-adv-x="1147" d="M794 1365 L794 1293 L233 1293 L233 722 L660 722 L660 650 L233 650 L233 0 L158 0 L158 1365 L794 1365 Z M794 722 L794 481 Q873 736 1137 729 L1137 656 Q1119 657 1112 657 Q958 657 868 532 Q826 474 811 405 Q796 336 796 201 L796 0 L724 0 L724 722 L794 722 Z " />
<glyph glyph-name="lira" unicode="&#x20a4;" horiz-adv-x="1147" d="M306 793 L664 793 L664 743 L332 743 Q341 726 345 718 Q393 628 406 595 L664 595 L664 545 L419 545 Q432 485 432 434 Q432 308 351 190 Q320 145 234 57 Q317 100 351.5 111 Q386 122 440 122 Q507 122 601 87 Q702 50 729.5 42.5 Q757 35 795 35 Q858 35 931 72.5 Q1004 110 1054 168 L1097 109 Q957 -38 796 -38 Q749 -38 711 -28 Q673 -18 546 27 Q475 52 411 52 Q354 52 305.5 33 Q257 14 187 -35 L137 36 Q242 117 300 218.5 Q358 320 358 422 Q358 475 340 545 L149 545 L149 595 L325 595 Q315 618 246 743 L149 743 L149 793 L220 793 Q152 927 152 1030 Q152 1204 291 1309 Q404 1395 589 1395 Q806 1395 918.5 1275 Q1031 1155 1031 924 L955 924 Q949 1324 587 1324 Q414 1324 319 1232 Q231 1149 231 1026 Q231 971 245 926.5 Q259 882 306 793 Z " />
<glyph glyph-name="peseta" unicode="&#x20a7;" horiz-adv-x="1898" d="M172 1365 L568 1365 Q675 1365 740 1350 Q805 1335 857 1299 Q1010 1192 1010 974 Q1010 788 898.5 682 Q787 576 591 576 L247 576 L247 0 L172 0 L172 1365 Z M247 1293 L247 648 L547 648 Q644 648 695 658 Q746 668 792 696 Q935 783 935 970 Q935 1152 813 1238 Q767 1270 713.5 1281.5 Q660 1293 558 1293 L247 1293 Z M1264 617 L1264 559 L1136 559 L1136 161 Q1136 95 1149.5 75.5 Q1163 56 1207 56 Q1227 56 1264 62 L1264 2 Q1224 -3 1200 -3 Q1115 -3 1088 47 Q1072 76 1072 180 L1072 559 L963 559 L963 617 L1072 617 L1072 804 L1136 804 L1136 617 L1264 617 Z M1823 425 L1759 425 Q1755 485 1735 515 Q1695 577 1583 577 Q1515 577 1476 552 Q1428 522 1428 466 Q1428 420 1463 397.5 Q1498 375 1611 350 Q1720 325 1766 299 Q1840 257 1840 168 Q1840 86 1772.5 34.5 Q1705 -17 1596 -17 Q1473 -17 1408.5 42.5 Q1344 102 1343 219 L1406 219 Q1408 145 1434 108 Q1481 41 1597 41 Q1680 41 1726 75 Q1776 111 1776 167 Q1776 213 1738 239 Q1700 265 1598 288 Q1474 316 1434 338 Q1364 377 1364 462 Q1364 542 1423.5 588 Q1483 634 1586 634 Q1701 634 1759 583 Q1817 532 1823 425 Z " />
<glyph glyph-name="Euro" unicode="&#x20ac;" horiz-adv-x="1264" d="M226 797 L960 797 L924 733 L221 733 Q219 699 219 680 Q219 651 222 609 L854 609 L818 545 L229 545 Q248 408 308 305 Q383 174 510 105 Q627 41 767 41 Q883 41 984.5 88 Q1086 135 1155 221 L1155 110 Q1082 42 980.5 5.5 Q879 -31 765 -31 Q515 -31 348.5 123.5 Q182 278 145 545 L0 545 L35 609 L139 609 Q136 658 136 684 Q136 701 138 733 L0 733 L35 797 L143 797 Q165 985 258 1125 Q437 1395 773 1395 Q1031 1395 1196 1228 L1155 1153 Q1089 1234 987.5 1278.5 Q886 1323 768 1323 Q551 1323 406 1181 Q254 1033 226 797 Z " />
<glyph glyph-name="uni2101" unicode="&#x2101;" horiz-adv-x="1911" d="M1286 1365 L696 0 L636 0 L1226 1365 L1286 1365 Z M457 1366 L795 546 L722 546 L617 804 L226 804 L120 546 L48 546 L392 1366 L457 1366 Z M594 863 L447 1223 Q445 1227 424 1286 Q404 1237 400 1227 L249 863 L594 863 Z M1765 575 L1699 575 Q1692 662 1653 706 Q1588 777 1444 777 Q1337 777 1277.5 735 Q1218 693 1218 617 Q1218 531 1304 496 Q1346 479 1505 444 Q1646 412 1699 381 Q1786 330 1786 221 Q1786 110 1700.5 47 Q1615 -16 1465 -16 Q1298 -16 1212 59.5 Q1126 135 1126 282 L1191 282 Q1193 178 1241 123 Q1310 43 1467 43 Q1587 43 1653 89 Q1719 135 1719 219 Q1719 302 1639 340 Q1595 361 1446 394 Q1286 429 1231 463 Q1151 512 1151 617 Q1151 719 1230 777.5 Q1309 836 1447 836 Q1598 836 1678 770 Q1758 704 1765 575 Z " />
<glyph glyph-name="afii61248" unicode="&#x2105;" horiz-adv-x="1719" d="M1147 1365 L558 0 L498 0 L1087 1365 L1147 1365 Z M653 884 Q636 759 559.5 690.5 Q483 622 360 622 Q193 622 108 751 Q44 847 44 982 Q44 1156 135 1254 Q224 1349 366 1349 Q485 1349 559.5 1288 Q634 1227 647 1118 L592 1118 Q579 1188 544 1228 Q481 1302 367 1302 Q229 1302 157 1198 Q98 1113 98 985 Q98 842 169.5 755.5 Q241 669 358 669 Q457 669 520.5 726 Q584 783 598 884 L653 884 Z M1282 732 Q1431 732 1519 618 Q1594 521 1594 364 Q1594 201 1511 105 Q1423 4 1276 4 Q1123 4 1035 113 Q957 210 957 367 Q957 521 1035 620 Q1124 732 1282 732 Z M1280 685 Q1157 685 1082 596 Q1011 510 1011 367 Q1011 224 1080 141 Q1153 51 1277 51 Q1400 51 1471 139 Q1540 225 1540 364 Q1540 501 1476 588 Q1405 685 1280 685 Z " />
<glyph glyph-name="afii61289" unicode="&#x2113;" horiz-adv-x="1024" d="M492 551 Q467 427 445 283 Q423 139 423 101 Q423 48 465 48 Q522 48 578 169 Q593 202 612 202 Q633 202 633 182 Q633 153 602 96 Q531 -30 435 -30 Q377 -30 343 11 Q309 52 309 121 Q309 190 337 396 L343 435 Q241 336 216 336 Q209 336 202.5 343 Q196 350 196 358 Q196 371 244 412 Q287 448 357 524 Q431 907 523 1148 Q566 1262 624 1325 Q682 1388 743 1388 Q793 1388 823 1347 Q853 1306 853 1238 Q853 1067 737 860 Q661 727 492 551 Z M508 641 Q689 837 754 1026 Q797 1150 797 1241 Q797 1283 782 1307.5 Q767 1332 741 1332 Q700 1332 669 1283 Q638 1234 606 1121 Q565 974 508 641 Z " />
<glyph glyph-name="afii61352" unicode="&#x2116;" horiz-adv-x="1964" d="M1231 1365 L1231 0 L1135 0 L369 1081 Q309 1166 251 1269 Q254 1222 255 1126 L256 1060 L256 0 L173 0 L173 1365 L271 1365 L1021 303 Q1080 220 1154 98 Q1148 214 1148 359 L1148 1365 L1231 1365 Z M1636 922 Q1760 922 1834 827 Q1896 746 1896 615 Q1896 479 1827 399 Q1753 315 1631 315 Q1503 315 1430 406 Q1365 487 1365 618 Q1365 746 1430 828 Q1503 922 1636 922 Z M1634 855 Q1543 855 1488.5 790.5 Q1434 726 1434 618 Q1434 511 1485 449 Q1540 382 1632 382 Q1723 382 1776 448 Q1827 511 1827 616 Q1827 717 1780 782 Q1727 855 1634 855 Z M1896 232 L1896 165 L1365 165 L1365 232 L1896 232 Z " />
<glyph glyph-name="uni2120" unicode="&#x2120;" horiz-adv-x="1676" d="M1533 1365 L1533 587 L1459 587 L1459 1224 L1159 587 L1095 587 L792 1221 L792 587 L718 587 L718 1365 L807 1365 L1127 694 L1445 1365 L1533 1365 Z M610 1134 L539 1134 Q522 1314 323 1314 Q231 1314 179.5 1274.5 Q128 1235 128 1165 Q128 1104 168 1076 Q208 1048 338 1018 Q491 983 539 956 Q635 901 635 792 Q635 686 556.5 624.5 Q478 563 341 563 Q196 563 114 633 Q31 705 31 828 Q31 831 31 838 L102 838 Q111 625 347 625 Q456 625 511 672 Q563 716 563 786 Q563 871 472 909 Q431 926 301 956 Q171 986 124 1019 Q56 1066 56 1161 Q56 1260 129 1318 Q202 1376 328 1376 Q458 1376 531.5 1313 Q605 1250 610 1134 Z " />
<glyph glyph-name="trademark" unicode="&#x2122;" horiz-adv-x="1676" d="M643 1365 L643 1299 L366 1299 L366 587 L292 587 L292 1299 L15 1299 L15 1365 L643 1365 Z M1533 1365 L1533 587 L1459 587 L1459 1224 L1159 587 L1094 587 L792 1221 L792 587 L718 587 L718 1365 L807 1365 L1127 694 L1444 1365 L1533 1365 Z " />
<glyph glyph-name="Omega" unicode="&#x2126;" horiz-adv-x="1363" d="M56 0 L56 75 L477 75 Q311 168 202 307 Q55 495 55 738 Q55 963 177 1135 Q282 1283 443 1351 Q555 1398 682 1398 Q888 1398 1050 1276 Q1183 1175 1251 1021 Q1308 890 1308 738 Q1308 476 1134 275 Q1032 157 886 75 L1307 75 L1307 0 L783 0 L783 72 Q1224 320 1224 730 Q1224 926 1121 1081 Q1033 1214 898 1277 Q800 1323 683 1323 Q498 1323 358 1209 Q245 1118 187 979 Q139 862 139 730 Q139 429 374 215 Q450 145 580 72 L580 0 L56 0 Z " />
<glyph glyph-name="estimated" unicode="&#x212e;" horiz-adv-x="1148" d="M300 495 L300 149 Q418 36 578 36 Q699 36 783.5 89 Q868 142 946 266 L1013 226 Q923 85 824 26 Q725 -33 580 -33 Q358 -33 218 121 Q84 269 84 495 Q84 725 218 871 Q358 1024 578 1024 Q796 1024 933.5 877.5 Q1071 731 1072 495 L300 495 Z M856 564 L856 842 Q729 957 575 957 Q422 957 300 842 L300 564 L856 564 Z " />
<glyph glyph-name="onethird" unicode="&#x2153;" horiz-adv-x="1748" d="M444 1339 L444 546 L378 546 L378 1227 Q298 1153 164 1138 L164 1192 Q249 1208 298.5 1240 Q348 1272 389 1339 L444 1339 Z M1322 1335 L491 0 L426 0 L1257 1335 L1322 1335 Z M1111 532 Q1114 641 1159 704 Q1231 806 1388 806 Q1505 806 1574 748 Q1644 690 1644 599 Q1644 470 1514 424 Q1587 404 1626 353.5 Q1665 303 1665 230 Q1665 120 1585.5 52 Q1506 -16 1379 -16 Q1248 -16 1169 54 Q1090 124 1090 241 Q1090 252 1091 273 L1153 273 Q1152 257 1152 251 Q1152 151 1212.5 95.5 Q1273 40 1381 40 Q1478 40 1539.5 91.5 Q1601 143 1601 225 Q1601 395 1364 395 Q1354 395 1330 394 L1330 450 Q1351 449 1372 449 Q1472 449 1525.5 487.5 Q1579 526 1579 597 Q1579 667 1526.5 708.5 Q1474 750 1386 750 Q1178 750 1172 532 L1111 532 Z " />
<glyph glyph-name="twothirds" unicode="&#x2154;" horiz-adv-x="1749" d="M645 605 L645 546 L90 546 Q101 650 148.5 707.5 Q196 765 363 874 Q479 951 523.5 1006 Q568 1061 568 1128 Q568 1205 516 1250 Q464 1295 376 1295 Q175 1295 172 1061 L108 1061 Q110 1196 169 1266 Q239 1351 378 1351 Q493 1351 562.5 1290.5 Q632 1230 632 1129 Q632 1038 575.5 971.5 Q519 905 347 792 Q248 728 214.5 693.5 Q181 659 164 605 L645 605 Z M1322 1335 L491 0 L426 0 L1257 1335 L1322 1335 Z M1111 532 Q1115 641 1159 704 Q1232 806 1389 806 Q1506 806 1575 748 Q1645 690 1645 599 Q1645 470 1515 424 Q1587 404 1626 353.5 Q1665 303 1665 230 Q1665 121 1585.5 52.5 Q1506 -16 1379 -16 Q1248 -16 1169.5 54 Q1091 124 1091 241 Q1091 260 1091 273 L1153 273 Q1153 261 1153 251 Q1153 151 1213 95.5 Q1273 40 1381 40 Q1478 40 1539.5 91.5 Q1601 143 1601 225 Q1601 395 1365 395 Q1354 395 1330 394 L1330 450 Q1351 449 1373 449 Q1473 449 1526.5 487.5 Q1580 526 1580 597 Q1580 667 1527.5 708.5 Q1475 750 1387 750 Q1178 750 1172 532 L1111 532 Z " />
<glyph glyph-name="uni2155" unicode="&#x2155;" horiz-adv-x="1748" d="M444 1339 L444 546 L378 546 L378 1227 Q298 1153 164 1138 L164 1192 Q249 1208 298.5 1240 Q348 1272 389 1339 L444 1339 Z M1322 1335 L491 0 L426 0 L1257 1335 L1322 1335 Z M1628 789 L1628 730 L1253 730 L1195 463 Q1273 536 1383 536 Q1519 536 1599 443 Q1665 366 1665 262 Q1665 142 1583.5 63 Q1502 -16 1378 -16 Q1248 -16 1173 55 Q1098 126 1096 252 L1158 252 Q1163 178 1185 138 Q1211 93 1262.5 66.5 Q1314 40 1378 40 Q1484 40 1547 112 Q1601 173 1601 260 Q1601 352 1543 413 Q1480 479 1378 479 Q1248 479 1178 373 L1119 375 L1205 789 L1628 789 Z " />
<glyph glyph-name="uni2156" unicode="&#x2156;" horiz-adv-x="1749" d="M645 605 L645 546 L90 546 Q101 650 148.5 707.5 Q196 765 363 874 Q479 951 523.5 1006 Q568 1061 568 1128 Q568 1205 516 1250 Q464 1295 376 1295 Q175 1295 172 1061 L108 1061 Q110 1196 169 1266 Q239 1351 378 1351 Q493 1351 562.5 1290.5 Q632 1230 632 1129 Q632 1038 575.5 971.5 Q519 905 347 792 Q248 728 214.5 693.5 Q181 659 164 605 L645 605 Z M1322 1335 L491 0 L426 0 L1257 1335 L1322 1335 Z M1629 789 L1629 730 L1253 730 L1195 463 Q1274 536 1384 536 Q1519 536 1599 443 Q1665 366 1665 262 Q1665 142 1583.5 63 Q1502 -16 1379 -16 Q1248 -16 1173.5 55 Q1099 126 1097 252 L1158 252 Q1163 178 1186 138 Q1211 93 1262.5 66.5 Q1314 40 1378 40 Q1484 40 1548 112 Q1601 173 1601 260 Q1601 352 1543 413 Q1480 479 1378 479 Q1248 479 1179 373 L1119 375 L1205 789 L1629 789 Z " />
<glyph glyph-name="uni2157" unicode="&#x2157;" horiz-adv-x="1748" d="M95 1078 Q99 1188 144 1250 Q216 1352 373 1352 Q490 1352 559 1294 Q629 1236 629 1145 Q629 1017 499 971 Q650 928 650 776 Q650 667 570.5 598.5 Q491 530 364 530 Q233 530 154 600 Q75 670 75 787 Q75 799 76 820 L138 820 Q137 803 137 797 Q137 698 197.5 642 Q258 586 366 586 Q463 586 524.5 637.5 Q586 689 586 771 Q586 942 349 942 Q334 942 314 940 L314 997 Q335 996 357 996 Q457 996 510.5 1034.5 Q564 1073 564 1144 Q564 1213 511.5 1254.5 Q459 1296 371 1296 Q163 1296 157 1078 L95 1078 Z M1322 1335 L490 0 L426 0 L1257 1335 L1322 1335 Z M1628 789 L1628 730 L1252 730 L1194 463 Q1273 536 1383 536 Q1518 536 1598 443 Q1664 366 1664 262 Q1664 142 1582.5 63 Q1501 -16 1378 -16 Q1247 -16 1172.5 55 Q1098 126 1096 252 L1158 252 Q1163 178 1185 138 Q1211 93 1262.5 66.5 Q1314 40 1378 40 Q1483 40 1547 112 Q1600 173 1600 260 Q1600 352 1542 413 Q1479 479 1377 479 Q1247 479 1178 373 L1118 375 L1205 789 L1628 789 Z " />
<glyph glyph-name="uni2158" unicode="&#x2158;" horiz-adv-x="1749" d="M659 800 L659 744 L526 744 L526 546 L463 546 L463 744 L73 744 L73 801 L466 1341 L526 1341 L526 800 L659 800 Z M463 800 L463 1248 L138 800 L463 800 Z M1323 1335 L492 0 L427 0 L1258 1335 L1323 1335 Z M1629 789 L1629 730 L1254 730 L1196 463 Q1274 536 1384 536 Q1520 536 1600 443 Q1666 366 1666 262 Q1666 142 1584.5 63 Q1503 -16 1379 -16 Q1249 -16 1174 55 Q1099 126 1097 252 L1159 252 Q1164 178 1186 138 Q1212 93 1263.5 66.5 Q1315 40 1379 40 Q1485 40 1548 112 Q1602 173 1602 260 Q1602 352 1544 413 Q1480 479 1379 479 Q1249 479 1179 373 L1120 375 L1206 789 L1629 789 Z " />
<glyph glyph-name="uni2159" unicode="&#x2159;" horiz-adv-x="1747" d="M444 1339 L444 546 L378 546 L378 1227 Q298 1153 164 1138 L164 1192 Q249 1208 298.5 1240 Q348 1272 389 1339 L444 1339 Z M1322 1335 L491 0 L426 0 L1257 1335 L1322 1335 Z M1658 585 L1594 585 Q1582 656 1540 696 Q1483 750 1399 750 Q1285 750 1228.5 665 Q1172 580 1161 393 Q1237 528 1398 528 Q1515 528 1594 450.5 Q1673 373 1673 258 Q1673 144 1595 65 Q1515 -16 1390 -16 Q1236 -16 1157 102 Q1099 190 1099 367 Q1099 556 1161 667 Q1239 806 1400 806 Q1509 806 1575 749 Q1641 692 1658 585 Z M1394 472 Q1299 472 1236 411 Q1173 350 1173 258 Q1173 165 1235 103 Q1298 40 1392 40 Q1492 40 1555 110 Q1609 171 1609 257 Q1609 344 1555 402 Q1490 472 1394 472 Z " />
<glyph glyph-name="uni215A" unicode="&#x215a;" horiz-adv-x="1748" d="M614 1335 L614 1276 L238 1276 L180 1010 Q260 1082 369 1082 Q504 1082 584 989 Q650 912 650 808 Q650 688 568.5 608.5 Q487 529 364 529 Q233 529 158.5 600 Q84 671 82 798 L144 798 Q149 723 171 684 Q197 638 248.5 611.5 Q300 585 364 585 Q470 585 533 657 Q586 718 586 805 Q586 897 528 958 Q465 1025 363 1025 Q234 1025 164 919 L105 921 L191 1335 L614 1335 Z M1323 1335 L492 0 L427 0 L1258 1335 L1323 1335 Z M1659 585 L1595 585 Q1583 656 1541 696 Q1484 750 1400 750 Q1286 750 1229.5 665 Q1173 580 1162 393 Q1238 528 1399 528 Q1516 528 1595 450.5 Q1674 373 1674 258 Q1674 144 1595 65 Q1516 -16 1391 -16 Q1236 -16 1157 102 Q1099 190 1099 367 Q1099 556 1161 667 Q1239 806 1401 806 Q1509 806 1575.5 749 Q1642 692 1659 585 Z M1395 472 Q1299 472 1236 411 Q1173 350 1173 258 Q1173 165 1235 103 Q1299 40 1392 40 Q1486 40 1548 102 Q1610 164 1610 257 Q1610 344 1556 402 Q1491 472 1395 472 Z " />
<glyph glyph-name="oneeighth" unicode="&#x215b;" horiz-adv-x="1749" d="M444 1339 L444 546 L378 546 L378 1227 Q298 1153 164 1138 L164 1192 Q249 1208 298.5 1240 Q348 1272 389 1339 L444 1339 Z M1322 1335 L491 0 L426 0 L1257 1335 L1322 1335 Z M1247 430 Q1124 482 1124 601 Q1124 696 1193.5 751 Q1263 806 1382 806 Q1502 806 1571 752 Q1640 698 1640 604 Q1640 480 1517 430 Q1674 381 1674 229 Q1674 115 1596 49.5 Q1518 -16 1384 -16 Q1243 -16 1167 50 Q1090 118 1090 225 Q1090 380 1247 430 Z M1382 750 Q1290 750 1239 711 Q1188 672 1188 601 Q1188 533 1240 494 Q1292 455 1383 455 Q1473 455 1524.5 494 Q1576 533 1576 601 Q1576 672 1525.5 711 Q1475 750 1382 750 Z M1381 402 Q1275 402 1215.5 355.5 Q1156 309 1156 227 Q1156 139 1216 89.5 Q1276 40 1383 40 Q1497 40 1555 95 Q1608 146 1608 226 Q1608 309 1548 355.5 Q1488 402 1381 402 Z " />
<glyph glyph-name="threeeighths" unicode="&#x215c;" horiz-adv-x="1749" d="M95 1078 Q99 1188 144 1250 Q216 1352 373 1352 Q490 1352 559 1294 Q629 1236 629 1145 Q629 1017 499 971 Q650 928 650 776 Q650 667 570.5 598.5 Q491 530 364 530 Q233 530 154 600 Q75 670 75 787 Q75 799 76 820 L138 820 Q137 803 137 797 Q137 698 197.5 642 Q258 586 366 586 Q463 586 524.5 637.5 Q586 689 586 771 Q586 942 349 942 Q334 942 314 940 L314 997 Q335 996 357 996 Q457 996 510.5 1034.5 Q564 1073 564 1144 Q564 1213 511.5 1254.5 Q459 1296 371 1296 Q163 1296 157 1078 L95 1078 Z M1322 1335 L490 0 L426 0 L1257 1335 L1322 1335 Z M1247 430 Q1123 482 1123 601 Q1123 696 1192.5 751 Q1262 806 1381 806 Q1502 806 1571 752 Q1640 698 1640 604 Q1640 480 1517 430 Q1674 381 1674 229 Q1674 115 1596.5 49.5 Q1519 -16 1384 -16 Q1243 -16 1167 50 Q1090 118 1090 225 Q1090 380 1247 430 Z M1382 750 Q1289 750 1238 711 Q1187 672 1187 601 Q1187 533 1239 494 Q1291 455 1382 455 Q1473 455 1524.5 494 Q1576 533 1576 601 Q1576 672 1525.5 711 Q1475 750 1382 750 Z M1381 402 Q1275 402 1215.5 355.5 Q1156 309 1156 227 Q1156 139 1216.5 89.5 Q1277 40 1383 40 Q1497 40 1555 95 Q1608 146 1608 226 Q1608 309 1548 355.5 Q1488 402 1381 402 Z " />
<glyph glyph-name="fiveeighths" unicode="&#x215d;" horiz-adv-x="1750" d="M614 1335 L614 1276 L238 1276 L180 1010 Q260 1082 369 1082 Q504 1082 584 989 Q650 912 650 808 Q650 688 568.5 608.5 Q487 529 364 529 Q233 529 158.5 600 Q84 671 82 798 L144 798 Q149 723 171 684 Q197 638 248.5 611.5 Q300 585 364 585 Q470 585 533 657 Q586 718 586 805 Q586 897 528 958 Q465 1025 363 1025 Q234 1025 164 919 L105 921 L191 1335 L614 1335 Z M1323 1335 L492 0 L427 0 L1258 1335 L1323 1335 Z M1248 430 Q1125 482 1125 601 Q1125 696 1194.5 751 Q1264 806 1383 806 Q1503 806 1572 752 Q1641 698 1641 604 Q1641 480 1518 430 Q1675 382 1675 229 Q1675 115 1597.5 49.5 Q1520 -16 1385 -16 Q1244 -16 1168 50 Q1091 118 1091 225 Q1091 380 1248 430 Z M1383 750 Q1291 750 1240 711 Q1189 672 1189 601 Q1189 533 1241 494 Q1293 455 1384 455 Q1474 455 1525.5 494 Q1577 533 1577 601 Q1577 672 1526.5 711 Q1476 750 1383 750 Z M1382 402 Q1276 402 1216.5 355.5 Q1157 309 1157 227 Q1157 139 1217 89.5 Q1277 40 1384 40 Q1498 40 1556 95 Q1609 146 1609 226 Q1609 309 1549 355.5 Q1489 402 1382 402 Z " />
<glyph glyph-name="seveneighths" unicode="&#x215e;" horiz-adv-x="1750" d="M650 1335 L650 1281 Q635 1263 589 1217 Q467 1091 391.5 913 Q316 735 305 546 L239 546 Q244 739 336 936.5 Q428 1134 579 1276 L116 1276 L116 1335 L650 1335 Z M1322 1335 L491 0 L426 0 L1257 1335 L1322 1335 Z M1248 430 Q1124 482 1124 601 Q1124 696 1193.5 751 Q1263 806 1382 806 Q1503 806 1572 752 Q1641 698 1641 604 Q1641 480 1518 430 Q1675 381 1675 229 Q1675 115 1597 49.5 Q1519 -16 1384 -16 Q1243 -16 1167 50 Q1090 117 1090 225 Q1090 380 1248 430 Z M1383 750 Q1290 750 1239 711 Q1188 672 1188 601 Q1188 533 1240 494 Q1292 455 1383 455 Q1474 455 1525.5 494 Q1577 533 1577 601 Q1577 672 1526.5 711 Q1476 750 1383 750 Z M1381 402 Q1275 402 1215.5 355.5 Q1156 309 1156 227 Q1156 139 1216.5 89.5 Q1277 40 1384 40 Q1497 40 1556 95 Q1609 147 1609 226 Q1609 309 1549 355.5 Q1489 402 1381 402 Z " />
<glyph glyph-name="partialdiff" unicode="&#x2202;" horiz-adv-x="1024" d="M202 1306 L213 1379 Q362 1356 463 1311 Q705 1202 835 945 Q945 727 945 471 Q945 289 869 172 Q804 70 695 17 Q609 -25 515 -25 Q357 -25 234 85 Q81 222 81 434 Q81 593 173 720 Q232 802 321.5 848 Q411 894 512 894 Q657 894 753 815 Q793 783 842 707 Q836 724 833 732 Q785 871 759 923.5 Q733 976 679 1045 Q513 1257 202 1306 Z M531 826 Q404 826 305 751 Q250 709 211 636 Q159 539 159 432 Q159 261 278 145 Q381 45 515 45 Q635 45 730 123 Q866 236 866 445 Q866 642 745 745 Q650 826 531 826 Z " />
<glyph glyph-name="emptyset" unicode="&#x2205;" horiz-adv-x="1266" d="M899 1365 L997 1314 L899 1133 Q1130 972 1130 717 Q1130 576 1055 455 Q990 350 885 288 Q766 219 622 219 Q528 219 460 252 L332 1 L232 52 L358 301 Q137 463 137 715 Q137 943 308 1091 Q448 1212 636 1212 Q718 1212 802 1183 L899 1365 Z M514 353 Q580 335 633 335 Q801 335 916 458 Q1016 566 1016 715 Q1016 812 971.5 896 Q927 980 852 1027 L514 353 Z M749 1079 Q692 1096 639 1096 Q455 1096 340 958 Q251 851 251 716 Q251 533 410 406 L749 1079 Z " />
<glyph glyph-name="increment" unicode="&#x2206;" horiz-adv-x="1246" d="M11 0 L580 1365 L666 1365 L1236 0 L11 0 Z M124 75 L1122 75 L623 1271 L124 75 Z " />
<glyph glyph-name="product" unicode="&#x220f;" horiz-adv-x="1365" d="M64 1536 L1302 1536 L1302 1465 L1149 1465 L1149 -441 L1302 -441 L1302 -512 L904 -512 L904 -441 L1071 -441 L1071 1465 L296 1465 L296 -441 L460 -441 L460 -512 L64 -512 L64 -441 L218 -441 L218 1465 L64 1465 L64 1536 Z " />
<glyph glyph-name="summation" unicode="&#x2211;" horiz-adv-x="1365" d="M1198 1536 L1198 1094 L1119 1094 L1114 1457 L163 1457 L681 556 L163 -435 L1133 -435 L1136 -73 L1217 -73 L1217 -512 L71 -512 L71 -421 L582 556 L71 1450 L71 1536 L1198 1536 Z " />
<glyph glyph-name="minus" unicode="&#x2212;" horiz-adv-x="1147" d="M111 691 L1037 691 L1037 625 L111 625 L111 691 Z " />
<glyph glyph-name="fraction001" unicode="&#x2215;" horiz-adv-x="282" d="M589 1335 L-242 0 L-307 0 L524 1335 L589 1335 Z " />
<glyph glyph-name="uni2218" unicode="&#x2218;" horiz-adv-x="1024" d="M517 983 Q629 983 711 900 Q794 816 794 697 Q794 578 712 494 Q629 410 513 410 Q398 410 315 493 Q231 578 231 696 Q231 818 315 900 Q399 983 517 983 Z M516 887 Q437 887 382 832 Q327 776 327 696 Q327 618 382 561 Q437 506 513 506 Q590 506 644 562 Q698 618 698 696 Q698 778 643 832 Q588 887 516 887 Z " />
<glyph glyph-name="middot" unicode="&#x2219;" horiz-adv-x="410" d="M206 558 Q234 558 254 536.5 Q274 515 274 486 Q274 456 253.5 434.5 Q233 413 205 413 Q177 413 156.5 434.5 Q136 456 136 486 Q136 516 156.5 537 Q177 558 206 558 Z " />
<glyph glyph-name="radical" unicode="&#x221a;" horiz-adv-x="1365" d="M1365 1693 L1365 1621 L945 1621 L435 0 L355 0 L154 642 L0 642 L0 714 L208 714 L310 393 L322 356 L346 274 Q382 153 390 122 L393 122 Q405 164 451 316 L513 519 L632 896 L882 1693 L1365 1693 Z " />
<glyph glyph-name="infinity" unicode="&#x221e;" horiz-adv-x="1365" d="M683 648 Q629 566 584 518 Q470 397 334 397 Q235 397 163 446 Q40 530 40 702 Q40 858 151 940 Q231 999 335 999 Q520 999 682 747 Q733 826 776 873 Q890 999 1035 999 Q1187 999 1268 886 Q1325 806 1325 695 Q1325 552 1233 470 Q1151 397 1035 397 Q932 397 851.5 454.5 Q771 512 683 648 Z M718 698 Q760 633 798 587 Q905 459 1032 459 Q1138 459 1202 536 Q1255 601 1255 698 Q1255 825 1169 890 Q1106 937 1030 937 Q943 937 874 884 Q805 831 718 698 Z M647 697 Q606 762 567 808 Q460 937 333 937 Q227 937 163 860 Q110 795 110 698 Q110 571 196 506 Q258 459 335 459 Q423 459 490.5 510 Q558 561 647 697 Z " />
<glyph glyph-name="integral" unicode="&#x222b;" horiz-adv-x="1024" d="M254 -489 L278 -412 Q319 -433 355 -433 Q438 -433 459 -363 Q469 -332 469 -199 L469 1210 Q470 1341 472 1367.5 Q474 1394 484 1423 Q501 1475 549.5 1505.5 Q598 1536 665 1536 Q712 1536 771 1513 L747 1436 Q705 1457 669 1457 Q587 1457 565 1387 Q556 1355 556 1239 L556 -185 Q556 -301 551 -345 Q546 -389 530 -418 Q508 -459 456 -484.5 Q404 -510 345 -510 Q300 -510 254 -489 Z " />
<glyph glyph-name="similar" unicode="&#x223c;" horiz-adv-x="1024" d="M78 559 L24 598 Q132 804 288 804 Q367 804 528 718 Q615 672 656.5 657 Q698 642 736 642 Q798 642 846 680 Q894 718 946 808 L1000 769 Q897 563 734 563 Q687 563 638.5 581.5 Q590 600 462 667 Q350 726 284 726 Q225 726 177 687 Q129 648 78 559 Z " />
<glyph glyph-name="approxequal" unicode="&#x2248;" horiz-adv-x="1024" d="M78 713 L24 748 Q132 954 288 954 Q368 954 528 868 Q616 822 657 807 Q698 792 737 792 Q799 792 844.5 827.5 Q890 863 946 955 L1000 919 Q896 713 731 713 Q685 713 637 731.5 Q589 750 462 817 Q350 876 284 876 Q225 876 178.5 839 Q132 802 78 713 Z M78 409 L24 445 Q132 651 288 651 Q367 651 528 565 Q616 519 657 504 Q698 489 737 489 Q799 489 845 524.5 Q891 560 946 651 L1000 616 Q896 410 731 410 Q685 410 637 428.5 Q589 447 462 514 Q350 573 284 573 Q225 573 178.5 536 Q132 499 78 409 Z " />
<glyph glyph-name="notequal" unicode="&#x2260;" horiz-adv-x="1024" d="M568 861 L685 1106 L753 1087 L646 861 L957 861 L957 788 L613 788 L507 563 L956 563 L956 490 L476 490 L352 227 L284 245 L399 490 L68 490 L68 563 L430 563 L535 788 L68 788 L68 861 L568 861 Z " />
<glyph glyph-name="lessequal" unicode="&#x2264;" horiz-adv-x="1024" d="M955 1166 L955 1082 L165 754 L955 425 L955 341 L68 714 L68 794 L955 1166 Z M955 280 L955 202 L68 202 L68 280 L955 280 Z " />
<glyph glyph-name="greaterequal" unicode="&#x2265;" horiz-adv-x="1024" d="M68 341 L68 425 L858 754 L68 1082 L68 1166 L955 793 L955 714 L68 341 Z M68 202 L68 280 L955 280 L955 202 L68 202 Z " />
<glyph glyph-name="lozenge" unicode="&#x25ca;" horiz-adv-x="1365" d="M683 1419 L1214 683 L683 -53 L151 683 L683 1419 Z M683 1199 L307 683 L683 167 L1058 683 L683 1199 Z " />
<glyph glyph-name="uniE001" unicode="&#xe001;" horiz-adv-x="740" d="M390 1438 L390 1351 Q504 1345 566 1282.5 Q628 1220 633 1106 L570 1106 Q563 1277 390 1294 L390 981 L400 978 Q524 944 560 924 Q654 871 654 752 Q654 651 581.5 590 Q509 529 390 529 L390 426 L344 426 L344 530 Q85 549 86 813 L149 813 Q150 604 344 587 L344 929 Q210 963 159.5 1010 Q109 1057 109 1147 Q109 1239 171 1293 Q233 1347 344 1352 L344 1438 L390 1438 Z M390 917 L390 586 Q588 598 588 750 Q588 818 546.5 853 Q505 888 390 917 Z M344 993 L344 1295 Q265 1293 220 1253.5 Q175 1214 175 1147 Q175 1083 210 1051 Q245 1019 344 993 Z " />
<glyph glyph-name="uniE002" unicode="&#xe002;" horiz-adv-x="1147" d="M64 321 L295 321 L366 678 L152 678 L152 741 L379 741 L426 979 L499 979 L451 741 L811 741 L860 979 L931 979 L883 741 L1099 741 L1099 678 L871 678 L800 321 L1013 321 L1013 258 L788 258 L735 0 L662 0 L715 258 L356 258 L303 0 L230 0 L283 258 L64 258 L64 321 Z M367 321 L728 321 L798 678 L438 678 L367 321 Z " />
</font>
</svg>
