<?xml version="1.0" encoding="UTF-8"?>
<svg xmlns="http://www.w3.org/2000/svg" xmlns:xlink="http://www.w3.org/1999/xlink" version="1.2" >
<font id="UHCSans-UltraLightItalic">
<font-face  font-family="UHC Sans" units-per-em="2048" ascent="1704" descent="-344" font-style="italic" font-weight="200" font-stretch="normal" slope="-12" cap-height="1365" x-height="979" underline-position="-192" underline-thickness="42" />
<missing-glyph  horiz-adv-x="512" d="M51 0 L51 1365 L461 1365 L461 0 L51 0 Z M410 51 L410 1314 L102 1314 L102 51 L410 51 Z " />
<glyph glyph-name="space" unicode="&#x20;" horiz-adv-x="512" d="" />
<glyph glyph-name="exclam" unicode="&#x21;" horiz-adv-x="461" d="M153 89 Q171 89 183.5 74.5 Q196 60 196 39 Q196 19 183 4.5 Q170 -10 152 -10 Q134 -10 121 4.5 Q108 19 108 40 Q108 60 121 74.5 Q134 89 153 89 Z M458 1365 L241 345 L203 345 L420 1365 L458 1365 Z " />
<glyph glyph-name="quotedbl" unicode="&#x22;" horiz-adv-x="512" d="M240 815 L210 815 L321 1365 L363 1365 L240 815 Z M445 815 L415 815 L526 1365 L567 1365 L445 815 Z " />
<glyph glyph-name="numbersign" unicode="&#x23;" horiz-adv-x="1174" d="M750 502 L616 56 L577 56 L711 502 L443 502 L309 56 L270 56 L404 502 L122 502 L133 539 L414 539 L492 797 L210 797 L222 835 L503 835 L627 1247 L666 1247 L543 835 L811 835 L934 1247 L974 1247 L850 835 L1131 835 L1120 797 L838 797 L761 539 L1043 539 L1032 502 L750 502 Z M799 797 L531 797 L454 539 L722 539 L799 797 Z " />
<glyph glyph-name="dollar" unicode="&#x24;" horiz-adv-x="1174" d="M815 1476 L784 1328 Q1126 1286 1126 979 Q1126 971 1125 945 L1087 945 Q1088 969 1088 982 Q1088 1252 776 1291 L648 690 Q786 648 864 603 Q1016 515 1016 341 Q1016 172 892 70.5 Q768 -31 562 -31 Q542 -31 495 -29 L458 -205 L417 -205 L454 -29 Q306 -9 215 61 Q147 113 111 209 Q84 281 84 341 Q84 358 88 395 L126 395 Q123 360 123 342 Q123 206 213.5 116 Q304 26 462 7 L602 666 Q449 722 381 770 Q272 848 272 984 Q272 1144 400 1242 Q513 1329 692 1329 Q711 1329 743 1328 L774 1476 L815 1476 Z M610 704 L735 1293 Q701 1295 685 1295 Q505 1295 401 1197 Q311 1111 311 985 Q311 884 375 824 Q439 764 610 704 Z M640 653 L502 5 Q539 1 566 1 Q717 1 825 64 Q890 102 933 177 Q977 253 977 338 Q977 423 937.5 483 Q898 543 815 586 Q735 627 640 653 Z " />
<glyph glyph-name="percent" unicode="&#x25;" horiz-adv-x="1575" d="M548 1364 Q658 1364 721 1295.5 Q784 1227 784 1108 Q784 980 731 869 Q637 669 441 669 Q329 669 266.5 737 Q204 805 204 927 Q204 1014 232 1100.5 Q260 1187 309 1248 Q401 1364 548 1364 Z M541 1328 Q447 1328 374 1262 Q317 1210 280 1112 Q243 1014 243 915 Q243 822 300.5 764 Q358 706 449 706 Q560 706 639 795 Q686 848 715.5 935.5 Q745 1023 745 1110 Q745 1212 690.5 1270 Q636 1328 541 1328 Z M329 -35 L279 -35 L1373 1382 L1422 1382 L329 -35 Z M1252 675 Q1362 675 1425 606.5 Q1488 538 1488 419 Q1488 292 1435 180 Q1341 -19 1144 -19 Q1032 -19 969.5 49 Q907 117 907 238 Q907 326 935.5 412.5 Q964 499 1012 560 Q1104 675 1252 675 Z M1244 639 Q1150 639 1078 573 Q1020 521 983 423.5 Q946 326 946 226 Q946 134 1003.5 76 Q1061 18 1153 18 Q1263 18 1343 107 Q1390 160 1419.5 247.5 Q1449 335 1449 421 Q1449 523 1394.5 581 Q1340 639 1244 639 Z " />
<glyph glyph-name="ampersand" unicode="&#x26;" horiz-adv-x="1167" d="M962 524 Q932 378 859 249 L1023 0 L978 0 L836 213 Q791 147 742 99 Q609 -32 419 -32 Q235 -32 134 93 Q62 183 62 300 Q62 495 243 615 Q300 653 429 715 Q473 736 488 743 Q399 886 373 948 Q347 1010 347 1078 Q347 1187 420 1262 Q500 1346 635 1346 Q775 1346 849 1262 Q908 1195 908 1105 Q908 952 723 829 Q670 794 542 729 L837 283 Q903 412 923 524 L962 524 Z M522 758 Q645 818 728 877 Q871 978 871 1104 Q871 1185 815 1245 Q752 1312 634 1312 Q510 1312 439 1231 Q385 1169 385 1083 Q385 1016 412.5 950 Q440 884 522 758 Z M508 712 L489 703 Q343 631 299.5 606 Q256 581 219 549 Q101 443 101 303 Q101 169 191 85 Q281 1 424 1 Q574 1 696 107 Q772 173 813 250 L508 712 Z " />
<glyph glyph-name="quotesingle" unicode="&#x27;" horiz-adv-x="307" d="M240 815 L210 815 L321 1365 L363 1365 L240 815 Z " />
<glyph glyph-name="parenleft" unicode="&#x28;" horiz-adv-x="499" d="M535 1365 Q343 1122 248 888 Q112 552 112 186 Q112 -90 194 -344 L157 -344 Q76 -106 76 196 Q76 851 491 1365 L535 1365 Z " />
<glyph glyph-name="parenright" unicode="&#x29;" horiz-adv-x="499" d="M-24 -344 Q168 -101 263 134 Q399 469 399 835 Q399 1111 317 1365 L354 1365 Q435 1127 435 825 Q435 170 20 -344 L-24 -344 Z " />
<glyph glyph-name="asterisk" unicode="&#x2a;" horiz-adv-x="1174" d="M796 1365 L738 1091 L987 1182 L999 1147 L748 1057 L897 860 L867 836 L710 1048 L517 850 L489 875 L678 1066 L467 1189 L489 1220 L701 1091 L760 1365 L796 1365 Z " />
<glyph glyph-name="plus" unicode="&#x2b;" horiz-adv-x="1174" d="M165 671 L602 671 L602 1108 L640 1108 L640 671 L1082 671 L1082 633 L640 633 L640 196 L602 196 L602 633 L165 633 L165 671 Z " />
<glyph glyph-name="comma" unicode="&#x2c;" horiz-adv-x="366" d="M-9 -205 L-1 -164 Q49 -131 79 -1 Q76 -1 74 -1 Q29 -1 29 50 Q29 71 43 85.5 Q57 100 77 100 Q97 100 110 83.5 Q123 67 123 42 Q123 1 102 -63.5 Q81 -128 56 -160 Q27 -199 -9 -205 Z " />
<glyph glyph-name="hyphen" unicode="&#x2d;" horiz-adv-x="422" d="M431 521 L423 484 L1 484 L9 521 L431 521 Z " />
<glyph glyph-name="period" unicode="&#x2e;" horiz-adv-x="366" d="M85 89 Q103 89 115.5 74.5 Q128 60 128 39 Q128 19 115 4.5 Q102 -10 84 -10 Q66 -10 53 4.5 Q40 19 40 40 Q40 60 53 74.5 Q66 89 85 89 Z " />
<glyph glyph-name="slash" unicode="&#x2f;" horiz-adv-x="689" d="M795 1365 L-173 -344 L-215 -344 L753 1365 L795 1365 Z " />
<glyph glyph-name="zero" unicode="0" horiz-adv-x="1174" d="M724 1332 Q876 1332 974 1253 Q1117 1138 1117 888 Q1117 720 1069.5 538 Q1022 356 946 231 Q787 -29 527 -29 Q323 -29 216 112 Q128 230 128 421 Q128 593 183 787 Q238 981 323 1107 Q475 1332 724 1332 Z M723 1296 Q500 1296 357 1090 Q276 972 221 778 Q166 584 166 415 Q166 256 235 153 Q333 7 526 7 Q680 7 801 115 Q924 226 998 436 Q1079 670 1079 884 Q1079 1115 953 1221 Q864 1296 723 1296 Z " />
<glyph glyph-name="one" unicode="1" horiz-adv-x="1174" d="M870 1304 L593 0 L554 0 L822 1259 Q744 1173 630 1104.5 Q516 1036 414 1014 L423 1058 Q624 1104 824 1304 L870 1304 Z " />
<glyph glyph-name="two" unicode="2" horiz-adv-x="1174" d="M958 37 L950 0 L82 0 Q97 154 210 272 Q274 338 358.5 392.5 Q443 447 658 561 Q874 675 963 755 Q1082 862 1082 1009 Q1082 1140 990.5 1218 Q899 1296 746 1296 Q569 1296 462 1189 Q355 1082 340 889 L300 889 Q314 1061 397 1170 Q517 1331 747 1331 Q884 1331 981 1272 Q1046 1232 1083.5 1161 Q1121 1090 1121 1006 Q1121 844 990 727 Q897 645 679 529 Q460 412 381.5 362 Q303 312 241 249 Q148 155 127 37 L155 37 L231 37 L958 37 Z " />
<glyph glyph-name="three" unicode="3" horiz-adv-x="1174" d="M182 442 Q172 389 172 343 Q172 202 259 113 Q363 9 543 9 Q690 9 803 76 Q868 115 914 183 Q979 279 979 393 Q979 493 917 565 Q841 655 685 667 Q645 670 565 671 L573 709 Q624 706 659 706 Q846 706 953 775 Q1012 812 1045.5 874.5 Q1079 937 1079 1009 Q1079 1123 1006 1197 Q961 1243 888.5 1269 Q816 1295 735 1295 Q510 1295 401 1117 Q348 1030 334 931 L294 931 Q322 1119 439.5 1225.5 Q557 1332 737 1332 Q907 1332 1012 1243.5 Q1117 1155 1117 1013 Q1117 873 1026.5 786.5 Q936 700 773 683 Q884 657 941 596 Q1018 513 1018 394 Q1018 310 982 228 Q946 146 885 88 Q762 -27 539 -27 Q350 -27 241.5 74 Q133 175 133 349 Q133 394 143 442 L182 442 Z " />
<glyph glyph-name="four" unicode="4" horiz-adv-x="1174" d="M1044 377 L1036 340 L800 340 L728 0 L690 0 L762 340 L106 340 L116 385 L956 1304 L1005 1304 L808 377 L1044 377 Z M770 377 L919 1076 L935 1154 Q952 1233 958 1261 Q937 1237 866 1158 L820 1107 L213 441 L174 398 L155 377 L174 377 L231 377 L770 377 Z " />
<glyph glyph-name="five" unicode="5" horiz-adv-x="1174" d="M1153 1304 L1140 1267 L496 1267 L285 712 Q338 774 389 807 Q498 877 646 877 Q864 877 968 735 Q1038 640 1038 506 Q1038 320 932 166 Q799 -27 543 -27 Q364 -27 260 66.5 Q156 160 156 321 Q156 362 162 406 L199 406 Q191 359 191 323 Q191 212 252 130 Q301 64 394 31 Q466 6 548 6 Q695 6 808 91 Q897 158 948.5 269.5 Q1000 381 1000 508 Q1000 676 890 764 Q791 844 644 844 Q532 844 446 801 Q360 758 284 663 L232 663 L470 1304 L1153 1304 Z " />
<glyph glyph-name="six" unicode="6" horiz-adv-x="1174" d="M1121 985 L1081 985 Q1082 1106 1033 1176 Q949 1296 758 1296 Q500 1296 364 1054 Q272 889 208 583 Q254 685 319 748 Q446 871 629 871 Q819 871 931 760 Q1040 652 1040 480 Q1040 263 908 115 Q778 -29 570 -29 Q341 -29 233 132 Q160 242 160 409 Q160 543 197 707 Q234 871 293 999 Q370 1164 479 1246 Q594 1331 758 1331 Q932 1331 1026.5 1240.5 Q1121 1150 1121 985 Z M630 836 Q422 836 300 682 Q197 551 197 389 Q197 250 267 149 Q312 85 381 50 Q468 5 570 5 Q782 5 901 165 Q1003 300 1003 481 Q1003 657 880 756 Q779 836 630 836 Z " />
<glyph glyph-name="seven" unicode="7" horiz-adv-x="1174" d="M1190 1304 L1178 1266 Q927 1012 731 723 Q614 551 535.5 390.5 Q457 230 376 0 L334 0 Q458 387 701 745 Q918 1064 1134 1267 L1111 1267 L1054 1267 L1005 1267 L370 1267 L377 1304 L1190 1304 Z " />
<glyph glyph-name="eight" unicode="8" horiz-adv-x="1174" d="M748 692 Q850 666 904 624 Q1023 533 1023 373 Q1023 226 918 111 Q792 -27 549 -27 Q360 -27 243 49 Q103 141 103 330 Q103 495 211 594.5 Q319 694 515 708 Q409 741 356 797 Q282 877 282 986 Q282 1068 322 1140 Q362 1212 432 1257 Q549 1331 719 1331 Q854 1331 956 1278 Q1026 1243 1064 1178.5 Q1102 1114 1102 1033 Q1102 892 1005 798.5 Q908 705 748 692 Z M724 1296 Q516 1296 412 1196 Q321 1109 321 986 Q321 861 417 789 Q513 717 680 717 Q798 717 890 760 Q969 798 1014 862 Q1065 935 1065 1029 Q1065 1137 995 1205 Q901 1296 724 1296 Z M589 684 Q430 684 312 622 Q142 532 142 328 Q142 146 300 61 Q398 9 555 9 Q706 9 818 78 Q888 121 931 188 Q984 271 984 376 Q984 510 888 590 Q776 684 589 684 Z " />
<glyph glyph-name="nine" unicode="9" horiz-adv-x="1174" d="M127 318 L167 318 Q166 307 166 305 Q166 170 248 91 Q333 8 488 8 Q704 8 837.5 180 Q971 352 1041 721 Q994 617 928 553 Q802 429 616 429 Q432 429 320 539 Q208 649 208 829 Q208 1038 339 1188 Q466 1333 681 1333 Q873 1333 981.5 1218 Q1090 1103 1090 900 Q1090 760 1053 595.5 Q1016 431 957 307 Q874 134 767 56 Q652 -27 487 -27 Q314 -27 220.5 62.5 Q127 152 127 318 Z M682 1297 Q464 1297 346 1136 Q246 998 246 827 Q246 650 365 551 Q467 466 619 466 Q825 466 948 625 Q1052 760 1052 921 Q1052 1058 982 1158 Q938 1220 868 1254 Q779 1297 682 1297 Z " />
<glyph glyph-name="colon" unicode="&#x3a;" horiz-adv-x="400" d="M119 89 Q137 89 149.5 74.5 Q162 60 162 39 Q162 19 149 4.5 Q136 -10 118 -10 Q100 -10 87 4.5 Q74 19 74 40 Q74 60 87 74.5 Q100 89 119 89 Z M278 840 Q296 840 308.5 825.5 Q321 811 321 791 Q321 770 308.5 755.5 Q296 741 277 741 Q259 741 246 755.5 Q233 770 233 791 Q233 811 246 825.5 Q259 840 278 840 Z " />
<glyph glyph-name="semicolon" unicode="&#x3b;" horiz-adv-x="400" d="M25 -205 L33 -164 Q83 -131 113 -1 Q110 -1 108 -1 Q63 -1 63 50 Q63 71 77 85.5 Q91 100 111 100 Q131 100 144 83.5 Q157 67 157 42 Q157 1 136 -63.5 Q115 -128 90 -160 Q61 -199 25 -205 Z M293 893 Q311 893 323.5 878.5 Q336 864 336 844 Q336 823 323.5 808.5 Q311 794 292 794 Q274 794 261 808.5 Q248 823 248 844 Q248 864 261 878.5 Q274 893 293 893 Z " />
<glyph glyph-name="less" unicode="&#x3c;" horiz-adv-x="1024" d="M998 1084 L998 1043 L157 683 L998 322 L998 281 L111 662 L111 704 L998 1084 Z " />
<glyph glyph-name="equal" unicode="&#x3d;" horiz-adv-x="1174" d="M165 806 L1082 806 L1082 768 L165 768 L165 806 Z M165 536 L1082 536 L1082 498 L165 498 L165 536 Z " />
<glyph glyph-name="greater" unicode="&#x3e;" horiz-adv-x="1024" d="M112 281 L112 322 L952 683 L112 1043 L112 1084 L998 704 L998 662 L112 281 Z " />
<glyph glyph-name="question" unicode="&#x3f;" horiz-adv-x="975" d="M398 89 Q416 89 428.5 74.5 Q441 60 441 39 Q441 19 428 4.5 Q415 -10 397 -10 Q379 -10 366 4.5 Q353 19 353 40 Q353 60 366 74.5 Q379 89 398 89 Z M486 347 L448 347 Q473 486 505 550 Q535 609 578 647 Q621 685 750 763 Q877 841 922 925 Q962 1003 962 1085 Q962 1212 876 1286 Q790 1360 642 1360 Q298 1360 257 949 L220 949 Q237 1136 318 1245 Q429 1396 644 1396 Q757 1396 846 1351 Q911 1318 949 1259 Q1000 1183 1000 1081 Q1000 968 942.5 885 Q885 802 751 720 Q650 660 610.5 625.5 Q571 591 544 541 Q517 493 486 347 Z " />
<glyph glyph-name="at" unicode="&#x40;" horiz-adv-x="1875" d="M1395 -139 Q1169 -210 934 -210 Q497 -210 282 44 Q188 156 145 319 Q119 422 119 529 Q119 866 356 1120 Q506 1282 730 1352 Q873 1397 1031 1397 Q1333 1397 1548 1250 Q1732 1125 1807 920 Q1849 807 1849 687 Q1849 470 1730 318 Q1664 233 1563 186 Q1462 139 1345 139 Q1181 139 1181 236 Q1181 253 1194 306 L1201 338 Q1144 261 1119 238 Q1013 138 834 138 Q710 138 643 196 Q576 254 576 361 Q576 427 604.5 479.5 Q633 532 684 560 Q743 593 820 607 Q897 621 1064 631 Q1171 637 1216 665 Q1294 713 1294 834 Q1294 913 1235 955.5 Q1176 998 1066 998 Q941 998 864.5 946.5 Q788 895 765 795 L706 795 Q731 905 810 967 Q904 1041 1058 1041 Q1191 1041 1267.5 989.5 Q1344 938 1344 849 Q1344 815 1325 723 Q1226 254 1226 244 Q1226 182 1345 182 Q1566 182 1687 344 Q1799 495 1799 695 Q1799 864 1712 1011 Q1641 1131 1522.5 1214 Q1404 1297 1257 1331 Q1147 1356 1030 1356 Q789 1356 587 1247 Q385 1138 265 925 Q161 741 161 528 Q161 365 223 220 Q324 -15 575 -111 Q728 -169 936 -169 Q1147 -169 1381 -102 L1395 -139 Z M1262 645 Q1210 607 1170.5 598.5 Q1131 590 943 577 Q782 566 709.5 515.5 Q637 465 637 366 Q637 278 691 229.5 Q745 181 841 181 Q1002 181 1116 295 Q1204 383 1228 492 L1262 645 Z " />
<glyph glyph-name="A" unicode="A" horiz-adv-x="1200" d="M814 1365 L1071 0 L1029 0 L945 452 L252 452 L-28 0 L-75 0 L776 1365 L814 1365 Z M788 1324 Q754 1263 704 1183 L275 489 L938 489 L814 1158 Q793 1273 788 1324 Z " />
<glyph glyph-name="B" unicode="B" horiz-adv-x="1270" d="M358 1365 L787 1365 Q1004 1365 1090 1317 Q1169 1273 1206 1190 Q1231 1133 1231 1066 Q1231 921 1134.5 824 Q1038 727 874 708 Q961 695 1016 668 Q1079 636 1114 576 Q1155 505 1155 416 Q1155 287 1080 180 Q987 48 805 14 Q726 0 597 0 L68 0 L358 1365 Z M389 1328 L260 725 L719 725 Q923 725 1035 791 Q1190 883 1190 1065 Q1190 1226 1060 1290 Q983 1328 793 1328 L389 1328 Z M252 688 L114 37 L565 37 Q725 37 810.5 53 Q896 69 956 110 Q1030 161 1072 242 Q1114 323 1114 416 Q1114 603 941 664 Q874 688 715 688 L252 688 Z " />
<glyph glyph-name="C" unicode="C" horiz-adv-x="1386" d="M1305 485 Q1265 319 1144 183 Q952 -32 656 -32 Q440 -32 299 95 Q132 246 132 523 Q132 757 227 964 Q322 1173 488 1285 Q654 1397 869 1397 Q1075 1397 1206 1298 Q1279 1243 1325 1160 Q1376 1067 1376 976 Q1376 972 1375 957 L1336 957 Q1334 1113 1230 1225 Q1101 1362 869 1362 Q513 1362 318 1052 Q249 943 211 802.5 Q173 662 173 520 Q173 243 352 102 Q477 3 657 3 Q909 3 1085 176 Q1213 302 1265 485 L1305 485 Z " />
<glyph glyph-name="D" unicode="D" horiz-adv-x="1342" d="M358 1365 L751 1365 Q887 1365 972.5 1344 Q1058 1323 1120 1275 Q1293 1139 1293 839 Q1293 699 1254.5 562.5 Q1216 426 1147 318 Q983 64 726 15 Q648 0 473 0 L68 0 L358 1365 Z M389 1328 L114 37 L488 37 Q677 37 769 64 Q1020 136 1157 414 Q1253 609 1253 842 Q1253 1123 1092 1246 Q986 1328 752 1328 L389 1328 Z " />
<glyph glyph-name="E" unicode="E" horiz-adv-x="1154" d="M1227 1365 L1219 1328 L389 1328 L261 729 L1037 729 L1029 692 L253 692 L114 37 L977 37 L969 0 L68 0 L358 1365 L1227 1365 Z " />
<glyph glyph-name="F" unicode="F" horiz-adv-x="1053" d="M1200 1365 L1192 1328 L389 1328 L261 729 L989 729 L981 692 L253 692 L106 0 L68 0 L358 1365 L1200 1365 Z " />
<glyph glyph-name="G" unicode="G" horiz-adv-x="1486" d="M1377 643 L1240 -3 L1201 -3 L1245 205 Q1257 259 1289 382 Q1240 279 1214 238.5 Q1188 198 1142 152 Q958 -32 683 -32 Q395 -32 249 161 Q136 310 136 539 Q136 732 205 909 Q274 1086 395 1205 Q591 1397 875 1397 Q1122 1397 1261 1262 Q1386 1141 1393 953 L1356 953 Q1342 1126 1237 1233 Q1178 1294 1083.5 1327.5 Q989 1361 878 1361 Q694 1361 541 1269 Q312 1132 222 837 Q176 689 176 529 Q176 290 315 143 Q448 3 685 3 Q1020 3 1210 294 Q1294 421 1331 606 L800 606 L807 643 L1377 643 Z " />
<glyph glyph-name="H" unicode="H" horiz-adv-x="1335" d="M1352 1365 L1062 0 L1024 0 L1171 693 L254 693 L106 0 L68 0 L358 1365 L396 1365 L261 730 L1179 730 L1314 1365 L1352 1365 Z " />
<glyph glyph-name="I" unicode="I" horiz-adv-x="380" d="M396 1365 L106 0 L68 0 L358 1365 L396 1365 Z " />
<glyph glyph-name="J" unicode="J" horiz-adv-x="932" d="M969 1365 L758 372 Q726 218 676 140 Q568 -28 337 -28 Q181 -28 95 47.5 Q9 123 9 261 Q9 340 28 422 L67 422 Q48 324 48 257 Q48 154 105 93 Q184 7 337 7 Q518 7 621 130 Q684 205 723 385 L931 1365 L969 1365 Z " />
<glyph glyph-name="K" unicode="K" horiz-adv-x="1255" d="M1354 1365 L590 780 L1152 0 L1106 0 L560 758 L211 494 L106 0 L68 0 L358 1365 L396 1365 L216 540 Q263 579 375 664 L1297 1365 L1354 1365 Z " />
<glyph glyph-name="L" unicode="L" horiz-adv-x="1028" d="M396 1365 L114 37 L906 37 L898 0 L68 0 L358 1365 L396 1365 Z " />
<glyph glyph-name="M" unicode="M" horiz-adv-x="1626" d="M1643 1365 L1353 0 L1315 0 L1546 1089 Q1568 1198 1600 1318 L1584 1294 L1478 1129 L736 0 L688 0 L433 1089 Q401 1227 386 1318 L327 1037 L106 0 L68 0 L358 1365 L412 1365 L663 279 L687 171 L712 61 L717 37 L732 59 Q812 185 869 272 L1588 1365 L1643 1365 Z " />
<glyph glyph-name="N" unicode="N" horiz-adv-x="1370" d="M1387 1365 L1097 0 L1058 0 L510 1075 Q444 1205 388 1326 Q378 1283 343 1113 L324 1024 L106 0 L68 0 L358 1365 L408 1365 L935 323 Q1041 113 1072 43 Q1107 229 1147 417 L1349 1365 L1387 1365 Z " />
<glyph glyph-name="O" unicode="O" horiz-adv-x="1457" d="M861 1399 Q1057 1399 1186 1312 Q1288 1243 1345 1131 Q1410 1004 1410 847 Q1410 720 1376.5 586 Q1343 452 1285 342 Q1083 -35 677 -35 Q461 -35 322 83 Q136 243 136 535 Q136 760 223 959 Q333 1210 535 1319 Q685 1399 861 1399 Z M855 1363 Q573 1363 387 1149 Q265 1009 211 800 Q176 662 176 538 Q176 292 313.5 145.5 Q451 -1 682 -1 Q941 -1 1122 183 Q1242 306 1305 487 Q1369 668 1369 848 Q1369 1042 1270 1176 Q1131 1363 855 1363 Z " />
<glyph glyph-name="P" unicode="P" horiz-adv-x="1182" d="M358 1365 L782 1365 Q909 1365 977.5 1353 Q1046 1341 1094 1311 Q1227 1226 1227 1042 Q1227 872 1120 758 Q1050 684 956 656.5 Q862 629 676 629 L240 629 L106 0 L68 0 L358 1365 Z M389 1328 L248 666 L672 666 Q815 666 892.5 680.5 Q970 695 1028 731 Q1099 777 1141.5 862.5 Q1184 948 1184 1045 Q1184 1216 1053 1287 Q976 1328 778 1328 L389 1328 Z " />
<glyph glyph-name="Q" unicode="Q" horiz-adv-x="1477" d="M1278 -64 L1252 -91 L1061 85 Q891 -32 682 -32 Q420 -32 276 131 Q135 290 135 538 Q135 698 184 854.5 Q233 1011 319 1127 Q418 1260 556.5 1330.5 Q695 1401 858 1401 Q1101 1401 1244 1267 Q1410 1112 1410 843 Q1410 627 1322 424 Q1234 221 1091 106 L1278 -64 Z M847 327 L1064 131 Q1175 221 1243 350 Q1369 588 1369 846 Q1369 970 1325 1076.5 Q1281 1183 1202 1251 Q1070 1365 862 1365 Q624 1365 453 1219 Q289 1079 216 826 Q174 684 174 540 Q174 293 313 149 Q452 5 690 5 Q888 5 1031 111 L822 301 L847 327 Z " />
<glyph glyph-name="R" unicode="R" horiz-adv-x="1261" d="M351 1365 L761 1365 Q969 1365 1051 1329 Q1130 1295 1172 1229 Q1223 1150 1223 1041 Q1223 866 1109.5 760.5 Q996 655 803 649 Q917 632 969 574 Q1030 507 1030 369 Q1030 322 1025 207 Q1024 173 1024 153 Q1024 74 1042 0 L1002 0 Q985 76 985 136 Q985 174 987 216 Q991 328 991 364 Q991 520 910.5 578 Q830 636 616 636 L235 636 L99 0 L61 0 L351 1365 Z M382 1328 L242 673 L661 673 Q904 673 1007 731 Q1085 775 1131 851 Q1183 937 1183 1040 Q1183 1146 1128 1218 Q1079 1282 1000 1305 Q921 1328 752 1328 L382 1328 Z " />
<glyph glyph-name="S" unicode="S" horiz-adv-x="1187" d="M1180 981 L1141 981 Q1142 1003 1142 1022 Q1142 1169 1054 1252 Q945 1354 722 1354 Q479 1354 371 1238 Q287 1149 287 1029 Q287 869 434 793 Q487 766 762 682 Q918 635 982 567 Q1058 488 1058 361 Q1058 270 1016 190 Q902 -26 554 -26 Q300 -26 172 98 Q55 211 55 401 Q55 420 57 459 L95 459 Q94 427 94 411 Q94 206 223 104 Q343 9 554 9 Q779 9 892 100 Q1018 202 1018 360 Q1018 508 896 584 Q865 603 828.5 616 Q792 629 603 688 Q483 725 431.5 748.5 Q380 772 339 808 Q246 889 246 1026 Q246 1168 344 1266 Q467 1390 711 1390 Q914 1390 1029 1320 Q1182 1227 1182 1032 Q1182 1012 1180 981 Z " />
<glyph glyph-name="T" unicode="T" horiz-adv-x="1082" d="M1243 1365 L1235 1328 L750 1328 L468 0 L430 0 L712 1328 L207 1328 L215 1365 L1243 1365 Z " />
<glyph glyph-name="U" unicode="U" horiz-adv-x="1312" d="M1349 1365 L1165 498 Q1136 357 1107 285.5 Q1078 214 1025 150 Q876 -32 587 -32 Q389 -32 273 60 Q209 110 173.5 184.5 Q138 259 138 342 Q138 426 165 551 L338 1365 L376 1365 L198 529 Q177 430 177 355 Q177 171 313 78 Q422 3 585 3 Q871 3 1010 191 Q1049 245 1076 315 Q1103 385 1127 498 L1311 1365 L1349 1365 Z " />
<glyph glyph-name="V" unicode="V" horiz-adv-x="1161" d="M1321 1365 L510 0 L457 0 L215 1365 L255 1365 L449 270 Q461 205 472 133 Q480 75 488 34 Q526 102 605 234 L626 270 L1276 1365 L1321 1365 Z " />
<glyph glyph-name="W" unicode="W" horiz-adv-x="1800" d="M1947 1365 L1255 0 L1205 0 L1109 1025 Q1090 1217 1083 1331 Q1068 1301 1015 1197 L964 1094 L405 0 L354 0 L229 1365 L270 1365 L371 225 L379 140 Q385 64 387 43 Q409 91 469 208 L1059 1365 L1116 1365 L1218 270 L1229 149 Q1236 69 1238 43 Q1250 70 1345 261 L1905 1365 L1947 1365 Z " />
<glyph glyph-name="X" unicode="X" horiz-adv-x="1149" d="M1286 1365 L649 699 L1019 0 L974 0 L697 524 L659 598 Q627 659 621 669 L607 654 L569 615 L518 562 L-20 0 L-75 0 L601 705 L255 1365 L300 1365 L553 880 Q560 868 583 825 Q610 774 630 731 L645 747 Q717 828 775 888 L1231 1365 L1286 1365 Z " />
<glyph glyph-name="Y" unicode="Y" horiz-adv-x="1111" d="M1299 1365 L595 568 L474 0 L436 0 L559 579 L188 1365 L231 1365 L504 783 Q514 761 540 708 Q568 649 584 607 Q626 658 729 774 L1249 1365 L1299 1365 Z " />
<glyph glyph-name="Z" unicode="Z" horiz-adv-x="1129" d="M1205 1365 L1194 1315 L110 146 L64 97 Q19 48 7 37 L28 37 L90 37 L148 37 L980 37 L972 0 L-41 0 L-30 54 L1058 1224 Q1116 1286 1157 1328 L1123 1328 L1076 1328 L1029 1328 L251 1328 L259 1365 L1205 1365 Z " />
<glyph glyph-name="bracketleft" unicode="&#x5b;" horiz-adv-x="499" d="M573 1365 L565 1328 L375 1328 L27 -307 L211 -307 L203 -344 L-19 -344 L344 1365 L573 1365 Z " />
<glyph glyph-name="backslash" unicode="&#x5c;" horiz-adv-x="688" d="M273 1365 L308 1365 L549 -344 L514 -344 L273 1365 Z " />
<glyph glyph-name="bracketright" unicode="&#x5d;" horiz-adv-x="499" d="M-62 -344 L-54 -307 L137 -307 L484 1328 L300 1328 L308 1365 L530 1365 L167 -344 L-62 -344 Z " />
<glyph glyph-name="asciicircum" unicode="&#x5e;" horiz-adv-x="1024" d="M186 805 L134 805 L528 1365 L581 1365 L975 805 L921 805 L552 1334 L186 805 Z " />
<glyph glyph-name="underscore" unicode="&#x5f;" horiz-adv-x="1024" d="M43 -171 L1067 -171 L1067 -213 L43 -213 L43 -171 Z " />
<glyph glyph-name="grave" unicode="&#x60;" horiz-adv-x="1024" d="M731 1133 L687 1133 L464 1401 L512 1401 L731 1133 Z " />
<glyph glyph-name="a" unicode="a" horiz-adv-x="992" d="M883 26 L878 -4 Q846 -9 829 -9 Q734 -9 734 75 Q734 101 761 212 L768 238 L752 216 Q678 116 648 88 Q525 -28 319 -28 Q179 -28 102.5 38 Q26 104 26 225 Q26 324 81 394 Q147 477 310 507 Q384 521 589 533 Q717 540 770 574 Q867 634 867 786 Q867 873 805 918 Q723 978 581 978 Q442 978 351.5 916.5 Q261 855 233 742 L180 742 Q208 858 296 928 Q404 1013 581 1013 Q734 1013 821 954 Q908 895 908 791 Q908 743 780 154 Q767 96 767 71 Q767 21 830 21 Q849 21 883 26 Z M832 576 L820 568 Q753 519 710 509 Q667 499 438 482 Q224 466 143 398 Q65 333 65 222 Q65 99 166 44 Q229 9 328 9 Q519 9 653 144 Q700 191 737 255.5 Q774 320 787 377 L832 576 Z " />
<glyph glyph-name="b" unicode="b" horiz-adv-x="1087" d="M383 1365 L245 714 Q307 850 406 923 Q519 1006 660 1006 Q820 1006 914 901 Q1008 796 1008 618 Q1008 498 970 378.5 Q932 259 864 164 Q726 -29 501 -29 Q301 -29 209 132 Q170 199 158 303 L93 0 L55 0 L345 1365 L383 1365 Z M655 974 Q444 974 311 775 Q188 589 188 362 Q188 225 252 132 Q339 5 501 5 Q594 5 679.5 49.5 Q765 94 827 174 Q892 258 932 382 Q972 506 972 623 Q972 784 886.5 879 Q801 974 655 974 Z " />
<glyph glyph-name="c" unicode="c" horiz-adv-x="1013" d="M895 313 Q839 150 722.5 61.5 Q606 -27 447 -27 Q264 -27 172 90 Q87 198 87 374 Q87 509 132.5 638 Q178 767 255 853 Q396 1009 613 1009 Q771 1009 859.5 925 Q948 841 952 688 L914 688 Q913 806 854 876 Q772 973 611 973 Q370 973 237 764 Q127 593 127 378 Q127 208 209 108 Q291 7 455 7 Q592 7 693.5 84.5 Q795 162 856 313 L895 313 Z " />
<glyph glyph-name="d" unicode="d" horiz-adv-x="1088" d="M1118 1365 L828 0 L790 0 L850 284 Q782 120 667 42 Q562 -29 434 -29 Q284 -29 194 55 Q83 158 83 356 Q83 484 124 607.5 Q165 731 239 826 Q381 1010 604 1010 Q754 1010 840.5 927 Q927 844 937 693 L1080 1365 L1118 1365 Z M602 978 Q406 978 276 817 Q206 730 165 605.5 Q124 481 124 354 Q124 192 204 101 Q288 6 438 6 Q634 6 768 192 Q833 283 872 411.5 Q911 540 911 663 Q911 809 828 893.5 Q745 978 602 978 Z " />
<glyph glyph-name="e" unicode="e" horiz-adv-x="1019" d="M899 324 Q859 195 787 112 Q664 -28 467 -28 Q248 -28 155 129 Q91 236 91 389 Q91 524 132.5 644.5 Q174 765 250 850 Q390 1006 592 1006 Q761 1006 856.5 903 Q952 800 952 618 Q952 564 941 500 L135 500 Q126 450 126 398 Q126 221 201 125 Q295 3 461 3 Q605 3 707.5 85.5 Q810 168 859 324 L899 324 Z M143 537 L907 537 Q914 581 914 616 Q914 725 873 813 Q838 888 768 927 Q691 971 590 971 Q423 971 302 853.5 Q181 736 143 537 Z " />
<glyph glyph-name="f" unicode="f" horiz-adv-x="486" d="M535 979 L527 942 L314 942 L113 0 L75 0 L275 942 L105 942 L112 979 L283 979 L311 1112 Q340 1244 376 1292 Q435 1369 569 1369 Q600 1369 647 1364 L639 1328 Q598 1333 565 1333 Q465 1333 420 1283 Q375 1233 344 1087 L321 979 L535 979 Z " />
<glyph glyph-name="g" unicode="g" horiz-adv-x="1069" d="M1017 979 L826 76 Q782 -130 702 -224 Q588 -360 374 -360 Q191 -360 107 -278 Q32 -204 32 -90 Q32 -79 33 -56 L73 -56 Q73 -70 73 -84 Q73 -324 375 -324 Q567 -324 671 -206 Q714 -158 741.5 -84.5 Q769 -11 800 133 L834 293 Q706 52 464 52 Q339 52 248 114 Q182 158 148 227 Q100 326 100 448 Q100 586 154 711 Q230 886 378 961 Q471 1008 578 1008 Q729 1008 819 924 Q909 840 918 691 L979 979 L1017 979 Z M577 972 Q485 972 402 932 Q319 892 261 819 Q204 748 171.5 647 Q139 546 139 441 Q139 277 227 182 Q315 87 468 87 Q644 87 759 231 Q820 309 857 423 Q894 537 894 649 Q894 835 771 916 Q687 972 577 972 Z " />
<glyph glyph-name="h" unicode="h" horiz-adv-x="1057" d="M383 1365 L250 739 Q335 873 400 921 Q515 1006 663 1006 Q784 1006 866 943 Q954 876 954 760 Q954 701 922 551 L805 0 L767 0 L886 559 Q915 697 915 761 Q915 856 844.5 913.5 Q774 971 657 971 Q428 971 296 762 Q234 663 199 500 L93 0 L55 0 L345 1365 L383 1365 Z " />
<glyph glyph-name="i" unicode="i" horiz-adv-x="352" d="M301 979 L93 0 L55 0 L263 979 L301 979 Z M343 1319 Q361 1319 373.5 1304.5 Q386 1290 386 1269 Q386 1249 373.5 1234.5 Q361 1220 342 1220 Q324 1220 311 1234.5 Q298 1249 298 1270 Q298 1290 311 1304.5 Q324 1319 343 1319 Z " />
<glyph glyph-name="j" unicode="j" horiz-adv-x="351" d="M299 979 L75 -76 Q52 -183 41.5 -214 Q31 -245 10 -273 Q-44 -340 -162 -340 Q-183 -340 -222 -337 L-214 -300 Q-182 -306 -158 -306 Q-63 -306 -18 -245 Q-1 -221 7.5 -193.5 Q16 -166 48 -26 L261 979 L299 979 Z M341 1319 Q359 1319 371.5 1304.5 Q384 1290 384 1269 Q384 1248 371.5 1234 Q359 1220 340 1220 Q322 1220 309 1234.5 Q296 1249 296 1270 Q296 1290 309 1304.5 Q322 1319 341 1319 Z " />
<glyph glyph-name="k" unicode="k" horiz-adv-x="984" d="M383 1365 L208 539 Q188 446 182 418 Q199 432 267 483 L919 979 L978 979 L444 574 L848 0 L800 0 L415 551 L171 367 L93 0 L55 0 L345 1365 L383 1365 Z " />
<glyph glyph-name="l" unicode="l" horiz-adv-x="352" d="M383 1365 L93 0 L55 0 L345 1365 L383 1365 Z " />
<glyph glyph-name="m" unicode="m" horiz-adv-x="1573" d="M301 979 L253 752 Q386 1006 606 1006 Q694 1006 759 962 Q850 901 850 780 Q850 761 849 736 Q967 1006 1202 1006 Q1290 1006 1362 965 Q1472 901 1472 766 Q1472 711 1447 593 L1321 0 L1282 0 L1413 615 Q1433 708 1433 765 Q1433 857 1367 914 Q1301 971 1195 971 Q1060 971 965 867 Q870 763 829 571 L708 0 L670 0 L798 603 Q816 690 816 760 Q816 855 757 912.5 Q698 970 600 970 Q458 970 353.5 851 Q249 732 204 520 L93 0 L55 0 L264 979 L301 979 Z " />
<glyph glyph-name="n" unicode="n" horiz-adv-x="1049" d="M302 980 L252 748 Q319 860 394 918 Q507 1006 657 1006 Q764 1006 844 952 Q944 885 944 762 Q944 694 913 549 L796 0 L758 0 L878 565 Q906 695 906 762 Q906 851 832.5 911 Q759 971 650 971 Q565 971 486.5 934 Q408 897 348 830 Q288 762 256 689 Q224 616 196 482 L93 0 L55 0 L263 980 L302 980 Z " />
<glyph glyph-name="o" unicode="o" horiz-adv-x="1053" d="M610 1008 Q781 1008 882 897 Q972 798 972 625 Q972 460 908 303 Q831 113 688 29 Q587 -30 465 -30 Q282 -30 183 76 Q139 125 113 204 Q87 283 87 372 Q87 528 147 675 Q222 861 366 945 Q475 1008 610 1008 Z M607 972 Q391 972 262 803 Q200 722 163.5 605.5 Q127 489 127 372 Q127 176 234 83 Q322 6 463 6 Q668 6 796 177 Q856 257 894.5 385 Q933 513 933 634 Q933 801 833 893 Q747 972 607 972 Z " />
<glyph glyph-name="p" unicode="p" horiz-adv-x="1084" d="M300 979 L243 711 Q303 845 395 917 Q509 1006 657 1006 Q818 1006 912.5 901 Q1007 796 1007 618 Q1007 378 875 182 Q802 74 696 20 Q602 -27 499 -27 Q304 -27 212 125 Q162 208 162 308 Q162 315 162 328 L19 -344 L-19 -344 L262 979 L300 979 Z M650 971 Q513 971 407 882 Q297 790 236 626 Q186 489 186 356 Q186 278 212.5 206.5 Q239 135 285 90 Q369 7 505 7 Q724 7 859 225 Q969 401 969 616 Q969 783 884.5 877 Q800 971 650 971 Z " />
<glyph glyph-name="q" unicode="q" horiz-adv-x="1088" d="M1036 979 L755 -344 L717 -344 L850 284 Q782 120 667 42 Q562 -29 434 -29 Q284 -29 194 55 Q83 158 83 356 Q83 484 124 607.5 Q165 731 239 826 Q381 1010 604 1010 Q754 1010 840.5 927 Q927 844 937 693 L998 979 L1036 979 Z M602 978 Q406 978 276 817 Q206 730 165 605.5 Q124 481 124 354 Q124 192 204 101 Q288 6 438 6 Q634 6 768 192 Q833 283 872 411.5 Q911 540 911 663 Q911 809 828 893.5 Q745 978 602 978 Z " />
<glyph glyph-name="r" unicode="r" horiz-adv-x="564" d="M684 979 L675 939 Q643 942 616 942 Q433 942 313 774 Q268 711 239 629.5 Q210 548 176 389 L93 0 L55 0 L263 979 L301 979 L245 715 Q325 858 413 920.5 Q501 983 623 983 Q649 983 684 979 Z " />
<glyph glyph-name="s" unicode="s" horiz-adv-x="873" d="M813 694 L773 694 Q776 720 776 741 Q776 971 482 971 Q355 971 279 917 Q195 857 195 752 Q195 658 265 611 Q313 578 452 528 Q553 491 597 469 Q641 447 673 417 Q741 354 741 255 Q741 128 639.5 50 Q538 -28 373 -28 Q200 -28 114 43 Q18 123 18 268 Q18 296 23 335 L63 335 Q58 297 58 267 Q58 142 140 75 Q222 8 376 8 Q503 8 592 63 Q701 130 701 253 Q701 337 648 385 Q595 433 442 487 Q285 543 233 582 Q152 642 152 748 Q152 868 243 937.5 Q334 1007 490 1007 Q673 1007 759 912 Q815 850 815 747 Q815 724 813 694 Z " />
<glyph glyph-name="t" unicode="t" horiz-adv-x="521" d="M533 979 L525 942 L307 942 L159 245 Q140 154 140 121 Q140 31 264 31 Q311 31 365 43 L357 4 Q306 -4 256 -4 Q101 -4 101 111 Q101 151 121 245 L269 942 L83 942 L91 979 L277 979 L343 1292 L381 1292 L315 979 L533 979 Z " />
<glyph glyph-name="u" unicode="u" horiz-adv-x="1036" d="M985 979 L777 0 L739 0 L790 243 Q655 -27 410 -27 Q294 -27 210 31 Q164 63 138 114 Q112 165 112 223 Q112 300 139 425 L256 979 L295 979 L173 409 Q150 299 150 233 Q150 131 225 70 Q301 8 411 8 Q578 8 696 153 Q798 278 843 489 L947 979 L985 979 Z " />
<glyph glyph-name="v" unicode="v" horiz-adv-x="823" d="M914 979 L354 0 L304 0 L119 979 L160 979 L305 193 Q308 176 318 125 Q327 80 334 39 L412 176 L869 979 L914 979 Z " />
<glyph glyph-name="w" unicode="w" horiz-adv-x="1411" d="M1489 979 L963 0 L914 0 L826 725 Q818 789 805 911 L801 945 Q772 888 708 768 L298 0 L245 0 L133 979 L173 979 L253 253 Q271 96 277 33 Q314 110 391 253 L777 979 L834 979 L920 277 Q941 104 944 33 Q963 76 1058 253 L1446 979 L1489 979 Z " />
<glyph glyph-name="x" unicode="x" horiz-adv-x="847" d="M893 979 L448 506 L731 0 L685 0 L508 321 L444 436 L418 483 Q356 413 293 347 L-39 0 L-89 0 L400 512 L141 979 L186 979 L342 696 Q415 565 430 537 Q533 648 555 672 L844 979 L893 979 Z " />
<glyph glyph-name="y" unicode="y" horiz-adv-x="832" d="M924 979 L347 -29 Q243 -210 192 -264 Q155 -303 108 -319 Q61 -335 -15 -335 Q-32 -335 -50 -335 L-42 -299 Q-21 -298 -10 -298 Q67 -297 108 -280 Q149 -263 183 -217 Q226 -159 318 -1 L119 979 L158 979 L305 263 L318 198 Q340 82 347 42 Q376 100 477 275 L879 979 L924 979 Z " />
<glyph glyph-name="z" unicode="z" horiz-adv-x="807" d="M885 979 L876 932 L99 146 Q52 99 -17 36 Q2 35 8 35 L118 37 L685 37 L677 0 L-61 0 L-50 50 L691 799 Q820 926 839 942 L788 942 L700 942 L161 942 L169 979 L885 979 Z " />
<glyph glyph-name="braceleft" unicode="&#x7b;" horiz-adv-x="497" d="M120 508 Q211 472 211 373 Q211 335 200 283 L121 -91 Q109 -145 109 -193 Q109 -266 169 -297 Q199 -313 262 -317 L256 -344 Q70 -340 70 -201 Q70 -142 93 -33 L162 292 Q173 342 173 379 Q173 425 154 451 Q135 477 86 497 L90 519 Q164 544 199.5 588.5 Q235 633 254 725 L333 1095 Q361 1224 409 1280 Q483 1365 610 1365 Q613 1365 619 1365 L613 1338 Q522 1330 475 1297 Q405 1248 379 1124 L294 726 Q274 630 236.5 583.5 Q199 537 120 508 Z " />
<glyph glyph-name="bar" unicode="&#x7c;" horiz-adv-x="1024" d="M535 1365 L575 1365 L575 -341 L535 -341 L535 1365 Z " />
<glyph glyph-name="braceright" unicode="&#x7d;" horiz-adv-x="497" d="M388 513 Q297 549 297 648 Q297 685 308 738 L388 1112 Q399 1165 399 1214 Q399 1287 339 1318 Q309 1334 247 1338 L252 1365 Q438 1361 438 1222 Q438 1162 415 1054 L346 729 Q335 678 335 642 Q335 596 354 570 Q373 544 423 524 L418 502 Q345 477 309 432.5 Q273 388 254 296 L175 -74 Q148 -203 99 -259 Q26 -344 -102 -344 Q-105 -344 -111 -344 L-105 -317 Q-14 -309 33 -276 Q103 -227 129 -103 L214 295 Q234 391 271.5 437.5 Q309 484 388 513 Z " />
<glyph glyph-name="asciitilde" unicode="&#x7e;" horiz-adv-x="1365" d="M273 1235 L239 1256 Q298 1357 357.5 1401.5 Q417 1446 494 1446 Q575 1446 737 1357 Q826 1308 870 1291.5 Q914 1275 956 1275 Q1022 1275 1072 1314.5 Q1122 1354 1178 1450 L1212 1429 Q1153 1327 1093.5 1282.5 Q1034 1238 958 1238 Q909 1238 857 1258.5 Q805 1279 676 1348 Q562 1410 493 1410 Q430 1410 378.5 1369.5 Q327 1329 273 1235 Z " />
<glyph glyph-name="nbspace" unicode="&#xa0;" horiz-adv-x="512" d="" />
<glyph glyph-name="exclamdown" unicode="&#xa1;" horiz-adv-x="462" d="M296 933 Q314 933 326.5 918.5 Q339 904 339 884 Q339 863 326 848.5 Q313 834 295 834 Q277 834 264 848.5 Q251 863 251 884 Q251 904 264 918.5 Q277 933 296 933 Z M7 -386 L224 633 L262 633 L45 -386 L7 -386 Z " />
<glyph glyph-name="cent" unicode="&#xa2;" horiz-adv-x="1174" d="M1064 870 L1026 870 Q1024 1004 943 1078 Q867 1147 748 1152 L543 190 Q838 183 969 494 L1007 494 Q975 395 896 303 Q828 224 733 187 Q649 155 571 155 Q560 155 536 156 L492 -50 L454 -50 L498 156 Q373 173 302 247 Q199 355 199 555 Q199 712 260.5 858.5 Q322 1005 422 1085 Q546 1184 718 1189 L753 1353 L791 1353 L756 1189 Q901 1177 982.5 1092.5 Q1064 1008 1064 870 Z M710 1152 Q506 1143 387 999 Q317 913 277.5 797.5 Q238 682 238 559 Q238 378 331 276 Q396 204 506 193 L710 1152 Z " />
<glyph glyph-name="sterling" unicode="&#xa3;" horiz-adv-x="1174" d="M738 654 L730 617 L436 617 Q456 534 456 473 Q456 362 401 268.5 Q346 175 210 53 Q299 86 361 86 Q414 86 446.5 78.5 Q479 71 615 28 Q686 5 751 5 Q913 5 1027 163 L1056 140 Q932 -31 745 -31 Q698 -31 666.5 -23.5 Q635 -16 494 28 Q424 50 353 50 Q230 50 132 -28 L107 3 Q194 78 251 135 Q417 301 417 480 Q417 537 395 617 L216 617 L224 654 L385 654 Q314 818 314 956 Q314 1121 443 1231 Q561 1331 754 1331 Q955 1331 1060.5 1233 Q1166 1135 1166 948 Q1166 937 1165 914 L1128 914 Q1129 935 1129 941 Q1129 1109 1046 1194 Q945 1297 756 1297 Q546 1297 434 1169 Q354 1077 354 948 Q354 825 425 654 L738 654 Z " />
<glyph glyph-name="currency" unicode="&#xa4;" horiz-adv-x="1365" d="M227 224 L403 401 Q283 537 283 703 Q283 867 396 999 L219 1177 L247 1205 L424 1028 Q557 1148 729 1148 Q903 1148 1032 1029 L1211 1205 L1239 1177 L1062 1000 Q1174 868 1174 703 Q1174 533 1058 405 L1239 224 L1211 196 L1030 377 Q896 260 729 260 Q561 260 432 373 L254 196 L227 224 Z M734 1111 Q560 1111 441 990 Q323 871 323 702 Q323 535 442 416 Q561 297 729 297 Q897 297 1017 417 Q1135 535 1135 702 Q1135 874 1017 990 Q895 1111 734 1111 Z " />
<glyph glyph-name="yen" unicode="&#xa5;" horiz-adv-x="1174" d="M563 456 L212 456 L220 492 L570 492 L589 580 L538 715 L226 715 L234 751 L524 751 L316 1304 L356 1304 L614 613 L1154 1304 L1207 1304 L770 751 L1054 751 L1046 715 L741 715 L625 569 L609 492 L958 492 L950 456 L601 456 L504 0 L466 0 L563 456 Z " />
<glyph glyph-name="brokenbar" unicode="&#xa6;" horiz-adv-x="1024" d="M535 1365 L575 1365 L575 710 L535 710 L535 1365 Z M535 314 L575 314 L575 -341 L535 -341 L535 314 Z " />
<glyph glyph-name="section" unicode="&#xa7;" horiz-adv-x="1174" d="M1015 993 L975 993 Q979 1022 979 1044 Q979 1163 904 1230 Q829 1297 702 1297 Q589 1297 518 1236 Q447 1175 447 1078 Q447 1011 485 960 Q514 922 632 820 Q843 637 892 580 Q980 478 980 371 Q980 262 906.5 186.5 Q833 111 708 91 Q781 11 781 -85 Q781 -197 693.5 -270 Q606 -343 471 -343 Q320 -343 232 -258 Q146 -175 146 -48 Q146 -22 151 12 L191 12 Q185 -21 185 -48 Q185 -147 245 -218 Q321 -308 478 -308 Q603 -308 675 -239 Q741 -176 741 -86 Q741 -20 708.5 29.5 Q676 79 568 177 Q339 387 273 473.5 Q207 560 207 651 Q207 757 280 835.5 Q353 914 463 927 Q410 1005 410 1078 Q410 1191 491 1261 Q572 1331 702 1331 Q868 1331 953 1230 Q1018 1154 1018 1042 Q1018 1027 1015 993 Z M747 669 L486 898 Q485 899 483 899 Q458 897 417 882.5 Q376 868 355 852 Q304 816 275 761.5 Q246 707 246 649 Q246 586 284.5 524 Q323 462 421 369 L682 121 Q684 119 686 119 Q693 119 757 139 Q805 153 822.5 163 Q840 173 867 200 Q941 274 941 370 Q941 462 861 555 Q816 608 747 669 Z " />
<glyph glyph-name="dieresis" unicode="&#xa8;" horiz-adv-x="1024" d="M504 1318 Q522 1318 534.5 1303.5 Q547 1289 547 1269 Q547 1248 534.5 1233.5 Q522 1219 503 1219 Q485 1219 472 1233.5 Q459 1248 459 1269 Q459 1289 472 1303.5 Q485 1318 504 1318 Z M825 1318 Q843 1318 855.5 1303.5 Q868 1289 868 1269 Q868 1248 855.5 1233.5 Q843 1219 824 1219 Q806 1219 793 1233.5 Q780 1248 780 1269 Q780 1289 793 1303.5 Q806 1318 825 1318 Z " />
<glyph glyph-name="copyright" unicode="&#xa9;" horiz-adv-x="1633" d="M1235 603 Q1227 506 1183 433 Q1133 349 1048.5 302 Q964 255 860 255 Q685 255 576 373 Q467 491 467 681 Q467 866 571 984 Q682 1111 865 1111 Q1005 1111 1103.5 1034 Q1202 957 1219 835 L1183 835 Q1182 840 1179 854 Q1159 950 1069.5 1012 Q980 1074 862 1074 Q703 1074 604.5 965.5 Q506 857 506 681 Q506 524 583 424 Q685 292 860 292 Q1000 292 1090.5 375.5 Q1181 459 1199 603 L1235 603 Z M870 1397 Q1053 1397 1216 1301 Q1382 1203 1477 1040 Q1573 875 1573 683 Q1573 492 1477 326 Q1382 160 1216 65 Q1050 -31 859 -31 Q668 -31 502 65 Q336 161 241 326 Q145 493 145 689 Q145 997 382 1213 Q583 1397 870 1397 Z M870 1358 Q560 1358 358 1134 Q184 943 184 688 Q184 502 274 345 Q365 189 522 98 Q678 8 859 8 Q1040 8 1196 98 Q1354 189 1444 345 Q1534 503 1534 683 Q1534 980 1310 1184 Q1206 1279 1072 1323 Q964 1358 870 1358 Z " />
<glyph glyph-name="ordfeminine" unicode="&#xaa;" horiz-adv-x="783" d="M726 622 L117 622 L125 661 L734 661 L726 622 Z M287 1200 Q314 1296 369 1338 Q424 1380 522 1380 Q607 1380 655.5 1344.5 Q704 1309 704 1246 Q704 1216 690 1156 L657 999 Q648 957 647 953 Q635 904 635 881 Q635 854 663 854 Q680 854 705 859 L698 824 Q669 818 649 818 Q596 818 596 874 Q596 886 599 905 Q549 849 500.5 826 Q452 803 384 803 Q290 803 242 855 Q207 894 207 951 Q207 1001 234.5 1042 Q262 1083 308 1101 Q345 1115 378.5 1119.5 Q412 1124 526 1130 Q615 1135 641 1155 Q667 1175 667 1239 Q667 1345 516 1345 Q435 1345 390.5 1311.5 Q346 1278 324 1200 L287 1200 Z M646 1120 Q606 1104 588 1101.5 Q570 1099 455 1093 Q353 1087 311 1066 Q280 1051 261.5 1021 Q243 991 243 956 Q243 901 281 869.5 Q319 838 384 838 Q586 838 637 1077 L646 1120 Z " />
<glyph glyph-name="guillemotleft" unicode="&#xab;" horiz-adv-x="637" d="M373 784 L360 722 L149 505 L265 276 L253 222 L113 497 L119 524 L373 784 Z M565 784 L551 722 L340 505 L457 278 L445 221 L305 497 L311 526 L565 784 Z " />
<glyph glyph-name="logicalnot" unicode="&#xac;" horiz-adv-x="1024" d="M958 0 L958 509 L110 509 L110 546 L998 546 L998 0 L958 0 Z " />
<glyph glyph-name="uni00AD" unicode="&#xad;" horiz-adv-x="422" d="M431 521 L423 484 L1 484 L9 521 L431 521 Z " />
<glyph glyph-name="registered" unicode="&#xae;" horiz-adv-x="1076" d="M479 1197 L666 1197 Q739 1197 778 1164.5 Q817 1132 817 1071 Q817 1001 755 965 Q788 947 798.5 922.5 Q809 898 812 827 Q814 775 817 768 L829 743 L787 743 Q775 762 772 829 Q770 882 765 899.5 Q760 917 744 927 Q719 944 653 944 L521 944 L521 743 L479 743 L479 1197 Z M521 1158 L521 983 L648 983 Q775 983 775 1071 Q775 1158 659 1158 L521 1158 Z M640 1361 Q480 1361 367 1249 Q255 1138 255 970 Q255 800 367 689 Q480 578 640 578 Q802 578 913 689 Q1025 801 1025 967 Q1025 1135 913 1250 Q804 1361 640 1361 Z M641 1400 Q820 1400 942 1277 Q1065 1152 1065 971 Q1065 785 942 662 Q819 539 641 539 Q464 539 340 662 Q216 784 216 973 Q216 1153 340 1277 Q463 1400 641 1400 Z " />
<glyph glyph-name="overscore" unicode="&#xaf;" horiz-adv-x="1024" d="M921 1272 L913 1237 L393 1237 L401 1272 L921 1272 Z " />
<glyph glyph-name="degree" unicode="&#xb0;" horiz-adv-x="832" d="M545 1344 Q653 1344 729.5 1266.5 Q806 1189 806 1079 Q806 971 730 894 Q654 816 545 816 Q426 816 347 902 Q278 977 278 1082 Q278 1204 367 1278 Q446 1344 545 1344 Z M540 1305 Q454 1305 392 1247 Q317 1178 317 1081 Q317 996 372 932 Q439 855 543 855 Q633 855 699 919 Q767 985 767 1076 Q767 1173 701 1238 Q634 1305 540 1305 Z " />
<glyph glyph-name="plusminus" unicode="&#xb1;" horiz-adv-x="1174" d="M165 671 L602 671 L602 1108 L640 1108 L640 671 L1082 671 L1082 633 L640 633 L640 196 L602 196 L602 633 L165 633 L165 671 Z M165 106 L1082 106 L1082 68 L165 68 L165 106 Z " />
<glyph glyph-name="twosuperior" unicode="&#xb2;" horiz-adv-x="751" d="M688 583 L680 546 L136 546 Q146 650 215 717.5 Q284 785 491 890 Q620 957 674 1003 Q742 1063 742 1144 Q742 1219 687.5 1264 Q633 1309 541 1309 Q435 1309 373.5 1246.5 Q312 1184 304 1070 L265 1070 Q275 1201 348.5 1273 Q422 1345 545 1345 Q631 1345 692 1309 Q733 1285 757 1241 Q781 1197 781 1146 Q781 1061 723.5 1000.5 Q666 940 509 859 Q326 764 273 721 Q232 687 213.5 659 Q195 631 181 583 L190 583 L237 583 L688 583 Z " />
<glyph glyph-name="threesuperior" unicode="&#xb3;" horiz-adv-x="750" d="M213 822 Q206 786 206 758 Q206 671 266.5 618.5 Q327 566 427 566 Q515 566 582 605 Q628 631 655.5 679.5 Q683 728 683 782 Q683 891 572 928 Q533 941 428 941 L436 979 Q472 977 496 977 Q607 977 669 1016 Q741 1060 741 1146 Q741 1211 697 1253 Q639 1309 536 1309 Q439 1309 376 1251.5 Q313 1194 301 1095 L262 1095 Q279 1214 352 1280 Q425 1346 541 1346 Q647 1346 713.5 1291.5 Q780 1237 780 1150 Q780 998 602 954 Q722 905 722 785 Q722 676 639 600 Q562 530 422 530 Q304 530 235.5 591.5 Q167 653 167 759 Q167 787 174 822 L213 822 Z " />
<glyph glyph-name="acute" unicode="&#xb4;" horiz-adv-x="1024" d="M939 1401 L632 1133 L583 1133 L883 1401 L939 1401 Z " />
<glyph glyph-name="mu" unicode="&#xb5;" horiz-adv-x="1036" d="M-32 -333 L248 983 L287 983 L161 391 Q139 285 139 240 Q139 118 228 54 Q295 6 396 6 Q551 6 674.5 122 Q798 238 837 421 L956 983 L996 983 L787 0 L747 0 L796 231 Q634 -31 386 -31 Q281 -31 214.5 11 Q148 53 109 144 L8 -333 L-32 -333 Z " />
<glyph glyph-name="paragraph" unicode="&#xb6;" horiz-adv-x="1174" d="M400 -232 L583 632 Q558 631 549 631 Q426 631 346 685 Q232 762 232 915 Q232 1032 301 1142 Q440 1365 750 1365 L1201 1365 L1193 1329 L1062 1329 L730 -232 L691 -232 L1023 1329 L771 1329 L439 -232 L400 -232 Z " />
<glyph glyph-name="periodcentered" unicode="&#xb7;" horiz-adv-x="366" d="M172 498 Q190 498 202.5 483.5 Q215 469 215 449 Q215 428 202.5 413.5 Q190 399 171 399 Q153 399 140 413.5 Q127 428 127 449 Q127 469 140 483.5 Q153 498 172 498 Z " />
<glyph glyph-name="cedilla" unicode="&#xb8;" horiz-adv-x="1024" d="M474 0 L368 -113 Q407 -105 431 -105 Q493 -105 532 -138 Q571 -171 571 -223 Q571 -283 519.5 -322 Q468 -361 388 -361 Q308 -361 215 -318 L231 -284 Q328 -325 394 -325 Q453 -325 491.5 -297 Q530 -269 530 -226 Q530 -188 498 -164 Q466 -140 416 -140 Q370 -140 320 -165 L295 -144 L430 0 L474 0 Z " />
<glyph glyph-name="onesuperior" unicode="&#xb9;" horiz-adv-x="751" d="M629 1329 L463 546 L425 546 L579 1272 Q457 1166 334 1142 L343 1182 Q467 1209 590 1329 L629 1329 Z " />
<glyph glyph-name="ordmasculine" unicode="&#xba;" horiz-adv-x="783" d="M726 622 L117 622 L125 661 L734 661 L726 622 Z M540 1381 Q639 1381 699 1319 Q754 1262 754 1163 Q754 1008 670 905.5 Q586 803 459 803 Q328 803 273 890 Q236 948 236 1031 Q236 1184 321.5 1282.5 Q407 1381 540 1381 Z M535 1346 Q418 1346 347 1258 Q275 1168 275 1034 Q275 928 335 878 Q385 838 462 838 Q575 838 643 927 Q676 969 696.5 1035.5 Q717 1102 717 1165 Q717 1256 660 1305 Q612 1346 535 1346 Z " />
<glyph glyph-name="guillemotright" unicode="&#xbb;" horiz-adv-x="636" d="M201 784 L341 511 L334 480 L81 221 L95 285 L305 502 L189 728 L201 784 Z M392 784 L533 509 L527 481 L272 223 L286 286 L496 501 L380 729 L392 784 Z " />
<glyph glyph-name="onequarter" unicode="&#xbc;" horiz-adv-x="1784" d="M629 1329 L463 546 L425 546 L579 1272 Q457 1166 334 1142 L343 1182 Q467 1209 590 1329 L629 1329 Z M1379 1329 L525 0 L483 0 L1337 1329 L1379 1329 Z M1656 237 L1649 200 L1505 200 L1462 0 L1424 0 L1467 200 L1066 200 L1074 237 L1587 783 L1629 783 L1513 237 L1656 237 Z M1474 237 L1560 641 Q1572 697 1578 726 L1513 655 L1121 237 L1474 237 Z " />
<glyph glyph-name="onehalf" unicode="&#xbd;" horiz-adv-x="1784" d="M629 1329 L463 546 L425 546 L579 1272 Q457 1166 334 1142 L343 1182 Q467 1209 590 1329 L629 1329 Z M1379 1329 L525 0 L483 0 L1337 1329 L1379 1329 Z M1606 37 L1598 0 L1054 0 Q1064 104 1133.5 171.5 Q1203 239 1409 344 Q1539 411 1592 457 Q1660 517 1660 598 Q1660 673 1605.5 718 Q1551 763 1459 763 Q1353 763 1291.5 700.5 Q1230 638 1223 524 L1184 524 Q1193 655 1266.5 727 Q1340 799 1463 799 Q1549 799 1610 763 Q1651 739 1675 695 Q1699 651 1699 600 Q1699 515 1641.5 454.5 Q1584 394 1427 313 Q1243 218 1191 175 Q1151 141 1132 113 Q1113 85 1099 37 L1109 37 L1155 37 L1606 37 Z " />
<glyph glyph-name="threequarters" unicode="&#xbe;" horiz-adv-x="1784" d="M213 822 Q206 786 206 758 Q206 671 266.5 618.5 Q327 566 427 566 Q515 566 582 605 Q628 631 655.5 679.5 Q683 728 683 782 Q683 891 572 928 Q533 941 428 941 L436 979 Q472 977 496 977 Q607 977 669 1016 Q741 1060 741 1146 Q741 1211 697 1253 Q639 1309 536 1309 Q439 1309 376 1251.5 Q313 1194 301 1095 L262 1095 Q279 1214 352 1280 Q425 1346 541 1346 Q647 1346 713.5 1291.5 Q780 1237 780 1150 Q780 998 602 954 Q722 905 722 785 Q722 676 639 600 Q562 530 422 530 Q304 530 235.5 591.5 Q167 653 167 759 Q167 787 174 822 L213 822 Z M1379 1329 L525 0 L483 0 L1337 1329 L1379 1329 Z M1656 237 L1649 200 L1505 200 L1462 0 L1424 0 L1467 200 L1066 200 L1074 237 L1587 783 L1629 783 L1513 237 L1656 237 Z M1474 237 L1560 641 Q1572 697 1578 726 L1513 655 L1121 237 L1474 237 Z " />
<glyph glyph-name="questiondown" unicode="&#xbf;" horiz-adv-x="975" d="M565 933 Q583 933 595.5 918.5 Q608 904 608 884 Q608 863 595.5 848.5 Q583 834 564 834 Q546 834 533 848.5 Q520 863 520 884 Q520 904 533 918.5 Q546 933 565 933 Z M493 632 L531 632 Q506 492 474 429 Q444 369 401 331.5 Q358 294 229 215 Q102 138 58 54 Q17 -24 17 -106 Q17 -233 103 -307 Q189 -381 337 -381 Q678 -381 722 30 L759 30 Q741 -158 661 -267 Q550 -417 335 -417 Q223 -417 133 -372 Q68 -339 29 -280 Q-21 -204 -21 -102 Q-21 11 36.5 94 Q94 177 228 258 Q329 319 368.5 353.5 Q408 388 435 437 Q454 472 459 488.5 Q464 505 493 632 Z " />
<glyph glyph-name="Agrave" unicode="&#xc0;" horiz-adv-x="1200" d="M814 1365 L1071 0 L1029 0 L945 452 L252 452 L-28 0 L-75 0 L776 1365 L814 1365 Z M788 1324 Q754 1263 704 1183 L275 489 L938 489 L814 1158 Q793 1273 788 1324 Z M596 1729 L645 1729 L891 1481 L843 1481 L596 1729 Z " />
<glyph glyph-name="Aacute" unicode="&#xc1;" horiz-adv-x="1200" d="M814 1365 L1071 0 L1029 0 L945 452 L252 452 L-28 0 L-75 0 L776 1365 L814 1365 Z M788 1324 Q754 1263 704 1183 L275 489 L938 489 L814 1158 Q793 1273 788 1324 Z M1112 1729 L779 1481 L730 1481 L1056 1729 L1112 1729 Z " />
<glyph glyph-name="Acircumflex" unicode="&#xc2;" horiz-adv-x="1200" d="M814 1365 L1071 0 L1029 0 L945 452 L252 452 L-28 0 L-75 0 L776 1365 L814 1365 Z M788 1324 Q754 1263 704 1183 L275 489 L938 489 L814 1158 Q793 1273 788 1324 Z M1081 1481 L1030 1481 L845 1699 L596 1481 L543 1481 L820 1729 L872 1729 L1081 1481 Z " />
<glyph glyph-name="Atilde" unicode="&#xc3;" horiz-adv-x="1201" d="M814 1365 L1071 0 L1029 0 L945 452 L252 452 L-28 0 L-75 0 L776 1365 L814 1365 Z M788 1324 Q754 1263 704 1183 L275 489 L938 489 L814 1158 Q793 1273 788 1324 Z M1094 1669 Q1048 1519 950 1519 Q917 1519 894 1531.5 Q871 1544 780 1610 Q741 1638 705 1638 Q631 1638 598 1522 L559 1522 Q577 1594 616.5 1635.5 Q656 1677 707 1677 Q739 1677 766 1662.5 Q793 1648 873 1589 Q918 1556 951 1556 Q1015 1556 1055 1669 L1094 1669 Z " />
<glyph glyph-name="Adieresis" unicode="&#xc4;" horiz-adv-x="1200" d="M814 1365 L1071 0 L1029 0 L945 452 L252 452 L-28 0 L-75 0 L776 1365 L814 1365 Z M788 1324 Q754 1263 704 1183 L275 489 L938 489 L814 1158 Q793 1273 788 1324 Z M643 1663 Q661 1663 673.5 1648.5 Q686 1634 686 1614 Q686 1593 673.5 1578.5 Q661 1564 642 1564 Q624 1564 611 1578.5 Q598 1593 598 1614 Q598 1634 611 1648.5 Q624 1663 643 1663 Z M1018 1663 Q1036 1663 1048.5 1648.5 Q1061 1634 1061 1614 Q1061 1593 1048.5 1578.5 Q1036 1564 1017 1564 Q999 1564 986 1578.5 Q973 1593 973 1614 Q973 1634 986 1648.5 Q999 1663 1018 1663 Z " />
<glyph glyph-name="Aring" unicode="&#xc5;" horiz-adv-x="1200" d="M814 1365 L1071 0 L1029 0 L945 452 L252 452 L-28 0 L-75 0 L776 1365 L814 1365 Z M788 1324 Q754 1263 704 1183 L275 489 L938 489 L814 1158 Q793 1273 788 1324 Z M835 1800 Q907 1800 958 1744 Q1002 1696 1002 1631 Q1002 1555 946 1505 Q898 1461 832 1461 Q757 1461 707 1517 Q663 1565 663 1632 Q663 1702 713.5 1751 Q764 1800 835 1800 Z M834 1762 Q779 1762 740 1724 Q701 1686 701 1632 Q701 1576 739.5 1537.5 Q778 1499 832 1499 Q887 1499 925.5 1537.5 Q964 1576 964 1631 Q964 1684 925.5 1723 Q887 1762 834 1762 Z " />
<glyph glyph-name="AE" unicode="&#xc6;" horiz-adv-x="1769" d="M1840 1365 L1832 1328 L1112 1328 L984 729 L1653 729 L1646 692 L977 692 L837 37 L1592 37 L1584 0 L791 0 L903 527 L373 527 L-38 0 L-89 0 L978 1365 L1840 1365 Z M1073 1328 L993 1328 L400 564 L911 564 L1073 1328 Z " />
<glyph glyph-name="Ccedilla" unicode="&#xc7;" horiz-adv-x="1389" d="M1379 959 L1339 959 Q1328 1114 1241 1214 Q1114 1360 870 1360 Q535 1360 342 1085 Q263 971 219 827 Q175 683 175 537 Q175 375 241 244 Q294 136 399 77 Q518 10 668 10 Q878 10 1036 135.5 Q1194 261 1268 486 L1308 486 Q1234 244 1062 108 Q892 -26 640 -25 L549 -122 Q583 -113 608 -113 Q671 -113 711.5 -146 Q752 -179 752 -229 Q752 -290 701 -329 Q650 -368 569 -368 Q478 -368 378 -321 L394 -288 Q494 -333 570 -333 Q632 -333 670.5 -305.5 Q709 -278 709 -234 Q709 -196 678 -173.5 Q647 -151 597 -151 Q547 -151 501 -175 L472 -153 L593 -25 Q404 -1 292 108 Q136 259 136 537 Q136 780 247 999 Q356 1211 535 1311 Q687 1397 864 1397 Q1091 1397 1232 1277.5 Q1373 1158 1379 959 Z " />
<glyph glyph-name="Egrave" unicode="&#xc8;" horiz-adv-x="1154" d="M1227 1365 L1219 1328 L389 1328 L261 729 L1037 729 L1029 692 L253 692 L114 37 L977 37 L969 0 L68 0 L358 1365 L1227 1365 Z M613 1729 L662 1729 L908 1481 L860 1481 L613 1729 Z " />
<glyph glyph-name="Eacute" unicode="&#xc9;" horiz-adv-x="1154" d="M1227 1365 L1219 1328 L389 1328 L261 729 L1037 729 L1029 692 L253 692 L114 37 L977 37 L969 0 L68 0 L358 1365 L1227 1365 Z M1082 1729 L749 1481 L699 1481 L1026 1729 L1082 1729 Z " />
<glyph glyph-name="Ecircumflex" unicode="&#xca;" horiz-adv-x="1154" d="M1227 1365 L1219 1328 L389 1328 L261 729 L1037 729 L1029 692 L253 692 L114 37 L977 37 L969 0 L68 0 L358 1365 L1227 1365 Z M1074 1481 L1023 1481 L837 1699 L588 1481 L535 1481 L812 1729 L864 1729 L1074 1481 Z " />
<glyph glyph-name="Edieresis" unicode="&#xcb;" horiz-adv-x="1154" d="M1227 1365 L1219 1328 L389 1328 L261 729 L1037 729 L1029 692 L253 692 L114 37 L977 37 L969 0 L68 0 L358 1365 L1227 1365 Z M633 1663 Q651 1663 663.5 1648.5 Q676 1634 676 1614 Q676 1593 663.5 1578.5 Q651 1564 632 1564 Q614 1564 601 1578.5 Q588 1593 588 1614 Q588 1634 601 1648.5 Q614 1663 633 1663 Z M1008 1663 Q1026 1663 1038.5 1648.5 Q1051 1634 1051 1614 Q1051 1593 1038.5 1578.5 Q1026 1564 1007 1564 Q989 1564 976 1578.5 Q963 1593 963 1614 Q963 1634 976 1648.5 Q989 1663 1008 1663 Z " />
<glyph glyph-name="Igrave" unicode="&#xcc;" horiz-adv-x="380" d="M396 1365 L106 0 L68 0 L358 1365 L396 1365 Z M233 1729 L282 1729 L468 1481 L425 1481 L233 1729 Z " />
<glyph glyph-name="Iacute" unicode="&#xcd;" horiz-adv-x="380" d="M396 1365 L106 0 L68 0 L358 1365 L396 1365 Z M674 1729 L382 1481 L335 1481 L620 1729 L674 1729 Z " />
<glyph glyph-name="Icircumflex" unicode="&#xce;" horiz-adv-x="379" d="M396 1365 L106 0 L68 0 L358 1365 L396 1365 Z M611 1481 L565 1481 L429 1701 L229 1481 L180 1481 L404 1729 L456 1729 L611 1481 Z " />
<glyph glyph-name="Idieresis" unicode="&#xcf;" horiz-adv-x="380" d="M396 1365 L106 0 L68 0 L358 1365 L396 1365 Z M300 1663 Q318 1663 330.5 1648.5 Q343 1634 343 1614 Q343 1593 330.5 1578.5 Q318 1564 299 1564 Q281 1564 268 1578.5 Q255 1593 255 1614 Q255 1634 268 1648.5 Q281 1663 300 1663 Z M539 1663 Q557 1663 569.5 1648.5 Q582 1634 582 1614 Q582 1593 569.5 1578.5 Q557 1564 538 1564 Q520 1564 507 1578.5 Q494 1593 494 1614 Q494 1634 507 1648.5 Q520 1663 539 1663 Z " />
<glyph glyph-name="Eth" unicode="&#xd0;" horiz-adv-x="1342" d="M224 730 L359 1365 L751 1365 Q888 1365 973 1344 Q1058 1323 1120 1275 Q1293 1139 1293 840 Q1293 699 1254.5 562.5 Q1216 426 1147 318 Q983 64 726 15 Q648 0 473 0 L68 0 L216 693 L52 693 L60 730 L224 730 Z M262 730 L697 730 L687 693 L254 693 L115 37 L488 37 Q678 37 770 64 Q1021 137 1158 414 Q1254 609 1254 843 Q1254 1122 1093 1246 Q987 1328 752 1328 L389 1328 L262 730 Z " />
<glyph glyph-name="Ntilde" unicode="&#xd1;" horiz-adv-x="1370" d="M1387 1365 L1097 0 L1058 0 L510 1075 Q444 1205 388 1326 Q378 1283 343 1113 L324 1024 L106 0 L68 0 L358 1365 L408 1365 L935 323 Q1041 113 1072 43 Q1107 229 1147 417 L1349 1365 L1387 1365 Z M1192 1669 Q1146 1519 1048 1519 Q1015 1519 992 1531.5 Q969 1544 878 1610 Q840 1638 803 1638 Q729 1638 696 1522 L657 1522 Q675 1594 714.5 1635.5 Q754 1677 805 1677 Q837 1677 864 1662.5 Q891 1648 971 1589 Q1016 1556 1049 1556 Q1114 1556 1153 1669 L1192 1669 Z " />
<glyph glyph-name="Ograve" unicode="&#xd2;" horiz-adv-x="1457" d="M861 1399 Q1057 1399 1186 1312 Q1288 1243 1345 1131 Q1410 1004 1410 847 Q1410 720 1376.5 586 Q1343 452 1285 342 Q1083 -35 677 -35 Q461 -35 322 83 Q136 243 136 535 Q136 760 223 959 Q333 1210 535 1319 Q685 1399 861 1399 Z M855 1363 Q573 1363 387 1149 Q265 1009 211 800 Q176 662 176 538 Q176 292 313.5 145.5 Q451 -1 682 -1 Q941 -1 1122 183 Q1242 306 1305 487 Q1369 668 1369 848 Q1369 1042 1270 1176 Q1131 1363 855 1363 Z M745 1729 L793 1729 L1039 1481 L991 1481 L745 1729 Z " />
<glyph glyph-name="Oacute" unicode="&#xd3;" horiz-adv-x="1457" d="M861 1399 Q1057 1399 1186 1312 Q1288 1243 1345 1131 Q1410 1004 1410 847 Q1410 720 1376.5 586 Q1343 452 1285 342 Q1083 -35 677 -35 Q461 -35 322 83 Q136 243 136 535 Q136 760 223 959 Q333 1210 535 1319 Q685 1399 861 1399 Z M855 1363 Q573 1363 387 1149 Q265 1009 211 800 Q176 662 176 538 Q176 292 313.5 145.5 Q451 -1 682 -1 Q941 -1 1122 183 Q1242 306 1305 487 Q1369 668 1369 848 Q1369 1042 1270 1176 Q1131 1363 855 1363 Z M1226 1729 L894 1481 L844 1481 L1171 1729 L1226 1729 Z " />
<glyph glyph-name="Ocircumflex" unicode="&#xd4;" horiz-adv-x="1457" d="M861 1399 Q1057 1399 1186 1312 Q1288 1243 1345 1131 Q1410 1004 1410 847 Q1410 720 1376.5 586 Q1343 452 1285 342 Q1083 -35 677 -35 Q461 -35 322 83 Q136 243 136 535 Q136 760 223 959 Q333 1210 535 1319 Q685 1399 861 1399 Z M855 1363 Q573 1363 387 1149 Q265 1009 211 800 Q176 662 176 538 Q176 292 313.5 145.5 Q451 -1 682 -1 Q941 -1 1122 183 Q1242 306 1305 487 Q1369 668 1369 848 Q1369 1042 1270 1176 Q1131 1363 855 1363 Z M1194 1481 L1143 1481 L957 1699 L708 1481 L655 1481 L932 1729 L984 1729 L1194 1481 Z " />
<glyph glyph-name="Otilde" unicode="&#xd5;" horiz-adv-x="1457" d="M861 1399 Q1057 1399 1186 1312 Q1288 1243 1345 1131 Q1410 1004 1410 847 Q1410 720 1376.5 586 Q1343 452 1285 342 Q1083 -35 677 -35 Q461 -35 322 83 Q136 243 136 535 Q136 760 223 959 Q333 1210 535 1319 Q685 1399 861 1399 Z M855 1363 Q573 1363 387 1149 Q265 1009 211 800 Q176 662 176 538 Q176 292 313.5 145.5 Q451 -1 682 -1 Q941 -1 1122 183 Q1242 306 1305 487 Q1369 668 1369 848 Q1369 1042 1270 1176 Q1131 1363 855 1363 Z M1229 1669 Q1182 1519 1085 1519 Q1052 1519 1028.5 1531.5 Q1005 1544 915 1610 Q876 1638 840 1638 Q766 1638 733 1522 L694 1522 Q712 1594 751.5 1635.5 Q791 1677 842 1677 Q873 1677 900.5 1662.5 Q928 1648 1008 1589 Q1052 1556 1086 1556 Q1150 1556 1189 1669 L1229 1669 Z " />
<glyph glyph-name="Odieresis" unicode="&#xd6;" horiz-adv-x="1457" d="M861 1399 Q1057 1399 1186 1312 Q1288 1243 1345 1131 Q1410 1004 1410 847 Q1410 720 1376.5 586 Q1343 452 1285 342 Q1083 -35 677 -35 Q461 -35 322 83 Q136 243 136 535 Q136 760 223 959 Q333 1210 535 1319 Q685 1399 861 1399 Z M855 1363 Q573 1363 387 1149 Q265 1009 211 800 Q176 662 176 538 Q176 292 313.5 145.5 Q451 -1 682 -1 Q941 -1 1122 183 Q1242 306 1305 487 Q1369 668 1369 848 Q1369 1042 1270 1176 Q1131 1363 855 1363 Z M764 1663 Q782 1663 794.5 1648.5 Q807 1634 807 1614 Q807 1593 794.5 1578.5 Q782 1564 763 1564 Q745 1564 732 1578.5 Q719 1593 719 1614 Q719 1634 732 1648.5 Q745 1663 764 1663 Z M1139 1663 Q1157 1663 1169.5 1648.5 Q1182 1634 1182 1614 Q1182 1593 1169.5 1578.5 Q1157 1564 1138 1564 Q1120 1564 1107 1578.5 Q1094 1593 1094 1614 Q1094 1634 1107 1648.5 Q1120 1663 1139 1663 Z " />
<glyph glyph-name="multiply" unicode="&#xd7;" horiz-adv-x="1174" d="M258 312 L596 650 L258 988 L285 1015 L623 677 L964 1019 L991 992 L650 650 L988 312 L961 285 L623 623 L285 285 L258 312 Z " />
<glyph glyph-name="Oslash" unicode="&#xd8;" horiz-adv-x="1457" d="M1386 1402 L1261 1254 Q1419 1096 1419 840 Q1419 506 1232 248 Q1027 -35 684 -35 Q449 -35 316 95 L186 -69 L159 -44 L289 121 Q248 165 222 206 Q136 335 136 531 Q136 707 196 878 Q279 1117 451 1256 Q627 1399 873 1399 Q1091 1399 1234 1279 L1358 1426 L1386 1402 Z M1209 1248 Q1087 1363 868 1363 Q508 1363 313 1038 Q248 930 212 797 Q176 664 176 533 Q176 415 206.5 330 Q237 245 314 150 L1209 1248 Z M1235 1224 L341 124 Q401 70 459 44 Q555 1 686 1 Q942 1 1120 176 Q1227 281 1295 434 Q1377 621 1377 826 Q1377 1084 1235 1224 Z " />
<glyph glyph-name="Ugrave" unicode="&#xd9;" horiz-adv-x="1312" d="M1349 1365 L1165 498 Q1136 357 1107 285.5 Q1078 214 1025 150 Q876 -32 587 -32 Q389 -32 273 60 Q209 110 173.5 184.5 Q138 259 138 342 Q138 426 165 551 L338 1365 L376 1365 L198 529 Q177 430 177 355 Q177 171 313 78 Q422 3 585 3 Q871 3 1010 191 Q1049 245 1076 315 Q1103 385 1127 498 L1311 1365 L1349 1365 Z M672 1729 L721 1729 L967 1481 L919 1481 L672 1729 Z " />
<glyph glyph-name="Uacute" unicode="&#xda;" horiz-adv-x="1312" d="M1349 1365 L1165 498 Q1136 357 1107 285.5 Q1078 214 1025 150 Q876 -32 587 -32 Q389 -32 273 60 Q209 110 173.5 184.5 Q138 259 138 342 Q138 426 165 551 L338 1365 L376 1365 L198 529 Q177 430 177 355 Q177 171 313 78 Q422 3 585 3 Q871 3 1010 191 Q1049 245 1076 315 Q1103 385 1127 498 L1311 1365 L1349 1365 Z M1154 1729 L821 1481 L772 1481 L1098 1729 L1154 1729 Z " />
<glyph glyph-name="Ucircumflex" unicode="&#xdb;" horiz-adv-x="1312" d="M1349 1365 L1165 498 Q1136 357 1107 285.5 Q1078 214 1025 150 Q876 -32 587 -32 Q389 -32 273 60 Q209 110 173.5 184.5 Q138 259 138 342 Q138 426 165 551 L338 1365 L376 1365 L198 529 Q177 430 177 355 Q177 171 313 78 Q422 3 585 3 Q871 3 1010 191 Q1049 245 1076 315 Q1103 385 1127 498 L1311 1365 L1349 1365 Z M1143 1481 L1092 1481 L906 1699 L657 1481 L604 1481 L881 1729 L934 1729 L1143 1481 Z " />
<glyph glyph-name="Udieresis" unicode="&#xdc;" horiz-adv-x="1312" d="M1349 1365 L1165 498 Q1136 357 1107 285.5 Q1078 214 1025 150 Q876 -32 587 -32 Q389 -32 273 60 Q209 110 173.5 184.5 Q138 259 138 342 Q138 426 165 551 L338 1365 L376 1365 L198 529 Q177 430 177 355 Q177 171 313 78 Q422 3 585 3 Q871 3 1010 191 Q1049 245 1076 315 Q1103 385 1127 498 L1311 1365 L1349 1365 Z M698 1663 Q716 1663 728.5 1648.5 Q741 1634 741 1614 Q741 1593 728.5 1578.5 Q716 1564 697 1564 Q679 1564 666 1578.5 Q653 1593 653 1614 Q653 1634 666 1648.5 Q679 1663 698 1663 Z M1074 1663 Q1092 1663 1104.5 1648.5 Q1117 1634 1117 1614 Q1117 1593 1104.5 1578.5 Q1092 1564 1073 1564 Q1055 1564 1042 1578.5 Q1029 1593 1029 1614 Q1029 1634 1042 1648.5 Q1055 1663 1074 1663 Z " />
<glyph glyph-name="Yacute" unicode="&#xdd;" horiz-adv-x="1111" d="M1299 1365 L595 568 L474 0 L436 0 L559 579 L188 1365 L231 1365 L504 783 Q514 761 540 708 Q568 649 584 607 Q626 658 729 774 L1249 1365 L1299 1365 Z M1054 1729 L721 1481 L672 1481 L998 1729 L1054 1729 Z " />
<glyph glyph-name="Thorn" unicode="&#xde;" horiz-adv-x="1189" d="M358 1365 L396 1365 L347 1133 L733 1133 Q861 1133 929 1121 Q997 1109 1045 1079 Q1178 994 1178 810 Q1178 640 1071 526 Q1001 452 906.5 424.5 Q812 397 626 397 L191 397 L106 0 L68 0 L358 1365 Z M339 1096 L199 434 L623 434 Q766 434 843.5 448.5 Q921 463 979 499 Q1050 545 1092.5 630.5 Q1135 716 1135 813 Q1135 985 1004 1055 Q927 1096 729 1096 L339 1096 Z " />
<glyph glyph-name="germandbls" unicode="&#xdf;" horiz-adv-x="1001" d="M339 36 Q389 28 430 28 Q604 28 717 136 Q780 198 816.5 284.5 Q853 371 853 462 Q853 574 789 648 Q746 698 678.5 719 Q611 740 489 741 L497 778 Q520 777 541 777 Q714 777 816.5 867.5 Q919 958 919 1111 Q919 1238 832 1305 Q760 1359 650 1359 Q461 1359 372 1207 Q337 1148 306 999 L93 0 L55 0 L270 1010 Q293 1120 316 1178.5 Q339 1237 376 1280 Q474 1396 646 1396 Q775 1396 852 1338 Q959 1258 959 1112 Q959 973 874 875 Q789 777 652 758 Q769 737 831.5 660 Q894 583 894 460 Q894 353 851.5 257.5 Q809 162 732 96 Q610 -8 416 -8 Q372 -8 331 0 L339 36 Z " />
<glyph glyph-name="agrave" unicode="&#xe0;" horiz-adv-x="992" d="M714 1133 L671 1133 L448 1401 L496 1401 L714 1133 Z M883 26 L878 -4 Q846 -9 829 -9 Q734 -9 734 75 Q734 101 761 212 L768 238 L752 216 Q678 116 648 88 Q525 -28 319 -28 Q179 -28 102.5 38 Q26 104 26 225 Q26 324 81 394 Q147 477 310 507 Q384 521 589 533 Q717 540 770 574 Q867 634 867 786 Q867 873 805 918 Q723 978 581 978 Q442 978 351.5 916.5 Q261 855 233 742 L180 742 Q208 858 296 928 Q404 1013 581 1013 Q734 1013 821 954 Q908 895 908 791 Q908 743 780 154 Q767 96 767 71 Q767 21 830 21 Q849 21 883 26 Z M832 576 L820 568 Q753 519 710 509 Q667 499 438 482 Q224 466 143 398 Q65 333 65 222 Q65 99 166 44 Q229 9 328 9 Q519 9 653 144 Q700 191 737 255.5 Q774 320 787 377 L832 576 Z " />
<glyph glyph-name="aacute" unicode="&#xe1;" horiz-adv-x="992" d="M889 1401 L582 1133 L533 1133 L833 1401 L889 1401 Z M883 26 L878 -4 Q846 -9 829 -9 Q734 -9 734 75 Q734 101 761 212 L768 238 L752 216 Q678 116 648 88 Q525 -28 319 -28 Q179 -28 102.5 38 Q26 104 26 225 Q26 324 81 394 Q147 477 310 507 Q384 521 589 533 Q717 540 770 574 Q867 634 867 786 Q867 873 805 918 Q723 978 581 978 Q442 978 351.5 916.5 Q261 855 233 742 L180 742 Q208 858 296 928 Q404 1013 581 1013 Q734 1013 821 954 Q908 895 908 791 Q908 743 780 154 Q767 96 767 71 Q767 21 830 21 Q849 21 883 26 Z M832 576 L820 568 Q753 519 710 509 Q667 499 438 482 Q224 466 143 398 Q65 333 65 222 Q65 99 166 44 Q229 9 328 9 Q519 9 653 144 Q700 191 737 255.5 Q774 320 787 377 L832 576 Z " />
<glyph glyph-name="acircumflex" unicode="&#xe2;" horiz-adv-x="992" d="M854 1133 L802 1133 L652 1372 L422 1133 L375 1133 L629 1402 L681 1402 L854 1133 Z M883 26 L878 -4 Q846 -9 829 -9 Q734 -9 734 75 Q734 101 761 212 L768 238 L752 216 Q678 116 648 88 Q525 -28 319 -28 Q179 -28 102.5 38 Q26 104 26 225 Q26 324 81 394 Q147 477 310 507 Q384 521 589 533 Q717 540 770 574 Q867 634 867 786 Q867 873 805 918 Q723 978 581 978 Q442 978 351.5 916.5 Q261 855 233 742 L180 742 Q208 858 296 928 Q404 1013 581 1013 Q734 1013 821 954 Q908 895 908 791 Q908 743 780 154 Q767 96 767 71 Q767 21 830 21 Q849 21 883 26 Z M832 576 L820 568 Q753 519 710 509 Q667 499 438 482 Q224 466 143 398 Q65 333 65 222 Q65 99 166 44 Q229 9 328 9 Q519 9 653 144 Q700 191 737 255.5 Q774 320 787 377 L832 576 Z " />
<glyph glyph-name="atilde" unicode="&#xe3;" horiz-adv-x="992" d="M886 1330 Q842 1180 749 1180 Q719 1180 697.5 1192.5 Q676 1205 592 1272 Q557 1300 523 1300 Q454 1300 422 1184 L384 1184 Q423 1339 524 1339 Q554 1339 579.5 1324.5 Q605 1310 679 1250 Q720 1217 751 1217 Q811 1217 848 1330 L886 1330 Z M883 26 L878 -4 Q846 -9 829 -9 Q734 -9 734 75 Q734 101 761 212 L768 238 L752 216 Q678 116 648 88 Q525 -28 319 -28 Q179 -28 102.5 38 Q26 104 26 225 Q26 324 81 394 Q147 477 310 507 Q384 521 589 533 Q717 540 770 574 Q867 634 867 786 Q867 873 805 918 Q723 978 581 978 Q442 978 351.5 916.5 Q261 855 233 742 L180 742 Q208 858 296 928 Q404 1013 581 1013 Q734 1013 821 954 Q908 895 908 791 Q908 743 780 154 Q767 96 767 71 Q767 21 830 21 Q849 21 883 26 Z M832 576 L820 568 Q753 519 710 509 Q667 499 438 482 Q224 466 143 398 Q65 333 65 222 Q65 99 166 44 Q229 9 328 9 Q519 9 653 144 Q700 191 737 255.5 Q774 320 787 377 L832 576 Z " />
<glyph glyph-name="adieresis" unicode="&#xe4;" horiz-adv-x="992" d="M468 1318 Q486 1318 498.5 1303.5 Q511 1289 511 1269 Q511 1248 498.5 1233.5 Q486 1219 467 1219 Q449 1219 436 1233.5 Q423 1248 423 1269 Q423 1289 436 1303.5 Q449 1318 468 1318 Z M788 1318 Q806 1318 818.5 1303.5 Q831 1289 831 1269 Q831 1248 818.5 1233.5 Q806 1219 787 1219 Q769 1219 756 1233.5 Q743 1248 743 1269 Q743 1289 756 1303.5 Q769 1318 788 1318 Z M883 26 L878 -4 Q846 -9 829 -9 Q734 -9 734 75 Q734 101 761 212 L768 238 L752 216 Q678 116 648 88 Q525 -28 319 -28 Q179 -28 102.5 38 Q26 104 26 225 Q26 324 81 394 Q147 477 310 507 Q384 521 589 533 Q717 540 770 574 Q867 634 867 786 Q867 873 805 918 Q723 978 581 978 Q442 978 351.5 916.5 Q261 855 233 742 L180 742 Q208 858 296 928 Q404 1013 581 1013 Q734 1013 821 954 Q908 895 908 791 Q908 743 780 154 Q767 96 767 71 Q767 21 830 21 Q849 21 883 26 Z M832 576 L820 568 Q753 519 710 509 Q667 499 438 482 Q224 466 143 398 Q65 333 65 222 Q65 99 166 44 Q229 9 328 9 Q519 9 653 144 Q700 191 737 255.5 Q774 320 787 377 L832 576 Z " />
<glyph glyph-name="aring" unicode="&#xe5;" horiz-adv-x="992" d="M641 1451 Q714 1451 764 1395 Q808 1347 808 1282 Q808 1207 752 1156 Q703 1113 638 1113 Q563 1113 513 1169 Q469 1217 469 1283 Q469 1353 519 1402 Q569 1451 641 1451 Z M641 1413 Q585 1413 546 1375 Q507 1337 507 1283 Q507 1228 545.5 1189.5 Q584 1151 638 1151 Q693 1151 731.5 1189.5 Q770 1228 770 1282 Q770 1335 731.5 1374 Q693 1413 641 1413 Z M883 26 L878 -4 Q846 -9 829 -9 Q734 -9 734 75 Q734 101 761 212 L768 238 L752 216 Q678 116 648 88 Q525 -28 319 -28 Q179 -28 102.5 38 Q26 104 26 225 Q26 324 81 394 Q147 477 310 507 Q384 521 589 533 Q717 540 770 574 Q867 634 867 786 Q867 873 805 918 Q723 978 581 978 Q442 978 351.5 916.5 Q261 855 233 742 L180 742 Q208 858 296 928 Q404 1013 581 1013 Q734 1013 821 954 Q908 895 908 791 Q908 743 780 154 Q767 96 767 71 Q767 21 830 21 Q849 21 883 26 Z M832 576 L820 568 Q753 519 710 509 Q667 499 438 482 Q224 466 143 398 Q65 333 65 222 Q65 99 166 44 Q229 9 328 9 Q519 9 653 144 Q700 191 737 255.5 Q774 320 787 377 L832 576 Z " />
<glyph glyph-name="ae" unicode="&#xe6;" horiz-adv-x="1710" d="M806 315 Q760 202 678 119 Q535 -28 319 -28 Q178 -28 102 38 Q26 104 26 225 Q26 325 82 395 Q147 477 310 507 Q384 521 589 533 Q719 541 771 574 Q868 634 868 787 Q868 873 806 918 Q724 978 582 978 Q442 978 351.5 917 Q261 856 233 742 L180 742 Q208 859 296 928 Q405 1013 581 1013 Q733 1013 821 954 Q909 895 909 793 Q909 769 903 740 Q1042 1007 1295 1007 Q1387 1007 1465 969 Q1544 930 1587 855 Q1642 761 1642 635 Q1642 580 1633 500 L857 500 Q838 416 838 348 Q838 151 978 62 Q1063 8 1174 8 Q1442 8 1556 324 L1595 324 Q1548 158 1434.5 65 Q1321 -28 1166 -28 Q1006 -28 912.5 61 Q819 150 806 315 Z M864 537 L1598 537 Q1603 587 1603 632 Q1603 780 1531 868 Q1447 971 1299 971 Q1180 971 1082 904 Q1000 849 949.5 763 Q899 677 864 537 Z M832 576 L820 568 Q752 519 709.5 509.5 Q667 500 438 483 Q224 466 143 399 Q65 333 65 222 Q65 99 166 44 Q229 9 328 9 Q519 9 653 144 Q700 191 737 255.5 Q774 320 787 377 L832 576 Z " />
<glyph glyph-name="ccedilla" unicode="&#xe7;" horiz-adv-x="1013" d="M952 689 L914 689 Q913 814 844 884 Q758 971 606 971 Q399 971 267 818 Q208 749 169 649 Q119 518 119 376 Q119 169 240 73 Q322 8 444 8 Q582 8 691 90 Q800 172 850 314 L892 314 Q835 153 715.5 64 Q596 -25 437 -25 L357 -113 Q396 -105 420 -105 Q482 -105 521 -138 Q560 -171 560 -223 Q560 -282 508.5 -321.5 Q457 -361 381 -361 Q296 -361 204 -318 L219 -284 Q317 -325 382 -325 Q442 -325 480.5 -297 Q519 -269 519 -226 Q519 -188 487 -164 Q455 -140 405 -140 Q359 -140 309 -165 L284 -144 L393 -25 Q251 -3 176 81 Q82 186 82 367 Q82 650 230.5 828.5 Q379 1007 614 1007 Q768 1007 859.5 921 Q951 835 952 689 Z " />
<glyph glyph-name="egrave" unicode="&#xe8;" horiz-adv-x="1019" d="M899 324 Q859 195 787 112 Q664 -28 467 -28 Q248 -28 155 129 Q91 236 91 389 Q91 524 132.5 644.5 Q174 765 250 850 Q390 1006 592 1006 Q761 1006 856.5 903 Q952 800 952 618 Q952 564 941 500 L135 500 Q126 450 126 398 Q126 221 201 125 Q295 3 461 3 Q605 3 707.5 85.5 Q810 168 859 324 L899 324 Z M143 537 L907 537 Q914 581 914 616 Q914 725 873 813 Q838 888 768 927 Q691 971 590 971 Q423 971 302 853.5 Q181 736 143 537 Z M728 1133 L685 1133 L462 1401 L510 1401 L728 1133 Z " />
<glyph glyph-name="eacute" unicode="&#xe9;" horiz-adv-x="1019" d="M899 324 Q859 195 787 112 Q664 -28 467 -28 Q248 -28 155 129 Q91 236 91 389 Q91 524 132.5 644.5 Q174 765 250 850 Q390 1006 592 1006 Q761 1006 856.5 903 Q952 800 952 618 Q952 564 941 500 L135 500 Q126 450 126 398 Q126 221 201 125 Q295 3 461 3 Q605 3 707.5 85.5 Q810 168 859 324 L899 324 Z M143 537 L907 537 Q914 581 914 616 Q914 725 873 813 Q838 888 768 927 Q691 971 590 971 Q423 971 302 853.5 Q181 736 143 537 Z M903 1401 L596 1133 L547 1133 L847 1401 L903 1401 Z " />
<glyph glyph-name="ecircumflex" unicode="&#xea;" horiz-adv-x="1019" d="M899 324 Q859 195 787 112 Q664 -28 467 -28 Q248 -28 155 129 Q91 236 91 389 Q91 524 132.5 644.5 Q174 765 250 850 Q390 1006 592 1006 Q761 1006 856.5 903 Q952 800 952 618 Q952 564 941 500 L135 500 Q126 450 126 398 Q126 221 201 125 Q295 3 461 3 Q605 3 707.5 85.5 Q810 168 859 324 L899 324 Z M143 537 L907 537 Q914 581 914 616 Q914 725 873 813 Q838 888 768 927 Q691 971 590 971 Q423 971 302 853.5 Q181 736 143 537 Z M867 1133 L815 1133 L666 1372 L436 1133 L389 1133 L642 1402 L695 1402 L867 1133 Z " />
<glyph glyph-name="edieresis" unicode="&#xeb;" horiz-adv-x="1019" d="M899 324 Q859 195 787 112 Q664 -28 467 -28 Q248 -28 155 129 Q91 236 91 389 Q91 524 132.5 644.5 Q174 765 250 850 Q390 1006 592 1006 Q761 1006 856.5 903 Q952 800 952 618 Q952 564 941 500 L135 500 Q126 450 126 398 Q126 221 201 125 Q295 3 461 3 Q605 3 707.5 85.5 Q810 168 859 324 L899 324 Z M143 537 L907 537 Q914 581 914 616 Q914 725 873 813 Q838 888 768 927 Q691 971 590 971 Q423 971 302 853.5 Q181 736 143 537 Z M481 1318 Q499 1318 511.5 1303.5 Q524 1289 524 1269 Q524 1248 511.5 1233.5 Q499 1219 480 1219 Q462 1219 449 1233.5 Q436 1248 436 1269 Q436 1289 449 1303.5 Q462 1318 481 1318 Z M802 1318 Q820 1318 832.5 1303.5 Q845 1289 845 1269 Q845 1248 832.5 1233.5 Q820 1219 801 1219 Q783 1219 770 1233.5 Q757 1248 757 1269 Q757 1289 770 1303.5 Q783 1318 802 1318 Z " />
<glyph glyph-name="igrave" unicode="&#xec;" horiz-adv-x="352" d="M301 979 L93 0 L55 0 L263 979 L301 979 Z M372 1133 L331 1133 L164 1401 L211 1401 L372 1133 Z " />
<glyph glyph-name="iacute" unicode="&#xed;" horiz-adv-x="352" d="M301 979 L93 0 L55 0 L263 979 L301 979 Z M546 1401 L295 1133 L248 1133 L493 1401 L546 1401 Z " />
<glyph glyph-name="icircumflex" unicode="&#xee;" horiz-adv-x="352" d="M301 979 L93 0 L55 0 L263 979 L301 979 Z M509 1133 L461 1133 L346 1372 L152 1133 L103 1133 L322 1402 L375 1402 L509 1133 Z " />
<glyph glyph-name="idieresis" unicode="&#xef;" horiz-adv-x="352" d="M301 979 L93 0 L55 0 L263 979 L301 979 Z M223 1318 Q241 1318 253.5 1303.5 Q266 1289 266 1269 Q266 1248 253.5 1233.5 Q241 1219 222 1219 Q204 1219 191 1233.5 Q178 1248 178 1269 Q178 1289 191 1303.5 Q204 1318 223 1318 Z M448 1318 Q466 1318 478.5 1303.5 Q491 1289 491 1269 Q491 1248 478.5 1233.5 Q466 1219 447 1219 Q429 1219 416 1233.5 Q403 1248 403 1269 Q403 1289 416 1303.5 Q429 1318 448 1318 Z " />
<glyph glyph-name="eth" unicode="&#xf0;" horiz-adv-x="1048" d="M566 1144 L729 1219 L667 1368 L702 1383 L765 1235 L933 1313 L945 1280 L779 1203 L896 918 Q944 803 957.5 751 Q971 699 971 633 Q971 373 835 171 Q772 77 673 24 Q577 -27 459 -27 Q264 -27 167 97 Q83 204 83 368 Q83 547 159 709 Q301 1008 606 1008 Q676 1008 727 992 Q778 976 844 933 L741 1186 L579 1112 L566 1144 Z M605 973 Q390 973 260 804 Q198 724 161.5 607 Q125 490 125 373 Q125 177 231 84 Q319 7 461 7 Q665 7 794 178 Q854 258 892.5 386.5 Q931 515 931 635 Q931 801 831 894 Q745 973 605 973 Z " />
<glyph glyph-name="ntilde" unicode="&#xf1;" horiz-adv-x="1049" d="M302 980 L252 748 Q319 860 394 918 Q507 1006 657 1006 Q764 1006 844 952 Q944 885 944 762 Q944 694 913 549 L796 0 L758 0 L878 565 Q906 695 906 762 Q906 851 832.5 911 Q759 971 650 971 Q565 971 486.5 934 Q408 897 348 830 Q288 762 256 689 Q224 616 196 482 L93 0 L55 0 L263 980 L302 980 Z M935 1330 Q891 1180 799 1180 Q768 1180 746.5 1192.5 Q725 1205 641 1272 Q606 1300 572 1300 Q503 1300 471 1184 L433 1184 Q472 1339 574 1339 Q603 1339 628.5 1324.5 Q654 1310 728 1250 Q769 1217 800 1217 Q860 1217 897 1330 L935 1330 Z " />
<glyph glyph-name="ograve" unicode="&#xf2;" horiz-adv-x="1053" d="M610 1008 Q781 1008 882 897 Q972 798 972 625 Q972 460 908 303 Q831 113 688 29 Q587 -30 465 -30 Q282 -30 183 76 Q139 125 113 204 Q87 283 87 372 Q87 528 147 675 Q222 861 366 945 Q475 1008 610 1008 Z M607 972 Q391 972 262 803 Q200 722 163.5 605.5 Q127 489 127 372 Q127 176 234 83 Q322 6 463 6 Q668 6 796 177 Q856 257 894.5 385 Q933 513 933 634 Q933 801 833 893 Q747 972 607 972 Z M752 1133 L708 1133 L485 1401 L533 1401 L752 1133 Z " />
<glyph glyph-name="oacute" unicode="&#xf3;" horiz-adv-x="1053" d="M610 1008 Q781 1008 882 897 Q972 798 972 625 Q972 460 908 303 Q831 113 688 29 Q587 -30 465 -30 Q282 -30 183 76 Q139 125 113 204 Q87 283 87 372 Q87 528 147 675 Q222 861 366 945 Q475 1008 610 1008 Z M607 972 Q391 972 262 803 Q200 722 163.5 605.5 Q127 489 127 372 Q127 176 234 83 Q322 6 463 6 Q668 6 796 177 Q856 257 894.5 385 Q933 513 933 634 Q933 801 833 893 Q747 972 607 972 Z M940 1401 L633 1133 L584 1133 L884 1401 L940 1401 Z " />
<glyph glyph-name="ocircumflex" unicode="&#xf4;" horiz-adv-x="1053" d="M610 1008 Q781 1008 882 897 Q972 798 972 625 Q972 460 908 303 Q831 113 688 29 Q587 -30 465 -30 Q282 -30 183 76 Q139 125 113 204 Q87 283 87 372 Q87 528 147 675 Q222 861 366 945 Q475 1008 610 1008 Z M607 972 Q391 972 262 803 Q200 722 163.5 605.5 Q127 489 127 372 Q127 176 234 83 Q322 6 463 6 Q668 6 796 177 Q856 257 894.5 385 Q933 513 933 634 Q933 801 833 893 Q747 972 607 972 Z M891 1133 L839 1133 L689 1372 L459 1133 L412 1133 L666 1402 L718 1402 L891 1133 Z " />
<glyph glyph-name="otilde" unicode="&#xf5;" horiz-adv-x="1053" d="M610 1008 Q781 1008 882 897 Q972 798 972 625 Q972 460 908 303 Q831 113 688 29 Q587 -30 465 -30 Q282 -30 183 76 Q139 125 113 204 Q87 283 87 372 Q87 528 147 675 Q222 861 366 945 Q475 1008 610 1008 Z M607 972 Q391 972 262 803 Q200 722 163.5 605.5 Q127 489 127 372 Q127 176 234 83 Q322 6 463 6 Q668 6 796 177 Q856 257 894.5 385 Q933 513 933 634 Q933 801 833 893 Q747 972 607 972 Z M937 1330 Q892 1180 800 1180 Q770 1180 748.5 1192.5 Q727 1205 643 1272 Q607 1300 573 1300 Q505 1300 473 1184 L435 1184 Q474 1339 575 1339 Q605 1339 630.5 1324.5 Q656 1310 730 1250 Q771 1217 802 1217 Q862 1217 899 1330 L937 1330 Z " />
<glyph glyph-name="odieresis" unicode="&#xf6;" horiz-adv-x="1053" d="M610 1008 Q781 1008 882 897 Q972 798 972 625 Q972 460 908 303 Q831 113 688 29 Q587 -30 465 -30 Q282 -30 183 76 Q139 125 113 204 Q87 283 87 372 Q87 528 147 675 Q222 861 366 945 Q475 1008 610 1008 Z M607 972 Q391 972 262 803 Q200 722 163.5 605.5 Q127 489 127 372 Q127 176 234 83 Q322 6 463 6 Q668 6 796 177 Q856 257 894.5 385 Q933 513 933 634 Q933 801 833 893 Q747 972 607 972 Z M512 1318 Q530 1318 542.5 1303.5 Q555 1289 555 1269 Q555 1248 542.5 1233.5 Q530 1219 511 1219 Q493 1219 480 1233.5 Q467 1248 467 1269 Q467 1289 480 1303.5 Q493 1318 512 1318 Z M832 1318 Q850 1318 862.5 1303.5 Q875 1289 875 1269 Q875 1248 862.5 1233.5 Q850 1219 831 1219 Q813 1219 800 1233.5 Q787 1248 787 1269 Q787 1289 800 1303.5 Q813 1318 832 1318 Z " />
<glyph glyph-name="divide" unicode="&#xf7;" horiz-adv-x="1174" d="M165 673 L1082 673 L1082 635 L165 635 L165 673 Z M628 956 Q648 956 662 941.5 Q676 927 676 907 Q676 887 661.5 872.5 Q647 858 627 858 Q607 858 592.5 872.5 Q578 887 578 907 Q578 928 592.5 942 Q607 956 628 956 Z M627 446 Q647 446 661.5 431.5 Q676 417 676 397 Q676 376 661.5 361.5 Q647 347 626 347 Q606 347 591.5 361.5 Q577 376 577 397 Q577 417 591.5 431.5 Q606 446 627 446 Z " />
<glyph glyph-name="oslash" unicode="&#xf8;" horiz-adv-x="1053" d="M987 1009 L887 894 Q971 798 971 619 Q971 481 929.5 354 Q888 227 813 137 Q676 -27 465 -27 Q296 -27 207 60 L112 -57 L87 -37 L184 83 Q90 189 90 376 Q90 573 178 740 Q272 917 442 978 Q518 1006 601 1006 Q766 1006 866 916 L959 1032 L987 1009 Z M840 888 Q750 972 601 972 Q450 972 334 876 Q224 786 168 618 Q128 497 128 372 Q128 209 209 111 L840 888 Z M862 865 L231 87 Q322 8 463 8 Q697 8 824 219 Q931 396 931 622 Q931 783 862 865 Z " />
<glyph glyph-name="ugrave" unicode="&#xf9;" horiz-adv-x="1036" d="M985 979 L777 0 L739 0 L790 243 Q655 -27 410 -27 Q294 -27 210 31 Q164 63 138 114 Q112 165 112 223 Q112 300 139 425 L256 979 L295 979 L173 409 Q150 299 150 233 Q150 131 225 70 Q301 8 411 8 Q578 8 696 153 Q798 278 843 489 L947 979 L985 979 Z M737 1133 L694 1133 L470 1401 L519 1401 L737 1133 Z " />
<glyph glyph-name="uacute" unicode="&#xfa;" horiz-adv-x="1036" d="M985 979 L777 0 L739 0 L790 243 Q655 -27 410 -27 Q294 -27 210 31 Q164 63 138 114 Q112 165 112 223 Q112 300 139 425 L256 979 L295 979 L173 409 Q150 299 150 233 Q150 131 225 70 Q301 8 411 8 Q578 8 696 153 Q798 278 843 489 L947 979 L985 979 Z M925 1401 L618 1133 L569 1133 L869 1401 L925 1401 Z " />
<glyph glyph-name="ucircumflex" unicode="&#xfb;" horiz-adv-x="1036" d="M985 979 L777 0 L739 0 L790 243 Q655 -27 410 -27 Q294 -27 210 31 Q164 63 138 114 Q112 165 112 223 Q112 300 139 425 L256 979 L295 979 L173 409 Q150 299 150 233 Q150 131 225 70 Q301 8 411 8 Q578 8 696 153 Q798 278 843 489 L947 979 L985 979 Z M883 1133 L831 1133 L681 1372 L452 1133 L404 1133 L658 1402 L710 1402 L883 1133 Z " />
<glyph glyph-name="udieresis" unicode="&#xfc;" horiz-adv-x="1036" d="M985 979 L777 0 L739 0 L790 243 Q655 -27 410 -27 Q294 -27 210 31 Q164 63 138 114 Q112 165 112 223 Q112 300 139 425 L256 979 L295 979 L173 409 Q150 299 150 233 Q150 131 225 70 Q301 8 411 8 Q578 8 696 153 Q798 278 843 489 L947 979 L985 979 Z M504 1318 Q522 1318 534.5 1303.5 Q547 1289 547 1269 Q547 1248 534.5 1233.5 Q522 1219 503 1219 Q485 1219 472 1233.5 Q459 1248 459 1269 Q459 1289 472 1303.5 Q485 1318 504 1318 Z M825 1318 Q843 1318 855.5 1303.5 Q868 1289 868 1269 Q868 1248 855.5 1233.5 Q843 1219 824 1219 Q806 1219 793 1233.5 Q780 1248 780 1269 Q780 1289 793 1303.5 Q806 1318 825 1318 Z " />
<glyph glyph-name="yacute" unicode="&#xfd;" horiz-adv-x="832" d="M924 979 L347 -29 Q243 -210 192 -264 Q155 -303 108 -319 Q61 -335 -15 -335 Q-32 -335 -50 -335 L-42 -299 Q-21 -298 -10 -298 Q67 -297 108 -280 Q149 -263 183 -217 Q226 -159 318 -1 L119 979 L158 979 L305 263 L318 198 Q340 82 347 42 Q376 100 477 275 L879 979 L924 979 Z M829 1401 L522 1133 L473 1133 L773 1401 L829 1401 Z " />
<glyph glyph-name="thorn" unicode="&#xfe;" horiz-adv-x="1084" d="M383 1365 L243 711 Q303 845 395 917 Q509 1006 657 1006 Q818 1006 912.5 901 Q1007 796 1007 618 Q1007 378 875 182 Q802 74 696 20 Q602 -27 499 -27 Q304 -27 213 125 Q162 208 162 308 Q162 315 162 328 L19 -344 L-19 -344 L344 1365 L383 1365 Z M650 971 Q514 971 407 882 Q297 790 236 626 Q186 488 186 355 Q186 277 212.5 206 Q239 135 285 90 Q368 7 505 7 Q724 7 859 225 Q969 401 969 616 Q969 783 884.5 877 Q800 971 650 971 Z " />
<glyph glyph-name="ydieresis" unicode="&#xff;" horiz-adv-x="832" d="M924 979 L347 -29 Q243 -210 192 -264 Q155 -303 108 -319 Q61 -335 -15 -335 Q-32 -335 -50 -335 L-42 -299 Q-21 -298 -10 -298 Q67 -297 108 -280 Q149 -263 183 -217 Q226 -159 318 -1 L119 979 L158 979 L305 263 L318 198 Q340 82 347 42 Q376 100 477 275 L879 979 L924 979 Z M408 1318 Q426 1318 438.5 1303.5 Q451 1289 451 1269 Q451 1248 438.5 1233.5 Q426 1219 407 1219 Q389 1219 376 1233.5 Q363 1248 363 1269 Q363 1289 376 1303.5 Q389 1318 408 1318 Z M729 1318 Q747 1318 759.5 1303.5 Q772 1289 772 1269 Q772 1248 759.5 1233.5 Q747 1219 728 1219 Q710 1219 697 1233.5 Q684 1248 684 1269 Q684 1289 697 1303.5 Q710 1318 729 1318 Z " />
<glyph glyph-name="Amacron" unicode="&#x100;" horiz-adv-x="1200" d="M814 1365 L1071 0 L1029 0 L945 452 L252 452 L-28 0 L-75 0 L776 1365 L814 1365 Z M788 1324 Q754 1263 704 1183 L275 489 L938 489 L814 1158 Q793 1273 788 1324 Z M1125 1608 L1117 1571 L525 1571 L533 1608 L1125 1608 Z " />
<glyph glyph-name="amacron" unicode="&#x101;" horiz-adv-x="992" d="M909 1272 L901 1237 L381 1237 L389 1272 L909 1272 Z M883 26 L878 -4 Q846 -9 829 -9 Q734 -9 734 75 Q734 101 761 212 L768 238 L752 216 Q678 116 648 88 Q525 -28 319 -28 Q179 -28 102.5 38 Q26 104 26 225 Q26 324 81 394 Q147 477 310 507 Q384 521 589 533 Q717 540 770 574 Q867 634 867 786 Q867 873 805 918 Q723 978 581 978 Q442 978 351.5 916.5 Q261 855 233 742 L180 742 Q208 858 296 928 Q404 1013 581 1013 Q734 1013 821 954 Q908 895 908 791 Q908 743 780 154 Q767 96 767 71 Q767 21 830 21 Q849 21 883 26 Z M832 576 L820 568 Q753 519 710 509 Q667 499 438 482 Q224 466 143 398 Q65 333 65 222 Q65 99 166 44 Q229 9 328 9 Q519 9 653 144 Q700 191 737 255.5 Q774 320 787 377 L832 576 Z " />
<glyph glyph-name="Abreve" unicode="&#x102;" horiz-adv-x="1200" d="M814 1365 L1071 0 L1029 0 L945 452 L252 452 L-28 0 L-75 0 L776 1365 L814 1365 Z M788 1324 Q754 1263 704 1183 L275 489 L938 489 L814 1158 Q793 1273 788 1324 Z M1092 1722 Q1060 1609 986.5 1548.5 Q913 1488 809 1488 Q686 1488 623 1574 Q589 1621 587 1722 L625 1722 Q627 1636 659 1595 Q713 1526 810 1526 Q983 1526 1053 1722 L1092 1722 Z " />
<glyph glyph-name="abreve" unicode="&#x103;" horiz-adv-x="992" d="M884 1380 Q820 1146 633 1146 Q437 1146 433 1380 L471 1380 Q472 1294 497 1252 Q538 1185 632 1185 Q784 1185 846 1380 L884 1380 Z M883 26 L878 -4 Q846 -9 829 -9 Q734 -9 734 75 Q734 101 761 212 L768 238 L752 216 Q678 116 648 88 Q525 -28 319 -28 Q179 -28 102.5 38 Q26 104 26 225 Q26 324 81 394 Q147 477 310 507 Q384 521 589 533 Q717 540 770 574 Q867 634 867 786 Q867 873 805 918 Q723 978 581 978 Q442 978 351.5 916.5 Q261 855 233 742 L180 742 Q208 858 296 928 Q404 1013 581 1013 Q734 1013 821 954 Q908 895 908 791 Q908 743 780 154 Q767 96 767 71 Q767 21 830 21 Q849 21 883 26 Z M832 576 L820 568 Q753 519 710 509 Q667 499 438 482 Q224 466 143 398 Q65 333 65 222 Q65 99 166 44 Q229 9 328 9 Q519 9 653 144 Q700 191 737 255.5 Q774 320 787 377 L832 576 Z " />
<glyph glyph-name="Aogonek" unicode="&#x104;" horiz-adv-x="1200" d="M1071 0 Q947 -91 947 -182 Q947 -229 986 -259 Q1025 -289 1085 -289 Q1129 -289 1189 -268 L1187 -306 Q1125 -327 1078 -327 Q1002 -327 954.5 -288.5 Q907 -250 907 -189 Q907 -85 1029 0 L945 452 L252 452 L-28 0 L-75 0 L776 1365 L814 1365 L1071 0 Z M788 1324 Q754 1263 704 1183 L275 489 L938 489 L814 1158 Q793 1273 788 1324 Z " />
<glyph glyph-name="aogonek" unicode="&#x105;" horiz-adv-x="992" d="M844 -8 Q765 -56 732.5 -94.5 Q700 -133 700 -179 Q700 -224 737.5 -253 Q775 -282 834 -282 Q879 -282 939 -261 L936 -299 Q873 -320 826 -320 Q752 -320 706 -283.5 Q660 -247 660 -189 Q660 -79 800 -6 Q734 6 734 73 Q734 101 761 212 L768 238 L752 216 Q678 116 648 88 Q525 -28 319 -28 Q179 -28 102.5 38 Q26 104 26 225 Q26 324 81 394 Q147 477 310 507 Q384 521 589 533 Q717 540 770 574 Q867 634 867 786 Q867 873 805 918 Q723 978 581 978 Q442 978 351.5 916.5 Q261 855 233 742 L180 742 Q208 858 296 928 Q404 1013 581 1013 Q732 1013 820 954 Q908 895 908 794 Q908 764 888.5 667.5 Q869 571 780 154 Q767 95 767 73 Q767 21 829 21 Q848 21 883 26 L878 -4 Q860 -7 844 -8 Z M832 576 L820 568 Q753 519 710 509 Q667 499 438 482 Q224 466 143 398 Q65 333 65 222 Q65 99 166 44 Q229 9 328 9 Q519 9 653 144 Q700 191 737 255.5 Q774 320 787 377 L832 576 Z " />
<glyph glyph-name="Cacute" unicode="&#x106;" horiz-adv-x="1386" d="M1305 485 Q1265 319 1144 183 Q952 -32 656 -32 Q440 -32 299 95 Q132 246 132 523 Q132 757 227 964 Q322 1173 488 1285 Q654 1397 869 1397 Q1075 1397 1206 1298 Q1279 1243 1325 1160 Q1376 1067 1376 976 Q1376 972 1375 957 L1336 957 Q1334 1113 1230 1225 Q1101 1362 869 1362 Q513 1362 318 1052 Q249 943 211 802.5 Q173 662 173 520 Q173 243 352 102 Q477 3 657 3 Q909 3 1085 176 Q1213 302 1265 485 L1305 485 Z M1198 1729 L865 1481 L815 1481 L1142 1729 L1198 1729 Z " />
<glyph glyph-name="cacute" unicode="&#x107;" horiz-adv-x="1013" d="M895 313 Q839 150 722.5 61.5 Q606 -27 447 -27 Q264 -27 172 90 Q87 198 87 374 Q87 509 132.5 638 Q178 767 255 853 Q396 1009 613 1009 Q771 1009 860 924.5 Q949 840 952 688 L914 688 Q913 806 854 876 Q772 973 611 973 Q370 973 237 764 Q127 593 127 378 Q127 208 209 108 Q291 7 455 7 Q592 7 693.5 84.5 Q795 162 856 313 L895 313 Z M927 1401 L620 1133 L571 1133 L871 1401 L927 1401 Z " />
<glyph glyph-name="Ccircumflex" unicode="&#x108;" horiz-adv-x="1386" d="M1305 485 Q1265 319 1144 183 Q952 -32 656 -32 Q440 -32 299 95 Q132 246 132 523 Q132 757 227 964 Q322 1173 488 1285 Q654 1397 869 1397 Q1075 1397 1206 1298 Q1279 1243 1325 1160 Q1376 1067 1376 976 Q1376 972 1375 957 L1336 957 Q1334 1113 1230 1225 Q1101 1362 869 1362 Q513 1362 318 1052 Q249 943 211 802.5 Q173 662 173 520 Q173 243 352 102 Q477 3 657 3 Q909 3 1085 176 Q1213 302 1265 485 L1305 485 Z M1188 1481 L1137 1481 L951 1699 L702 1481 L649 1481 L926 1729 L978 1729 L1188 1481 Z " />
<glyph glyph-name="ccircumflex" unicode="&#x109;" horiz-adv-x="1013" d="M895 313 Q839 150 722.5 61.5 Q606 -27 447 -27 Q264 -27 172 90 Q87 198 87 374 Q87 509 132.5 638 Q178 767 255 853 Q396 1009 613 1009 Q771 1009 860 924.5 Q949 840 952 688 L914 688 Q913 806 854 876 Q772 973 611 973 Q370 973 237 764 Q127 593 127 378 Q127 208 209 108 Q291 7 455 7 Q592 7 693.5 84.5 Q795 162 856 313 L895 313 Z M858 1133 L807 1133 L657 1372 L427 1133 L380 1133 L633 1402 L686 1402 L858 1133 Z " />
<glyph glyph-name="Cdotaccent" unicode="&#x10a;" horiz-adv-x="1386" d="M1305 485 Q1265 319 1144 183 Q952 -32 656 -32 Q440 -32 299 95 Q132 246 132 523 Q132 757 227 964 Q322 1173 488 1285 Q654 1397 869 1397 Q1075 1397 1206 1298 Q1279 1243 1325 1160 Q1376 1067 1376 976 Q1376 972 1375 957 L1336 957 Q1334 1113 1230 1225 Q1101 1362 869 1362 Q513 1362 318 1052 Q249 943 211 802.5 Q173 662 173 520 Q173 243 352 102 Q477 3 657 3 Q909 3 1085 176 Q1213 302 1265 485 L1305 485 Z M930 1663 Q948 1663 960.5 1648.5 Q973 1634 973 1614 Q973 1593 960.5 1578.5 Q948 1564 929 1564 Q911 1564 898 1578.5 Q885 1593 885 1614 Q885 1634 898 1648.5 Q911 1663 930 1663 Z " />
<glyph glyph-name="cdotaccent" unicode="&#x10b;" horiz-adv-x="1013" d="M895 313 Q839 150 722.5 61.5 Q606 -27 447 -27 Q264 -27 172 90 Q87 198 87 374 Q87 509 132.5 638 Q178 767 255 853 Q396 1009 613 1009 Q771 1009 860 924.5 Q949 840 952 688 L914 688 Q913 806 854 876 Q772 973 611 973 Q370 973 237 764 Q127 593 127 378 Q127 208 209 108 Q291 7 455 7 Q592 7 693.5 84.5 Q795 162 856 313 L895 313 Z M666 1318 Q684 1318 696.5 1303.5 Q709 1289 709 1269 Q709 1248 696.5 1233.5 Q684 1219 665 1219 Q647 1219 634 1233.5 Q621 1248 621 1269 Q621 1289 634 1303.5 Q647 1318 666 1318 Z " />
<glyph glyph-name="Ccaron" unicode="&#x10c;" horiz-adv-x="1386" d="M1305 485 Q1265 319 1144 183 Q952 -32 656 -32 Q440 -32 299 95 Q132 246 132 523 Q132 757 227 964 Q322 1173 488 1285 Q654 1397 869 1397 Q1075 1397 1206 1298 Q1279 1243 1325 1160 Q1376 1067 1376 976 Q1376 972 1375 957 L1336 957 Q1334 1113 1230 1225 Q1101 1362 869 1362 Q513 1362 318 1052 Q249 943 211 802.5 Q173 662 173 520 Q173 243 352 102 Q477 3 657 3 Q909 3 1085 176 Q1213 302 1265 485 L1305 485 Z M683 1729 L734 1729 L920 1512 L1169 1729 L1222 1729 L945 1481 L892 1481 L683 1729 Z " />
<glyph glyph-name="ccaron" unicode="&#x10d;" horiz-adv-x="1013" d="M895 313 Q839 150 722.5 61.5 Q606 -27 447 -27 Q264 -27 172 90 Q87 198 87 374 Q87 509 132.5 638 Q178 767 255 853 Q396 1009 613 1009 Q771 1009 860 924.5 Q949 840 952 688 L914 688 Q913 806 854 876 Q772 973 611 973 Q370 973 237 764 Q127 593 127 378 Q127 208 209 108 Q291 7 455 7 Q592 7 693.5 84.5 Q795 162 856 313 L895 313 Z M456 1402 L508 1402 L657 1162 L887 1402 L935 1402 L681 1133 L628 1133 L456 1402 Z " />
<glyph glyph-name="Dcaron" unicode="&#x10e;" horiz-adv-x="1342" d="M358 1365 L751 1365 Q887 1365 972.5 1344 Q1058 1323 1120 1275 Q1293 1139 1293 839 Q1293 699 1254.5 562.5 Q1216 426 1147 318 Q983 64 726 15 Q648 0 473 0 L68 0 L358 1365 Z M389 1328 L114 37 L488 37 Q677 37 769 64 Q1020 136 1157 414 Q1253 609 1253 842 Q1253 1123 1092 1246 Q986 1328 752 1328 L389 1328 Z M547 1729 L598 1729 L784 1512 L1033 1729 L1086 1729 L809 1481 L757 1481 L547 1729 Z " />
<glyph glyph-name="dcaron" unicode="&#x10f;" horiz-adv-x="1206" d="M1118 1365 L828 0 L790 0 L850 284 Q782 120 667 42 Q562 -29 434 -29 Q284 -29 194 55 Q83 158 83 356 Q83 484 124 607.5 Q165 731 239 826 Q381 1010 604 1010 Q754 1010 840.5 927 Q927 844 937 693 L1080 1365 L1118 1365 Z M602 978 Q406 978 276 817 Q206 730 165 605.5 Q124 481 124 354 Q124 192 204 101 Q288 6 438 6 Q634 6 768 192 Q833 283 872 411.5 Q911 540 911 663 Q911 809 828 893.5 Q745 978 602 978 Z M1225 1074 L1233 1115 Q1283 1145 1312 1264 Q1309 1264 1308 1264 Q1263 1264 1263 1315 Q1263 1336 1277 1350.5 Q1291 1365 1310 1365 Q1330 1365 1343 1348.5 Q1356 1332 1356 1308 Q1356 1269 1335 1208 Q1314 1147 1290 1117 Q1260 1080 1225 1074 Z " />
<glyph glyph-name="Dcroat" unicode="&#x110;" horiz-adv-x="1342" d="M224 730 L359 1365 L751 1365 Q888 1365 973 1344 Q1058 1323 1120 1275 Q1293 1139 1293 840 Q1293 699 1254.5 562.5 Q1216 426 1147 318 Q983 64 726 15 Q648 0 473 0 L68 0 L216 693 L52 693 L60 730 L224 730 Z M262 730 L697 730 L687 693 L254 693 L115 37 L488 37 Q678 37 770 64 Q1021 137 1158 414 Q1254 609 1254 843 Q1254 1122 1093 1246 Q987 1328 752 1328 L389 1328 L262 730 Z " />
<glyph glyph-name="dcroat" unicode="&#x111;" horiz-adv-x="1088" d="M1075 1160 L828 0 L790 0 L850 284 Q782 120 667 42 Q562 -29 434 -29 Q284 -29 194 55 Q83 158 83 356 Q83 484 124 607.5 Q165 731 239 826 Q381 1010 604 1010 Q754 1010 840.5 927.5 Q927 845 937 693 L1037 1160 L679 1160 L687 1197 L1044 1197 L1080 1365 L1118 1365 L1083 1197 L1233 1197 L1225 1160 L1075 1160 Z M601 978 Q406 978 276 817 Q206 730 165 605 Q124 480 124 354 Q124 192 204 101 Q288 6 438 6 Q634 6 768 192 Q833 283 872 411.5 Q911 540 911 663 Q911 809 828 893.5 Q745 978 601 978 Z " />
<glyph glyph-name="Emacron" unicode="&#x112;" horiz-adv-x="1154" d="M1227 1365 L1219 1328 L389 1328 L261 729 L1037 729 L1029 692 L253 692 L114 37 L977 37 L969 0 L68 0 L358 1365 L1227 1365 Z M1124 1608 L1117 1571 L525 1571 L533 1608 L1124 1608 Z " />
<glyph glyph-name="emacron" unicode="&#x113;" horiz-adv-x="1019" d="M899 324 Q859 195 787 112 Q664 -28 467 -28 Q248 -28 155 129 Q91 236 91 389 Q91 524 132.5 644.5 Q174 765 250 850 Q390 1006 592 1006 Q761 1006 856.5 903 Q952 800 952 618 Q952 564 941 500 L135 500 Q126 450 126 398 Q126 221 201 125 Q295 3 461 3 Q605 3 707.5 85.5 Q810 168 859 324 L899 324 Z M143 537 L907 537 Q914 581 914 616 Q914 725 873 813 Q838 888 768 927 Q691 971 590 971 Q423 971 302 853.5 Q181 736 143 537 Z M915 1272 L907 1237 L387 1237 L394 1272 L915 1272 Z " />
<glyph glyph-name="Ebreve" unicode="&#x114;" horiz-adv-x="1154" d="M1227 1365 L1219 1328 L389 1328 L261 729 L1037 729 L1029 692 L253 692 L114 37 L977 37 L969 0 L68 0 L358 1365 L1227 1365 Z M1091 1722 Q1059 1609 986 1548.5 Q913 1488 809 1488 Q686 1488 623 1574 Q588 1621 586 1722 L624 1722 Q626 1636 659 1595 Q712 1526 810 1526 Q982 1526 1053 1722 L1091 1722 Z " />
<glyph glyph-name="ebreve" unicode="&#x115;" horiz-adv-x="1019" d="M899 324 Q859 195 787 112 Q664 -28 467 -28 Q248 -28 155 129 Q91 236 91 389 Q91 524 132.5 644.5 Q174 765 250 850 Q390 1006 592 1006 Q761 1006 856.5 903 Q952 800 952 618 Q952 564 941 500 L135 500 Q126 450 126 398 Q126 221 201 125 Q295 3 461 3 Q605 3 707.5 85.5 Q810 168 859 324 L899 324 Z M143 537 L907 537 Q914 581 914 616 Q914 725 873 813 Q838 888 768 927 Q691 971 590 971 Q423 971 302 853.5 Q181 736 143 537 Z M897 1380 Q832 1146 645 1146 Q449 1146 445 1380 L483 1380 Q484 1294 509 1252 Q550 1185 645 1185 Q797 1185 858 1380 L897 1380 Z " />
<glyph glyph-name="Edotaccent" unicode="&#x116;" horiz-adv-x="1154" d="M1227 1365 L1219 1328 L389 1328 L261 729 L1037 729 L1029 692 L253 692 L114 37 L977 37 L969 0 L68 0 L358 1365 L1227 1365 Z M814 1663 Q832 1663 844.5 1648.5 Q857 1634 857 1614 Q857 1593 844.5 1578.5 Q832 1564 813 1564 Q795 1564 782 1578.5 Q769 1593 769 1614 Q769 1634 782 1648.5 Q795 1663 814 1663 Z " />
<glyph glyph-name="edotaccent" unicode="&#x117;" horiz-adv-x="1019" d="M899 324 Q859 195 787 112 Q664 -28 467 -28 Q248 -28 155 129 Q91 236 91 389 Q91 524 132.5 644.5 Q174 765 250 850 Q390 1006 592 1006 Q761 1006 856.5 903 Q952 800 952 618 Q952 564 941 500 L135 500 Q126 450 126 398 Q126 221 201 125 Q295 3 461 3 Q605 3 707.5 85.5 Q810 168 859 324 L899 324 Z M143 537 L907 537 Q914 581 914 616 Q914 725 873 813 Q838 888 768 927 Q691 971 590 971 Q423 971 302 853.5 Q181 736 143 537 Z M642 1318 Q660 1318 672.5 1303.5 Q685 1289 685 1269 Q685 1248 672.5 1233.5 Q660 1219 641 1219 Q623 1219 610 1233.5 Q597 1248 597 1269 Q597 1289 610 1303.5 Q623 1318 642 1318 Z " />
<glyph glyph-name="Eogonek" unicode="&#x118;" horiz-adv-x="1154" d="M1227 1365 L1219 1328 L389 1328 L261 729 L1037 729 L1029 692 L253 692 L114 37 L977 37 L969 0 Q835 -82 835 -183 Q835 -229 874 -259 Q913 -289 973 -289 Q1017 -289 1077 -268 L1075 -306 Q1013 -327 966 -327 Q891 -327 843 -289 Q795 -251 795 -191 Q795 -73 921 0 L68 0 L358 1365 L1227 1365 Z " />
<glyph glyph-name="eogonek" unicode="&#x119;" horiz-adv-x="1019" d="M756 -261 L752 -299 Q690 -320 642 -320 Q568 -320 522.5 -283.5 Q477 -247 477 -187 Q477 -90 586 -13 Q527 -28 471 -28 Q248 -28 155 129 Q91 236 91 389 Q91 524 132.5 644.5 Q174 765 250 850 Q390 1006 592 1006 Q761 1006 856.5 903 Q952 800 952 618 Q952 564 941 500 L135 500 Q126 450 126 398 Q126 222 201 125 Q295 4 461 4 Q604 4 707 86.5 Q810 169 859 324 L899 324 Q864 212 814.5 147 Q765 82 660 10 Q517 -88 517 -178 Q517 -224 554 -253 Q591 -282 651 -282 Q695 -282 756 -261 Z M143 537 L907 537 Q914 581 914 616 Q914 725 873 813 Q838 888 768 927 Q691 971 590 971 Q423 971 302 853.5 Q181 736 143 537 Z " />
<glyph glyph-name="Ecaron" unicode="&#x11a;" horiz-adv-x="1154" d="M1227 1365 L1219 1328 L389 1328 L261 729 L1037 729 L1029 692 L253 692 L114 37 L977 37 L969 0 L68 0 L358 1365 L1227 1365 Z M569 1729 L620 1729 L806 1512 L1055 1729 L1108 1729 L831 1481 L779 1481 L569 1729 Z " />
<glyph glyph-name="ecaron" unicode="&#x11b;" horiz-adv-x="1019" d="M899 324 Q859 195 787 112 Q664 -28 467 -28 Q248 -28 155 129 Q91 236 91 389 Q91 524 132.5 644.5 Q174 765 250 850 Q390 1006 592 1006 Q761 1006 856.5 903 Q952 800 952 618 Q952 564 941 500 L135 500 Q126 450 126 398 Q126 221 201 125 Q295 3 461 3 Q605 3 707.5 85.5 Q810 168 859 324 L899 324 Z M143 537 L907 537 Q914 581 914 616 Q914 725 873 813 Q838 888 768 927 Q691 971 590 971 Q423 971 302 853.5 Q181 736 143 537 Z M432 1402 L484 1402 L633 1162 L863 1402 L911 1402 L657 1133 L605 1133 L432 1402 Z " />
<glyph glyph-name="Gcircumflex" unicode="&#x11c;" horiz-adv-x="1486" d="M1377 643 L1240 -3 L1201 -3 L1245 205 Q1257 259 1289 382 Q1240 279 1214 238.5 Q1188 198 1142 152 Q958 -32 683 -32 Q395 -32 249 161 Q136 310 136 539 Q136 732 205 909 Q274 1086 395 1205 Q591 1397 875 1397 Q1122 1397 1261 1262 Q1386 1141 1393 953 L1356 953 Q1342 1126 1237 1233 Q1178 1294 1083.5 1327.5 Q989 1361 878 1361 Q694 1361 541 1269 Q312 1132 222 837 Q176 689 176 529 Q176 290 315 143 Q448 3 685 3 Q1020 3 1210 294 Q1294 421 1331 606 L800 606 L807 643 L1377 643 Z M1185 1481 L1134 1481 L948 1699 L699 1481 L646 1481 L923 1729 L976 1729 L1185 1481 Z " />
<glyph glyph-name="gcircumflex" unicode="&#x11d;" horiz-adv-x="1069" d="M1017 979 L826 76 Q782 -130 702 -224 Q588 -360 374 -360 Q191 -360 107 -278 Q32 -204 32 -90 Q32 -79 33 -56 L73 -56 Q73 -70 73 -84 Q73 -324 375 -324 Q567 -324 671 -206 Q714 -158 741.5 -84.5 Q769 -11 800 133 L834 293 Q706 52 464 52 Q339 52 248 114 Q182 158 148 227 Q100 326 100 448 Q100 586 154 711 Q230 886 378 961 Q471 1008 578 1008 Q729 1008 819 924 Q909 840 918 691 L979 979 L1017 979 Z M577 972 Q485 972 402 932 Q319 892 261 819 Q204 748 171.5 647 Q139 546 139 441 Q139 277 227 182 Q315 87 468 87 Q644 87 759 231 Q820 309 857 423 Q894 537 894 649 Q894 835 771 916 Q687 972 577 972 Z M871 1133 L819 1133 L670 1372 L440 1133 L392 1133 L646 1402 L699 1402 L871 1133 Z " />
<glyph glyph-name="Gbreve" unicode="&#x11e;" horiz-adv-x="1486" d="M1377 643 L1240 -3 L1201 -3 L1245 205 Q1257 259 1289 382 Q1240 279 1214 238.5 Q1188 198 1142 152 Q958 -32 683 -32 Q395 -32 249 161 Q136 310 136 539 Q136 732 205 909 Q274 1086 395 1205 Q591 1397 875 1397 Q1122 1397 1261 1262 Q1386 1141 1393 953 L1356 953 Q1342 1126 1237 1233 Q1178 1294 1083.5 1327.5 Q989 1361 878 1361 Q694 1361 541 1269 Q312 1132 222 837 Q176 689 176 529 Q176 290 315 143 Q448 3 685 3 Q1020 3 1210 294 Q1294 421 1331 606 L800 606 L807 643 L1377 643 Z M1209 1722 Q1177 1609 1104 1548.5 Q1031 1488 926 1488 Q803 1488 740 1574 Q706 1621 704 1722 L742 1722 Q744 1636 776 1595 Q830 1526 927 1526 Q1100 1526 1171 1722 L1209 1722 Z " />
<glyph glyph-name="gbreve" unicode="&#x11f;" horiz-adv-x="1069" d="M1017 979 L826 76 Q782 -130 702 -224 Q588 -360 374 -360 Q191 -360 107 -278 Q32 -204 32 -90 Q32 -79 33 -56 L73 -56 Q73 -70 73 -84 Q73 -324 375 -324 Q567 -324 671 -206 Q714 -158 741.5 -84.5 Q769 -11 800 133 L834 293 Q706 52 464 52 Q339 52 248 114 Q182 158 148 227 Q100 326 100 448 Q100 586 154 711 Q230 886 378 961 Q471 1008 578 1008 Q729 1008 819 924 Q909 840 918 691 L979 979 L1017 979 Z M577 972 Q485 972 402 932 Q319 892 261 819 Q204 748 171.5 647 Q139 546 139 441 Q139 277 227 182 Q315 87 468 87 Q644 87 759 231 Q820 309 857 423 Q894 537 894 649 Q894 835 771 916 Q687 972 577 972 Z M887 1380 Q823 1146 635 1146 Q439 1146 436 1380 L474 1380 Q475 1294 500 1252 Q541 1185 635 1185 Q787 1185 849 1380 L887 1380 Z " />
<glyph glyph-name="Gdotaccent" unicode="&#x120;" horiz-adv-x="1486" d="M1377 643 L1240 -3 L1201 -3 L1245 205 Q1257 259 1289 382 Q1240 279 1214 238.5 Q1188 198 1142 152 Q958 -32 683 -32 Q395 -32 249 161 Q136 310 136 539 Q136 732 205 909 Q274 1086 395 1205 Q591 1397 875 1397 Q1122 1397 1261 1262 Q1386 1141 1393 953 L1356 953 Q1342 1126 1237 1233 Q1178 1294 1083.5 1327.5 Q989 1361 878 1361 Q694 1361 541 1269 Q312 1132 222 837 Q176 689 176 529 Q176 290 315 143 Q448 3 685 3 Q1020 3 1210 294 Q1294 421 1331 606 L800 606 L807 643 L1377 643 Z M932 1663 Q950 1663 962.5 1648.5 Q975 1634 975 1614 Q975 1593 962.5 1578.5 Q950 1564 931 1564 Q913 1564 900 1578.5 Q887 1593 887 1614 Q887 1634 900 1648.5 Q913 1663 932 1663 Z " />
<glyph glyph-name="gdotaccent" unicode="&#x121;" horiz-adv-x="1069" d="M1017 979 L826 76 Q782 -130 702 -224 Q588 -360 374 -360 Q191 -360 107 -278 Q32 -204 32 -90 Q32 -79 33 -56 L73 -56 Q73 -70 73 -84 Q73 -324 375 -324 Q567 -324 671 -206 Q714 -158 741.5 -84.5 Q769 -11 800 133 L834 293 Q706 52 464 52 Q339 52 248 114 Q182 158 148 227 Q100 326 100 448 Q100 586 154 711 Q230 886 378 961 Q471 1008 578 1008 Q729 1008 819 924 Q909 840 918 691 L979 979 L1017 979 Z M577 972 Q485 972 402 932 Q319 892 261 819 Q204 748 171.5 647 Q139 546 139 441 Q139 277 227 182 Q315 87 468 87 Q644 87 759 231 Q820 309 857 423 Q894 537 894 649 Q894 835 771 916 Q687 972 577 972 Z M632 1318 Q650 1318 662.5 1303.5 Q675 1289 675 1269 Q675 1248 662.5 1233.5 Q650 1219 631 1219 Q613 1219 600 1233.5 Q587 1248 587 1269 Q587 1289 600 1303.5 Q613 1318 632 1318 Z " />
<glyph glyph-name="Gcommaaccent" unicode="&#x122;" horiz-adv-x="1486" d="M1377 643 L1240 -3 L1201 -3 L1245 205 Q1257 259 1289 382 Q1240 279 1214 238.5 Q1188 198 1142 152 Q958 -32 683 -32 Q395 -32 249 161 Q136 310 136 539 Q136 732 205 909 Q274 1086 395 1205 Q591 1397 875 1397 Q1122 1397 1261 1262 Q1386 1141 1393 953 L1356 953 Q1342 1126 1237 1233 Q1178 1294 1083.5 1327.5 Q989 1361 878 1361 Q694 1361 541 1269 Q312 1132 222 837 Q176 689 176 529 Q176 290 315 143 Q448 3 685 3 Q1020 3 1210 294 Q1294 421 1331 606 L800 606 L807 643 L1377 643 Z M569 -400 L577 -359 Q627 -329 657 -210 Q607 -210 607 -159 Q607 -138 621 -123.5 Q635 -109 655 -109 Q675 -109 688 -125 Q701 -141 701 -166 Q701 -206 680 -266.5 Q659 -327 634 -358 Q605 -395 569 -400 Z " />
<glyph glyph-name="gcommaaccent" unicode="&#x123;" horiz-adv-x="1069" d="M1017 979 L826 76 Q782 -130 702 -224 Q588 -360 374 -360 Q191 -360 107 -278 Q32 -204 32 -90 Q32 -79 33 -56 L73 -56 Q73 -70 73 -84 Q73 -324 375 -324 Q567 -324 671 -206 Q714 -158 741.5 -84.5 Q769 -11 800 133 L834 293 Q706 52 464 52 Q339 52 248 114 Q182 158 148 227 Q100 326 100 448 Q100 586 154 711 Q230 886 378 961 Q471 1008 578 1008 Q729 1008 819 924 Q909 840 918 691 L979 979 L1017 979 Z M577 972 Q485 972 402 932 Q319 892 261 819 Q204 748 171.5 647 Q139 546 139 441 Q139 277 227 182 Q315 87 468 87 Q644 87 759 231 Q820 309 857 423 Q894 537 894 649 Q894 835 771 916 Q687 972 577 972 Z M744 1445 L736 1404 Q686 1375 657 1255 Q660 1255 661 1255 Q706 1253 706 1204 Q706 1183 692 1168.5 Q678 1154 659 1154 Q639 1154 626 1170.5 Q613 1187 613 1211 Q613 1251 634 1311.5 Q655 1372 679 1403 Q709 1440 744 1445 Z " />
<glyph glyph-name="Hcircumflex" unicode="&#x124;" horiz-adv-x="1335" d="M1352 1365 L1062 0 L1024 0 L1171 693 L254 693 L106 0 L68 0 L358 1365 L396 1365 L261 730 L1179 730 L1314 1365 L1352 1365 Z M1150 1481 L1099 1481 L913 1699 L665 1481 L611 1481 L888 1729 L941 1729 L1150 1481 Z " />
<glyph glyph-name="hcircumflex" unicode="&#x125;" horiz-adv-x="1057" d="M383 1365 L250 739 Q335 873 400 921 Q515 1006 663 1006 Q784 1006 866 943 Q954 876 954 760 Q954 701 922 551 L805 0 L767 0 L886 559 Q915 697 915 761 Q915 856 844.5 913.5 Q774 971 657 971 Q428 971 296 762 Q234 663 199 500 L93 0 L55 0 L345 1365 L383 1365 Z M840 1481 L789 1481 L603 1699 L354 1481 L301 1481 L578 1729 L630 1729 L840 1481 Z " />
<glyph glyph-name="Hbar" unicode="&#x126;" horiz-adv-x="1335" d="M1301 1126 L1452 1126 L1444 1089 L1294 1089 L1062 0 L1024 0 L1171 693 L254 693 L106 0 L68 0 L300 1089 L150 1089 L157 1126 L307 1126 L358 1365 L396 1365 L346 1126 L1263 1126 L1314 1365 L1352 1365 L1301 1126 Z M338 1089 L261 730 L1179 730 L1255 1089 L338 1089 Z " />
<glyph glyph-name="hbar" unicode="&#x127;" horiz-adv-x="1057" d="M345 1365 L383 1365 L348 1197 L705 1197 L698 1160 L340 1160 L250 739 Q335 873 400 921 Q515 1006 663 1006 Q784 1006 866 943 Q954 876 954 761 Q954 701 922 551 L805 0 L767 0 L886 559 Q915 697 915 761 Q915 856 844.5 913.5 Q774 971 657 971 Q428 971 296 762 Q234 663 199 500 L93 0 L55 0 L302 1160 L151 1160 L159 1197 L309 1197 L345 1365 Z " />
<glyph glyph-name="Itilde" unicode="&#x128;" horiz-adv-x="380" d="M396 1365 L106 0 L68 0 L358 1365 L396 1365 Z M664 1669 Q618 1519 521 1519 Q488 1519 464.5 1531.5 Q441 1544 350 1610 Q312 1638 276 1638 Q201 1638 169 1522 L129 1522 Q147 1594 186.5 1635.5 Q226 1677 277 1677 Q309 1677 336.5 1662.5 Q364 1648 443 1589 Q488 1556 521 1556 Q586 1556 625 1669 L664 1669 Z " />
<glyph glyph-name="itilde" unicode="&#x129;" horiz-adv-x="352" d="M301 979 L93 0 L55 0 L263 979 L301 979 Z M557 1330 Q513 1180 420 1180 Q390 1180 368.5 1192.5 Q347 1205 263 1272 Q228 1300 194 1300 Q125 1300 93 1184 L55 1184 Q94 1339 195 1339 Q225 1339 250.5 1324.5 Q276 1310 350 1250 Q391 1217 422 1217 Q482 1217 519 1330 L557 1330 Z " />
<glyph glyph-name="Imacron" unicode="&#x12a;" horiz-adv-x="380" d="M396 1365 L106 0 L68 0 L358 1365 L396 1365 Z M627 1608 L620 1571 L206 1571 L214 1608 L627 1608 Z " />
<glyph glyph-name="imacron" unicode="&#x12b;" horiz-adv-x="352" d="M301 979 L93 0 L55 0 L263 979 L301 979 Z M504 1272 L496 1237 L139 1237 L147 1272 L504 1272 Z " />
<glyph glyph-name="Ibreve" unicode="&#x12c;" horiz-adv-x="380" d="M396 1365 L106 0 L68 0 L358 1365 L396 1365 Z M707 1722 Q675 1609 601.5 1548.5 Q528 1488 424 1488 Q301 1488 238 1574 Q204 1621 202 1722 L240 1722 Q242 1636 274 1595 Q328 1526 425 1526 Q598 1526 668 1722 L707 1722 Z " />
<glyph glyph-name="ibreve" unicode="&#x12d;" horiz-adv-x="352" d="M301 979 L93 0 L55 0 L263 979 L301 979 Z M547 1380 Q489 1146 316 1146 Q225 1146 182 1202.5 Q139 1259 137 1380 L175 1380 Q176 1293 197 1252 Q233 1184 316 1184 Q453 1184 509 1380 L547 1380 Z " />
<glyph glyph-name="Iogonek" unicode="&#x12e;" horiz-adv-x="380" d="M106 0 Q46 -53 22.5 -92 Q-1 -131 -1 -180 Q-1 -228 31.5 -258 Q64 -288 116 -288 Q150 -288 190 -270 L188 -309 Q145 -326 108 -326 Q41 -326 0 -286 Q-41 -246 -41 -182 Q-41 -75 68 0 L358 1365 L396 1365 L106 0 Z " />
<glyph glyph-name="iogonek" unicode="&#x12f;" horiz-adv-x="352" d="M92 0 Q-25 -101 -25 -184 Q-25 -228 3.5 -255 Q32 -282 78 -282 Q112 -282 153 -264 L149 -302 Q105 -320 69 -320 Q5 -320 -31 -280 Q-65 -242 -65 -190 Q-65 -80 54 0 L262 979 L300 979 L92 0 Z M342 1319 Q360 1319 372.5 1304.5 Q385 1290 385 1269 Q385 1249 372.5 1234.5 Q360 1220 341 1220 Q323 1220 310 1234.5 Q297 1249 297 1270 Q297 1290 310 1304.5 Q323 1319 342 1319 Z " />
<glyph glyph-name="Idot" unicode="&#x130;" horiz-adv-x="380" d="M396 1365 L106 0 L68 0 L358 1365 L396 1365 Z M426 1663 Q444 1663 456.5 1648.5 Q469 1634 469 1614 Q469 1593 456.5 1578.5 Q444 1564 425 1564 Q407 1564 394 1578.5 Q381 1593 381 1614 Q381 1634 394 1648.5 Q407 1663 426 1663 Z " />
<glyph glyph-name="dotlessi" unicode="&#x131;" horiz-adv-x="352" d="M301 979 L93 0 L55 0 L263 979 L301 979 Z " />
<glyph glyph-name="IJ" unicode="&#x132;" horiz-adv-x="1305" d="M396 1365 L106 0 L68 0 L358 1365 L396 1365 Z M1342 1365 L1131 372 Q1098 218 1048 140 Q941 -28 710 -28 Q554 -28 468 47.5 Q382 123 382 261 Q382 340 401 422 L440 422 Q421 324 421 257 Q421 154 478 93 Q557 7 710 7 Q891 7 994 130 Q1057 205 1096 385 L1304 1365 L1342 1365 Z " />
<glyph glyph-name="ij" unicode="&#x133;" horiz-adv-x="696" d="M301 979 L93 0 L55 0 L263 979 L301 979 Z M343 1319 Q361 1319 373.5 1304.5 Q386 1290 386 1269 Q386 1249 373.5 1234.5 Q361 1220 342 1220 Q324 1220 311 1234.5 Q298 1249 298 1270 Q298 1290 311 1304.5 Q324 1319 343 1319 Z M645 979 L421 -76 Q399 -181 388 -213 Q377 -245 356 -273 Q302 -340 184 -340 Q163 -340 124 -337 L132 -300 Q164 -306 188 -306 Q283 -306 327 -245 Q345 -221 353 -193.5 Q361 -166 393 -26 L607 979 L645 979 Z M687 1319 Q705 1319 717.5 1304.5 Q730 1290 730 1269 Q730 1249 717.5 1234.5 Q705 1220 686 1220 Q668 1220 655 1234.5 Q642 1249 642 1270 Q642 1290 655 1304.5 Q668 1319 687 1319 Z " />
<glyph glyph-name="Jcircumflex" unicode="&#x134;" horiz-adv-x="932" d="M969 1365 L758 372 Q726 218 676 140 Q568 -28 337 -28 Q181 -28 95 47.5 Q9 123 9 261 Q9 340 28 422 L67 422 Q48 324 48 257 Q48 154 105 93 Q184 7 337 7 Q518 7 621 130 Q684 205 723 385 L931 1365 L969 1365 Z M1243 1481 L1192 1481 L1006 1699 L757 1481 L704 1481 L981 1729 L1034 1729 L1243 1481 Z " />
<glyph glyph-name="jcircumflex" unicode="&#x135;" horiz-adv-x="351" d="M299 979 L75 -76 Q52 -183 41.5 -214 Q31 -245 10 -273 Q-44 -340 -162 -340 Q-183 -340 -222 -337 L-214 -300 Q-182 -306 -158 -306 Q-63 -306 -18 -245 Q-1 -221 7.5 -193.5 Q16 -166 48 -26 L261 979 L299 979 Z M535 1133 L483 1133 L334 1372 L104 1133 L56 1133 L310 1402 L362 1402 L535 1133 Z " />
<glyph glyph-name="Kcommaaccent" unicode="&#x136;" horiz-adv-x="1255" d="M1354 1365 L590 780 L1152 0 L1106 0 L560 758 L211 494 L106 0 L68 0 L358 1365 L396 1365 L216 540 Q263 579 375 664 L1297 1365 L1354 1365 Z M460 -400 L468 -359 Q518 -329 548 -210 Q498 -210 498 -159 Q498 -138 512 -123.5 Q526 -109 546 -109 Q566 -109 579 -125.5 Q592 -142 592 -166 Q592 -206 571 -266.5 Q550 -327 525 -358 Q496 -395 460 -400 Z " />
<glyph glyph-name="kcommaaccent" unicode="&#x137;" horiz-adv-x="984" d="M383 1365 L208 539 Q188 446 182 418 Q199 432 267 483 L919 979 L978 979 L444 574 L848 0 L800 0 L415 551 L171 367 L93 0 L55 0 L345 1365 L383 1365 Z M329 -393 L337 -352 Q387 -323 416 -203 Q367 -202 367 -152 Q367 -131 380.5 -116.5 Q394 -102 414 -102 Q434 -102 447 -118.5 Q460 -135 460 -159 Q460 -199 439 -259.5 Q418 -320 394 -351 Q364 -388 329 -393 Z " />
<glyph glyph-name="kgreenlandic" unicode="&#x138;" horiz-adv-x="984" d="M301 979 L208 539 Q188 447 182 418 Q199 432 267 484 L919 979 L978 979 L444 574 L848 0 L800 0 L415 552 L171 367 L93 0 L55 0 L263 979 L301 979 Z " />
<glyph glyph-name="Lacute" unicode="&#x139;" horiz-adv-x="1028" d="M396 1365 L114 37 L906 37 L898 0 L68 0 L358 1365 L396 1365 Z M725 1729 L406 1481 L357 1481 L670 1729 L725 1729 Z " />
<glyph glyph-name="lacute" unicode="&#x13a;" horiz-adv-x="352" d="M383 1365 L93 0 L55 0 L345 1365 L383 1365 Z M666 1729 L387 1481 L341 1481 L611 1729 L666 1729 Z " />
<glyph glyph-name="Lcommaaccent" unicode="&#x13b;" horiz-adv-x="1028" d="M396 1365 L114 37 L906 37 L898 0 L68 0 L358 1365 L396 1365 Z M381 -400 L389 -359 Q439 -329 469 -210 Q419 -210 419 -159 Q419 -138 432.5 -123.5 Q446 -109 466 -109 Q486 -109 499 -125.5 Q512 -142 512 -166 Q512 -206 491 -266.5 Q470 -327 446 -358 Q416 -395 381 -400 Z " />
<glyph glyph-name="lcommaaccent" unicode="&#x13c;" horiz-adv-x="352" d="M383 1365 L93 0 L55 0 L345 1365 L383 1365 Z M-36 -393 L-28 -352 Q22 -323 52 -203 Q2 -202 2 -152 Q2 -131 16 -116.5 Q30 -102 50 -102 Q70 -102 83 -118.5 Q96 -135 96 -159 Q96 -198 75 -259 Q54 -320 29 -351 Q0 -388 -36 -393 Z " />
<glyph glyph-name="Lcaron" unicode="&#x13d;" horiz-adv-x="1028" d="M396 1365 L114 37 L906 37 L898 0 L68 0 L358 1365 L396 1365 Z M655 1074 L663 1115 Q713 1145 743 1264 Q740 1264 738 1264 Q693 1264 693 1315 Q693 1336 707 1350.5 Q721 1365 741 1365 Q761 1365 774 1348.5 Q787 1332 787 1308 Q787 1268 766 1207.5 Q745 1147 720 1117 Q691 1080 655 1074 Z " />
<glyph glyph-name="lcaron" unicode="&#x13e;" horiz-adv-x="470" d="M383 1365 L93 0 L55 0 L345 1365 L383 1365 Z M490 1074 L498 1115 Q548 1145 578 1264 Q574 1264 573 1264 Q528 1264 528 1315 Q528 1336 542 1350.5 Q556 1365 575 1365 Q595 1365 608 1348.5 Q621 1332 621 1308 Q621 1269 600 1208 Q579 1147 555 1117 Q525 1080 490 1074 Z " />
<glyph glyph-name="Ldot" unicode="&#x13f;" horiz-adv-x="1028" d="M396 1365 L114 37 L906 37 L898 0 L68 0 L358 1365 L396 1365 Z M748 745 Q766 745 778.5 730.5 Q791 716 791 696 Q791 675 778.5 660.5 Q766 646 747 646 Q729 646 716 660.5 Q703 675 703 696 Q703 716 716 730.5 Q729 745 748 745 Z " />
<glyph glyph-name="ldot" unicode="&#x140;" horiz-adv-x="400" d="M383 1365 L93 0 L55 0 L345 1365 L383 1365 Z M421 745 Q439 745 451.5 730.5 Q464 716 464 696 Q464 675 451.5 660.5 Q439 646 420 646 Q402 646 389 660.5 Q376 675 376 696 Q376 716 389 730.5 Q402 745 421 745 Z " />
<glyph glyph-name="Lslash" unicode="&#x141;" horiz-adv-x="1028" d="M238 618 L115 37 L907 37 L899 0 L69 0 L197 603 L23 492 L34 542 L207 653 L359 1365 L397 1365 L249 667 L588 877 L577 828 L238 618 Z " />
<glyph glyph-name="lslash" unicode="&#x142;" horiz-adv-x="366" d="M251 711 L100 0 L61 0 L209 697 L51 596 L62 646 L220 746 L352 1365 L390 1365 L261 760 L420 861 L409 812 L251 711 Z " />
<glyph glyph-name="Nacute" unicode="&#x143;" horiz-adv-x="1370" d="M1387 1365 L1097 0 L1058 0 L510 1075 Q444 1205 388 1326 Q378 1283 343 1113 L324 1024 L106 0 L68 0 L358 1365 L408 1365 L935 323 Q1041 113 1072 43 Q1107 229 1147 417 L1349 1365 L1387 1365 Z M1183 1729 L850 1481 L801 1481 L1127 1729 L1183 1729 Z " />
<glyph glyph-name="nacute" unicode="&#x144;" horiz-adv-x="1049" d="M302 980 L252 748 Q319 860 394 918 Q507 1006 657 1006 Q764 1006 844 952 Q944 885 944 762 Q944 694 913 549 L796 0 L758 0 L878 565 Q906 695 906 762 Q906 851 832.5 911 Q759 971 650 971 Q565 971 486.5 934 Q408 897 348 830 Q288 762 256 689 Q224 616 196 482 L93 0 L55 0 L263 980 L302 980 Z M924 1401 L618 1133 L568 1133 L868 1401 L924 1401 Z " />
<glyph glyph-name="Ncommaaccent" unicode="&#x145;" horiz-adv-x="1370" d="M1387 1365 L1097 0 L1058 0 L510 1075 Q444 1205 388 1326 Q378 1283 343 1113 L324 1024 L106 0 L68 0 L358 1365 L408 1365 L935 323 Q1041 113 1072 43 Q1107 229 1147 417 L1349 1365 L1387 1365 Z M497 -400 L505 -359 Q555 -329 585 -210 Q535 -210 535 -159 Q535 -138 549 -123.5 Q563 -109 583 -109 Q603 -109 616 -125.5 Q629 -142 629 -166 Q629 -206 608 -266.5 Q587 -327 562 -358 Q533 -395 497 -400 Z " />
<glyph glyph-name="ncommaaccent" unicode="&#x146;" horiz-adv-x="1049" d="M302 980 L252 748 Q319 860 394 918 Q507 1006 657 1006 Q764 1006 844 952 Q944 885 944 762 Q944 694 913 549 L796 0 L758 0 L878 565 Q906 695 906 762 Q906 851 832.5 911 Q759 971 650 971 Q565 971 486.5 934 Q408 897 348 830 Q288 762 256 689 Q224 616 196 482 L93 0 L55 0 L263 980 L302 980 Z M339 -393 L346 -352 Q397 -323 426 -203 Q377 -202 377 -152 Q377 -131 391 -116.5 Q405 -102 424 -102 Q444 -102 457 -118.5 Q470 -135 470 -159 Q470 -199 449 -259.5 Q428 -320 404 -351 Q374 -388 339 -393 Z " />
<glyph glyph-name="Ncaron" unicode="&#x147;" horiz-adv-x="1370" d="M1387 1365 L1097 0 L1058 0 L510 1075 Q444 1205 388 1326 Q378 1283 343 1113 L324 1024 L106 0 L68 0 L358 1365 L408 1365 L935 323 Q1041 113 1072 43 Q1107 229 1147 417 L1349 1365 L1387 1365 Z M649 1729 L700 1729 L886 1512 L1135 1729 L1188 1729 L911 1481 L859 1481 L649 1729 Z " />
<glyph glyph-name="ncaron" unicode="&#x148;" horiz-adv-x="1049" d="M302 980 L252 748 Q319 860 394 918 Q507 1006 657 1006 Q764 1006 844 952 Q944 885 944 762 Q944 694 913 549 L796 0 L758 0 L878 565 Q906 695 906 762 Q906 851 832.5 911 Q759 971 650 971 Q565 971 486.5 934 Q408 897 348 830 Q288 762 256 689 Q224 616 196 482 L93 0 L55 0 L263 980 L302 980 Z M454 1402 L505 1402 L655 1162 L885 1402 L932 1402 L679 1133 L626 1133 L454 1402 Z " />
<glyph glyph-name="napostrophe" unicode="&#x149;" horiz-adv-x="1278" d="M241 971 L249 1012 Q299 1045 329 1176 Q279 1177 279 1227 Q279 1248 293 1262.5 Q307 1277 327 1277 Q347 1277 360 1260.5 Q373 1244 373 1219 Q373 1178 352 1113.5 Q331 1049 306 1017 Q277 977 241 971 Z M531 980 L481 748 Q548 860 623 918 Q736 1006 886 1006 Q993 1006 1073 952 Q1173 885 1173 762 Q1173 694 1142 549 L1026 0 L987 0 L1107 565 Q1135 695 1135 762 Q1135 851 1061.5 911 Q988 971 879 971 Q794 971 715.5 934 Q637 897 577 830 Q517 762 485 689 Q453 616 425 482 L322 0 L284 0 L492 980 L531 980 Z " />
<glyph glyph-name="Eng" unicode="&#x14a;" horiz-adv-x="1376" d="M362 1365 L402 1365 L342 1084 Q407 1188 470 1244 Q641 1396 918 1396 Q1133 1396 1240 1300 Q1332 1217 1332 1103 Q1332 1061 1321 1010 L1077 -138 Q1060 -220 1028 -263 Q996 -306 940 -326 Q901 -339 799 -339 L790 -339 L797 -305 Q878 -303 902 -300 Q926 -297 950 -284 Q1014 -249 1036 -146 L1273 966 Q1290 1048 1290 1093 Q1290 1193 1227 1258 Q1194 1292 1155 1310 Q1044 1360 903 1360 Q607 1360 434 1166 Q380 1105 349 1039 Q318 973 297 872 L112 4 L72 0 L362 1365 Z " />
<glyph glyph-name="eng" unicode="&#x14b;" horiz-adv-x="1049" d="M302 980 L252 748 Q319 860 394 918 Q507 1006 657 1006 Q764 1006 844 952 Q944 885 944 762 Q944 694 913 549 L780 -76 Q757 -183 746.5 -214 Q736 -245 715 -273 Q661 -340 543 -340 Q522 -340 483 -337 L491 -300 Q523 -306 547 -306 Q642 -306 687 -245 Q704 -221 712.5 -193.5 Q721 -166 753 -26 L878 565 Q906 695 906 762 Q906 851 832.5 911 Q759 971 650 971 Q565 971 486.5 934 Q408 897 348 830 Q288 762 256 689 Q224 616 196 482 L93 0 L55 0 L263 980 L302 980 Z " />
<glyph glyph-name="Omacron" unicode="&#x14c;" horiz-adv-x="1457" d="M861 1399 Q1057 1399 1186 1312 Q1288 1243 1345 1131 Q1410 1004 1410 847 Q1410 720 1376.5 586 Q1343 452 1285 342 Q1083 -35 677 -35 Q461 -35 322 83 Q136 243 136 535 Q136 760 223 959 Q333 1210 535 1319 Q685 1399 861 1399 Z M855 1363 Q573 1363 387 1149 Q265 1009 211 800 Q176 662 176 538 Q176 292 313.5 145.5 Q451 -1 682 -1 Q941 -1 1122 183 Q1242 306 1305 487 Q1369 668 1369 848 Q1369 1042 1270 1176 Q1131 1363 855 1363 Z M1251 1608 L1243 1571 L652 1571 L660 1608 L1251 1608 Z " />
<glyph glyph-name="omacron" unicode="&#x14d;" horiz-adv-x="1053" d="M610 1008 Q781 1008 882 897 Q972 798 972 625 Q972 460 908 303 Q831 113 688 29 Q587 -30 465 -30 Q282 -30 183 76 Q139 125 113 204 Q87 283 87 372 Q87 528 147 675 Q222 861 366 945 Q475 1008 610 1008 Z M607 972 Q391 972 262 803 Q200 722 163.5 605.5 Q127 489 127 372 Q127 176 234 83 Q322 6 463 6 Q668 6 796 177 Q856 257 894.5 385 Q933 513 933 634 Q933 801 833 893 Q747 972 607 972 Z M945 1272 L938 1237 L417 1237 L425 1272 L945 1272 Z " />
<glyph glyph-name="Obreve" unicode="&#x14e;" horiz-adv-x="1457" d="M861 1399 Q1057 1399 1186 1312 Q1288 1243 1345 1131 Q1410 1004 1410 847 Q1410 720 1376.5 586 Q1343 452 1285 342 Q1083 -35 677 -35 Q461 -35 322 83 Q136 243 136 535 Q136 760 223 959 Q333 1210 535 1319 Q685 1399 861 1399 Z M855 1363 Q573 1363 387 1149 Q265 1009 211 800 Q176 662 176 538 Q176 292 313.5 145.5 Q451 -1 682 -1 Q941 -1 1122 183 Q1242 306 1305 487 Q1369 668 1369 848 Q1369 1042 1270 1176 Q1131 1363 855 1363 Z M1228 1722 Q1196 1609 1123 1548.5 Q1050 1488 945 1488 Q822 1488 759 1574 Q725 1621 723 1722 L761 1722 Q763 1636 795 1595 Q849 1526 946 1526 Q1119 1526 1189 1722 L1228 1722 Z " />
<glyph glyph-name="obreve" unicode="&#x14f;" horiz-adv-x="1053" d="M610 1008 Q781 1008 882 897 Q972 798 972 625 Q972 460 908 303 Q831 113 688 29 Q587 -30 465 -30 Q282 -30 183 76 Q139 125 113 204 Q87 283 87 372 Q87 528 147 675 Q222 861 366 945 Q475 1008 610 1008 Z M607 972 Q391 972 262 803 Q200 722 163.5 605.5 Q127 489 127 372 Q127 176 234 83 Q322 6 463 6 Q668 6 796 177 Q856 257 894.5 385 Q933 513 933 634 Q933 801 833 893 Q747 972 607 972 Z M914 1380 Q850 1146 663 1146 Q467 1146 463 1380 L501 1380 Q502 1294 527 1252 Q568 1185 662 1185 Q814 1185 876 1380 L914 1380 Z " />
<glyph glyph-name="Ohungarumlaut" unicode="&#x150;" horiz-adv-x="1457" d="M861 1399 Q1057 1399 1186 1312 Q1288 1243 1345 1131 Q1410 1004 1410 847 Q1410 720 1376.5 586 Q1343 452 1285 342 Q1083 -35 677 -35 Q461 -35 322 83 Q136 243 136 535 Q136 760 223 959 Q333 1210 535 1319 Q685 1399 861 1399 Z M855 1363 Q573 1363 387 1149 Q265 1009 211 800 Q176 662 176 538 Q176 292 313.5 145.5 Q451 -1 682 -1 Q941 -1 1122 183 Q1242 306 1305 487 Q1369 668 1369 848 Q1369 1042 1270 1176 Q1131 1363 855 1363 Z M1005 1729 L768 1481 L724 1481 L955 1729 L1005 1729 Z M1306 1729 L1068 1481 L1024 1481 L1255 1729 L1306 1729 Z " />
<glyph glyph-name="ohungarumlaut" unicode="&#x151;" horiz-adv-x="1053" d="M610 1008 Q781 1008 882 897 Q972 798 972 625 Q972 460 908 303 Q831 113 688 29 Q587 -30 465 -30 Q282 -30 183 76 Q139 125 113 204 Q87 283 87 372 Q87 528 147 675 Q222 861 366 945 Q475 1008 610 1008 Z M607 972 Q391 972 262 803 Q200 722 163.5 605.5 Q127 489 127 372 Q127 176 234 83 Q322 6 463 6 Q668 6 796 177 Q856 257 894.5 385 Q933 513 933 634 Q933 801 833 893 Q747 972 607 972 Z M746 1401 L535 1133 L491 1133 L695 1401 L746 1401 Z M1005 1401 L794 1133 L750 1133 L955 1401 L1005 1401 Z " />
<glyph glyph-name="OE" unicode="&#x152;" horiz-adv-x="2029" d="M2101 1365 L2093 1328 L1359 1328 L1233 732 L1914 732 L1906 695 L1225 695 L1085 37 L1852 37 L1844 0 L1039 0 L1070 146 Q893 -32 656 -32 Q439 -32 295 108 Q136 263 136 534 Q136 755 215 944 Q313 1176 511 1299 Q670 1398 856 1398 Q1000 1398 1111 1340 Q1222 1282 1288 1171 L1329 1365 L2101 1365 Z M1084 213 L1278 1125 Q1279 1129 1230 1192 Q1195 1237 1178.5 1252.5 Q1162 1268 1124 1290 Q1006 1359 854 1359 Q698 1359 561 1284 Q353 1171 252 929 Q176 746 176 536 Q176 278 325 132 Q457 3 658 3 Q742 3 827 29 Q912 55 960 95 Q1050 171 1065.5 185.5 Q1081 200 1084 213 Z " />
<glyph glyph-name="oe" unicode="&#x153;" horiz-adv-x="1762" d="M1646 322 Q1613 199 1533 109 Q1411 -28 1215 -28 Q998 -28 908 141 Q864 225 862 329 Q823 210 757 128 Q631 -28 442 -28 Q286 -28 189 72 Q87 176 87 372 Q87 630 222 813 Q364 1006 581 1006 Q735 1006 824 913 Q913 820 913 660 Q913 653 913 637 Q964 785 1044 871 Q1168 1006 1350 1006 Q1497 1006 1590 915 Q1693 814 1693 628 Q1693 575 1684 500 L912 500 Q893 420 893 353 Q893 187 990 93 Q1078 8 1223 8 Q1406 8 1524 158 Q1587 239 1606 322 L1646 322 Z M584 970 Q396 970 270 813 Q203 729 164.5 610.5 Q126 492 126 367 Q126 204 209 109 Q296 8 442 8 Q624 8 746 171 Q813 262 848 399 Q883 532 883 648 Q883 801 804.5 885.5 Q726 970 584 970 Z M920 537 L1650 537 Q1656 588 1656 627 Q1656 765 1592 856 Q1512 971 1347 971 Q1191 971 1080 858.5 Q969 746 920 537 Z " />
<glyph glyph-name="Racute" unicode="&#x154;" horiz-adv-x="1261" d="M351 1365 L761 1365 Q969 1365 1051 1329 Q1130 1295 1172 1229 Q1223 1150 1223 1041 Q1223 866 1109.5 760.5 Q996 655 803 649 Q917 632 969 574 Q1030 507 1030 369 Q1030 322 1025 207 Q1024 173 1024 153 Q1024 74 1042 0 L1002 0 Q985 76 985 136 Q985 174 987 216 Q991 328 991 364 Q991 520 910.5 578 Q830 636 616 636 L235 636 L99 0 L61 0 L351 1365 Z M382 1328 L242 673 L661 673 Q904 673 1007 731 Q1085 775 1131 851 Q1183 937 1183 1040 Q1183 1146 1128 1218 Q1079 1282 1000 1305 Q921 1328 752 1328 L382 1328 Z M1033 1729 L700 1481 L650 1481 L977 1729 L1033 1729 Z " />
<glyph glyph-name="racute" unicode="&#x155;" horiz-adv-x="564" d="M684 979 L675 939 Q643 942 616 942 Q433 942 313 774 Q268 711 239 629.5 Q210 548 176 389 L93 0 L55 0 L263 979 L301 979 L245 715 Q325 858 413 920.5 Q501 983 623 983 Q649 983 684 979 Z M750 1401 L444 1133 L394 1133 L694 1401 L750 1401 Z " />
<glyph glyph-name="Rcommaaccent" unicode="&#x156;" horiz-adv-x="1261" d="M351 1365 L761 1365 Q969 1365 1051 1329 Q1130 1295 1172 1229 Q1223 1150 1223 1041 Q1223 866 1109.5 760.5 Q996 655 803 649 Q917 632 969 574 Q1030 507 1030 369 Q1030 322 1025 207 Q1024 173 1024 153 Q1024 74 1042 0 L1002 0 Q985 76 985 136 Q985 174 987 216 Q991 328 991 364 Q991 520 910.5 578 Q830 636 616 636 L235 636 L99 0 L61 0 L351 1365 Z M382 1328 L242 673 L661 673 Q904 673 1007 731 Q1085 775 1131 851 Q1183 937 1183 1040 Q1183 1146 1128 1218 Q1079 1282 1000 1305 Q921 1328 752 1328 L382 1328 Z M442 -400 L450 -359 Q500 -329 530 -210 Q480 -210 480 -159 Q480 -138 494 -123.5 Q508 -109 528 -109 Q548 -109 561 -125.5 Q574 -142 574 -166 Q574 -206 553 -266.5 Q532 -327 507 -358 Q478 -395 442 -400 Z " />
<glyph glyph-name="rcommaaccent" unicode="&#x157;" horiz-adv-x="564" d="M684 979 L675 939 Q643 942 616 942 Q433 942 313 774 Q268 711 239 629.5 Q210 548 176 389 L93 0 L55 0 L263 979 L301 979 L245 715 Q325 858 413 920.5 Q501 983 623 983 Q649 983 684 979 Z M-33 -393 L-25 -352 Q25 -323 55 -203 Q5 -202 5 -152 Q5 -131 19 -116.5 Q33 -102 53 -102 Q73 -102 86 -118.5 Q99 -135 99 -159 Q99 -198 78 -259 Q57 -320 32 -351 Q3 -388 -33 -393 Z " />
<glyph glyph-name="Rcaron" unicode="&#x158;" horiz-adv-x="1261" d="M351 1365 L761 1365 Q969 1365 1051 1329 Q1130 1295 1172 1229 Q1223 1150 1223 1041 Q1223 866 1109.5 760.5 Q996 655 803 649 Q917 632 969 574 Q1030 507 1030 369 Q1030 322 1025 207 Q1024 173 1024 153 Q1024 74 1042 0 L1002 0 Q985 76 985 136 Q985 174 987 216 Q991 328 991 364 Q991 520 910.5 578 Q830 636 616 636 L235 636 L99 0 L61 0 L351 1365 Z M382 1328 L242 673 L661 673 Q904 673 1007 731 Q1085 775 1131 851 Q1183 937 1183 1040 Q1183 1146 1128 1218 Q1079 1282 1000 1305 Q921 1328 752 1328 L382 1328 Z M523 1729 L574 1729 L760 1512 L1009 1729 L1062 1729 L785 1481 L732 1481 L523 1729 Z " />
<glyph glyph-name="rcaron" unicode="&#x159;" horiz-adv-x="564" d="M684 979 L675 939 Q643 942 616 942 Q433 942 313 774 Q268 711 239 629.5 Q210 548 176 389 L93 0 L55 0 L263 979 L301 979 L245 715 Q325 858 413 920.5 Q501 983 623 983 Q649 983 684 979 Z M280 1402 L331 1402 L481 1162 L711 1402 L758 1402 L505 1133 L452 1133 L280 1402 Z " />
<glyph glyph-name="Sacute" unicode="&#x15a;" horiz-adv-x="1187" d="M1180 981 L1141 981 Q1142 1003 1142 1022 Q1142 1169 1054 1252 Q945 1354 722 1354 Q479 1354 371 1238 Q287 1149 287 1029 Q287 869 434 793 Q487 766 762 682 Q918 635 982 567 Q1058 488 1058 361 Q1058 270 1016 190 Q902 -26 554 -26 Q300 -26 172 98 Q55 211 55 401 Q55 420 57 459 L95 459 Q94 427 94 411 Q94 206 223 104 Q343 9 554 9 Q779 9 892 100 Q1018 202 1018 360 Q1018 508 896 584 Q865 603 828.5 616 Q792 629 603 688 Q483 725 431.5 748.5 Q380 772 339 808 Q246 889 246 1026 Q246 1168 344 1266 Q467 1390 711 1390 Q914 1390 1029 1320 Q1182 1227 1182 1032 Q1182 1012 1180 981 Z M1058 1729 L725 1481 L676 1481 L1002 1729 L1058 1729 Z " />
<glyph glyph-name="sacute" unicode="&#x15b;" horiz-adv-x="873" d="M813 694 L773 694 Q776 720 776 741 Q776 971 482 971 Q355 971 279 917 Q195 857 195 752 Q195 658 265 611 Q313 578 452 528 Q553 491 597 469 Q641 447 673 417 Q741 354 741 255 Q741 128 639.5 50 Q538 -28 373 -28 Q200 -28 114 43 Q18 123 18 268 Q18 296 23 335 L63 335 Q58 297 58 267 Q58 142 140 75 Q222 8 376 8 Q503 8 592 63 Q701 130 701 253 Q701 337 648 385 Q595 433 442 487 Q285 543 233 582 Q152 642 152 748 Q152 868 243 937.5 Q334 1007 490 1007 Q673 1007 759 912 Q815 850 815 747 Q815 724 813 694 Z M809 1401 L502 1133 L453 1133 L753 1401 L809 1401 Z " />
<glyph glyph-name="Scircumflex" unicode="&#x15c;" horiz-adv-x="1187" d="M1180 981 L1141 981 Q1142 1003 1142 1022 Q1142 1169 1054 1252 Q945 1354 722 1354 Q479 1354 371 1238 Q287 1149 287 1029 Q287 869 434 793 Q487 766 762 682 Q918 635 982 567 Q1058 488 1058 361 Q1058 270 1016 190 Q902 -26 554 -26 Q300 -26 172 98 Q55 211 55 401 Q55 420 57 459 L95 459 Q94 427 94 411 Q94 206 223 104 Q343 9 554 9 Q779 9 892 100 Q1018 202 1018 360 Q1018 508 896 584 Q865 603 828.5 616 Q792 629 603 688 Q483 725 431.5 748.5 Q380 772 339 808 Q246 889 246 1026 Q246 1168 344 1266 Q467 1390 711 1390 Q914 1390 1029 1320 Q1182 1227 1182 1032 Q1182 1012 1180 981 Z M1045 1481 L994 1481 L809 1699 L560 1481 L507 1481 L784 1729 L836 1729 L1045 1481 Z " />
<glyph glyph-name="scircumflex" unicode="&#x15d;" horiz-adv-x="873" d="M813 694 L773 694 Q776 720 776 741 Q776 971 482 971 Q355 971 279 917 Q195 857 195 752 Q195 658 265 611 Q313 578 452 528 Q553 491 597 469 Q641 447 673 417 Q741 354 741 255 Q741 128 639.5 50 Q538 -28 373 -28 Q200 -28 114 43 Q18 123 18 268 Q18 296 23 335 L63 335 Q58 297 58 267 Q58 142 140 75 Q222 8 376 8 Q503 8 592 63 Q701 130 701 253 Q701 337 648 385 Q595 433 442 487 Q285 543 233 582 Q152 642 152 748 Q152 868 243 937.5 Q334 1007 490 1007 Q673 1007 759 912 Q815 850 815 747 Q815 724 813 694 Z M787 1133 L735 1133 L586 1372 L356 1133 L308 1133 L562 1402 L614 1402 L787 1133 Z " />
<glyph glyph-name="Scedilla" unicode="&#x15e;" horiz-adv-x="1187" d="M553 -26 L466 -119 Q499 -111 523 -111 Q588 -111 628.5 -143.5 Q669 -176 669 -229 Q669 -291 619 -329.5 Q569 -368 490 -368 Q405 -368 296 -321 L313 -287 Q411 -331 489 -331 Q550 -331 587.5 -304 Q625 -277 625 -233 Q625 -148 516 -148 Q456 -148 416 -172 L389 -151 L507 -25 Q368 -20 257 37 Q160 87 107.5 181.5 Q55 276 55 401 Q55 420 57 459 L95 459 Q94 427 94 411 Q94 207 223 105 Q343 10 554 10 Q779 10 892 101 Q1018 203 1018 360 Q1018 509 896 585 Q865 604 828.5 617 Q792 630 603 689 Q483 726 431 749.5 Q379 773 339 808 Q246 889 246 1027 Q246 1168 344 1266 Q468 1390 711 1390 Q914 1390 1029 1320 Q1182 1227 1182 1032 Q1182 1012 1180 981 L1141 981 Q1142 1003 1142 1022 Q1142 1169 1054 1252 Q945 1354 722 1354 Q479 1354 371 1238 Q287 1149 287 1029 Q287 869 434 793 Q488 765 762 682 Q918 635 982 567 Q1058 488 1058 361 Q1058 227 972 125 Q905 46 811.5 12 Q718 -22 553 -26 Z " />
<glyph glyph-name="scedilla" unicode="&#x15f;" horiz-adv-x="873" d="M371 -28 L292 -113 Q332 -105 356 -105 Q418 -105 457 -138 Q496 -171 496 -223 Q496 -283 444.5 -322 Q393 -361 313 -361 Q233 -361 140 -318 L155 -284 Q253 -325 319 -325 Q378 -325 416.5 -297 Q455 -269 455 -226 Q455 -188 423 -164 Q391 -140 341 -140 Q294 -140 245 -165 L220 -144 L329 -26 Q182 -13 114 43 Q18 123 18 268 Q18 296 23 335 L63 335 Q58 297 58 267 Q58 142 140 75 Q222 8 376 8 Q503 8 592 63 Q701 130 701 253 Q701 337 648 385 Q595 433 442 487 Q285 543 233 582 Q152 642 152 748 Q152 868 243 937.5 Q334 1007 490 1007 Q673 1007 759 912 Q815 850 815 747 Q815 724 813 694 L773 694 Q776 720 776 741 Q776 971 482 971 Q355 971 279 917 Q195 857 195 752 Q195 658 265 611 Q313 578 452 528 Q553 491 597 469 Q641 447 673 417 Q741 354 741 255 Q741 167 687 97.5 Q633 28 540 -3 Q477 -25 371 -28 Z " />
<glyph glyph-name="Scaron" unicode="&#x160;" horiz-adv-x="1187" d="M1180 981 L1141 981 Q1142 1003 1142 1022 Q1142 1169 1054 1252 Q945 1354 722 1354 Q479 1354 371 1238 Q287 1149 287 1029 Q287 869 434 793 Q487 766 762 682 Q918 635 982 567 Q1058 488 1058 361 Q1058 270 1016 190 Q902 -26 554 -26 Q300 -26 172 98 Q55 211 55 401 Q55 420 57 459 L95 459 Q94 427 94 411 Q94 206 223 104 Q343 9 554 9 Q779 9 892 100 Q1018 202 1018 360 Q1018 508 896 584 Q865 603 828.5 616 Q792 629 603 688 Q483 725 431.5 748.5 Q380 772 339 808 Q246 889 246 1026 Q246 1168 344 1266 Q467 1390 711 1390 Q914 1390 1029 1320 Q1182 1227 1182 1032 Q1182 1012 1180 981 Z M541 1729 L592 1729 L778 1512 L1026 1729 L1080 1729 L803 1481 L750 1481 L541 1729 Z " />
<glyph glyph-name="scaron" unicode="&#x161;" horiz-adv-x="873" d="M813 694 L773 694 Q776 720 776 741 Q776 971 482 971 Q355 971 279 917 Q195 857 195 752 Q195 658 265 611 Q313 578 452 528 Q553 491 597 469 Q641 447 673 417 Q741 354 741 255 Q741 128 639.5 50 Q538 -28 373 -28 Q200 -28 114 43 Q18 123 18 268 Q18 296 23 335 L63 335 Q58 297 58 267 Q58 142 140 75 Q222 8 376 8 Q503 8 592 63 Q701 130 701 253 Q701 337 648 385 Q595 433 442 487 Q285 543 233 582 Q152 642 152 748 Q152 868 243 937.5 Q334 1007 490 1007 Q673 1007 759 912 Q815 850 815 747 Q815 724 813 694 Z M338 1402 L390 1402 L539 1162 L769 1402 L817 1402 L563 1133 L510 1133 L338 1402 Z " />
<glyph glyph-name="Tcommaaccent" unicode="&#x162;" horiz-adv-x="1082" d="M1243 1365 L1235 1328 L750 1328 L468 0 L430 0 L712 1328 L207 1328 L215 1365 L1243 1365 Z M338 -400 L345 -359 Q396 -329 425 -210 Q376 -210 376 -159 Q376 -138 389.5 -123.5 Q403 -109 423 -109 Q443 -109 456 -125.5 Q469 -142 469 -166 Q469 -206 448 -266.5 Q427 -327 403 -358 Q373 -395 338 -400 Z " />
<glyph glyph-name="tcommaaccent" unicode="&#x163;" horiz-adv-x="522" d="M533 979 L525 942 L307 942 L159 245 Q140 154 140 121 Q140 31 264 31 Q311 31 365 43 L357 4 Q306 -4 256 -4 Q101 -4 101 111 Q101 151 121 245 L269 942 L83 942 L91 979 L277 979 L343 1292 L381 1292 L315 979 L533 979 Z M109 -393 L117 -352 Q167 -323 197 -203 Q147 -202 147 -152 Q147 -131 161 -116.5 Q175 -102 195 -102 Q215 -102 228 -118.5 Q241 -135 241 -159 Q241 -199 220 -259.5 Q199 -320 174 -351 Q145 -388 109 -393 Z " />
<glyph glyph-name="Tcaron" unicode="&#x164;" horiz-adv-x="1082" d="M1243 1365 L1235 1328 L750 1328 L468 0 L430 0 L712 1328 L207 1328 L215 1365 L1243 1365 Z M524 1729 L575 1729 L761 1512 L1009 1729 L1063 1729 L785 1481 L733 1481 L524 1729 Z " />
<glyph glyph-name="tcaron" unicode="&#x165;" horiz-adv-x="521" d="M533 979 L525 942 L307 942 L159 245 Q140 154 140 121 Q140 31 264 31 Q311 31 365 43 L357 4 Q306 -4 256 -4 Q101 -4 101 111 Q101 151 121 245 L269 942 L83 942 L91 979 L277 979 L343 1292 L381 1292 L315 979 L533 979 Z M515 1102 L523 1143 Q573 1172 603 1292 Q599 1291 598 1291 Q553 1291 553 1342 Q553 1363 567 1377.5 Q581 1392 601 1392 Q621 1392 634 1375.5 Q647 1359 647 1335 Q647 1295 626 1235 Q605 1175 580 1144 Q551 1107 515 1102 Z " />
<glyph glyph-name="Tbar" unicode="&#x166;" horiz-adv-x="1082" d="M1243 1365 L1235 1328 L750 1328 L657 887 L998 887 L990 850 L649 850 L468 0 L430 0 L611 850 L270 850 L277 887 L619 887 L712 1328 L207 1328 L215 1365 L1243 1365 Z " />
<glyph glyph-name="tbar" unicode="&#x167;" horiz-adv-x="521" d="M533 979 L525 942 L307 942 L263 737 L454 737 L447 700 L256 700 L159 245 Q140 155 140 122 Q140 31 263 31 Q310 31 365 43 L357 4 Q306 -4 255 -4 Q101 -4 101 112 Q101 151 121 245 L218 700 L52 700 L60 737 L226 737 L269 942 L83 942 L91 979 L277 979 L343 1292 L381 1292 L315 979 L533 979 Z " />
<glyph glyph-name="Utilde" unicode="&#x168;" horiz-adv-x="1312" d="M1349 1365 L1165 498 Q1136 357 1107 285.5 Q1078 214 1025 150 Q876 -32 587 -32 Q389 -32 273 60 Q209 110 173.5 184.5 Q138 259 138 342 Q138 426 165 551 L338 1365 L376 1365 L198 529 Q177 430 177 355 Q177 171 313 78 Q422 3 585 3 Q871 3 1010 191 Q1049 245 1076 315 Q1103 385 1127 498 L1311 1365 L1349 1365 Z M1125 1669 Q1079 1519 981 1519 Q948 1519 924.5 1531.5 Q901 1544 811 1610 Q772 1638 736 1638 Q662 1638 629 1522 L590 1522 Q608 1594 647.5 1635.5 Q687 1677 738 1677 Q769 1677 796.5 1662.5 Q824 1648 904 1589 Q948 1556 982 1556 Q1046 1556 1086 1669 L1125 1669 Z " />
<glyph glyph-name="utilde" unicode="&#x169;" horiz-adv-x="1036" d="M985 979 L777 0 L739 0 L790 243 Q655 -27 410 -27 Q294 -27 210 31 Q164 63 138 114 Q112 165 112 223 Q112 300 139 425 L256 979 L295 979 L173 409 Q150 299 150 233 Q150 131 225 70 Q301 8 411 8 Q578 8 696 153 Q798 278 843 489 L947 979 L985 979 Z M922 1330 Q878 1180 786 1180 Q755 1180 733.5 1192.5 Q712 1205 628 1272 Q593 1300 559 1300 Q490 1300 458 1184 L420 1184 Q459 1339 561 1339 Q590 1339 615.5 1324.5 Q641 1310 715 1250 Q756 1217 787 1217 Q847 1217 884 1330 L922 1330 Z " />
<glyph glyph-name="Umacron" unicode="&#x16a;" horiz-adv-x="1312" d="M1349 1365 L1165 498 Q1136 357 1107 285.5 Q1078 214 1025 150 Q876 -32 587 -32 Q389 -32 273 60 Q209 110 173.5 184.5 Q138 259 138 342 Q138 426 165 551 L338 1365 L376 1365 L198 529 Q177 430 177 355 Q177 171 313 78 Q422 3 585 3 Q871 3 1010 191 Q1049 245 1076 315 Q1103 385 1127 498 L1311 1365 L1349 1365 Z M1187 1608 L1179 1571 L588 1571 L596 1608 L1187 1608 Z " />
<glyph glyph-name="umacron" unicode="&#x16b;" horiz-adv-x="1036" d="M985 979 L777 0 L739 0 L790 243 Q655 -27 410 -27 Q294 -27 210 31 Q164 63 138 114 Q112 165 112 223 Q112 300 139 425 L256 979 L295 979 L173 409 Q150 299 150 233 Q150 131 225 70 Q301 8 411 8 Q578 8 696 153 Q798 278 843 489 L947 979 L985 979 Z M929 1272 L921 1237 L401 1237 L408 1272 L929 1272 Z " />
<glyph glyph-name="Ubreve" unicode="&#x16c;" horiz-adv-x="1312" d="M1349 1365 L1165 498 Q1136 357 1107 285.5 Q1078 214 1025 150 Q876 -32 587 -32 Q389 -32 273 60 Q209 110 173.5 184.5 Q138 259 138 342 Q138 426 165 551 L338 1365 L376 1365 L198 529 Q177 430 177 355 Q177 171 313 78 Q422 3 585 3 Q871 3 1010 191 Q1049 245 1076 315 Q1103 385 1127 498 L1311 1365 L1349 1365 Z M1164 1722 Q1131 1609 1058 1548.5 Q985 1488 881 1488 Q758 1488 695 1574 Q660 1621 658 1722 L697 1722 Q699 1636 731 1595 Q784 1526 882 1526 Q1055 1526 1125 1722 L1164 1722 Z " />
<glyph glyph-name="ubreve" unicode="&#x16d;" horiz-adv-x="1036" d="M985 979 L777 0 L739 0 L790 243 Q655 -27 410 -27 Q294 -27 210 31 Q164 63 138 114 Q112 165 112 223 Q112 300 139 425 L256 979 L295 979 L173 409 Q150 299 150 233 Q150 131 225 70 Q301 8 411 8 Q578 8 696 153 Q798 278 843 489 L947 979 L985 979 Z M911 1380 Q847 1146 659 1146 Q463 1146 460 1380 L498 1380 Q499 1294 524 1252 Q565 1185 659 1185 Q811 1185 873 1380 L911 1380 Z " />
<glyph glyph-name="Uring" unicode="&#x16e;" horiz-adv-x="1312" d="M1349 1365 L1165 498 Q1136 357 1107 285.5 Q1078 214 1025 150 Q876 -32 587 -32 Q389 -32 273 60 Q209 110 173.5 184.5 Q138 259 138 342 Q138 426 165 551 L338 1365 L376 1365 L198 529 Q177 430 177 355 Q177 171 313 78 Q422 3 585 3 Q871 3 1010 191 Q1049 245 1076 315 Q1103 385 1127 498 L1311 1365 L1349 1365 Z M890 1800 Q962 1800 1013 1744 Q1057 1696 1057 1631 Q1057 1555 1001 1505 Q952 1461 887 1461 Q812 1461 762 1517 Q718 1565 718 1632 Q718 1702 768.5 1751 Q819 1800 890 1800 Z M889 1762 Q834 1762 795 1724 Q756 1686 756 1632 Q756 1576 794.5 1537.5 Q833 1499 887 1499 Q942 1499 980.5 1537.5 Q1019 1576 1019 1631 Q1019 1684 980.5 1723 Q942 1762 889 1762 Z " />
<glyph glyph-name="uring" unicode="&#x16f;" horiz-adv-x="1036" d="M985 979 L777 0 L739 0 L790 243 Q655 -27 410 -27 Q294 -27 210 31 Q164 63 138 114 Q112 165 112 223 Q112 300 139 425 L256 979 L295 979 L173 409 Q150 299 150 233 Q150 131 225 70 Q301 8 411 8 Q578 8 696 153 Q798 278 843 489 L947 979 L985 979 Z M668 1451 Q740 1451 790 1395 Q834 1347 834 1282 Q834 1207 778 1156 Q730 1113 665 1113 Q590 1113 539 1169 Q496 1217 496 1283 Q496 1353 546 1402 Q596 1451 668 1451 Z M667 1413 Q612 1413 573 1375 Q534 1337 534 1283 Q534 1228 572 1189.5 Q610 1151 665 1151 Q719 1151 757.5 1189.5 Q796 1228 796 1282 Q796 1335 757.5 1374 Q719 1413 667 1413 Z " />
<glyph glyph-name="Uhungarumlaut" unicode="&#x170;" horiz-adv-x="1312" d="M1349 1365 L1165 498 Q1136 357 1107 285.5 Q1078 214 1025 150 Q876 -32 587 -32 Q389 -32 273 60 Q209 110 173.5 184.5 Q138 259 138 342 Q138 426 165 551 L338 1365 L376 1365 L198 529 Q177 430 177 355 Q177 171 313 78 Q422 3 585 3 Q871 3 1010 191 Q1049 245 1076 315 Q1103 385 1127 498 L1311 1365 L1349 1365 Z M940 1729 L702 1481 L658 1481 L889 1729 L940 1729 Z M1240 1729 L1003 1481 L959 1481 L1190 1729 L1240 1729 Z " />
<glyph glyph-name="uhungarumlaut" unicode="&#x171;" horiz-adv-x="1036" d="M985 979 L777 0 L739 0 L790 243 Q655 -27 410 -27 Q294 -27 210 31 Q164 63 138 114 Q112 165 112 223 Q112 300 139 425 L256 979 L295 979 L173 409 Q150 299 150 233 Q150 131 225 70 Q301 8 411 8 Q578 8 696 153 Q798 278 843 489 L947 979 L985 979 Z M731 1401 L520 1133 L476 1133 L681 1401 L731 1401 Z M990 1401 L780 1133 L736 1133 L940 1401 L990 1401 Z " />
<glyph glyph-name="Uogonek" unicode="&#x172;" horiz-adv-x="1312" d="M939 -268 L937 -306 Q875 -327 828 -327 Q752 -327 704.5 -289 Q657 -251 657 -190 Q657 -88 764 -11 Q680 -32 591 -32 Q390 -32 273 60 Q209 110 173.5 184.5 Q138 259 138 342 Q138 426 165 551 L338 1365 L376 1365 L198 529 Q177 430 177 355 Q177 171 313 78 Q422 3 585 3 Q871 3 1010 191 Q1049 245 1076 315 Q1103 385 1127 498 L1311 1365 L1349 1365 L1165 498 Q1122 274 1032 158 Q994 110 956 81 Q918 52 839 11 Q780 -20 738.5 -76.5 Q697 -133 697 -183 Q697 -229 736 -259 Q775 -289 835 -289 Q880 -289 939 -268 Z " />
<glyph glyph-name="uogonek" unicode="&#x173;" horiz-adv-x="1036" d="M777 0 Q718 -42 700 -57 Q639 -110 639 -179 Q639 -225 676.5 -253.5 Q714 -282 774 -282 Q819 -282 879 -261 L875 -299 Q813 -320 765 -320 Q691 -320 645 -283.5 Q599 -247 599 -188 Q599 -66 739 0 L790 243 Q655 -27 410 -27 Q294 -27 210 31 Q164 63 138 114 Q112 165 112 223 Q112 300 139 425 L256 979 L295 979 L173 409 Q150 299 150 233 Q150 131 225 70 Q301 8 411 8 Q578 8 696 153 Q798 278 843 489 L947 979 L985 979 L777 0 Z " />
<glyph glyph-name="Wcircumflex" unicode="&#x174;" horiz-adv-x="1800" d="M1947 1365 L1255 0 L1205 0 L1109 1025 Q1090 1217 1083 1331 Q1068 1301 1015 1197 L964 1094 L405 0 L354 0 L229 1365 L270 1365 L371 225 L379 140 Q385 64 387 43 Q409 91 469 208 L1059 1365 L1116 1365 L1218 270 L1229 149 Q1236 69 1238 43 Q1250 70 1345 261 L1905 1365 L1947 1365 Z M1364 1481 L1313 1481 L1128 1699 L879 1481 L826 1481 L1103 1729 L1155 1729 L1364 1481 Z " />
<glyph glyph-name="wcircumflex" unicode="&#x175;" horiz-adv-x="1411" d="M1489 979 L963 0 L914 0 L826 725 Q818 789 805 911 L801 945 Q772 888 708 768 L298 0 L245 0 L133 979 L173 979 L253 253 Q271 96 277 33 Q314 110 391 253 L777 979 L834 979 L920 277 Q941 104 944 33 Q963 76 1058 253 L1446 979 L1489 979 Z M1035 1133 L983 1133 L833 1372 L603 1133 L556 1133 L810 1402 L862 1402 L1035 1133 Z " />
<glyph glyph-name="Ycircumflex" unicode="&#x176;" horiz-adv-x="1111" d="M1299 1365 L595 568 L474 0 L436 0 L559 579 L188 1365 L231 1365 L504 783 Q514 761 540 708 Q568 649 584 607 Q626 658 729 774 L1249 1365 L1299 1365 Z M1047 1481 L996 1481 L810 1699 L562 1481 L508 1481 L785 1729 L838 1729 L1047 1481 Z " />
<glyph glyph-name="ycircumflex" unicode="&#x177;" horiz-adv-x="832" d="M924 979 L347 -29 Q243 -210 192 -264 Q155 -303 108 -319 Q61 -335 -15 -335 Q-32 -335 -50 -335 L-42 -299 Q-21 -298 -10 -298 Q67 -297 108 -280 Q149 -263 183 -217 Q226 -159 318 -1 L119 979 L158 979 L305 263 L318 198 Q340 82 347 42 Q376 100 477 275 L879 979 L924 979 Z M780 1133 L728 1133 L579 1372 L349 1133 L301 1133 L555 1402 L607 1402 L780 1133 Z " />
<glyph glyph-name="Ydieresis" unicode="&#x178;" horiz-adv-x="1111" d="M1299 1365 L595 568 L474 0 L436 0 L559 579 L188 1365 L231 1365 L504 783 Q514 761 540 708 Q568 649 584 607 Q626 658 729 774 L1249 1365 L1299 1365 Z M591 1663 Q609 1663 621.5 1648.5 Q634 1634 634 1614 Q634 1593 621.5 1578.5 Q609 1564 590 1564 Q572 1564 559 1578.5 Q546 1593 546 1614 Q546 1634 559 1648.5 Q572 1663 591 1663 Z M967 1663 Q985 1663 997.5 1648.5 Q1010 1634 1010 1614 Q1010 1593 997.5 1578.5 Q985 1564 966 1564 Q948 1564 935 1578.5 Q922 1593 922 1614 Q922 1634 935 1648.5 Q948 1663 967 1663 Z " />
<glyph glyph-name="Zacute" unicode="&#x179;" horiz-adv-x="1129" d="M1205 1365 L1194 1315 L110 146 L64 97 Q19 48 7 37 L28 37 L90 37 L148 37 L980 37 L972 0 L-41 0 L-30 54 L1058 1224 Q1116 1286 1157 1328 L1123 1328 L1076 1328 L1029 1328 L251 1328 L259 1365 L1205 1365 Z M1022 1729 L689 1481 L640 1481 L966 1729 L1022 1729 Z " />
<glyph glyph-name="zacute" unicode="&#x17a;" horiz-adv-x="807" d="M885 979 L876 932 L99 146 Q52 99 -17 36 Q3 35 10 35 L118 37 L685 37 L677 0 L-61 0 L-50 50 L691 799 Q820 926 839 942 L788 942 L700 942 L161 942 L169 979 L885 979 Z M817 1401 L511 1133 L461 1133 L761 1401 L817 1401 Z " />
<glyph glyph-name="Zdotaccent" unicode="&#x17b;" horiz-adv-x="1129" d="M1205 1365 L1194 1315 L110 146 L64 97 Q19 48 7 37 L28 37 L90 37 L148 37 L980 37 L972 0 L-41 0 L-30 54 L1058 1224 Q1116 1286 1157 1328 L1123 1328 L1076 1328 L1029 1328 L251 1328 L259 1365 L1205 1365 Z M781 1663 Q799 1663 811.5 1648.5 Q824 1634 824 1614 Q824 1593 811.5 1578.5 Q799 1564 780 1564 Q762 1564 749 1578.5 Q736 1593 736 1614 Q736 1634 749 1648.5 Q762 1663 781 1663 Z " />
<glyph glyph-name="zdotaccent" unicode="&#x17c;" horiz-adv-x="807" d="M885 979 L876 932 L99 146 Q52 99 -17 36 Q2 35 8 35 L118 37 L685 37 L677 0 L-61 0 L-50 50 L691 799 Q820 926 839 942 L788 942 L700 942 L161 942 L169 979 L885 979 Z M563 1318 Q581 1318 593.5 1303.5 Q606 1289 606 1269 Q606 1248 593.5 1233.5 Q581 1219 562 1219 Q544 1219 531 1233.5 Q518 1248 518 1269 Q518 1289 531 1303.5 Q544 1318 563 1318 Z " />
<glyph glyph-name="Zcaron" unicode="&#x17d;" horiz-adv-x="1129" d="M1205 1365 L1194 1315 L110 146 L64 97 Q19 48 7 37 L28 37 L90 37 L148 37 L980 37 L972 0 L-41 0 L-30 54 L1058 1224 Q1116 1286 1157 1328 L1123 1328 L1076 1328 L1029 1328 L251 1328 L259 1365 L1205 1365 Z M524 1729 L575 1729 L761 1512 L1010 1729 L1063 1729 L786 1481 L734 1481 L524 1729 Z " />
<glyph glyph-name="zcaron" unicode="&#x17e;" horiz-adv-x="807" d="M885 979 L876 932 L99 146 Q52 99 -17 36 Q2 35 8 35 L118 37 L685 37 L677 0 L-61 0 L-50 50 L691 799 Q820 926 839 942 L788 942 L700 942 L161 942 L169 979 L885 979 Z M339 1402 L391 1402 L541 1162 L771 1402 L818 1402 L564 1133 L512 1133 L339 1402 Z " />
<glyph glyph-name="longs" unicode="&#x17f;" horiz-adv-x="486" d="M113 0 L75 0 L275 942 L105 942 L112 979 L283 979 L311 1112 Q340 1244 376 1292 Q435 1369 569 1369 Q600 1369 647 1364 L639 1328 Q598 1333 565 1333 Q465 1333 420 1283 Q375 1233 344 1087 L113 0 Z " />
<glyph glyph-name="uni018F" unicode="&#x18f;" horiz-adv-x="1457" d="M303 1104 Q512 1399 862 1399 Q1056 1399 1186 1312 Q1288 1243 1345 1131 Q1410 1003 1410 847 Q1410 720 1376.5 585.5 Q1343 451 1285 341 Q1083 -35 677 -35 Q461 -35 322 83 Q136 243 136 540 Q136 626 152 715 L1361 715 Q1369 782 1369 838 Q1369 1083 1232 1223 Q1095 1363 855 1363 Q624 1363 452 1213 Q385 1155 337 1085 L303 1104 Z M1356 678 L186 678 Q176 605 176 538 Q176 292 314 145.5 Q452 -1 682 -1 Q941 -1 1119 178 Q1297 357 1356 678 Z " />
<glyph glyph-name="florin" unicode="&#x192;" horiz-adv-x="1174" d="M923 865 L915 828 L676 828 L466 36 Q432 -102 410 -157 Q388 -212 348 -261 Q279 -346 128 -346 Q102 -346 61 -343 L69 -304 Q105 -308 129 -308 Q260 -308 320 -231 Q353 -187 370 -143.5 Q387 -100 424 42 L632 828 L417 828 L425 865 L642 865 L711 1127 Q715 1140 741.5 1215 Q768 1290 774 1302 Q808 1376 869.5 1408.5 Q931 1441 1035 1441 Q1070 1441 1118 1437 L1110 1398 Q1070 1401 1036 1401 Q903 1401 851 1345 Q797 1287 756 1133 L685 865 L923 865 Z " />
<glyph glyph-name="uni01C4" unicode="&#x1c4;" horiz-adv-x="2247" d="M1636 1729 L1687 1729 L1873 1512 L2121 1729 L2175 1729 L1898 1481 L1845 1481 L1636 1729 Z M358 1365 L751 1365 Q887 1365 972.5 1344 Q1058 1323 1120 1275 Q1293 1139 1293 839 Q1293 699 1254.5 562.5 Q1216 426 1147 318 Q983 64 726 15 Q648 0 473 0 L68 0 L358 1365 Z M389 1328 L114 37 L488 37 Q677 37 769 64 Q1020 136 1157 414 Q1253 609 1253 842 Q1253 1123 1092 1246 Q986 1328 752 1328 L389 1328 Z M2322 1365 L2311 1315 L1227 146 L1181 97 Q1136 48 1124 37 L1145 37 L1207 37 L1265 37 L2097 37 L2089 0 L1076 0 L1088 54 L2175 1224 Q2233 1286 2274 1328 L2240 1328 L2193 1328 L2147 1328 L1368 1328 L1376 1365 L2322 1365 Z " />
<glyph glyph-name="uni01C5" unicode="&#x1c5;" horiz-adv-x="2001" d="M1510 1378 L1562 1378 L1747 1160 L1996 1378 L2049 1378 L1772 1130 L1720 1130 L1510 1378 Z M358 1365 L751 1365 Q887 1365 972.5 1344 Q1058 1323 1120 1275 Q1293 1139 1293 839 Q1293 699 1254.5 562.5 Q1216 426 1147 318 Q983 64 726 15 Q648 0 473 0 L68 0 L358 1365 Z M389 1328 L114 37 L488 37 Q677 37 769 64 Q1020 136 1157 414 Q1253 609 1253 842 Q1253 1123 1092 1246 Q986 1328 752 1328 L389 1328 Z M2079 979 L2069 932 L1293 146 Q1246 99 1176 36 Q1196 35 1202 35 L1312 37 L1879 37 L1871 0 L1133 0 L1143 50 L1885 799 Q2014 926 2033 942 L1982 942 L1894 942 L1355 942 L1363 979 L2079 979 Z " />
<glyph glyph-name="uni01C6" unicode="&#x1c6;" horiz-adv-x="1832" d="M1313 1349 L1364 1349 L1550 1131 L1799 1349 L1852 1349 L1575 1101 L1522 1101 L1313 1349 Z M1911 979 L1901 932 L1124 146 Q1078 99 1008 36 Q1028 35 1034 35 L1143 37 L1710 37 L1703 0 L964 0 L975 50 L1717 799 Q1846 926 1864 942 L1814 942 L1725 942 L1186 942 L1194 979 L1911 979 Z M1118 1365 L828 0 L790 0 L850 284 Q782 120 667 42 Q562 -29 434 -29 Q284 -29 194 55 Q83 158 83 356 Q83 484 124 607.5 Q165 731 239 826 Q381 1010 604 1010 Q754 1010 840.5 927 Q927 844 937 693 L1080 1365 L1118 1365 Z M602 978 Q406 978 276 817 Q206 730 165 605.5 Q124 481 124 354 Q124 192 204 101 Q288 6 438 6 Q634 6 768 192 Q833 283 872 411.5 Q911 540 911 663 Q911 809 828 893.5 Q745 978 602 978 Z " />
<glyph glyph-name="uni01C7" unicode="&#x1c7;" horiz-adv-x="1862" d="M396 1365 L114 37 L906 37 L898 0 L68 0 L358 1365 L396 1365 Z M1899 1365 L1688 372 Q1655 218 1605 140 Q1497 -28 1267 -28 Q1111 -28 1025 47.5 Q939 123 939 261 Q939 340 958 422 L997 422 Q978 325 978 257 Q978 154 1035 93 Q1114 7 1267 7 Q1448 7 1551 130 Q1614 205 1653 385 L1861 1365 L1899 1365 Z " />
<glyph glyph-name="uni01C8" unicode="&#x1c8;" horiz-adv-x="1338" d="M396 1365 L114 37 L906 37 L898 0 L68 0 L358 1365 L396 1365 Z M1286 979 L1062 -76 Q1039 -183 1028.5 -214 Q1018 -245 997 -273 Q944 -340 825 -340 Q805 -340 765 -337 L773 -300 Q805 -306 830 -306 Q925 -306 969 -245 Q987 -221 995 -193.5 Q1003 -166 1035 -26 L1248 979 L1286 979 Z M1328 1319 Q1346 1319 1358.5 1304.5 Q1371 1290 1371 1269 Q1371 1248 1358.5 1234 Q1346 1220 1327 1220 Q1309 1220 1296 1234.5 Q1283 1249 1283 1270 Q1283 1290 1296 1304.5 Q1309 1319 1328 1319 Z " />
<glyph glyph-name="uni01C9" unicode="&#x1c9;" horiz-adv-x="538" d="M487 979 L263 -76 Q240 -183 229.5 -214 Q219 -245 198 -273 Q144 -340 26 -340 Q5 -340 -34 -337 L-26 -300 Q6 -306 30 -306 Q125 -306 170 -245 Q187 -221 195.5 -193.5 Q204 -166 236 -26 L449 979 L487 979 Z M529 1319 Q547 1319 559.5 1304.5 Q572 1290 572 1269 Q572 1248 559.5 1234 Q547 1220 528 1220 Q510 1220 497 1234.5 Q484 1249 484 1270 Q484 1290 497 1304.5 Q510 1319 529 1319 Z M383 1365 L93 0 L55 0 L345 1365 L383 1365 Z " />
<glyph glyph-name="uni01CA" unicode="&#x1ca;" horiz-adv-x="2151" d="M1387 1365 L1097 0 L1058 0 L510 1075 Q444 1205 388 1326 Q378 1283 343 1113 L324 1024 L106 0 L68 0 L358 1365 L408 1365 L935 323 Q1041 113 1072 43 Q1107 229 1147 417 L1349 1365 L1387 1365 Z M2188 1365 L1977 372 Q1944 218 1894 140 Q1786 -28 1556 -28 Q1400 -28 1314 47.5 Q1228 123 1228 261 Q1228 341 1247 422 L1286 422 Q1267 326 1267 257 Q1267 154 1324 93 Q1403 7 1556 7 Q1737 7 1840 130 Q1903 205 1942 385 L2150 1365 L2188 1365 Z " />
<glyph glyph-name="uni01CB" unicode="&#x1cb;" horiz-adv-x="1511" d="M1387 1365 L1097 0 L1058 0 L510 1075 Q444 1205 388 1326 Q378 1283 343 1113 L324 1024 L106 0 L68 0 L358 1365 L408 1365 L935 323 Q1041 113 1072 43 Q1107 229 1147 417 L1349 1365 L1387 1365 Z M1460 979 L1236 -76 Q1213 -183 1202.5 -214 Q1192 -245 1170 -273 Q1117 -340 999 -340 Q978 -340 939 -337 L946 -300 Q978 -306 1003 -306 Q1098 -306 1142 -245 Q1160 -221 1168 -193.5 Q1176 -166 1208 -26 L1422 979 L1460 979 Z M1501 1319 Q1519 1319 1531.5 1304.5 Q1544 1290 1544 1269 Q1544 1249 1531.5 1234.5 Q1519 1220 1500 1220 Q1482 1220 1469 1234.5 Q1456 1249 1456 1270 Q1456 1290 1469 1304.5 Q1482 1319 1501 1319 Z " />
<glyph glyph-name="uni01CC" unicode="&#x1cc;" horiz-adv-x="1242" d="M1191 979 L966 -76 Q944 -183 933.5 -214 Q923 -245 901 -273 Q848 -340 730 -340 Q709 -340 669 -337 L677 -300 Q709 -306 734 -306 Q829 -306 873 -245 Q891 -221 899 -193.5 Q907 -166 939 -26 L1152 979 L1191 979 Z M1232 1319 Q1250 1319 1262.5 1304.5 Q1275 1290 1275 1269 Q1275 1249 1262.5 1234.5 Q1250 1220 1231 1220 Q1213 1220 1200 1234.5 Q1187 1249 1187 1270 Q1187 1290 1200 1304.5 Q1213 1319 1232 1319 Z M302 980 L252 748 Q319 860 394 918 Q507 1006 657 1006 Q764 1006 844 952 Q944 885 944 762 Q944 694 913 549 L796 0 L758 0 L878 565 Q906 695 906 762 Q906 851 832.5 911 Q759 971 650 971 Q565 971 486.5 934 Q408 897 348 830 Q288 762 256 689 Q224 616 196 482 L93 0 L55 0 L263 980 L302 980 Z " />
<glyph glyph-name="uni01CD" unicode="&#x1cd;" horiz-adv-x="1201" d="M814 1365 L1071 0 L1029 0 L945 452 L252 452 L-28 0 L-75 0 L776 1365 L814 1365 Z M788 1324 Q754 1263 704 1183 L275 489 L938 489 L814 1158 Q793 1273 788 1324 Z M577 1729 L628 1729 L814 1512 L1062 1729 L1116 1729 L839 1481 L786 1481 L577 1729 Z " />
<glyph glyph-name="uni01CE" unicode="&#x1ce;" horiz-adv-x="992" d="M418 1402 L470 1402 L620 1162 L849 1402 L897 1402 L643 1133 L591 1133 L418 1402 Z M883 26 L878 -4 Q846 -9 829 -9 Q734 -9 734 75 Q734 101 761 212 L768 238 L752 216 Q678 116 648 88 Q525 -28 319 -28 Q179 -28 102.5 38 Q26 104 26 225 Q26 324 81 394 Q147 477 310 507 Q384 521 589 533 Q717 540 770 574 Q867 634 867 786 Q867 873 805 918 Q723 978 581 978 Q442 978 351.5 916.5 Q261 855 233 742 L180 742 Q208 858 296 928 Q404 1013 581 1013 Q734 1013 821 954 Q908 895 908 791 Q908 743 780 154 Q767 96 767 71 Q767 21 830 21 Q849 21 883 26 Z M832 576 L820 568 Q753 519 710 509 Q667 499 438 482 Q224 466 143 398 Q65 333 65 222 Q65 99 166 44 Q229 9 328 9 Q519 9 653 144 Q700 191 737 255.5 Q774 320 787 377 L832 576 Z " />
<glyph glyph-name="uni01D1" unicode="&#x1d1;" horiz-adv-x="1457" d="M861 1399 Q1057 1399 1186 1312 Q1288 1243 1345 1131 Q1410 1004 1410 847 Q1410 720 1376.5 586 Q1343 452 1285 342 Q1083 -35 677 -35 Q461 -35 322 83 Q136 243 136 535 Q136 760 223 959 Q333 1210 535 1319 Q685 1399 861 1399 Z M855 1363 Q573 1363 387 1149 Q265 1009 211 800 Q176 662 176 538 Q176 292 313.5 145.5 Q451 -1 682 -1 Q941 -1 1122 183 Q1242 306 1305 487 Q1369 668 1369 848 Q1369 1042 1270 1176 Q1131 1363 855 1363 Z M682 1729 L733 1729 L919 1512 L1168 1729 L1221 1729 L944 1481 L892 1481 L682 1729 Z " />
<glyph glyph-name="uni01D2" unicode="&#x1d2;" horiz-adv-x="1053" d="M610 1008 Q781 1008 882 897 Q972 798 972 625 Q972 460 908 303 Q831 113 688 29 Q587 -30 465 -30 Q282 -30 183 76 Q139 125 113 204 Q87 283 87 372 Q87 528 147 675 Q222 861 366 945 Q475 1008 610 1008 Z M607 972 Q391 972 262 803 Q200 722 163.5 605.5 Q127 489 127 372 Q127 176 234 83 Q322 6 463 6 Q668 6 796 177 Q856 257 894.5 385 Q933 513 933 634 Q933 801 833 893 Q747 972 607 972 Z M430 1402 L482 1402 L632 1162 L862 1402 L909 1402 L655 1133 L603 1133 L430 1402 Z " />
<glyph glyph-name="uni01D3" unicode="&#x1d3;" horiz-adv-x="1312" d="M1349 1365 L1165 498 Q1136 357 1107 285.5 Q1078 214 1025 150 Q876 -32 587 -32 Q389 -32 273 60 Q209 110 173.5 184.5 Q138 259 138 342 Q138 426 165 551 L338 1365 L376 1365 L198 529 Q177 430 177 355 Q177 171 313 78 Q422 3 585 3 Q871 3 1010 191 Q1049 245 1076 315 Q1103 385 1127 498 L1311 1365 L1349 1365 Z M631 1729 L682 1729 L868 1512 L1117 1729 L1170 1729 L893 1481 L841 1481 L631 1729 Z " />
<glyph glyph-name="uni01D4" unicode="&#x1d4;" horiz-adv-x="1036" d="M985 979 L777 0 L739 0 L790 243 Q655 -27 410 -27 Q294 -27 210 31 Q164 63 138 114 Q112 165 112 223 Q112 300 139 425 L256 979 L295 979 L173 409 Q150 299 150 233 Q150 131 225 70 Q301 8 411 8 Q578 8 696 153 Q798 278 843 489 L947 979 L985 979 Z M446 1402 L498 1402 L647 1162 L877 1402 L925 1402 L671 1133 L619 1133 L446 1402 Z " />
<glyph glyph-name="uni01DD" unicode="&#x1dd;" horiz-adv-x="1019" d="M144 655 Q184 784 256 866 Q379 1006 576 1006 Q795 1006 888 850 Q952 742 952 589 Q952 454 910.5 333.5 Q869 213 793 128 Q653 -28 451 -28 Q282 -28 186.5 75.5 Q91 179 91 361 Q91 414 101 479 L907 479 Q917 531 917 581 Q917 757 842 854 Q748 975 582 975 Q438 975 335 892.5 Q232 810 183 655 L144 655 Z M900 442 L136 442 Q129 398 129 363 Q129 253 170 165 Q205 90 275 51 Q352 7 453 7 Q620 7 741 124.5 Q862 242 900 442 Z " />
<glyph glyph-name="Gcaron" unicode="&#x1e6;" horiz-adv-x="1486" d="M1377 643 L1240 -3 L1201 -3 L1245 205 Q1257 259 1289 382 Q1240 279 1214 238.5 Q1188 198 1142 152 Q958 -32 683 -32 Q395 -32 249 161 Q136 310 136 539 Q136 732 205 909 Q274 1086 395 1205 Q591 1397 875 1397 Q1122 1397 1261 1262 Q1386 1141 1393 953 L1356 953 Q1342 1126 1237 1233 Q1178 1294 1083.5 1327.5 Q989 1361 878 1361 Q694 1361 541 1269 Q312 1132 222 837 Q176 689 176 529 Q176 290 315 143 Q448 3 685 3 Q1020 3 1210 294 Q1294 421 1331 606 L800 606 L807 643 L1377 643 Z M680 1729 L731 1729 L917 1512 L1166 1729 L1219 1729 L942 1481 L890 1481 L680 1729 Z " />
<glyph glyph-name="gcaron" unicode="&#x1e7;" horiz-adv-x="1069" d="M1017 979 L826 76 Q782 -130 702 -224 Q588 -360 374 -360 Q191 -360 107 -278 Q32 -204 32 -90 Q32 -79 33 -56 L73 -56 Q73 -70 73 -84 Q73 -324 375 -324 Q567 -324 671 -206 Q714 -158 741.5 -84.5 Q769 -11 800 133 L834 293 Q706 52 464 52 Q339 52 248 114 Q182 158 148 227 Q100 326 100 448 Q100 586 154 711 Q230 886 378 961 Q471 1008 578 1008 Q729 1008 819 924 Q909 840 918 691 L979 979 L1017 979 Z M577 972 Q485 972 402 932 Q319 892 261 819 Q204 748 171.5 647 Q139 546 139 441 Q139 277 227 182 Q315 87 468 87 Q644 87 759 231 Q820 309 857 423 Q894 537 894 649 Q894 835 771 916 Q687 972 577 972 Z M415 1402 L467 1402 L617 1162 L847 1402 L894 1402 L640 1133 L588 1133 L415 1402 Z " />
<glyph glyph-name="uni01F4" unicode="&#x1f4;" horiz-adv-x="1486" d="M1377 643 L1240 -3 L1201 -3 L1245 205 Q1257 259 1289 382 Q1240 279 1214 238.5 Q1188 198 1142 152 Q958 -32 683 -32 Q395 -32 249 161 Q136 310 136 539 Q136 732 205 909 Q274 1086 395 1205 Q591 1397 875 1397 Q1122 1397 1261 1262 Q1386 1141 1393 953 L1356 953 Q1342 1126 1237 1233 Q1178 1294 1083.5 1327.5 Q989 1361 878 1361 Q694 1361 541 1269 Q312 1132 222 837 Q176 689 176 529 Q176 290 315 143 Q448 3 685 3 Q1020 3 1210 294 Q1294 421 1331 606 L800 606 L807 643 L1377 643 Z M1200 1729 L867 1481 L818 1481 L1144 1729 L1200 1729 Z " />
<glyph glyph-name="uni01F5" unicode="&#x1f5;" horiz-adv-x="1069" d="M1017 979 L826 76 Q782 -130 702 -224 Q588 -360 374 -360 Q191 -360 107 -278 Q32 -204 32 -90 Q32 -79 33 -56 L73 -56 Q73 -70 73 -84 Q73 -324 375 -324 Q567 -324 671 -206 Q714 -158 741.5 -84.5 Q769 -11 800 133 L834 293 Q706 52 464 52 Q339 52 248 114 Q182 158 148 227 Q100 326 100 448 Q100 586 154 711 Q230 886 378 961 Q471 1008 578 1008 Q729 1008 819 924 Q909 840 918 691 L979 979 L1017 979 Z M577 972 Q485 972 402 932 Q319 892 261 819 Q204 748 171.5 647 Q139 546 139 441 Q139 277 227 182 Q315 87 468 87 Q644 87 759 231 Q820 309 857 423 Q894 537 894 649 Q894 835 771 916 Q687 972 577 972 Z M919 1401 L613 1133 L563 1133 L863 1401 L919 1401 Z " />
<glyph glyph-name="Aringacute" unicode="&#x1fa;" horiz-adv-x="1200" d="M814 1365 L1071 0 L1029 0 L945 452 L252 452 L-28 0 L-75 0 L776 1365 L814 1365 Z M788 1324 Q754 1263 704 1183 L275 489 L938 489 L814 1158 Q793 1273 788 1324 Z M835 1800 Q907 1800 958 1744 Q1002 1696 1002 1631 Q1002 1555 946 1505 Q898 1461 832 1461 Q757 1461 707 1517 Q663 1565 663 1632 Q663 1702 713.5 1751 Q764 1800 835 1800 Z M834 1762 Q779 1762 740 1724 Q701 1686 701 1632 Q701 1576 739.5 1537.5 Q778 1499 832 1499 Q887 1499 925.5 1537.5 Q964 1576 964 1631 Q964 1684 925.5 1723 Q887 1762 834 1762 Z M1048 2098 L715 1850 L666 1850 L992 2098 L1048 2098 Z " />
<glyph glyph-name="aringacute" unicode="&#x1fb;" horiz-adv-x="992" d="M789 1632 L456 1384 L407 1384 L733 1632 L789 1632 Z M650 1405 Q722 1405 772 1349 Q816 1301 816 1236 Q816 1161 760 1110 Q712 1067 647 1067 Q572 1067 521 1123 Q478 1171 478 1237 Q478 1307 528 1356 Q578 1405 650 1405 Z M649 1367 Q594 1367 555 1329 Q516 1291 516 1237 Q516 1182 554 1143.5 Q592 1105 647 1105 Q701 1105 739.5 1143.5 Q778 1182 778 1236 Q778 1289 739.5 1328 Q701 1367 649 1367 Z M883 26 L878 -4 Q846 -9 829 -9 Q734 -9 734 75 Q734 101 761 212 L768 238 L752 216 Q678 116 648 88 Q525 -28 319 -28 Q179 -28 102.5 38 Q26 104 26 225 Q26 324 81 394 Q147 477 310 507 Q384 521 589 533 Q717 540 770 574 Q867 634 867 786 Q867 873 805 918 Q723 978 581 978 Q442 978 351.5 916.5 Q261 855 233 742 L180 742 Q208 858 296 928 Q404 1013 581 1013 Q734 1013 821 954 Q908 895 908 791 Q908 743 780 154 Q767 96 767 71 Q767 21 830 21 Q849 21 883 26 Z M832 576 L820 568 Q753 519 710 509 Q667 499 438 482 Q224 466 143 398 Q65 333 65 222 Q65 99 166 44 Q229 9 328 9 Q519 9 653 144 Q700 191 737 255.5 Q774 320 787 377 L832 576 Z " />
<glyph glyph-name="AEacute" unicode="&#x1fc;" horiz-adv-x="1769" d="M1840 1365 L1832 1328 L1112 1328 L984 729 L1653 729 L1646 692 L977 692 L837 37 L1592 37 L1584 0 L791 0 L903 527 L373 527 L-38 0 L-89 0 L978 1365 L1840 1365 Z M1073 1328 L993 1328 L400 564 L911 564 L1073 1328 Z M1745 1729 L1413 1481 L1363 1481 L1690 1729 L1745 1729 Z " />
<glyph glyph-name="aeacute" unicode="&#x1fd;" horiz-adv-x="1710" d="M1216 1401 L910 1133 L860 1133 L1160 1401 L1216 1401 Z M806 315 Q760 202 678 119 Q535 -28 319 -28 Q178 -28 102 38 Q26 104 26 225 Q26 325 82 395 Q147 477 310 507 Q384 521 589 533 Q719 541 771 574 Q868 634 868 787 Q868 873 806 918 Q724 978 582 978 Q442 978 351.5 917 Q261 856 233 742 L180 742 Q208 859 296 928 Q405 1013 581 1013 Q733 1013 821 954 Q909 895 909 793 Q909 769 903 740 Q1042 1007 1295 1007 Q1387 1007 1465 969 Q1544 930 1587 855 Q1642 761 1642 635 Q1642 580 1633 500 L857 500 Q838 416 838 348 Q838 151 978 62 Q1063 8 1174 8 Q1442 8 1556 324 L1595 324 Q1548 158 1434.5 65 Q1321 -28 1166 -28 Q1006 -28 912.5 61 Q819 150 806 315 Z M864 537 L1598 537 Q1603 587 1603 632 Q1603 780 1531 868 Q1447 971 1299 971 Q1180 971 1082 904 Q1000 849 949.5 763 Q899 677 864 537 Z M832 576 L820 568 Q752 519 709.5 509.5 Q667 500 438 483 Q224 466 143 399 Q65 333 65 222 Q65 99 166 44 Q229 9 328 9 Q519 9 653 144 Q700 191 737 255.5 Q774 320 787 377 L832 576 Z " />
<glyph glyph-name="Oslashacute" unicode="&#x1fe;" horiz-adv-x="1457" d="M1386 1402 L1261 1254 Q1419 1096 1419 840 Q1419 506 1232 248 Q1027 -35 684 -35 Q449 -35 316 95 L186 -69 L159 -44 L289 121 Q248 165 222 206 Q136 335 136 531 Q136 707 196 878 Q279 1117 451 1256 Q627 1399 873 1399 Q1091 1399 1234 1279 L1358 1426 L1386 1402 Z M1209 1248 Q1087 1363 868 1363 Q508 1363 313 1038 Q248 930 212 797 Q176 664 176 533 Q176 415 206.5 330 Q237 245 314 150 L1209 1248 Z M1235 1224 L341 124 Q401 70 459 44 Q555 1 686 1 Q942 1 1120 176 Q1227 281 1295 434 Q1377 621 1377 826 Q1377 1084 1235 1224 Z M1141 1729 L808 1481 L759 1481 L1085 1729 L1141 1729 Z " />
<glyph glyph-name="oslashacute" unicode="&#x1ff;" horiz-adv-x="1053" d="M920 1401 L613 1133 L564 1133 L864 1401 L920 1401 Z M987 1009 L887 894 Q971 798 971 619 Q971 481 929.5 354 Q888 227 813 137 Q676 -27 465 -27 Q296 -27 207 60 L112 -57 L87 -37 L184 83 Q90 189 90 376 Q90 573 178 740 Q272 917 442 978 Q518 1006 601 1006 Q766 1006 866 916 L959 1032 L987 1009 Z M840 888 Q750 972 601 972 Q450 972 334 876 Q224 786 168 618 Q128 497 128 372 Q128 209 209 111 L840 888 Z M862 865 L231 87 Q322 8 463 8 Q697 8 824 219 Q931 396 931 622 Q931 783 862 865 Z " />
<glyph glyph-name="uni0200" unicode="&#x200;" horiz-adv-x="1200" d="M814 1365 L1071 0 L1029 0 L945 452 L252 452 L-28 0 L-75 0 L776 1365 L814 1365 Z M788 1324 Q754 1263 704 1183 L275 489 L938 489 L814 1158 Q793 1273 788 1324 Z M719 1729 L769 1729 L1000 1481 L956 1481 L719 1729 Z M418 1729 L469 1729 L700 1481 L656 1481 L418 1729 Z " />
<glyph glyph-name="uni0201" unicode="&#x201;" horiz-adv-x="992" d="M473 1436 L523 1436 L754 1188 L710 1188 L473 1436 Z M172 1436 L223 1436 L453 1188 L409 1188 L172 1436 Z M175 702 Q208 820 268 889 Q372 1007 572 1007 Q735 1007 813 931 Q877 869 877 774 Q877 724 852 607 L790 318 Q750 131 750 97 Q750 36 812 36 Q835 36 869 43 L861 7 Q818 -2 789 -2 Q751 -2 729.5 22.5 Q708 47 708 91 Q708 134 730 215 Q591 -29 324 -29 Q188 -29 107.5 41 Q27 111 27 230 Q27 341 96 421 Q173 508 330 529 Q390 537 574 547 Q718 554 774 585 Q803 601 821 651.5 Q839 702 839 769 Q839 971 566 971 Q380 971 292 863 Q245 804 214 702 L175 702 Z M806 572 Q767 537 715 527 Q663 517 454 504 Q271 493 195 454 Q136 424 100 363.5 Q64 303 64 234 Q64 129 133 68.5 Q202 8 322 8 Q552 8 685 201 Q746 288 783 462 L806 572 Z " />
<glyph glyph-name="Scommaaccent" unicode="&#x218;" horiz-adv-x="1187" d="M1180 981 L1141 981 Q1142 1003 1142 1022 Q1142 1169 1054 1252 Q945 1354 722 1354 Q479 1354 371 1238 Q287 1149 287 1029 Q287 869 434 793 Q487 766 762 682 Q918 635 982 567 Q1058 488 1058 361 Q1058 270 1016 190 Q902 -26 554 -26 Q300 -26 172 98 Q55 211 55 401 Q55 420 57 459 L95 459 Q94 427 94 411 Q94 206 223 104 Q343 9 554 9 Q779 9 892 100 Q1018 202 1018 360 Q1018 508 896 584 Q865 603 828.5 616 Q792 629 603 688 Q483 725 431.5 748.5 Q380 772 339 808 Q246 889 246 1026 Q246 1168 344 1266 Q467 1390 711 1390 Q914 1390 1029 1320 Q1182 1227 1182 1032 Q1182 1012 1180 981 Z M440 -400 L448 -359 Q499 -329 528 -210 Q479 -210 479 -159 Q479 -138 493 -123.5 Q507 -109 526 -109 Q546 -109 559 -125.5 Q572 -142 572 -166 Q572 -206 551 -266.5 Q530 -327 506 -358 Q476 -395 440 -400 Z " />
<glyph glyph-name="scommaaccent" unicode="&#x219;" horiz-adv-x="873" d="M813 694 L773 694 Q776 720 776 741 Q776 971 482 971 Q355 971 279 917 Q195 857 195 752 Q195 658 265 611 Q313 578 452 528 Q553 491 597 469 Q641 447 673 417 Q741 354 741 255 Q741 128 639.5 50 Q538 -28 373 -28 Q200 -28 114 43 Q18 123 18 268 Q18 296 23 335 L63 335 Q58 297 58 267 Q58 142 140 75 Q222 8 376 8 Q503 8 592 63 Q701 130 701 253 Q701 337 648 385 Q595 433 442 487 Q285 543 233 582 Q152 642 152 748 Q152 868 243 937.5 Q334 1007 490 1007 Q673 1007 759 912 Q815 850 815 747 Q815 724 813 694 Z M249 -393 L257 -352 Q307 -323 337 -203 Q287 -202 287 -152 Q287 -131 301 -116.5 Q315 -102 334 -102 Q354 -102 367 -118 Q380 -134 380 -159 Q380 -199 359 -259.5 Q338 -320 314 -351 Q284 -388 249 -393 Z " />
<glyph glyph-name="uni021A" unicode="&#x21a;" horiz-adv-x="1082" d="M1243 1365 L1235 1328 L750 1328 L468 0 L430 0 L712 1328 L207 1328 L215 1365 L1243 1365 Z M338 -400 L345 -359 Q396 -329 425 -210 Q376 -210 376 -159 Q376 -138 389.5 -123.5 Q403 -109 423 -109 Q443 -109 456 -125.5 Q469 -142 469 -166 Q469 -206 448 -266.5 Q427 -327 403 -358 Q373 -395 338 -400 Z " />
<glyph glyph-name="uni021B" unicode="&#x21b;" horiz-adv-x="522" d="M533 979 L525 942 L307 942 L159 245 Q140 154 140 121 Q140 31 264 31 Q311 31 365 43 L357 4 Q306 -4 256 -4 Q101 -4 101 111 Q101 151 121 245 L269 942 L83 942 L91 979 L277 979 L343 1292 L381 1292 L315 979 L533 979 Z M109 -393 L117 -352 Q167 -323 197 -203 Q147 -202 147 -152 Q147 -131 161 -116.5 Q175 -102 195 -102 Q215 -102 228 -118.5 Q241 -135 241 -159 Q241 -199 220 -259.5 Q199 -320 174 -351 Q145 -388 109 -393 Z " />
<glyph glyph-name="uni0226" unicode="&#x226;" horiz-adv-x="1200" d="M814 1365 L1071 0 L1029 0 L945 452 L252 452 L-28 0 L-75 0 L776 1365 L814 1365 Z M788 1324 Q754 1263 704 1183 L275 489 L938 489 L814 1158 Q793 1273 788 1324 Z M833 1663 Q851 1663 863.5 1648.5 Q876 1634 876 1614 Q876 1593 863.5 1578.5 Q851 1564 832 1564 Q814 1564 801 1578.5 Q788 1593 788 1614 Q788 1634 801 1648.5 Q814 1663 833 1663 Z " />
<glyph glyph-name="uni0227" unicode="&#x227;" horiz-adv-x="992" d="M628 1318 Q646 1318 658.5 1303.5 Q671 1289 671 1269 Q671 1248 658.5 1233.5 Q646 1219 627 1219 Q609 1219 596 1233.5 Q583 1248 583 1269 Q583 1289 596 1303.5 Q609 1318 628 1318 Z M883 26 L878 -4 Q846 -9 829 -9 Q734 -9 734 75 Q734 101 761 212 L768 238 L752 216 Q678 116 648 88 Q525 -28 319 -28 Q179 -28 102.5 38 Q26 104 26 225 Q26 324 81 394 Q147 477 310 507 Q384 521 589 533 Q717 540 770 574 Q867 634 867 786 Q867 873 805 918 Q723 978 581 978 Q442 978 351.5 916.5 Q261 855 233 742 L180 742 Q208 858 296 928 Q404 1013 581 1013 Q734 1013 821 954 Q908 895 908 791 Q908 743 780 154 Q767 96 767 71 Q767 21 830 21 Q849 21 883 26 Z M832 576 L820 568 Q753 519 710 509 Q667 499 438 482 Q224 466 143 398 Q65 333 65 222 Q65 99 166 44 Q229 9 328 9 Q519 9 653 144 Q700 191 737 255.5 Q774 320 787 377 L832 576 Z " />
<glyph glyph-name="uni0237" unicode="&#x237;" horiz-adv-x="351" d="M299 979 L75 -76 Q52 -183 41.5 -214 Q31 -245 10 -273 Q-44 -340 -162 -340 Q-183 -340 -222 -337 L-214 -300 Q-182 -306 -158 -306 Q-63 -306 -18 -245 Q-1 -221 7.5 -193.5 Q16 -166 48 -26 L261 979 L299 979 Z " />
<glyph glyph-name="afii57929" unicode="&#x2bc;" horiz-adv-x="366" d="M241 971 L249 1012 Q299 1045 329 1176 Q279 1177 279 1227 Q279 1248 293 1262.5 Q307 1277 327 1277 Q347 1277 360 1260.5 Q373 1244 373 1219 Q373 1178 352 1113.5 Q331 1049 306 1017 Q277 977 241 971 Z " />
<glyph glyph-name="circumflex" unicode="&#x2c6;" horiz-adv-x="1024" d="M863 1133 L811 1133 L661 1372 L432 1133 L384 1133 L638 1402 L690 1402 L863 1133 Z " />
<glyph glyph-name="caron" unicode="&#x2c7;" horiz-adv-x="1024" d="M441 1402 L493 1402 L642 1162 L872 1402 L920 1402 L666 1133 L614 1133 L441 1402 Z " />
<glyph glyph-name="uni02C9" unicode="&#x2c9;" horiz-adv-x="1024" d="M921 1272 L913 1237 L393 1237 L401 1272 L921 1272 Z " />
<glyph glyph-name="breve" unicode="&#x2d8;" horiz-adv-x="1024" d="M906 1380 Q842 1146 655 1146 Q459 1146 455 1380 L493 1380 Q494 1294 519 1252 Q560 1185 654 1185 Q806 1185 868 1380 L906 1380 Z " />
<glyph glyph-name="dotaccent" unicode="&#x2d9;" horiz-adv-x="1024" d="M678 1318 Q696 1318 708.5 1303.5 Q721 1289 721 1269 Q721 1248 708.5 1233.5 Q696 1219 677 1219 Q659 1219 646 1233.5 Q633 1248 633 1269 Q633 1289 646 1303.5 Q659 1318 678 1318 Z " />
<glyph glyph-name="ring" unicode="&#x2da;" horiz-adv-x="1024" d="M658 1451 Q730 1451 781 1395 Q825 1347 825 1282 Q825 1207 769 1156 Q720 1113 655 1113 Q580 1113 530 1169 Q486 1217 486 1283 Q486 1353 536 1402 Q586 1451 658 1451 Z M657 1413 Q602 1413 563 1375 Q524 1337 524 1283 Q524 1228 562.5 1189.5 Q601 1151 655 1151 Q710 1151 748.5 1189.5 Q787 1228 787 1282 Q787 1335 748.5 1374 Q710 1413 657 1413 Z " />
<glyph glyph-name="ogonek" unicode="&#x2db;" horiz-adv-x="1024" d="M567 0 L616 0 Q538 -54 508 -92 Q478 -130 478 -177 Q478 -224 515 -253 Q552 -282 612 -282 Q656 -282 717 -261 L714 -299 Q651 -320 603 -320 Q529 -320 483.5 -283 Q438 -246 438 -186 Q438 -131 466 -90.5 Q494 -50 567 0 Z " />
<glyph glyph-name="tilde" unicode="&#x2dc;" horiz-adv-x="1024" d="M929 1330 Q885 1180 792 1180 Q762 1180 740.5 1192.5 Q719 1205 635 1272 Q600 1300 566 1300 Q497 1300 465 1184 L427 1184 Q466 1339 567 1339 Q597 1339 622.5 1324.5 Q648 1310 722 1250 Q763 1217 794 1217 Q854 1217 891 1330 L929 1330 Z " />
<glyph glyph-name="hungarumlaut" unicode="&#x2dd;" horiz-adv-x="1024" d="M732 1401 L521 1133 L477 1133 L681 1401 L732 1401 Z M991 1401 L780 1133 L736 1133 L941 1401 L991 1401 Z " />
<glyph glyph-name="pi" unicode="&#x3c0;" horiz-adv-x="954" d="M868 943 L294 943 L93 0 L55 0 L256 943 L106 943 L114 980 L1063 980 L1056 943 L906 943 L706 0 L667 0 L868 943 Z " />
<glyph glyph-name="uni1E1E" unicode="&#x1e1e;" horiz-adv-x="1053" d="M1200 1365 L1192 1328 L389 1328 L261 729 L989 729 L981 692 L253 692 L106 0 L68 0 L358 1365 L1200 1365 Z M811 1663 Q829 1663 841.5 1648.5 Q854 1634 854 1614 Q854 1593 841.5 1578.5 Q829 1564 810 1564 Q792 1564 779 1578.5 Q766 1593 766 1614 Q766 1634 779 1648.5 Q792 1663 811 1663 Z " />
<glyph glyph-name="Wgrave" unicode="&#x1e80;" horiz-adv-x="1800" d="M1947 1365 L1255 0 L1205 0 L1109 1025 Q1090 1217 1083 1331 Q1068 1301 1015 1197 L964 1094 L405 0 L354 0 L229 1365 L270 1365 L371 225 L379 140 Q385 64 387 43 Q409 91 469 208 L1059 1365 L1116 1365 L1218 270 L1229 149 Q1236 69 1238 43 Q1250 70 1345 261 L1905 1365 L1947 1365 Z M858 1729 L906 1729 L1153 1481 L1104 1481 L858 1729 Z " />
<glyph glyph-name="wgrave" unicode="&#x1e81;" horiz-adv-x="1411" d="M1489 979 L963 0 L914 0 L826 725 Q818 789 805 911 L801 945 Q772 888 708 768 L298 0 L245 0 L133 979 L173 979 L253 253 Q271 96 277 33 Q314 110 391 253 L777 979 L834 979 L920 277 Q941 104 944 33 Q963 76 1058 253 L1446 979 L1489 979 Z M855 1133 L812 1133 L588 1401 L637 1401 L855 1133 Z " />
<glyph glyph-name="Wacute" unicode="&#x1e82;" horiz-adv-x="1800" d="M1947 1365 L1255 0 L1205 0 L1109 1025 Q1090 1217 1083 1331 Q1068 1301 1015 1197 L964 1094 L405 0 L354 0 L229 1365 L270 1365 L371 225 L379 140 Q385 64 387 43 Q409 91 469 208 L1059 1365 L1116 1365 L1218 270 L1229 149 Q1236 69 1238 43 Q1250 70 1345 261 L1905 1365 L1947 1365 Z M1429 1729 L1096 1481 L1046 1481 L1373 1729 L1429 1729 Z " />
<glyph glyph-name="wacute" unicode="&#x1e83;" horiz-adv-x="1411" d="M1489 979 L963 0 L914 0 L826 725 Q818 789 805 911 L801 945 Q772 888 708 768 L298 0 L245 0 L133 979 L173 979 L253 253 Q271 96 277 33 Q314 110 391 253 L777 979 L834 979 L920 277 Q941 104 944 33 Q963 76 1058 253 L1446 979 L1489 979 Z M1143 1401 L836 1133 L787 1133 L1087 1401 L1143 1401 Z " />
<glyph glyph-name="Wdieresis" unicode="&#x1e84;" horiz-adv-x="1800" d="M1947 1365 L1255 0 L1205 0 L1109 1025 Q1090 1217 1083 1331 Q1068 1301 1015 1197 L964 1094 L405 0 L354 0 L229 1365 L270 1365 L371 225 L379 140 Q385 64 387 43 Q409 91 469 208 L1059 1365 L1116 1365 L1218 270 L1229 149 Q1236 69 1238 43 Q1250 70 1345 261 L1905 1365 L1947 1365 Z M929 1663 Q947 1663 959.5 1648.5 Q972 1634 972 1614 Q972 1593 959.5 1578.5 Q947 1564 928 1564 Q910 1564 897 1578.5 Q884 1593 884 1614 Q884 1634 897 1648.5 Q910 1663 929 1663 Z M1304 1663 Q1322 1663 1334.5 1648.5 Q1347 1634 1347 1614 Q1347 1593 1334.5 1578.5 Q1322 1564 1303 1564 Q1285 1564 1272 1578.5 Q1259 1593 1259 1614 Q1259 1634 1272 1648.5 Q1285 1663 1304 1663 Z " />
<glyph glyph-name="wdieresis" unicode="&#x1e85;" horiz-adv-x="1411" d="M1489 979 L963 0 L914 0 L826 725 Q818 789 805 911 L801 945 Q772 888 708 768 L298 0 L245 0 L133 979 L173 979 L253 253 Q271 96 277 33 Q314 110 391 253 L777 979 L834 979 L920 277 Q941 104 944 33 Q963 76 1058 253 L1446 979 L1489 979 Z M671 1318 Q689 1318 701.5 1303.5 Q714 1289 714 1269 Q714 1248 701.5 1233.5 Q689 1219 670 1219 Q652 1219 639 1233.5 Q626 1248 626 1269 Q626 1289 639 1303.5 Q652 1318 671 1318 Z M991 1318 Q1009 1318 1021.5 1303.5 Q1034 1289 1034 1269 Q1034 1248 1021.5 1233.5 Q1009 1219 990 1219 Q972 1219 959 1233.5 Q946 1248 946 1269 Q946 1289 959 1303.5 Q972 1318 991 1318 Z " />
<glyph glyph-name="Ygrave" unicode="&#x1ef2;" horiz-adv-x="1111" d="M1299 1365 L595 568 L474 0 L436 0 L559 579 L188 1365 L231 1365 L504 783 Q514 761 540 708 Q568 649 584 607 Q626 658 729 774 L1249 1365 L1299 1365 Z M495 1729 L544 1729 L790 1481 L742 1481 L495 1729 Z " />
<glyph glyph-name="ygrave" unicode="&#x1ef3;" horiz-adv-x="832" d="M924 979 L347 -29 Q243 -210 192 -264 Q155 -303 108 -319 Q61 -335 -15 -335 Q-32 -335 -50 -335 L-42 -299 Q-21 -298 -10 -298 Q67 -297 108 -280 Q149 -263 183 -217 Q226 -159 318 -1 L119 979 L158 979 L305 263 L318 198 Q340 82 347 42 Q376 100 477 275 L879 979 L924 979 Z M538 1133 L495 1133 L272 1401 L320 1401 L538 1133 Z " />
<glyph glyph-name="uni2011" unicode="&#x2011;" horiz-adv-x="422" d="M431 521 L423 484 L1 484 L9 521 L431 521 Z " />
<glyph glyph-name="figuredash" unicode="&#x2012;" horiz-adv-x="1174" d="M1063 521 L1063 484 L121 484 L121 521 L1063 521 Z " />
<glyph glyph-name="endash" unicode="&#x2013;" horiz-adv-x="1174" d="M1063 521 L1063 484 L121 484 L121 521 L1063 521 Z " />
<glyph glyph-name="emdash" unicode="&#x2014;" horiz-adv-x="1273" d="M1274 521 L1274 484 L8 484 L8 521 L1274 521 Z " />
<glyph glyph-name="afii00208" unicode="&#x2015;" horiz-adv-x="1273" d="M1274 521 L1274 484 L8 484 L8 521 L1274 521 Z " />
<glyph glyph-name="underscoredbl" unicode="&#x2017;" horiz-adv-x="1024" d="M43 -136 L1067 -136 L1067 -171 L43 -171 L43 -136 Z M43 -373 L1067 -373 L1067 -410 L43 -410 L43 -373 Z " />
<glyph glyph-name="quoteleft" unicode="&#x2018;" horiz-adv-x="366" d="M440 1357 L432 1316 Q381 1283 352 1152 Q402 1151 402 1101 Q402 1080 388 1065.5 Q374 1051 354 1051 Q334 1051 321 1067.5 Q308 1084 308 1109 Q308 1150 329 1214.5 Q350 1279 374 1311 Q404 1351 440 1357 Z " />
<glyph glyph-name="quoteright" unicode="&#x2019;" horiz-adv-x="366" d="M241 1072 L249 1113 Q299 1146 329 1277 Q326 1277 324 1277 Q279 1279 279 1328 Q279 1349 293 1363.5 Q307 1378 327 1378 Q347 1378 360 1361.5 Q373 1345 373 1320 Q373 1279 352 1214.5 Q331 1150 306 1117 Q277 1078 241 1072 Z " />
<glyph glyph-name="quotesinglbase" unicode="&#x201a;" horiz-adv-x="366" d="M-10 -206 L-2 -165 Q48 -132 78 -2 Q75 -2 73 -2 Q28 -2 28 49 Q28 70 42 84.5 Q56 99 76 99 Q96 99 109 82.5 Q122 66 122 41 Q122 0 101 -64.5 Q80 -129 55 -161 Q26 -200 -10 -206 Z " />
<glyph glyph-name="quotereversed" unicode="&#x201b;" horiz-adv-x="366" d="M288 985 Q236 1017 236 1121 Q236 1304 306 1304 Q324 1304 337 1290 Q350 1276 350 1257 Q350 1235 336 1219 Q322 1203 303 1203 Q292 1203 281 1208 Q272 1150 272 1118 Q272 1059 296 1026 L288 985 Z " />
<glyph glyph-name="quotedblleft" unicode="&#x201c;" horiz-adv-x="560" d="M633 1304 L625 1263 Q575 1230 545 1100 Q549 1100 550 1100 Q595 1100 595 1049 Q595 1028 581 1013.5 Q567 999 548 999 Q528 999 515 1015.5 Q502 1032 502 1056 Q502 1098 523 1162.5 Q544 1227 568 1259 Q597 1298 633 1304 Z M440 1304 L432 1263 Q381 1230 352 1100 Q355 1100 356 1100 Q402 1100 402 1049 Q402 1028 388 1013.5 Q374 999 354 999 Q334 999 321 1015.5 Q308 1032 308 1056 Q308 1098 329 1162 Q350 1226 374 1259 Q404 1298 440 1304 Z " />
<glyph glyph-name="quotedblright" unicode="&#x201d;" horiz-adv-x="559" d="M435 971 L443 1012 Q493 1045 522 1176 Q473 1177 473 1227 Q473 1248 487 1262.5 Q501 1277 520 1277 Q540 1277 553 1261 Q566 1245 566 1219 Q566 1177 545 1113 Q524 1049 500 1017 Q470 977 435 971 Z M241 971 L249 1012 Q299 1045 329 1176 Q279 1177 279 1227 Q279 1248 293 1262.5 Q307 1277 327 1277 Q347 1277 360 1260.5 Q373 1244 373 1219 Q373 1178 352 1113.5 Q331 1049 306 1017 Q277 977 241 971 Z " />
<glyph glyph-name="quotedblbase" unicode="&#x201e;" horiz-adv-x="560" d="M184 -206 L192 -165 Q242 -132 271 -2 Q268 -2 267 -2 Q222 -2 222 49 Q222 70 236 84.5 Q250 99 269 99 Q289 99 302 83 Q315 67 315 41 Q315 0 294 -64.5 Q273 -129 249 -161 Q219 -200 184 -206 Z M-10 -206 L-2 -165 Q48 -132 78 -2 Q75 -2 73 -2 Q28 -2 28 49 Q28 70 42 84.5 Q56 99 76 99 Q96 99 109 82.5 Q122 66 122 41 Q122 0 101 -64.5 Q80 -129 55 -161 Q26 -200 -10 -206 Z " />
<glyph glyph-name="dagger" unicode="&#x2020;" horiz-adv-x="1174" d="M794 1365 L694 896 L1097 896 L1089 859 L687 859 L431 -344 L392 -344 L648 859 L245 859 L253 896 L656 896 L756 1365 L794 1365 Z " />
<glyph glyph-name="daggerdbl" unicode="&#x2021;" horiz-adv-x="1174" d="M794 1365 L706 951 L1107 951 L1099 914 L698 914 L526 105 L927 105 L919 68 L519 68 L431 -344 L393 -344 L480 68 L79 68 L87 105 L488 105 L660 914 L259 914 L267 951 L668 951 L756 1365 L794 1365 Z " />
<glyph glyph-name="bullet" unicode="&#x2022;" horiz-adv-x="1365" d="M730 982 Q842 982 924 899 Q1007 815 1007 696 Q1007 578 925 494 Q842 410 726 410 Q610 410 528 493 Q444 577 444 696 Q444 817 528 899 Q612 982 730 982 Z " />
<glyph glyph-name="ellipsis" unicode="&#x2026;" horiz-adv-x="1098" d="M85 89 Q103 89 115.5 74.5 Q128 60 128 39 Q128 19 115 4.5 Q102 -10 84 -10 Q66 -10 53 4.5 Q40 19 40 40 Q40 60 53 74.5 Q66 89 85 89 Z M451 89 Q469 89 481.5 74.5 Q494 60 494 39 Q494 19 481 4.5 Q468 -10 450 -10 Q432 -10 419 4.5 Q406 19 406 40 Q406 60 419 74.5 Q432 89 451 89 Z M817 89 Q835 89 847.5 74.5 Q860 60 860 39 Q860 19 847 4.5 Q834 -10 816 -10 Q798 -10 785 4.5 Q772 19 772 40 Q772 60 785 74.5 Q798 89 817 89 Z " />
<glyph glyph-name="perthousand" unicode="&#x2030;" horiz-adv-x="2297" d="M548 1364 Q658 1364 721 1295.5 Q784 1227 784 1108 Q784 980 731 869 Q637 669 441 669 Q329 669 266.5 737 Q204 805 204 927 Q204 1014 232 1100.5 Q260 1187 309 1248 Q401 1364 548 1364 Z M541 1328 Q447 1328 374 1262 Q317 1210 280 1112 Q243 1014 243 915 Q243 822 300.5 764 Q358 706 449 706 Q560 706 639 795 Q686 848 715.5 935.5 Q745 1023 745 1110 Q745 1212 690.5 1270 Q636 1328 541 1328 Z M329 -35 L279 -35 L1373 1382 L1422 1382 L329 -35 Z M1252 675 Q1362 675 1425 606.5 Q1488 538 1488 419 Q1488 292 1435 180 Q1341 -19 1144 -19 Q1032 -19 969.5 49 Q907 117 907 238 Q907 326 935.5 412.5 Q964 499 1012 560 Q1104 675 1252 675 Z M1244 639 Q1150 639 1078 573 Q1020 521 983 423.5 Q946 326 946 226 Q946 134 1003.5 76 Q1061 18 1153 18 Q1263 18 1343 107 Q1390 160 1419.5 247.5 Q1449 335 1449 421 Q1449 523 1394.5 581 Q1340 639 1244 639 Z M1974 675 Q2084 675 2147 606.5 Q2210 538 2210 419 Q2210 291 2157 180 Q2063 -19 1867 -19 Q1755 -19 1692.5 49 Q1630 117 1630 238 Q1630 326 1658 412.5 Q1686 499 1735 560 Q1827 675 1974 675 Z M1967 639 Q1873 639 1800 573 Q1743 522 1706 423.5 Q1669 325 1669 226 Q1669 134 1726.5 76 Q1784 18 1875 18 Q1986 18 2065 107 Q2112 160 2141.5 247.5 Q2171 335 2171 421 Q2171 523 2116.5 581 Q2062 639 1967 639 Z " />
<glyph glyph-name="guilsinglleft" unicode="&#x2039;" horiz-adv-x="444" d="M372 785 L358 720 L148 504 L264 276 L252 220 L112 496 L118 526 L372 785 Z " />
<glyph glyph-name="guilsinglright" unicode="&#x203a;" horiz-adv-x="445" d="M201 785 L342 510 L335 480 L81 220 L95 285 L305 501 L189 729 L201 785 Z " />
<glyph glyph-name="uni203E" unicode="&#x203e;" horiz-adv-x="1024" d="M43 1708 L1067 1708 L1067 1671 L43 1671 L43 1708 Z " />
<glyph glyph-name="fraction" unicode="&#x2044;" horiz-adv-x="283" d="M629 1329 L-225 0 L-267 0 L586 1329 L629 1329 Z " />
<glyph glyph-name="zerosuperior" unicode="&#x2070;" horiz-adv-x="751" d="M532 1345 Q628 1345 689 1297 Q780 1227 780 1074 Q780 973 751.5 867 Q723 761 677 686 Q578 529 414 529 Q287 529 220 614 Q163 686 163 803 Q163 906 196.5 1020.5 Q230 1135 281 1208 Q377 1345 532 1345 Z M527 1309 Q369 1309 280 1136 Q247 1070 224.5 975 Q202 880 202 803 Q202 709 244 648 Q302 565 417 565 Q562 565 646 706 Q689 777 715.5 877.5 Q742 978 742 1068 Q742 1183 686 1246 Q630 1309 527 1309 Z " />
<glyph glyph-name="foursuperior" unicode="&#x2074;" horiz-adv-x="750" d="M739 783 L731 746 L588 746 L545 546 L507 546 L549 746 L149 746 L157 783 L670 1329 L712 1329 L595 783 L739 783 Z M557 783 L643 1187 Q655 1243 661 1272 L595 1200 L204 783 L557 783 Z " />
<glyph glyph-name="fivesuperior" unicode="&#x2075;" horiz-adv-x="751" d="M802 1329 L790 1292 L396 1292 L285 1003 Q333 1044 378.5 1060.5 Q424 1077 487 1077 Q600 1077 667 1015.5 Q734 954 734 850 Q734 739 669 647 Q585 529 426 529 Q313 529 247 586 Q181 643 181 742 Q181 767 185 800 L223 800 Q218 769 218 747 Q218 681 254 635 Q310 564 431 564 Q569 564 643 673 Q695 751 695 849 Q695 937 637 990 Q579 1043 482 1043 Q415 1043 365 1018 Q315 993 267 936 L223 936 L371 1329 L802 1329 Z " />
<glyph glyph-name="sixsuperior" unicode="&#x2076;" horiz-adv-x="751" d="M782 1126 L743 1126 Q741 1309 550 1309 Q428 1309 357.5 1227.5 Q287 1146 237 946 Q323 1074 476 1074 Q592 1074 663.5 1008 Q735 942 735 835 Q735 705 653 616 Q572 528 441 528 Q320 528 251.5 599.5 Q183 671 183 796 Q183 875 205 972 Q227 1069 262 1143 Q358 1345 553 1345 Q665 1345 724 1288.5 Q783 1232 782 1126 Z M474 1038 Q351 1038 281 951 Q221 877 221 785 Q221 705 264 646 Q324 563 444 563 Q569 563 638 653 Q697 730 697 832 Q697 924 635 981 Q573 1038 474 1038 Z " />
<glyph glyph-name="sevensuperior" unicode="&#x2077;" horiz-adv-x="750" d="M825 1329 L814 1296 Q464 950 330 546 L289 546 Q418 945 763 1292 Q741 1292 701 1292 L306 1292 L314 1329 L825 1329 Z " />
<glyph glyph-name="eightsuperior" unicode="&#x2078;" horiz-adv-x="750" d="M587 959 Q659 929 687 889 Q724 837 724 773 Q724 665 641.5 597.5 Q559 530 427 530 Q311 530 237 576 Q148 632 148 748 Q148 840 203 896.5 Q258 953 369 975 Q254 1027 254 1134 Q254 1227 330.5 1286 Q407 1345 529 1345 Q612 1345 677 1313 Q770 1268 770 1162 Q770 1063 690 1003 Q658 979 587 959 Z M529 1309 Q420 1309 356.5 1263 Q293 1217 293 1137 Q293 1066 350.5 1025 Q408 984 507 984 Q578 984 632 1009 Q732 1055 732 1157 Q732 1227 677 1268 Q622 1309 529 1309 Z M448 949 Q353 949 285 914 Q187 864 187 750 Q187 663 252.5 614.5 Q318 566 435 566 Q524 566 590 605 Q685 662 685 772 Q685 849 628 895 Q561 949 448 949 Z " />
<glyph glyph-name="ninesuperior" unicode="&#x2079;" horiz-adv-x="750" d="M165 748 L205 748 Q204 676 235 634 Q284 566 396 566 Q518 566 590.5 650 Q663 734 712 931 Q624 799 469 799 Q353 799 282.5 866 Q212 933 212 1043 Q212 1168 293 1258 Q373 1346 507 1346 Q628 1346 696.5 1275.5 Q765 1205 765 1081 Q765 998 743 901.5 Q721 805 685 732 Q634 627 568 581 Q496 530 392 530 Q163 530 165 748 Z M505 1310 Q377 1310 309 1219 Q251 1142 251 1045 Q251 951 312.5 893.5 Q374 836 474 836 Q595 836 666 926 Q726 1002 726 1093 Q726 1173 684 1230 Q624 1310 505 1310 Z " />
<glyph glyph-name="zeroinferior" unicode="&#x2080;" horiz-adv-x="751" d="M416 800 Q512 800 573 752 Q664 681 664 528 Q664 428 635.5 321.5 Q607 215 561 141 Q462 -17 298 -17 Q171 -17 104 69 Q47 141 47 258 Q47 360 80.5 475 Q114 590 165 663 Q261 800 416 800 Z M411 764 Q253 764 164 590 Q131 525 108.5 429.5 Q86 334 86 257 Q86 163 128 102 Q186 19 301 19 Q446 19 530 160 Q573 232 599.5 332.5 Q626 433 626 522 Q626 638 570 701 Q514 764 411 764 Z " />
<glyph glyph-name="oneinferior" unicode="&#x2081;" horiz-adv-x="750" d="M512 783 L346 0 L308 0 L462 726 Q340 620 217 596 L226 636 Q350 663 473 783 L512 783 Z " />
<glyph glyph-name="twoinferior" unicode="&#x2082;" horiz-adv-x="751" d="M572 37 L564 0 L20 0 Q30 104 99 171.5 Q168 239 375 344 Q504 411 558 457 Q626 517 626 598 Q626 673 571.5 718 Q517 763 425 763 Q319 763 257.5 701 Q196 639 188 524 L149 524 Q159 655 232.5 727 Q306 799 429 799 Q515 799 576 763 Q617 739 641 695 Q665 651 665 600 Q665 515 607.5 454.5 Q550 394 393 313 Q210 218 157 175 Q116 141 97.5 113 Q79 85 65 37 L74 37 L121 37 L572 37 Z " />
<glyph glyph-name="threeinferior" unicode="&#x2083;" horiz-adv-x="750" d="M97 276 Q90 240 90 212 Q90 125 150.5 72.5 Q211 20 311 20 Q399 20 466 59 Q512 85 539.5 133.5 Q567 182 567 236 Q567 345 456 382 Q417 395 312 395 L320 433 Q353 431 380 431 Q491 431 553 470 Q625 514 625 600 Q625 665 581 707 Q523 763 420 763 Q323 763 260 705.5 Q197 648 185 549 L146 549 Q163 668 236 734 Q309 800 425 800 Q531 800 597.5 745.5 Q664 691 664 604 Q664 452 486 408 Q606 359 606 239 Q606 130 523 54 Q446 -16 306 -16 Q188 -16 119.5 45.5 Q51 107 51 213 Q51 241 58 276 L97 276 Z " />
<glyph glyph-name="fourinferior" unicode="&#x2084;" horiz-adv-x="750" d="M622 237 L614 200 L471 200 L428 0 L390 0 L432 200 L32 200 L40 237 L553 783 L595 783 L478 237 L622 237 Z M440 237 L526 641 Q538 697 544 726 L478 655 L87 237 L440 237 Z " />
<glyph glyph-name="fiveinferior" unicode="&#x2085;" horiz-adv-x="751" d="M686 783 L674 746 L280 746 L169 457 Q217 498 262.5 514.5 Q308 531 371 531 Q484 531 551 469.5 Q618 408 618 304 Q618 193 553 102 Q469 -16 310 -16 Q197 -16 131 41 Q65 98 65 196 Q65 222 69 254 L107 254 Q102 223 102 201 Q102 136 138 90 Q194 19 315 19 Q453 19 527 128 Q579 205 579 303 Q579 391 521 444 Q463 497 366 497 Q299 497 249 472 Q199 447 151 390 L107 390 L255 783 L686 783 Z " />
<glyph glyph-name="sixinferior" unicode="&#x2086;" horiz-adv-x="751" d="M666 580 L627 580 Q625 763 434 763 Q312 763 241.5 681.5 Q171 600 121 400 Q206 528 360 528 Q476 528 547.5 462.5 Q619 397 619 290 Q619 159 537 71 Q456 -17 325 -17 Q204 -17 135.5 54 Q67 125 67 250 Q67 330 89 427 Q111 524 146 598 Q242 799 437 799 Q549 799 608 742.5 Q667 686 666 580 Z M358 492 Q235 492 165 405 Q105 332 105 240 Q105 159 148 100 Q208 18 328 18 Q453 18 522 108 Q581 185 581 287 Q581 378 519 435 Q457 492 358 492 Z " />
<glyph glyph-name="seveninferior" unicode="&#x2087;" horiz-adv-x="750" d="M709 783 L698 750 Q348 403 214 0 L173 0 Q302 399 647 746 Q625 746 585 746 L190 746 L198 783 L709 783 Z " />
<glyph glyph-name="eightinferior" unicode="&#x2088;" horiz-adv-x="750" d="M471 412 Q543 383 571 343 Q608 291 608 227 Q608 119 525.5 51.5 Q443 -16 311 -16 Q195 -16 121 30 Q32 86 32 202 Q32 294 87 350.5 Q142 407 253 429 Q138 480 138 588 Q138 681 214.5 740 Q291 799 413 799 Q496 799 561 767 Q654 722 654 616 Q654 517 574 457 Q542 433 471 412 Z M413 763 Q304 763 240.5 716.5 Q177 670 177 591 Q177 519 234.5 478 Q292 437 391 437 Q462 437 516 462 Q616 508 616 611 Q616 681 561 722 Q506 763 413 763 Z M332 402 Q237 402 169 367 Q71 317 71 203 Q71 117 136.5 68.5 Q202 20 319 20 Q408 20 474 59 Q569 116 569 225 Q569 302 512 348 Q445 402 332 402 Z " />
<glyph glyph-name="nineinferior" unicode="&#x2089;" horiz-adv-x="750" d="M49 202 L89 202 Q88 130 119 88 Q168 20 280 20 Q402 20 474.5 104 Q547 188 596 385 Q508 253 353 253 Q237 253 166.5 320 Q96 387 96 497 Q96 622 177 712 Q257 800 391 800 Q512 800 580.5 729.5 Q649 659 649 535 Q649 452 627 355.5 Q605 259 569 186 Q518 81 452 35 Q380 -16 276 -16 Q47 -16 49 202 Z M389 764 Q261 764 193 673 Q135 596 135 499 Q135 405 196.5 347.5 Q258 290 358 290 Q479 290 550 380 Q610 456 610 547 Q610 627 568 684 Q508 764 389 764 Z " />
<glyph glyph-name="franc" unicode="&#x20a3;" horiz-adv-x="1174" d="M1027 1304 L1019 1267 L376 1267 L248 668 L816 668 L809 631 L240 631 L106 0 L68 0 L345 1304 L1027 1304 Z M857 668 L892 668 L841 430 Q915 563 995 617 Q1075 671 1198 671 L1190 634 Q1106 632 1057.5 614 Q1009 596 959 548 Q891 484 853.5 398 Q816 312 779 137 L750 0 L715 0 L857 668 Z " />
<glyph glyph-name="lira" unicode="&#x20a4;" horiz-adv-x="1174" d="M417 495 L190 495 L198 532 L414 532 Q405 593 354 740 L242 740 L250 777 L341 777 Q315 862 315 941 Q315 1122 444 1231 Q562 1331 754 1331 Q955 1331 1060.5 1233 Q1166 1135 1166 949 Q1166 937 1165 914 L1128 914 Q1129 935 1129 942 Q1129 1109 1046 1194 Q945 1297 756 1297 Q545 1297 434 1169 Q353 1076 353 946 Q353 874 382 777 L764 777 L756 740 L394 740 Q406 705 416 677 Q443 603 452 532 L712 532 L704 495 L455 495 Q456 475 456 467 Q456 361 401 268 Q346 175 210 53 Q299 86 361 86 Q414 86 446.5 78.5 Q479 71 615 28 Q686 5 751 5 Q914 5 1027 163 L1056 141 Q931 -31 745 -31 Q698 -31 666.5 -23.5 Q635 -16 494 28 Q424 50 353 50 Q230 50 132 -28 L107 3 Q261 137 318 212 Q418 343 418 475 Q418 480 417 495 Z " />
<glyph glyph-name="peseta" unicode="&#x20a7;" horiz-adv-x="1774" d="M345 1304 L638 1304 Q766 1304 834 1292 Q902 1280 950 1250 Q1083 1165 1083 981 Q1083 811 976 697 Q906 623 812 595.5 Q718 568 531 568 L227 568 L106 0 L68 0 L345 1304 Z M376 1267 L235 605 L528 605 Q671 605 749 619.5 Q827 634 884 670 Q955 716 997.5 801.5 Q1040 887 1040 984 Q1040 1155 909 1226 Q832 1267 634 1267 L376 1267 Z M1195 568 L1187 533 L1060 533 L977 146 Q967 97 967 77 Q967 32 1035 32 Q1063 32 1101 41 L1093 3 Q1057 -2 1027 -2 Q929 -2 929 70 Q929 92 940 146 L1023 533 L914 533 L921 568 L1030 568 L1068 745 L1105 745 L1067 568 L1195 568 Z M1689 393 L1650 393 Q1653 411 1653 424 Q1653 549 1485 549 Q1411 549 1369 518.5 Q1327 488 1327 435 Q1327 390 1354.5 367.5 Q1382 345 1475 312 Q1573 278 1607 248 Q1649 211 1649 152 Q1649 77 1587.5 30.5 Q1526 -16 1425 -16 Q1322 -16 1270 25 Q1211 73 1211 158 Q1211 176 1215 204 L1252 204 Q1249 179 1249 161 Q1249 92 1296 55.5 Q1343 19 1430 19 Q1511 19 1561 54.5 Q1611 90 1611 148 Q1611 193 1580.5 219.5 Q1550 246 1462 276 Q1369 308 1337 330 Q1287 366 1287 430 Q1287 500 1342.5 542 Q1398 584 1491 584 Q1586 584 1638.5 544 Q1691 504 1691 432 Q1691 419 1689 393 Z " />
<glyph glyph-name="Euro" unicode="&#x20ac;" horiz-adv-x="1205" d="M213 747 Q197 669 191 596 L825 596 L795 559 L189 559 Q188 539 188 513 Q188 305 299 168 Q433 3 672 3 Q788 3 878 36 Q968 69 1071 149 L1060 91 Q886 -32 671 -32 Q432 -32 289.5 119 Q147 270 147 524 Q147 542 148 559 L0 559 L30 596 L150 596 Q157 683 172 747 L40 747 L70 784 L180 784 Q251 1071 438 1234 Q625 1397 884 1397 Q1179 1397 1315 1200 L1289 1168 Q1154 1362 884 1362 Q640 1362 466.5 1210.5 Q293 1059 222 784 L976 784 L946 747 L213 747 Z " />
<glyph glyph-name="uni2101" unicode="&#x2101;" horiz-adv-x="1898" d="M624 1365 L790 546 L748 546 L695 812 L282 812 L113 546 L68 546 L590 1365 L624 1365 Z M596 1311 Q562 1256 557 1248 L305 849 L687 849 L611 1233 Q603 1270 596 1311 Z M1532 1403 L526 -38 L480 -38 L1485 1403 L1532 1403 Z M1780 578 L1741 578 Q1741 591 1741 602 Q1741 798 1489 798 Q1386 798 1319 761 Q1281 740 1258 700.5 Q1235 661 1235 616 Q1235 525 1323 482 Q1354 466 1522 417 Q1619 388 1659 347 Q1708 298 1708 221 Q1708 111 1623.5 48 Q1539 -15 1393 -15 Q1244 -15 1162.5 53 Q1081 121 1081 244 Q1081 259 1082 286 L1120 286 Q1120 267 1120 256 Q1120 135 1198 75 Q1270 21 1397 21 Q1530 21 1596 72 Q1668 128 1668 217 Q1668 302 1596 345 Q1570 360 1418 406 Q1297 442 1255 477 Q1195 527 1195 612 Q1195 713 1274 773.5 Q1353 834 1485 834 Q1781 834 1781 612 Q1781 601 1780 578 Z " />
<glyph glyph-name="afii61248" unicode="&#x2105;" horiz-adv-x="1497" d="M1244 1403 L238 -38 L192 -38 L1197 1403 L1244 1403 Z M634 867 Q595 754 513 691.5 Q431 629 320 629 Q192 629 127 711 Q68 786 68 910 Q68 1102 172.5 1228 Q277 1354 436 1354 Q547 1354 609.5 1294.5 Q672 1235 673 1130 L647 1130 Q648 1222 591 1275.5 Q534 1329 435 1329 Q267 1329 173 1183 Q96 1063 96 913 Q96 794 153 724 Q211 653 326 653 Q521 653 606 867 L634 867 Z M1129 731 Q1249 731 1320 653 Q1383 584 1383 464 Q1383 366 1350.5 270 Q1318 174 1264 114 Q1168 5 1028 5 Q899 5 831 79 Q763 152 763 286 Q763 379 794 469 Q825 559 877 619 Q975 731 1129 731 Z M1128 706 Q976 706 886 588 Q842 531 816.5 449.5 Q791 368 791 286 Q791 149 866 84 Q927 30 1027 30 Q1170 30 1260 150 Q1302 206 1329 295.5 Q1356 385 1356 470 Q1356 586 1286 650 Q1225 706 1128 706 Z " />
<glyph glyph-name="afii61289" unicode="&#x2113;" horiz-adv-x="1024" d="M528 555 Q499 413 476 269 Q453 125 453 87 Q453 34 499 34 Q563 34 620 161 Q634 192 652 192 Q668 192 668 177 Q668 156 641 105 Q573 -27 475 -27 Q421 -27 390 11 Q359 49 359 116 Q359 183 395 416 L401 456 Q289 352 266 352 Q261 352 255.5 357.5 Q250 363 250 367 Q250 374 303 419 Q358 465 415 525 Q490 907 583 1156 Q623 1266 679 1329 Q735 1392 791 1392 Q836 1392 862 1354 Q888 1316 888 1252 Q888 1084 779 879 Q702 735 528 555 Z M543 632 Q714 817 784 984 Q847 1133 847 1256 Q847 1301 830.5 1328 Q814 1355 787 1355 Q745 1355 712 1304 Q679 1253 647 1138 Q605 990 543 632 Z " />
<glyph glyph-name="afii61352" unicode="&#x2116;" horiz-adv-x="1925" d="M1387 1365 L1097 0 L1058 0 L510 1075 Q444 1205 388 1326 Q378 1283 343 1113 L324 1024 L106 0 L68 0 L358 1365 L408 1365 L935 323 Q1041 113 1072 43 Q1107 229 1147 417 L1349 1365 L1387 1365 Z M1681 889 Q1776 889 1833 827 Q1883 772 1883 675 Q1883 598 1857 522 Q1831 446 1788 397 Q1712 310 1600 310 Q1497 310 1443 369 Q1389 428 1389 534 Q1389 689 1471.5 789 Q1554 889 1681 889 Z M1677 853 Q1563 853 1495 764 Q1424 672 1424 538 Q1424 435 1480 386 Q1527 346 1602 346 Q1709 346 1777 436 Q1808 478 1828.5 545.5 Q1849 613 1849 676 Q1849 763 1796 811 Q1751 853 1677 853 Z M1800 218 L1792 181 L1306 181 L1314 218 L1800 218 Z " />
<glyph glyph-name="uni2120" unicode="&#x2120;" horiz-adv-x="1798" d="M831 1149 L790 1149 Q790 1226 764 1266 Q711 1349 558 1349 Q452 1349 388.5 1302 Q325 1255 325 1176 Q325 1094 394 1054 Q438 1028 573 989 Q671 961 711 925 Q767 876 767 794 Q767 689 685.5 626 Q604 563 468 563 Q328 563 252.5 628.5 Q177 694 177 816 Q177 827 177 839 L219 839 Q218 730 259 680 Q325 599 471 599 Q586 599 655.5 652 Q725 705 725 793 Q725 854 688.5 889 Q652 924 562 950 Q398 997 351 1032 Q283 1083 283 1174 Q283 1271 357.5 1328.5 Q432 1386 557 1386 Q745 1386 807 1277 Q830 1235 831 1149 Z M1835 1365 L1669 587 L1631 587 L1779 1285 L1270 587 L1232 587 L1018 1286 L869 587 L831 587 L996 1365 L1041 1365 L1260 637 L1790 1365 L1835 1365 Z " />
<glyph glyph-name="trademark" unicode="&#x2122;" horiz-adv-x="1709" d="M827 1365 L819 1328 L538 1328 L381 587 L342 587 L500 1328 L207 1328 L215 1365 L827 1365 Z M1746 1365 L1581 587 L1543 587 L1691 1285 L1182 587 L1144 587 L929 1286 L781 587 L743 587 L908 1365 L952 1365 L1172 637 L1701 1365 L1746 1365 Z " />
<glyph glyph-name="Omega" unicode="&#x2126;" horiz-adv-x="1365" d="M100 0 L100 37 L549 37 Q374 134 256 284 Q100 483 100 733 Q100 966 227 1142 Q333 1290 496 1355 Q604 1398 725 1398 Q924 1398 1080 1286 Q1219 1186 1291 1025 Q1350 891 1350 733 Q1350 463 1166 250 Q1055 122 901 37 L1350 37 L1350 0 L832 0 L832 37 Q1003 134 1096 229 Q1311 448 1311 736 Q1311 944 1197 1111 Q1101 1252 954 1316 Q850 1361 727 1361 Q530 1361 382 1248 Q258 1154 193 1001 Q139 876 139 736 Q139 546 238 380 Q301 274 385 198 Q469 122 618 37 L618 0 L100 0 Z " />
<glyph glyph-name="estimated" unicode="&#x212e;" horiz-adv-x="1148" d="M300 495 L300 149 Q418 36 578 36 Q699 36 783.5 89 Q868 142 946 266 L1013 226 Q923 85 824 26 Q725 -33 580 -33 Q357 -33 218 121 Q84 269 84 495 Q84 725 218 871 Q359 1024 578 1024 Q796 1024 933.5 877.5 Q1071 731 1072 495 L300 495 Z M856 564 L856 842 Q730 957 575 957 Q422 957 300 842 L300 564 L856 564 Z " />
<glyph glyph-name="onethird" unicode="&#x2153;" horiz-adv-x="1784" d="M629 1329 L463 546 L425 546 L579 1272 Q457 1166 334 1142 L343 1182 Q467 1209 590 1329 L629 1329 Z M1379 1329 L525 0 L483 0 L1337 1329 L1379 1329 Z M1131 276 Q1124 239 1124 212 Q1124 125 1185 72.5 Q1246 20 1345 20 Q1433 20 1500 59 Q1546 85 1573.5 133.5 Q1601 182 1601 236 Q1601 345 1490 382 Q1451 395 1345 395 L1353 433 Q1387 431 1413 431 Q1524 431 1587 470 Q1658 514 1658 600 Q1658 665 1615 707 Q1556 763 1453 763 Q1356 763 1293 705.5 Q1230 648 1219 549 L1179 549 Q1196 668 1269.5 734 Q1343 800 1458 800 Q1564 800 1630.5 745.5 Q1697 691 1697 604 Q1697 452 1520 408 Q1640 359 1640 239 Q1640 130 1557 54 Q1480 -16 1340 -16 Q1222 -16 1153.5 45.5 Q1085 107 1085 213 Q1085 242 1091 276 L1131 276 Z " />
<glyph glyph-name="twothirds" unicode="&#x2154;" horiz-adv-x="1784" d="M688 583 L680 546 L136 546 Q146 650 215 717.5 Q284 785 491 890 Q620 957 674 1003 Q742 1063 742 1144 Q742 1219 687.5 1264 Q633 1309 541 1309 Q435 1309 373.5 1246.5 Q312 1184 304 1070 L265 1070 Q275 1201 348.5 1273 Q422 1345 545 1345 Q631 1345 692 1309 Q733 1285 757 1241 Q781 1197 781 1146 Q781 1061 723.5 1000.5 Q666 940 509 859 Q326 764 273 721 Q232 687 213.5 659 Q195 631 181 583 L190 583 L237 583 L688 583 Z M1379 1329 L525 0 L483 0 L1336 1329 L1379 1329 Z M1130 276 Q1123 240 1123 212 Q1123 125 1184 72.5 Q1245 20 1344 20 Q1432 20 1499 59 Q1545 85 1572.5 133.5 Q1600 182 1600 236 Q1600 345 1489 382 Q1450 395 1344 395 L1353 433 Q1386 431 1413 431 Q1524 431 1586 470 Q1658 514 1658 600 Q1658 665 1614 707 Q1556 763 1452 763 Q1356 763 1293 705.5 Q1230 648 1218 549 L1179 549 Q1196 668 1269 734 Q1342 800 1458 800 Q1564 800 1630.5 745.5 Q1697 691 1697 604 Q1697 452 1519 408 Q1639 359 1639 239 Q1639 131 1556 54 Q1479 -16 1339 -16 Q1221 -16 1152.5 45.5 Q1084 107 1084 213 Q1084 241 1091 276 L1130 276 Z " />
<glyph glyph-name="uni2155" unicode="&#x2155;" horiz-adv-x="1784" d="M629 1329 L463 546 L425 546 L579 1272 Q457 1166 334 1142 L343 1182 Q467 1209 590 1329 L629 1329 Z M1379 1329 L525 0 L483 0 L1337 1329 L1379 1329 Z M1720 783 L1708 746 L1314 746 L1203 457 Q1250 498 1296 514.5 Q1342 531 1405 531 Q1518 531 1585 469.5 Q1652 408 1652 304 Q1652 193 1587 102 Q1503 -16 1344 -16 Q1231 -16 1165 41 Q1099 98 1099 196 Q1099 221 1103 254 L1141 254 Q1136 222 1136 201 Q1136 136 1172 90 Q1228 19 1349 19 Q1487 19 1561 128 Q1613 205 1613 303 Q1613 391 1555 444 Q1497 497 1400 497 Q1333 497 1283 472 Q1233 447 1185 390 L1141 390 L1289 783 L1720 783 Z " />
<glyph glyph-name="uni2156" unicode="&#x2156;" horiz-adv-x="1784" d="M688 583 L680 546 L136 546 Q146 650 215 717.5 Q284 785 491 890 Q620 957 674 1003 Q742 1063 742 1144 Q742 1219 687.5 1264 Q633 1309 541 1309 Q435 1309 373.5 1246.5 Q312 1184 304 1070 L265 1070 Q275 1201 348.5 1273 Q422 1345 545 1345 Q631 1345 692 1309 Q733 1285 757 1241 Q781 1197 781 1146 Q781 1061 723.5 1000.5 Q666 940 509 859 Q326 764 273 721 Q232 687 213.5 659 Q195 631 181 583 L190 583 L237 583 L688 583 Z M1379 1329 L525 0 L483 0 L1336 1329 L1379 1329 Z M1719 783 L1707 746 L1314 746 L1202 457 Q1250 498 1295.5 514.5 Q1341 531 1404 531 Q1517 531 1584 469.5 Q1651 408 1651 304 Q1651 193 1586 102 Q1502 -16 1343 -16 Q1230 -16 1164 41 Q1098 98 1098 196 Q1098 220 1102 254 L1141 254 Q1135 222 1135 201 Q1135 136 1171 90 Q1227 19 1348 19 Q1486 19 1560 128 Q1612 205 1612 303 Q1612 391 1554 444 Q1496 497 1399 497 Q1332 497 1282 472 Q1232 447 1185 390 L1140 390 L1288 783 L1719 783 Z " />
<glyph glyph-name="uni2157" unicode="&#x2157;" horiz-adv-x="1784" d="M213 822 Q206 786 206 758 Q206 671 266.5 618.5 Q327 566 427 566 Q515 566 582 605 Q628 631 655.5 679.5 Q683 728 683 782 Q683 891 572 928 Q533 941 428 941 L436 979 Q472 977 496 977 Q607 977 669 1016 Q741 1060 741 1146 Q741 1211 697 1253 Q639 1309 536 1309 Q439 1309 376 1251.5 Q313 1194 301 1095 L262 1095 Q279 1214 352 1280 Q425 1346 541 1346 Q647 1346 713.5 1291.5 Q780 1237 780 1150 Q780 998 602 954 Q722 905 722 785 Q722 676 639 600 Q562 530 422 530 Q304 530 235.5 591.5 Q167 653 167 759 Q167 787 174 822 L213 822 Z M1379 1329 L525 0 L483 0 L1337 1329 L1379 1329 Z M1720 783 L1708 746 L1314 746 L1203 457 Q1250 498 1296 514.5 Q1342 531 1405 531 Q1518 531 1585 469.5 Q1652 408 1652 304 Q1652 193 1587 102 Q1503 -16 1344 -16 Q1231 -16 1165 41 Q1099 98 1099 196 Q1099 221 1103 254 L1141 254 Q1136 222 1136 201 Q1136 136 1172 90 Q1228 19 1349 19 Q1487 19 1561 128 Q1613 205 1613 303 Q1613 392 1555 444.5 Q1497 497 1400 497 Q1333 497 1283 472 Q1233 447 1185 390 L1141 390 L1289 783 L1720 783 Z " />
<glyph glyph-name="uni2158" unicode="&#x2158;" horiz-adv-x="1784" d="M739 783 L731 746 L588 746 L545 546 L507 546 L549 746 L149 746 L157 783 L670 1329 L712 1329 L595 783 L739 783 Z M557 783 L643 1187 Q655 1243 661 1272 L595 1200 L204 783 L557 783 Z M1379 1329 L525 0 L483 0 L1337 1329 L1379 1329 Z M1720 783 L1708 746 L1314 746 L1203 457 Q1250 498 1296 514.5 Q1342 531 1405 531 Q1518 531 1585 469.5 Q1652 408 1652 304 Q1652 193 1587 102 Q1503 -16 1344 -16 Q1231 -16 1165 41 Q1099 98 1099 196 Q1099 221 1103 254 L1141 254 Q1136 222 1136 201 Q1136 136 1172 90 Q1228 19 1349 19 Q1487 19 1561 128 Q1613 205 1613 303 Q1613 391 1555 444 Q1497 497 1400 497 Q1333 497 1283 472 Q1233 447 1185 390 L1141 390 L1289 783 L1720 783 Z " />
<glyph glyph-name="uni2159" unicode="&#x2159;" horiz-adv-x="1784" d="M629 1329 L463 546 L425 546 L579 1272 Q457 1166 334 1142 L343 1182 Q467 1209 590 1329 L629 1329 Z M1379 1329 L525 0 L483 0 L1337 1329 L1379 1329 Z M1700 580 L1661 580 Q1659 763 1468 763 Q1346 763 1275.5 681.5 Q1205 600 1155 400 Q1240 528 1394 528 Q1510 528 1581.5 462.5 Q1653 397 1653 290 Q1653 159 1571 71 Q1489 -17 1359 -17 Q1238 -17 1169.5 54 Q1101 125 1101 250 Q1101 330 1123 427 Q1145 524 1180 598 Q1276 799 1471 799 Q1583 799 1642 742.5 Q1701 686 1700 580 Z M1392 492 Q1270 492 1199 405 Q1139 332 1139 240 Q1139 159 1182 100 Q1242 18 1362 18 Q1487 18 1556 108 Q1615 185 1615 287 Q1615 378 1553 435 Q1491 492 1392 492 Z " />
<glyph glyph-name="uni215A" unicode="&#x215a;" horiz-adv-x="1784" d="M802 1329 L790 1292 L396 1292 L285 1003 Q333 1044 378.5 1060.5 Q424 1077 487 1077 Q600 1077 667 1015.5 Q734 954 734 850 Q734 739 669 647 Q585 529 426 529 Q313 529 247 586 Q181 643 181 742 Q181 767 185 800 L223 800 Q218 769 218 747 Q218 681 254 635 Q310 564 431 564 Q569 564 643 673 Q695 751 695 849 Q695 937 637 990 Q579 1043 482 1043 Q415 1043 365 1018 Q315 993 267 936 L223 936 L371 1329 L802 1329 Z M1379 1329 L525 0 L483 0 L1337 1329 L1379 1329 Z M1700 580 L1660 580 Q1659 763 1468 763 Q1346 763 1275.5 681.5 Q1205 600 1155 400 Q1240 528 1394 528 Q1510 528 1581.5 462.5 Q1653 397 1653 290 Q1653 159 1571 71 Q1490 -17 1359 -17 Q1238 -17 1169.5 54 Q1101 125 1101 250 Q1101 330 1123 427 Q1145 524 1180 598 Q1276 799 1471 799 Q1583 799 1642 742.5 Q1701 686 1700 580 Z M1392 492 Q1269 492 1199 405 Q1139 332 1139 240 Q1139 159 1182 100 Q1242 18 1362 18 Q1487 18 1556 108 Q1615 185 1615 287 Q1615 378 1553 435 Q1491 492 1392 492 Z " />
<glyph glyph-name="oneeighth" unicode="&#x215b;" horiz-adv-x="1784" d="M629 1329 L463 546 L425 546 L579 1272 Q457 1166 334 1142 L343 1182 Q467 1209 590 1329 L629 1329 Z M1379 1329 L525 0 L483 0 L1337 1329 L1379 1329 Z M1505 412 Q1577 383 1605 343 Q1642 291 1642 227 Q1642 119 1559.5 51.5 Q1477 -16 1345 -16 Q1229 -16 1155 30 Q1066 86 1066 202 Q1066 294 1121 350.5 Q1176 407 1287 429 Q1172 481 1172 588 Q1172 681 1248.5 740 Q1325 799 1446 799 Q1531 799 1595 767 Q1688 721 1688 616 Q1688 517 1608 457 Q1576 433 1505 412 Z M1447 763 Q1338 763 1274.5 716.5 Q1211 670 1211 591 Q1211 519 1268.5 478 Q1326 437 1425 437 Q1496 437 1550 462 Q1650 508 1650 611 Q1650 680 1595 721.5 Q1540 763 1447 763 Z M1366 402 Q1271 402 1202 367 Q1105 317 1105 203 Q1105 117 1170.5 68.5 Q1236 20 1353 20 Q1442 20 1508 59 Q1603 116 1603 225 Q1603 302 1546 348 Q1479 402 1366 402 Z " />
<glyph glyph-name="threeeighths" unicode="&#x215c;" horiz-adv-x="1784" d="M213 822 Q206 786 206 758 Q206 671 266.5 618.5 Q327 566 427 566 Q515 566 582 605 Q628 631 655.5 679.5 Q683 728 683 782 Q683 891 572 928 Q533 941 428 941 L436 979 Q472 977 496 977 Q607 977 669 1016 Q741 1060 741 1146 Q741 1211 697 1253 Q639 1309 536 1309 Q439 1309 376 1251.5 Q313 1194 301 1095 L262 1095 Q279 1214 352 1280 Q425 1346 541 1346 Q647 1346 713.5 1291.5 Q780 1237 780 1150 Q780 998 602 954 Q722 905 722 785 Q722 676 639 600 Q562 530 422 530 Q304 530 235.5 591.5 Q167 653 167 759 Q167 787 174 822 L213 822 Z M1379 1329 L525 0 L483 0 L1337 1329 L1379 1329 Z M1505 412 Q1577 383 1605 343 Q1642 291 1642 227 Q1642 119 1559.5 51.5 Q1477 -16 1345 -16 Q1229 -16 1155 30 Q1066 86 1066 202 Q1066 294 1121 350.5 Q1176 407 1287 429 Q1172 481 1172 588 Q1172 681 1248.5 740 Q1325 799 1447 799 Q1531 799 1595 767 Q1688 722 1688 616 Q1688 517 1608 457 Q1576 433 1505 412 Z M1447 763 Q1322 763 1263 707 Q1211 658 1211 591 Q1211 519 1268.5 478 Q1326 437 1425 437 Q1496 437 1550 462 Q1650 508 1650 611 Q1650 680 1595 721.5 Q1540 763 1447 763 Z M1366 402 Q1271 402 1202 367 Q1105 317 1105 203 Q1105 117 1170.5 68.5 Q1236 20 1353 20 Q1442 20 1508 59 Q1603 116 1603 225 Q1603 302 1546 348 Q1479 402 1366 402 Z " />
</font>
</svg>
