<?xml version="1.0" encoding="UTF-8"?>
<svg xmlns="http://www.w3.org/2000/svg" xmlns:xlink="http://www.w3.org/1999/xlink" version="1.2" >
<font id="UHCSans-UltraLight">
<font-face  font-family="UHC Sans" units-per-em="2048" ascent="1707" descent="-341" font-style="normal" font-weight="200" font-stretch="normal" cap-height="1365" x-height="979" underline-position="-192" underline-thickness="42" />
<missing-glyph  horiz-adv-x="512" d="M51 0 L51 1365 L461 1365 L461 0 L51 0 Z M410 51 L410 1314 L102 1314 L102 51 L410 51 Z " />
<glyph glyph-name="space" unicode="&#x20;" horiz-adv-x="512" d="" />
<glyph glyph-name="exclam" unicode="&#x21;" horiz-adv-x="463" d="M271 1365 L271 348 L232 348 L232 1365 L271 1365 Z M254 95 Q272 95 284.5 80.5 Q297 66 297 45 Q297 25 284.5 10.5 Q272 -4 253 -4 Q235 -4 222 10.5 Q209 25 209 46 Q209 66 222 80.5 Q235 95 254 95 Z " />
<glyph glyph-name="quotedbl" unicode="&#x22;" horiz-adv-x="512" d="M169 815 L139 815 L133 1365 L174 1365 L169 815 Z M373 815 L343 815 L338 1365 L379 1365 L373 815 Z " />
<glyph glyph-name="numbersign" unicode="&#x23;" horiz-adv-x="1174" d="M82 477 L294 477 L380 907 L171 907 L171 945 L387 945 L470 1363 L513 1363 L427 945 L867 945 L952 1363 L993 1363 L907 945 L1109 945 L1109 907 L899 907 L814 477 L1022 477 L1022 439 L806 439 L719 0 L679 0 L766 439 L327 439 L240 0 L199 0 L286 439 L82 439 L82 477 Z M334 477 L774 477 L860 907 L419 907 L334 477 Z " />
<glyph glyph-name="dollar" unicode="&#x24;" horiz-adv-x="1103" d="M533 25 L533 683 Q514 688 478 696 Q364 723 301 753 Q238 783 198 829 Q133 905 133 1027 Q133 1192 240 1287 Q347 1382 533 1382 L533 1537 L572 1537 L572 1380 Q740 1370 844 1278 Q948 1186 961 1035 L916 1035 Q906 1170 816 1250.5 Q726 1331 572 1343 L572 715 Q765 670 838 630 Q1002 542 1002 352 Q1002 183 885.5 84 Q769 -15 572 -14 L572 -188 L533 -188 L533 -13 Q393 -5 294 45 Q199 93 157 166 Q115 239 101 380 L145 380 Q159 236 205 170 Q292 45 533 25 Z M572 23 Q666 23 748.5 53.5 Q831 84 882 137 Q962 220 962 347 Q962 460 899 533 Q859 579 793 607.5 Q727 636 572 674 L572 23 Z M533 1344 Q420 1344 336 1306 Q260 1270 216 1194.5 Q172 1119 172 1024 Q172 852 337 782 Q390 759 533 724 L533 1344 Z " />
<glyph glyph-name="percent" unicode="&#x25;" horiz-adv-x="1468" d="M1199 1385 L302 -56 L258 -55 L1155 1384 L1199 1385 Z M1084 626 Q1218 626 1296.5 540 Q1375 454 1375 308 Q1375 157 1298 70 Q1218 -20 1083 -20 Q944 -20 866 65.5 Q788 151 788 303 Q788 454 866 539 Q946 626 1084 626 Z M1085 590 Q958 590 891 515.5 Q824 441 824 300 Q824 164 890 91 Q960 14 1082 14 Q1215 14 1283 107 Q1340 185 1340 309 Q1340 424 1286 498 Q1218 590 1085 590 Z M392 1351 Q539 1351 622 1242 Q682 1163 682 1028 Q682 881 600.5 792 Q519 703 386 703 Q249 703 171 790 Q93 877 93 1029 Q93 1173 167 1258 Q248 1351 392 1351 Z M391 1314 Q267 1314 198 1238 Q129 1162 129 1025 Q129 893 194 816 Q260 740 385 740 Q527 740 595 843 Q646 922 646 1029 Q646 1162 578 1238 Q510 1314 391 1314 Z " />
<glyph glyph-name="ampersand" unicode="&#x26;" horiz-adv-x="1149" d="M963 526 Q961 392 902 255 L1108 0 L1061 0 L886 220 Q839 147 797 103 Q673 -26 489 -26 Q335 -26 231 49 Q96 147 96 313 Q96 464 236 586 Q289 631 452 737 L467 747 L456 761 Q347 900 326 929 Q265 1012 265 1098 Q265 1208 344 1277.5 Q423 1347 548 1347 Q654 1347 727 1288 Q818 1214 818 1102 Q818 996 728 900 Q684 853 537 750 L519 737 L877 287 Q883 302 886 309 Q921 402 928 526 L963 526 Z M497 766 Q633 842 707.5 929 Q782 1016 782 1100 Q782 1193 715 1253 Q648 1313 546 1313 Q423 1313 354 1239 Q299 1179 299 1096 Q299 1046 318 1006.5 Q337 967 400 888 Q414 870 438 838 Q472 794 497 766 Z M488 717 Q389 660 296 588 Q132 462 132 312 Q132 158 259 71 Q356 5 488 5 Q605 5 706 71 Q807 137 862 250 L488 717 Z " />
<glyph glyph-name="quotesingle" unicode="&#x27;" horiz-adv-x="307" d="M169 815 L139 815 L133 1365 L174 1365 L169 815 Z " />
<glyph glyph-name="parenleft" unicode="&#x28;" horiz-adv-x="496" d="M360 1365 Q255 1184 195 956.5 Q135 729 135 507 Q135 297 193 78 Q251 -141 360 -341 L319 -341 Q96 77 96 519 Q96 728 154.5 950.5 Q213 1173 319 1365 L360 1365 Z " />
<glyph glyph-name="parenright" unicode="&#x29;" horiz-adv-x="496" d="M137 -341 Q243 -160 302.5 68 Q362 296 362 517 Q362 727 304 946.5 Q246 1166 137 1365 L178 1365 Q401 948 401 506 Q401 297 342.5 73.5 Q284 -150 178 -341 L137 -341 Z " />
<glyph glyph-name="asterisk" unicode="&#x2a;" horiz-adv-x="1174" d="M864 1149 L612 1067 L770 855 L743 833 L587 1044 L422 838 L395 861 L561 1067 L310 1149 L321 1182 L569 1101 L569 1365 L603 1365 L603 1101 L854 1182 L864 1149 Z " />
<glyph glyph-name="plus" unicode="&#x2b;" horiz-adv-x="1174" d="M129 671 L564 671 L564 1113 L603 1113 L603 671 L1045 671 L1045 632 L603 632 L603 192 L564 192 L564 632 L129 632 L129 671 Z " />
<glyph glyph-name="comma" unicode="&#x2c;" horiz-adv-x="367" d="M130 -221 L130 -179 Q173 -137 178 -3 L169 -5 L166 -5 Q146 -5 133 9 Q120 23 120 43 Q120 64 133.5 80 Q147 96 165 96 Q216 96 216 10 Q216 -190 130 -221 Z " />
<glyph glyph-name="hyphen" unicode="&#x2d;" horiz-adv-x="423" d="M423 521 L423 484 L0 484 L0 521 L423 521 Z " />
<glyph glyph-name="period" unicode="&#x2e;" horiz-adv-x="367" d="M186 95 Q204 95 216.5 80.5 Q229 66 229 45 Q229 25 216.5 10.5 Q204 -4 185 -4 Q167 -4 154 10.5 Q141 25 141 46 Q141 66 154 80.5 Q167 95 186 95 Z " />
<glyph glyph-name="slash" unicode="&#x2f;" horiz-adv-x="832" d="M750 1365 L-35 -341 L-75 -341 L710 1365 L750 1365 Z " />
<glyph glyph-name="zero" unicode="0" horiz-adv-x="1174" d="M593 1398 Q707 1398 806 1338 Q905 1278 971 1170 Q1080 991 1080 688 Q1080 398 976 212 Q907 87 790 23 Q694 -30 580 -30 Q418 -30 300 71 Q94 245 94 660 Q94 986 214 1177 Q281 1283 379.5 1340.5 Q478 1398 593 1398 Z M596 1362 Q372 1362 242 1147 Q133 966 133 657 Q133 401 222 228 Q283 109 391 53 Q481 6 582 6 Q741 6 856 119 Q1041 301 1041 687 Q1041 960 949 1129 Q884 1246 784 1309 Q699 1362 596 1362 Z " />
<glyph glyph-name="one" unicode="1" horiz-adv-x="1174" d="M675 1394 L675 0 L636 0 L636 1350 Q493 1154 281 1093 L281 1134 Q401 1171 498 1255 Q531 1283 631 1394 L675 1394 Z " />
<glyph glyph-name="two" unicode="2" horiz-adv-x="1174" d="M1042 38 L1042 0 L161 0 Q172 90 199.5 151.5 Q227 213 283 273 Q347 342 615 539 Q807 681 887 793 Q967 905 967 1032 Q967 1198 855 1286 Q761 1360 609 1360 Q382 1360 285 1196 Q227 1097 225 917 L186 917 Q189 1042 211 1120 Q233 1198 282 1258 Q334 1324 421.5 1361 Q509 1398 611 1398 Q788 1398 894 1302 Q1006 1201 1006 1032 Q1006 858 869 709 Q781 614 519 419 Q343 288 281.5 213 Q220 138 206 37 L268 38 L1042 38 Z " />
<glyph glyph-name="three" unicode="3" horiz-adv-x="1174" d="M166 941 Q173 1127 247 1231 Q365 1398 609 1398 Q801 1398 911 1297 Q1019 1198 1019 1049 Q1019 915 941.5 833 Q864 751 720 733 Q840 714 906 668 Q971 624 1007 548.5 Q1043 473 1043 382 Q1043 194 905 73 Q788 -30 593 -30 Q352 -30 226 123 Q130 239 130 418 Q130 433 131 464 L167 464 Q166 433 166 421 Q166 237 268 129 Q384 6 594 6 Q785 6 899 119 Q1004 224 1004 377 Q1004 558 875 647 Q773 718 561 718 Q556 718 537 717 L537 754 L554 754 L587 754 Q745 754 828 797 Q980 875 980 1049 Q980 1194 880 1278 Q780 1362 609 1362 Q415 1362 310 1254 Q205 1146 200 941 L166 941 Z " />
<glyph glyph-name="four" unicode="4" horiz-adv-x="1174" d="M1046 399 L1046 363 L812 363 L812 0 L773 0 L773 363 L115 363 L115 409 L761 1394 L812 1394 L812 399 L1046 399 Z M773 399 L773 1234 Q773 1290 774 1356 Q743 1304 709 1252 L213 493 L180 443 L151 399 L188 399 L236 399 L773 399 Z " />
<glyph glyph-name="five" unicode="5" horiz-adv-x="1174" d="M988 1365 L988 1329 L343 1329 L250 878 Q231 779 220 729 Q283 816 350 858 Q454 923 584 923 Q789 923 921 778 Q1042 645 1042 448 Q1042 259 929 125 Q799 -29 588 -29 Q395 -29 269 86 Q138 206 135 437 L170 437 Q176 298 214 220 Q263 117 367 61 Q468 7 588 7 Q785 7 903 151 Q1003 273 1003 448 Q1003 634 892 756 Q771 887 585 887 Q345 887 220 674 L176 674 L316 1365 L988 1365 Z " />
<glyph glyph-name="six" unicode="6" horiz-adv-x="1174" d="M1031 1035 L992 1035 Q967 1175 882 1256 Q773 1360 616 1360 Q173 1360 173 561 Q196 641 218.5 683.5 Q241 726 282 770 Q414 912 604 912 Q798 912 929 769 Q1054 633 1054 439 Q1054 253 929 112 Q804 -30 604 -30 Q444 -30 323 69 Q224 149 182 276 Q140 403 140 622 Q140 951 235 1150 Q354 1398 614 1398 Q725 1398 816.5 1350 Q908 1302 966 1214 Q1011 1146 1031 1035 Z M609 874 Q424 874 300 738 Q190 617 190 442 Q190 252 314 128 Q434 8 603 8 Q789 8 911 151 Q1015 273 1015 443 Q1015 613 911 731 Q785 874 609 874 Z " />
<glyph glyph-name="seven" unicode="7" horiz-adv-x="1174" d="M1044 1365 L1044 1318 Q764 1031 615 692 Q470 359 457 1 L418 1 Q424 364 588 728.5 Q752 1093 1014 1330 Q983 1329 928 1329 L205 1329 L205 1365 L1044 1365 Z " />
<glyph glyph-name="eight" unicode="8" horiz-adv-x="1174" d="M450 744 Q175 799 175 1058 Q175 1220 283 1309 Q391 1398 587 1398 Q793 1398 899 1307 Q1002 1218 1002 1058 Q1002 933 930.5 850.5 Q859 768 729 744 Q867 721 940 658 Q1056 558 1056 381 Q1056 190 933 80 Q810 -30 596 -30 Q359 -30 241 80 Q118 196 118 379 Q118 531 203.5 625 Q289 719 450 744 Z M585 1361 Q382 1361 289 1265 Q214 1186 214 1059 Q214 917 313 839 Q412 761 591 761 Q776 761 872 847 Q963 928 963 1058 Q963 1176 899 1252 Q807 1361 585 1361 Z M587 726 Q393 726 283 647 Q157 556 157 379 Q157 202 271 104.5 Q385 7 593 7 Q806 7 914 114 Q1017 216 1017 380 Q1017 548 906.5 637 Q796 726 587 726 Z " />
<glyph glyph-name="nine" unicode="9" horiz-adv-x="1174" d="M159 322 L196 322 Q218 206 290 125 Q397 6 569 6 Q681 6 771.5 61.5 Q862 117 915 220 Q987 358 1001 600 Q1003 630 1006 831 Q977 711 920 633 Q794 459 573 459 Q360 459 227 618 Q120 747 120 926 Q120 1140 266 1279 Q393 1398 568 1398 Q701 1398 810 1328 Q919 1258 975 1136 Q1040 992 1040 731 Q1040 423 975 262 Q911 103 796 32 Q695 -30 571 -30 Q409 -30 295.5 67 Q182 164 159 322 Z M573 1362 Q385 1362 265 1221 Q159 1098 159 925 Q159 758 262 638 Q384 495 572 495 Q761 495 880 636 Q929 694 957 773 Q985 852 985 930 Q985 1097 881 1217 Q754 1362 573 1362 Z " />
<glyph glyph-name="colon" unicode="&#x3a;" horiz-adv-x="401" d="M220 95 Q238 95 250.5 80.5 Q263 66 263 45 Q263 25 250.5 10.5 Q238 -4 219 -4 Q201 -4 188 10.5 Q175 25 175 46 Q175 66 188 80.5 Q201 95 220 95 Z M220 846 Q238 846 250.5 831.5 Q263 817 263 797 Q263 776 250.5 761.5 Q238 747 219 747 Q201 747 188 761.5 Q175 776 175 797 Q175 817 188 831.5 Q201 846 220 846 Z " />
<glyph glyph-name="semicolon" unicode="&#x3b;" horiz-adv-x="401" d="M164 -221 L164 -179 Q207 -137 212 -3 L203 -5 L200 -5 Q180 -5 167 9 Q154 23 154 43 Q154 64 167.5 80 Q181 96 199 96 Q250 96 250 10 Q250 -190 164 -221 Z M220 846 Q238 846 250.5 831.5 Q263 817 263 797 Q263 776 250.5 761.5 Q238 747 219 747 Q201 747 188 761.5 Q175 776 175 797 Q175 817 188 831.5 Q201 846 220 846 Z " />
<glyph glyph-name="less" unicode="&#x3c;" horiz-adv-x="1024" d="M955 1084 L955 1043 L114 683 L955 322 L955 281 L68 662 L68 704 L955 1084 Z " />
<glyph glyph-name="equal" unicode="&#x3d;" horiz-adv-x="1174" d="M129 808 L1045 808 L1045 769 L129 769 L129 808 Z M129 536 L1045 536 L1045 497 L129 497 L129 536 Z " />
<glyph glyph-name="greater" unicode="&#x3e;" horiz-adv-x="1024" d="M69 281 L69 322 L909 683 L69 1043 L69 1084 L955 704 L955 662 L69 281 Z " />
<glyph glyph-name="question" unicode="&#x3f;" horiz-adv-x="1006" d="M116 943 Q116 1104 175 1208 Q224 1296 317 1345.5 Q410 1395 526 1395 Q712 1395 817 1287 Q911 1190 911 1063 Q911 943 824 834 Q802 806 673 684 Q578 595 557.5 545.5 Q537 496 535 349 L496 349 Q496 466 506 513 Q519 570 548 609.5 Q577 649 662 725 Q778 828 825 904 Q872 980 872 1062 Q872 1191 774 1275 Q676 1359 526 1359 Q372 1359 274 1270 Q210 1212 183.5 1140.5 Q157 1069 154 943 L116 943 Z M515 95 Q533 95 545.5 80.5 Q558 66 558 45 Q558 25 545.5 10.5 Q533 -4 514 -4 Q496 -4 483 10.5 Q470 25 470 46 Q470 66 483 80.5 Q496 95 515 95 Z " />
<glyph glyph-name="at" unicode="&#x40;" horiz-adv-x="1809" d="M1249 -95 L1260 -130 Q1164 -170 1066 -182 Q988 -192 910 -192 Q558 -192 327 64 Q191 214 144 415 Q124 504 124 589 Q124 735 181 878 Q262 1083 441 1215 Q648 1369 904 1369 Q1052 1369 1192 1313 Q1397 1232 1529 1058 Q1685 851 1685 601 Q1685 410 1582 285 Q1479 160 1321 160 Q1252 160 1213 198 Q1174 236 1174 303 L1174 334 L1167 334 L1162 326 Q1136 287 1120 269 Q1013 148 818 148 Q679 148 613 213 Q538 286 538 386 Q538 436 562.5 482 Q587 528 628 554 Q679 586 754 605 Q829 624 961 637 Q1090 651 1130 680 Q1174 714 1174 798 Q1174 900 1105.5 953.5 Q1037 1007 906 1007 Q666 1007 633 806 L585 806 Q598 916 682 979 Q763 1041 915 1041 Q1066 1041 1139 977.5 Q1212 914 1212 782 L1212 296 Q1212 248 1239 221 Q1266 194 1314 194 Q1460 194 1554 309 Q1648 424 1648 601 Q1648 737 1592 872 Q1513 1064 1343 1188 Q1145 1332 904 1332 Q762 1332 628 1278 Q432 1199 307 1030 Q161 833 161 589 Q161 449 216 312 Q294 115 464 -11 Q659 -155 912 -155 Q1018 -155 1094 -141.5 Q1170 -128 1249 -95 Z M1168 675 Q1136 640 1104.5 631 Q1073 622 917 603 Q738 580 656.5 528.5 Q575 477 575 386 Q575 294 640.5 237.5 Q706 181 813 181 Q934 181 1018 228 Q1104 276 1146 363 Q1174 422 1174 486 L1174 675 L1168 675 Z " />
<glyph glyph-name="A" unicode="A" horiz-adv-x="1200" d="M625 1365 L1172 0 L1129 0 L949 451 L254 451 L71 0 L27 0 L587 1365 L625 1365 Z M935 487 L634 1240 Q622 1271 606 1323 Q600 1308 587 1275 L575 1246 L268 487 L935 487 Z " />
<glyph glyph-name="B" unicode="B" horiz-adv-x="1280" d="M171 1365 L717 1365 Q898 1365 1000 1298 Q1143 1204 1143 1028 Q1143 902 1061.5 813.5 Q980 725 850 710 Q965 692 1018 662 Q1096 619 1140.5 541 Q1185 463 1185 370 Q1185 257 1125 170.5 Q1065 84 956 41 Q853 0 657 0 L171 0 L171 1365 Z M210 1329 L210 725 L636 725 Q755 725 824.5 734 Q894 743 939 765 Q1017 803 1060.5 871.5 Q1104 940 1104 1026 Q1104 1195 960 1277 Q869 1329 696 1329 L210 1329 Z M210 689 L210 36 L690 36 Q908 36 1018 116 Q1146 208 1146 374 Q1146 527 1036.5 608 Q927 689 720 689 L210 689 Z " />
<glyph glyph-name="C" unicode="C" horiz-adv-x="1399" d="M1316 535 Q1301 341 1187 192 Q1102 81 977 23 Q858 -31 725 -31 Q579 -31 452.5 31 Q326 93 242 207 Q102 393 102 679 Q102 988 268 1187 Q443 1397 732 1397 Q992 1397 1158 1223 Q1270 1104 1290 954 L1254 954 Q1227 1093 1134 1193 Q979 1361 728 1361 Q447 1361 280 1142 Q141 959 141 680 Q141 409 268 235 Q357 113 491 54 Q602 5 723 5 Q853 5 966 58.5 Q1079 112 1157 210 Q1257 338 1281 535 L1316 535 Z " />
<glyph glyph-name="D" unicode="D" horiz-adv-x="1333" d="M171 1365 L617 1365 Q754 1365 858 1329.5 Q962 1294 1040 1220 Q1132 1132 1181.5 997 Q1231 862 1231 697 Q1231 346 1040 156 Q959 75 855.5 37.5 Q752 0 609 0 L171 0 L171 1365 Z M210 1329 L210 36 L586 36 Q732 36 828.5 67 Q925 98 1002 169 Q1192 346 1192 695 Q1192 1007 1029 1178 Q953 1258 853.5 1293.5 Q754 1329 608 1329 L210 1329 Z " />
<glyph glyph-name="E" unicode="E" horiz-adv-x="1170" d="M1080 1365 L1080 1329 L210 1329 L210 730 L1029 730 L1029 694 L210 694 L210 36 L1089 36 L1089 0 L171 0 L171 1365 L1080 1365 Z " />
<glyph glyph-name="F" unicode="F" horiz-adv-x="1053" d="M1013 1365 L1013 1329 L210 1329 L210 727 L937 727 L937 691 L210 691 L210 0 L171 0 L171 1365 L1013 1365 Z " />
<glyph glyph-name="G" unicode="G" horiz-adv-x="1479" d="M1336 643 L1336 -1 L1296 -1 L1307 402 Q1269 259 1196 170 Q1031 -31 745 -31 Q544 -31 390 69 Q247 161 172 323 Q102 476 102 665 Q102 825 150.5 966 Q199 1107 287 1204 Q461 1396 739 1396 Q1003 1396 1173 1209 Q1279 1093 1308 940 L1272 940 Q1246 1069 1152 1176 Q992 1360 739 1360 Q432 1360 264 1114 Q141 934 141 662 Q141 385 286 211 Q368 113 486 59 Q604 5 739 5 Q939 5 1086 114 Q1187 189 1242 307.5 Q1297 426 1297 569 Q1297 579 1296 607 L767 607 L767 643 L1336 643 Z " />
<glyph glyph-name="H" unicode="H" horiz-adv-x="1376" d="M1206 1365 L1206 0 L1167 0 L1167 694 L210 694 L210 0 L171 0 L171 1365 L210 1365 L210 730 L1167 730 L1167 1365 L1206 1365 Z " />
<glyph glyph-name="I" unicode="I" horiz-adv-x="381" d="M210 1365 L210 0 L171 0 L171 1365 L210 1365 Z " />
<glyph glyph-name="J" unicode="J" horiz-adv-x="931" d="M781 1365 L781 339 Q781 171 705 84 Q606 -29 414 -29 Q163 -29 80 141 Q41 222 41 375 Q41 396 43 424 L78 424 Q78 261 99 194 Q156 7 414 7 Q594 7 682 115 Q742 189 742 348 L742 1365 L781 1365 Z " />
<glyph glyph-name="K" unicode="K" horiz-adv-x="1256" d="M1212 1365 L551 790 L1256 0 L1207 0 L523 764 L210 486 L210 0 L171 0 L171 1365 L210 1365 L210 637 L210 581 L210 533 Q242 565 296 612 L1158 1365 L1212 1365 Z " />
<glyph glyph-name="L" unicode="L" horiz-adv-x="1041" d="M1013 36 L1013 0 L171 0 L171 1365 L210 1365 L210 36 L1013 36 Z " />
<glyph glyph-name="M" unicode="M" horiz-adv-x="1629" d="M1458 1365 L1458 0 L1419 0 L1419 1205 Q1419 1261 1423 1319 Q1418 1307 1409 1285 L1390 1243 L839 0 L791 0 L246 1228 Q240 1240 226 1275 Q222 1284 207 1320 Q208 1302 209 1271 L209 1252 L210 1204 L210 0 L171 0 L171 1365 L227 1365 L772 139 Q774 134 815 42 L829 74 L857 136 L1405 1365 L1458 1365 Z " />
<glyph glyph-name="N" unicode="N" horiz-adv-x="1375" d="M1205 1365 L1205 0 L1159 0 L268 1237 L246 1268 Q221 1305 207 1326 Q209 1307 209 1288 Q209 1269 210 1226 L210 0 L171 0 L171 1365 L222 1365 L1079 175 Q1083 169 1105 138 Q1116 122 1126 107 Q1153 70 1169 46 Q1166 110 1166 214 L1166 1365 L1205 1365 Z " />
<glyph glyph-name="O" unicode="O" horiz-adv-x="1479" d="M744 1396 Q926 1396 1080 1294 Q1236 1190 1311 1013 Q1377 858 1377 668 Q1377 386 1227 198 Q1045 -31 735 -31 Q429 -31 255 195 Q102 394 102 679 Q102 997 273 1189 Q457 1396 744 1396 Z M747 1360 Q477 1360 304 1163 Q142 978 142 684 Q142 411 285 223 Q450 5 735 5 Q1026 5 1198 223 Q1338 400 1338 671 Q1338 974 1175 1161 Q1002 1360 747 1360 Z " />
<glyph glyph-name="P" unicode="P" horiz-adv-x="1209" d="M171 1365 L703 1365 Q807 1365 872 1351.5 Q937 1338 987 1305 Q1060 1258 1100.5 1176.5 Q1141 1095 1141 994 Q1141 825 1030 724.5 Q919 624 733 624 L210 624 L210 0 L171 0 L171 1365 Z M210 1329 L210 660 L673 660 Q780 660 831.5 668.5 Q883 677 933 704 Q1102 793 1102 994 Q1102 1180 971 1270 Q922 1304 865 1316.5 Q808 1329 701 1329 L210 1329 Z " />
<glyph glyph-name="Q" unicode="Q" horiz-adv-x="1476" d="M1393 -16 L1373 -43 L1144 115 Q980 -32 742 -32 Q451 -32 266 178 Q102 364 102 665 Q102 989 277 1188 Q461 1396 743 1396 Q1029 1396 1212 1177 Q1374 984 1374 682 Q1374 524 1320 380.5 Q1266 237 1170 138 L1393 -16 Z M1140 161 Q1335 384 1335 683 Q1335 944 1208 1119 Q1034 1360 742 1360 Q544 1360 393 1247 Q270 1156 205.5 1006.5 Q141 857 141 666 Q141 398 272 229 Q354 123 479 63 Q602 4 744 4 Q848 4 933 34 Q1018 64 1112 136 L873 301 L894 331 L1140 161 Z " />
<glyph glyph-name="R" unicode="R" horiz-adv-x="1273" d="M164 1365 L705 1365 Q897 1365 998 1299 Q1145 1204 1145 1006 Q1145 813 987 716 Q927 679 827 663 Q910 652 955.5 635 Q1001 618 1036 584 Q1088 535 1103.5 472 Q1119 409 1127 223 Q1134 48 1148 18 L1157 0 L1116 0 Q1096 35 1088 233 Q1081 425 1056 489 Q1024 573 933.5 608.5 Q843 644 662 644 L203 644 L203 0 L164 0 L164 1365 Z M203 1329 L203 680 L653 680 Q856 680 961 742 Q1107 828 1107 1007 Q1107 1176 983 1262 Q887 1329 690 1329 L203 1329 Z " />
<glyph glyph-name="S" unicode="S" horiz-adv-x="1176" d="M1053 981 L1013 981 Q1002 1146 923 1232 Q867 1292 770 1325 Q673 1358 551 1358 Q363 1358 251 1277 Q139 1196 139 1043 Q139 872 293 802 Q366 769 624 708 Q778 671 837 653 Q896 635 941 610 Q1080 532 1080 350 Q1080 172 948 71.5 Q816 -29 582 -29 Q328 -29 193 95 Q133 151 97 240.5 Q61 330 61 425 Q61 434 62 452 L99 452 Q99 270 189 156 Q244 86 348 46.5 Q452 7 581 7 Q822 7 939 113 Q1041 205 1041 349 Q1041 506 926 576 Q883 602 825.5 619.5 Q768 637 600 676 Q421 718 351.5 740.5 Q282 763 228 797 Q100 877 100 1047 Q100 1223 241 1316 Q357 1394 550 1394 Q786 1394 913.5 1289 Q1041 1184 1053 981 Z " />
<glyph glyph-name="T" unicode="T" horiz-adv-x="1085" d="M1056 1365 L1056 1329 L561 1329 L561 0 L522 0 L522 1329 L27 1329 L27 1365 L1056 1365 Z " />
<glyph glyph-name="U" unicode="U" horiz-adv-x="1316" d="M1166 1365 L1166 511 Q1166 304 1090 182 Q960 -29 668 -29 Q341 -29 214 205 Q150 321 150 517 L150 1365 L189 1365 L189 513 Q189 393 210 315 Q231 237 281 171 Q405 7 668 7 Q894 7 1010.5 136 Q1127 265 1127 515 L1127 1365 L1166 1365 Z " />
<glyph glyph-name="V" unicode="V" horiz-adv-x="1162" d="M1134 1365 L612 0 L562 0 L27 1365 L70 1365 L538 167 L555 126 L564 101 Q579 63 588 38 Q596 60 609 96 L621 126 L634 163 L1096 1365 L1134 1365 Z " />
<glyph glyph-name="W" unicode="W" horiz-adv-x="1803" d="M1762 1365 L1360 0 L1308 0 L948 1185 L936 1223 L922 1266 Q909 1308 902 1331 Q887 1282 869 1220 L857 1177 L506 0 L457 0 L41 1365 L86 1365 L431 223 L443 181 Q472 90 482 46 Q489 81 505 133 L518 180 L529 216 L873 1365 L932 1365 L1286 212 Q1297 175 1315 114 Q1327 73 1334 46 Q1342 72 1353 116 L1365 156 L1381 214 L1722 1365 L1762 1365 Z " />
<glyph glyph-name="X" unicode="X" horiz-adv-x="1161" d="M1109 1365 L608 701 L1134 0 L1087 0 L629 607 L609 633 Q590 658 581 670 Q568 655 545 625 L527 601 L75 0 L27 0 L556 701 L57 1365 L104 1365 L539 787 Q546 777 553 769 Q567 749 581 732 Q606 764 625 790 L1065 1365 L1109 1365 Z " />
<glyph glyph-name="Y" unicode="Y" horiz-adv-x="1153" d="M1153 1365 L593 574 L593 0 L554 0 L554 575 L0 1365 L44 1365 L526 682 Q552 645 574 612 L621 679 L1110 1365 L1153 1365 Z " />
<glyph glyph-name="Z" unicode="Z" horiz-adv-x="1130" d="M1060 1365 L1060 1316 L141 94 Q130 80 97 36 L147 36 L192 36 L1075 36 L1075 0 L61 0 L61 51 L981 1275 Q1007 1309 1022 1329 Q1001 1329 957 1329 L114 1329 L114 1365 L1060 1365 Z " />
<glyph glyph-name="bracketleft" unicode="&#x5b;" horiz-adv-x="497" d="M383 1365 L383 1330 L203 1330 L203 -306 L383 -306 L383 -341 L164 -341 L164 1365 L383 1365 Z " />
<glyph glyph-name="backslash" unicode="&#x5c;" horiz-adv-x="832" d="M82 1365 L122 1365 L907 -341 L867 -341 L82 1365 Z " />
<glyph glyph-name="bracketright" unicode="&#x5d;" horiz-adv-x="496" d="M114 -341 L114 -306 L294 -306 L294 1330 L114 1330 L114 1365 L333 1365 L333 -341 L114 -341 Z " />
<glyph glyph-name="asciicircum" unicode="&#x5e;" horiz-adv-x="1024" d="M143 805 L91 805 L485 1365 L538 1365 L932 805 L878 805 L509 1334 L143 805 Z " />
<glyph glyph-name="underscore" unicode="&#x5f;" horiz-adv-x="1024" d="M0 -171 L1024 -171 L1024 -213 L0 -213 L0 -171 Z " />
<glyph glyph-name="grave" unicode="&#x60;" horiz-adv-x="1024" d="M325 1394 L586 1126 L538 1126 L274 1394 L325 1394 Z " />
<glyph glyph-name="a" unicode="a" horiz-adv-x="991" d="M946 40 L946 5 Q937 4 933 3 Q918 2 905 2 Q847 2 821 26 Q795 50 795 104 L795 143 L795 213 Q749 97 645 34 Q541 -29 395 -29 Q244 -29 162.5 41.5 Q81 112 81 243 Q81 320 113 372 Q145 424 216 462 Q299 507 574 541 Q694 556 736 584 Q795 622 795 720 Q795 973 483 973 Q349 973 268 907 Q229 875 210 836.5 Q191 798 180 729 L131 729 Q154 879 246 943 Q338 1009 501 1009 Q834 1009 834 708 L834 87 Q834 37 901 37 Q921 37 946 40 Z M788 575 Q760 542 720.5 530.5 Q681 519 538 501 Q300 470 215 416 Q165 383 143 341.5 Q121 300 121 237 Q121 135 195.5 71.5 Q270 8 389 8 Q550 8 663 92 Q795 189 795 335 L795 575 L788 575 Z " />
<glyph glyph-name="b" unicode="b" horiz-adv-x="1110" d="M157 1365 L196 1365 L196 713 Q238 824 290 881 Q405 1006 585 1006 Q776 1006 890 874 Q1017 728 1017 478 Q1017 280 931 147 Q819 -27 591 -27 Q440 -27 338 52.5 Q236 132 196 281 L196 0 L157 0 L157 1365 Z M593 971 Q399 971 289 821 Q197 695 197 488 Q197 281 294 152 Q402 8 592 8 Q736 8 834 92 Q978 214 978 481 Q978 711 869 843 Q764 971 593 971 Z " />
<glyph glyph-name="c" unicode="c" horiz-adv-x="1014" d="M933 338 Q917 217 858 133 Q747 -28 531 -28 Q296 -28 178 164 Q93 302 93 489 Q93 602 125 701 Q157 800 215 865 Q339 1006 538 1006 Q699 1006 802 920 Q905 834 923 686 L884 686 Q865 793 815 854 Q718 971 541 971 Q442 971 358.5 930 Q275 889 223 815 Q132 686 132 488 Q132 288 234 150 Q339 8 528 8 Q679 8 776.5 96 Q874 184 894 338 L933 338 Z " />
<glyph glyph-name="d" unicode="d" horiz-adv-x="1110" d="M953 1365 L953 0 L914 0 L914 281 Q889 187 841 125 Q725 -27 518 -27 Q291 -27 179 147 Q93 280 93 478 Q93 728 220 874 Q334 1006 525 1006 Q718 1006 834 864 Q876 813 914 713 L914 1365 L953 1365 Z M528 971 Q346 971 241 843 Q132 711 132 480 Q132 298 205 176 Q254 94 337 50 Q417 8 518 8 Q708 8 816 152 Q913 281 913 489 Q913 697 821 821 Q710 971 528 971 Z " />
<glyph glyph-name="e" unicode="e" horiz-adv-x="1035" d="M943 346 Q925 234 875 157 Q756 -27 531 -27 Q326 -27 206 122 Q93 263 93 485 Q93 728 224 872 Q346 1006 533 1006 Q678 1006 783 921 Q874 848 914.5 746.5 Q955 645 953 493 L135 493 Q135 364 166 275 Q209 155 297 86 Q395 8 531 8 Q679 8 777 97 Q875 186 903 346 L943 346 Z M913 529 Q911 623 896 681.5 Q881 740 843 800 Q735 971 534 971 Q385 971 276 873 Q211 814 178 734.5 Q145 655 134 529 L913 529 Z " />
<glyph glyph-name="f" unicode="f" horiz-adv-x="483" d="M455 1365 L455 1328 Q413 1333 379 1333 Q274 1333 237 1261 Q223 1232 219.5 1198 Q216 1164 216 1048 L216 979 L428 979 L428 943 L216 943 L216 0 L177 0 L177 943 L6 943 L6 979 L177 979 L177 1098 Q177 1241 213 1296 Q261 1371 385 1371 Q415 1371 455 1365 Z " />
<glyph glyph-name="g" unicode="g" horiz-adv-x="1087" d="M931 979 L931 66 Q931 -100 879 -192 Q783 -360 519 -360 Q345 -360 248.5 -281.5 Q152 -203 145 -54 L183 -54 Q194 -156 232 -209 Q315 -325 517 -325 Q740 -325 827 -201 Q892 -108 892 90 L892 335 Q865 260 835 217 Q769 123 656 81 Q586 54 503 54 Q294 54 182 208 Q94 329 94 520 Q94 738 202 867 Q256 931 337 968 Q420 1006 514 1006 Q652 1006 750.5 931 Q849 856 892 717 L892 979 L931 979 Z M518 970 Q319 970 213 817 Q133 701 133 528 Q133 340 222 220 Q321 89 504 89 Q615 89 707 145 Q891 258 891 529 Q891 740 780 857 Q722 919 641 947 Q576 970 518 970 Z " />
<glyph glyph-name="h" unicode="h" horiz-adv-x="1065" d="M196 1365 L196 722 Q292 1006 558 1006 Q747 1006 849 866 Q915 777 915 625 L915 0 L876 0 L876 617 Q876 773 812 853 Q717 971 557 971 Q392 971 294 847 Q196 723 196 513 L196 0 L157 0 L157 1365 L196 1365 Z " />
<glyph glyph-name="i" unicode="i" horiz-adv-x="353" d="M176 1318 Q194 1318 206.5 1303.5 Q219 1289 219 1269 Q219 1248 206.5 1233.5 Q194 1219 175 1219 Q157 1219 144 1233.5 Q131 1248 131 1269 Q131 1289 144 1303.5 Q157 1318 176 1318 Z M196 979 L196 0 L157 0 L157 979 L196 979 Z " />
<glyph glyph-name="j" unicode="j" horiz-adv-x="353" d="M196 979 L196 -138 Q196 -252 150 -295.5 Q104 -339 -17 -339 Q-29 -339 -48 -339 L-48 -304 Q32 -303 55.5 -299.5 Q79 -296 100 -284 Q157 -249 157 -146 L157 979 L196 979 Z M176 1318 Q194 1318 206.5 1303.5 Q219 1289 219 1269 Q219 1248 206.5 1233.5 Q194 1219 175 1219 Q157 1219 144 1233.5 Q131 1248 131 1269 Q131 1289 144 1303.5 Q157 1318 176 1318 Z " />
<glyph glyph-name="k" unicode="k" horiz-adv-x="1000" d="M935 979 L482 609 L965 0 L915 0 L451 581 L196 372 L196 0 L157 0 L157 1365 L196 1365 L196 519 Q196 461 196 419 L281 490 L879 979 L935 979 Z " />
<glyph glyph-name="l" unicode="l" horiz-adv-x="353" d="M196 1365 L196 0 L157 0 L157 1365 L196 1365 Z " />
<glyph glyph-name="m" unicode="m" horiz-adv-x="1591" d="M196 979 L196 753 Q233 850 276 899 Q370 1006 521 1006 Q746 1006 813 777 Q852 874 904 922 Q993 1006 1131 1006 Q1282 1006 1370 908 Q1409 865 1425 811 Q1441 757 1441 669 L1441 0 L1402 0 L1402 682 Q1402 805 1352 872 Q1278 971 1129 971 Q990 971 906.5 880.5 Q823 790 823 640 L823 0 L784 0 L784 653 Q784 771 751 836 Q684 971 517 971 Q371 971 283.5 862.5 Q196 754 196 573 L196 0 L157 0 L157 979 L196 979 Z " />
<glyph glyph-name="n" unicode="n" horiz-adv-x="1067" d="M196 979 L196 735 Q227 827 276 881 Q387 1006 566 1006 Q742 1006 843 888 Q896 826 908 754 Q917 703 917 620 L917 0 L878 0 L878 616 Q878 751 842 821 Q804 895 725 934 Q651 971 565 971 Q419 971 321 881 Q196 768 196 523 L196 0 L157 0 L157 979 L196 979 Z " />
<glyph glyph-name="o" unicode="o" horiz-adv-x="1070" d="M547 1006 Q689 1006 796 925 Q898 847 945 702 Q978 601 978 482 Q978 263 873 129 Q750 -27 535 -27 Q320 -27 200 130 Q93 270 93 487 Q93 707 205 849 Q329 1006 547 1006 Z M544 971 Q349 971 235 827 Q132 698 132 489 Q132 279 231 152 Q344 8 538 8 Q735 8 844 155 Q939 282 939 481 Q939 679 849 812 Q795 893 708 934 Q630 971 544 971 Z " />
<glyph glyph-name="p" unicode="p" horiz-adv-x="1110" d="M157 979 L196 979 L196 713 Q238 823 290 881 Q405 1006 585 1006 Q775 1006 890 874 Q1017 728 1017 478 Q1017 280 931 147 Q819 -27 591 -27 Q440 -27 338 52.5 Q236 132 196 281 L196 -341 L157 -341 L157 979 Z M593 971 Q399 971 289 821 Q197 695 197 488 Q197 281 294 152 Q402 8 592 8 Q736 8 834 92 Q978 214 978 481 Q978 711 869 843 Q764 971 593 971 Z " />
<glyph glyph-name="q" unicode="q" horiz-adv-x="1110" d="M953 979 L953 -341 L914 -341 L914 281 Q889 187 841 125 Q725 -27 518 -27 Q292 -27 179 147 Q93 280 93 478 Q93 728 220 874 Q335 1006 525 1006 Q718 1006 834 864 Q876 813 914 713 L914 979 L953 979 Z M528 971 Q346 971 241 843 Q132 711 132 480 Q132 298 205 176 Q254 94 337 50 Q417 8 518 8 Q708 8 816 152 Q913 281 913 489 Q913 697 821 821 Q710 971 528 971 Z " />
<glyph glyph-name="r" unicode="r" horiz-adv-x="572" d="M587 979 L587 941 Q389 941 294 819 Q238 746 217.5 667.5 Q197 589 197 445 L197 0 L157 0 L157 979 L196 979 L196 699 Q288 984 587 979 Z " />
<glyph glyph-name="s" unicode="s" horiz-adv-x="889" d="M781 694 L742 694 Q735 794 701 851 Q627 971 422 971 Q286 971 208 912 Q130 853 130 749 Q130 681 166 641 Q200 603 256 580.5 Q312 558 456 524 Q615 487 683 453 Q807 391 807 250 Q807 121 695 44 Q593 -27 439 -27 Q206 -27 108 124 Q57 203 55 338 L95 338 Q98 210 143 140 Q229 8 439 8 Q588 8 673 72 Q768 144 768 253 Q768 328 720 375 Q681 413 624.5 436.5 Q568 460 447 487 Q259 530 195 566 Q91 626 91 749 Q91 892 217 961 Q297 1005 428 1005 Q619 1005 712 900 Q774 830 781 694 Z " />
<glyph glyph-name="t" unicode="t" horiz-adv-x="490" d="M427 979 L427 943 L210 943 L210 237 Q210 128 226 94 Q254 34 347 34 Q375 34 427 42 L427 3 Q383 -4 348 -4 Q234 -4 195 66 Q171 109 171 240 L171 943 L-15 943 L-15 979 L171 979 L171 1292 L210 1292 L210 979 L427 979 Z " />
<glyph glyph-name="u" unicode="u" horiz-adv-x="1054" d="M897 979 L897 0 L858 0 L858 235 Q810 124 754 70 Q654 -27 504 -27 Q415 -27 339 8.5 Q263 44 216 108 Q150 197 150 354 L150 979 L189 979 L189 395 Q189 269 208 210 Q238 115 318 60 Q398 5 506 5 Q661 5 759.5 122 Q858 239 858 424 L858 979 L897 979 Z " />
<glyph glyph-name="v" unicode="v" horiz-adv-x="868" d="M855 979 L479 0 L426 0 L14 979 L57 979 L383 204 Q409 143 451 38 L469 83 L494 146 L517 204 L814 979 L855 979 Z " />
<glyph glyph-name="w" unicode="w" horiz-adv-x="1414" d="M1387 979 L1066 0 L1017 0 L742 839 Q721 902 709 939 Q698 905 676 840 L400 0 L346 0 L27 979 L67 979 L338 151 Q354 103 373 40 Q385 77 410 155 L679 979 L739 979 L1000 176 L1024 102 L1042 44 Q1066 125 1081 171 L1347 979 L1387 979 Z " />
<glyph glyph-name="x" unicode="x" horiz-adv-x="868" d="M819 979 L458 511 L854 0 L804 0 L456 449 Q442 467 432 482 Q422 470 408 452 L59 0 L14 0 L408 511 L44 979 L95 979 L407 575 L434 538 Q447 558 460 574 L774 979 L819 979 Z " />
<glyph glyph-name="y" unicode="y" horiz-adv-x="855" d="M842 979 L405 -162 Q365 -265 314.5 -299.5 Q264 -334 154 -334 L125 -334 L125 -300 Q141 -300 148 -300 Q220 -300 259 -287 Q298 -274 322 -242 Q341 -217 384.5 -115.5 Q428 -14 428 5 Q428 8 427 9 L14 979 L57 979 L420 124 L449 48 Q464 99 477 132 L803 979 L842 979 Z " />
<glyph glyph-name="z" unicode="z" horiz-adv-x="837" d="M778 979 L778 934 L124 96 Q103 69 76 36 L108 36 L144 36 L809 36 L809 0 L41 0 L41 49 L694 886 Q724 923 739 943 L711 943 L683 943 L95 943 L95 979 L778 979 Z " />
<glyph glyph-name="braceleft" unicode="&#x7b;" horiz-adv-x="496" d="M115 510 Q183 484 213 431.5 Q243 379 243 284 L243 -88 Q243 -207 285.5 -257 Q328 -307 432 -314 L432 -341 Q303 -339 250 -272 Q223 -238 213 -186 Q203 -134 203 -30 L203 293 Q203 385 178 428 Q153 471 83 499 L83 520 Q151 546 177 590 Q203 634 203 726 L203 1095 Q203 1224 240 1280 Q296 1365 423 1365 Q426 1365 432 1365 L432 1338 Q343 1330 303 1297 Q243 1248 243 1124 L243 727 Q243 632 215.5 585 Q188 538 115 510 Z " />
<glyph glyph-name="bar" unicode="&#x7c;" horiz-adv-x="1024" d="M492 1365 L532 1365 L532 -341 L492 -341 L492 1365 Z " />
<glyph glyph-name="braceright" unicode="&#x7d;" horiz-adv-x="496" d="M382 510 Q309 538 281.5 585 Q254 632 254 727 L254 1124 Q254 1232 211 1280.5 Q168 1329 65 1338 L65 1365 Q71 1365 74 1365 Q201 1365 257 1280 Q294 1224 294 1095 L294 726 Q294 634 320 589.5 Q346 545 414 520 L414 499 Q356 477 332 448 Q294 401 294 293 L294 -30 Q294 -142 282.5 -194.5 Q271 -247 239 -282 Q185 -339 65 -341 L65 -314 Q152 -308 192 -276 Q254 -227 254 -88 L254 284 Q254 379 284 431.5 Q314 484 382 510 Z " />
<glyph glyph-name="asciitilde" unicode="&#x7e;" horiz-adv-x="1365" d="M230 1235 L196 1256 Q255 1357 314.5 1401.5 Q374 1446 451 1446 Q532 1446 694 1357 Q783 1308 827 1291.5 Q871 1275 913 1275 Q979 1275 1029 1314.5 Q1079 1354 1135 1450 L1169 1429 Q1110 1327 1050.5 1282.5 Q991 1238 915 1238 Q866 1238 814 1258.5 Q762 1279 633 1348 Q519 1410 450 1410 Q387 1410 335.5 1369.5 Q284 1329 230 1235 Z " />
<glyph glyph-name="nbspace" unicode="&#xa0;" horiz-adv-x="512" d="" />
<glyph glyph-name="exclamdown" unicode="&#xa1;" horiz-adv-x="463" d="M191 -307 L191 710 L230 710 L230 -307 L191 -307 Z M211 966 Q229 966 241.5 951.5 Q254 937 254 917 Q254 896 241.5 881.5 Q229 867 210 867 Q192 867 179 881.5 Q166 896 166 917 Q166 937 179 951.5 Q192 966 211 966 Z " />
<glyph glyph-name="cent" unicode="&#xa2;" horiz-adv-x="1174" d="M1012 521 Q990 361 895 266 Q792 163 626 157 L626 -46 L587 -46 L587 157 Q406 171 302 288 Q175 429 175 673 Q175 897 283 1032 Q391 1167 587 1189 L587 1357 L626 1357 L626 1189 Q790 1180 888 1091 Q985 1003 1003 865 L964 865 Q940 1004 843 1079 Q757 1147 626 1154 L626 192 Q790 193 890 316 Q957 399 972 521 L1012 521 Z M587 1152 Q426 1137 330 1030 Q214 902 214 673 Q214 460 311 335 Q408 210 587 191 L587 1152 Z " />
<glyph glyph-name="sterling" unicode="&#xa3;" horiz-adv-x="1174" d="M1032 923 L996 923 Q994 1127 913 1232 Q812 1362 592 1362 Q394 1362 288 1263 Q193 1174 193 1044 Q193 952 260 823 L334 686 L641 686 L641 650 L356 650 Q412 528 412 414 Q412 312 370 229.5 Q328 147 218 29 Q240 41 251 47 Q341 97 419 97 Q484 97 582 57 Q684 16 717 6.5 Q750 -3 789 -3 Q858 -3 947 46.5 Q1036 96 1084 162 L1110 134 Q951 -39 788 -39 Q724 -39 622 2 Q528 40 490 50.5 Q452 61 411 61 Q304 61 178 -37 L146 4 Q250 86 311.5 196.5 Q373 307 373 414 Q373 541 314 650 L164 650 L164 686 L294 686 L286 700 Q217 821 202 853 Q154 954 154 1044 Q154 1213 288 1313 Q402 1398 593 1398 Q1031 1398 1032 923 Z " />
<glyph glyph-name="currency" unicode="&#xa4;" horiz-adv-x="1365" d="M181 224 L357 401 Q237 537 237 703 Q237 867 350 999 L173 1177 L201 1205 L378 1028 Q511 1148 683 1148 Q857 1148 986 1029 L1165 1205 L1193 1177 L1016 1000 Q1128 868 1128 703 Q1128 533 1012 405 L1193 224 L1165 196 L984 377 Q850 260 683 260 Q515 260 386 373 L208 196 L181 224 Z M688 1111 Q514 1111 395 990 Q277 871 277 702 Q277 535 396 416 Q515 297 683 297 Q851 297 971 417 Q1089 535 1089 702 Q1089 874 971 990 Q849 1111 688 1111 Z " />
<glyph glyph-name="yen" unicode="&#xa5;" horiz-adv-x="1174" d="M462 785 L136 1365 L182 1365 L588 649 L995 1365 L1041 1365 L715 785 L1000 785 L1000 749 L693 749 L608 601 L608 514 L959 514 L959 478 L608 478 L608 1 L569 1 L569 478 L218 478 L218 514 L569 514 L569 601 L484 749 L177 749 L177 785 L462 785 Z " />
<glyph glyph-name="brokenbar" unicode="&#xa6;" horiz-adv-x="1024" d="M492 1365 L532 1365 L532 710 L492 710 L492 1365 Z M492 314 L532 314 L532 -341 L492 -341 L492 314 Z " />
<glyph glyph-name="section" unicode="&#xa7;" horiz-adv-x="1174" d="M898 999 L860 999 Q860 1106 818 1174 Q742 1299 561 1299 Q449 1299 378.5 1241 Q308 1183 308 1089 Q308 1007 362 952 Q398 915 524 847 Q771 711 864 638 Q1011 522 1011 391 Q1011 303 950.5 232.5 Q890 162 785 130 Q903 27 903 -81 Q903 -197 816 -269 Q729 -341 589 -341 Q427 -341 339 -247.5 Q251 -154 253 16 L290 16 Q292 -112 340 -187 Q416 -306 586 -306 Q718 -306 791 -240 Q863 -175 863 -83 Q863 19 776 91 Q718 138 543 241 Q319 372 260 426 Q163 517 163 620 Q163 805 377 890 Q327 922 298 976 Q269 1030 269 1092 Q269 1199 350.5 1266.5 Q432 1334 562 1334 Q722 1334 807.5 1249 Q893 1164 898 999 Z M410 870 Q302 824 252 764.5 Q202 705 202 622 Q202 521 296 445 Q365 389 667 210 Q683 200 751 155 Q830 178 880 216 Q971 285 971 389 Q971 488 875.5 576 Q780 664 513 811 Q446 848 410 870 Z " />
<glyph glyph-name="dieresis" unicode="&#xa8;" horiz-adv-x="1024" d="M675 1317 Q693 1317 705.5 1302.5 Q718 1288 718 1267 Q718 1247 705 1232.5 Q692 1218 674 1218 Q656 1218 643 1232.5 Q630 1247 630 1268 Q630 1288 643 1302.5 Q656 1317 675 1317 Z M354 1317 Q372 1317 384.5 1302.5 Q397 1288 397 1267 Q397 1247 384 1232.5 Q371 1218 353 1218 Q335 1218 322 1232.5 Q309 1247 309 1268 Q309 1288 322 1302.5 Q335 1317 354 1317 Z " />
<glyph glyph-name="copyright" unicode="&#xa9;" horiz-adv-x="1633" d="M1192 603 Q1184 506 1140 433 Q1090 349 1005.5 302 Q921 255 817 255 Q642 255 533 373 Q424 491 424 681 Q424 866 528 984 Q639 1111 822 1111 Q962 1111 1060.5 1034 Q1159 957 1176 835 L1140 835 Q1139 840 1136 854 Q1116 950 1026.5 1012 Q937 1074 819 1074 Q660 1074 561.5 965.5 Q463 857 463 681 Q463 524 540 424 Q642 292 817 292 Q957 292 1047.5 375.5 Q1138 459 1156 603 L1192 603 Z M827 1397 Q1010 1397 1173 1301 Q1339 1203 1434 1040 Q1530 875 1530 683 Q1530 492 1434 326 Q1339 160 1173 65 Q1007 -31 816 -31 Q625 -31 459 65 Q293 161 198 326 Q102 493 102 689 Q102 997 339 1213 Q540 1397 827 1397 Z M827 1358 Q517 1358 315 1134 Q141 943 141 688 Q141 502 231 345 Q322 189 479 98 Q635 8 816 8 Q997 8 1153 98 Q1311 189 1401 345 Q1491 503 1491 683 Q1491 980 1267 1184 Q1163 1279 1029 1323 Q921 1358 827 1358 Z " />
<glyph glyph-name="ordfeminine" unicode="&#xaa;" horiz-adv-x="783" d="M696 622 L87 622 L87 661 L696 661 L696 622 Z M653 862 L653 826 Q594 807 570.5 827.5 Q547 848 547 918 Q506 856 467 834 Q416 804 344 804 Q256 804 206.5 845.5 Q157 887 157 960 Q157 1068 261 1107 Q294 1120 324.5 1124 Q355 1128 487 1138 Q525 1141 535.5 1153.5 Q546 1166 546 1208 Q546 1270 522 1297 Q482 1343 392 1343 Q313 1343 273 1305.5 Q233 1268 226 1186 L189 1186 Q203 1380 394 1380 Q505 1380 555 1318 Q575 1293 579.5 1268.5 Q584 1244 584 1162 Q585 896 586 883 Q587 855 613 855 Q629 855 653 862 Z M546 1118 Q528 1106 507 1103 Q486 1100 368 1092 Q196 1080 196 960 Q196 841 344 841 Q450 841 508 925 Q546 980 546 1039 L546 1118 Z " />
<glyph glyph-name="guillemotleft" unicode="&#xab;" horiz-adv-x="622" d="M295 229 L109 481 L109 516 L295 776 L295 718 L141 495 L295 292 L295 229 Z M485 226 L295 480 L295 514 L485 779 L485 723 L327 496 L485 284 L485 226 Z " />
<glyph glyph-name="logicalnot" unicode="&#xac;" horiz-adv-x="1024" d="M915 0 L915 509 L67 509 L67 546 L955 546 L955 0 L915 0 Z " />
<glyph glyph-name="uni00AD" unicode="&#xad;" horiz-adv-x="423" d="M423 521 L423 484 L0 484 L0 521 L423 521 Z " />
<glyph glyph-name="registered" unicode="&#xae;" horiz-adv-x="1076" d="M382 1201 L576 1201 Q728 1201 728 1078 Q728 1042 713.5 1019 Q699 996 660 972 Q667 968 674 963 Q703 945 710.5 925.5 Q718 906 722 834 Q726 778 742 755 L695 755 Q683 777 681 828 Q679 908 657 930 Q634 953 558 953 L424 953 L424 755 L382 755 L382 1201 Z M424 1165 L424 989 L554 989 Q686 989 686 1079 Q686 1165 567 1165 L424 1165 Z M554 1406 Q736 1406 866 1264 Q976 1143 976 977 Q976 786 834 659 Q712 549 547 549 Q356 549 228 690 Q118 812 118 981 Q118 1166 260 1295 Q382 1406 554 1406 Z M541 1367 Q375 1367 258 1238 Q157 1129 157 978 Q157 804 286 688 Q397 588 547 588 Q721 588 837 717 Q937 829 937 981 Q937 1149 807 1267 Q697 1367 541 1367 Z " />
<glyph glyph-name="overscore" unicode="&#xaf;" horiz-adv-x="1024" d="M781 1260 L781 1224 L244 1224 L244 1260 L781 1260 Z " />
<glyph glyph-name="degree" unicode="&#xb0;" horiz-adv-x="716" d="M361 1344 Q468 1344 546 1265 Q622 1188 622 1079 Q622 971 546 894 Q470 816 360 816 Q242 816 163 902 Q94 977 94 1082 Q94 1204 183 1278 Q262 1344 361 1344 Z M356 1305 Q270 1305 208 1247 Q133 1178 133 1081 Q133 996 189 932 Q255 855 359 855 Q449 855 515 919 Q583 985 583 1076 Q583 1173 517 1238 Q450 1305 356 1305 Z " />
<glyph glyph-name="plusminus" unicode="&#xb1;" horiz-adv-x="1174" d="M129 671 L564 671 L564 1113 L603 1113 L603 671 L1045 671 L1045 632 L603 632 L603 192 L564 192 L564 632 L129 632 L129 671 Z M129 107 L1045 107 L1045 68 L129 68 L129 107 Z " />
<glyph glyph-name="twosuperior" unicode="&#xb2;" horiz-adv-x="750" d="M659 582 L659 546 L106 546 Q117 646 184 712 Q223 751 387 863 Q503 942 550.5 1003 Q598 1064 598 1133 Q598 1216 542 1263 Q486 1310 388 1310 Q273 1310 217.5 1249 Q162 1188 161 1061 L122 1061 Q125 1140 138 1184 Q151 1228 183 1265 Q252 1346 388 1346 Q502 1346 569.5 1288 Q637 1230 637 1133 Q637 1032 552 946 Q497 892 337 782 Q235 712 197 671.5 Q159 631 151 582 L659 582 Z " />
<glyph glyph-name="threesuperior" unicode="&#xb3;" horiz-adv-x="751" d="M110 1075 Q115 1189 162 1249 Q236 1346 389 1346 Q510 1346 578 1288 Q647 1230 647 1143 Q647 1007 501 965 Q577 947 619 895 Q661 843 661 768 Q661 662 582.5 595.5 Q504 529 379 529 Q246 529 167.5 599 Q89 669 89 788 Q89 800 90 822 L127 822 Q126 800 126 790 Q126 690 186 632 Q255 565 379 565 Q487 565 554.5 621 Q622 677 622 766 Q622 860 556.5 905 Q491 950 355 950 Q352 950 337 949 L337 985 Q349 985 412 985 Q501 986 554.5 1029 Q608 1072 608 1143 Q608 1220 549 1265 Q490 1310 389 1310 Q152 1310 147 1075 L110 1075 Z " />
<glyph glyph-name="acute" unicode="&#xb4;" horiz-adv-x="1024" d="M747 1394 L484 1126 L440 1126 L696 1394 L747 1394 Z " />
<glyph glyph-name="mu" unicode="&#xb5;" horiz-adv-x="1024" d="M138 -332 L138 983 L178 983 L178 391 Q178 266 197 209 Q227 115 307 60.5 Q387 6 494 6 Q649 6 747.5 122 Q846 238 846 421 L846 983 L886 983 L886 0 L846 0 L846 231 Q802 123 743 66 Q643 -31 492 -31 Q387 -31 312 11 Q237 53 178 144 L178 -332 L138 -332 Z " />
<glyph glyph-name="paragraph" unicode="&#xb6;" horiz-adv-x="1174" d="M551 -232 L551 632 Q526 631 518 631 Q394 631 302 686 Q225 731 179 810 Q131 895 131 995 Q131 1094 177.5 1179 Q224 1264 305 1310 Q399 1365 562 1365 L1012 1365 L1012 1329 L882 1329 L882 -232 L843 -232 L843 1329 L590 1329 L590 -232 L551 -232 Z " />
<glyph glyph-name="periodcentered" unicode="&#xb7;" horiz-adv-x="367" d="M186 504 Q204 504 216.5 489.5 Q229 475 229 455 Q229 434 216.5 419.5 Q204 405 185 405 Q167 405 154 419.5 Q141 434 141 455 Q141 475 154 489.5 Q167 504 186 504 Z " />
<glyph glyph-name="cedilla" unicode="&#xb8;" horiz-adv-x="1024" d="M548 0 L465 -120 Q511 -111 539 -111 Q599 -111 637.5 -143 Q676 -175 676 -224 Q676 -288 625 -327 Q574 -366 490 -366 Q425 -366 323 -328 L338 -292 Q426 -331 491 -331 Q554 -331 594 -304 Q634 -277 634 -233 Q634 -195 603.5 -170.5 Q573 -146 526 -146 Q484 -146 424 -171 L399 -149 L506 0 L548 0 Z " />
<glyph glyph-name="onesuperior" unicode="&#xb9;" horiz-adv-x="750" d="M436 1329 L436 546 L397 546 L397 1276 Q315 1179 181 1146 L181 1184 Q246 1202 285.5 1228.5 Q325 1255 398 1329 L436 1329 Z " />
<glyph glyph-name="ordmasculine" unicode="&#xba;" horiz-adv-x="783" d="M696 622 L87 622 L87 661 L696 661 L696 622 Z M398 1380 Q520 1380 585 1284 Q639 1204 639 1088 Q639 967 580 892 Q511 804 391 804 Q271 804 203 892 Q144 970 144 1091 Q144 1213 206 1291 Q276 1380 398 1380 Z M396 1343 Q299 1343 241 1274.5 Q183 1206 183 1092 Q183 982 235 915 Q292 841 393 841 Q495 841 551 917 Q600 983 600 1088 Q600 1191 553 1261 Q498 1343 396 1343 Z " />
<glyph glyph-name="guillemotright" unicode="&#xbb;" horiz-adv-x="622" d="M327 776 L513 524 L513 489 L327 229 L327 287 L482 509 L327 713 L327 776 Z M137 779 L327 525 L327 491 L137 226 L137 282 L296 508 L137 721 L137 779 Z " />
<glyph glyph-name="onequarter" unicode="&#xbc;" horiz-adv-x="1784" d="M436 1329 L436 546 L397 546 L397 1276 Q315 1179 181 1146 L181 1184 Q246 1202 285.5 1228.5 Q325 1255 398 1329 L436 1329 Z M1341 1329 L485 0 L443 0 L1297 1329 L1341 1329 Z M1697 236 L1697 200 L1554 200 L1554 0 L1515 0 L1515 200 L1114 200 L1114 236 L1512 783 L1554 783 L1554 236 L1697 236 Z M1515 236 L1515 729 L1158 236 L1515 236 Z " />
<glyph glyph-name="onehalf" unicode="&#xbd;" horiz-adv-x="1784" d="M436 1329 L436 546 L397 546 L397 1276 Q315 1179 181 1146 L181 1184 Q246 1202 285.5 1228.5 Q325 1255 398 1329 L436 1329 Z M1341 1329 L485 0 L443 0 L1297 1329 L1341 1329 Z M1693 36 L1693 0 L1140 0 Q1152 100 1218 166 Q1257 204 1422 317 Q1538 396 1585.5 456.5 Q1633 517 1633 587 Q1633 670 1577 717 Q1521 764 1422 764 Q1308 764 1252 703 Q1196 642 1195 515 L1156 515 Q1159 593 1172 637.5 Q1185 682 1217 719 Q1286 800 1423 800 Q1537 800 1604.5 742 Q1672 684 1672 587 Q1672 486 1586 400 Q1531 346 1371 236 Q1269 166 1231 125.5 Q1193 85 1185 36 L1693 36 Z " />
<glyph glyph-name="threequarters" unicode="&#xbe;" horiz-adv-x="1784" d="M110 1075 Q115 1189 162 1249 Q236 1346 389 1346 Q510 1346 578 1288 Q647 1230 647 1143 Q647 1007 501 965 Q577 947 619 895 Q661 843 661 768 Q661 662 582.5 595.5 Q504 529 379 529 Q246 529 167.5 599 Q89 669 89 788 Q89 800 90 822 L127 822 Q126 800 126 790 Q126 690 186 632 Q255 565 379 565 Q487 565 554.5 621 Q622 677 622 766 Q622 860 556.5 905 Q491 950 355 950 Q352 950 337 949 L337 985 Q349 985 412 985 Q501 986 554.5 1029 Q608 1072 608 1143 Q608 1220 549 1265 Q490 1310 389 1310 Q152 1310 147 1075 L110 1075 Z M1341 1329 L485 0 L443 0 L1297 1329 L1341 1329 Z M1696 236 L1696 200 L1553 200 L1553 0 L1514 0 L1514 200 L1113 200 L1113 236 L1510 783 L1553 783 L1553 236 L1696 236 Z M1514 236 L1514 729 L1157 236 L1514 236 Z " />
<glyph glyph-name="questiondown" unicode="&#xbf;" horiz-adv-x="1006" d="M890 152 Q890 -10 832 -114 Q782 -202 689.5 -251.5 Q597 -301 480 -301 Q294 -301 189 -193 Q95 -96 95 32 Q95 151 182 260 Q205 289 334 410 Q429 500 449 549 Q469 598 471 746 L511 746 Q511 628 500 582 Q487 525 458 485.5 Q429 446 344 370 Q228 266 181 190.5 Q134 115 134 32 Q134 -98 232 -181.5 Q330 -265 481 -265 Q634 -265 732 -176 Q796 -118 822.5 -46 Q849 26 852 152 L890 152 Z M491 1002 Q509 1002 521.5 987.5 Q534 973 534 952 Q534 932 521.5 917.5 Q509 903 490 903 Q472 903 459 917.5 Q446 932 446 953 Q446 973 459 987.5 Q472 1002 491 1002 Z " />
<glyph glyph-name="Agrave" unicode="&#xc0;" horiz-adv-x="1200" d="M625 1365 L1172 0 L1129 0 L949 451 L254 451 L71 0 L27 0 L587 1365 L625 1365 Z M935 487 L634 1240 Q622 1271 606 1323 Q600 1308 587 1275 L575 1246 L268 487 L935 487 Z M337 1722 L394 1722 L672 1481 L620 1481 L337 1722 Z " />
<glyph glyph-name="Aacute" unicode="&#xc1;" horiz-adv-x="1200" d="M625 1365 L1172 0 L1129 0 L949 451 L254 451 L71 0 L27 0 L587 1365 L625 1365 Z M935 487 L634 1240 Q622 1271 606 1323 Q600 1308 587 1275 L575 1246 L268 487 L935 487 Z M863 1722 L579 1481 L528 1481 L806 1722 L863 1722 Z " />
<glyph glyph-name="Acircumflex" unicode="&#xc2;" horiz-adv-x="1200" d="M625 1365 L1172 0 L1129 0 L949 451 L254 451 L71 0 L27 0 L587 1365 L625 1365 Z M935 487 L634 1240 Q622 1271 606 1323 Q600 1308 587 1275 L575 1246 L268 487 L935 487 Z M883 1481 L829 1481 L606 1694 L384 1481 L331 1481 L581 1728 L632 1728 L883 1481 Z " />
<glyph glyph-name="Atilde" unicode="&#xc3;" horiz-adv-x="1200" d="M625 1365 L1172 0 L1129 0 L949 451 L254 451 L71 0 L27 0 L587 1365 L625 1365 Z M935 487 L634 1240 Q622 1271 606 1323 Q600 1308 587 1275 L575 1246 L268 487 L935 487 Z M878 1668 Q845 1524 746 1524 Q693 1524 622 1578 Q572 1617 548.5 1629 Q525 1641 500 1641 Q421 1641 401 1524 L362 1524 Q375 1595 412 1636 Q449 1677 500 1677 Q551 1677 629 1617 Q704 1560 747 1560 Q811 1560 840 1668 L878 1668 Z " />
<glyph glyph-name="Adieresis" unicode="&#xc4;" horiz-adv-x="1200" d="M625 1365 L1172 0 L1129 0 L949 451 L254 451 L71 0 L27 0 L587 1365 L625 1365 Z M935 487 L634 1240 Q622 1271 606 1323 Q600 1308 587 1275 L575 1246 L268 487 L935 487 Z M800 1660 Q818 1660 830.5 1645.5 Q843 1631 843 1611 Q843 1590 830.5 1575.5 Q818 1561 799 1561 Q781 1561 768 1575.5 Q755 1590 755 1611 Q755 1631 768 1645.5 Q781 1660 800 1660 Z M417 1660 Q435 1660 447.5 1645.5 Q460 1631 460 1611 Q460 1590 447.5 1575.5 Q435 1561 416 1561 Q398 1561 385 1575.5 Q372 1590 372 1611 Q372 1631 385 1645.5 Q398 1660 417 1660 Z " />
<glyph glyph-name="Aring" unicode="&#xc5;" horiz-adv-x="1200" d="M625 1365 L1172 0 L1129 0 L949 451 L254 451 L71 0 L27 0 L587 1365 L625 1365 Z M935 487 L634 1240 Q622 1271 606 1323 Q600 1308 587 1275 L575 1246 L268 487 L935 487 Z M609 1800 Q681 1800 732 1744 Q776 1696 776 1631 Q776 1555 720 1505 Q671 1461 606 1461 Q531 1461 481 1517 Q437 1566 437 1632 Q437 1702 487.5 1751 Q538 1800 609 1800 Z M608 1762 Q553 1762 514 1724 Q475 1686 475 1632 Q475 1576 513.5 1537.5 Q552 1499 606 1499 Q661 1499 699.5 1537.5 Q738 1576 738 1631 Q738 1684 699.5 1723 Q661 1762 608 1762 Z " />
<glyph glyph-name="AE" unicode="&#xc6;" horiz-adv-x="1726" d="M1645 1365 L1645 1329 L891 1329 L891 723 L1582 723 L1582 687 L891 687 L891 36 L1645 36 L1645 0 L852 0 L852 527 L336 527 L58 0 L14 0 L739 1365 L1645 1365 Z M852 563 L852 1332 L761 1332 L354 563 L852 563 Z " />
<glyph glyph-name="Ccedilla" unicode="&#xc7;" horiz-adv-x="1399" d="M1316 536 Q1299 291 1134.5 134.5 Q970 -22 721 -30 L658 -124 Q705 -117 731 -117 Q790 -117 828.5 -148.5 Q867 -180 867 -229 Q867 -290 815 -330 Q763 -370 683 -370 Q611 -370 514 -331 L528 -296 Q621 -332 684 -332 Q745 -332 786.5 -303.5 Q828 -275 828 -233 Q828 -198 796.5 -174.5 Q765 -151 718 -151 Q677 -151 619 -173 L589 -153 L675 -30 Q402 -3 243 206 Q102 392 102 676 Q102 960 241 1149 Q423 1396 731 1396 Q996 1396 1158 1220 Q1212 1161 1242 1102 Q1272 1043 1293 954 L1254 954 Q1229 1062 1173 1142 Q1093 1256 967 1312 Q857 1360 732 1360 Q546 1360 400 1257 Q273 1167 207 1020.5 Q141 874 141 682 Q141 407 271 234 Q441 8 717 8 Q988 8 1151 210 Q1268 355 1277 536 L1316 536 Z " />
<glyph glyph-name="Egrave" unicode="&#xc8;" horiz-adv-x="1170" d="M1080 1365 L1080 1329 L210 1329 L210 730 L1029 730 L1029 694 L210 694 L210 36 L1089 36 L1089 0 L171 0 L171 1365 L1080 1365 Z M432 1722 L489 1722 L767 1481 L715 1481 L432 1722 Z " />
<glyph glyph-name="Eacute" unicode="&#xc9;" horiz-adv-x="1170" d="M1080 1365 L1080 1329 L210 1329 L210 730 L1029 730 L1029 694 L210 694 L210 36 L1080 36 L1080 0 L171 0 L171 1365 L1080 1365 Z M883 1722 L599 1481 L548 1481 L826 1722 L883 1722 Z " />
<glyph glyph-name="Ecircumflex" unicode="&#xca;" horiz-adv-x="1170" d="M1080 1365 L1080 1329 L210 1329 L210 730 L1029 730 L1029 694 L210 694 L210 36 L1089 36 L1089 0 L171 0 L171 1365 L1080 1365 Z M906 1481 L853 1481 L630 1694 L407 1481 L354 1481 L605 1728 L655 1728 L906 1481 Z " />
<glyph glyph-name="Edieresis" unicode="&#xcb;" horiz-adv-x="1170" d="M1080 1365 L1080 1329 L210 1329 L210 730 L1029 730 L1029 694 L210 694 L210 36 L1089 36 L1089 0 L171 0 L171 1365 L1080 1365 Z M820 1660 Q838 1660 850.5 1645.5 Q863 1631 863 1611 Q863 1590 850.5 1575.5 Q838 1561 819 1561 Q801 1561 788 1575.5 Q775 1590 775 1611 Q775 1631 788 1645.5 Q801 1660 820 1660 Z M437 1660 Q455 1660 467.5 1645.5 Q480 1631 480 1611 Q480 1590 467.5 1575.5 Q455 1561 436 1561 Q418 1561 405 1575.5 Q392 1590 392 1611 Q392 1631 405 1645.5 Q418 1660 437 1660 Z " />
<glyph glyph-name="Igrave" unicode="&#xcc;" horiz-adv-x="381" d="M210 1365 L210 0 L171 0 L171 1365 L210 1365 Z M-22 1722 L31 1722 L250 1481 L207 1481 L-22 1722 Z " />
<glyph glyph-name="Iacute" unicode="&#xcd;" horiz-adv-x="381" d="M209 1365 L209 0 L170 0 L170 1365 L209 1365 Z M405 1722 L176 1481 L133 1481 L352 1722 L405 1722 Z " />
<glyph glyph-name="Icircumflex" unicode="&#xce;" horiz-adv-x="380" d="M210 1365 L210 0 L171 0 L171 1365 L210 1365 Z M418 1481 L371 1481 L190 1698 L10 1481 L-38 1481 L165 1728 L215 1728 L418 1481 Z " />
<glyph glyph-name="Idieresis" unicode="&#xcf;" horiz-adv-x="381" d="M210 1365 L210 0 L171 0 L171 1365 L210 1365 Z M312 1661 Q330 1661 342.5 1646.5 Q355 1632 355 1612 Q355 1591 342.5 1576.5 Q330 1562 311 1562 Q293 1562 280 1576.5 Q267 1591 267 1612 Q267 1632 280 1646.5 Q293 1661 312 1661 Z M73 1661 Q91 1661 103.5 1646.5 Q116 1632 116 1612 Q116 1591 103.5 1576.5 Q91 1562 72 1562 Q54 1562 41 1576.5 Q28 1591 28 1612 Q28 1632 41 1646.5 Q54 1661 73 1661 Z " />
<glyph glyph-name="Eth" unicode="&#xd0;" horiz-adv-x="1333" d="M171 730 L171 1365 L617 1365 Q886 1365 1039 1220 Q1231 1038 1231 697 Q1231 346 1040 156 Q959 75 855.5 37.5 Q752 0 609 0 L171 0 L171 694 L7 694 L7 730 L171 730 Z M210 730 L649 730 L649 694 L210 694 L210 36 L585 36 Q732 36 828.5 67 Q925 98 1002 169 Q1192 346 1192 695 Q1192 1006 1029 1178 Q953 1258 853.5 1293.5 Q754 1329 608 1329 L210 1329 L210 730 Z " />
<glyph glyph-name="Ntilde" unicode="&#xd1;" horiz-adv-x="1375" d="M1205 1365 L1205 0 L1159 0 L268 1237 L246 1268 Q221 1305 207 1326 Q209 1307 209 1288 Q209 1269 210 1226 L210 0 L171 0 L171 1365 L222 1365 L1079 175 Q1083 169 1105 138 Q1116 122 1126 107 Q1153 70 1169 46 Q1166 110 1166 214 L1166 1365 L1205 1365 Z M966 1668 Q933 1524 835 1524 Q782 1524 711 1578 Q661 1617 637 1629 Q613 1641 588 1641 Q509 1641 489 1524 L451 1524 Q463 1595 500.5 1636 Q538 1677 589 1677 Q639 1677 718 1617 Q793 1560 836 1560 Q900 1560 928 1668 L966 1668 Z " />
<glyph glyph-name="Ograve" unicode="&#xd2;" horiz-adv-x="1479" d="M744 1396 Q926 1396 1080 1294 Q1236 1190 1311 1013 Q1377 858 1377 668 Q1377 386 1227 198 Q1045 -31 735 -31 Q429 -31 255 195 Q102 394 102 679 Q102 997 273 1189 Q457 1396 744 1396 Z M747 1360 Q477 1360 304 1163 Q142 978 142 684 Q142 411 285 223 Q450 5 735 5 Q1026 5 1198 223 Q1338 400 1338 671 Q1338 974 1175 1161 Q1002 1360 747 1360 Z M531 1722 L588 1722 L866 1481 L814 1481 L531 1722 Z " />
<glyph glyph-name="Oacute" unicode="&#xd3;" horiz-adv-x="1479" d="M744 1396 Q926 1396 1080 1294 Q1236 1190 1311 1013 Q1377 858 1377 668 Q1377 386 1227 198 Q1045 -31 735 -31 Q429 -31 255 195 Q102 394 102 679 Q102 997 273 1189 Q457 1396 744 1396 Z M747 1360 Q477 1360 304 1163 Q142 978 142 684 Q142 411 285 223 Q450 5 735 5 Q1026 5 1198 223 Q1338 400 1338 671 Q1338 974 1175 1161 Q1002 1360 747 1360 Z M982 1722 L698 1481 L647 1481 L925 1722 L982 1722 Z " />
<glyph glyph-name="Ocircumflex" unicode="&#xd4;" horiz-adv-x="1479" d="M744 1396 Q926 1396 1080 1294 Q1236 1190 1311 1013 Q1377 858 1377 668 Q1377 386 1227 198 Q1045 -31 735 -31 Q429 -31 255 195 Q102 394 102 679 Q102 997 273 1189 Q457 1396 744 1396 Z M747 1360 Q477 1360 304 1163 Q142 978 142 684 Q142 411 285 223 Q450 5 735 5 Q1026 5 1198 223 Q1338 400 1338 671 Q1338 974 1175 1161 Q1002 1360 747 1360 Z M1015 1481 L962 1481 L739 1694 L517 1481 L463 1481 L714 1728 L764 1728 L1015 1481 Z " />
<glyph glyph-name="Otilde" unicode="&#xd5;" horiz-adv-x="1479" d="M744 1396 Q926 1396 1080 1294 Q1236 1190 1311 1013 Q1377 858 1377 668 Q1377 386 1227 198 Q1045 -31 735 -31 Q429 -31 255 195 Q102 394 102 679 Q102 997 273 1189 Q457 1396 744 1396 Z M747 1360 Q477 1360 304 1163 Q142 978 142 684 Q142 411 285 223 Q450 5 735 5 Q1026 5 1198 223 Q1338 400 1338 671 Q1338 974 1175 1161 Q1002 1360 747 1360 Z M1011 1668 Q978 1524 879 1524 Q826 1524 755 1578 Q705 1617 681 1629 Q657 1641 632 1641 Q554 1641 533 1524 L495 1524 Q508 1595 545 1636 Q582 1677 633 1677 Q684 1677 762 1617 Q837 1560 880 1560 Q944 1560 973 1668 L1011 1668 Z " />
<glyph glyph-name="Odieresis" unicode="&#xd6;" horiz-adv-x="1479" d="M744 1396 Q926 1396 1080 1294 Q1236 1190 1311 1013 Q1377 858 1377 668 Q1377 386 1227 198 Q1045 -31 735 -31 Q429 -31 255 195 Q102 394 102 679 Q102 997 273 1189 Q457 1396 744 1396 Z M747 1360 Q477 1360 304 1163 Q142 978 142 684 Q142 411 285 223 Q450 5 735 5 Q1026 5 1198 223 Q1338 400 1338 671 Q1338 974 1175 1161 Q1002 1360 747 1360 Z M933 1661 Q951 1661 963.5 1646.5 Q976 1632 976 1612 Q976 1591 963.5 1576.5 Q951 1562 932 1562 Q914 1562 901 1576.5 Q888 1591 888 1612 Q888 1632 901 1646.5 Q914 1661 933 1661 Z M550 1661 Q568 1661 580.5 1646.5 Q593 1632 593 1612 Q593 1591 580.5 1576.5 Q568 1562 549 1562 Q531 1562 518 1576.5 Q505 1591 505 1612 Q505 1632 518 1646.5 Q531 1661 550 1661 Z " />
<glyph glyph-name="multiply" unicode="&#xd7;" horiz-adv-x="1174" d="M243 1023 L587 680 L934 1027 L962 998 L615 652 L959 308 L931 279 L587 624 L240 277 L212 305 L559 652 L215 996 L243 1023 Z " />
<glyph glyph-name="Oslash" unicode="&#xd8;" horiz-adv-x="1479" d="M1341 1328 L1207 1182 Q1297 1071 1336.5 949.5 Q1376 828 1376 664 Q1376 382 1227 198 Q1041 -32 736 -32 Q592 -32 486 14 Q380 60 279 165 L142 7 L116 33 L256 192 Q102 394 102 677 Q102 994 270 1188 Q452 1396 732 1396 Q1004 1396 1183 1208 L1314 1352 L1341 1328 Z M1159 1180 Q1089 1248 1036 1281 Q906 1360 731 1360 Q454 1360 282 1143 Q141 965 141 673 Q141 408 285 222 L1159 1180 Z M1182 1152 L307 195 Q475 4 736 4 Q1012 4 1187 210 Q1337 387 1337 666 Q1337 820 1300.5 934 Q1264 1048 1182 1152 Z " />
<glyph glyph-name="Ugrave" unicode="&#xd9;" horiz-adv-x="1316" d="M1166 1365 L1166 511 Q1166 304 1090 182 Q960 -29 668 -29 Q341 -29 214 205 Q150 321 150 517 L150 1365 L189 1365 L189 513 Q189 393 210 315 Q231 237 281 171 Q405 7 668 7 Q894 7 1010.5 136 Q1127 265 1127 515 L1127 1365 L1166 1365 Z M422 1722 L479 1722 L757 1481 L706 1481 L422 1722 Z " />
<glyph glyph-name="Uacute" unicode="&#xda;" horiz-adv-x="1316" d="M1166 1365 L1166 511 Q1166 304 1090 182 Q960 -29 668 -29 Q341 -29 214 205 Q150 321 150 517 L150 1365 L189 1365 L189 513 Q189 393 210 315 Q231 237 281 171 Q405 7 668 7 Q894 7 1010.5 136 Q1127 265 1127 515 L1127 1365 L1166 1365 Z M901 1722 L617 1481 L565 1481 L844 1722 L901 1722 Z " />
<glyph glyph-name="Ucircumflex" unicode="&#xdb;" horiz-adv-x="1316" d="M1166 1365 L1166 511 Q1166 304 1090 182 Q960 -29 668 -29 Q341 -29 214 205 Q150 321 150 517 L150 1365 L189 1365 L189 513 Q189 393 210 315 Q231 237 281 171 Q405 7 668 7 Q894 7 1010.5 136 Q1127 265 1127 515 L1127 1365 L1166 1365 Z M934 1481 L881 1481 L658 1694 L435 1481 L382 1481 L633 1728 L683 1728 L934 1481 Z " />
<glyph glyph-name="Udieresis" unicode="&#xdc;" horiz-adv-x="1316" d="M1166 1365 L1166 511 Q1166 304 1090 182 Q960 -29 668 -29 Q341 -29 214 205 Q150 321 150 517 L150 1365 L189 1365 L189 513 Q189 393 210 315 Q231 237 281 171 Q405 7 668 7 Q894 7 1010.5 136 Q1127 265 1127 515 L1127 1365 L1166 1365 Z M852 1661 Q870 1661 882.5 1646.5 Q895 1632 895 1612 Q895 1591 882.5 1576.5 Q870 1562 851 1562 Q833 1562 820 1576.5 Q807 1591 807 1612 Q807 1632 820 1646.5 Q833 1661 852 1661 Z M469 1661 Q487 1661 499.5 1646.5 Q512 1632 512 1612 Q512 1591 499.5 1576.5 Q487 1562 468 1562 Q450 1562 437 1576.5 Q424 1591 424 1612 Q424 1632 437 1646.5 Q450 1661 469 1661 Z " />
<glyph glyph-name="Yacute" unicode="&#xdd;" horiz-adv-x="1153" d="M1153 1365 L593 574 L593 0 L554 0 L554 575 L0 1365 L44 1365 L526 682 Q552 645 574 612 L621 679 L1110 1365 L1153 1365 Z M826 1722 L543 1481 L491 1481 L769 1722 L826 1722 Z " />
<glyph glyph-name="Thorn" unicode="&#xde;" horiz-adv-x="1216" d="M210 405 L210 0 L171 0 L171 1365 L210 1365 L210 1147 L703 1147 Q807 1147 872 1133.5 Q937 1120 987 1087 Q1060 1040 1100.5 958 Q1141 876 1141 776 Q1141 607 1030 506 Q919 405 733 405 L210 405 Z M210 1111 L210 441 L673 441 Q780 441 831.5 449.5 Q883 458 933 485 Q1102 575 1102 775 Q1102 962 971 1052 Q922 1086 865 1098.5 Q808 1111 701 1111 L210 1111 Z " />
<glyph glyph-name="germandbls" unicode="&#xdf;" horiz-adv-x="1015" d="M439 36 Q480 35 491 35 Q609 35 673.5 54 Q738 73 785 122 Q883 224 883 399 Q883 671 646 728 Q572 745 439 746 L439 784 Q463 783 471 783 Q632 783 720 858 Q811 936 811 1072 Q811 1188 737 1268 Q645 1367 496 1367 Q353 1367 274.5 1289.5 Q196 1212 196 1072 L196 0 L157 0 L157 1014 Q157 1179 194 1247 Q233 1319 313.5 1360.5 Q394 1402 496 1402 Q646 1402 744 1314 Q850 1218 850 1066 Q850 900 727 816 Q685 788 604 768 Q684 761 745 730 Q922 639 922 397 Q922 193 795 81 Q744 36 679 17.5 Q614 -1 507 -1 Q487 -1 439 0 L439 36 Z " />
<glyph glyph-name="agrave" unicode="&#xe0;" horiz-adv-x="991" d="M335 1394 L597 1126 L549 1126 L285 1394 L335 1394 Z M946 40 L946 5 Q937 4 933 3 Q918 2 905 2 Q847 2 821 26 Q795 50 795 104 L795 143 L795 213 Q749 97 645 34 Q541 -29 395 -29 Q244 -29 162.5 41.5 Q81 112 81 243 Q81 320 113 372 Q145 424 216 462 Q299 507 574 541 Q694 556 736 584 Q795 622 795 720 Q795 973 483 973 Q349 973 268 907 Q229 875 210 836.5 Q191 798 180 729 L131 729 Q154 879 246 943 Q338 1009 501 1009 Q834 1009 834 708 L834 87 Q834 37 901 37 Q921 37 946 40 Z M788 575 Q760 542 720.5 530.5 Q681 519 538 501 Q300 470 215 416 Q165 383 143 341.5 Q121 300 121 237 Q121 135 195.5 71.5 Q270 8 389 8 Q550 8 663 92 Q795 189 795 335 L795 575 L788 575 Z " />
<glyph glyph-name="aacute" unicode="&#xe1;" horiz-adv-x="991" d="M717 1394 L454 1126 L410 1126 L666 1394 L717 1394 Z M946 40 L946 5 Q937 4 933 3 Q918 2 905 2 Q847 2 821 26 Q795 50 795 104 L795 143 L795 213 Q749 97 645 34 Q541 -29 395 -29 Q244 -29 162.5 41.5 Q81 112 81 243 Q81 320 113 372 Q145 424 216 462 Q299 507 574 541 Q694 556 736 584 Q795 622 795 720 Q795 973 483 973 Q349 973 268 907 Q229 875 210 836.5 Q191 798 180 729 L131 729 Q154 879 246 943 Q338 1009 501 1009 Q834 1009 834 708 L834 87 Q834 37 901 37 Q921 37 946 40 Z M788 575 Q760 542 720.5 530.5 Q681 519 538 501 Q300 470 215 416 Q165 383 143 341.5 Q121 300 121 237 Q121 135 195.5 71.5 Q270 8 389 8 Q550 8 663 92 Q795 189 795 335 L795 575 L788 575 Z " />
<glyph glyph-name="acircumflex" unicode="&#xe2;" horiz-adv-x="991" d="M743 1126 L691 1126 L499 1363 L311 1126 L261 1126 L477 1394 L527 1394 L743 1126 Z M946 40 L946 5 Q937 4 933 3 Q918 2 905 2 Q847 2 821 26 Q795 50 795 104 L795 143 L795 213 Q749 97 645 34 Q541 -29 395 -29 Q244 -29 162.5 41.5 Q81 112 81 243 Q81 320 113 372 Q145 424 216 462 Q299 507 574 541 Q694 556 736 584 Q795 622 795 720 Q795 973 483 973 Q349 973 268 907 Q229 875 210 836.5 Q191 798 180 729 L131 729 Q154 879 246 943 Q338 1009 501 1009 Q834 1009 834 708 L834 87 Q834 37 901 37 Q921 37 946 40 Z M788 575 Q760 542 720.5 530.5 Q681 519 538 501 Q300 470 215 416 Q165 383 143 341.5 Q121 300 121 237 Q121 135 195.5 71.5 Q270 8 389 8 Q550 8 663 92 Q795 189 795 335 L795 575 L788 575 Z " />
<glyph glyph-name="atilde" unicode="&#xe3;" horiz-adv-x="991" d="M741 1334 Q712 1188 619 1188 Q570 1188 504 1242 Q458 1280 436 1292.5 Q414 1305 391 1305 Q321 1305 302 1190 L263 1190 Q275 1260 309.5 1301 Q344 1342 391 1342 Q439 1342 511 1282 Q579 1224 620 1224 Q678 1224 703 1334 L741 1334 Z M946 40 L946 5 Q937 4 933 3 Q918 2 905 2 Q847 2 821 26 Q795 50 795 104 L795 143 L795 213 Q749 97 645 34 Q541 -29 395 -29 Q244 -29 162.5 41.5 Q81 112 81 243 Q81 320 113 372 Q145 424 216 462 Q299 507 574 541 Q694 556 736 584 Q795 622 795 720 Q795 973 483 973 Q349 973 268 907 Q229 875 210 836.5 Q191 798 180 729 L131 729 Q154 879 246 943 Q338 1009 501 1009 Q834 1009 834 708 L834 87 Q834 37 901 37 Q921 37 946 40 Z M788 575 Q760 542 720.5 530.5 Q681 519 538 501 Q300 470 215 416 Q165 383 143 341.5 Q121 300 121 237 Q121 135 195.5 71.5 Q270 8 389 8 Q550 8 663 92 Q795 189 795 335 L795 575 L788 575 Z " />
<glyph glyph-name="adieresis" unicode="&#xe4;" horiz-adv-x="991" d="M661 1317 Q679 1317 691.5 1302.5 Q704 1288 704 1267 Q704 1247 691 1232.5 Q678 1218 660 1218 Q642 1218 629 1232.5 Q616 1247 616 1268 Q616 1288 629 1302.5 Q642 1317 661 1317 Z M340 1317 Q358 1317 370.5 1302.5 Q383 1288 383 1267 Q383 1247 370 1232.5 Q357 1218 339 1218 Q321 1218 308 1232.5 Q295 1247 295 1268 Q295 1288 308 1302.5 Q321 1317 340 1317 Z M946 40 L946 5 Q937 4 933 3 Q918 2 905 2 Q847 2 821 26 Q795 50 795 104 L795 143 L795 213 Q749 97 645 34 Q541 -29 395 -29 Q244 -29 162.5 41.5 Q81 112 81 243 Q81 320 113 372 Q145 424 216 462 Q299 507 574 541 Q694 556 736 584 Q795 622 795 720 Q795 973 483 973 Q349 973 268 907 Q229 875 210 836.5 Q191 798 180 729 L131 729 Q154 879 246 943 Q338 1009 501 1009 Q834 1009 834 708 L834 87 Q834 37 901 37 Q921 37 946 40 Z M788 575 Q760 542 720.5 530.5 Q681 519 538 501 Q300 470 215 416 Q165 383 143 341.5 Q121 300 121 237 Q121 135 195.5 71.5 Q270 8 389 8 Q550 8 663 92 Q795 189 795 335 L795 575 L788 575 Z " />
<glyph glyph-name="aring" unicode="&#xe5;" horiz-adv-x="991" d="M501 1451 Q573 1451 623 1395 Q667 1347 667 1282 Q667 1207 611 1156 Q563 1113 498 1113 Q423 1113 372 1169 Q329 1217 329 1283 Q329 1353 379 1402 Q429 1451 501 1451 Z M500 1413 Q445 1413 406 1375 Q367 1337 367 1283 Q367 1228 405 1189.5 Q443 1151 498 1151 Q552 1151 590.5 1189.5 Q629 1228 629 1282 Q629 1335 590.5 1374 Q552 1413 500 1413 Z M946 40 L946 5 Q937 4 933 3 Q918 2 905 2 Q847 2 821 26 Q795 50 795 104 L795 143 L795 213 Q749 97 645 34 Q541 -29 395 -29 Q244 -29 162.5 41.5 Q81 112 81 243 Q81 320 113 372 Q145 424 216 462 Q299 507 574 541 Q694 556 736 584 Q795 622 795 720 Q795 973 483 973 Q349 973 268 907 Q229 875 210 836.5 Q191 798 180 729 L131 729 Q154 879 246 943 Q338 1009 501 1009 Q834 1009 834 708 L834 87 Q834 37 901 37 Q921 37 946 40 Z M788 575 Q760 542 720.5 530.5 Q681 519 538 501 Q300 470 215 416 Q165 383 143 341.5 Q121 300 121 237 Q121 135 195.5 71.5 Q270 8 389 8 Q550 8 663 92 Q795 189 795 335 L795 575 L788 575 Z " />
<glyph glyph-name="ae" unicode="&#xe6;" horiz-adv-x="1742" d="M829 289 Q803 195 771 148 Q713 63 615.5 17 Q518 -29 395 -29 Q244 -29 162.5 41.5 Q81 112 81 243 Q81 320 113.5 372 Q146 424 216 462 Q299 506 574 541 Q694 556 736 583 Q795 621 795 719 Q795 973 483 973 Q349 973 268 907 Q229 875 210 836.5 Q191 798 180 729 L131 729 Q154 878 246 943 Q338 1009 501 1009 Q669 1009 753 935 Q793 899 811.5 847.5 Q830 796 836 703 Q878 828 948 895 Q1063 1006 1236 1006 Q1438 1006 1555 861 Q1660 729 1660 529 Q1660 514 1659 488 L842 488 Q845 328 878 247 Q923 133 1018 71 Q1112 8 1237 8 Q1373 8 1471 82 Q1577 163 1609 334 L1644 334 Q1624 197 1551 112 Q1433 -28 1231 -28 Q1081 -28 973.5 56.5 Q866 141 829 289 Z M1623 524 Q1622 690 1554 798 Q1445 970 1239 970 Q1104 970 1006 896 Q848 776 842 524 L1623 524 Z M788 574 Q760 542 720.5 530.5 Q681 519 538 501 Q301 471 215 416 Q165 383 143 341.5 Q121 300 121 237 Q121 135 195.5 71.5 Q270 8 389 8 Q551 8 663 92 Q795 190 795 335 L795 574 L788 574 Z " />
<glyph glyph-name="ccedilla" unicode="&#xe7;" horiz-adv-x="1014" d="M933 338 Q911 167 800.5 69 Q690 -29 520 -27 L457 -120 Q504 -111 532 -111 Q591 -111 630 -143 Q669 -175 669 -224 Q669 -288 618 -327 Q567 -366 483 -366 Q418 -366 316 -328 L330 -292 Q418 -331 483 -331 Q548 -331 587.5 -304 Q627 -277 627 -233 Q627 -195 596.5 -170.5 Q566 -146 519 -146 Q477 -146 417 -171 L392 -149 L478 -27 Q380 -13 324 17 Q217 74 154.5 199 Q92 324 92 481 Q92 736 229 881 Q348 1006 538 1006 Q697 1006 799.5 921 Q902 836 922 686 L885 686 Q866 790 818 849 Q722 971 536 971 Q334 971 223 815 Q131 685 131 487 Q131 294 221 161 Q326 6 524 6 Q678 6 777 94.5 Q876 183 895 338 L933 338 Z " />
<glyph glyph-name="egrave" unicode="&#xe8;" horiz-adv-x="1035" d="M943 346 Q925 234 875 157 Q756 -27 531 -27 Q326 -27 206 122 Q93 263 93 485 Q93 728 224 872 Q346 1006 533 1006 Q678 1006 783 921 Q874 848 914.5 746.5 Q955 645 953 493 L135 493 Q135 364 166 275 Q209 155 297 86 Q395 8 531 8 Q679 8 777 97 Q875 186 903 346 L943 346 Z M913 529 Q911 623 896 681.5 Q881 740 843 800 Q735 971 534 971 Q385 971 276 873 Q211 814 178 734.5 Q145 655 134 529 L913 529 Z M378 1394 L640 1126 L592 1126 L328 1394 L378 1394 Z " />
<glyph glyph-name="eacute" unicode="&#xe9;" horiz-adv-x="1035" d="M943 346 Q925 234 875 157 Q756 -27 531 -27 Q326 -27 206 122 Q93 263 93 485 Q93 728 224 872 Q346 1006 533 1006 Q678 1006 783 921 Q874 848 914.5 746.5 Q955 645 953 493 L135 493 Q135 364 166 275 Q209 155 297 86 Q395 8 531 8 Q679 8 777 97 Q875 186 903 346 L943 346 Z M913 529 Q911 623 896 681.5 Q881 740 843 800 Q735 971 534 971 Q385 971 276 873 Q211 814 178 734.5 Q145 655 134 529 L913 529 Z M760 1394 L497 1126 L453 1126 L709 1394 L760 1394 Z " />
<glyph glyph-name="ecircumflex" unicode="&#xea;" horiz-adv-x="1035" d="M943 346 Q925 234 875 157 Q756 -27 531 -27 Q326 -27 206 122 Q93 263 93 485 Q93 728 224 872 Q346 1006 533 1006 Q678 1006 783 921 Q874 848 914.5 746.5 Q955 645 953 493 L135 493 Q135 364 166 275 Q209 155 297 86 Q395 8 531 8 Q679 8 777 97 Q875 186 903 346 L943 346 Z M913 529 Q911 623 896 681.5 Q881 740 843 800 Q735 971 534 971 Q385 971 276 873 Q211 814 178 734.5 Q145 655 134 529 L913 529 Z M780 1126 L727 1126 L536 1363 L347 1126 L297 1126 L514 1394 L563 1394 L780 1126 Z " />
<glyph glyph-name="edieresis" unicode="&#xeb;" horiz-adv-x="1035" d="M943 346 Q925 234 875 157 Q756 -27 531 -27 Q326 -27 206 122 Q93 263 93 485 Q93 728 224 872 Q346 1006 533 1006 Q678 1006 783 921 Q874 848 914.5 746.5 Q955 645 953 493 L135 493 Q135 364 166 275 Q209 155 297 86 Q395 8 531 8 Q679 8 777 97 Q875 186 903 346 L943 346 Z M913 529 Q911 623 896 681.5 Q881 740 843 800 Q735 971 534 971 Q385 971 276 873 Q211 814 178 734.5 Q145 655 134 529 L913 529 Z M701 1317 Q719 1317 731.5 1302.5 Q744 1288 744 1267 Q744 1247 731 1232.5 Q718 1218 700 1218 Q682 1218 669 1232.5 Q656 1247 656 1268 Q656 1288 669 1302.5 Q682 1317 701 1317 Z M380 1317 Q398 1317 410.5 1302.5 Q423 1288 423 1267 Q423 1247 410 1232.5 Q397 1218 379 1218 Q361 1218 348 1232.5 Q335 1247 335 1268 Q335 1288 348 1302.5 Q361 1317 380 1317 Z " />
<glyph glyph-name="igrave" unicode="&#xec;" horiz-adv-x="353" d="M196 979 L196 0 L157 0 L157 979 L196 979 Z M-32 1394 L16 1394 L232 1126 L190 1126 L-32 1394 Z " />
<glyph glyph-name="iacute" unicode="&#xed;" horiz-adv-x="353" d="M196 979 L196 0 L157 0 L157 979 L196 979 Z M387 1394 L164 1126 L123 1126 L338 1394 L387 1394 Z " />
<glyph glyph-name="icircumflex" unicode="&#xee;" horiz-adv-x="353" d="M196 979 L196 0 L157 0 L157 979 L196 979 Z M383 1126 L335 1126 L173 1363 L18 1126 L-31 1126 L151 1394 L201 1394 L383 1126 Z " />
<glyph glyph-name="idieresis" unicode="&#xef;" horiz-adv-x="353" d="M196 979 L196 0 L157 0 L157 979 L196 979 Z M285 1317 Q303 1317 315.5 1302.5 Q328 1288 328 1267 Q328 1247 315 1232.5 Q302 1218 284 1218 Q266 1218 253 1232.5 Q240 1247 240 1268 Q240 1288 253 1302.5 Q266 1317 285 1317 Z M73 1317 Q91 1317 103.5 1302.5 Q116 1288 116 1267 Q116 1247 103 1232.5 Q90 1218 72 1218 Q54 1218 41 1232.5 Q28 1247 28 1268 Q28 1288 41 1302.5 Q54 1317 73 1317 Z " />
<glyph glyph-name="eth" unicode="&#xf0;" horiz-adv-x="1070" d="M436 1141 L594 1219 L506 1362 L540 1382 L633 1238 L808 1322 L824 1291 L652 1206 L777 1002 Q896 819 923 760 Q978 636 978 483 Q978 241 856 106 Q736 -27 535 -27 Q317 -27 199 132 Q93 273 93 492 Q93 718 212 859 Q336 1006 543 1006 Q605 1006 650 994 Q695 982 761 949 L613 1188 L455 1109 L436 1141 Z M544 971 Q349 971 235 827 Q132 698 132 489 Q132 279 231 152 Q344 8 538 8 Q735 8 844 155 Q939 282 939 481 Q939 679 849 812 Q795 893 708 934 Q630 971 544 971 Z " />
<glyph glyph-name="ntilde" unicode="&#xf1;" horiz-adv-x="1067" d="M196 979 L196 735 Q227 827 276 881 Q387 1006 566 1006 Q742 1006 843 888 Q896 826 908 754 Q917 703 917 620 L917 0 L878 0 L878 616 Q878 751 842 821 Q804 895 725 934 Q651 971 565 971 Q419 971 321 881 Q196 768 196 523 L196 0 L157 0 L157 979 L196 979 Z M772 1334 Q743 1188 651 1188 Q601 1188 536 1242 Q490 1280 467.5 1292.5 Q445 1305 422 1305 Q353 1305 333 1190 L295 1190 Q307 1260 341 1301 Q375 1342 422 1342 Q470 1342 542 1282 Q611 1224 652 1224 Q709 1224 734 1334 L772 1334 Z " />
<glyph glyph-name="ograve" unicode="&#xf2;" horiz-adv-x="1070" d="M547 1006 Q689 1006 796 925 Q898 847 945 702 Q978 601 978 482 Q978 263 873 129 Q750 -27 535 -27 Q320 -27 200 130 Q93 270 93 487 Q93 707 205 849 Q329 1006 547 1006 Z M544 971 Q349 971 235 827 Q132 698 132 489 Q132 279 231 152 Q344 8 538 8 Q735 8 844 155 Q939 282 939 481 Q939 679 849 812 Q795 893 708 934 Q630 971 544 971 Z M375 1394 L637 1126 L589 1126 L325 1394 L375 1394 Z " />
<glyph glyph-name="oacute" unicode="&#xf3;" horiz-adv-x="1070" d="M547 1006 Q689 1006 796 925 Q898 847 945 702 Q978 601 978 482 Q978 263 873 129 Q750 -27 535 -27 Q320 -27 200 130 Q93 270 93 487 Q93 707 205 849 Q329 1006 547 1006 Z M544 971 Q349 971 235 827 Q132 698 132 489 Q132 279 231 152 Q344 8 538 8 Q735 8 844 155 Q939 282 939 481 Q939 679 849 812 Q795 893 708 934 Q630 971 544 971 Z M764 1394 L501 1126 L457 1126 L713 1394 L764 1394 Z " />
<glyph glyph-name="ocircumflex" unicode="&#xf4;" horiz-adv-x="1070" d="M547 1006 Q689 1006 796 925 Q898 847 945 702 Q978 601 978 482 Q978 263 873 129 Q750 -27 535 -27 Q320 -27 200 130 Q93 270 93 487 Q93 707 205 849 Q329 1006 547 1006 Z M544 971 Q349 971 235 827 Q132 698 132 489 Q132 279 231 152 Q344 8 538 8 Q735 8 844 155 Q939 282 939 481 Q939 679 849 812 Q795 893 708 934 Q630 971 544 971 Z M777 1126 L724 1126 L533 1363 L344 1126 L294 1126 L511 1394 L560 1394 L777 1126 Z " />
<glyph glyph-name="otilde" unicode="&#xf5;" horiz-adv-x="1070" d="M547 1006 Q689 1006 796 925 Q898 847 945 702 Q978 601 978 482 Q978 263 873 129 Q750 -27 535 -27 Q320 -27 200 130 Q93 270 93 487 Q93 707 205 849 Q329 1006 547 1006 Z M544 971 Q349 971 235 827 Q132 698 132 489 Q132 279 231 152 Q344 8 538 8 Q735 8 844 155 Q939 282 939 481 Q939 679 849 812 Q795 893 708 934 Q630 971 544 971 Z M774 1334 Q745 1188 652 1188 Q603 1188 537 1242 Q492 1280 469.5 1292.5 Q447 1305 424 1305 Q354 1305 335 1190 L296 1190 Q309 1260 343 1301 Q377 1342 424 1342 Q472 1342 544 1282 Q613 1224 654 1224 Q711 1224 736 1334 L774 1334 Z " />
<glyph glyph-name="odieresis" unicode="&#xf6;" horiz-adv-x="1070" d="M547 1006 Q689 1006 796 925 Q898 847 945 702 Q978 601 978 482 Q978 263 873 129 Q750 -27 535 -27 Q320 -27 200 130 Q93 270 93 487 Q93 707 205 849 Q329 1006 547 1006 Z M544 971 Q349 971 235 827 Q132 698 132 489 Q132 279 231 152 Q344 8 538 8 Q735 8 844 155 Q939 282 939 481 Q939 679 849 812 Q795 893 708 934 Q630 971 544 971 Z M698 1317 Q716 1317 728.5 1302.5 Q741 1288 741 1267 Q741 1247 728 1232.5 Q715 1218 697 1218 Q679 1218 666 1232.5 Q653 1247 653 1268 Q653 1288 666 1302.5 Q679 1317 698 1317 Z M377 1317 Q395 1317 407.5 1302.5 Q420 1288 420 1267 Q420 1247 407.5 1232.5 Q395 1218 376 1218 Q358 1218 345 1232.5 Q332 1247 332 1268 Q332 1288 345 1302.5 Q358 1317 377 1317 Z " />
<glyph glyph-name="divide" unicode="&#xf7;" horiz-adv-x="1145" d="M114 672 L1030 672 L1030 633 L114 633 L114 672 Z M573 962 Q593 962 607.5 947 Q622 932 622 912 Q622 891 607.5 876.5 Q593 862 572 862 Q551 862 536.5 876.5 Q522 891 522 912 Q522 933 537 947.5 Q552 962 573 962 Z M573 443 Q593 443 607.5 428 Q622 413 622 393 Q622 372 607.5 357.5 Q593 343 572 343 Q551 343 536.5 357.5 Q522 372 522 393 Q522 414 537 428.5 Q552 443 573 443 Z " />
<glyph glyph-name="oslash" unicode="&#xf8;" horiz-adv-x="1070" d="M993 942 L885 831 Q979 690 979 495 Q979 253 864 116 Q744 -27 544 -27 Q336 -27 209 122 L104 8 L79 35 L185 151 Q95 302 95 490 Q95 723 221 867 Q344 1006 544 1006 Q741 1006 866 860 L966 966 L993 942 Z M838 830 Q728 971 540 971 Q342 971 228 815 Q135 687 135 493 Q135 315 213 179 L838 830 Z M858 801 L235 149 Q348 8 544 8 Q736 8 851 166 Q940 288 940 487 Q940 659 858 801 Z " />
<glyph glyph-name="ugrave" unicode="&#xf9;" horiz-adv-x="1054" d="M897 979 L897 0 L858 0 L858 235 Q810 124 754 70 Q654 -27 504 -27 Q415 -27 339 8.5 Q263 44 216 108 Q150 197 150 354 L150 979 L189 979 L189 395 Q189 269 208 210 Q238 115 318 60 Q398 5 506 5 Q661 5 759.5 122 Q858 239 858 424 L858 979 L897 979 Z M367 1394 L628 1126 L581 1126 L316 1394 L367 1394 Z " />
<glyph glyph-name="uacute" unicode="&#xfa;" horiz-adv-x="1054" d="M897 979 L897 0 L858 0 L858 235 Q810 124 754 70 Q654 -27 504 -27 Q415 -27 339 8.5 Q263 44 216 108 Q150 197 150 354 L150 979 L189 979 L189 395 Q189 269 208 210 Q238 115 318 60 Q398 5 506 5 Q661 5 759.5 122 Q858 239 858 424 L858 979 L897 979 Z M749 1394 L486 1126 L442 1126 L698 1394 L749 1394 Z " />
<glyph glyph-name="ucircumflex" unicode="&#xfb;" horiz-adv-x="1054" d="M897 979 L897 0 L858 0 L858 235 Q810 124 754 70 Q654 -27 504 -27 Q415 -27 339 8.5 Q263 44 216 108 Q150 197 150 354 L150 979 L189 979 L189 395 Q189 269 208 210 Q238 115 318 60 Q398 5 506 5 Q661 5 759.5 122 Q858 239 858 424 L858 979 L897 979 Z M765 1126 L712 1126 L521 1363 L332 1126 L282 1126 L499 1394 L548 1394 L765 1126 Z " />
<glyph glyph-name="udieresis" unicode="&#xfc;" horiz-adv-x="1054" d="M897 979 L897 0 L858 0 L858 235 Q810 124 754 70 Q654 -27 504 -27 Q415 -27 339 8.5 Q263 44 216 108 Q150 197 150 354 L150 979 L189 979 L189 395 Q189 269 208 210 Q238 115 318 60 Q398 5 506 5 Q661 5 759.5 122 Q858 239 858 424 L858 979 L897 979 Z M687 1317 Q705 1317 717.5 1302.5 Q730 1288 730 1267 Q730 1247 717 1232.5 Q704 1218 686 1218 Q668 1218 655 1232.5 Q642 1247 642 1268 Q642 1288 655 1302.5 Q668 1317 687 1317 Z M365 1317 Q383 1317 395.5 1302.5 Q408 1288 408 1267 Q408 1247 395 1232.5 Q382 1218 364 1218 Q346 1218 333 1232.5 Q320 1247 320 1268 Q320 1288 333 1302.5 Q346 1317 365 1317 Z " />
<glyph glyph-name="yacute" unicode="&#xfd;" horiz-adv-x="855" d="M842 979 L405 -162 Q365 -265 314.5 -299.5 Q264 -334 154 -334 L125 -334 L125 -300 Q141 -300 148 -300 Q220 -300 259 -287 Q298 -274 322 -242 Q341 -217 384.5 -115.5 Q428 -14 428 5 Q428 8 427 9 L14 979 L57 979 L420 124 L449 48 Q464 99 477 132 L803 979 L842 979 Z M670 1394 L407 1126 L363 1126 L620 1394 L670 1394 Z " />
<glyph glyph-name="thorn" unicode="&#xfe;" horiz-adv-x="1110" d="M157 1365 L196 1365 L196 713 Q238 824 290 881 Q405 1006 585 1006 Q776 1006 890 874 Q1017 728 1017 478 Q1017 280 931 147 Q819 -27 591 -27 Q440 -27 338 52.5 Q236 132 196 281 L196 -341 L157 -341 L157 1365 Z M593 971 Q399 971 289 821 Q197 695 197 488 Q197 281 294 152 Q402 8 592 8 Q736 8 834 92 Q978 214 978 481 Q978 711 869 843 Q764 971 593 971 Z " />
<glyph glyph-name="ydieresis" unicode="&#xff;" horiz-adv-x="855" d="M842 979 L405 -162 Q365 -265 314.5 -299.5 Q264 -334 154 -334 L125 -334 L125 -300 Q141 -300 148 -300 Q220 -300 259 -287 Q298 -274 322 -242 Q341 -217 384.5 -115.5 Q428 -14 428 5 Q428 8 427 9 L14 979 L57 979 L420 124 L449 48 Q464 99 477 132 L803 979 L842 979 Z M591 1317 Q609 1317 621.5 1302.5 Q634 1288 634 1267 Q634 1247 621.5 1232.5 Q609 1218 590 1218 Q572 1218 559 1232.5 Q546 1247 546 1268 Q546 1288 559 1302.5 Q572 1317 591 1317 Z M270 1317 Q288 1317 300.5 1302.5 Q313 1288 313 1267 Q313 1247 300 1232.5 Q287 1218 269 1218 Q251 1218 238 1232.5 Q225 1247 225 1268 Q225 1288 238 1302.5 Q251 1317 270 1317 Z " />
<glyph glyph-name="Amacron" unicode="&#x100;" horiz-adv-x="1200" d="M625 1365 L1172 0 L1129 0 L949 451 L254 451 L71 0 L27 0 L587 1365 L625 1365 Z M935 487 L634 1240 Q622 1271 606 1323 Q600 1308 587 1275 L575 1246 L268 487 L935 487 Z M902 1602 L902 1566 L311 1566 L311 1602 L902 1602 Z " />
<glyph glyph-name="amacron" unicode="&#x101;" horiz-adv-x="991" d="M766 1260 L766 1224 L230 1224 L230 1260 L766 1260 Z M946 40 L946 5 Q937 4 933 3 Q918 2 905 2 Q847 2 821 26 Q795 50 795 104 L795 143 L795 213 Q749 97 645 34 Q541 -29 395 -29 Q244 -29 162.5 41.5 Q81 112 81 243 Q81 320 113 372 Q145 424 216 462 Q299 507 574 541 Q694 556 736 584 Q795 622 795 720 Q795 973 483 973 Q349 973 268 907 Q229 875 210 836.5 Q191 798 180 729 L131 729 Q154 879 246 943 Q338 1009 501 1009 Q834 1009 834 708 L834 87 Q834 37 901 37 Q921 37 946 40 Z M788 575 Q760 542 720.5 530.5 Q681 519 538 501 Q300 470 215 416 Q165 383 143 341.5 Q121 300 121 237 Q121 135 195.5 71.5 Q270 8 389 8 Q550 8 663 92 Q795 189 795 335 L795 575 L788 575 Z " />
<glyph glyph-name="Abreve" unicode="&#x102;" horiz-adv-x="1200" d="M625 1365 L1172 0 L1129 0 L949 451 L254 451 L71 0 L27 0 L587 1365 L625 1365 Z M935 487 L634 1240 Q622 1271 606 1323 Q600 1308 587 1275 L575 1246 L268 487 L935 487 Z M848 1713 Q838 1648 812 1604 Q743 1488 607 1488 Q474 1488 404 1596 Q372 1646 365 1713 L404 1713 Q414 1649 440 1611 Q499 1524 609 1524 Q689 1524 741.5 1573.5 Q794 1623 810 1713 L848 1713 Z " />
<glyph glyph-name="abreve" unicode="&#x103;" horiz-adv-x="991" d="M278 1378 L315 1378 Q327 1312 350 1270 Q401 1176 502 1176 Q576 1176 623.5 1227.5 Q671 1279 689 1378 L726 1378 Q718 1307 690 1255 Q628 1140 502 1140 Q410 1140 350 1204 Q290 1268 278 1378 Z M946 40 L946 5 Q937 4 933 3 Q918 2 905 2 Q847 2 821 26 Q795 50 795 104 L795 143 L795 213 Q749 97 645 34 Q541 -29 395 -29 Q244 -29 162.5 41.5 Q81 112 81 243 Q81 320 113 372 Q145 424 216 462 Q299 507 574 541 Q694 556 736 584 Q795 622 795 720 Q795 973 483 973 Q349 973 268 907 Q229 875 210 836.5 Q191 798 180 729 L131 729 Q154 879 246 943 Q338 1009 501 1009 Q834 1009 834 708 L834 87 Q834 37 901 37 Q921 37 946 40 Z M788 575 Q760 542 720.5 530.5 Q681 519 538 501 Q300 470 215 416 Q165 383 143 341.5 Q121 300 121 237 Q121 135 195.5 71.5 Q270 8 389 8 Q550 8 663 92 Q795 189 795 335 L795 575 L788 575 Z " />
<glyph glyph-name="Aogonek" unicode="&#x104;" horiz-adv-x="1200" d="M1172 0 Q1056 -86 1056 -171 Q1056 -223 1098 -256 Q1140 -289 1206 -289 Q1250 -289 1307 -267 L1309 -306 Q1248 -327 1201 -327 Q1116 -327 1064 -281 Q1017 -239 1017 -174 Q1017 -80 1129 0 L949 451 L254 451 L71 0 L27 0 L587 1365 L625 1365 L1172 0 Z M935 487 L634 1240 Q622 1271 606 1323 Q600 1308 587 1275 L575 1246 L268 487 L935 487 Z " />
<glyph glyph-name="aogonek" unicode="&#x105;" horiz-adv-x="991" d="M921 2 Q805 -84 805 -170 Q805 -223 846.5 -256 Q888 -289 954 -289 Q998 -289 1056 -267 L1057 -306 Q996 -327 951 -327 Q864 -327 812 -281 Q766 -239 766 -173 Q766 -92 849 -18 L872 4 Q795 15 795 104 L795 143 L795 213 Q749 97 645 34 Q541 -29 395 -29 Q244 -29 162.5 41.5 Q81 112 81 243 Q81 320 113 372 Q145 424 216 462 Q300 507 574 541 Q694 556 736 584 Q795 622 795 720 Q795 973 483 973 Q349 973 268 907 Q229 875 210 836.5 Q191 798 180 729 L131 729 Q154 879 246 943 Q338 1009 501 1009 Q834 1009 834 708 L834 87 Q834 36 900 36 Q919 36 946 40 L946 5 Q934 3 921 2 Z M788 575 Q760 542 720.5 530.5 Q681 519 538 501 Q300 470 215 416 Q165 383 143 341.5 Q121 300 121 237 Q121 135 195.5 71.5 Q270 8 389 8 Q550 8 663 92 Q795 189 795 335 L795 575 L788 575 Z " />
<glyph glyph-name="Cacute" unicode="&#x106;" horiz-adv-x="1399" d="M1316 535 Q1301 341 1187 192 Q1102 81 977 23 Q858 -31 725 -31 Q579 -31 452.5 31 Q326 93 242 207 Q102 393 102 679 Q102 988 268 1187 Q443 1397 732 1397 Q992 1397 1158 1223 Q1270 1104 1290 954 L1254 954 Q1227 1093 1134 1193 Q979 1361 728 1361 Q447 1361 280 1142 Q141 959 141 680 Q141 409 268 235 Q357 113 491 54 Q602 5 723 5 Q853 5 966 58.5 Q1079 112 1157 210 Q1257 338 1281 535 L1316 535 Z M962 1722 L678 1481 L627 1481 L905 1722 L962 1722 Z " />
<glyph glyph-name="cacute" unicode="&#x107;" horiz-adv-x="1014" d="M933 338 Q917 217 858 133 Q747 -28 531 -28 Q296 -28 178 164 Q93 302 93 489 Q93 602 125 701 Q157 800 215 865 Q339 1006 538 1006 Q699 1006 802 920 Q905 834 923 686 L884 686 Q865 793 815 854 Q718 971 541 971 Q442 971 358.5 930 Q275 889 223 815 Q132 686 132 488 Q132 288 234 150 Q339 8 528 8 Q679 8 776.5 96 Q874 184 894 338 L933 338 Z M757 1394 L493 1126 L449 1126 L706 1394 L757 1394 Z " />
<glyph glyph-name="Ccircumflex" unicode="&#x108;" horiz-adv-x="1399" d="M1316 535 Q1301 341 1187 192 Q1102 81 977 23 Q858 -31 725 -31 Q579 -31 452.5 31 Q326 93 242 207 Q102 393 102 679 Q102 988 268 1187 Q443 1397 732 1397 Q992 1397 1158 1223 Q1270 1104 1290 954 L1254 954 Q1227 1093 1134 1193 Q979 1361 728 1361 Q447 1361 280 1142 Q141 959 141 680 Q141 409 268 235 Q357 113 491 54 Q602 5 723 5 Q853 5 966 58.5 Q1079 112 1157 210 Q1257 338 1281 535 L1316 535 Z M1008 1481 L955 1481 L732 1694 L510 1481 L456 1481 L707 1728 L758 1728 L1008 1481 Z " />
<glyph glyph-name="ccircumflex" unicode="&#x109;" horiz-adv-x="1014" d="M933 338 Q917 217 858 133 Q747 -28 531 -28 Q296 -28 178 164 Q93 302 93 489 Q93 602 125 701 Q157 800 215 865 Q339 1006 538 1006 Q699 1006 802 920 Q905 834 923 686 L884 686 Q865 793 815 854 Q718 971 541 971 Q442 971 358.5 930 Q275 889 223 815 Q132 686 132 488 Q132 288 234 150 Q339 8 528 8 Q679 8 776.5 96 Q874 184 894 338 L933 338 Z M749 1126 L696 1126 L505 1363 L316 1126 L266 1126 L483 1394 L532 1394 L749 1126 Z " />
<glyph glyph-name="Cdotaccent" unicode="&#x10a;" horiz-adv-x="1399" d="M1316 535 Q1301 341 1187 192 Q1102 81 977 23 Q858 -31 725 -31 Q579 -31 452.5 31 Q326 93 242 207 Q102 393 102 679 Q102 988 268 1187 Q443 1397 732 1397 Q992 1397 1158 1223 Q1270 1104 1290 954 L1254 954 Q1227 1093 1134 1193 Q979 1361 728 1361 Q447 1361 280 1142 Q141 959 141 680 Q141 409 268 235 Q357 113 491 54 Q602 5 723 5 Q853 5 966 58.5 Q1079 112 1157 210 Q1257 338 1281 535 L1316 535 Z M731 1660 Q749 1660 761.5 1645.5 Q774 1631 774 1611 Q774 1590 761.5 1575.5 Q749 1561 730 1561 Q712 1561 699 1575.5 Q686 1590 686 1611 Q686 1631 699 1645.5 Q712 1660 731 1660 Z " />
<glyph glyph-name="cdotaccent" unicode="&#x10b;" horiz-adv-x="1014" d="M933 338 Q917 217 858 133 Q747 -28 531 -28 Q296 -28 178 164 Q93 302 93 489 Q93 602 125 701 Q157 800 215 865 Q339 1006 538 1006 Q699 1006 802 920 Q905 834 923 686 L884 686 Q865 793 815 854 Q718 971 541 971 Q442 971 358.5 930 Q275 889 223 815 Q132 686 132 488 Q132 288 234 150 Q339 8 528 8 Q679 8 776.5 96 Q874 184 894 338 L933 338 Z M537 1317 Q555 1317 567.5 1302.5 Q580 1288 580 1267 Q580 1247 567 1232.5 Q554 1218 536 1218 Q518 1218 505 1232.5 Q492 1247 492 1268 Q492 1288 505 1302.5 Q518 1317 537 1317 Z " />
<glyph glyph-name="Ccaron" unicode="&#x10c;" horiz-adv-x="1399" d="M1316 535 Q1301 341 1187 192 Q1102 81 977 23 Q858 -31 725 -31 Q579 -31 452.5 31 Q326 93 242 207 Q102 393 102 679 Q102 988 268 1187 Q443 1397 732 1397 Q992 1397 1158 1223 Q1270 1104 1290 954 L1254 954 Q1227 1093 1134 1193 Q979 1361 728 1361 Q447 1361 280 1142 Q141 959 141 680 Q141 409 268 235 Q357 113 491 54 Q602 5 723 5 Q853 5 966 58.5 Q1079 112 1157 210 Q1257 338 1281 535 L1316 535 Z M454 1728 L507 1728 L730 1516 L952 1728 L1006 1728 L755 1481 L705 1481 L454 1728 Z " />
<glyph glyph-name="ccaron" unicode="&#x10d;" horiz-adv-x="1014" d="M933 338 Q917 217 858 133 Q747 -28 531 -28 Q296 -28 178 164 Q93 302 93 489 Q93 602 125 701 Q157 800 215 865 Q339 1006 538 1006 Q699 1006 802 920 Q905 834 923 686 L884 686 Q865 793 815 854 Q718 971 541 971 Q442 971 358.5 930 Q275 889 223 815 Q132 686 132 488 Q132 288 234 150 Q339 8 528 8 Q679 8 776.5 96 Q874 184 894 338 L933 338 Z M293 1394 L346 1394 L538 1157 L726 1394 L776 1394 L560 1126 L510 1126 L293 1394 Z " />
<glyph glyph-name="Dcaron" unicode="&#x10e;" horiz-adv-x="1333" d="M171 1365 L617 1365 Q754 1365 858 1329.5 Q962 1294 1040 1220 Q1132 1132 1181.5 997 Q1231 862 1231 697 Q1231 346 1040 156 Q959 75 855.5 37.5 Q752 0 609 0 L171 0 L171 1365 Z M210 1329 L210 36 L586 36 Q732 36 828.5 67 Q925 98 1002 169 Q1192 346 1192 695 Q1192 1007 1029 1178 Q953 1258 853.5 1293.5 Q754 1329 608 1329 L210 1329 Z M329 1728 L383 1728 L605 1516 L828 1728 L881 1728 L631 1481 L580 1481 L329 1728 Z " />
<glyph glyph-name="dcaron" unicode="&#x10f;" horiz-adv-x="1217" d="M953 1365 L953 0 L914 0 L914 281 Q889 187 841 125 Q725 -27 518 -27 Q291 -27 179 147 Q93 280 93 478 Q93 728 220 874 Q334 1006 525 1006 Q718 1006 834 864 Q876 813 914 713 L914 1365 L953 1365 Z M528 971 Q346 971 241 843 Q132 711 132 480 Q132 298 205 176 Q254 94 337 50 Q417 8 518 8 Q708 8 816 152 Q913 281 913 489 Q913 697 821 821 Q710 971 528 971 Z M1107 1049 L1107 1091 Q1151 1133 1155 1267 L1146 1265 L1143 1265 Q1123 1265 1110 1279 Q1097 1293 1097 1313 Q1097 1334 1110.5 1350 Q1124 1366 1142 1366 Q1193 1366 1193 1281 Q1193 1081 1107 1049 Z " />
<glyph glyph-name="Dcroat" unicode="&#x110;" horiz-adv-x="1333" d="M171 730 L171 1365 L617 1365 Q886 1365 1039 1220 Q1231 1038 1231 697 Q1231 346 1040 156 Q959 75 855.5 37.5 Q752 0 609 0 L171 0 L171 694 L7 694 L7 730 L171 730 Z M210 730 L649 730 L649 694 L210 694 L210 36 L585 36 Q732 36 828.5 67 Q925 98 1002 169 Q1192 346 1192 695 Q1192 1006 1029 1178 Q953 1258 853.5 1293.5 Q754 1329 608 1329 L210 1329 L210 730 Z " />
<glyph glyph-name="dcroat" unicode="&#x111;" horiz-adv-x="1110" d="M914 1197 L914 1365 L953 1365 L953 1197 L1103 1197 L1103 1161 L953 1161 L953 0 L914 0 L914 281 Q889 187 841 125 Q725 -27 518 -27 Q291 -27 179 147 Q93 280 93 478 Q93 728 220 874 Q334 1006 525 1006 Q718 1006 834 864 Q876 813 914 713 L914 1161 L557 1161 L557 1197 L914 1197 Z M528 971 Q346 971 241 843 Q132 711 132 480 Q132 298 205 176 Q254 94 337 50 Q417 8 518 8 Q708 8 816 152 Q913 281 913 489 Q913 697 821 821 Q710 971 528 971 Z " />
<glyph glyph-name="Emacron" unicode="&#x112;" horiz-adv-x="1170" d="M1080 1365 L1080 1329 L210 1329 L210 730 L1029 730 L1029 694 L210 694 L210 36 L1089 36 L1089 0 L171 0 L171 1365 L1080 1365 Z M926 1602 L926 1566 L334 1566 L334 1602 L926 1602 Z " />
<glyph glyph-name="emacron" unicode="&#x113;" horiz-adv-x="1035" d="M943 346 Q925 234 875 157 Q756 -27 531 -27 Q326 -27 206 122 Q93 263 93 485 Q93 728 224 872 Q346 1006 533 1006 Q678 1006 783 921 Q874 848 914.5 746.5 Q955 645 953 493 L135 493 Q135 364 166 275 Q209 155 297 86 Q395 8 531 8 Q679 8 777 97 Q875 186 903 346 L943 346 Z M913 529 Q911 623 896 681.5 Q881 740 843 800 Q735 971 534 971 Q385 971 276 873 Q211 814 178 734.5 Q145 655 134 529 L913 529 Z M801 1260 L801 1224 L264 1224 L264 1260 L801 1260 Z " />
<glyph glyph-name="Ebreve" unicode="&#x114;" horiz-adv-x="1170" d="M1080 1365 L1080 1329 L210 1329 L210 730 L1029 730 L1029 694 L210 694 L210 36 L1089 36 L1089 0 L171 0 L171 1365 L1080 1365 Z M872 1713 Q862 1648 836 1604 Q766 1488 630 1488 Q497 1488 427 1596 Q395 1646 388 1713 L427 1713 Q438 1649 464 1611 Q523 1524 632 1524 Q712 1524 764.5 1573.5 Q817 1623 833 1713 L872 1713 Z " />
<glyph glyph-name="ebreve" unicode="&#x115;" horiz-adv-x="1035" d="M943 346 Q925 234 875 157 Q756 -27 531 -27 Q326 -27 206 122 Q93 263 93 485 Q93 728 224 872 Q346 1006 533 1006 Q678 1006 783 921 Q874 848 914.5 746.5 Q955 645 953 493 L135 493 Q135 364 166 275 Q209 155 297 86 Q395 8 531 8 Q679 8 777 97 Q875 186 903 346 L943 346 Z M913 529 Q911 623 896 681.5 Q881 740 843 800 Q735 971 534 971 Q385 971 276 873 Q211 814 178 734.5 Q145 655 134 529 L913 529 Z M306 1378 L343 1378 Q355 1312 378 1270 Q429 1176 530 1176 Q604 1176 652 1227.5 Q700 1279 717 1378 L754 1378 Q747 1307 718 1255 Q656 1140 530 1140 Q438 1140 378 1204 Q318 1268 306 1378 Z " />
<glyph glyph-name="Edotaccent" unicode="&#x116;" horiz-adv-x="1170" d="M1080 1365 L1080 1329 L210 1329 L210 730 L1029 730 L1029 694 L210 694 L210 36 L1089 36 L1089 0 L171 0 L171 1365 L1080 1365 Z M636 1660 Q654 1660 666.5 1645.5 Q679 1631 679 1611 Q679 1590 666.5 1575.5 Q654 1561 635 1561 Q617 1561 604 1575.5 Q591 1590 591 1611 Q591 1631 604 1645.5 Q617 1660 636 1660 Z " />
<glyph glyph-name="edotaccent" unicode="&#x117;" horiz-adv-x="1035" d="M943 346 Q925 234 875 157 Q756 -27 531 -27 Q326 -27 206 122 Q93 263 93 485 Q93 728 224 872 Q346 1006 533 1006 Q678 1006 783 921 Q874 848 914.5 746.5 Q955 645 953 493 L135 493 Q135 364 166 275 Q209 155 297 86 Q395 8 531 8 Q679 8 777 97 Q875 186 903 346 L943 346 Z M913 529 Q911 623 896 681.5 Q881 740 843 800 Q735 971 534 971 Q385 971 276 873 Q211 814 178 734.5 Q145 655 134 529 L913 529 Z M538 1317 Q556 1317 568.5 1302.5 Q581 1288 581 1267 Q581 1247 568 1232.5 Q555 1218 537 1218 Q519 1218 506 1232.5 Q493 1247 493 1268 Q493 1288 506 1302.5 Q519 1317 538 1317 Z " />
<glyph glyph-name="Eogonek" unicode="&#x118;" horiz-adv-x="1170" d="M1089 0 Q973 -86 973 -171 Q973 -223 1015 -256 Q1057 -289 1122 -289 Q1166 -289 1223 -267 L1225 -306 Q1164 -327 1118 -327 Q1032 -327 980 -281 Q934 -239 934 -174 Q934 -79 1040 0 L171 0 L171 1365 L1080 1365 L1080 1329 L210 1329 L210 730 L1029 730 L1029 694 L210 694 L210 36 L1089 36 L1089 0 Z " />
<glyph glyph-name="eogonek" unicode="&#x119;" horiz-adv-x="1035" d="M845 -267 L846 -306 Q786 -327 739 -327 Q657 -327 606 -284 Q555 -241 555 -171 Q555 -82 645 -14 Q578 -27 527 -27 Q325 -27 206 122 Q93 263 93 485 Q93 728 224 872 Q346 1006 533 1006 Q678 1006 783 921 Q874 848 914.5 746.5 Q955 645 953 493 L135 493 Q135 364 166 275 Q209 155 297 86 Q395 8 531 8 Q679 8 777 97 Q875 186 903 346 L943 346 Q912 133 726 14 Q595 -77 595 -170 Q595 -223 636.5 -256 Q678 -289 744 -289 Q787 -289 845 -267 Z M913 529 Q911 623 896 681.5 Q881 740 843 800 Q735 971 534 971 Q385 971 276 873 Q211 814 178 734.5 Q145 655 134 529 L913 529 Z " />
<glyph glyph-name="Ecaron" unicode="&#x11a;" horiz-adv-x="1170" d="M1080 1365 L1080 1329 L210 1329 L210 730 L1029 730 L1029 694 L210 694 L210 36 L1089 36 L1089 0 L171 0 L171 1365 L1080 1365 Z M354 1728 L407 1728 L630 1516 L853 1728 L906 1728 L655 1481 L605 1481 L354 1728 Z " />
<glyph glyph-name="ecaron" unicode="&#x11b;" horiz-adv-x="1035" d="M943 346 Q925 234 875 157 Q756 -27 531 -27 Q326 -27 206 122 Q93 263 93 485 Q93 728 224 872 Q346 1006 533 1006 Q678 1006 783 921 Q874 848 914.5 746.5 Q955 645 953 493 L135 493 Q135 364 166 275 Q209 155 297 86 Q395 8 531 8 Q679 8 777 97 Q875 186 903 346 L943 346 Z M913 529 Q911 623 896 681.5 Q881 740 843 800 Q735 971 534 971 Q385 971 276 873 Q211 814 178 734.5 Q145 655 134 529 L913 529 Z M283 1394 L336 1394 L527 1157 L716 1394 L766 1394 L549 1126 L500 1126 L283 1394 Z " />
<glyph glyph-name="Gcircumflex" unicode="&#x11c;" horiz-adv-x="1479" d="M1336 643 L1336 -1 L1296 -1 L1307 402 Q1269 259 1196 170 Q1031 -31 745 -31 Q544 -31 390 69 Q247 161 172 323 Q102 476 102 665 Q102 825 150.5 966 Q199 1107 287 1204 Q461 1396 739 1396 Q1003 1396 1173 1209 Q1279 1093 1308 940 L1272 940 Q1246 1069 1152 1176 Q992 1360 739 1360 Q432 1360 264 1114 Q141 934 141 662 Q141 385 286 211 Q368 113 486 59 Q604 5 739 5 Q939 5 1086 114 Q1187 189 1242 307.5 Q1297 426 1297 569 Q1297 579 1296 607 L767 607 L767 643 L1336 643 Z M1022 1481 L969 1481 L746 1694 L524 1481 L470 1481 L721 1728 L771 1728 L1022 1481 Z " />
<glyph glyph-name="gcircumflex" unicode="&#x11d;" horiz-adv-x="1087" d="M931 979 L931 66 Q931 -100 879 -192 Q783 -360 519 -360 Q345 -360 248.5 -281.5 Q152 -203 145 -54 L183 -54 Q194 -156 232 -209 Q315 -325 517 -325 Q740 -325 827 -201 Q892 -108 892 90 L892 335 Q865 260 835 217 Q769 123 656 81 Q586 54 503 54 Q294 54 182 208 Q94 329 94 520 Q94 738 202 867 Q256 931 337 968 Q420 1006 514 1006 Q652 1006 750.5 931 Q849 856 892 717 L892 979 L931 979 Z M518 970 Q319 970 213 817 Q133 701 133 528 Q133 340 222 220 Q321 89 504 89 Q615 89 707 145 Q891 258 891 529 Q891 740 780 857 Q722 919 641 947 Q576 970 518 970 Z M760 1126 L707 1126 L516 1363 L328 1126 L277 1126 L494 1394 L543 1394 L760 1126 Z " />
<glyph glyph-name="Gbreve" unicode="&#x11e;" horiz-adv-x="1479" d="M1336 643 L1336 -1 L1296 -1 L1307 402 Q1269 259 1196 170 Q1031 -31 745 -31 Q544 -31 390 69 Q247 161 172 323 Q102 476 102 665 Q102 825 150.5 966 Q199 1107 287 1204 Q461 1396 739 1396 Q1003 1396 1173 1209 Q1279 1093 1308 940 L1272 940 Q1246 1069 1152 1176 Q992 1360 739 1360 Q432 1360 264 1114 Q141 934 141 662 Q141 385 286 211 Q368 113 486 59 Q604 5 739 5 Q939 5 1086 114 Q1187 189 1242 307.5 Q1297 426 1297 569 Q1297 579 1296 607 L767 607 L767 643 L1336 643 Z M988 1713 Q978 1648 952 1604 Q882 1488 746 1488 Q613 1488 544 1596 Q511 1646 504 1713 L543 1713 Q554 1649 580 1611 Q639 1524 748 1524 Q829 1524 881.5 1573.5 Q934 1623 949 1713 L988 1713 Z " />
<glyph glyph-name="gbreve" unicode="&#x11f;" horiz-adv-x="1087" d="M931 979 L931 66 Q931 -100 879 -192 Q783 -360 519 -360 Q345 -360 248.5 -281.5 Q152 -203 145 -54 L183 -54 Q194 -156 232 -209 Q315 -325 517 -325 Q740 -325 827 -201 Q892 -108 892 90 L892 335 Q865 260 835 217 Q769 123 656 81 Q586 54 503 54 Q294 54 182 208 Q94 329 94 520 Q94 738 202 867 Q256 931 337 968 Q420 1006 514 1006 Q652 1006 750.5 931 Q849 856 892 717 L892 979 L931 979 Z M518 970 Q319 970 213 817 Q133 701 133 528 Q133 340 222 220 Q321 89 504 89 Q615 89 707 145 Q891 258 891 529 Q891 740 780 857 Q722 919 641 947 Q576 970 518 970 Z M295 1378 L332 1378 Q344 1312 366 1270 Q418 1176 519 1176 Q593 1176 640.5 1227.5 Q688 1279 705 1378 L743 1378 Q735 1307 707 1255 Q645 1140 519 1140 Q427 1140 367 1204 Q307 1268 295 1378 Z " />
<glyph glyph-name="Gdotaccent" unicode="&#x120;" horiz-adv-x="1479" d="M1336 643 L1336 -1 L1296 -1 L1307 402 Q1269 259 1196 170 Q1031 -31 745 -31 Q544 -31 390 69 Q247 161 172 323 Q102 476 102 665 Q102 825 150.5 966 Q199 1107 287 1204 Q461 1396 739 1396 Q1003 1396 1173 1209 Q1279 1093 1308 940 L1272 940 Q1246 1069 1152 1176 Q992 1360 739 1360 Q432 1360 264 1114 Q141 934 141 662 Q141 385 286 211 Q368 113 486 59 Q604 5 739 5 Q939 5 1086 114 Q1187 189 1242 307.5 Q1297 426 1297 569 Q1297 579 1296 607 L767 607 L767 643 L1336 643 Z M749 1660 Q767 1660 779.5 1645.5 Q792 1631 792 1611 Q792 1590 779.5 1575.5 Q767 1561 748 1561 Q730 1561 717 1575.5 Q704 1590 704 1611 Q704 1631 717 1645.5 Q730 1660 749 1660 Z " />
<glyph glyph-name="gdotaccent" unicode="&#x121;" horiz-adv-x="1087" d="M931 979 L931 66 Q931 -100 879 -192 Q783 -360 519 -360 Q345 -360 248.5 -281.5 Q152 -203 145 -54 L183 -54 Q194 -156 232 -209 Q315 -325 517 -325 Q740 -325 827 -201 Q892 -108 892 90 L892 335 Q865 260 835 217 Q769 123 656 81 Q586 54 503 54 Q294 54 182 208 Q94 329 94 520 Q94 738 202 867 Q256 931 337 968 Q420 1006 514 1006 Q652 1006 750.5 931 Q849 856 892 717 L892 979 L931 979 Z M518 970 Q319 970 213 817 Q133 701 133 528 Q133 340 222 220 Q321 89 504 89 Q615 89 707 145 Q891 258 891 529 Q891 740 780 857 Q722 919 641 947 Q576 970 518 970 Z M521 1317 Q539 1317 551.5 1302.5 Q564 1288 564 1267 Q564 1247 551.5 1232.5 Q539 1218 520 1218 Q502 1218 489 1232.5 Q476 1247 476 1268 Q476 1288 489 1302.5 Q502 1317 521 1317 Z " />
<glyph glyph-name="Gcommaaccent" unicode="&#x122;" horiz-adv-x="1479" d="M1336 643 L1336 -1 L1296 -1 L1307 402 Q1269 259 1196 170 Q1031 -31 745 -31 Q544 -31 390 69 Q247 161 172 323 Q102 476 102 665 Q102 825 150.5 966 Q199 1107 287 1204 Q461 1396 739 1396 Q1003 1396 1173 1209 Q1279 1093 1308 940 L1272 940 Q1246 1069 1152 1176 Q992 1360 739 1360 Q432 1360 264 1114 Q141 934 141 662 Q141 385 286 211 Q368 113 486 59 Q604 5 739 5 Q939 5 1086 114 Q1187 189 1242 307.5 Q1297 426 1297 569 Q1297 579 1296 607 L767 607 L767 643 L1336 643 Z M699 -425 L699 -383 Q742 -342 747 -208 L738 -209 L734 -209 Q715 -209 701.5 -195.5 Q688 -182 688 -162 Q688 -140 701.5 -124 Q715 -108 733 -108 Q784 -108 784 -193 Q784 -394 699 -425 Z " />
<glyph glyph-name="gcommaaccent" unicode="&#x123;" horiz-adv-x="1087" d="M931 979 L931 66 Q931 -100 879 -192 Q783 -360 519 -360 Q345 -360 248.5 -281.5 Q152 -203 145 -54 L183 -54 Q194 -156 232 -209 Q315 -325 517 -325 Q740 -325 827 -201 Q892 -108 892 90 L892 335 Q865 260 835 217 Q769 123 656 81 Q586 54 503 54 Q294 54 182 208 Q94 329 94 520 Q94 738 202 867 Q256 931 337 968 Q420 1006 514 1006 Q652 1006 750.5 931 Q849 856 892 717 L892 979 L931 979 Z M518 970 Q319 970 213 817 Q133 701 133 528 Q133 340 222 220 Q321 89 504 89 Q615 89 707 145 Q891 258 891 529 Q891 740 780 857 Q722 919 641 947 Q576 970 518 970 Z M583 1440 L583 1398 Q540 1356 535 1222 L544 1224 L547 1224 Q567 1224 580 1210 Q593 1196 593 1176 Q593 1155 579.5 1139 Q566 1123 548 1123 Q498 1123 498 1208 Q498 1409 583 1440 Z " />
<glyph glyph-name="Hcircumflex" unicode="&#x124;" horiz-adv-x="1376" d="M1206 1365 L1206 0 L1167 0 L1167 694 L210 694 L210 0 L171 0 L171 1365 L210 1365 L210 730 L1167 730 L1167 1365 L1206 1365 Z M964 1481 L911 1481 L688 1694 L466 1481 L412 1481 L663 1728 L713 1728 L964 1481 Z " />
<glyph glyph-name="hcircumflex" unicode="&#x125;" horiz-adv-x="1065" d="M196 1365 L196 722 Q292 1006 558 1006 Q746 1006 849 866 Q915 777 915 625 L915 0 L876 0 L876 617 Q876 773 812 853 Q717 971 557 971 Q392 971 294 847 Q196 723 196 513 L196 0 L157 0 L157 1365 L196 1365 Z M697 1481 L644 1481 L421 1694 L198 1481 L145 1481 L396 1728 L446 1728 L697 1481 Z " />
<glyph glyph-name="Hbar" unicode="&#x126;" horiz-adv-x="1376" d="M1205 1128 L1369 1128 L1369 1092 L1205 1092 L1205 0 L1166 0 L1166 694 L210 694 L210 0 L171 0 L171 1092 L7 1092 L7 1128 L171 1128 L171 1365 L210 1365 L210 1128 L1166 1128 L1166 1365 L1205 1365 L1205 1128 Z M210 1092 L210 730 L1166 730 L1166 1092 L210 1092 Z " />
<glyph glyph-name="hbar" unicode="&#x127;" horiz-adv-x="1086" d="M216 1197 L573 1197 L573 1161 L216 1161 L216 722 Q312 1006 578 1006 Q766 1006 869 866 Q935 777 935 625 L935 0 L896 0 L896 617 Q896 773 832 853 Q737 971 577 971 Q412 971 314 847 Q216 723 216 513 L216 0 L177 0 L177 1161 L27 1161 L27 1197 L177 1197 L177 1365 L216 1365 L216 1197 Z " />
<glyph glyph-name="Itilde" unicode="&#x128;" horiz-adv-x="381" d="M210 1365 L210 0 L171 0 L171 1365 L210 1365 Z M449 1668 Q416 1524 317 1524 Q264 1524 193 1578 Q143 1617 119 1629 Q95 1641 70 1641 Q-9 1641 -29 1524 L-67 1524 Q-54 1595 -17 1636 Q20 1677 71 1677 Q122 1677 200 1617 Q275 1560 318 1560 Q382 1560 410 1668 L449 1668 Z " />
<glyph glyph-name="itilde" unicode="&#x129;" horiz-adv-x="353" d="M196 979 L196 0 L157 0 L157 979 L196 979 Z M416 1334 Q386 1188 294 1188 Q245 1188 179 1242 Q133 1280 110.5 1292.5 Q88 1305 66 1305 Q-4 1305 -23 1190 L-62 1190 Q-50 1260 -15.5 1301 Q19 1342 66 1342 Q113 1342 185 1282 Q254 1224 295 1224 Q352 1224 378 1334 L416 1334 Z " />
<glyph glyph-name="Imacron" unicode="&#x12a;" horiz-adv-x="381" d="M210 1365 L210 0 L171 0 L171 1365 L210 1365 Z M377 1602 L377 1566 L4 1566 L4 1602 L377 1602 Z " />
<glyph glyph-name="imacron" unicode="&#x12b;" horiz-adv-x="353" d="M196 979 L196 0 L157 0 L157 979 L196 979 Z M370 1260 L370 1224 L-17 1224 L-17 1260 L370 1260 Z " />
<glyph glyph-name="Ibreve" unicode="&#x12c;" horiz-adv-x="381" d="M210 1365 L210 0 L171 0 L171 1365 L210 1365 Z M435 1713 Q425 1648 399 1604 Q329 1488 193 1488 Q60 1488 -10 1596 Q-42 1646 -49 1713 L-10 1713 Q0 1649 27 1611 Q86 1524 195 1524 Q275 1524 327.5 1573.5 Q380 1623 396 1713 L435 1713 Z " />
<glyph glyph-name="ibreve" unicode="&#x12d;" horiz-adv-x="353" d="M196 979 L196 0 L157 0 L157 979 L196 979 Z M-34 1378 L4 1378 Q14 1312 35 1270 Q83 1176 177 1176 Q245 1176 289.5 1227.5 Q334 1279 350 1378 L387 1378 Q380 1307 353 1255 Q295 1140 177 1140 Q90 1140 33.5 1204 Q-23 1268 -34 1378 Z " />
<glyph glyph-name="Iogonek" unicode="&#x12e;" horiz-adv-x="381" d="M210 0 Q104 -94 104 -174 Q104 -222 137 -255 Q170 -288 218 -288 Q248 -288 286 -270 L288 -308 Q246 -326 213 -326 Q149 -326 107 -283 Q65 -240 65 -175 Q65 -79 171 0 L171 1365 L210 1365 L210 0 Z " />
<glyph glyph-name="iogonek" unicode="&#x12f;" horiz-adv-x="353" d="M196 0 Q102 -87 102 -168 Q102 -222 134.5 -255 Q167 -288 221 -288 Q249 -288 283 -274 L284 -313 Q248 -326 216 -326 Q147 -326 105 -282 Q62 -237 62 -169 Q62 -71 157 0 L157 979 L196 979 L196 0 Z M178 1318 Q196 1318 208.5 1303.5 Q221 1289 221 1269 Q221 1248 208.5 1233.5 Q196 1219 177 1219 Q159 1219 146 1233.5 Q133 1248 133 1269 Q133 1289 146 1303.5 Q159 1318 178 1318 Z " />
<glyph glyph-name="Idot" unicode="&#x130;" horiz-adv-x="381" d="M210 1365 L210 0 L171 0 L171 1365 L210 1365 Z M193 1661 Q211 1661 223.5 1646.5 Q236 1632 236 1612 Q236 1591 223.5 1576.5 Q211 1562 192 1562 Q174 1562 161 1576.5 Q148 1591 148 1612 Q148 1632 161 1646.5 Q174 1661 193 1661 Z " />
<glyph glyph-name="dotlessi" unicode="&#x131;" horiz-adv-x="353" d="M196 979 L196 0 L157 0 L157 979 L196 979 Z " />
<glyph glyph-name="IJ" unicode="&#x132;" horiz-adv-x="1305" d="M210 1365 L210 0 L171 0 L171 1365 L210 1365 Z M1155 1365 L1155 339 Q1155 171 1079 84 Q981 -29 788 -29 Q537 -29 454 141 Q415 223 415 375 Q415 392 417 424 L452 424 Q452 261 473 194 Q530 7 788 7 Q968 7 1056 115 Q1116 189 1116 348 L1116 1365 L1155 1365 Z " />
<glyph glyph-name="ij" unicode="&#x133;" horiz-adv-x="700" d="M179 1318 Q197 1318 209.5 1303.5 Q222 1289 222 1269 Q222 1248 209.5 1233.5 Q197 1219 178 1219 Q160 1219 147 1233.5 Q134 1248 134 1269 Q134 1289 147 1303.5 Q160 1318 179 1318 Z M196 979 L196 0 L157 0 L157 979 L196 979 Z M543 979 L543 -138 Q543 -252 497 -295.5 Q451 -339 330 -339 Q318 -339 299 -339 L299 -304 Q379 -303 402.5 -299.5 Q426 -296 447 -284 Q504 -249 504 -146 L504 979 L543 979 Z M526 1318 Q544 1318 556.5 1303.5 Q569 1289 569 1269 Q569 1248 556.5 1233.5 Q544 1219 525 1219 Q507 1219 494 1233.5 Q481 1248 481 1269 Q481 1289 494 1303.5 Q507 1318 526 1318 Z " />
<glyph glyph-name="Jcircumflex" unicode="&#x134;" horiz-adv-x="931" d="M781 1365 L781 339 Q781 171 705 84 Q606 -29 414 -29 Q163 -29 80 141 Q41 222 41 375 Q41 396 43 424 L78 424 Q78 261 99 194 Q156 7 414 7 Q594 7 682 115 Q742 189 742 348 L742 1365 L781 1365 Z M1031 1481 L977 1481 L755 1694 L532 1481 L479 1481 L729 1728 L780 1728 L1031 1481 Z " />
<glyph glyph-name="jcircumflex" unicode="&#x135;" horiz-adv-x="353" d="M196 979 L196 -138 Q196 -252 150 -295.5 Q104 -339 -17 -339 Q-29 -339 -48 -339 L-48 -304 Q32 -303 55.5 -299.5 Q79 -296 100 -284 Q157 -249 157 -146 L157 979 L196 979 Z M418 1126 L365 1126 L174 1363 L-15 1126 L-65 1126 L152 1394 L201 1394 L418 1126 Z " />
<glyph glyph-name="Kcommaaccent" unicode="&#x136;" horiz-adv-x="1256" d="M1212 1365 L551 790 L1256 0 L1207 0 L523 764 L210 486 L210 0 L171 0 L171 1365 L210 1365 L210 637 L210 581 L210 533 Q242 565 296 612 L1158 1365 L1212 1365 Z M615 -425 L615 -383 Q658 -342 663 -208 L654 -209 L650 -209 Q631 -209 618 -195.5 Q605 -182 605 -162 Q605 -140 618.5 -124 Q632 -108 650 -108 Q700 -108 700 -193 Q700 -394 615 -425 Z " />
<glyph glyph-name="kcommaaccent" unicode="&#x137;" horiz-adv-x="1000" d="M935 979 L482 609 L965 0 L915 0 L451 581 L196 372 L196 0 L157 0 L157 1365 L196 1365 L196 519 Q196 461 196 419 L281 490 L879 979 L935 979 Z M473 -418 L473 -376 Q516 -335 521 -201 L512 -203 L508 -203 Q489 -203 476 -189 Q463 -175 463 -155 Q463 -134 476.5 -118 Q490 -102 508 -102 Q558 -102 558 -187 Q558 -387 473 -418 Z " />
<glyph glyph-name="kgreenlandic" unicode="&#x138;" horiz-adv-x="1000" d="M935 979 L482 609 L965 0 L915 0 L451 582 L196 372 L196 0 L157 0 L157 979 L196 979 L196 519 Q196 461 196 419 L281 490 L879 979 L935 979 Z " />
<glyph glyph-name="Lacute" unicode="&#x139;" horiz-adv-x="1041" d="M1013 36 L1013 0 L171 0 L171 1365 L210 1365 L210 36 L1013 36 Z M490 1722 L206 1481 L155 1481 L433 1722 L490 1722 Z " />
<glyph glyph-name="lacute" unicode="&#x13a;" horiz-adv-x="353" d="M197 1365 L197 0 L158 0 L158 1365 L197 1365 Z M392 1722 L163 1481 L120 1481 L339 1722 L392 1722 Z " />
<glyph glyph-name="Lcommaaccent" unicode="&#x13b;" horiz-adv-x="1041" d="M1013 36 L1013 0 L171 0 L171 1365 L210 1365 L210 36 L1013 36 Z M541 -425 L541 -383 Q584 -342 589 -208 L580 -209 L577 -209 Q557 -209 544 -195.5 Q531 -182 531 -162 Q531 -140 544.5 -124 Q558 -108 576 -108 Q626 -108 626 -193 Q626 -394 541 -425 Z " />
<glyph glyph-name="lcommaaccent" unicode="&#x13c;" horiz-adv-x="353" d="M196 1365 L196 0 L157 0 L157 1365 L196 1365 Z M133 -418 L133 -376 Q176 -335 181 -201 L172 -203 L169 -203 Q149 -203 136 -189 Q123 -175 123 -155 Q123 -134 136.5 -118 Q150 -102 168 -102 Q218 -102 218 -187 Q218 -387 133 -418 Z " />
<glyph glyph-name="Lcaron" unicode="&#x13d;" horiz-adv-x="1041" d="M1013 36 L1013 0 L171 0 L171 1365 L210 1365 L210 36 L1013 36 Z M555 1049 L555 1091 Q598 1133 603 1267 L594 1265 L590 1265 Q571 1265 558 1279 Q545 1293 545 1313 Q545 1334 558.5 1350 Q572 1366 590 1366 Q640 1366 640 1281 Q640 1081 555 1049 Z " />
<glyph glyph-name="lcaron" unicode="&#x13e;" horiz-adv-x="461" d="M196 1365 L196 0 L157 0 L157 1365 L196 1365 Z M351 1049 L351 1091 Q394 1133 399 1267 L390 1265 L386 1265 Q367 1265 354 1279 Q341 1293 341 1313 Q341 1334 354.5 1350 Q368 1366 386 1366 Q436 1366 436 1281 Q436 1081 351 1049 Z " />
<glyph glyph-name="Ldot" unicode="&#x13f;" horiz-adv-x="1041" d="M1013 36 L1013 0 L171 0 L171 1365 L210 1365 L210 36 L1013 36 Z M713 698 Q731 698 743.5 683.5 Q756 669 756 649 Q756 628 743.5 613.5 Q731 599 712 599 Q694 599 681 613.5 Q668 628 668 649 Q668 669 681 683.5 Q694 698 713 698 Z " />
<glyph glyph-name="ldot" unicode="&#x140;" horiz-adv-x="393" d="M196 1365 L196 0 L157 0 L157 1365 L196 1365 Z M375 698 Q393 698 405.5 683.5 Q418 669 418 649 Q418 628 405 613.5 Q392 599 374 599 Q356 599 343 613.5 Q330 628 330 649 Q330 669 343 683.5 Q356 698 375 698 Z " />
<glyph glyph-name="Lslash" unicode="&#x141;" horiz-adv-x="1041" d="M170 658 L170 1365 L209 1365 L209 680 L557 929 L557 884 L209 635 L209 36 L1012 36 L1012 0 L170 0 L170 612 L20 499 L20 544 L170 658 Z " />
<glyph glyph-name="lslash" unicode="&#x142;" horiz-adv-x="353" d="M157 749 L157 1365 L196 1365 L196 772 L339 880 L339 835 L196 726 L196 0 L157 0 L157 703 L14 595 L14 640 L157 749 Z " />
<glyph glyph-name="Nacute" unicode="&#x143;" horiz-adv-x="1375" d="M1205 1365 L1205 0 L1159 0 L268 1237 L246 1268 Q221 1305 207 1326 Q209 1307 209 1288 Q209 1269 210 1226 L210 0 L171 0 L171 1365 L222 1365 L1079 175 Q1083 169 1105 138 Q1116 122 1126 107 Q1153 70 1169 46 Q1166 110 1166 214 L1166 1365 L1205 1365 Z M938 1722 L654 1481 L602 1481 L881 1722 L938 1722 Z " />
<glyph glyph-name="nacute" unicode="&#x144;" horiz-adv-x="1067" d="M196 979 L196 735 Q227 827 276 881 Q387 1006 566 1006 Q742 1006 843 888 Q896 826 908 754 Q917 703 917 620 L917 0 L878 0 L878 616 Q878 751 842 821 Q804 895 725 934 Q651 971 565 971 Q419 971 321 881 Q196 768 196 523 L196 0 L157 0 L157 979 L196 979 Z M755 1394 L492 1126 L448 1126 L704 1394 L755 1394 Z " />
<glyph glyph-name="Ncommaaccent" unicode="&#x145;" horiz-adv-x="1375" d="M1205 1365 L1205 0 L1159 0 L268 1237 L246 1268 Q221 1305 207 1326 Q209 1307 209 1288 Q209 1269 210 1226 L210 0 L171 0 L171 1365 L222 1365 L1079 175 Q1083 169 1105 138 Q1116 122 1126 107 Q1153 70 1169 46 Q1166 110 1166 214 L1166 1365 L1205 1365 Z M634 -425 L634 -383 Q677 -342 682 -208 L673 -209 L669 -209 Q650 -209 636.5 -195.5 Q623 -182 623 -162 Q623 -140 636.5 -124 Q650 -108 668 -108 Q719 -108 719 -193 Q719 -394 634 -425 Z " />
<glyph glyph-name="ncommaaccent" unicode="&#x146;" horiz-adv-x="1067" d="M196 979 L196 735 Q227 827 276 881 Q387 1006 566 1006 Q742 1006 843 888 Q896 826 908 754 Q917 703 917 620 L917 0 L878 0 L878 616 Q878 751 842 821 Q804 895 725 934 Q651 971 565 971 Q419 971 321 881 Q196 768 196 523 L196 0 L157 0 L157 979 L196 979 Z M493 -418 L493 -376 Q536 -335 541 -201 L532 -203 L528 -203 Q509 -203 495.5 -189 Q482 -175 482 -155 Q482 -134 495.5 -118 Q509 -102 527 -102 Q578 -102 578 -187 Q578 -387 493 -418 Z " />
<glyph glyph-name="Ncaron" unicode="&#x147;" horiz-adv-x="1375" d="M1205 1365 L1205 0 L1159 0 L268 1237 L246 1268 Q221 1305 207 1326 Q209 1307 209 1288 Q209 1269 210 1226 L210 0 L171 0 L171 1365 L222 1365 L1079 175 Q1083 169 1105 138 Q1116 122 1126 107 Q1153 70 1169 46 Q1166 110 1166 214 L1166 1365 L1205 1365 Z M412 1728 L466 1728 L688 1516 L911 1728 L964 1728 L713 1481 L663 1481 L412 1728 Z " />
<glyph glyph-name="ncaron" unicode="&#x148;" horiz-adv-x="1067" d="M196 979 L196 735 Q227 827 276 881 Q387 1006 566 1006 Q742 1006 843 888 Q896 826 908 754 Q917 703 917 620 L917 0 L878 0 L878 616 Q878 751 842 821 Q804 895 725 934 Q651 971 565 971 Q419 971 321 881 Q196 768 196 523 L196 0 L157 0 L157 979 L196 979 Z M292 1394 L345 1394 L536 1157 L725 1394 L775 1394 L558 1126 L509 1126 L292 1394 Z " />
<glyph glyph-name="napostrophe" unicode="&#x149;" horiz-adv-x="1257" d="M130 1050 L130 1092 Q173 1133 178 1267 L169 1266 L166 1266 Q146 1266 133 1279.5 Q120 1293 120 1313 Q120 1335 133.5 1351 Q147 1367 165 1367 Q216 1367 216 1280 Q216 1081 130 1050 Z M385 979 L385 735 Q416 827 465 881 Q577 1006 755 1006 Q931 1006 1032 888 Q1085 826 1097 754 Q1106 702 1106 620 L1106 0 L1067 0 L1067 616 Q1067 751 1031 821 Q993 895 914 934 Q840 971 754 971 Q609 971 510 881 Q385 768 385 523 L385 0 L346 0 L346 979 L385 979 Z " />
<glyph glyph-name="Eng" unicode="&#x14a;" horiz-adv-x="1376" d="M174 1365 L213 1365 L213 1084 Q255 1188 307 1244 Q371 1314 457 1348 Q580 1396 718 1396 Q986 1396 1122 1251 Q1209 1157 1209 1010 L1209 -138 Q1209 -253 1163 -296 Q1117 -339 996 -339 Q984 -339 965 -339 L965 -304 Q1045 -303 1068 -299.5 Q1091 -296 1113 -284 Q1170 -249 1170 -146 L1170 966 Q1170 1049 1160 1093 Q1150 1137 1121 1183 Q1007 1360 721 1360 Q419 1360 288 1166 Q247 1104 230 1038.5 Q213 973 213 872 L213 4 L174 0 L174 1365 Z " />
<glyph glyph-name="eng" unicode="&#x14b;" horiz-adv-x="1067" d="M157 979 L196 979 L196 735 Q228 827 276 881 Q387 1006 566 1006 Q742 1006 843 888 Q896 826 908 754 Q917 703 917 620 L917 -138 Q917 -253 871 -296 Q825 -339 704 -339 Q692 -339 673 -339 L673 -304 Q753 -303 776.5 -299.5 Q800 -296 821 -284 Q878 -249 878 -146 L878 616 Q878 751 842 821 Q804 895 725 934 Q651 971 565 971 Q419 971 321 881 Q196 768 196 523 L196 0 L157 0 L157 979 Z " />
<glyph glyph-name="Omacron" unicode="&#x14c;" horiz-adv-x="1479" d="M744 1396 Q926 1396 1080 1294 Q1236 1190 1311 1013 Q1377 858 1377 668 Q1377 386 1227 198 Q1045 -31 735 -31 Q429 -31 255 195 Q102 394 102 679 Q102 997 273 1189 Q457 1396 744 1396 Z M747 1360 Q477 1360 304 1163 Q142 978 142 684 Q142 411 285 223 Q450 5 735 5 Q1026 5 1198 223 Q1338 400 1338 671 Q1338 974 1175 1161 Q1002 1360 747 1360 Z M1035 1602 L1035 1566 L444 1566 L444 1602 L1035 1602 Z " />
<glyph glyph-name="omacron" unicode="&#x14d;" horiz-adv-x="1070" d="M547 1006 Q689 1006 796 925 Q898 847 945 702 Q978 601 978 482 Q978 263 873 129 Q750 -27 535 -27 Q320 -27 200 130 Q93 270 93 487 Q93 707 205 849 Q329 1006 547 1006 Z M544 971 Q349 971 235 827 Q132 698 132 489 Q132 279 231 152 Q344 8 538 8 Q735 8 844 155 Q939 282 939 481 Q939 679 849 812 Q795 893 708 934 Q630 971 544 971 Z M804 1260 L804 1224 L267 1224 L267 1260 L804 1260 Z " />
<glyph glyph-name="Obreve" unicode="&#x14e;" horiz-adv-x="1479" d="M744 1396 Q926 1396 1080 1294 Q1236 1190 1311 1013 Q1377 858 1377 668 Q1377 386 1227 198 Q1045 -31 735 -31 Q429 -31 255 195 Q102 394 102 679 Q102 997 273 1189 Q457 1396 744 1396 Z M747 1360 Q477 1360 304 1163 Q142 978 142 684 Q142 411 285 223 Q450 5 735 5 Q1026 5 1198 223 Q1338 400 1338 671 Q1338 974 1175 1161 Q1002 1360 747 1360 Z M984 1713 Q974 1648 948 1604 Q878 1488 742 1488 Q609 1488 539 1596 Q507 1646 500 1713 L539 1713 Q549 1649 576 1611 Q635 1524 744 1524 Q824 1524 876.5 1573.5 Q929 1623 945 1713 L984 1713 Z " />
<glyph glyph-name="obreve" unicode="&#x14f;" horiz-adv-x="1070" d="M547 1006 Q689 1006 796 925 Q898 847 945 702 Q978 601 978 482 Q978 263 873 129 Q750 -27 535 -27 Q320 -27 200 130 Q93 270 93 487 Q93 707 205 849 Q329 1006 547 1006 Z M544 971 Q349 971 235 827 Q132 698 132 489 Q132 279 231 152 Q344 8 538 8 Q735 8 844 155 Q939 282 939 481 Q939 679 849 812 Q795 893 708 934 Q630 971 544 971 Z M325 1378 L362 1378 Q374 1312 397 1270 Q448 1176 549 1176 Q623 1176 671 1227.5 Q719 1279 736 1378 L773 1378 Q765 1307 737 1255 Q675 1140 549 1140 Q457 1140 397 1204 Q337 1268 325 1378 Z " />
<glyph glyph-name="Ohungarumlaut" unicode="&#x150;" horiz-adv-x="1479" d="M744 1396 Q926 1396 1080 1294 Q1236 1190 1311 1013 Q1377 858 1377 668 Q1377 386 1227 198 Q1045 -31 735 -31 Q429 -31 255 195 Q102 394 102 679 Q102 997 273 1189 Q457 1396 744 1396 Z M747 1360 Q477 1360 304 1163 Q142 978 142 684 Q142 411 285 223 Q450 5 735 5 Q1026 5 1198 223 Q1338 400 1338 671 Q1338 974 1175 1161 Q1002 1360 747 1360 Z M817 1722 L601 1481 L552 1481 L762 1722 L817 1722 Z M1103 1722 L888 1481 L839 1481 L1049 1722 L1103 1722 Z " />
<glyph glyph-name="ohungarumlaut" unicode="&#x151;" horiz-adv-x="1070" d="M547 1006 Q689 1006 796 925 Q898 847 945 702 Q978 601 978 482 Q978 263 873 129 Q750 -27 535 -27 Q320 -27 200 130 Q93 270 93 487 Q93 707 205 849 Q329 1006 547 1006 Z M544 971 Q349 971 235 827 Q132 698 132 489 Q132 279 231 152 Q344 8 538 8 Q735 8 844 155 Q939 282 939 481 Q939 679 849 812 Q795 893 708 934 Q630 971 544 971 Z M621 1394 L426 1126 L382 1126 L570 1394 L621 1394 Z M853 1394 L658 1126 L614 1126 L802 1394 L853 1394 Z " />
<glyph glyph-name="OE" unicode="&#x152;" horiz-adv-x="2137" d="M2054 1365 L2054 1329 L1207 1329 L1207 722 L1962 722 L1962 686 L1207 686 L1207 36 L2054 36 L2054 0 L1168 0 L1168 134 Q990 -31 746 -31 Q444 -31 251 209 Q102 393 102 675 Q102 991 276 1185 Q465 1396 759 1396 Q978 1396 1168 1244 L1168 1365 L2054 1365 Z M1168 182 L1168 1194 Q1168 1200 1095 1256 Q1034 1303 942 1331.5 Q850 1360 758 1360 Q468 1360 287 1139 Q141 961 141 672 Q141 376 306 198 Q485 5 745 5 Q848 5 945.5 37.5 Q1043 70 1113 128 Q1168 173 1168 182 Z " />
<glyph glyph-name="oe" unicode="&#x153;" horiz-adv-x="1768" d="M1678 326 Q1591 -27 1267 -27 Q1112 -27 1015.5 57.5 Q919 142 888 306 Q807 -27 508 -27 Q290 -27 177 145 Q93 274 93 479 Q93 723 209 868 Q320 1006 507 1006 Q704 1006 808 859 Q855 793 888 663 Q922 801 984 877 Q1092 1007 1280 1007 Q1384 1007 1469 962 Q1554 917 1608 834 Q1684 714 1686 488 L908 488 Q908 467 908 442 Q908 230 1014 113 Q1109 8 1271 8 Q1558 8 1642 326 L1678 326 Z M1649 524 Q1639 721 1577 814 Q1474 971 1278 971 Q1067 971 969 797 Q914 698 907 524 L1649 524 Z M511 970 Q317 970 219 820 Q132 688 132 476 Q132 266 225 141 Q324 8 509 8 Q682 8 776 131.5 Q870 255 870 481 Q870 704 790 825 Q693 970 511 970 Z " />
<glyph glyph-name="Racute" unicode="&#x154;" horiz-adv-x="1273" d="M164 1365 L705 1365 Q897 1365 998 1299 Q1145 1204 1145 1006 Q1145 813 987 716 Q927 679 827 663 Q910 652 955.5 635 Q1001 618 1036 584 Q1088 535 1103.5 472 Q1119 409 1127 223 Q1134 48 1148 18 L1157 0 L1116 0 Q1096 35 1088 233 Q1081 425 1056 489 Q1024 573 933.5 608.5 Q843 644 662 644 L203 644 L203 0 L164 0 L164 1365 Z M203 1329 L203 680 L653 680 Q856 680 961 742 Q1107 828 1107 1007 Q1107 1176 983 1262 Q887 1329 690 1329 L203 1329 Z M838 1722 L555 1481 L503 1481 L781 1722 L838 1722 Z " />
<glyph glyph-name="racute" unicode="&#x155;" horiz-adv-x="572" d="M587 979 L587 941 Q389 941 294 819 Q238 746 217.5 667.5 Q197 589 197 445 L197 0 L157 0 L157 979 L196 979 L196 699 Q288 984 587 979 Z M576 1394 L313 1126 L269 1126 L526 1394 L576 1394 Z " />
<glyph glyph-name="Rcommaaccent" unicode="&#x156;" horiz-adv-x="1273" d="M164 1365 L705 1365 Q897 1365 998 1299 Q1145 1204 1145 1006 Q1145 813 987 716 Q927 679 827 663 Q910 652 955.5 635 Q1001 618 1036 584 Q1088 535 1103.5 472 Q1119 409 1127 223 Q1134 48 1148 18 L1157 0 L1116 0 Q1096 35 1088 233 Q1081 425 1056 489 Q1024 573 933.5 608.5 Q843 644 662 644 L203 644 L203 0 L164 0 L164 1365 Z M203 1329 L203 680 L653 680 Q856 680 961 742 Q1107 828 1107 1007 Q1107 1176 983 1262 Q887 1329 690 1329 L203 1329 Z M596 -425 L596 -383 Q639 -342 644 -208 L635 -209 L631 -209 Q612 -209 599 -195.5 Q586 -182 586 -162 Q586 -140 599.5 -124 Q613 -108 631 -108 Q681 -108 681 -193 Q681 -394 596 -425 Z " />
<glyph glyph-name="rcommaaccent" unicode="&#x157;" horiz-adv-x="572" d="M587 979 L587 941 Q389 941 294 819 Q238 746 217.5 667.5 Q197 589 197 445 L197 0 L157 0 L157 979 L196 979 L196 699 Q288 984 587 979 Z M133 -418 L133 -376 Q176 -335 181 -201 L172 -203 L169 -203 Q149 -203 136 -189 Q123 -175 123 -155 Q123 -134 136.5 -118 Q150 -102 168 -102 Q218 -102 218 -187 Q218 -387 133 -418 Z " />
<glyph glyph-name="Rcaron" unicode="&#x158;" horiz-adv-x="1273" d="M164 1365 L705 1365 Q897 1365 998 1299 Q1145 1204 1145 1006 Q1145 813 987 716 Q927 679 827 663 Q910 652 955.5 635 Q1001 618 1036 584 Q1088 535 1103.5 472 Q1119 409 1127 223 Q1134 48 1148 18 L1157 0 L1116 0 Q1096 35 1088 233 Q1081 425 1056 489 Q1024 573 933.5 608.5 Q843 644 662 644 L203 644 L203 0 L164 0 L164 1365 Z M203 1329 L203 680 L653 680 Q856 680 961 742 Q1107 828 1107 1007 Q1107 1176 983 1262 Q887 1329 690 1329 L203 1329 Z M323 1728 L377 1728 L599 1516 L822 1728 L875 1728 L625 1481 L574 1481 L323 1728 Z " />
<glyph glyph-name="rcaron" unicode="&#x159;" horiz-adv-x="572" d="M586 979 L586 941 Q388 941 294 819 Q238 746 217.5 667.5 Q197 589 197 445 L197 0 L157 0 L157 979 L196 979 L196 699 Q288 984 586 979 Z M100 1394 L153 1394 L344 1157 L532 1394 L583 1394 L366 1126 L317 1126 L100 1394 Z " />
<glyph glyph-name="Sacute" unicode="&#x15a;" horiz-adv-x="1176" d="M1053 981 L1013 981 Q1002 1146 923 1232 Q867 1292 770 1325 Q673 1358 551 1358 Q363 1358 251 1277 Q139 1196 139 1043 Q139 872 293 802 Q366 769 624 708 Q778 671 837 653 Q896 635 941 610 Q1080 532 1080 350 Q1080 172 948 71.5 Q816 -29 582 -29 Q328 -29 193 95 Q133 151 97 240.5 Q61 330 61 425 Q61 434 62 452 L99 452 Q99 270 189 156 Q244 86 348 46.5 Q452 7 581 7 Q822 7 939 113 Q1041 205 1041 349 Q1041 506 926 576 Q883 602 825.5 619.5 Q768 637 600 676 Q421 718 351.5 740.5 Q282 763 228 797 Q100 877 100 1047 Q100 1223 241 1316 Q357 1394 550 1394 Q786 1394 913.5 1289 Q1041 1184 1053 981 Z M817 1722 L533 1481 L482 1481 L760 1722 L817 1722 Z " />
<glyph glyph-name="sacute" unicode="&#x15b;" horiz-adv-x="889" d="M781 694 L742 694 Q735 794 701 851 Q627 971 422 971 Q286 971 208 912 Q130 853 130 749 Q130 681 166 641 Q200 603 256 580.5 Q312 558 456 524 Q615 487 683 453 Q807 391 807 250 Q807 121 695 44 Q593 -27 439 -27 Q206 -27 108 124 Q57 203 55 338 L95 338 Q98 210 143 140 Q229 8 439 8 Q588 8 673 72 Q768 144 768 253 Q768 328 720 375 Q681 413 624.5 436.5 Q568 460 447 487 Q259 530 195 566 Q91 626 91 749 Q91 892 217 961 Q297 1005 428 1005 Q619 1005 712 900 Q774 830 781 694 Z M653 1394 L390 1126 L346 1126 L602 1394 L653 1394 Z " />
<glyph glyph-name="Scircumflex" unicode="&#x15c;" horiz-adv-x="1176" d="M1053 981 L1013 981 Q1002 1146 923 1232 Q867 1292 770 1325 Q673 1358 551 1358 Q363 1358 251 1277 Q139 1196 139 1043 Q139 872 293 802 Q366 769 624 708 Q778 671 837 653 Q896 635 941 610 Q1080 532 1080 350 Q1080 172 948 71.5 Q816 -29 582 -29 Q328 -29 193 95 Q133 151 97 240.5 Q61 330 61 425 Q61 434 62 452 L99 452 Q99 270 189 156 Q244 86 348 46.5 Q452 7 581 7 Q822 7 939 113 Q1041 205 1041 349 Q1041 506 926 576 Q883 602 825.5 619.5 Q768 637 600 676 Q421 718 351.5 740.5 Q282 763 228 797 Q100 877 100 1047 Q100 1223 241 1316 Q357 1394 550 1394 Q786 1394 913.5 1289 Q1041 1184 1053 981 Z M847 1481 L793 1481 L571 1694 L348 1481 L295 1481 L545 1728 L596 1728 L847 1481 Z " />
<glyph glyph-name="scircumflex" unicode="&#x15d;" horiz-adv-x="889" d="M781 694 L742 694 Q735 794 701 851 Q627 971 422 971 Q286 971 208 912 Q130 853 130 749 Q130 681 166 641 Q200 603 256 580.5 Q312 558 456 524 Q615 487 683 453 Q807 391 807 250 Q807 121 695 44 Q593 -27 439 -27 Q206 -27 108 124 Q57 203 55 338 L95 338 Q98 210 143 140 Q229 8 439 8 Q588 8 673 72 Q768 144 768 253 Q768 328 720 375 Q681 413 624.5 436.5 Q568 460 447 487 Q259 530 195 566 Q91 626 91 749 Q91 892 217 961 Q297 1005 428 1005 Q619 1005 712 900 Q774 830 781 694 Z M679 1126 L627 1126 L435 1363 L247 1126 L197 1126 L413 1394 L463 1394 L679 1126 Z " />
<glyph glyph-name="Scedilla" unicode="&#x15e;" horiz-adv-x="1176" d="M598 -28 L536 -124 Q582 -117 608 -117 Q667 -117 705.5 -148.5 Q744 -180 744 -229 Q744 -290 692 -330 Q640 -370 560 -370 Q488 -370 391 -331 L405 -296 Q498 -332 561 -332 Q622 -332 663.5 -303.5 Q705 -275 705 -233 Q705 -198 673.5 -174.5 Q642 -151 595 -151 Q555 -151 497 -173 L467 -153 L552 -29 Q359 -25 230 66 Q153 119 107 217 Q61 315 61 425 Q61 434 62 452 L99 452 Q99 270 189 157 Q244 87 347.5 47.5 Q451 8 581 8 Q823 8 939 114 Q1041 206 1041 350 Q1041 507 926 577 Q883 603 827 620 Q771 637 600 677 Q423 718 352.5 741 Q282 764 228 798 Q100 878 100 1047 Q100 1223 241 1316 Q357 1394 550 1394 Q786 1394 913.5 1289 Q1041 1184 1053 981 L1013 981 Q1002 1146 923 1232 Q867 1292 770 1325 Q673 1358 551 1358 Q363 1358 251 1277 Q139 1196 139 1043 Q139 872 293 802 Q366 769 624 708 Q778 672 837 653.5 Q896 635 941 610 Q1080 533 1080 350 Q1080 193 971 92 Q907 32 822.5 5 Q738 -22 598 -28 Z " />
<glyph glyph-name="scedilla" unicode="&#x15f;" horiz-adv-x="889" d="M453 -27 L391 -120 Q437 -111 465 -111 Q524 -111 563 -143 Q602 -175 602 -224 Q602 -288 551 -327 Q500 -366 416 -366 Q351 -366 249 -328 L263 -292 Q351 -331 416 -331 Q480 -331 520 -304 Q560 -277 560 -233 Q560 -195 529.5 -170.5 Q499 -146 452 -146 Q410 -146 350 -171 L325 -149 L410 -27 Q60 -5 55 338 L95 338 Q98 210 143 140 Q229 8 439 8 Q588 8 673 72 Q768 144 768 253 Q768 328 720 375 Q681 413 624.5 436.5 Q568 460 447 487 Q259 530 195 566 Q91 626 91 749 Q91 892 217 961 Q297 1005 428 1005 Q619 1005 712 900 Q774 830 781 694 L742 694 Q735 794 701 851 Q627 971 422 971 Q286 971 208 912 Q130 853 130 749 Q130 681 166 641 Q200 603 256 580.5 Q312 558 456 524 Q615 487 683 453 Q807 391 807 250 Q807 130 709 53 Q611 -24 453 -27 Z " />
<glyph glyph-name="Scaron" unicode="&#x160;" horiz-adv-x="1176" d="M1053 981 L1013 981 Q1002 1146 923 1232 Q867 1292 770 1325 Q673 1358 551 1358 Q363 1358 251 1277 Q139 1196 139 1043 Q139 872 293 802 Q366 769 624 708 Q778 671 837 653 Q896 635 941 610 Q1080 532 1080 350 Q1080 172 948 71.5 Q816 -29 582 -29 Q328 -29 193 95 Q133 151 97 240.5 Q61 330 61 425 Q61 434 62 452 L99 452 Q99 270 189 156 Q244 86 348 46.5 Q452 7 581 7 Q822 7 939 113 Q1041 205 1041 349 Q1041 506 926 576 Q883 602 825.5 619.5 Q768 637 600 676 Q421 718 351.5 740.5 Q282 763 228 797 Q100 877 100 1047 Q100 1223 241 1316 Q357 1394 550 1394 Q786 1394 913.5 1289 Q1041 1184 1053 981 Z M295 1728 L348 1728 L571 1516 L793 1728 L847 1728 L596 1481 L545 1481 L295 1728 Z " />
<glyph glyph-name="scaron" unicode="&#x161;" horiz-adv-x="889" d="M781 694 L742 694 Q735 794 701 851 Q627 971 422 971 Q286 971 208 912 Q130 853 130 749 Q130 681 166 641 Q200 603 256 580.5 Q312 558 456 524 Q615 487 683 453 Q807 391 807 250 Q807 121 695 44 Q593 -27 439 -27 Q206 -27 108 124 Q57 203 55 338 L95 338 Q98 210 143 140 Q229 8 439 8 Q588 8 673 72 Q768 144 768 253 Q768 328 720 375 Q681 413 624.5 436.5 Q568 460 447 487 Q259 530 195 566 Q91 626 91 749 Q91 892 217 961 Q297 1005 428 1005 Q619 1005 712 900 Q774 830 781 694 Z M191 1394 L244 1394 L435 1157 L624 1394 L674 1394 L457 1126 L408 1126 L191 1394 Z " />
<glyph glyph-name="Tcommaaccent" unicode="&#x162;" horiz-adv-x="1085" d="M1056 1365 L1056 1329 L561 1329 L561 0 L522 0 L522 1329 L27 1329 L27 1365 L1056 1365 Z M498 -425 L498 -383 Q541 -342 546 -208 L537 -209 L533 -209 Q514 -209 501 -195.5 Q488 -182 488 -162 Q488 -140 501.5 -124 Q515 -108 533 -108 Q583 -108 583 -193 Q583 -394 498 -425 Z " />
<glyph glyph-name="tcommaaccent" unicode="&#x163;" horiz-adv-x="490" d="M427 979 L427 943 L210 943 L210 237 Q210 128 226 94 Q254 34 347 34 Q375 34 427 42 L427 3 Q383 -4 348 -4 Q234 -4 195 66 Q171 109 171 240 L171 943 L-15 943 L-15 979 L171 979 L171 1292 L210 1292 L210 979 L427 979 Z M232 -418 L232 -376 Q275 -335 280 -201 L271 -203 L267 -203 Q248 -203 235 -189 Q222 -175 222 -155 Q222 -134 235.5 -118 Q249 -102 267 -102 Q317 -102 317 -187 Q317 -387 232 -418 Z " />
<glyph glyph-name="Tcaron" unicode="&#x164;" horiz-adv-x="1085" d="M1056 1365 L1056 1329 L561 1329 L561 0 L522 0 L522 1329 L27 1329 L27 1365 L1056 1365 Z M266 1728 L320 1728 L542 1516 L765 1728 L818 1728 L568 1481 L517 1481 L266 1728 Z " />
<glyph glyph-name="tcaron" unicode="&#x165;" horiz-adv-x="490" d="M427 979 L427 943 L210 943 L210 237 Q210 128 226 94 Q254 34 347 34 Q375 34 427 42 L427 3 Q383 -4 348 -4 Q234 -4 195 66 Q171 109 171 240 L171 943 L-15 943 L-15 979 L171 979 L171 1292 L210 1292 L210 979 L427 979 Z M376 1077 L376 1118 Q420 1160 425 1294 L416 1292 L412 1292 Q392 1292 379 1306 Q366 1320 366 1340 Q366 1361 379.5 1377 Q393 1393 411 1393 Q462 1393 462 1308 Q462 1108 376 1077 Z " />
<glyph glyph-name="Tbar" unicode="&#x166;" horiz-adv-x="1085" d="M1056 1365 L1056 1329 L561 1329 L561 906 L902 906 L902 870 L561 870 L561 0 L522 0 L522 870 L181 870 L181 906 L522 906 L522 1329 L27 1329 L27 1365 L1056 1365 Z " />
<glyph glyph-name="tbar" unicode="&#x167;" horiz-adv-x="490" d="M427 979 L427 943 L210 943 L210 738 L399 738 L399 702 L210 702 L210 237 Q210 128 226 94 Q254 34 347 34 Q375 34 427 42 L427 3 Q383 -4 348 -4 Q234 -4 195 66 Q171 109 171 241 L171 702 L12 702 L12 738 L171 738 L171 943 L-15 943 L-15 979 L171 979 L171 1292 L210 1292 L210 979 L427 979 Z " />
<glyph glyph-name="Utilde" unicode="&#x168;" horiz-adv-x="1316" d="M1166 1365 L1166 511 Q1166 304 1090 182 Q960 -29 668 -29 Q341 -29 214 205 Q150 321 150 517 L150 1365 L189 1365 L189 513 Q189 393 210 315 Q231 237 281 171 Q405 7 668 7 Q894 7 1010.5 136 Q1127 265 1127 515 L1127 1365 L1166 1365 Z M916 1668 Q883 1524 784 1524 Q731 1524 660 1578 Q610 1617 586 1629 Q562 1641 537 1641 Q459 1641 438 1524 L400 1524 Q413 1595 450 1636 Q487 1677 538 1677 Q589 1677 667 1617 Q742 1560 785 1560 Q849 1560 878 1668 L916 1668 Z " />
<glyph glyph-name="utilde" unicode="&#x169;" horiz-adv-x="1054" d="M897 979 L897 0 L858 0 L858 235 Q810 124 754 70 Q654 -27 504 -27 Q415 -27 339 8.5 Q263 44 216 108 Q150 197 150 354 L150 979 L189 979 L189 395 Q189 269 208 210 Q238 115 318 60 Q398 5 506 5 Q661 5 759.5 122 Q858 239 858 424 L858 979 L897 979 Z M766 1334 Q736 1188 644 1188 Q595 1188 529 1242 Q483 1280 460.5 1292.5 Q438 1305 416 1305 Q346 1305 327 1190 L288 1190 Q300 1260 334.5 1301 Q369 1342 416 1342 Q464 1342 535 1282 Q604 1224 645 1224 Q702 1224 728 1334 L766 1334 Z " />
<glyph glyph-name="Umacron" unicode="&#x16a;" horiz-adv-x="1316" d="M1166 1365 L1166 511 Q1166 304 1090 182 Q960 -29 668 -29 Q341 -29 214 205 Q150 321 150 517 L150 1365 L189 1365 L189 513 Q189 393 210 315 Q231 237 281 171 Q405 7 668 7 Q894 7 1010.5 136 Q1127 265 1127 515 L1127 1365 L1166 1365 Z M954 1602 L954 1566 L362 1566 L362 1602 L954 1602 Z " />
<glyph glyph-name="umacron" unicode="&#x16b;" horiz-adv-x="1054" d="M897 979 L897 0 L858 0 L858 235 Q810 124 754 70 Q654 -27 504 -27 Q415 -27 339 8.5 Q263 44 216 108 Q150 197 150 354 L150 979 L189 979 L189 395 Q189 269 208 210 Q238 115 318 60 Q398 5 506 5 Q661 5 759.5 122 Q858 239 858 424 L858 979 L897 979 Z M792 1260 L792 1224 L255 1224 L255 1260 L792 1260 Z " />
<glyph glyph-name="Ubreve" unicode="&#x16c;" horiz-adv-x="1316" d="M1166 1365 L1166 511 Q1166 304 1090 182 Q960 -29 668 -29 Q341 -29 214 205 Q150 321 150 517 L150 1365 L189 1365 L189 513 Q189 393 210 315 Q231 237 281 171 Q405 7 668 7 Q894 7 1010.5 136 Q1127 265 1127 515 L1127 1365 L1166 1365 Z M902 1713 Q893 1648 866 1604 Q797 1488 661 1488 Q528 1488 458 1596 Q426 1646 419 1713 L458 1713 Q468 1649 494 1611 Q553 1524 663 1524 Q743 1524 795.5 1573.5 Q848 1623 864 1713 L902 1713 Z " />
<glyph glyph-name="ubreve" unicode="&#x16d;" horiz-adv-x="1054" d="M897 979 L897 0 L858 0 L858 235 Q810 124 754 70 Q654 -27 504 -27 Q415 -27 339 8.5 Q263 44 216 108 Q150 197 150 354 L150 979 L189 979 L189 395 Q189 269 208 210 Q238 115 318 60 Q398 5 506 5 Q661 5 759.5 122 Q858 239 858 424 L858 979 L897 979 Z M299 1378 L337 1378 Q348 1312 371 1270 Q423 1176 524 1176 Q598 1176 645.5 1227.5 Q693 1279 710 1378 L748 1378 Q740 1307 712 1255 Q650 1140 524 1140 Q432 1140 371.5 1204 Q311 1268 299 1378 Z " />
<glyph glyph-name="Uring" unicode="&#x16e;" horiz-adv-x="1316" d="M1166 1365 L1166 511 Q1166 304 1090 182 Q960 -29 668 -29 Q341 -29 214 205 Q150 321 150 517 L150 1365 L189 1365 L189 513 Q189 393 210 315 Q231 237 281 171 Q405 7 668 7 Q894 7 1010.5 136 Q1127 265 1127 515 L1127 1365 L1166 1365 Z M661 1800 Q733 1800 783 1744 Q827 1696 827 1631 Q827 1555 771 1505 Q723 1461 658 1461 Q583 1461 533 1517 Q489 1566 489 1632 Q489 1702 539 1751 Q589 1800 661 1800 Z M660 1762 Q604 1762 565.5 1724 Q527 1686 527 1632 Q527 1576 565 1537.5 Q603 1499 658 1499 Q712 1499 750.5 1537.5 Q789 1576 789 1631 Q789 1684 750.5 1723 Q712 1762 660 1762 Z " />
<glyph glyph-name="uring" unicode="&#x16f;" horiz-adv-x="1054" d="M897 979 L897 0 L858 0 L858 235 Q810 124 754 70 Q654 -27 504 -27 Q415 -27 339 8.5 Q263 44 216 108 Q150 197 150 354 L150 979 L189 979 L189 395 Q189 269 208 210 Q238 115 318 60 Q398 5 506 5 Q661 5 759.5 122 Q858 239 858 424 L858 979 L897 979 Z M526 1451 Q599 1451 649 1395 Q693 1347 693 1282 Q693 1207 637 1156 Q589 1113 523 1113 Q448 1113 398 1169 Q354 1217 354 1283 Q354 1353 404 1402 Q454 1451 526 1451 Z M525 1413 Q470 1413 431 1375 Q392 1337 392 1283 Q392 1228 430.5 1189.5 Q469 1151 523 1151 Q578 1151 616.5 1189.5 Q655 1228 655 1282 Q655 1335 616.5 1374 Q578 1413 525 1413 Z " />
<glyph glyph-name="Uhungarumlaut" unicode="&#x170;" horiz-adv-x="1316" d="M1166 1365 L1166 511 Q1166 304 1090 182 Q960 -29 668 -29 Q341 -29 214 205 Q150 321 150 517 L150 1365 L189 1365 L189 513 Q189 393 210 315 Q231 237 281 171 Q405 7 668 7 Q894 7 1010.5 136 Q1127 265 1127 515 L1127 1365 L1166 1365 Z M728 1722 L513 1481 L464 1481 L674 1722 L728 1722 Z M1015 1722 L800 1481 L751 1481 L961 1722 L1015 1722 Z " />
<glyph glyph-name="uhungarumlaut" unicode="&#x171;" horiz-adv-x="1054" d="M897 979 L897 0 L858 0 L858 235 Q810 124 754 70 Q654 -27 504 -27 Q415 -27 339 8.5 Q263 44 216 108 Q150 197 150 354 L150 979 L189 979 L189 395 Q189 269 208 210 Q238 115 318 60 Q398 5 506 5 Q661 5 759.5 122 Q858 239 858 424 L858 979 L897 979 Z M605 1394 L411 1126 L367 1126 L555 1394 L605 1394 Z M838 1394 L643 1126 L599 1126 L787 1394 L838 1394 Z " />
<glyph glyph-name="Uogonek" unicode="&#x172;" horiz-adv-x="1316" d="M1035 -267 L1036 -306 Q975 -327 929 -327 Q844 -327 791 -281 Q745 -239 745 -173 Q745 -77 846 -5 Q753 -29 665 -29 Q341 -29 214 205 Q150 321 150 517 L150 1365 L189 1365 L189 513 Q189 393 210 315 Q231 237 281 171 Q405 7 668 7 Q894 7 1010.5 136 Q1127 265 1127 515 L1127 1365 L1166 1365 L1166 511 Q1166 341 1117 232.5 Q1068 124 954 43 Q858 -27 821 -73 Q784 -119 784 -171 Q784 -223 826 -256 Q868 -289 934 -289 Q977 -289 1035 -267 Z " />
<glyph glyph-name="uogonek" unicode="&#x173;" horiz-adv-x="1054" d="M897 0 Q782 -83 782 -168 Q782 -222 823 -255.5 Q864 -289 931 -289 Q974 -289 1032 -267 L1033 -306 Q973 -327 926 -327 Q843 -327 792.5 -283.5 Q742 -240 742 -169 Q742 -64 858 0 L858 235 Q810 124 754 70 Q654 -27 504 -27 Q415 -27 339 8.5 Q263 44 216 108 Q150 197 150 354 L150 979 L189 979 L189 395 Q189 269 208 210 Q238 115 318 60 Q398 5 506 5 Q661 5 759.5 122 Q858 239 858 424 L858 979 L897 979 L897 0 Z " />
<glyph glyph-name="Wcircumflex" unicode="&#x174;" horiz-adv-x="1803" d="M1762 1365 L1360 0 L1308 0 L948 1185 L936 1223 L922 1266 Q909 1308 902 1331 Q887 1282 869 1220 L857 1177 L506 0 L457 0 L41 1365 L86 1365 L431 223 L443 181 Q472 90 482 46 Q489 81 505 133 L518 180 L529 216 L873 1365 L932 1365 L1286 212 Q1297 175 1315 114 Q1327 73 1334 46 Q1342 72 1353 116 L1365 156 L1381 214 L1722 1365 L1762 1365 Z M1177 1481 L1124 1481 L901 1694 L679 1481 L625 1481 L876 1728 L927 1728 L1177 1481 Z " />
<glyph glyph-name="wcircumflex" unicode="&#x175;" horiz-adv-x="1414" d="M1387 979 L1066 0 L1017 0 L742 839 Q721 902 709 939 Q698 905 676 840 L400 0 L346 0 L27 979 L67 979 L338 151 Q354 103 373 40 Q385 77 410 155 L679 979 L739 979 L1000 176 L1024 102 L1042 44 Q1066 125 1081 171 L1347 979 L1387 979 Z M948 1126 L895 1126 L704 1363 L516 1126 L466 1126 L682 1394 L732 1394 L948 1126 Z " />
<glyph glyph-name="Ycircumflex" unicode="&#x176;" horiz-adv-x="1153" d="M1153 1365 L593 574 L593 0 L554 0 L554 575 L0 1365 L44 1365 L526 682 Q552 645 574 612 L621 679 L1110 1365 L1153 1365 Z M853 1481 L799 1481 L577 1694 L354 1481 L301 1481 L551 1728 L602 1728 L853 1481 Z " />
<glyph glyph-name="ycircumflex" unicode="&#x177;" horiz-adv-x="855" d="M842 979 L405 -162 Q365 -265 314.5 -299.5 Q264 -334 154 -334 L125 -334 L125 -300 Q141 -300 148 -300 Q220 -300 259 -287 Q298 -274 322 -242 Q341 -217 384.5 -115.5 Q428 -14 428 5 Q428 8 427 9 L14 979 L57 979 L420 124 L449 48 Q464 99 477 132 L803 979 L842 979 Z M669 1126 L617 1126 L425 1363 L237 1126 L187 1126 L403 1394 L453 1394 L669 1126 Z " />
<glyph glyph-name="Ydieresis" unicode="&#x178;" horiz-adv-x="1153" d="M1153 1365 L593 574 L593 0 L554 0 L554 575 L0 1365 L44 1365 L526 682 Q552 645 574 612 L621 679 L1110 1365 L1153 1365 Z M771 1661 Q789 1661 801.5 1646.5 Q814 1632 814 1612 Q814 1591 801.5 1576.5 Q789 1562 770 1562 Q752 1562 739 1576.5 Q726 1591 726 1612 Q726 1632 739 1646.5 Q752 1661 771 1661 Z M388 1661 Q406 1661 418.5 1646.5 Q431 1632 431 1612 Q431 1591 418.5 1576.5 Q406 1562 387 1562 Q369 1562 356 1576.5 Q343 1591 343 1612 Q343 1632 356 1646.5 Q369 1661 388 1661 Z " />
<glyph glyph-name="Zacute" unicode="&#x179;" horiz-adv-x="1130" d="M1060 1365 L1060 1316 L141 94 Q130 80 97 36 L147 36 L192 36 L1075 36 L1075 0 L61 0 L61 51 L981 1275 Q1007 1309 1022 1329 Q1001 1329 957 1329 L114 1329 L114 1365 L1060 1365 Z M828 1722 L544 1481 L493 1481 L771 1722 L828 1722 Z " />
<glyph glyph-name="zacute" unicode="&#x17a;" horiz-adv-x="837" d="M778 979 L778 934 L124 96 Q103 69 76 36 L108 36 L144 36 L809 36 L809 0 L41 0 L41 49 L694 886 Q724 923 739 943 L711 943 L683 943 L95 943 L95 979 L778 979 Z M661 1394 L397 1126 L354 1126 L610 1394 L661 1394 Z " />
<glyph glyph-name="Zdotaccent" unicode="&#x17b;" horiz-adv-x="1130" d="M1060 1365 L1060 1316 L141 94 Q130 80 97 36 L147 36 L192 36 L1075 36 L1075 0 L61 0 L61 51 L981 1275 Q1007 1309 1022 1329 Q1001 1329 957 1329 L114 1329 L114 1365 L1060 1365 Z M585 1661 Q603 1661 615.5 1646.5 Q628 1632 628 1612 Q628 1591 615.5 1576.5 Q603 1562 584 1562 Q566 1562 553 1576.5 Q540 1591 540 1612 Q540 1632 553 1646.5 Q566 1661 585 1661 Z " />
<glyph glyph-name="zdotaccent" unicode="&#x17c;" horiz-adv-x="837" d="M778 979 L778 934 L124 96 Q103 69 76 36 L108 36 L144 36 L809 36 L809 0 L41 0 L41 49 L694 886 Q724 923 739 943 L711 943 L683 943 L95 943 L95 979 L778 979 Z M441 1317 Q459 1317 471.5 1302.5 Q484 1288 484 1267 Q484 1247 471 1232.5 Q458 1218 440 1218 Q422 1218 409 1232.5 Q396 1247 396 1268 Q396 1288 409 1302.5 Q422 1317 441 1317 Z " />
<glyph glyph-name="Zcaron" unicode="&#x17d;" horiz-adv-x="1130" d="M1060 1365 L1060 1316 L141 94 Q130 80 97 36 L147 36 L192 36 L1075 36 L1075 0 L61 0 L61 51 L981 1275 Q1007 1309 1022 1329 Q1001 1329 957 1329 L114 1329 L114 1365 L1060 1365 Z M310 1728 L363 1728 L586 1516 L809 1728 L862 1728 L611 1481 L561 1481 L310 1728 Z " />
<glyph glyph-name="zcaron" unicode="&#x17e;" horiz-adv-x="837" d="M778 979 L778 934 L124 96 Q103 69 76 36 L108 36 L144 36 L809 36 L809 0 L41 0 L41 49 L694 886 Q724 923 739 943 L711 943 L683 943 L95 943 L95 979 L778 979 Z M196 1394 L248 1394 L440 1157 L628 1394 L678 1394 L462 1126 L412 1126 L196 1394 Z " />
<glyph glyph-name="longs" unicode="&#x17f;" horiz-adv-x="483" d="M455 1365 L455 1328 Q413 1333 379 1333 Q274 1333 237 1261 Q223 1232 219.5 1198 Q216 1164 216 1048 L216 0 L177 0 L177 943 L6 943 L6 979 L177 979 L177 1098 Q177 1241 213 1296 Q261 1371 385 1371 Q415 1371 455 1365 Z " />
<glyph glyph-name="uni018F" unicode="&#x18f;" horiz-adv-x="1479" d="M220 1121 Q245 1158 273 1190 Q455 1396 734 1396 Q1019 1396 1201 1189 Q1377 988 1377 668 Q1377 386 1227 197 Q1045 -31 735 -31 Q429 -31 255 195 Q102 394 102 680 Q102 692 103 726 L1336 726 Q1324 931 1235 1079 Q1151 1217 1017 1291 Q891 1360 738 1360 Q478 1360 303 1163 Q276 1132 254 1099 L220 1121 Z M1338 689 L141 689 Q141 476 226 315 Q308 157 448 77 Q574 5 734 5 Q1026 5 1198 223 Q1338 400 1338 666 Q1338 671 1338 689 Z " />
<glyph glyph-name="florin" unicode="&#x192;" horiz-adv-x="1174" d="M893 945 L888 910 L643 910 L489 33 Q453 -171 391 -256 Q329 -341 216 -341 Q172 -341 128 -328 L135 -290 Q185 -301 221 -301 Q321 -301 374 -207 Q420 -128 460 100 L603 910 L372 910 L379 945 L609 945 L641 1126 Q662 1251 679 1302 Q696 1353 730 1392 Q796 1470 920 1470 Q975 1470 1031 1456 L1023 1420 Q963 1431 920 1431 Q818 1431 765 1366 Q712 1301 684 1142 L650 945 L893 945 Z " />
<glyph glyph-name="uni01C4" unicode="&#x1c4;" horiz-adv-x="2104" d="M1311 1728 L1364 1728 L1587 1516 L1809 1728 L1863 1728 L1612 1481 L1561 1481 L1311 1728 Z M17 1365 L463 1365 Q600 1365 704 1329.5 Q808 1294 886 1220 Q978 1132 1027.5 997 Q1077 862 1077 697 Q1077 346 886 156 Q805 75 701.5 37.5 Q598 0 455 0 L17 0 L17 1365 Z M56 1329 L56 36 L432 36 Q578 36 674.5 67 Q771 98 848 169 Q1038 346 1038 695 Q1038 1007 875 1178 Q799 1258 699.5 1293.5 Q600 1329 454 1329 L56 1329 Z M2033 1365 L2033 1316 L1115 94 Q1104 80 1071 36 L1121 36 L1166 36 L2049 36 L2049 0 L1035 0 L1035 51 L1955 1275 Q1981 1309 1996 1329 Q1975 1329 1931 1329 L1088 1329 L1088 1365 L2033 1365 Z " />
<glyph glyph-name="uni01C5" unicode="&#x1c5;" horiz-adv-x="1906" d="M17 1365 L463 1365 Q600 1365 704 1329.5 Q808 1294 886 1220 Q978 1132 1027.5 997 Q1077 862 1077 697 Q1077 346 886 156 Q805 75 701.5 37.5 Q598 0 455 0 L17 0 L17 1365 Z M56 1329 L56 36 L432 36 Q578 36 674.5 67 Q771 98 848 169 Q1038 346 1038 695 Q1038 1007 875 1178 Q799 1258 699.5 1293.5 Q600 1329 454 1329 L56 1329 Z M1273 1394 L1326 1394 L1517 1157 L1706 1394 L1756 1394 L1539 1126 L1490 1126 L1273 1394 Z M1847 979 L1847 934 L1193 96 Q1172 69 1145 36 L1178 36 L1213 36 L1878 36 L1878 0 L1110 0 L1110 49 L1764 886 Q1793 923 1808 943 L1780 943 L1752 943 L1164 943 L1164 979 L1847 979 Z " />
<glyph glyph-name="uni01C6" unicode="&#x1c6;" horiz-adv-x="1904" d="M1846 979 L1846 934 L1192 96 Q1171 69 1144 36 L1176 36 L1211 36 L1877 36 L1877 0 L1109 0 L1109 49 L1762 886 Q1792 923 1807 943 L1779 943 L1750 943 L1163 943 L1163 979 L1846 979 Z M1266 1394 L1319 1394 L1510 1157 L1699 1394 L1749 1394 L1532 1126 L1483 1126 L1266 1394 Z M953 1365 L953 0 L914 0 L914 281 Q889 187 841 125 Q725 -27 518 -27 Q291 -27 179 147 Q93 280 93 478 Q93 728 220 874 Q334 1006 525 1006 Q718 1006 834 864 Q876 813 914 713 L914 1365 L953 1365 Z M528 971 Q346 971 241 843 Q132 711 132 480 Q132 298 205 176 Q254 94 337 50 Q417 8 518 8 Q708 8 816 152 Q913 281 913 489 Q913 697 821 821 Q710 971 528 971 Z " />
<glyph glyph-name="uni01C7" unicode="&#x1c7;" horiz-adv-x="1971" d="M1013 36 L1013 0 L171 0 L171 1365 L210 1365 L210 36 L1013 36 Z M1822 1365 L1822 339 Q1822 171 1746 84 Q1647 -29 1455 -29 Q1204 -29 1121 141 Q1082 223 1082 375 Q1082 393 1084 424 L1119 424 Q1119 261 1140 194 Q1197 7 1455 7 Q1635 7 1723 115 Q1783 189 1783 348 L1783 1365 L1822 1365 Z " />
<glyph glyph-name="uni01C8" unicode="&#x1c8;" horiz-adv-x="1358" d="M1013 36 L1013 0 L171 0 L171 1365 L210 1365 L210 36 L1013 36 Z M1201 979 L1201 -138 Q1201 -252 1155 -295.5 Q1109 -339 988 -339 Q976 -339 957 -339 L957 -304 Q1037 -303 1060.5 -299.5 Q1084 -296 1105 -284 Q1162 -249 1162 -146 L1162 979 L1201 979 Z M1184 1318 Q1202 1318 1214.5 1303.5 Q1227 1289 1227 1269 Q1227 1248 1214.5 1233.5 Q1202 1219 1183 1219 Q1165 1219 1152 1233.5 Q1139 1248 1139 1269 Q1139 1289 1152 1303.5 Q1165 1318 1184 1318 Z " />
<glyph glyph-name="uni01C9" unicode="&#x1c9;" horiz-adv-x="548" d="M377 979 L377 -138 Q377 -252 331 -295.5 Q285 -339 164 -339 Q152 -339 133 -339 L133 -304 Q213 -303 236.5 -299.5 Q260 -296 281 -284 Q338 -249 338 -146 L338 979 L377 979 Z M360 1318 Q378 1318 390.5 1303.5 Q403 1289 403 1269 Q403 1248 390.5 1233.5 Q378 1219 359 1219 Q341 1219 328 1233.5 Q315 1248 315 1269 Q315 1289 328 1303.5 Q341 1318 360 1318 Z M196 1365 L196 0 L157 0 L157 1365 L196 1365 Z " />
<glyph glyph-name="uni01CA" unicode="&#x1ca;" horiz-adv-x="2181" d="M1205 1365 L1205 0 L1159 0 L268 1237 L246 1268 Q221 1305 207 1326 Q209 1307 209 1288 Q209 1269 210 1226 L210 0 L171 0 L171 1365 L222 1365 L1079 175 Q1083 169 1105 138 Q1116 122 1126 107 Q1153 70 1169 46 Q1166 110 1166 214 L1166 1365 L1205 1365 Z M2031 1365 L2031 339 Q2031 171 1955 84 Q1857 -29 1664 -29 Q1413 -29 1330 141 Q1291 223 1291 375 Q1291 392 1293 424 L1328 424 Q1328 261 1349 194 Q1406 7 1664 7 Q1844 7 1932 115 Q1992 189 1992 348 L1992 1365 L2031 1365 Z " />
<glyph glyph-name="uni01CB" unicode="&#x1cb;" horiz-adv-x="1545" d="M1205 1365 L1205 0 L1159 0 L268 1237 L246 1268 Q221 1305 207 1326 Q209 1307 209 1288 Q209 1269 210 1226 L210 0 L171 0 L171 1365 L222 1365 L1079 175 Q1083 169 1105 138 Q1116 122 1126 107 Q1153 70 1169 46 Q1166 110 1166 214 L1166 1365 L1205 1365 Z M1389 979 L1389 -138 Q1389 -252 1343 -295.5 Q1297 -339 1176 -339 Q1164 -339 1145 -339 L1145 -304 Q1225 -303 1248.5 -299.5 Q1272 -296 1293 -284 Q1350 -249 1350 -146 L1350 979 L1389 979 Z M1371 1318 Q1389 1318 1401.5 1303.5 Q1414 1289 1414 1269 Q1414 1248 1401.5 1233.5 Q1389 1219 1370 1219 Q1352 1219 1339 1233.5 Q1326 1248 1326 1269 Q1326 1289 1339 1303.5 Q1352 1318 1371 1318 Z " />
<glyph glyph-name="uni01CC" unicode="&#x1cc;" horiz-adv-x="1229" d="M1078 979 L1078 -138 Q1078 -252 1032 -295.5 Q986 -339 865 -339 Q853 -339 834 -339 L834 -304 Q914 -303 937.5 -299.5 Q961 -296 982 -284 Q1039 -249 1039 -146 L1039 979 L1078 979 Z M1061 1318 Q1079 1318 1091.5 1303.5 Q1104 1289 1104 1269 Q1104 1248 1091.5 1233.5 Q1079 1219 1060 1219 Q1042 1219 1029 1233.5 Q1016 1248 1016 1269 Q1016 1289 1029 1303.5 Q1042 1318 1061 1318 Z M196 979 L196 735 Q227 827 276 881 Q387 1006 566 1006 Q742 1006 843 888 Q896 826 908 754 Q917 703 917 620 L917 0 L878 0 L878 616 Q878 751 842 821 Q804 895 725 934 Q651 971 565 971 Q419 971 321 881 Q196 768 196 523 L196 0 L157 0 L157 979 L196 979 Z " />
<glyph glyph-name="uni01CD" unicode="&#x1cd;" horiz-adv-x="1200" d="M625 1365 L1172 0 L1129 0 L949 451 L254 451 L71 0 L27 0 L587 1365 L625 1365 Z M935 487 L634 1240 Q622 1271 606 1323 Q600 1308 587 1275 L575 1246 L268 487 L935 487 Z M331 1728 L384 1728 L607 1516 L829 1728 L883 1728 L632 1481 L581 1481 L331 1728 Z " />
<glyph glyph-name="uni01CE" unicode="&#x1ce;" horiz-adv-x="991" d="M254 1394 L307 1394 L498 1157 L686 1394 L737 1394 L520 1126 L471 1126 L254 1394 Z M946 40 L946 5 Q937 4 933 3 Q918 2 905 2 Q847 2 821 26 Q795 50 795 104 L795 143 L795 213 Q749 97 645 34 Q541 -29 395 -29 Q244 -29 162.5 41.5 Q81 112 81 243 Q81 320 113 372 Q145 424 216 462 Q299 507 574 541 Q694 556 736 584 Q795 622 795 720 Q795 973 483 973 Q349 973 268 907 Q229 875 210 836.5 Q191 798 180 729 L131 729 Q154 879 246 943 Q338 1009 501 1009 Q834 1009 834 708 L834 87 Q834 37 901 37 Q921 37 946 40 Z M788 575 Q760 542 720.5 530.5 Q681 519 538 501 Q300 470 215 416 Q165 383 143 341.5 Q121 300 121 237 Q121 135 195.5 71.5 Q270 8 389 8 Q550 8 663 92 Q795 189 795 335 L795 575 L788 575 Z " />
<glyph glyph-name="uni01D1" unicode="&#x1d1;" horiz-adv-x="1479" d="M744 1396 Q926 1396 1080 1294 Q1236 1190 1311 1013 Q1377 858 1377 668 Q1377 386 1227 198 Q1045 -31 735 -31 Q429 -31 255 195 Q102 394 102 679 Q102 997 273 1189 Q457 1396 744 1396 Z M747 1360 Q477 1360 304 1163 Q142 978 142 684 Q142 411 285 223 Q450 5 735 5 Q1026 5 1198 223 Q1338 400 1338 671 Q1338 974 1175 1161 Q1002 1360 747 1360 Z M463 1728 L517 1728 L739 1516 L962 1728 L1015 1728 L765 1481 L714 1481 L463 1728 Z " />
<glyph glyph-name="uni01D2" unicode="&#x1d2;" horiz-adv-x="1070" d="M547 1006 Q689 1006 796 925 Q898 847 945 702 Q978 601 978 482 Q978 263 873 129 Q750 -27 535 -27 Q320 -27 200 130 Q93 270 93 487 Q93 707 205 849 Q329 1006 547 1006 Z M544 971 Q349 971 235 827 Q132 698 132 489 Q132 279 231 152 Q344 8 538 8 Q735 8 844 155 Q939 282 939 481 Q939 679 849 812 Q795 893 708 934 Q630 971 544 971 Z M294 1394 L347 1394 L538 1157 L726 1394 L777 1394 L560 1126 L511 1126 L294 1394 Z " />
<glyph glyph-name="uni01D3" unicode="&#x1d3;" horiz-adv-x="1316" d="M1166 1365 L1166 511 Q1166 304 1090 182 Q960 -29 668 -29 Q341 -29 214 205 Q150 321 150 517 L150 1365 L189 1365 L189 513 Q189 393 210 315 Q231 237 281 171 Q405 7 668 7 Q894 7 1010.5 136 Q1127 265 1127 515 L1127 1365 L1166 1365 Z M382 1728 L435 1728 L658 1516 L881 1728 L934 1728 L683 1481 L633 1481 L382 1728 Z " />
<glyph glyph-name="uni01D4" unicode="&#x1d4;" horiz-adv-x="1054" d="M897 979 L897 0 L858 0 L858 235 Q810 124 754 70 Q654 -27 504 -27 Q415 -27 339 8.5 Q263 44 216 108 Q150 197 150 354 L150 979 L189 979 L189 395 Q189 269 208 210 Q238 115 318 60 Q398 5 506 5 Q661 5 759.5 122 Q858 239 858 424 L858 979 L897 979 Z M282 1394 L335 1394 L526 1157 L715 1394 L765 1394 L548 1126 L499 1126 L282 1394 Z " />
<glyph glyph-name="uni01DD" unicode="&#x1dd;" horiz-adv-x="1035" d="M94 633 Q111 745 161 822 Q280 1006 506 1006 Q711 1006 831 857 Q944 716 944 495 Q944 250 813 107 Q691 -27 504 -27 Q358 -27 253 58 Q162 131 122 232 Q82 333 83 486 L902 486 Q902 615 870 704 Q828 824 739 893 Q641 971 506 971 Q329 971 221 840 Q156 762 133 633 L94 633 Z M124 450 Q125 356 140 297.5 Q155 239 193 179 Q301 8 502 8 Q652 8 761 106 Q826 165 858.5 244.5 Q891 324 902 450 L124 450 Z " />
<glyph glyph-name="Gcaron" unicode="&#x1e6;" horiz-adv-x="1479" d="M1336 643 L1336 -1 L1296 -1 L1307 402 Q1269 259 1196 170 Q1031 -31 745 -31 Q544 -31 390 69 Q247 161 172 323 Q102 476 102 665 Q102 825 150.5 966 Q199 1107 287 1204 Q461 1396 739 1396 Q1003 1396 1173 1209 Q1279 1093 1308 940 L1272 940 Q1246 1069 1152 1176 Q992 1360 739 1360 Q432 1360 264 1114 Q141 934 141 662 Q141 385 286 211 Q368 113 486 59 Q604 5 739 5 Q939 5 1086 114 Q1187 189 1242 307.5 Q1297 426 1297 569 Q1297 579 1296 607 L767 607 L767 643 L1336 643 Z M470 1728 L524 1728 L746 1516 L969 1728 L1022 1728 L772 1481 L721 1481 L470 1728 Z " />
<glyph glyph-name="gcaron" unicode="&#x1e7;" horiz-adv-x="1087" d="M931 979 L931 66 Q931 -100 879 -192 Q783 -360 519 -360 Q345 -360 248.5 -281.5 Q152 -203 145 -54 L183 -54 Q194 -156 232 -209 Q315 -325 517 -325 Q740 -325 827 -201 Q892 -108 892 90 L892 335 Q865 260 835 217 Q769 123 656 81 Q586 54 503 54 Q294 54 182 208 Q94 329 94 520 Q94 738 202 867 Q256 931 337 968 Q420 1006 514 1006 Q652 1006 750.5 931 Q849 856 892 717 L892 979 L931 979 Z M518 970 Q319 970 213 817 Q133 701 133 528 Q133 340 222 220 Q321 89 504 89 Q615 89 707 145 Q891 258 891 529 Q891 740 780 857 Q722 919 641 947 Q576 970 518 970 Z M278 1394 L330 1394 L522 1157 L710 1394 L760 1394 L544 1126 L494 1126 L278 1394 Z " />
<glyph glyph-name="uni01F4" unicode="&#x1f4;" horiz-adv-x="1479" d="M1336 643 L1336 -1 L1296 -1 L1307 402 Q1269 259 1196 170 Q1031 -31 745 -31 Q544 -31 390 69 Q247 161 172 323 Q102 476 102 665 Q102 825 150.5 966 Q199 1107 287 1204 Q461 1396 739 1396 Q1003 1396 1173 1209 Q1279 1093 1308 940 L1272 940 Q1246 1069 1152 1176 Q992 1360 739 1360 Q432 1360 264 1114 Q141 934 141 662 Q141 385 286 211 Q368 113 486 59 Q604 5 739 5 Q939 5 1086 114 Q1187 189 1242 307.5 Q1297 426 1297 569 Q1297 579 1296 607 L767 607 L767 643 L1336 643 Z M975 1722 L692 1481 L640 1481 L918 1722 L975 1722 Z " />
<glyph glyph-name="uni01F5" unicode="&#x1f5;" horiz-adv-x="1087" d="M931 979 L931 66 Q931 -100 879 -192 Q783 -360 519 -360 Q345 -360 248.5 -281.5 Q152 -203 145 -54 L183 -54 Q194 -156 232 -209 Q315 -325 517 -325 Q740 -325 827 -201 Q892 -108 892 90 L892 335 Q865 260 835 217 Q769 123 656 81 Q586 54 503 54 Q294 54 182 208 Q94 329 94 520 Q94 738 202 867 Q256 931 337 968 Q420 1006 514 1006 Q652 1006 750.5 931 Q849 856 892 717 L892 979 L931 979 Z M518 970 Q319 970 213 817 Q133 701 133 528 Q133 340 222 220 Q321 89 504 89 Q615 89 707 145 Q891 258 891 529 Q891 740 780 857 Q722 919 641 947 Q576 970 518 970 Z M780 1394 L516 1126 L472 1126 L729 1394 L780 1394 Z " />
<glyph glyph-name="Aringacute" unicode="&#x1fa;" horiz-adv-x="1200" d="M625 1365 L1172 0 L1129 0 L949 451 L254 451 L71 0 L27 0 L587 1365 L625 1365 Z M935 487 L634 1240 Q622 1271 606 1323 Q600 1308 587 1275 L575 1246 L268 487 L935 487 Z M609 1800 Q681 1800 732 1744 Q776 1696 776 1631 Q776 1555 720 1505 Q671 1461 606 1461 Q531 1461 481 1517 Q437 1566 437 1632 Q437 1702 487.5 1751 Q538 1800 609 1800 Z M608 1762 Q553 1762 514 1724 Q475 1686 475 1632 Q475 1576 513.5 1537.5 Q552 1499 606 1499 Q661 1499 699.5 1537.5 Q738 1576 738 1631 Q738 1684 699.5 1723 Q661 1762 608 1762 Z M715 2032 L431 1792 L380 1792 L658 2032 L715 2032 Z " />
<glyph glyph-name="aringacute" unicode="&#x1fb;" horiz-adv-x="991" d="M515 1451 Q587 1451 637 1395 Q681 1347 681 1282 Q681 1207 625 1156 Q577 1113 512 1113 Q437 1113 387 1169 Q343 1217 343 1283 Q343 1353 393 1402 Q443 1451 515 1451 Z M514 1413 Q459 1413 420 1375 Q381 1337 381 1283 Q381 1228 419 1189.5 Q457 1151 512 1151 Q566 1151 604.5 1189.5 Q643 1228 643 1282 Q643 1335 604.5 1374 Q566 1413 514 1413 Z M614 1690 L351 1423 L307 1423 L563 1690 L614 1690 Z M946 40 L946 5 Q937 4 933 3 Q918 2 905 2 Q847 2 821 26 Q795 50 795 104 L795 143 L795 213 Q749 97 645 34 Q541 -29 395 -29 Q244 -29 162.5 41.5 Q81 112 81 243 Q81 320 113 372 Q145 424 216 462 Q299 507 574 541 Q694 556 736 584 Q795 622 795 720 Q795 973 483 973 Q349 973 268 907 Q229 875 210 836.5 Q191 798 180 729 L131 729 Q154 879 246 943 Q338 1009 501 1009 Q834 1009 834 708 L834 87 Q834 37 901 37 Q921 37 946 40 Z M788 575 Q760 542 720.5 530.5 Q681 519 538 501 Q300 470 215 416 Q165 383 143 341.5 Q121 300 121 237 Q121 135 195.5 71.5 Q270 8 389 8 Q550 8 663 92 Q795 189 795 335 L795 575 L788 575 Z " />
<glyph glyph-name="AEacute" unicode="&#x1fc;" horiz-adv-x="1726" d="M1645 1365 L1645 1329 L891 1329 L891 723 L1582 723 L1582 687 L891 687 L891 36 L1645 36 L1645 0 L852 0 L852 527 L336 527 L58 0 L14 0 L739 1365 L1645 1365 Z M852 563 L852 1332 L761 1332 L354 563 L852 563 Z M1127 1722 L843 1481 L791 1481 L1070 1722 L1127 1722 Z " />
<glyph glyph-name="aeacute" unicode="&#x1fd;" horiz-adv-x="1742" d="M1107 1394 L843 1126 L799 1126 L1056 1394 L1107 1394 Z M829 289 Q803 195 771 148 Q713 63 615.5 17 Q518 -29 395 -29 Q244 -29 162.5 41.5 Q81 112 81 243 Q81 320 113.5 372 Q146 424 216 462 Q299 506 574 541 Q694 556 736 583 Q795 621 795 719 Q795 973 483 973 Q349 973 268 907 Q229 875 210 836.5 Q191 798 180 729 L131 729 Q154 878 246 943 Q338 1009 501 1009 Q669 1009 753 935 Q793 899 811.5 847.5 Q830 796 836 703 Q878 828 948 895 Q1063 1006 1236 1006 Q1438 1006 1555 861 Q1660 729 1660 529 Q1660 514 1659 488 L842 488 Q845 328 878 247 Q923 133 1018 71 Q1112 8 1237 8 Q1373 8 1471 82 Q1577 163 1609 334 L1644 334 Q1624 197 1551 112 Q1433 -28 1231 -28 Q1081 -28 973.5 56.5 Q866 141 829 289 Z M1623 524 Q1622 690 1554 798 Q1445 970 1239 970 Q1104 970 1006 896 Q848 776 842 524 L1623 524 Z M788 574 Q760 542 720.5 530.5 Q681 519 538 501 Q301 471 215 416 Q165 383 143 341.5 Q121 300 121 237 Q121 135 195.5 71.5 Q270 8 389 8 Q551 8 663 92 Q795 190 795 335 L795 574 L788 574 Z " />
<glyph glyph-name="Oslashacute" unicode="&#x1fe;" horiz-adv-x="1479" d="M1341 1328 L1207 1182 Q1297 1071 1336.5 949.5 Q1376 828 1376 664 Q1376 382 1227 198 Q1041 -32 736 -32 Q592 -32 486 14 Q380 60 279 165 L142 7 L116 33 L256 192 Q102 394 102 677 Q102 994 270 1188 Q452 1396 732 1396 Q1004 1396 1183 1208 L1314 1352 L1341 1328 Z M1159 1180 Q1089 1248 1036 1281 Q906 1360 731 1360 Q454 1360 282 1143 Q141 965 141 673 Q141 408 285 222 L1159 1180 Z M1182 1152 L307 195 Q475 4 736 4 Q1012 4 1187 210 Q1337 387 1337 666 Q1337 820 1300.5 934 Q1264 1048 1182 1152 Z M1002 1722 L719 1481 L667 1481 L945 1722 L1002 1722 Z " />
<glyph glyph-name="oslashacute" unicode="&#x1ff;" horiz-adv-x="1070" d="M993 942 L885 831 Q979 690 979 495 Q979 253 864 116 Q744 -27 544 -27 Q336 -27 209 122 L104 8 L79 35 L185 151 Q95 302 95 490 Q95 723 221 867 Q344 1006 544 1006 Q741 1006 866 860 L966 966 L993 942 Z M838 830 Q728 971 540 971 Q342 971 228 815 Q135 687 135 493 Q135 315 213 179 L838 830 Z M858 801 L235 149 Q348 8 544 8 Q736 8 851 166 Q940 288 940 487 Q940 659 858 801 Z M770 1394 L507 1126 L463 1126 L719 1394 L770 1394 Z " />
<glyph glyph-name="uni0200" unicode="&#x200;" horiz-adv-x="1200" d="M625 1365 L1172 0 L1129 0 L949 451 L254 451 L71 0 L27 0 L587 1365 L625 1365 Z M935 487 L634 1240 Q622 1271 606 1323 Q600 1308 587 1275 L575 1246 L268 487 L935 487 Z M518 1722 L572 1722 L782 1481 L734 1481 L518 1722 Z M231 1722 L286 1722 L496 1481 L447 1481 L231 1722 Z " />
<glyph glyph-name="uni0201" unicode="&#x201;" horiz-adv-x="991" d="M425 1469 L479 1469 L689 1229 L640 1229 L425 1469 Z M138 1469 L192 1469 L402 1229 L353 1229 L138 1469 Z M946 40 L946 5 Q937 4 933 3 Q918 2 905 2 Q847 2 821 26 Q795 50 795 104 L795 143 L795 213 Q749 97 645 34 Q541 -29 395 -29 Q244 -29 162.5 41.5 Q81 112 81 243 Q81 320 113 372 Q145 424 216 462 Q299 507 574 541 Q694 556 736 584 Q795 622 795 720 Q795 973 483 973 Q349 973 268 907 Q229 875 210 836.5 Q191 798 180 729 L131 729 Q154 879 246 943 Q338 1009 501 1009 Q834 1009 834 708 L834 87 Q834 37 901 37 Q921 37 946 40 Z M788 575 Q760 542 720.5 530.5 Q681 519 538 501 Q300 470 215 416 Q165 383 143 341.5 Q121 300 121 237 Q121 135 195.5 71.5 Q270 8 389 8 Q550 8 663 92 Q795 189 795 335 L795 575 L788 575 Z " />
<glyph glyph-name="Scommaaccent" unicode="&#x218;" horiz-adv-x="1176" d="M1053 981 L1013 981 Q1002 1146 923 1232 Q867 1292 770 1325 Q673 1358 551 1358 Q363 1358 251 1277 Q139 1196 139 1043 Q139 872 293 802 Q366 769 624 708 Q778 671 837 653 Q896 635 941 610 Q1080 532 1080 350 Q1080 172 948 71.5 Q816 -29 582 -29 Q328 -29 193 95 Q133 151 97 240.5 Q61 330 61 425 Q61 434 62 452 L99 452 Q99 270 189 156 Q244 86 348 46.5 Q452 7 581 7 Q822 7 939 113 Q1041 205 1041 349 Q1041 506 926 576 Q883 602 825.5 619.5 Q768 637 600 676 Q421 718 351.5 740.5 Q282 763 228 797 Q100 877 100 1047 Q100 1223 241 1316 Q357 1394 550 1394 Q786 1394 913.5 1289 Q1041 1184 1053 981 Z M530 -425 L530 -383 Q573 -342 578 -208 L569 -209 L565 -209 Q546 -209 533 -195.5 Q520 -182 520 -162 Q520 -140 533.5 -124 Q547 -108 565 -108 Q615 -108 615 -193 Q615 -394 530 -425 Z " />
<glyph glyph-name="scommaaccent" unicode="&#x219;" horiz-adv-x="889" d="M781 694 L742 694 Q735 794 701 851 Q627 971 422 971 Q286 971 208 912 Q130 853 130 749 Q130 681 166 641 Q200 603 256 580.5 Q312 558 456 524 Q615 487 683 453 Q807 391 807 250 Q807 121 695 44 Q593 -27 439 -27 Q206 -27 108 124 Q57 203 55 338 L95 338 Q98 210 143 140 Q229 8 439 8 Q588 8 673 72 Q768 144 768 253 Q768 328 720 375 Q681 413 624.5 436.5 Q568 460 447 487 Q259 530 195 566 Q91 626 91 749 Q91 892 217 961 Q297 1005 428 1005 Q619 1005 712 900 Q774 830 781 694 Z M377 -418 L377 -376 Q420 -335 425 -201 L416 -203 L412 -203 Q393 -203 380 -189 Q367 -175 367 -155 Q367 -134 380.5 -118 Q394 -102 412 -102 Q462 -102 462 -187 Q462 -387 377 -418 Z " />
<glyph glyph-name="uni021A" unicode="&#x21a;" horiz-adv-x="1085" d="M1056 1365 L1056 1329 L561 1329 L561 0 L522 0 L522 1329 L27 1329 L27 1365 L1056 1365 Z M498 -425 L498 -383 Q541 -342 546 -208 L537 -209 L533 -209 Q514 -209 501 -195.5 Q488 -182 488 -162 Q488 -140 501.5 -124 Q515 -108 533 -108 Q583 -108 583 -193 Q583 -394 498 -425 Z " />
<glyph glyph-name="uni021B" unicode="&#x21b;" horiz-adv-x="490" d="M427 979 L427 943 L210 943 L210 237 Q210 128 226 94 Q254 34 347 34 Q375 34 427 42 L427 3 Q383 -4 348 -4 Q234 -4 195 66 Q171 109 171 240 L171 943 L-15 943 L-15 979 L171 979 L171 1292 L210 1292 L210 979 L427 979 Z M232 -418 L232 -376 Q275 -335 280 -201 L271 -203 L267 -203 Q248 -203 235 -189 Q222 -175 222 -155 Q222 -134 235.5 -118 Q249 -102 267 -102 Q317 -102 317 -187 Q317 -387 232 -418 Z " />
<glyph glyph-name="uni0226" unicode="&#x226;" horiz-adv-x="1200" d="M625 1365 L1172 0 L1129 0 L949 451 L254 451 L71 0 L27 0 L587 1365 L625 1365 Z M935 487 L634 1240 Q622 1271 606 1323 Q600 1308 587 1275 L575 1246 L268 487 L935 487 Z M609 1661 Q627 1661 639.5 1646.5 Q652 1632 652 1612 Q652 1591 639 1576.5 Q626 1562 608 1562 Q590 1562 577 1576.5 Q564 1591 564 1612 Q564 1632 577 1646.5 Q590 1661 609 1661 Z " />
<glyph glyph-name="uni0227" unicode="&#x227;" horiz-adv-x="991" d="M498 1270 Q516 1270 528.5 1255.5 Q541 1241 541 1220 Q541 1200 528.5 1185.5 Q516 1171 497 1171 Q479 1171 466 1185.5 Q453 1200 453 1221 Q453 1241 466 1255.5 Q479 1270 498 1270 Z M946 40 L946 5 Q937 4 933 3 Q918 2 905 2 Q847 2 821 26 Q795 50 795 104 L795 143 L795 213 Q749 97 645 34 Q541 -29 395 -29 Q244 -29 162.5 41.5 Q81 112 81 243 Q81 320 113 372 Q145 424 216 462 Q299 507 574 541 Q694 556 736 584 Q795 622 795 720 Q795 973 483 973 Q349 973 268 907 Q229 875 210 836.5 Q191 798 180 729 L131 729 Q154 879 246 943 Q338 1009 501 1009 Q834 1009 834 708 L834 87 Q834 37 901 37 Q921 37 946 40 Z M788 575 Q760 542 720.5 530.5 Q681 519 538 501 Q300 470 215 416 Q165 383 143 341.5 Q121 300 121 237 Q121 135 195.5 71.5 Q270 8 389 8 Q550 8 663 92 Q795 189 795 335 L795 575 L788 575 Z " />
<glyph glyph-name="uni0237" unicode="&#x237;" horiz-adv-x="353" d="M196 979 L196 -138 Q196 -252 150 -295.5 Q104 -339 -17 -339 Q-29 -339 -48 -339 L-48 -304 Q32 -303 55.5 -299.5 Q79 -296 100 -284 Q157 -249 157 -146 L157 979 L196 979 Z " />
<glyph glyph-name="afii57929" unicode="&#x2bc;" horiz-adv-x="367" d="M130 954 L130 996 Q173 1037 178 1171 L169 1169 L166 1169 Q146 1169 133 1183 Q120 1197 120 1217 Q120 1238 133.5 1254 Q147 1270 165 1270 Q216 1270 216 1184 Q216 984 130 954 Z " />
<glyph glyph-name="circumflex" unicode="&#x2c6;" horiz-adv-x="1024" d="M754 1126 L701 1126 L510 1363 L321 1126 L271 1126 L488 1394 L537 1394 L754 1126 Z " />
<glyph glyph-name="caron" unicode="&#x2c7;" horiz-adv-x="1024" d="M271 1394 L324 1394 L515 1157 L703 1394 L754 1394 L537 1126 L488 1126 L271 1394 Z " />
<glyph glyph-name="uni02C9" unicode="&#x2c9;" horiz-adv-x="1024" d="M781 1260 L781 1224 L244 1224 L244 1260 L781 1260 Z " />
<glyph glyph-name="breve" unicode="&#x2d8;" horiz-adv-x="1024" d="M301 1378 L339 1378 Q350 1312 373 1270 Q425 1176 525 1176 Q600 1176 647.5 1227.5 Q695 1279 712 1378 L749 1378 Q742 1307 713 1255 Q651 1140 525 1140 Q433 1140 373 1204 Q313 1268 301 1378 Z " />
<glyph glyph-name="dotaccent" unicode="&#x2d9;" horiz-adv-x="1024" d="M514 1317 Q532 1317 544.5 1302.5 Q557 1288 557 1267 Q557 1247 544 1232.5 Q531 1218 513 1218 Q495 1218 482 1232.5 Q469 1247 469 1268 Q469 1288 482 1302.5 Q495 1317 514 1317 Z " />
<glyph glyph-name="ring" unicode="&#x2da;" horiz-adv-x="1024" d="M515 1451 Q587 1451 638 1395 Q682 1347 682 1282 Q682 1207 626 1156 Q577 1113 512 1113 Q437 1113 387 1169 Q343 1217 343 1283 Q343 1353 393 1402 Q443 1451 515 1451 Z M514 1413 Q459 1413 420 1375 Q381 1337 381 1283 Q381 1228 419.5 1189.5 Q458 1151 512 1151 Q567 1151 605.5 1189.5 Q644 1228 644 1282 Q644 1335 605.5 1374 Q567 1413 514 1413 Z " />
<glyph glyph-name="ogonek" unicode="&#x2db;" horiz-adv-x="1024" d="M582 0 L631 0 Q515 -85 515 -171 Q515 -223 557 -256 Q599 -289 665 -289 Q708 -289 766 -267 L767 -306 Q706 -327 660 -327 Q575 -327 522 -281 Q476 -239 476 -174 Q476 -78 582 0 Z " />
<glyph glyph-name="tilde" unicode="&#x2dc;" horiz-adv-x="1024" d="M751 1334 Q721 1188 629 1188 Q580 1188 514 1242 Q468 1280 445.5 1292.5 Q423 1305 401 1305 Q331 1305 312 1190 L273 1190 Q285 1260 319.5 1301 Q354 1342 401 1342 Q448 1342 520 1282 Q589 1224 630 1224 Q687 1224 713 1334 L751 1334 Z " />
<glyph glyph-name="hungarumlaut" unicode="&#x2dd;" horiz-adv-x="1024" d="M584 1394 L389 1126 L345 1126 L533 1394 L584 1394 Z M816 1394 L621 1126 L577 1126 L765 1394 L816 1394 Z " />
<glyph glyph-name="pi" unicode="&#x3c0;" horiz-adv-x="1004" d="M175 0 L175 943 L27 943 L27 979 L976 979 L976 943 L830 943 L830 0 L790 0 L790 943 L215 943 L215 0 L175 0 Z " />
<glyph glyph-name="uni1E1E" unicode="&#x1e1e;" horiz-adv-x="1053" d="M1013 1365 L1013 1329 L210 1329 L210 727 L937 727 L937 691 L210 691 L210 0 L171 0 L171 1365 L1013 1365 Z M599 1661 Q617 1661 629.5 1646.5 Q642 1632 642 1612 Q642 1591 629.5 1576.5 Q617 1562 598 1562 Q580 1562 567 1576.5 Q554 1591 554 1612 Q554 1632 567 1646.5 Q580 1661 599 1661 Z " />
<glyph glyph-name="Wgrave" unicode="&#x1e80;" horiz-adv-x="1803" d="M1762 1365 L1360 0 L1308 0 L948 1185 L936 1223 L922 1266 Q909 1308 902 1331 Q887 1282 869 1220 L857 1177 L506 0 L457 0 L41 1365 L86 1365 L431 223 L443 181 Q472 90 482 46 Q489 81 505 133 L518 180 L529 216 L873 1365 L932 1365 L1286 212 Q1297 175 1315 114 Q1327 73 1334 46 Q1342 72 1353 116 L1365 156 L1381 214 L1722 1365 L1762 1365 Z M638 1722 L695 1722 L973 1481 L922 1481 L638 1722 Z " />
<glyph glyph-name="wgrave" unicode="&#x1e81;" horiz-adv-x="1414" d="M1387 979 L1066 0 L1017 0 L742 839 Q721 902 709 939 Q698 905 676 840 L400 0 L346 0 L27 979 L67 979 L338 151 Q354 103 373 40 Q385 77 410 155 L679 979 L739 979 L1000 176 L1024 102 L1042 44 Q1066 125 1081 171 L1347 979 L1387 979 Z M520 1394 L781 1126 L733 1126 L469 1394 L520 1394 Z " />
<glyph glyph-name="Wacute" unicode="&#x1e82;" horiz-adv-x="1803" d="M1762 1365 L1360 0 L1308 0 L948 1185 L936 1223 L922 1266 Q909 1308 902 1331 Q887 1282 869 1220 L857 1177 L506 0 L457 0 L41 1365 L86 1365 L431 223 L443 181 Q472 90 482 46 Q489 81 505 133 L518 180 L529 216 L873 1365 L932 1365 L1286 212 Q1297 175 1315 114 Q1327 73 1334 46 Q1342 72 1353 116 L1365 156 L1381 214 L1722 1365 L1762 1365 Z M1220 1722 L936 1481 L884 1481 L1162 1722 L1220 1722 Z " />
<glyph glyph-name="wacute" unicode="&#x1e83;" horiz-adv-x="1414" d="M1387 979 L1066 0 L1017 0 L742 839 Q721 902 709 939 Q698 905 676 840 L400 0 L346 0 L27 979 L67 979 L338 151 Q354 103 373 40 Q385 77 410 155 L679 979 L739 979 L1000 176 L1024 102 L1042 44 Q1066 125 1081 171 L1347 979 L1387 979 Z M942 1394 L679 1126 L635 1126 L892 1394 L942 1394 Z " />
<glyph glyph-name="Wdieresis" unicode="&#x1e84;" horiz-adv-x="1803" d="M1762 1365 L1360 0 L1308 0 L948 1185 L936 1223 L922 1266 Q909 1308 902 1331 Q887 1282 869 1220 L857 1177 L506 0 L457 0 L41 1365 L86 1365 L431 223 L443 181 Q472 90 482 46 Q489 81 505 133 L518 180 L529 216 L873 1365 L932 1365 L1286 212 Q1297 175 1315 114 Q1327 73 1334 46 Q1342 72 1353 116 L1365 156 L1381 214 L1722 1365 L1762 1365 Z M1095 1661 Q1113 1661 1125.5 1646.5 Q1138 1632 1138 1612 Q1138 1591 1125.5 1576.5 Q1113 1562 1094 1562 Q1076 1562 1063 1576.5 Q1050 1591 1050 1612 Q1050 1632 1063 1646.5 Q1076 1661 1095 1661 Z M712 1661 Q730 1661 742.5 1646.5 Q755 1632 755 1612 Q755 1590 742.5 1576 Q730 1562 711 1562 Q693 1562 680 1576.5 Q667 1591 667 1612 Q667 1632 680 1646.5 Q693 1661 712 1661 Z " />
<glyph glyph-name="wdieresis" unicode="&#x1e85;" horiz-adv-x="1414" d="M1387 979 L1066 0 L1017 0 L742 839 Q721 902 709 939 Q698 905 676 840 L400 0 L346 0 L27 979 L67 979 L338 151 Q354 103 373 40 Q385 77 410 155 L679 979 L739 979 L1000 176 L1024 102 L1042 44 Q1066 125 1081 171 L1347 979 L1387 979 Z M870 1317 Q888 1317 900.5 1302.5 Q913 1288 913 1267 Q913 1247 900 1232.5 Q887 1218 869 1218 Q851 1218 838 1232.5 Q825 1247 825 1268 Q825 1288 838 1302.5 Q851 1317 870 1317 Z M549 1317 Q567 1317 579.5 1302.5 Q592 1288 592 1267 Q592 1247 579 1232.5 Q566 1218 548 1218 Q530 1218 517 1232.5 Q504 1247 504 1268 Q504 1288 517 1302.5 Q530 1317 549 1317 Z " />
<glyph glyph-name="Ygrave" unicode="&#x1ef2;" horiz-adv-x="1153" d="M1153 1365 L593 574 L593 0 L554 0 L554 575 L0 1365 L44 1365 L526 682 Q552 645 574 612 L621 679 L1110 1365 L1153 1365 Z M314 1722 L371 1722 L649 1481 L597 1481 L314 1722 Z " />
<glyph glyph-name="ygrave" unicode="&#x1ef3;" horiz-adv-x="855" d="M842 979 L405 -162 Q365 -265 314.5 -299.5 Q264 -334 154 -334 L125 -334 L125 -300 Q141 -300 148 -300 Q220 -300 259 -287 Q298 -274 322 -242 Q341 -217 384.5 -115.5 Q428 -14 428 5 Q428 8 427 9 L14 979 L57 979 L420 124 L449 48 Q464 99 477 132 L803 979 L842 979 Z M241 1394 L502 1126 L455 1126 L190 1394 L241 1394 Z " />
<glyph glyph-name="uni2011" unicode="&#x2011;" horiz-adv-x="423" d="M423 521 L423 484 L0 484 L0 521 L423 521 Z " />
<glyph glyph-name="figuredash" unicode="&#x2012;" horiz-adv-x="1174" d="M1030 520 L1030 485 L143 485 L143 520 L1030 520 Z " />
<glyph glyph-name="endash" unicode="&#x2013;" horiz-adv-x="1174" d="M1030 520 L1030 485 L143 485 L143 520 L1030 520 Z " />
<glyph glyph-name="emdash" unicode="&#x2014;" horiz-adv-x="1283" d="M1283 520 L1283 485 L0 485 L0 520 L1283 520 Z " />
<glyph glyph-name="afii00208" unicode="&#x2015;" horiz-adv-x="1283" d="M1283 520 L1283 485 L0 485 L0 520 L1283 520 Z " />
<glyph glyph-name="underscoredbl" unicode="&#x2017;" horiz-adv-x="1024" d="M0 -136 L1024 -136 L1024 -171 L0 -171 L0 -136 Z M0 -373 L1024 -373 L1024 -410 L0 -410 L0 -373 Z " />
<glyph glyph-name="quoteleft" unicode="&#x2018;" horiz-adv-x="367" d="M249 1373 L249 1331 Q206 1289 201 1155 L210 1157 L214 1157 Q233 1157 246 1143 Q259 1129 259 1109 Q259 1088 245.5 1072 Q232 1056 214 1056 Q163 1056 163 1142 Q163 1342 249 1373 Z " />
<glyph glyph-name="quoteright" unicode="&#x2019;" horiz-adv-x="367" d="M130 1055 L130 1096 Q173 1138 178 1272 L169 1270 L166 1270 Q146 1270 133 1284 Q120 1298 120 1318 Q120 1339 133.5 1355 Q147 1371 165 1371 Q216 1371 216 1285 Q216 1085 130 1055 Z " />
<glyph glyph-name="quotesinglbase" unicode="&#x201a;" horiz-adv-x="367" d="M130 -224 L130 -182 Q173 -141 178 -7 L169 -8 L166 -8 Q146 -8 133 5.5 Q120 19 120 40 Q120 61 133.5 77 Q147 93 165 93 Q216 93 216 7 Q216 -193 130 -224 Z " />
<glyph glyph-name="quotereversed" unicode="&#x201b;" horiz-adv-x="367" d="M206 1055 Q120 1086 120 1285 Q120 1371 171 1371 Q189 1371 202.5 1355 Q216 1339 216 1318 Q216 1298 203 1284 Q190 1270 171 1270 L167 1270 L158 1272 Q163 1138 206 1096 L206 1055 Z " />
<glyph glyph-name="quotedblleft" unicode="&#x201c;" horiz-adv-x="562" d="M249 1373 L249 1331 Q206 1289 201 1155 L210 1157 L214 1157 Q233 1157 246 1143 Q259 1129 259 1109 Q259 1088 245.5 1072 Q232 1056 214 1056 Q163 1056 163 1142 Q163 1342 249 1373 Z M444 1373 L444 1331 Q401 1289 396 1155 L405 1157 L408 1157 Q428 1157 441 1143 Q454 1129 454 1109 Q454 1088 440.5 1072 Q427 1056 409 1056 Q358 1056 358 1142 Q358 1342 444 1373 Z " />
<glyph glyph-name="quotedblright" unicode="&#x201d;" horiz-adv-x="562" d="M130 1035 L130 1077 Q173 1119 178 1253 L169 1251 L166 1251 Q146 1251 133 1265 Q120 1279 120 1299 Q120 1320 133.5 1336 Q147 1352 165 1352 Q216 1352 216 1266 Q216 1066 130 1035 Z M325 1035 L325 1077 Q368 1119 373 1253 L364 1251 L360 1251 Q341 1251 328 1265 Q315 1279 315 1299 Q315 1320 328.5 1336 Q342 1352 360 1352 Q411 1352 411 1266 Q411 1066 325 1035 Z " />
<glyph glyph-name="quotedblbase" unicode="&#x201e;" horiz-adv-x="562" d="M130 -224 L130 -182 Q173 -141 178 -7 L169 -8 L166 -8 Q146 -8 133 5.5 Q120 19 120 40 Q120 61 133.5 77 Q147 93 165 93 Q216 93 216 7 Q216 -193 130 -224 Z M325 -224 L325 -182 Q368 -141 373 -7 L364 -8 L360 -8 Q341 -8 328 5.5 Q315 19 315 40 Q315 61 328.5 77 Q342 93 360 93 Q411 93 411 7 Q411 -193 325 -224 Z " />
<glyph glyph-name="dagger" unicode="&#x2020;" horiz-adv-x="1174" d="M1008 898 L1008 862 L607 862 L607 -341 L568 -341 L568 862 L165 862 L165 898 L568 898 L568 1365 L607 1365 L607 898 L1008 898 Z " />
<glyph glyph-name="daggerdbl" unicode="&#x2021;" horiz-adv-x="1174" d="M1007 968 L1007 932 L608 932 L608 94 L1007 94 L1007 58 L608 58 L608 -341 L569 -341 L569 58 L167 58 L167 94 L569 94 L569 932 L167 932 L167 968 L569 968 L569 1365 L608 1365 L608 968 L1007 968 Z " />
<glyph glyph-name="bullet" unicode="&#x2022;" horiz-adv-x="1365" d="M687 982 Q799 982 881 899 Q964 815 964 696 Q964 578 882 494 Q799 410 683 410 Q567 410 485 493 Q401 577 401 696 Q401 817 485 899 Q569 982 687 982 Z " />
<glyph glyph-name="ellipsis" unicode="&#x2026;" horiz-adv-x="1101" d="M186 95 Q204 95 216.5 80.5 Q229 66 229 45 Q229 25 216.5 10.5 Q204 -4 185 -4 Q167 -4 154 10.5 Q141 25 141 46 Q141 66 154 80.5 Q167 95 186 95 Z M553 95 Q571 95 583.5 80.5 Q596 66 596 45 Q596 25 583.5 10.5 Q571 -4 552 -4 Q534 -4 521 10.5 Q508 25 508 46 Q508 66 521 80.5 Q534 95 553 95 Z M920 95 Q938 95 950.5 80.5 Q963 66 963 45 Q963 25 950.5 10.5 Q938 -4 919 -4 Q901 -4 888 10.5 Q875 25 875 46 Q875 66 888 80.5 Q901 95 920 95 Z " />
<glyph glyph-name="perthousand" unicode="&#x2030;" horiz-adv-x="2149" d="M1199 1385 L302 -56 L258 -55 L1155 1384 L1199 1385 Z M1074 626 Q1206 626 1285.5 539.5 Q1365 453 1365 309 Q1365 157 1287 70 Q1208 -20 1073 -20 Q934 -20 855.5 65.5 Q777 151 777 303 Q777 454 855 539 Q936 626 1074 626 Z M1073 590 Q947 590 880 515.5 Q813 441 813 300 Q813 164 879 91 Q949 14 1071 14 Q1203 14 1273 107 Q1330 183 1330 311 Q1330 422 1273 498 Q1206 590 1073 590 Z M1767 628 Q1900 628 1978 541 Q2056 454 2056 307 Q2056 167 1982 76 Q1905 -19 1763 -19 Q1606 -19 1530 88 Q1468 174 1468 303 Q1468 455 1544 538 Q1626 628 1767 628 Z M1767 592 Q1644 592 1574 516.5 Q1504 441 1504 308 Q1504 180 1567 100 Q1634 16 1762 16 Q1883 16 1951 94 Q2019 172 2019 310 Q2019 437 1959 508 Q1889 592 1767 592 Z M391 1351 Q540 1351 622 1243 Q682 1163 682 1028 Q682 881 600.5 792 Q519 703 386 703 Q249 703 171 790 Q93 877 93 1029 Q93 1173 167 1258 Q248 1351 391 1351 Z M388 1314 Q267 1314 197.5 1236 Q128 1158 128 1023 Q128 890 196 815 Q264 740 385 740 Q527 740 596 843 Q646 920 646 1030 Q646 1155 588 1227 Q517 1314 388 1314 Z " />
<glyph glyph-name="guilsinglleft" unicode="&#x2039;" horiz-adv-x="436" d="M299 226 L109 480 L109 514 L299 779 L299 723 L141 497 L299 284 L299 226 Z " />
<glyph glyph-name="guilsinglright" unicode="&#x203a;" horiz-adv-x="436" d="M137 779 L327 525 L327 491 L137 226 L137 282 L296 508 L137 721 L137 779 Z " />
<glyph glyph-name="uni203E" unicode="&#x203e;" horiz-adv-x="1024" d="M0 1708 L1024 1708 L1024 1671 L0 1671 L0 1708 Z " />
<glyph glyph-name="fraction" unicode="&#x2044;" horiz-adv-x="283" d="M591 1329 L-265 0 L-307 0 L547 1329 L591 1329 Z " />
<glyph glyph-name="zerosuperior" unicode="&#x2070;" horiz-adv-x="751" d="M379 1346 Q529 1346 616 1215 Q684 1112 684 939 Q684 772 620 669 Q533 529 371 529 Q230 529 148.5 635 Q67 741 67 924 Q67 1109 142 1219 Q229 1346 379 1346 Z M381 1310 Q254 1310 180 1205.5 Q106 1101 106 922 Q106 781 159 686 Q227 565 372 565 Q498 565 571.5 666 Q645 767 645 940 Q645 1090 590 1183 Q514 1310 381 1310 Z " />
<glyph glyph-name="foursuperior" unicode="&#x2074;" horiz-adv-x="750" d="M662 783 L662 747 L519 747 L519 547 L480 547 L480 747 L79 747 L79 783 L476 1329 L519 1329 L519 783 L662 783 Z M480 783 L480 1275 L123 783 L480 783 Z " />
<glyph glyph-name="fivesuperior" unicode="&#x2075;" horiz-adv-x="751" d="M625 1329 L625 1293 L232 1293 L166 993 Q251 1080 372 1080 Q500 1080 582 996 Q658 919 658 805 Q658 696 587 618 Q506 529 375 529 Q291 529 223.5 564.5 Q156 600 123 662 Q93 717 92 806 L128 806 Q132 724 154 681 Q181 627 240.5 596 Q300 565 375 565 Q490 565 560 643 Q619 710 619 805 Q619 906 554 973 Q483 1044 373 1044 Q229 1044 156 925 L115 925 L203 1329 L625 1329 Z " />
<glyph glyph-name="sixsuperior" unicode="&#x2076;" horiz-adv-x="750" d="M656 1127 L616 1127 Q600 1214 541.5 1262 Q483 1310 393 1310 Q224 1310 166 1136 Q139 1056 131 915 Q162 986 232 1029.5 Q302 1073 387 1073 Q507 1073 589 991 Q668 913 668 800 Q668 692 589 611 Q510 529 386 529 Q315 529 253 559.5 Q191 590 154 643 Q95 725 95 902 Q95 1091 154 1203 Q230 1346 392 1346 Q537 1346 613 1240 Q641 1200 656 1127 Z M389 1037 Q279 1037 206 963 Q141 897 141 802 Q141 698 214 631 Q285 565 386 565 Q496 565 568 643 Q629 709 629 802 Q629 895 568 959 Q493 1037 389 1037 Z " />
<glyph glyph-name="sevensuperior" unicode="&#x2077;" horiz-adv-x="751" d="M660 1329 L660 1291 Q490 1132 402 947.5 Q314 763 303 546 L264 546 Q268 752 360.5 950 Q453 1148 613 1293 L135 1293 L135 1329 L660 1329 Z " />
<glyph glyph-name="eightsuperior" unicode="&#x2078;" horiz-adv-x="751" d="M253 972 Q116 1022 116 1148 Q116 1242 184.5 1294 Q253 1346 375 1346 Q500 1346 568 1294.5 Q636 1243 636 1148 Q636 1021 501 972 Q670 924 670 767 Q670 657 592.5 593 Q515 529 381 529 Q234 529 160 592 Q82 660 82 767 Q82 923 253 972 Z M374 1310 Q155 1310 155 1148 Q155 1072 213.5 1030 Q272 988 378 988 Q482 988 539.5 1030 Q597 1072 597 1148 Q597 1310 374 1310 Z M376 953 Q252 953 186.5 905 Q121 857 121 766 Q121 670 188.5 617.5 Q256 565 380 565 Q507 565 571 623 Q631 678 631 766 Q631 953 376 953 Z " />
<glyph glyph-name="ninesuperior" unicode="&#x2079;" horiz-adv-x="751" d="M106 742 L143 742 Q159 660 218.5 612.5 Q278 565 364 565 Q544 565 600 755 Q623 833 623 969 Q545 803 367 803 Q234 803 151 895 Q83 970 83 1073 Q83 1197 175 1277 Q254 1346 364 1346 Q447 1346 515.5 1305.5 Q584 1265 618 1195 Q659 1113 659 964 Q659 789 619 698 Q545 529 365 529 Q260 529 190 586.5 Q120 644 106 742 Z M367 1310 Q256 1310 185 1233 Q122 1166 122 1073 Q122 982 183 917 Q255 839 366 839 Q479 839 549 916 Q611 984 611 1076 Q611 1166 549 1231 Q474 1310 367 1310 Z " />
<glyph glyph-name="zeroinferior" unicode="&#x2080;" horiz-adv-x="751" d="M379 800 Q529 800 616 669 Q684 566 684 393 Q684 226 620 123 Q533 -17 371 -17 Q230 -17 148.5 89 Q67 195 67 378 Q67 563 142 673 Q229 800 379 800 Z M381 764 Q254 764 180 659.5 Q106 555 106 376 Q106 235 159 140 Q227 19 372 19 Q498 19 571.5 120 Q645 221 645 394 Q645 544 590 637 Q514 764 381 764 Z " />
<glyph glyph-name="oneinferior" unicode="&#x2081;" horiz-adv-x="750" d="M436 783 L436 0 L397 0 L397 730 Q315 634 181 600 L181 638 Q246 656 285.5 682.5 Q325 709 398 783 L436 783 Z " />
<glyph glyph-name="twoinferior" unicode="&#x2082;" horiz-adv-x="750" d="M659 36 L659 0 L106 0 Q117 100 184 166 Q223 205 387 317 Q503 396 550.5 457 Q598 518 598 587 Q598 670 542 717 Q486 764 388 764 Q273 764 217.5 703 Q162 642 161 515 L122 515 Q125 594 138 638 Q151 682 183 719 Q252 800 388 800 Q502 800 569.5 742 Q637 684 637 587 Q637 486 552 400 Q497 346 337 236 Q235 166 197 125.5 Q159 85 151 36 L659 36 Z " />
<glyph glyph-name="threeinferior" unicode="&#x2083;" horiz-adv-x="751" d="M110 528 Q115 643 162 703 Q236 800 389 800 Q510 800 578 742 Q647 684 647 597 Q647 461 501 419 Q577 400 619 348.5 Q661 297 661 222 Q661 112 574 43 Q499 -17 379 -17 Q247 -17 168 53 Q89 123 89 242 Q89 254 90 276 L127 276 Q126 254 126 243 Q126 144 186 86 Q255 19 379 19 Q487 19 554.5 75 Q622 131 622 219 Q622 313 556.5 358 Q491 403 355 403 Q350 403 337 403 L337 439 Q353 438 355 438 Q471 438 519 461 Q608 503 608 596 Q608 674 549 719 Q490 764 389 764 Q152 764 147 528 L110 528 Z " />
<glyph glyph-name="fourinferior" unicode="&#x2084;" horiz-adv-x="750" d="M662 236 L662 200 L519 200 L519 0 L480 0 L480 200 L79 200 L79 236 L476 783 L519 783 L519 236 L662 236 Z M480 236 L480 729 L123 236 L480 236 Z " />
<glyph glyph-name="fiveinferior" unicode="&#x2085;" horiz-adv-x="751" d="M625 783 L625 747 L232 747 L166 446 Q251 534 372 534 Q500 534 582 450 Q658 373 658 259 Q658 150 587 72 Q506 -17 375 -17 Q291 -17 223 18.5 Q155 54 123 116 Q93 171 92 260 L128 260 Q132 178 154 135 Q182 81 241 50 Q300 19 375 19 Q490 19 560 97 Q619 164 619 259 Q619 360 554 427 Q483 498 373 498 Q229 498 156 379 L115 379 L203 783 L625 783 Z " />
<glyph glyph-name="sixinferior" unicode="&#x2086;" horiz-adv-x="750" d="M656 581 L616 581 Q600 668 541.5 716 Q483 764 393 764 Q224 764 166 590 Q139 510 131 369 Q161 440 232 483.5 Q303 527 387 527 Q507 527 589 445 Q668 367 668 254 Q668 146 589 65 Q510 -17 386 -17 Q315 -17 253 13.5 Q191 44 154 97 Q95 179 95 356 Q95 545 154 657 Q230 800 392 800 Q537 800 613 694 Q641 654 656 581 Z M389 491 Q279 491 206 417 Q141 351 141 256 Q141 152 214 85 Q285 19 386 19 Q496 19 568 97 Q629 163 629 256 Q629 349 568 413 Q493 491 389 491 Z " />
<glyph glyph-name="seveninferior" unicode="&#x2087;" horiz-adv-x="751" d="M660 783 L660 745 Q490 586 402 401.5 Q314 217 303 0 L264 0 Q268 206 360.5 404 Q453 602 613 747 L135 747 L135 783 L660 783 Z " />
<glyph glyph-name="eightinferior" unicode="&#x2088;" horiz-adv-x="751" d="M253 426 Q116 476 116 602 Q116 696 184.5 748 Q253 800 375 800 Q500 800 568 748 Q636 696 636 602 Q636 475 501 426 Q670 378 670 221 Q670 111 592.5 47 Q515 -17 381 -17 Q234 -17 160 47 Q82 114 82 221 Q82 377 253 426 Z M374 764 Q155 764 155 602 Q155 526 213.5 484 Q272 442 378 442 Q482 442 539.5 484 Q597 526 597 602 Q597 764 374 764 Z M376 407 Q252 407 186.5 359 Q121 311 121 220 Q121 124 188.5 71.5 Q256 19 380 19 Q507 19 571 77 Q631 132 631 220 Q631 407 376 407 Z " />
<glyph glyph-name="nineinferior" unicode="&#x2089;" horiz-adv-x="751" d="M106 196 L143 196 Q159 114 218.5 66.5 Q278 19 364 19 Q451 19 512 68 Q573 117 600 209 Q623 287 623 423 Q545 258 367 258 Q233 258 151 350 Q83 425 83 528 Q83 651 175 731 Q254 800 364 800 Q447 800 515.5 759.5 Q584 719 618 649 Q659 567 659 418 Q659 243 619 152 Q545 -17 365 -17 Q261 -17 190.5 41 Q120 99 106 196 Z M367 764 Q256 764 185 688 Q122 621 122 527 Q122 437 183 372 Q255 294 366 294 Q479 294 549 371 Q611 439 611 530 Q611 620 549 685 Q474 764 367 764 Z " />
<glyph glyph-name="franc" unicode="&#x20a3;" horiz-adv-x="1174" d="M826 1365 L826 1329 L198 1329 L198 729 L640 729 L640 693 L198 693 L198 33 L159 1 L159 1365 L826 1365 Z M1154 954 L1154 915 Q976 915 891 787 Q841 711 822.5 627.5 Q804 544 804 395 L804 1 L765 1 L765 954 L804 954 L804 662 Q883 960 1154 954 Z " />
<glyph glyph-name="lira" unicode="&#x20a4;" horiz-adv-x="1174" d="M288 772 L620 772 L620 736 L309 736 Q359 648 376 600 L620 600 L620 564 L389 564 Q412 482 412 414 Q412 313 369.5 229 Q327 145 218 29 Q240 41 251 47 Q341 97 419 97 Q484 97 582 57 Q684 16 717 6.5 Q750 -3 789 -3 Q858 -3 947 46.5 Q1036 96 1084 162 L1110 134 Q952 -39 788 -39 Q723 -39 622 2 Q528 40 490 50.5 Q452 61 411 61 Q304 61 178 -37 L146 4 Q252 88 312.5 197.5 Q373 307 373 415 Q373 480 349 564 L143 564 L143 600 L336 600 Q323 633 266 736 L143 736 L143 772 L244 772 Q191 869 172.5 924.5 Q154 980 154 1044 Q154 1213 288 1313 Q402 1398 593 1398 Q1031 1398 1032 923 L996 923 Q994 1127 913 1232 Q812 1362 592 1362 Q393 1362 288 1263 Q193 1173 193 1043 Q193 985 214 925.5 Q235 866 288 772 Z " />
<glyph glyph-name="peseta" unicode="&#x20a7;" horiz-adv-x="1748" d="M141 1365 L401 1365 Q506 1365 571 1351.5 Q636 1338 686 1306 Q759 1258 799.5 1176.5 Q840 1095 840 995 Q840 825 728 722 Q616 619 431 619 L180 619 L180 1 L141 1 L141 1365 Z M180 1326 L180 658 L371 658 Q478 658 529.5 666.5 Q581 675 632 702 Q801 792 801 994 Q801 1183 670 1272 Q620 1306 569.5 1316 Q519 1326 399 1326 L180 1326 Z M1118 46 L1118 5 Q1089 -3 1061 -3 Q953 -3 913 71 Q898 98 893.5 133 Q889 168 889 253 L889 531 L743 531 L743 567 L889 567 L889 825 L928 825 L928 567 L1104 567 L1104 531 L928 531 L928 249 Q928 135 944 98 Q972 35 1059 35 Q1088 35 1118 46 Z M1643 401 L1604 401 Q1604 406 1604 408 Q1598 483 1567 517 Q1524 566 1429 566 Q1357 566 1315 533 Q1273 500 1273 443 Q1273 393 1307.5 368.5 Q1342 344 1451 317 Q1581 285 1618 248 Q1658 207 1658 147 Q1658 70 1597.5 21.5 Q1537 -27 1440 -27 Q1218 -27 1214 205 L1253 205 Q1256 125 1280 84 Q1323 8 1444 8 Q1521 8 1570 46.5 Q1619 85 1619 146 Q1619 197 1581 225.5 Q1543 254 1444 277 Q1314 308 1279 339 Q1234 379 1234 442 Q1234 515 1287.5 558 Q1341 601 1432 601 Q1567 601 1618 513 Q1638 477 1643 401 Z " />
<glyph glyph-name="Euro" unicode="&#x20ac;" horiz-adv-x="1267" d="M178 786 L927 786 L906 750 L175 750 Q173 714 173 680 Q173 636 176 595 L818 595 L796 559 L180 559 Q198 401 268 284 Q352 141 491 69 Q614 5 756 5 Q995 5 1165 182 L1166 130 Q985 -31 757 -31 Q640 -31 531 11 Q422 53 342 129 Q172 290 140 559 L0 559 L21 595 L137 595 Q134 645 134 683 Q134 716 136 750 L0 750 L21 786 L139 786 Q158 977 253 1124 Q430 1398 764 1398 Q887 1398 1000 1352.5 Q1113 1307 1185 1227 L1166 1194 Q1016 1362 758 1362 Q525 1362 364 1202 Q203 1042 178 786 Z " />
<glyph glyph-name="uni2101" unicode="&#x2101;" horiz-adv-x="1872" d="M1290 1365 L628 0 L588 0 L1250 1365 L1290 1365 Z M424 1365 L752 547 L710 547 L604 812 L206 812 L98 547 L55 547 L391 1365 L424 1365 Z M589 849 L417 1281 Q416 1282 407 1309 Q404 1303 397 1284 L220 849 L589 849 Z M1727 578 L1688 578 Q1682 678 1636 727 Q1570 799 1423 799 Q1313 799 1251 752 Q1189 705 1189 621 Q1189 526 1275 487 Q1317 468 1469 432 Q1614 397 1657 374 Q1743 326 1743 213 Q1743 106 1663 44.5 Q1583 -17 1442 -17 Q1289 -17 1207 58 Q1127 132 1127 260 Q1127 267 1128 282 L1165 282 Q1164 20 1441 20 Q1565 20 1634.5 71 Q1704 122 1704 213 Q1704 301 1640 340 Q1602 363 1451 398 Q1281 438 1229 470 Q1150 520 1150 624 Q1150 722 1223 779 Q1296 836 1423 836 Q1714 836 1727 578 Z " />
<glyph glyph-name="afii61248" unicode="&#x2105;" horiz-adv-x="1601" d="M1115 1365 L453 0 L414 0 L1076 1365 L1115 1365 Z M643 855 Q627 733 552.5 665.5 Q478 598 361 598 Q198 598 115 732 Q55 829 55 960 Q55 1127 140 1223 Q227 1322 367 1322 Q479 1322 551 1262 Q623 1202 636 1098 L609 1098 Q596 1172 560 1215 Q492 1297 369 1297 Q223 1297 146 1188 Q83 1097 83 959 Q83 819 154 723 Q228 623 359 623 Q465 623 533 684.5 Q601 746 616 855 L643 855 Z M1170 727 Q1322 727 1403 608 Q1471 507 1471 360 Q1471 207 1397 113 Q1312 4 1161 4 Q1011 4 927 114 Q852 212 852 364 Q852 518 930 617 Q1017 727 1170 727 Z M1168 702 Q1032 702 952 602 Q880 511 880 365 Q880 218 949 129 Q1028 29 1164 29 Q1301 29 1378 132 Q1444 221 1444 360 Q1444 498 1381 591 Q1307 702 1168 702 Z " />
<glyph glyph-name="afii61289" unicode="&#x2113;" horiz-adv-x="1024" d="M485 555 Q456 413 433 269 Q410 125 410 87 Q410 34 456 34 Q520 34 577 161 Q591 192 609 192 Q625 192 625 177 Q625 156 598 105 Q530 -27 432 -27 Q378 -27 347 11 Q316 49 316 116 Q316 183 352 416 L358 456 Q246 352 223 352 Q207 352 207 366 Q207 373 218 383 Q317 467 372 525 Q447 907 540 1156 Q580 1266 636 1329 Q692 1392 748 1392 Q793 1392 819 1354 Q845 1316 845 1252 Q845 1084 736 879 Q659 735 485 555 Z M500 632 Q671 817 741 984 Q804 1133 804 1256 Q804 1301 787.5 1328 Q771 1355 744 1355 Q702 1355 669 1304 Q636 1253 604 1138 Q562 990 500 632 Z " />
<glyph glyph-name="afii61352" unicode="&#x2116;" horiz-adv-x="1945" d="M1205 1365 L1205 0 L1159 0 L268 1237 L246 1268 Q221 1305 207 1326 Q209 1307 209 1288 Q209 1269 210 1226 L210 0 L171 0 L171 1365 L222 1365 L1079 175 Q1083 169 1105 138 Q1116 122 1126 107 Q1153 70 1169 46 Q1166 110 1166 214 L1166 1365 L1205 1365 Z M1863 215 L1863 179 L1370 179 L1370 215 L1863 215 Z M1623 886 Q1744 886 1809 791 Q1863 711 1863 593 Q1863 471 1804 396 Q1736 309 1616 309 Q1496 309 1430 397 Q1370 475 1370 597 Q1370 719 1432 798 Q1501 886 1623 886 Z M1621 850 Q1524 850 1466.5 781 Q1409 712 1409 597 Q1409 487 1460 420 Q1517 344 1617 344 Q1711 344 1767.5 412 Q1824 480 1824 592 Q1824 696 1778 767 Q1723 850 1621 850 Z " />
<glyph glyph-name="uni2120" unicode="&#x2120;" horiz-adv-x="1617" d="M1509 1368 L1509 587 L1468 587 L1468 1284 L1127 587 L1089 587 L747 1285 L747 587 L706 587 L706 1368 L753 1368 L1109 642 L1464 1368 L1509 1368 Z M594 1144 L548 1144 Q533 1340 303 1340 Q200 1340 142.5 1297 Q85 1254 85 1177 Q85 1109 128 1076.5 Q171 1044 301 1014 Q471 975 515 953 Q615 904 615 792 Q615 688 537 629 Q459 570 322 570 Q171 570 93 639.5 Q15 709 13 844 L59 844 Q64 611 324 611 Q439 611 503 658 Q567 705 567 789 Q567 876 488 915 Q448 935 306 968 Q158 1002 108 1034 Q37 1079 37 1176 Q37 1272 108.5 1326.5 Q180 1381 305 1381 Q440 1381 514 1320.5 Q588 1260 594 1144 Z " />
<glyph glyph-name="trademark" unicode="&#x2122;" horiz-adv-x="1617" d="M619 1368 L619 1328 L343 1328 L343 588 L302 588 L302 1328 L26 1328 L26 1368 L619 1368 Z M1508 1368 L1508 587 L1467 587 L1467 1284 L1126 587 L1088 587 L746 1285 L746 587 L705 587 L705 1368 L752 1368 L1109 642 L1462 1368 L1508 1368 Z " />
<glyph glyph-name="Omega" unicode="&#x2126;" horiz-adv-x="1365" d="M58 0 L58 37 L507 37 Q332 134 214 284 Q58 483 58 733 Q58 966 185 1142 Q291 1290 454 1355 Q562 1398 683 1398 Q882 1398 1038 1286 Q1177 1186 1249 1025 Q1308 891 1308 733 Q1308 463 1124 250 Q1013 122 859 37 L1308 37 L1308 0 L790 0 L790 37 Q961 134 1054 229 Q1269 448 1269 736 Q1269 944 1155 1111 Q1059 1252 912 1316 Q808 1361 685 1361 Q488 1361 340 1248 Q216 1154 151 1001 Q97 876 97 736 Q97 546 196 380 Q259 274 343 198 Q427 122 576 37 L576 0 L58 0 Z " />
<glyph glyph-name="estimated" unicode="&#x212e;" horiz-adv-x="1148" d="M300 495 L300 149 Q418 36 578 36 Q699 36 783.5 89 Q868 142 946 266 L1013 226 Q923 85 824 26 Q725 -33 580 -33 Q357 -33 218 121 Q84 269 84 495 Q84 725 218 871 Q359 1024 578 1024 Q796 1024 933.5 877.5 Q1071 731 1072 495 L300 495 Z M856 564 L856 842 Q730 957 575 957 Q422 957 300 842 L300 564 L856 564 Z " />
<glyph glyph-name="onethird" unicode="&#x2153;" horiz-adv-x="1784" d="M436 1329 L436 546 L397 546 L397 1276 Q315 1179 181 1146 L181 1184 Q246 1202 285.5 1228.5 Q325 1255 398 1329 L436 1329 Z M1341 1329 L485 0 L443 0 L1297 1329 L1341 1329 Z M1144 528 Q1149 643 1196 703 Q1270 800 1423 800 Q1544 800 1612 742 Q1681 684 1681 597 Q1681 461 1535 419 Q1611 400 1653 348.5 Q1695 297 1695 222 Q1695 112 1608 43 Q1533 -17 1413 -17 Q1281 -17 1202 53 Q1123 123 1123 242 Q1123 254 1124 276 L1161 276 Q1160 254 1160 243 Q1160 144 1220 86 Q1289 19 1413 19 Q1521 19 1588.5 75 Q1656 131 1656 219 Q1656 313 1590.5 358 Q1525 403 1389 403 Q1384 403 1371 403 L1371 439 Q1387 438 1389 438 Q1505 438 1553 461 Q1642 503 1642 596 Q1642 674 1583 719 Q1524 764 1422 764 Q1186 764 1181 528 L1144 528 Z " />
<glyph glyph-name="twothirds" unicode="&#x2154;" horiz-adv-x="1784" d="M659 582 L659 546 L106 546 Q117 646 184 712 Q223 751 387 863 Q503 942 550.5 1003 Q598 1064 598 1133 Q598 1216 542 1263 Q486 1310 388 1310 Q273 1310 217.5 1249 Q162 1188 161 1061 L122 1061 Q125 1140 138 1184 Q151 1228 183 1265 Q252 1346 388 1346 Q502 1346 569.5 1288 Q637 1230 637 1133 Q637 1032 552 946 Q497 892 337 782 Q235 712 197 671.5 Q159 631 151 582 L659 582 Z M1341 1329 L485 0 L443 0 L1297 1329 L1341 1329 Z M1144 528 Q1149 643 1195 703 Q1270 800 1422 800 Q1543 800 1611 742 Q1680 684 1680 597 Q1680 461 1535 419 Q1611 400 1653 348.5 Q1695 297 1695 222 Q1695 112 1608 43 Q1533 -17 1412 -17 Q1280 -17 1201 53 Q1122 123 1122 242 Q1122 251 1123 276 L1160 276 Q1159 252 1159 243 Q1159 144 1219 86 Q1288 19 1413 19 Q1520 19 1588 75 Q1656 131 1656 219 Q1656 313 1590.5 358 Q1525 403 1388 403 Q1384 403 1371 403 L1371 439 Q1387 438 1389 438 Q1504 438 1553 461 Q1641 503 1641 596 Q1641 674 1582 719 Q1523 764 1422 764 Q1186 764 1180 528 L1144 528 Z " />
<glyph glyph-name="uni2155" unicode="&#x2155;" horiz-adv-x="1784" d="M436 1329 L436 546 L397 546 L397 1276 Q315 1179 181 1146 L181 1184 Q246 1202 285.5 1228.5 Q325 1255 398 1329 L436 1329 Z M1341 1329 L485 0 L443 0 L1297 1329 L1341 1329 Z M1659 783 L1659 747 L1266 747 L1199 446 Q1285 534 1406 534 Q1534 534 1616 450 Q1692 373 1692 259 Q1692 150 1621 72 Q1540 -17 1409 -17 Q1325 -17 1257 18.5 Q1189 54 1156 116 Q1127 171 1126 260 L1161 260 Q1165 178 1188 135 Q1215 81 1274.5 50 Q1334 19 1409 19 Q1524 19 1594 97 Q1653 164 1653 259 Q1653 360 1588 427 Q1517 498 1407 498 Q1263 498 1189 379 L1149 379 L1237 783 L1659 783 Z " />
<glyph glyph-name="uni2156" unicode="&#x2156;" horiz-adv-x="1784" d="M659 582 L659 546 L106 546 Q117 646 184 712 Q223 751 387 863 Q503 942 550.5 1003 Q598 1064 598 1133 Q598 1216 542 1263 Q486 1310 388 1310 Q273 1310 217.5 1249 Q162 1188 161 1061 L122 1061 Q125 1140 138 1184 Q151 1228 183 1265 Q252 1346 388 1346 Q502 1346 569.5 1288 Q637 1230 637 1133 Q637 1032 552 946 Q497 892 337 782 Q235 712 197 671.5 Q159 631 151 582 L659 582 Z M1341 1329 L485 0 L443 0 L1297 1329 L1341 1329 Z M1658 783 L1658 747 L1265 747 L1199 446 Q1284 534 1405 534 Q1533 534 1615 450 Q1691 373 1691 259 Q1691 150 1620 72 Q1539 -17 1408 -17 Q1324 -17 1256.5 18.5 Q1189 54 1156 116 Q1126 171 1125 260 L1161 260 Q1165 178 1187 135 Q1215 81 1274 50 Q1333 19 1408 19 Q1523 19 1593 97 Q1652 164 1652 259 Q1652 360 1587 427 Q1516 498 1406 498 Q1262 498 1189 379 L1148 379 L1237 783 L1658 783 Z " />
<glyph glyph-name="uni2157" unicode="&#x2157;" horiz-adv-x="1784" d="M110 1075 Q115 1189 162 1249 Q236 1346 389 1346 Q510 1346 578 1288 Q647 1230 647 1143 Q647 1007 501 965 Q577 947 619 895 Q661 843 661 768 Q661 662 582.5 595.5 Q504 529 379 529 Q246 529 167.5 599 Q89 669 89 788 Q89 800 90 822 L127 822 Q126 800 126 790 Q126 690 186 632 Q255 565 379 565 Q487 565 554.5 621 Q622 677 622 766 Q622 860 556.5 905 Q491 950 355 950 Q352 950 337 949 L337 985 Q349 985 412 985 Q501 986 554.5 1029 Q608 1072 608 1143 Q608 1220 549 1265 Q490 1310 389 1310 Q152 1310 147 1075 L110 1075 Z M1341 1329 L485 0 L443 0 L1297 1329 L1341 1329 Z M1659 783 L1659 747 L1266 747 L1199 446 Q1285 534 1406 534 Q1534 534 1616 450 Q1692 373 1692 259 Q1692 149 1621 72 Q1540 -17 1409 -17 Q1325 -17 1257 18.5 Q1189 54 1156 116 Q1127 171 1126 260 L1161 260 Q1165 178 1188 135 Q1215 81 1274.5 50 Q1334 19 1409 19 Q1524 19 1594 97 Q1653 164 1653 259 Q1653 360 1588 427 Q1517 498 1406 498 Q1263 498 1189 379 L1149 379 L1237 783 L1659 783 Z " />
<glyph glyph-name="uni2158" unicode="&#x2158;" horiz-adv-x="1784" d="M662 783 L662 747 L519 747 L519 547 L480 547 L480 747 L79 747 L79 783 L476 1329 L519 1329 L519 783 L662 783 Z M480 783 L480 1275 L123 783 L480 783 Z M1340 1329 L485 0 L443 0 L1297 1329 L1340 1329 Z M1658 783 L1658 747 L1265 747 L1199 446 Q1284 534 1405 534 Q1533 534 1615 450 Q1691 373 1691 259 Q1691 150 1620 72 Q1539 -17 1408 -17 Q1324 -17 1256.5 18.5 Q1189 54 1156 116 Q1126 171 1125 260 L1161 260 Q1165 178 1187 135 Q1215 81 1274 50 Q1333 19 1408 19 Q1523 19 1593 97 Q1652 164 1652 259 Q1652 360 1587 427 Q1516 498 1406 498 Q1262 498 1189 379 L1148 379 L1237 783 L1658 783 Z " />
<glyph glyph-name="uni2159" unicode="&#x2159;" horiz-adv-x="1784" d="M436 1329 L436 546 L397 546 L397 1276 Q315 1179 181 1146 L181 1184 Q246 1202 285.5 1228.5 Q325 1255 398 1329 L436 1329 Z M1341 1329 L485 0 L443 0 L1297 1329 L1341 1329 Z M1689 581 L1650 581 Q1633 668 1574.5 716 Q1516 764 1427 764 Q1258 764 1199 590 Q1172 510 1165 369 Q1195 440 1265.5 483.5 Q1336 527 1420 527 Q1540 527 1623 445 Q1701 367 1701 254 Q1701 146 1623 65 Q1544 -17 1419 -17 Q1349 -17 1287 13.5 Q1225 44 1188 97 Q1129 179 1129 356 Q1129 545 1188 657 Q1264 800 1425 800 Q1570 800 1646 694 Q1675 654 1689 581 Z M1422 491 Q1313 491 1240 417 Q1175 351 1175 256 Q1175 152 1248 85 Q1319 19 1419 19 Q1529 19 1601 97 Q1662 163 1662 256 Q1662 349 1601 413 Q1526 491 1422 491 Z " />
<glyph glyph-name="uni215A" unicode="&#x215a;" horiz-adv-x="1784" d="M625 1329 L625 1293 L232 1293 L166 993 Q251 1080 372 1080 Q500 1080 582 996 Q658 919 658 805 Q658 696 587 618 Q506 529 375 529 Q291 529 223.5 564.5 Q156 600 123 662 Q93 717 92 806 L128 806 Q132 724 154 681 Q181 627 240.5 596 Q300 565 375 565 Q490 565 560 643 Q619 710 619 805 Q619 906 554 973 Q483 1044 373 1044 Q229 1044 156 925 L115 925 L203 1329 L625 1329 Z M1341 1329 L485 0 L443 0 L1297 1329 L1341 1329 Z M1689 581 L1650 581 Q1634 668 1575 716 Q1516 764 1427 764 Q1258 764 1199 590 Q1173 510 1165 369 Q1195 440 1265.5 483.5 Q1336 527 1420 527 Q1540 527 1623 445 Q1701 367 1701 254 Q1701 146 1623 65 Q1544 -17 1419 -17 Q1349 -17 1287 13.5 Q1225 44 1188 97 Q1129 179 1129 356 Q1129 545 1188 657 Q1264 800 1426 800 Q1570 800 1646 694 Q1675 654 1689 581 Z M1422 491 Q1313 491 1240 417 Q1175 351 1175 256 Q1175 152 1248 85 Q1319 19 1419 19 Q1529 19 1601 97 Q1662 163 1662 256 Q1662 349 1601 413 Q1527 491 1422 491 Z " />
<glyph glyph-name="oneeighth" unicode="&#x215b;" horiz-adv-x="1784" d="M436 1329 L436 546 L397 546 L397 1276 Q315 1179 181 1146 L181 1184 Q246 1202 285.5 1228.5 Q325 1255 398 1329 L436 1329 Z M1341 1329 L485 0 L443 0 L1297 1329 L1341 1329 Z M1287 426 Q1150 476 1150 602 Q1150 696 1218.5 748 Q1287 800 1409 800 Q1534 800 1602 748 Q1670 696 1670 602 Q1670 475 1535 426 Q1703 378 1703 221 Q1703 111 1625.5 47 Q1548 -17 1414 -17 Q1267 -17 1193 47 Q1115 114 1115 221 Q1115 377 1287 426 Z M1408 764 Q1189 764 1189 602 Q1189 526 1247.5 484 Q1306 442 1412 442 Q1516 442 1573.5 484 Q1631 526 1631 602 Q1631 764 1408 764 Z M1409 407 Q1285 407 1219.5 359 Q1154 311 1154 220 Q1154 124 1221.5 71.5 Q1289 19 1413 19 Q1540 19 1604 77 Q1664 132 1664 220 Q1664 407 1409 407 Z " />
<glyph glyph-name="threeeighths" unicode="&#x215c;" horiz-adv-x="1784" d="M110 1075 Q115 1189 162 1249 Q236 1346 389 1346 Q510 1346 578 1288 Q647 1230 647 1143 Q647 1007 501 965 Q577 947 619 895 Q661 843 661 768 Q661 662 582.5 595.5 Q504 529 379 529 Q246 529 167.5 599 Q89 669 89 788 Q89 800 90 822 L127 822 Q126 800 126 790 Q126 690 186 632 Q255 565 379 565 Q487 565 554.5 621 Q622 677 622 766 Q622 860 556.5 905 Q491 950 355 950 Q352 950 337 949 L337 985 Q349 985 412 985 Q501 986 554.5 1029 Q608 1072 608 1143 Q608 1220 549 1265 Q490 1310 389 1310 Q152 1310 147 1075 L110 1075 Z M1341 1329 L485 0 L443 0 L1297 1329 L1341 1329 Z M1287 426 Q1150 475 1150 602 Q1150 696 1218.5 748 Q1287 800 1409 800 Q1534 800 1602 748 Q1670 696 1670 602 Q1670 475 1535 426 Q1703 378 1703 221 Q1703 111 1625.5 47 Q1548 -17 1414 -17 Q1267 -17 1193 47 Q1115 114 1115 221 Q1115 377 1287 426 Z M1408 764 Q1189 764 1189 602 Q1189 526 1247.5 484 Q1306 442 1412 442 Q1516 442 1573.5 484 Q1631 526 1631 602 Q1631 764 1408 764 Z M1409 407 Q1285 407 1219.5 359 Q1154 311 1154 220 Q1154 124 1221.5 71.5 Q1289 19 1413 19 Q1540 19 1604 77 Q1664 132 1664 220 Q1664 407 1409 407 Z " />
<glyph glyph-name="fiveeighths" unicode="&#x215d;" horiz-adv-x="1784" d="M625 1329 L625 1293 L232 1293 L166 993 Q251 1080 372 1080 Q500 1080 582 996 Q658 919 658 805 Q658 696 587 618 Q506 529 375 529 Q291 529 223.5 564.5 Q156 600 123 662 Q93 717 92 806 L128 806 Q132 724 154 681 Q181 627 240.5 596 Q300 565 375 565 Q490 565 560 643 Q619 710 619 805 Q619 906 554 973 Q483 1044 373 1044 Q229 1044 156 925 L115 925 L203 1329 L625 1329 Z M1341 1329 L485 0 L443 0 L1297 1329 L1341 1329 Z M1287 426 Q1150 476 1150 602 Q1150 696 1218.5 748 Q1287 800 1409 800 Q1534 800 1602 748 Q1670 696 1670 602 Q1670 475 1535 426 Q1703 378 1703 221 Q1703 111 1626 47 Q1549 -17 1415 -17 Q1268 -17 1194 47 Q1116 114 1116 221 Q1116 377 1287 426 Z M1408 764 Q1189 764 1189 602 Q1189 526 1247.5 484 Q1306 442 1412 442 Q1516 442 1573.5 484 Q1631 526 1631 602 Q1631 764 1408 764 Z M1409 407 Q1286 407 1220.5 359 Q1155 311 1155 220 Q1155 124 1222.5 71.5 Q1290 19 1413 19 Q1540 19 1604 77 Q1664 132 1664 220 Q1664 407 1409 407 Z " />
<glyph glyph-name="seveneighths" unicode="&#x215e;" horiz-adv-x="1784" d="M660 1329 L660 1291 Q490 1132 402 947.5 Q314 763 303 546 L264 546 Q268 752 360.5 950 Q453 1148 613 1293 L135 1293 L135 1329 L660 1329 Z M1341 1329 L486 0 L444 0 L1298 1329 L1341 1329 Z M1287 426 Q1150 476 1150 602 Q1150 696 1218.5 748 Q1287 800 1409 800 Q1534 800 1602 748 Q1670 696 1670 602 Q1670 475 1535 426 Q1703 378 1703 221 Q1703 111 1626 47 Q1549 -17 1415 -17 Q1268 -17 1194 47 Q1116 114 1116 221 Q1116 377 1287 426 Z M1408 764 Q1189 764 1189 602 Q1189 526 1247.5 484 Q1306 442 1412 442 Q1516 442 1573.5 484 Q1631 526 1631 602 Q1631 764 1408 764 Z M1409 407 Q1286 407 1220.5 359 Q1155 311 1155 220 Q1155 124 1222.5 71.5 Q1290 19 1413 19 Q1540 19 1604 77 Q1664 132 1664 220 Q1664 407 1409 407 Z " />
<glyph glyph-name="partialdiff" unicode="&#x2202;" horiz-adv-x="1024" d="M217 1342 L224 1383 Q413 1353 545 1267 Q790 1106 888 778 Q936 617 936 454 Q936 283 863 169 Q797 67 687 14 Q603 -27 514 -27 Q353 -27 230 92 Q89 229 89 433 Q89 601 189 730 Q250 809 338 852 Q426 895 525 895 Q759 895 871 690 Q800 974 636.5 1137 Q473 1300 217 1342 Z M534 858 Q396 858 291 779 Q229 732 186 652 Q130 547 130 430 Q130 244 260 118 Q371 10 517 10 Q645 10 747 93 Q896 215 896 446 Q896 660 764 771 Q662 858 534 858 Z " />
<glyph glyph-name="emptyset" unicode="&#x2205;" horiz-adv-x="1266" d="M899 1365 L997 1314 L899 1133 Q1130 972 1130 717 Q1130 576 1055 455 Q990 350 885 288 Q766 219 622 219 Q528 219 460 252 L332 1 L232 52 L358 301 Q137 463 137 715 Q137 943 308 1091 Q448 1212 636 1212 Q718 1212 802 1183 L899 1365 Z M514 353 Q580 335 633 335 Q801 335 916 458 Q1016 566 1016 715 Q1016 812 971.5 896 Q927 980 852 1027 L514 353 Z M749 1079 Q692 1096 639 1096 Q455 1096 340 958 Q251 851 251 716 Q251 533 410 406 L749 1079 Z " />
<glyph glyph-name="increment" unicode="&#x2206;" horiz-adv-x="1229" d="M9 0 L594 1365 L634 1365 L1219 0 L9 0 Z M67 37 L1161 37 L614 1316 L67 37 Z " />
<glyph glyph-name="product" unicode="&#x220f;" horiz-adv-x="1365" d="M69 1536 L1297 1536 L1297 1499 L1142 1499 L1142 -475 L1297 -475 L1297 -512 L928 -512 L928 -475 L1102 -475 L1102 1499 L263 1499 L263 -475 L434 -475 L434 -512 L69 -512 L69 -475 L223 -475 L223 1499 L69 1499 L69 1536 Z " />
<glyph glyph-name="summation" unicode="&#x2211;" horiz-adv-x="1365" d="M1183 1536 L1183 1111 L1143 1111 L1143 1497 L113 1497 L636 559 L113 -475 L1162 -475 L1162 -93 L1202 -93 L1202 -512 L71 -512 L71 -466 L589 559 L71 1497 L71 1536 L1183 1536 Z " />
<glyph glyph-name="minus" unicode="&#x2212;" horiz-adv-x="1174" d="M129 672 L1045 672 L1045 633 L129 633 L129 672 Z " />
<glyph glyph-name="fraction001" unicode="&#x2215;" horiz-adv-x="283" d="M591 1329 L-265 0 L-307 0 L547 1329 L591 1329 Z " />
<glyph glyph-name="uni2218" unicode="&#x2218;" horiz-adv-x="1024" d="M516 983 Q628 983 710 900 Q793 816 793 696 Q793 578 711 494 Q628 410 512 410 Q396 410 314 493 Q230 578 230 696 Q230 818 314 900 Q398 983 516 983 Z M514 886 Q435 886 381 831 Q326 776 326 696 Q326 618 381 562 Q436 507 512 507 Q589 507 643 562.5 Q697 618 697 696 Q697 777 642 831 Q587 886 514 886 Z " />
<glyph glyph-name="middot" unicode="&#x2219;" horiz-adv-x="367" d="M186 504 Q204 504 216.5 489.5 Q229 475 229 455 Q229 434 216.5 419.5 Q204 405 185 405 Q167 405 154 419.5 Q141 434 141 455 Q141 475 154 489.5 Q167 504 186 504 Z " />
<glyph glyph-name="radical" unicode="&#x221a;" horiz-adv-x="1365" d="M1365 1693 L1365 1656 L929 1656 L391 0 L365 0 L149 666 L0 666 L0 703 L179 703 L291 360 L303 322 L329 246 Q368 127 378 94 Q389 131 508 493 L639 893 L899 1693 L1365 1693 Z " />
<glyph glyph-name="infinity" unicode="&#x221e;" horiz-adv-x="1365" d="M683 665 Q626 577 581 528 Q467 401 328 401 Q229 401 158 451 Q41 535 41 703 Q41 852 142 932 Q222 995 331 995 Q428 995 510.5 933 Q593 871 683 730 Q739 816 784 867 Q898 994 1040 994 Q1190 994 1268 882 Q1324 803 1324 694 Q1324 553 1234 472 Q1154 401 1039 401 Q900 401 787 524 Q739 577 683 665 Z M705 698 Q749 628 791 578 Q851 504 911 471 Q971 438 1043 438 Q1158 438 1226 522 Q1283 592 1283 697 Q1283 837 1190 907 Q1123 957 1041 957 Q946 957 873 901 Q800 845 705 698 Z M661 697 Q616 767 575 818 Q514 892 454.5 925 Q395 958 322 958 Q207 958 139 874 Q82 804 82 699 Q82 559 175 488 Q242 438 325 438 Q470 438 586 590 Q616 628 661 697 Z " />
<glyph glyph-name="integral" unicode="&#x222b;" horiz-adv-x="1024" d="M287 -489 L305 -454 Q346 -475 381 -475 Q462 -475 482 -405 Q492 -373 492 -252 L492 1272 Q494 1384 496 1406.5 Q498 1429 506 1451 Q539 1536 647 1536 Q689 1536 738 1513 L719 1478 Q679 1499 643 1499 Q562 1499 542 1429 Q532 1396 532 1276 L532 -248 Q531 -359 529 -381.5 Q527 -404 518 -427 Q485 -512 377 -512 Q335 -512 287 -489 Z " />
<glyph glyph-name="similar" unicode="&#x223c;" horiz-adv-x="1024" d="M59 576 L25 597 Q84 698 143.5 742.5 Q203 787 280 787 Q361 787 523 697 Q611 649 656 632 Q701 615 742 615 Q808 615 858.5 655 Q909 695 964 790 L998 769 Q959 701 922 661 Q846 578 744 578 Q695 578 642.5 598.5 Q590 619 462 689 Q348 751 279 751 Q216 751 165 710.5 Q114 670 59 576 Z " />
<glyph glyph-name="approxequal" unicode="&#x2248;" horiz-adv-x="1024" d="M59 712 L25 733 Q64 801 101 841 Q177 924 280 924 Q360 924 523 834 Q612 785 656 768.5 Q700 752 742 752 Q808 752 858 791.5 Q908 831 964 927 L998 906 Q939 804 879.5 759.5 Q820 715 744 715 Q695 715 644 735 Q593 755 462 826 Q348 888 279 888 Q215 888 164 847 Q113 806 59 712 Z M59 439 L25 460 Q84 561 143.5 605.5 Q203 650 280 650 Q361 650 523 561 Q612 512 656 495.5 Q700 479 742 479 Q808 479 858 518.5 Q908 558 964 654 L998 633 Q939 531 879.5 486.5 Q820 442 744 442 Q695 442 643 462.5 Q591 483 462 552 Q348 614 279 614 Q216 614 164.5 573.5 Q113 533 59 439 Z " />
<glyph glyph-name="notequal" unicode="&#x2260;" horiz-adv-x="1024" d="M577 836 L689 1076 L731 1076 L619 836 L957 836 L957 802 L601 802 L492 563 L957 563 L957 529 L474 529 L349 259 L307 259 L431 529 L68 529 L68 563 L449 563 L559 802 L68 802 L68 836 L577 836 Z " />
<glyph glyph-name="lessequal" unicode="&#x2264;" horiz-adv-x="1024" d="M955 1134 L955 1092 L114 732 L955 372 L955 330 L68 711 L68 753 L955 1134 Z M955 268 L955 231 L68 231 L68 268 L955 268 Z " />
<glyph glyph-name="greaterequal" unicode="&#x2265;" horiz-adv-x="1024" d="M68 330 L68 372 L909 732 L68 1092 L68 1134 L955 753 L955 711 L68 330 Z M68 231 L68 268 L955 268 L955 231 L68 231 Z " />
<glyph glyph-name="lozenge" unicode="&#x25ca;" horiz-adv-x="1365" d="M683 1419 L1214 683 L683 -53 L151 683 L683 1419 Z M683 1238 L279 683 L683 129 L1086 683 L683 1238 Z " />
<glyph glyph-name="uniE001" unicode="&#xe001;" horiz-adv-x="751" d="M386 1438 L386 1345 Q639 1333 650 1106 L611 1106 Q605 1205 551 1253.5 Q497 1302 386 1309 L386 964 L401 960 Q544 924 584 902 Q667 854 667 743 Q667 646 590.5 587.5 Q514 529 386 529 L386 425 L347 425 L347 530 Q66 553 68 809 L106 809 Q105 588 347 567 L347 935 Q236 962 193 984 Q91 1036 91 1151 Q91 1241 158 1292 Q225 1343 347 1346 L347 1438 L386 1438 Z M386 926 L386 565 Q501 569 564.5 615 Q628 661 628 742 Q628 846 534 885 Q507 896 386 926 Z M347 973 L347 1310 Q130 1304 130 1149 Q130 1076 176.5 1038.5 Q223 1001 347 973 Z " />
</font>
</svg>
