<?xml version="1.0" encoding="UTF-8"?>
<svg xmlns="http://www.w3.org/2000/svg" xmlns:xlink="http://www.w3.org/1999/xlink" version="1.2" >
<font id="UHCSans-Black">
<font-face  font-family="UHC Sans" units-per-em="2048" ascent="1729" descent="-319" font-style="normal" font-weight="900" font-stretch="normal" cap-height="1365" x-height="990" underline-position="-214" underline-thickness="239" />
<missing-glyph  horiz-adv-x="512" d="M51 0 L51 1365 L461 1365 L461 0 L51 0 Z M410 51 L410 1314 L102 1314 L102 51 L410 51 Z " />
<glyph glyph-name="space" unicode="&#x20;" horiz-adv-x="512" d="" />
<glyph glyph-name="exclam" unicode="&#x21;" horiz-adv-x="720" d="M577 1365 L577 1056 L473 493 L289 493 L185 1048 L185 1365 L577 1365 Z M382 382 Q463 382 521.5 325 Q580 268 580 189 Q580 109 521.5 52 Q463 -5 382 -5 Q299 -5 241 52.5 Q183 110 183 191 Q183 269 241.5 325.5 Q300 382 382 382 Z " />
<glyph glyph-name="quotedbl" unicode="&#x22;" horiz-adv-x="1102" d="M419 818 L146 818 L67 1365 L498 1365 L419 818 Z M956 818 L683 818 L604 1365 L1035 1365 L956 818 Z " />
<glyph glyph-name="numbersign" unicode="&#x23;" horiz-adv-x="1270" d="M53 612 L248 612 L279 768 L135 768 L135 1011 L327 1011 L397 1365 L647 1365 L575 1011 L723 1011 L795 1365 L1043 1365 L971 1011 L1113 1011 L1113 768 L922 768 L892 612 L1034 612 L1034 370 L843 370 L770 0 L521 0 L595 370 L447 370 L374 0 L126 0 L200 370 L53 370 L53 612 Z M496 612 L644 612 L674 768 L527 768 L496 612 Z " />
<glyph glyph-name="dollar" unicode="&#x24;" horiz-adv-x="1270" d="M684 1064 L684 893 Q725 883 745 879 Q919 838 1020 776 Q1218 654 1218 425 Q1218 247 1092 128 Q939 -18 684 -33 L684 -193 L581 -193 L581 -33 Q424 -28 297 34 Q178 91 112.5 205 Q47 319 48 468 L461 468 Q461 410 492.5 369.5 Q524 329 581 315 L581 516 Q411 558 315 605 Q197 662 146 737 Q83 828 83 956 Q83 1154 231 1279 Q365 1391 581 1403 L581 1549 L684 1549 L684 1404 Q845 1394 971 1330 Q1074 1277 1119.5 1200.5 Q1165 1124 1181 974 L769 974 Q770 981 770 988 Q770 1048 684 1064 Z M581 1066 Q477 1052 477 990 Q477 946 528 931 Q539 927 581 918 L581 1066 Z M684 310 Q822 330 822 404 Q822 435 797 450.5 Q772 466 684 490 L684 310 Z " />
<glyph glyph-name="percent" unicode="&#x25;" horiz-adv-x="1752" d="M384 1373 Q571 1373 652 1234 Q707 1139 707 985 Q707 794 602 699 Q515 621 376 621 Q223 621 139 714 Q55 807 55 985 Q55 1192 168 1295 Q254 1373 384 1373 Z M384 1189 Q333 1189 310.5 1141 Q288 1093 288 983 Q288 883 308 844 Q328 805 380 805 Q475 805 475 989 Q475 1189 384 1189 Z M580 -43 L378 -43 L1172 1383 L1369 1383 L580 -43 Z M1371 723 Q1558 723 1639 584 Q1694 489 1694 335 Q1694 144 1589 49 Q1503 -29 1363 -29 Q1210 -29 1126 64 Q1042 157 1042 335 Q1042 542 1155 645 Q1240 723 1371 723 Z M1371 539 Q1320 539 1297.5 491 Q1275 443 1275 333 Q1275 233 1295 194 Q1315 155 1367 155 Q1462 155 1462 339 Q1462 539 1371 539 Z " />
<glyph glyph-name="ampersand" unicode="&#x26;" horiz-adv-x="1423" d="M1315 672 Q1304 585 1259.5 496.5 Q1215 408 1147 340 L1436 0 L985 0 L906 97 Q896 92 854 64 Q713 -29 542 -29 Q331 -29 202 85 Q61 211 61 391 Q61 521 139.5 627 Q218 733 359 792 Q252 918 252 1042 Q252 1203 390 1305 Q506 1392 667 1392 Q826 1392 937 1299 Q1066 1192 1066 1027 Q1066 804 841 694 L947 566 Q981 603 1000 672 L1315 672 Z M661 909 Q720 946 742.5 977 Q765 1008 765 1053 Q765 1091 738.5 1116 Q712 1141 670 1141 Q630 1141 603.5 1116 Q577 1091 577 1052 Q577 991 661 909 Z M551 543 Q420 480 420 399 Q420 350 458.5 317 Q497 284 555 284 Q638 284 708 352 L551 543 Z " />
<glyph glyph-name="quotesingle" unicode="&#x27;" horiz-adv-x="565" d="M419 818 L146 818 L67 1365 L498 1365 L419 818 Z " />
<glyph glyph-name="parenleft" unicode="&#x28;" horiz-adv-x="679" d="M595 1365 Q506 1165 464.5 961 Q423 757 423 514 Q423 272 492 6 Q541 -185 603 -319 L266 -319 Q167 -130 114 83 Q61 296 61 506 Q61 805 141 1066 Q166 1147 204.5 1239.5 Q243 1332 266 1365 L595 1365 Z " />
<glyph glyph-name="parenright" unicode="&#x29;" horiz-adv-x="679" d="M83 -319 Q172 -122 213.5 83.5 Q255 289 255 532 Q255 775 186 1040 Q137 1230 75 1365 L413 1365 Q512 1174 564.5 962 Q617 750 617 540 Q617 242 537 -20 Q511 -101 473 -193 Q435 -285 413 -319 L83 -319 Z " />
<glyph glyph-name="asterisk" unicode="&#x2a;" horiz-adv-x="1270" d="M1041 994 L798 918 L952 716 L780 586 L630 799 L483 586 L311 716 L471 918 L228 994 L295 1196 L531 1107 L525 1365 L745 1365 L733 1107 L970 1196 L1041 994 Z " />
<glyph glyph-name="plus" unicode="&#x2b;" horiz-adv-x="1270" d="M116 795 L506 795 L506 1185 L764 1185 L764 795 L1154 795 L1154 537 L764 537 L764 147 L506 147 L506 537 L116 537 L116 795 Z " />
<glyph glyph-name="comma" unicode="&#x2c;" horiz-adv-x="623" d="M144 -189 Q226 -176 275.5 -125.5 Q325 -75 331 3 Q316 -2 301 -2 L292 -2 Q219 -2 164 54.5 Q109 111 109 187 Q109 267 163.5 325 Q218 383 295 383 Q390 383 449.5 308 Q509 233 509 113 Q509 -83 402 -212 Q352 -272 297.5 -302 Q243 -332 144 -353 L144 -189 Z " />
<glyph glyph-name="hyphen" unicode="&#x2d;" horiz-adv-x="546" d="M546 672 L546 347 L0 347 L0 672 L546 672 Z " />
<glyph glyph-name="period" unicode="&#x2e;" horiz-adv-x="623" d="M313 383 Q394 383 452.5 326 Q511 269 511 190 Q511 110 452.5 53 Q394 -4 313 -4 Q230 -4 172 53 Q114 110 114 192 Q114 270 172.5 326.5 Q231 383 313 383 Z " />
<glyph glyph-name="slash" unicode="&#x2f;" horiz-adv-x="947" d="M885 1365 L310 -319 L-48 -319 L527 1365 L885 1365 Z " />
<glyph glyph-name="zero" unicode="0" horiz-adv-x="1270" d="M643 1385 Q897 1385 1055 1180 Q1203 988 1203 685 Q1203 378 1058 187 Q902 -18 637 -18 Q377 -18 217 182 Q67 371 67 682 Q67 997 223 1191 Q379 1385 643 1385 Z M640 1085 Q528 1085 478.5 986.5 Q429 888 429 667 Q429 282 636 282 Q841 282 841 685 Q841 874 800 969 Q750 1085 640 1085 Z " />
<glyph glyph-name="one" unicode="1" horiz-adv-x="1270" d="M938 1397 L938 0 L539 0 L539 800 L460 800 L361 800 L276 800 L228 800 L228 1095 Q338 1098 400.5 1116.5 Q463 1135 520 1181 Q605 1248 620 1397 L938 1397 Z " />
<glyph glyph-name="two" unicode="2" horiz-adv-x="1270" d="M1207 331 L1207 0 L56 0 Q56 10 56 24 Q56 151 104.5 255 Q153 359 256 454 Q366 555 624 714 Q730 779 765 820 Q800 861 800 920 Q800 982 756 1019 Q712 1056 639 1056 Q577 1056 530 1027 Q483 998 464 947 Q443 894 440 793 L82 793 Q81 935 105 1026.5 Q129 1118 185 1189 Q340 1385 654 1385 Q893 1385 1033 1267 Q1182 1142 1182 947 Q1182 822 1131 733 Q1080 644 959 558 Q867 493 703 396 Q639 358 575 313 Q740 329 871 330 L1207 331 Z " />
<glyph glyph-name="three" unicode="3" horiz-adv-x="1270" d="M91 914 Q95 1015 118.5 1082.5 Q142 1150 194 1212 Q338 1385 630 1385 Q871 1385 1008 1281 Q1156 1169 1156 992 Q1156 890 1105 821.5 Q1054 753 967 737 Q1075 713 1135.5 633.5 Q1196 554 1196 436 Q1196 279 1096 163 Q1016 70 903.5 26 Q791 -18 631 -18 Q433 -18 316 40 Q169 113 107 246 Q53 359 53 480 Q53 490 55 518 L416 518 Q415 503 415 500 Q415 299 616 299 Q706 299 755 337 Q804 375 804 446 Q804 523 753.5 558.5 Q703 594 594 594 L530 593 L516 593 L516 847 Q539 845 576 845 Q686 845 723 857 Q800 883 800 961 Q800 1018 754 1051.5 Q708 1085 631 1085 Q454 1085 450 914 L91 914 Z " />
<glyph glyph-name="four" unicode="4" horiz-adv-x="1270" d="M1207 636 L1207 304 L1031 304 L1031 0 L642 0 L642 304 L55 304 L55 672 L652 1397 L1031 1397 L1031 636 L1207 636 Z M656 633 L656 760 Q656 927 660 1029 Q575 908 546 874 L477 791 Q397 694 346 628 Q413 633 464 633 L656 633 Z " />
<glyph glyph-name="five" unicode="5" horiz-adv-x="1270" d="M1128 1365 L1128 1044 L518 1044 L503 961 Q493 907 472 842 Q536 898 600.5 921.5 Q665 945 758 945 Q932 945 1053 851 Q1202 736 1202 496 Q1202 212 981 71 Q844 -16 623 -16 Q305 -16 159 143 Q58 252 48 438 L420 438 Q426 365 477 325 Q528 285 615 285 Q709 285 761 332 Q822 387 822 487 Q822 583 769 635 Q716 687 619 687 Q493 687 442 581 L94 581 L227 1365 L1128 1365 Z " />
<glyph glyph-name="six" unicode="6" horiz-adv-x="1270" d="M1184 1006 L831 1006 Q805 1126 683 1126 Q568 1126 505 1030 Q462 965 443 821 Q513 872 557 889 Q642 922 737 922 Q912 922 1027 845 Q1195 731 1195 486 Q1195 241 1015 99 Q864 -19 652 -19 Q467 -19 329 75 Q78 247 78 651 Q78 801 115 937 Q152 1073 219 1169 Q368 1385 678 1385 Q952 1385 1091 1214 Q1157 1132 1184 1006 Z M654 683 Q571 683 518 626 Q465 569 465 480 Q465 394 517.5 338 Q570 282 651 282 Q732 282 785.5 339 Q839 396 839 483 Q839 555 800 606 Q743 683 654 683 Z " />
<glyph glyph-name="seven" unicode="7" horiz-adv-x="1270" d="M1138 1365 L1138 1056 Q979 882 888 690 Q739 376 739 31 Q739 24 740 0 L318 0 Q318 15 318 20 Q318 159 382 371.5 Q446 584 537 747 Q626 907 760 1036 Q579 1028 514 1028 L115 1028 L115 1365 L1138 1365 Z " />
<glyph glyph-name="eight" unicode="8" horiz-adv-x="1270" d="M308 723 Q101 783 101 1001 Q101 1177 246.5 1281.5 Q392 1386 635 1386 Q883 1386 1024 1281 Q1170 1172 1170 1004 Q1170 895 1117 822.5 Q1064 750 964 723 Q1046 704 1097 668 Q1225 579 1225 407 Q1225 194 1033 73 Q888 -18 646 -18 Q352 -18 211 84 Q44 205 44 400 Q44 528 112 611.5 Q180 695 308 723 Z M634 1125 Q537 1125 483.5 1086 Q430 1047 430 977 Q430 905 485 866 Q540 827 640 827 Q734 827 787.5 868.5 Q841 910 841 982 Q841 1049 786.5 1087 Q732 1125 634 1125 Z M633 594 Q529 594 473 550.5 Q417 507 417 427 Q417 347 475 302.5 Q533 258 637 258 Q739 258 795 301.5 Q851 345 851 425 Q851 503 794 549 Q737 594 633 594 Z " />
<glyph glyph-name="nine" unicode="9" horiz-adv-x="1270" d="M87 363 L441 363 Q473 235 610 235 Q721 235 764 310 Q802 374 823 547 Q729 446 545 446 Q353 446 240 521 Q160 574 116 667.5 Q72 761 72 877 Q72 1128 254 1267 Q410 1385 618 1385 Q801 1385 941 1292 Q1194 1122 1194 708 Q1194 403 1056 201 Q907 -18 602 -18 Q380 -18 247 80.5 Q114 179 87 363 Z M622 1084 Q541 1084 488 1030 Q434 974 434 888 Q434 821 468 769 Q522 686 620 686 Q698 686 752 743.5 Q806 801 806 884 Q806 968 753 1026 Q700 1084 622 1084 Z " />
<glyph glyph-name="colon" unicode="&#x3a;" horiz-adv-x="657" d="M347 383 Q428 383 486.5 326 Q545 269 545 190 Q545 110 486.5 53 Q428 -4 347 -4 Q264 -4 206 53 Q148 110 148 192 Q148 270 206.5 326.5 Q265 383 347 383 Z M347 968 Q428 968 486.5 911 Q545 854 545 775 Q545 695 486.5 638 Q428 581 347 581 Q264 581 206 638.5 Q148 696 148 777 Q148 855 206.5 911.5 Q265 968 347 968 Z " />
<glyph glyph-name="semicolon" unicode="&#x3b;" horiz-adv-x="657" d="M178 -189 Q260 -176 309.5 -125.5 Q359 -75 365 3 Q350 -2 335 -2 L326 -2 Q253 -2 198 54.5 Q143 111 143 187 Q143 267 197.5 325 Q252 383 329 383 Q424 383 483.5 308 Q543 233 543 113 Q543 -83 436 -212 Q386 -272 331.5 -302 Q277 -332 178 -353 L178 -189 Z M345 968 Q427 968 485.5 911 Q544 854 544 775 Q544 695 485.5 638 Q427 581 345 581 Q263 581 205 638.5 Q147 696 147 777 Q147 855 205.5 911.5 Q264 968 345 968 Z " />
<glyph glyph-name="less" unicode="&#x3c;" horiz-adv-x="1024" d="M955 1366 L955 954 L505 692 L953 430 L955 21 L68 522 L68 866 L955 1366 Z " />
<glyph glyph-name="equal" unicode="&#x3d;" horiz-adv-x="1270" d="M116 984 L1154 984 L1154 733 L116 733 L116 984 Z M116 598 L1154 598 L1154 347 L116 347 L116 598 Z " />
<glyph glyph-name="greater" unicode="&#x3e;" horiz-adv-x="1024" d="M68 21 L68 433 L518 694 L70 957 L68 1366 L955 865 L955 521 L68 21 Z " />
<glyph glyph-name="question" unicode="&#x3f;" horiz-adv-x="1208" d="M96 911 Q106 1104 204 1223 Q346 1398 632 1398 Q860 1398 996 1280 Q1134 1159 1134 986 Q1134 882 1086 813.5 Q1038 745 922 685 Q816 630 791 596 Q778 579 774 561.5 Q770 544 767 490 L415 490 L418 596 Q421 715 498 787 Q534 821 651 875 Q728 911 728 985 Q728 1026 698.5 1052 Q669 1078 622 1078 Q555 1078 524.5 1039 Q494 1000 493 911 L96 911 Z M590 382 Q671 382 729.5 325 Q788 268 788 189 Q788 109 729.5 52 Q671 -5 590 -5 Q507 -5 449 52.5 Q391 110 391 191 Q391 269 449.5 325.5 Q508 382 590 382 Z " />
<glyph glyph-name="at" unicode="&#x40;" horiz-adv-x="1730" d="M1201 118 L1294 -99 Q1238 -128 1215 -138 Q1055 -209 860 -209 Q649 -209 463 -109 Q209 27 107 277 Q41 437 41 612 Q41 812 132 989 Q275 1269 567 1382 Q711 1437 878 1437 Q1226 1437 1457 1197 Q1602 1046 1660 830 Q1688 724 1688 618 Q1688 467 1622 340 Q1572 244 1484 193 Q1391 139 1277 139 Q1183 139 1126.5 159.5 Q1070 180 1030 230 Q919 146 756 146 Q639 146 559 192 Q430 266 430 426 Q430 555 521 624 Q616 696 826 716 Q905 723 930 728 Q955 733 968 746 Q983 759 983 777 Q983 825 882 825 Q811 825 787 809 Q763 793 763 747 L455 747 Q455 758 455 763 Q456 850 499 915 Q598 1065 894 1065 Q1069 1065 1170 1007 Q1290 937 1290 798 L1290 413 Q1290 392 1294.5 385.5 Q1299 379 1315 379 Q1366 379 1396 447 Q1426 515 1426 628 Q1426 856 1282 1012 Q1124 1182 878 1182 Q637 1182 470 1018 Q303 852 303 611 Q303 373 449 217 Q616 39 863 39 Q1020 39 1201 118 Z M982 524 Q938 513 890 508 Q739 494 739 439 Q739 384 832 384 Q982 384 982 507 L982 524 Z " />
<glyph glyph-name="A" unicode="A" horiz-adv-x="1394" d="M904 1365 L1407 0 L982 0 L916 194 L476 194 L410 0 L-14 0 L490 1365 L904 1365 Z M824 488 L783 613 Q725 794 699 929 Q672 814 605 606 L567 488 L824 488 Z " />
<glyph glyph-name="B" unicode="B" horiz-adv-x="1414" d="M116 1365 L801 1365 Q1004 1365 1112 1312 Q1192 1274 1239 1196 Q1286 1118 1286 1024 Q1286 847 1116 751 Q1130 745 1137 742 Q1353 651 1353 415 Q1353 190 1176 77 Q1055 0 829 0 L116 0 L116 1365 Z M519 1054 L519 845 L754 845 Q814 845 848.5 872 Q883 899 883 946 Q883 1054 736 1054 L519 1054 Z M519 580 L519 325 L779 325 Q936 325 936 450 Q936 580 778 580 L519 580 Z " />
<glyph glyph-name="C" unicode="C" horiz-adv-x="1418" d="M1378 538 Q1363 319 1226 163 Q1052 -34 742 -34 Q412 -34 221 200 Q59 399 59 685 Q59 978 240 1182 Q432 1399 752 1399 Q1038 1399 1222 1200 Q1357 1055 1369 860 L963 860 Q946 956 889.5 1007 Q833 1058 743 1058 Q598 1058 534 929 Q481 825 481 684 Q481 534 535 436 Q605 307 743 307 Q932 307 963 538 L1378 538 Z " />
<glyph glyph-name="D" unicode="D" horiz-adv-x="1477" d="M116 1365 L728 1365 Q1033 1365 1208 1206 Q1310 1114 1364 979.5 Q1418 845 1418 686 Q1418 348 1223 162 Q1133 76 1015 38 Q897 0 720 0 L116 0 L116 1365 Z M532 1020 L532 345 L693 345 Q837 345 910 422 Q996 514 996 677 Q996 880 864 969 Q787 1020 654 1020 L532 1020 Z " />
<glyph glyph-name="E" unicode="E" horiz-adv-x="1342" d="M1248 1365 L1248 1033 L532 1033 L532 864 L1181 864 L1181 546 L532 546 L532 345 L1267 345 L1267 0 L116 0 L116 1365 L1248 1365 Z " />
<glyph glyph-name="F" unicode="F" horiz-adv-x="1207" d="M1173 1365 L1173 1020 L532 1020 L532 808 L1084 808 L1084 490 L532 490 L532 0 L116 0 L116 1365 L1173 1365 Z " />
<glyph glyph-name="G" unicode="G" horiz-adv-x="1482" d="M1383 752 L1383 0 L1116 0 L1103 140 Q966 -34 710 -34 Q397 -34 216 192 Q59 389 59 682 Q59 1007 265 1210 Q457 1399 754 1399 Q1028 1399 1206 1215 Q1340 1077 1362 887 L960 887 Q940 969 885.5 1013 Q831 1057 747 1057 Q578 1057 512 890 Q480 807 480 661 Q480 505 537 414 Q609 300 768 300 Q860 300 921.5 341.5 Q983 383 1001 458 L821 458 L821 752 L1383 752 Z " />
<glyph glyph-name="H" unicode="H" horiz-adv-x="1462" d="M1346 1365 L1346 0 L930 0 L930 539 L532 539 L532 0 L116 0 L116 1365 L532 1365 L532 893 L930 893 L930 1365 L1346 1365 Z " />
<glyph glyph-name="I" unicode="I" horiz-adv-x="649" d="M532 1365 L532 0 L116 0 L116 1365 L532 1365 Z " />
<glyph glyph-name="J" unicode="J" horiz-adv-x="1112" d="M1017 1365 L1017 455 Q1017 330 991.5 251.5 Q966 173 903 108 Q767 -34 511 -34 Q257 -34 121 114 Q7 238 7 469 L7 556 L7 572 L385 572 Q385 412 396 369 Q414 300 497 300 Q552 300 576.5 332 Q601 364 601 436 L601 1365 L1017 1365 Z " />
<glyph glyph-name="K" unicode="K" horiz-adv-x="1469" d="M1431 1365 L937 834 L1510 0 L987 0 L653 532 L532 403 L532 0 L116 0 L116 1365 L533 1365 L532 1090 L527 879 Q570 940 670 1062 L914 1365 L1431 1365 Z " />
<glyph glyph-name="L" unicode="L" horiz-adv-x="1203" d="M1141 354 L1141 0 L116 0 L116 1365 L532 1365 L532 354 L1141 354 Z " />
<glyph glyph-name="M" unicode="M" horiz-adv-x="1815" d="M1698 1365 L1698 0 L1305 0 L1305 205 Q1305 458 1317 874 L1320 982 Q1248 674 1165 372 L1063 0 L751 0 L652 357 Q565 673 493 982 Q509 598 509 263 L509 0 L116 0 L116 1365 L716 1365 L805 1011 Q874 738 911 493 Q944 691 1025 1021 L1110 1365 L1698 1365 Z " />
<glyph glyph-name="N" unicode="N" horiz-adv-x="1465" d="M1349 1365 L1349 0 L949 0 L608 581 L581 632 Q542 704 506 787 Q519 626 519 474 L519 0 L116 0 L116 1365 L529 1365 L825 853 Q918 693 960 597 Q956 657 954 709 Q946 898 946 911 L946 1365 L1349 1365 Z " />
<glyph glyph-name="O" unicode="O" horiz-adv-x="1502" d="M765 1399 Q1032 1399 1216 1237 Q1443 1037 1443 681 Q1443 383 1274 187 Q1082 -34 757 -34 Q418 -34 222 196 Q59 387 59 680 Q59 1028 269 1221 Q464 1399 765 1399 Z M758 1058 Q621 1058 551 954 Q481 851 481 686 Q481 486 570 384 Q637 307 756 307 Q1021 307 1021 699 Q1021 864 953 959 Q882 1058 758 1058 Z " />
<glyph glyph-name="P" unicode="P" horiz-adv-x="1354" d="M116 1365 L689 1365 Q856 1365 947 1347 Q1038 1329 1109 1282 Q1204 1220 1255 1116.5 Q1306 1013 1306 883 Q1306 679 1173 547 Q1106 481 1016 451.5 Q926 422 791 422 L532 422 L532 0 L116 0 L116 1365 Z M532 1033 L532 741 L732 741 Q821 741 862 775 Q903 809 903 883 Q903 1033 724 1033 L532 1033 Z " />
<glyph glyph-name="Q" unicode="Q" horiz-adv-x="1496" d="M1445 40 L1258 -149 L1063 49 Q933 -27 734 -27 Q400 -27 216 202 Q59 399 59 681 Q59 839 113 975 Q167 1111 267 1207 Q469 1399 760 1399 Q912 1399 1045 1340.5 Q1178 1282 1268 1175 Q1438 974 1438 695 Q1438 545 1394 417.5 Q1350 290 1273 216 L1445 40 Z M992 495 Q1016 558 1016 686 Q1016 854 958 948 Q889 1058 751 1058 Q619 1058 548 954 Q481 855 481 681 Q481 510 552.5 404 Q624 298 739 298 Q779 298 811 313 L689 432 L874 617 L992 495 Z " />
<glyph glyph-name="R" unicode="R" horiz-adv-x="1453" d="M116 1365 L812 1365 Q934 1365 1009.5 1350.5 Q1085 1336 1147 1300 Q1238 1247 1288 1158.5 Q1338 1070 1338 962 Q1338 852 1283 761.5 Q1228 671 1136 630 Q1217 602 1268 525 Q1302 473 1316 408 Q1330 343 1349 148 Q1359 40 1377 12 L1384 0 L969 0 Q957 30 953.5 53 Q950 76 938 206 Q928 308 915 351.5 Q902 395 871 427 Q821 481 707 481 L532 481 L532 0 L116 0 L116 1365 Z M532 1047 L532 770 L759 770 Q935 770 935 911 Q935 1047 736 1047 L532 1047 Z " />
<glyph glyph-name="S" unicode="S" horiz-adv-x="1294" d="M1186 952 L793 952 Q792 1013 746 1047.5 Q700 1082 620 1082 Q555 1082 518.5 1060 Q482 1038 482 999 Q482 958 518.5 941 Q555 924 773 865 Q983 808 1074 747 Q1242 635 1242 435 Q1242 325 1195.5 233 Q1149 141 1062 81 Q903 -30 646 -30 Q400 -30 247 63 Q30 195 26 461 L445 461 Q449 405 464 373.5 Q479 342 513 319 Q566 283 660 283 Q740 283 785 313.5 Q830 344 830 398 Q830 440 782.5 465.5 Q735 491 556 545 Q382 597 307 629.5 Q232 662 182 707 Q79 799 79 967 Q79 1182 265 1300 Q415 1395 633 1395 Q893 1395 1038.5 1278.5 Q1184 1162 1186 952 Z " />
<glyph glyph-name="T" unicode="T" horiz-adv-x="1251" d="M1216 1365 L1216 1011 L834 1011 L834 0 L418 0 L418 1011 L34 1011 L34 1365 L1216 1365 Z " />
<glyph glyph-name="U" unicode="U" horiz-adv-x="1434" d="M1338 1365 L1338 554 Q1338 377 1297 272 Q1175 -34 716 -34 Q349 -34 195 167 Q140 239 118 326 Q96 413 96 558 L96 1365 L512 1365 L512 525 Q512 420 554 371 Q608 307 725 307 Q922 307 922 525 L922 1365 L1338 1365 Z " />
<glyph glyph-name="V" unicode="V" horiz-adv-x="1273" d="M1286 1365 L865 0 L394 0 L-14 1365 L410 1365 L479 1122 Q600 696 634 417 Q667 661 791 1120 L857 1365 L1286 1365 Z " />
<glyph glyph-name="W" unicode="W" horiz-adv-x="1837" d="M1850 1365 L1476 0 L1068 0 L1004 333 Q948 617 915 887 Q900 735 889 660 Q878 585 833 338 L773 0 L360 0 L-14 1365 L398 1365 L467 1056 Q543 715 567 401 Q592 677 668 1047 L733 1365 L1103 1365 L1158 1093 Q1210 835 1232 693.5 Q1254 552 1266 401 Q1291 693 1384 1120 L1437 1365 L1850 1365 Z " />
<glyph glyph-name="X" unicode="X" horiz-adv-x="1395" d="M1375 1365 L939 725 L1429 0 L922 0 L790 222 Q730 323 690 419 Q649 328 581 216 L451 0 L-34 0 L462 725 L12 1365 L503 1365 L606 1185 Q663 1087 708 983 Q747 1075 797 1165 L909 1365 L1375 1365 Z " />
<glyph glyph-name="Y" unicode="Y" horiz-adv-x="1279" d="M1333 1365 L846 494 L846 0 L430 0 L430 502 L-55 1365 L408 1365 L510 1148 Q603 951 639 848 Q688 984 783 1178 L875 1365 L1333 1365 Z " />
<glyph glyph-name="Z" unicode="Z" horiz-adv-x="1301" d="M1234 1365 L1234 1055 L789 571 Q705 480 570 345 L866 354 L1260 354 L1260 0 L41 0 L41 333 L517 851 Q588 928 687 1019 Q472 1012 436 1012 L75 1011 L75 1365 L1234 1365 Z " />
<glyph glyph-name="bracketleft" unicode="&#x5b;" horiz-adv-x="679" d="M603 1365 L603 1085 L386 1085 L386 -42 L603 -42 L603 -319 L68 -319 L68 1365 L603 1365 Z " />
<glyph glyph-name="backslash" unicode="&#x5c;" horiz-adv-x="947" d="M61 1365 L420 1365 L994 -319 L636 -319 L61 1365 Z " />
<glyph glyph-name="bracketright" unicode="&#x5d;" horiz-adv-x="679" d="M75 -319 L75 -39 L292 -39 L292 1088 L75 1088 L75 1365 L610 1365 L610 -319 L75 -319 Z " />
<glyph glyph-name="asciicircum" unicode="&#x5e;" horiz-adv-x="1024" d="M367 682 L7 682 L284 1376 L741 1376 L1018 682 L659 682 L513 1098 L367 682 Z " />
<glyph glyph-name="underscore" unicode="&#x5f;" horiz-adv-x="1024" d="M0 -94 L1024 -94 L1024 -333 L0 -333 L0 -94 Z " />
<glyph glyph-name="grave" unicode="&#x60;" horiz-adv-x="1024" d="M171 1420 L533 1420 L688 1129 L471 1129 L171 1420 Z " />
<glyph glyph-name="a" unicode="a" horiz-adv-x="1174" d="M1100 225 L1100 11 Q1046 -20 959 -20 Q800 -20 750 80 Q638 -27 437 -27 Q272 -27 178 56 Q84 139 84 285 Q84 439 186 514 Q237 552 305.5 572.5 Q374 593 496 607 Q636 623 674.5 639.5 Q713 656 713 702 Q713 795 580 795 Q460 795 435 720 Q430 706 424 652 L110 652 Q120 763 144 812 Q247 1024 596 1024 Q786 1024 897 960 Q1027 884 1027 728 L1027 273 Q1029 235 1033 228.5 Q1037 222 1057 221 Q1062 221 1065 221 L1100 225 Z M713 441 Q662 424 586 415 Q477 401 438 376 Q399 351 399 295 Q399 202 533 202 Q713 202 713 388 L713 441 Z " />
<glyph glyph-name="b" unicode="b" horiz-adv-x="1233" d="M480 1365 L480 884 Q528 941 574 969 Q656 1018 765 1018 Q924 1018 1037 909 Q1181 770 1181 503 Q1181 320 1107 185 Q1054 88 966 33 Q870 -27 749 -27 Q568 -27 467 108 L467 0 L102 0 L102 1365 L480 1365 Z M634 730 Q555 730 512 671 Q469 612 469 502 Q469 275 636 275 Q801 275 801 502 Q801 604 763 661 Q716 730 634 730 Z " />
<glyph glyph-name="c" unicode="c" horiz-adv-x="1138" d="M1104 397 Q1082 243 996 141 Q851 -27 585 -27 Q328 -27 178 135 Q46 278 46 487 Q46 733 211 885 Q356 1017 587 1017 Q865 1017 1007 842 Q1087 744 1096 617 L733 617 Q724 676 686 710 Q648 744 593 744 Q426 744 426 484 Q426 246 590 246 Q717 246 742 397 L1104 397 Z " />
<glyph glyph-name="d" unicode="d" horiz-adv-x="1232" d="M1128 1365 L1128 0 L764 0 L764 107 Q668 -27 488 -27 Q279 -27 160 132 Q51 277 51 503 Q51 705 139 841 Q254 1019 469 1019 Q638 1019 750 883 L750 1365 L1128 1365 Z M600 730 Q431 730 431 497 Q431 275 596 275 Q677 275 720 333 Q763 391 763 499 Q763 609 720 669.5 Q677 730 600 730 Z " />
<glyph glyph-name="e" unicode="e" horiz-adv-x="1185" d="M1117 298 Q1092 212 1017 131 Q872 -27 606 -27 Q373 -27 228 90 Q143 158 95 260 Q46 364 46 486 Q46 692 174 840 Q327 1017 591 1017 Q808 1017 949 900 Q1140 743 1138 414 L409 414 Q414 318 464.5 267 Q515 216 604 216 Q709 216 763 298 L1117 298 Z M768 604 Q763 657 747 689 Q703 774 595 774 Q441 774 411 604 L768 604 Z " />
<glyph glyph-name="f" unicode="f" horiz-adv-x="739" d="M725 1367 L725 1108 Q676 1111 645 1111 Q566 1111 541.5 1097.5 Q517 1084 517 1039 L517 990 L718 990 L718 755 L524 755 L524 0 L146 0 L146 755 L-10 755 L-10 990 L146 990 L146 1035 Q146 1212 243 1293 Q293 1336 367.5 1354 Q442 1372 565 1372 Q634 1372 725 1367 Z " />
<glyph glyph-name="g" unicode="g" horiz-adv-x="1217" d="M1114 990 L1114 139 Q1114 32 1098.5 -33 Q1083 -98 1045 -153 Q979 -246 870 -289.5 Q761 -333 591 -333 Q297 -333 179 -212 Q100 -131 84 -7 L461 -7 Q476 -57 507 -77 Q538 -97 600 -97 Q686 -97 717.5 -57 Q749 -17 749 91 L749 196 Q644 70 469 70 Q275 70 165 193 Q51 320 51 541 Q51 750 157 878 Q274 1018 473 1018 Q570 1018 632 985 Q694 952 749 871 L749 990 L1114 990 Z M587 736 Q503 736 458.5 685 Q414 634 414 537 Q414 453 449 401 Q493 336 587 336 Q668 336 712.5 388.5 Q757 441 757 535 Q757 629 714 682 Q668 736 587 736 Z " />
<glyph glyph-name="h" unicode="h" horiz-adv-x="1234" d="M480 1365 L480 863 Q584 1017 780 1017 Q976 1017 1072 887 Q1108 838 1123 777.5 Q1138 717 1138 618 L1138 0 L760 0 L760 546 Q760 638 730 673 Q693 717 628 717 Q547 717 505 649 Q480 608 480 506 L480 0 L102 0 L102 1365 L480 1365 Z " />
<glyph glyph-name="i" unicode="i" horiz-adv-x="583" d="M292 1428 Q373 1428 431.5 1371 Q490 1314 490 1235 Q490 1155 431.5 1098 Q373 1041 292 1041 Q209 1041 151 1098 Q93 1155 93 1237 Q93 1315 151.5 1371.5 Q210 1428 292 1428 Z M480 990 L480 0 L102 0 L102 990 L480 990 Z " />
<glyph glyph-name="j" unicode="j" horiz-adv-x="583" d="M481 990 L481 23 Q481 -171 395 -248 Q349 -288 282 -304.5 Q215 -321 93 -321 Q30 -321 -68 -317 L-68 -18 Q-46 -19 -39 -19 Q32 -19 54 -13 Q76 -7 89 16 Q99 33 101 55 Q103 77 103 191 L103 990 L481 990 Z M291 1428 Q373 1428 431.5 1371 Q490 1314 490 1235 Q490 1155 431.5 1098 Q373 1041 291 1041 Q209 1041 151 1098 Q93 1155 93 1237 Q93 1315 151.5 1371.5 Q210 1428 291 1428 Z " />
<glyph glyph-name="k" unicode="k" horiz-adv-x="1175" d="M1144 990 L792 615 L1202 0 L752 0 L545 362 L480 298 L480 0 L102 0 L102 1365 L480 1365 L480 855 Q480 818 475 686 Q513 744 547 785 L719 990 L1144 990 Z " />
<glyph glyph-name="l" unicode="l" horiz-adv-x="583" d="M480 1365 L480 0 L102 0 L102 1365 L480 1365 Z " />
<glyph glyph-name="m" unicode="m" horiz-adv-x="1828" d="M467 990 L467 863 Q572 1018 776 1018 Q880 1018 946 981 Q1012 944 1056 862 Q1177 1018 1372 1018 Q1536 1018 1634 918.5 Q1732 819 1732 651 L1732 0 L1354 0 L1354 559 Q1354 717 1234 717 Q1168 717 1137.5 677 Q1107 637 1107 550 L1107 0 L729 0 L729 572 Q729 717 611 717 Q480 717 480 551 L480 0 L102 0 L102 990 L467 990 Z " />
<glyph glyph-name="n" unicode="n" horiz-adv-x="1234" d="M467 990 L467 868 Q517 929 562 958 Q656 1018 781 1018 Q898 1018 991 961 Q1072 911 1105 831 Q1138 751 1138 606 L1138 0 L760 0 L760 554 Q760 718 630 718 Q558 718 519 673 Q480 628 480 545 L480 0 L102 0 L102 990 L467 990 Z " />
<glyph glyph-name="o" unicode="o" horiz-adv-x="1180" d="M601 1017 Q830 1017 979 876 Q1133 730 1133 498 Q1133 271 986 125 Q835 -27 589 -27 Q343 -27 193 122 Q46 267 46 492 Q46 727 197 870 Q353 1017 601 1017 Z M589 744 Q426 744 426 493 Q426 246 590 246 Q753 246 753 496 Q753 609 722 666 Q679 744 589 744 Z " />
<glyph glyph-name="p" unicode="p" horiz-adv-x="1233" d="M466 990 L467 882 Q568 1017 752 1017 Q957 1017 1077 853 Q1181 711 1181 489 Q1181 277 1090 142 Q974 -28 764 -28 Q590 -28 480 106 L480 -319 L102 -319 L102 990 L466 990 Z M638 729 Q469 729 469 497 Q469 274 636 274 Q801 274 801 501 Q801 729 638 729 Z " />
<glyph glyph-name="q" unicode="q" horiz-adv-x="1233" d="M1131 990 L1131 -319 L753 -319 L753 107 Q650 -28 469 -28 Q254 -28 139 149 Q52 284 52 486 Q52 717 163 861 Q282 1017 483 1017 Q667 1017 766 885 L766 990 L1131 990 Z M597 729 Q432 729 432 494 Q432 275 597 275 Q765 275 765 501 Q765 612 724 669 Q682 729 597 729 Z " />
<glyph glyph-name="r" unicode="r" horiz-adv-x="857" d="M857 1002 L857 668 Q775 696 717 696 Q585 696 519 603 Q480 548 480 448 L480 0 L102 0 L102 990 L467 990 L467 836 Q558 1016 750 1016 Q793 1016 857 1002 Z " />
<glyph glyph-name="s" unicode="s" horiz-adv-x="1068" d="M992 699 L648 699 Q639 752 610.5 772 Q582 792 516 792 Q412 792 412 731 Q412 696 450.5 679.5 Q489 663 630 637 Q815 604 906 548 Q1020 478 1020 321 Q1020 164 898 73 Q764 -27 522 -27 Q249 -27 119 99 Q71 144 49 196 Q27 248 20 329 L379 329 Q386 267 421 239.5 Q456 212 528 212 Q648 212 648 292 Q648 328 617 343.5 Q586 359 454 387 Q330 413 270.5 431.5 Q211 450 164 477 Q106 511 73 570.5 Q40 630 40 703 Q40 857 165 938 Q221 975 314 996 Q407 1017 511 1017 Q745 1017 863 939 Q981 861 992 699 Z " />
<glyph glyph-name="t" unicode="t" horiz-adv-x="765" d="M729 990 L729 755 L524 755 L524 401 Q524 325 538 303 Q561 266 651 266 Q662 266 729 268 L729 -6 Q620 -14 531 -14 Q381 -14 308 15 Q217 52 181.5 121 Q146 190 146 330 L146 755 L-18 755 L-18 990 L146 990 L146 1294 L524 1294 L524 990 L729 990 Z " />
<glyph glyph-name="u" unicode="u" horiz-adv-x="1229" d="M1127 990 L1127 0 L762 0 L762 126 Q658 -27 456 -27 Q262 -27 164 102 Q127 150 111.5 213.5 Q96 277 96 379 L96 990 L474 990 L474 480 Q474 401 477.5 374 Q481 347 495 325 Q528 273 604 273 Q684 273 716.5 321 Q749 369 749 487 L749 990 L1127 990 Z " />
<glyph glyph-name="v" unicode="v" horiz-adv-x="1058" d="M1079 990 L755 0 L309 0 L-20 990 L381 990 L460 699 Q515 495 533 333 Q552 478 607 675 L695 990 L1079 990 Z " />
<glyph glyph-name="w" unicode="w" horiz-adv-x="1649" d="M1670 990 L1358 0 L971 0 L888 324 Q848 481 824 680 Q796 475 759 324 L681 0 L293 0 L-20 990 L373 990 L445 712 Q488 545 518 321 Q554 554 592 728 L649 990 L1003 990 L1067 701 Q1110 505 1135 324 Q1163 526 1205 694 L1279 990 L1670 990 Z " />
<glyph glyph-name="x" unicode="x" horiz-adv-x="1032" d="M1031 990 L721 523 L1073 0 L657 0 L584 118 Q558 161 516 263 Q477 169 444 114 L377 0 L-41 0 L306 523 L-5 990 L409 990 L462 899 Q483 863 521 779 Q560 871 584 913 L627 990 L1031 990 Z " />
<glyph glyph-name="y" unicode="y" horiz-adv-x="1074" d="M1095 990 L733 -23 Q692 -137 646 -196.5 Q600 -256 528 -288 Q484 -308 438 -313.5 Q392 -319 277 -319 L80 -319 L80 -18 Q135 -19 165 -19 Q244 -19 272 -6 Q314 13 314 62 Q314 82 303 111 L-20 990 L383 990 L494 599 Q521 505 543 368 Q574 532 596 610 L706 990 L1095 990 Z " />
<glyph glyph-name="z" unicode="z" horiz-adv-x="1054" d="M991 990 L991 702 L710 441 Q644 380 517 279 Q625 287 684 287 L1034 287 L1034 0 L48 0 L48 289 L322 534 Q427 628 530 708 Q453 703 408 703 L89 703 L89 990 L991 990 Z " />
<glyph glyph-name="braceleft" unicode="&#x7b;" horiz-adv-x="815" d="M333 523 Q381 491 403.5 464 Q426 437 439 394 Q455 341 455 263 L455 102 Q455 39 460.5 17 Q466 -5 484 -18 Q513 -39 628 -39 L660 -39 L660 -319 L616 -319 Q388 -317 345 -313 Q302 -309 254 -283 Q192 -250 164.5 -189.5 Q137 -129 137 -27 L137 189 Q137 282 112 326 Q87 370 25 383 L25 663 Q86 679 111 722 Q123 744 130 780 Q137 816 137 855 L137 1070 Q137 1172 164.5 1233 Q192 1294 254 1327 Q302 1353 361.5 1359 Q421 1365 616 1365 L660 1365 L660 1085 L628 1085 Q513 1085 484 1064 Q466 1050 460.5 1028.5 Q455 1007 455 944 L455 781 Q455 678 430 625.5 Q405 573 333 523 Z " />
<glyph glyph-name="bar" unicode="&#x7c;" horiz-adv-x="1024" d="M303 1365 L720 1365 L720 -341 L303 -341 L303 1365 Z " />
<glyph glyph-name="braceright" unicode="&#x7d;" horiz-adv-x="815" d="M483 523 Q435 555 412.5 582 Q390 609 377 652 Q361 705 361 783 L361 944 Q361 1007 355.5 1028.5 Q350 1050 332 1064 Q303 1085 188 1085 L156 1085 L156 1365 L200 1365 Q429 1363 471 1359 Q513 1355 562 1329 Q624 1296 651.5 1235.5 Q679 1175 679 1073 L679 857 Q679 764 704 720 Q729 676 791 663 L791 383 Q730 367 705 324 Q693 302 686 266 Q679 230 679 191 L679 -24 Q679 -126 651.5 -187 Q624 -248 562 -281 Q514 -307 454.5 -313 Q395 -319 200 -319 L156 -319 L156 -39 L188 -39 Q303 -39 332 -18 Q350 -5 355.5 17 Q361 39 361 102 L361 265 Q361 368 386 420.5 Q411 473 483 523 Z " />
<glyph glyph-name="asciitilde" unicode="&#x7e;" horiz-adv-x="1365" d="M383 1088 L187 1255 Q228 1362 272 1427 Q368 1570 512 1570 Q550 1570 578 1562 Q606 1554 738 1508 Q847 1468 872 1468 Q906 1468 931 1491 Q956 1514 988 1576 L1184 1410 Q1146 1314 1118.5 1266.5 Q1091 1219 1050 1177 Q970 1094 859 1094 Q797 1094 631 1157 Q529 1196 496 1196 Q439 1196 383 1088 Z " />
<glyph glyph-name="nbspace" unicode="&#xa0;" horiz-adv-x="512" d="" />
<glyph glyph-name="exclamdown" unicode="&#xa1;" horiz-adv-x="721" d="M341 979 Q422 979 480.5 922 Q539 865 539 786 Q539 706 480.5 649 Q422 592 341 592 Q258 592 200 649 Q142 706 142 788 Q142 866 200.5 922.5 Q259 979 341 979 Z M431 498 L536 -56 L536 -374 L143 -374 L143 -63 L246 498 L431 498 Z " />
<glyph glyph-name="cent" unicode="&#xa2;" horiz-adv-x="1270" d="M722 1190 Q909 1176 1026.5 1068.5 Q1144 961 1153 797 L805 797 Q796 888 722 926 L722 449 Q801 488 805 601 L1161 601 Q1142 413 1028 301 Q914 189 722 170 L722 -40 L595 -40 L595 171 Q513 178 438 210 Q290 271 210 406 Q141 523 141 674 Q141 881 266 1023 Q391 1165 595 1188 L595 1378 L722 1378 L722 1190 Z M595 458 L595 921 Q503 857 503 687 Q503 522 595 458 Z " />
<glyph glyph-name="sterling" unicode="&#xa3;" horiz-adv-x="1270" d="M1159 918 L810 918 Q804 931 802 971 Q800 1028 764 1063 Q728 1098 671 1098 Q618 1098 585 1067.5 Q552 1037 552 987 Q552 948 574 897 Q613 806 619 788 L863 788 L863 563 L681 563 Q687 534 687 511 Q687 385 584 303 Q606 309 618 312 Q670 326 716 326 Q743 326 825 304 Q879 290 909 290 Q1008 290 1074 395 L1220 122 Q1161 54 1072.5 15 Q984 -24 885 -24 Q829 -24 788 -17 Q747 -10 635 18 Q534 43 474 43 Q374 43 268 -33 L124 184 Q133 191 138 195 Q239 270 278 327 Q326 398 326 474 Q326 512 313 563 L127 563 L127 788 L230 788 Q162 884 162 1004 Q162 1168 280 1274 Q417 1398 665 1398 Q1142 1398 1159 918 Z " />
<glyph glyph-name="currency" unicode="&#xa4;" horiz-adv-x="1502" d="M55 220 L272 436 Q210 560 210 690 Q210 822 280 956 L57 1178 L269 1389 L497 1162 Q626 1225 751 1225 Q878 1225 1003 1164 L1228 1386 L1437 1177 L1220 960 Q1294 828 1294 690 Q1294 564 1231 437 L1447 221 L1239 10 L1024 224 Q893 151 751 151 Q619 151 480 224 L265 11 L55 220 Z M755 903 Q668 903 607 843 Q545 782 545 693 Q545 607 606 546 Q667 484 753 484 Q839 484 900 545 Q961 606 961 695 Q961 783 899 843 Q836 903 755 903 Z " />
<glyph glyph-name="yen" unicode="&#xa5;" horiz-adv-x="1270" d="M273 858 L33 1365 L439 1365 L515 1178 Q604 965 635 867 Q671 977 770 1209 L837 1365 L1237 1365 L998 858 L1183 858 L1183 681 L911 681 L829 504 L829 458 L1128 458 L1128 281 L829 281 L829 0 L440 0 L440 281 L142 281 L142 458 L440 458 L440 512 L361 681 L88 681 L88 858 L273 858 Z " />
<glyph glyph-name="brokenbar" unicode="&#xa6;" horiz-adv-x="1024" d="M303 1365 L720 1365 L720 619 L303 619 L303 1365 Z M303 314 L720 314 L720 -341 L303 -341 L303 314 Z " />
<glyph glyph-name="section" unicode="&#xa7;" horiz-adv-x="1270" d="M1090 995 L775 995 Q770 1102 659 1102 Q614 1102 587 1080.5 Q560 1059 560 1024 Q560 985 594.5 963.5 Q629 942 801 872 L875 842 Q991 794 1030 773.5 Q1069 753 1104 721 Q1189 646 1189 519 Q1189 401 1114 324 Q1063 271 995 249 Q1091 162 1091 42 Q1091 -135 942 -239 Q827 -319 634 -319 Q405 -319 288 -209 Q178 -106 178 49 Q178 56 179 75 L492 75 Q493 66 494 61 Q510 -46 630 -46 Q682 -46 712.5 -22.5 Q743 1 743 43 Q743 80 721 101 Q705 118 680 129 Q655 140 522 193 Q250 299 188 352 Q80 442 80 578 Q80 675 133 744.5 Q186 814 286 850 Q212 929 212 1034 Q212 1171 324 1263 Q448 1366 655 1366 Q895 1366 1013 1212 Q1085 1118 1090 995 Z M460 685 Q393 677 393 617 Q393 585 417 567 Q441 549 534 510 Q569 496 674 450 Q775 409 813 399 Q879 411 879 465 Q879 498 855 517.5 Q831 537 752 569 Q712 584 645 614 Q500 676 460 685 Z " />
<glyph glyph-name="dieresis" unicode="&#xa8;" horiz-adv-x="1024" d="M725 1466 Q807 1466 865.5 1409 Q924 1352 924 1273 Q924 1193 865.5 1136 Q807 1079 725 1079 Q643 1079 585 1136 Q527 1193 527 1275 Q527 1353 585.5 1409.5 Q644 1466 725 1466 Z M299 1466 Q380 1466 438.5 1409 Q497 1352 497 1273 Q497 1193 438.5 1136 Q380 1079 299 1079 Q216 1079 158 1136 Q100 1193 100 1275 Q100 1353 158.5 1409.5 Q217 1466 299 1466 Z " />
<glyph glyph-name="copyright" unicode="&#xa9;" horiz-adv-x="1544" d="M1136 606 Q1124 453 1027 366 Q930 279 773 279 Q583 279 476 411 Q385 522 385 690 Q385 871 495 985 Q605 1099 779 1099 Q947 1099 1050 987 Q1125 905 1130 798 L949 798 Q936 843 892 868 Q848 893 781 893 Q696 893 656 822 Q626 768 626 688 Q626 592 667 538.5 Q708 485 782 485 Q931 485 953 606 L1136 606 Z M784 1399 Q976 1399 1146 1293 Q1317 1187 1408 1008 Q1486 854 1486 682 Q1486 480 1381 308 Q1277 137 1099 45 Q946 -34 774 -34 Q575 -34 404 70 Q231 175 138 356 Q59 510 59 681 Q59 886 165 1059 Q268 1229 452 1322 Q604 1399 784 1399 Z M781 1229 Q556 1229 400 1071 Q243 912 243 682 Q243 455 401 294 Q556 136 773 136 Q992 136 1147 296 Q1301 456 1301 682 Q1301 836 1223 969 Q1148 1098 1014 1169 Q903 1229 781 1229 Z " />
<glyph glyph-name="ordfeminine" unicode="&#xaa;" horiz-adv-x="847" d="M769 559 L77 559 L77 696 L769 696 L769 559 Z M728 819 L500 819 Q493 840 491 864 Q423 804 314 804 Q216 804 161 849 Q106 894 106 974 Q106 1088 219 1124 Q267 1139 371 1153 Q450 1163 467.5 1171 Q485 1179 485 1204 Q485 1256 417 1256 Q374 1256 356 1242.5 Q338 1229 332 1192 L132 1192 Q138 1380 418 1380 Q564 1380 638 1334 Q676 1310 690.5 1276 Q705 1242 705 1177 Q705 1165 703 1083 Q702 998 702 976 Q702 915 707 885 Q712 855 728 819 Z M486 1067 Q459 1053 417 1045 Q360 1033 344.5 1021.5 Q329 1010 329 980 Q329 927 392 927 Q486 927 486 1031 L486 1067 Z " />
<glyph glyph-name="guillemotleft" unicode="&#xab;" horiz-adv-x="862" d="M759 925 L759 630 L612 511 L759 394 L759 93 L452 336 L452 682 L759 925 Z M382 924 L382 634 L235 515 L382 393 L382 95 L75 340 L75 681 L382 924 Z " />
<glyph glyph-name="logicalnot" unicode="&#xac;" horiz-adv-x="1024" d="M551 0 L551 252 L68 252 L68 614 L955 614 L955 0 L551 0 Z " />
<glyph glyph-name="uni00AD" unicode="&#xad;" horiz-adv-x="546" d="M546 672 L546 347 L0 347 L0 672 L546 672 Z " />
<glyph glyph-name="registered" unicode="&#xae;" horiz-adv-x="1076" d="M503 1092 L503 1026 L559 1026 Q591 1026 591 1057 Q591 1092 559 1092 L503 1092 Z M670 967 Q676 962 679 959 Q709 931 714 844 Q717 793 734 762 L597 762 Q585 790 582 842 Q579 880 572 893 Q565 906 547 906 L502 906 L502 762 L361 762 L361 1193 L587 1193 Q646 1193 682.5 1157.5 Q719 1122 719 1065 Q719 1032 710 1013.5 Q701 995 670 967 Z M539 1293 Q405 1293 317 1204 Q224 1109 224 965 Q224 819 318 725 Q406 637 539 637 Q674 637 761 725 Q853 818 853 962 Q853 1111 761 1205 Q674 1293 539 1293 Z M540 1448 Q742 1448 878 1311 Q1017 1172 1017 966 Q1017 760 878 621 Q741 483 541 483 Q337 483 201 621 Q62 761 62 971 Q62 1170 201 1311 Q335 1448 540 1448 Z " />
<glyph glyph-name="overscore" unicode="&#xaf;" horiz-adv-x="1024" d="M842 1356 L842 1192 L183 1192 L183 1356 L842 1356 Z " />
<glyph glyph-name="degree" unicode="&#xb0;" horiz-adv-x="878" d="M440 1387 Q588 1387 692 1277 Q783 1180 783 1039 Q783 897 679 796 Q578 699 440 699 Q287 699 185 812 Q96 909 96 1041 Q96 1116 127.5 1186.5 Q159 1257 213 1303 Q313 1387 440 1387 Z M437 1237 Q366 1237 313 1185 Q250 1125 250 1043 Q250 972 296 917 Q352 849 439 849 Q515 849 572 905.5 Q629 962 629 1038 Q629 1120 577 1175 Q518 1237 437 1237 Z " />
<glyph glyph-name="plusminus" unicode="&#xb1;" horiz-adv-x="1270" d="M116 795 L506 795 L506 1185 L764 1185 L764 795 L1154 795 L1154 537 L764 537 L764 216 L506 216 L506 537 L116 537 L116 795 Z M116 176 L1154 176 L1154 -82 L116 -82 L116 176 Z " />
<glyph glyph-name="twosuperior" unicode="&#xb2;" horiz-adv-x="859" d="M806 746 L806 546 L50 546 Q49 559 49 564 Q49 707 180 814 Q252 872 421 963 Q489 1000 511 1022 Q533 1044 533 1076 Q533 1110 506 1130 Q479 1150 433 1150 Q368 1150 338.5 1116 Q309 1082 307 1004 L66 1004 Q65 1161 135 1239 Q236 1353 443 1353 Q599 1353 691 1285 Q790 1212 790 1097 Q790 1024 754 971.5 Q718 919 633 869 Q580 838 454 776 Q400 748 381 737 Q488 745 583 745 L806 746 Z " />
<glyph glyph-name="threesuperior" unicode="&#xb3;" horiz-adv-x="859" d="M73 1073 Q78 1185 141 1252 Q236 1353 428 1353 Q585 1353 676 1293 Q774 1227 774 1122 Q774 1013 666 975 Q728 959 763.5 912 Q799 865 799 801 Q799 708 733 641 Q628 536 428 536 Q231 536 133 626 Q48 705 48 827 Q48 834 49 853 L292 853 Q292 843 292 839 Q292 731 417 731 Q536 731 536 810 Q536 889 404 889 Q393 889 349 888 L349 1043 Q368 1042 406 1042 Q476 1042 505 1056 Q534 1070 534 1104 Q534 1133 505 1151 Q476 1169 428 1169 Q316 1169 315 1073 L73 1073 Z " />
<glyph glyph-name="acute" unicode="&#xb4;" horiz-adv-x="1024" d="M852 1420 L552 1129 L335 1129 L490 1420 L852 1420 Z " />
<glyph glyph-name="mu" unicode="&#xb5;" horiz-adv-x="1024" d="M34 -355 L34 983 L383 983 L383 499 Q383 398 396 362 Q428 274 519 274 Q613 274 635 375 Q642 406 642 499 L642 983 L990 983 L990 0 L642 0 L642 101 Q599 -16 513 -16 Q431 -16 383 87 L383 -355 L34 -355 Z " />
<glyph glyph-name="paragraph" unicode="&#xb6;" horiz-adv-x="1270" d="M491 -319 L491 662 Q472 661 465 661 Q400 661 333.5 682.5 Q267 704 220 740 Q102 832 102 1009 Q102 1224 271 1313 Q330 1344 392 1354.5 Q454 1365 575 1365 L1126 1365 L1126 1219 L1029 1219 L1029 -319 L838 -319 L838 1219 L682 1219 L682 -319 L491 -319 Z " />
<glyph glyph-name="periodcentered" unicode="&#xb7;" horiz-adv-x="623" d="M313 695 Q394 695 452.5 638 Q511 581 511 502 Q511 422 452.5 365 Q394 308 313 308 Q230 308 172 365 Q114 422 114 504 Q114 582 172.5 638.5 Q231 695 313 695 Z " />
<glyph glyph-name="cedilla" unicode="&#xb8;" horiz-adv-x="1024" d="M557 0 L488 -120 Q540 -109 571 -109 Q647 -109 697 -150 Q747 -191 747 -253 Q747 -332 681 -382 Q615 -432 511 -432 Q384 -432 255 -381 L294 -291 Q401 -330 461 -330 Q505 -330 531.5 -311.5 Q558 -293 558 -263 Q558 -232 534 -212.5 Q510 -193 473 -193 Q444 -193 403 -211 L354 -169 L454 0 L557 0 Z " />
<glyph glyph-name="onesuperior" unicode="&#xb9;" horiz-adv-x="860" d="M631 1343 L631 546 L363 546 L363 998 L316 998 L252 998 L196 998 L161 998 L161 1172 Q406 1172 416 1343 L631 1343 Z " />
<glyph glyph-name="ordmasculine" unicode="&#xba;" horiz-adv-x="847" d="M769 559 L77 559 L77 696 L769 696 L769 559 Z M429 1380 Q562 1380 648 1302 Q737 1222 737 1094 Q737 969 652 888 Q565 804 423 804 Q281 804 194 886 Q109 966 109 1090 Q109 1220 196 1299 Q286 1380 429 1380 Z M423 1223 Q334 1223 334 1091 Q334 961 424 961 Q513 961 513 1094 Q513 1223 423 1223 Z " />
<glyph glyph-name="guillemotright" unicode="&#xbb;" horiz-adv-x="863" d="M479 927 L787 680 L787 336 L479 92 L479 384 L630 504 L479 629 L479 927 Z M102 924 L409 681 L409 340 L102 97 L102 384 L252 506 L102 624 L102 924 Z " />
<glyph glyph-name="onequarter" unicode="&#xbc;" horiz-adv-x="2001" d="M631 1343 L631 546 L363 546 L363 998 L316 998 L252 998 L196 998 L161 998 L161 1172 Q406 1172 416 1343 L631 1343 Z M1457 1343 L742 0 L543 0 L1260 1343 L1457 1343 Z M1947 367 L1947 172 L1833 172 L1833 0 L1578 0 L1578 172 L1190 172 L1190 385 L1581 797 L1833 797 L1833 367 L1947 367 Z M1590 356 L1590 586 L1378 356 L1590 356 Z " />
<glyph glyph-name="onehalf" unicode="&#xbd;" horiz-adv-x="2000" d="M631 1343 L631 546 L363 546 L363 998 L316 998 L252 998 L196 998 L161 998 L161 1172 Q406 1172 416 1343 L631 1343 Z M1457 1343 L742 0 L543 0 L1260 1343 L1457 1343 Z M1946 200 L1946 0 L1190 0 Q1189 14 1189 18 Q1189 162 1320 267 Q1394 326 1560 416 Q1629 453 1651 475.5 Q1673 498 1673 530 Q1673 564 1646 584 Q1619 604 1572 604 Q1508 604 1478.5 570 Q1449 536 1447 457 L1206 457 Q1206 615 1275 693 Q1376 807 1583 807 Q1739 807 1831 739 Q1930 665 1930 550 Q1930 477 1893.5 424.5 Q1857 372 1773 323 Q1708 285 1594 229 Q1540 202 1521 191 Q1628 198 1723 199 L1946 200 Z " />
<glyph glyph-name="threequarters" unicode="&#xbe;" horiz-adv-x="2000" d="M73 1073 Q78 1185 141 1252 Q236 1353 428 1353 Q585 1353 676 1293 Q774 1227 774 1122 Q774 1013 666 975 Q728 959 763.5 912 Q799 865 799 801 Q799 708 733 641 Q628 536 428 536 Q231 536 133 626 Q48 705 48 827 Q48 834 49 853 L292 853 Q292 843 292 839 Q292 731 417 731 Q536 731 536 810 Q536 889 404 889 Q393 889 349 888 L349 1043 Q368 1042 406 1042 Q476 1042 505 1056 Q534 1070 534 1104 Q534 1133 505 1151 Q476 1169 428 1169 Q316 1169 315 1073 L73 1073 Z M1456 1343 L741 0 L542 0 L1259 1343 L1456 1343 Z M1947 367 L1947 172 L1832 172 L1832 0 L1577 0 L1577 172 L1189 172 L1189 385 L1580 797 L1832 797 L1832 367 L1947 367 Z M1589 356 L1589 586 L1377 356 L1589 356 Z " />
<glyph glyph-name="questiondown" unicode="&#xbf;" horiz-adv-x="1206" d="M607 979 Q689 979 747.5 922 Q806 865 806 786 Q806 706 747.5 649 Q689 592 608 592 Q525 592 467 649 Q409 706 409 788 Q409 866 467.5 922.5 Q526 979 607 979 Z M778 500 Q779 474 779 465 Q779 304 717 222 Q695 193 665.5 174.5 Q636 156 547 115 Q468 79 468 10 Q468 -34 497 -61.5 Q526 -89 574 -89 Q701 -89 703 79 L1096 79 Q1089 -113 990 -231 Q843 -408 563 -408 Q332 -408 196 -286 Q60 -164 60 8 Q60 110 107.5 175.5 Q155 241 274 304 Q375 357 401.5 390 Q428 423 429 500 L778 500 Z " />
<glyph glyph-name="Agrave" unicode="&#xc0;" horiz-adv-x="1394" d="M904 1365 L1407 0 L982 0 L916 194 L476 194 L410 0 L-14 0 L490 1365 L904 1365 Z M824 488 L783 613 Q725 794 699 929 Q672 814 605 606 L567 488 L824 488 Z M683 1763 L877 1486 L615 1486 L284 1763 L683 1763 Z " />
<glyph glyph-name="Aacute" unicode="&#xc1;" horiz-adv-x="1394" d="M904 1365 L1407 0 L982 0 L916 194 L476 194 L410 0 L-14 0 L490 1365 L904 1365 Z M824 488 L783 613 Q725 794 699 929 Q672 814 605 606 L567 488 L824 488 Z M1116 1763 L775 1486 L523 1486 L713 1763 L1116 1763 Z " />
<glyph glyph-name="Acircumflex" unicode="&#xc2;" horiz-adv-x="1394" d="M904 1365 L1407 0 L982 0 L916 194 L476 194 L410 0 L-14 0 L490 1365 L904 1365 Z M824 488 L783 613 Q725 794 699 929 Q672 814 605 606 L567 488 L824 488 Z M1089 1486 L808 1486 L694 1631 L583 1486 L304 1486 L533 1763 L866 1763 L1089 1486 Z " />
<glyph glyph-name="Atilde" unicode="&#xc3;" horiz-adv-x="1394" d="M904 1365 L1407 0 L982 0 L916 194 L476 194 L410 0 L-14 0 L490 1365 L904 1365 Z M824 488 L783 613 Q725 794 699 929 Q672 814 605 606 L567 488 L824 488 Z M1082 1760 Q1046 1495 832 1495 Q790 1495 756.5 1504 Q723 1513 639 1546 Q592 1565 559 1565 Q489 1565 476 1485 L326 1485 Q341 1609 410 1685.5 Q479 1762 577 1762 Q618 1762 651 1752.5 Q684 1743 774 1705 Q814 1688 847 1688 Q921 1688 933 1760 L1082 1760 Z " />
<glyph glyph-name="Adieresis" unicode="&#xc4;" horiz-adv-x="1394" d="M904 1365 L1407 0 L982 0 L916 194 L476 194 L410 0 L-14 0 L490 1365 L904 1365 Z M824 488 L783 613 Q725 794 699 929 Q672 814 605 606 L567 488 L824 488 Z M916 1836 Q998 1836 1056.5 1779 Q1115 1722 1115 1643 Q1115 1563 1056.5 1506 Q998 1449 916 1449 Q834 1449 776 1506 Q718 1563 718 1645 Q718 1723 776.5 1779.5 Q835 1836 916 1836 Z M478 1836 Q559 1836 617.5 1779 Q676 1722 676 1643 Q676 1563 617.5 1506 Q559 1449 478 1449 Q395 1449 337 1506 Q279 1563 279 1645 Q279 1723 337.5 1779.5 Q396 1836 478 1836 Z " />
<glyph glyph-name="Aring" unicode="&#xc5;" horiz-adv-x="1394" d="M904 1365 L1407 0 L982 0 L916 194 L476 194 L410 0 L-14 0 L490 1365 L904 1365 Z M824 488 L783 613 Q725 794 699 929 Q672 814 605 606 L567 488 L824 488 Z M701 1882 Q814 1882 893 1811 Q963 1748 963 1665 Q963 1568 874 1502 Q799 1447 697 1447 Q579 1447 501 1518 Q431 1581 431 1666 Q431 1762 520 1827 Q595 1882 701 1882 Z M699 1767 Q655 1767 624.5 1737.5 Q594 1708 594 1665 Q594 1622 624 1592 Q654 1562 697 1562 Q739 1562 769.5 1592 Q800 1622 800 1664 Q800 1706 770 1736.5 Q740 1767 699 1767 Z " />
<glyph glyph-name="AE" unicode="&#xc6;" horiz-adv-x="2005" d="M1909 1365 L1909 1033 L1289 1033 L1289 864 L1867 864 L1867 546 L1289 546 L1289 345 L1930 345 L1930 0 L886 0 L886 191 L481 191 L401 0 L-41 0 L585 1365 L1909 1365 Z M886 485 L886 1033 L832 1033 L599 485 L886 485 Z " />
<glyph glyph-name="Ccedilla" unicode="&#xc7;" horiz-adv-x="1418" d="M1378 538 Q1359 296 1207 143 Q1030 -34 737 -32 L682 -122 Q735 -110 767 -110 Q842 -110 891 -150 Q940 -190 940 -251 Q940 -345 863 -391 Q797 -431 693 -431 Q578 -431 447 -380 L489 -289 Q589 -329 662 -329 Q701 -329 726 -310 Q751 -291 751 -262 Q751 -233 725 -213.5 Q699 -194 659 -194 Q629 -194 595 -210 L546 -166 L629 -26 Q405 3 259 153 Q165 249 112 388 Q59 527 59 678 Q59 1000 266 1207 Q458 1399 746 1399 Q901 1399 1019 1348 Q1137 1297 1230 1189 Q1343 1059 1371 857 L957 857 Q947 929 913 976 Q854 1057 738 1057 Q596 1057 532 930 Q481 828 481 687 Q481 511 551 409 Q621 307 742 307 Q931 307 962 538 L1378 538 Z " />
<glyph glyph-name="Egrave" unicode="&#xc8;" horiz-adv-x="1342" d="M1248 1365 L1248 1033 L532 1033 L532 864 L1181 864 L1181 546 L532 546 L532 345 L1267 345 L1267 0 L116 0 L116 1365 L1248 1365 Z M698 1763 L893 1486 L630 1486 L299 1763 L698 1763 Z " />
<glyph glyph-name="Eacute" unicode="&#xc9;" horiz-adv-x="1342" d="M1248 1365 L1248 1033 L532 1033 L532 864 L1181 864 L1181 546 L532 546 L532 345 L1267 345 L1267 0 L116 0 L116 1365 L1248 1365 Z M1090 1763 L749 1486 L498 1486 L687 1763 L1090 1763 Z " />
<glyph glyph-name="Ecircumflex" unicode="&#xca;" horiz-adv-x="1342" d="M1248 1365 L1248 1033 L532 1033 L532 864 L1181 864 L1181 546 L532 546 L532 345 L1267 345 L1267 0 L116 0 L116 1365 L1248 1365 Z M1077 1486 L796 1486 L682 1631 L570 1486 L292 1486 L520 1763 L854 1763 L1077 1486 Z " />
<glyph glyph-name="Edieresis" unicode="&#xcb;" horiz-adv-x="1342" d="M1248 1365 L1248 1033 L532 1033 L532 864 L1181 864 L1181 546 L532 546 L532 345 L1267 345 L1267 0 L116 0 L116 1365 L1248 1365 Z M904 1836 Q986 1836 1044.5 1779 Q1103 1722 1103 1643 Q1103 1563 1044.5 1506 Q986 1449 904 1449 Q822 1449 764 1506 Q706 1563 706 1645 Q706 1723 764.5 1779.5 Q823 1836 904 1836 Z M464 1836 Q546 1836 604.5 1779 Q663 1722 663 1643 Q663 1563 604.5 1506 Q546 1449 464 1449 Q382 1449 324 1506.5 Q266 1564 266 1645 Q266 1723 324.5 1779.5 Q383 1836 464 1836 Z " />
<glyph glyph-name="Igrave" unicode="&#xcc;" horiz-adv-x="649" d="M532 1365 L532 0 L116 0 L116 1365 L532 1365 Z M304 1763 L485 1486 L223 1486 L-95 1763 L304 1763 Z " />
<glyph glyph-name="Iacute" unicode="&#xcd;" horiz-adv-x="649" d="M532 1365 L532 0 L116 0 L116 1365 L532 1365 Z M743 1763 L416 1486 L164 1486 L340 1763 L743 1763 Z " />
<glyph glyph-name="Icircumflex" unicode="&#xce;" horiz-adv-x="649" d="M532 1365 L532 0 L116 0 L116 1365 L532 1365 Z M696 1486 L415 1486 L321 1631 L230 1486 L-48 1486 L160 1763 L493 1763 L696 1486 Z " />
<glyph glyph-name="Idieresis" unicode="&#xcf;" horiz-adv-x="649" d="M532 1365 L532 0 L116 0 L116 1365 L532 1365 Z M109 1836 Q190 1836 248.5 1779 Q307 1722 307 1643 Q307 1563 248.5 1506 Q190 1449 109 1449 Q26 1449 -32 1506 Q-90 1563 -90 1645 Q-90 1723 -31.5 1779.5 Q27 1836 109 1836 Z M541 1836 Q623 1836 681.5 1779 Q740 1722 740 1643 Q740 1563 681.5 1506 Q623 1449 541 1449 Q459 1449 401 1506 Q343 1563 343 1645 Q343 1723 401.5 1779.5 Q460 1836 541 1836 Z " />
<glyph glyph-name="Eth" unicode="&#xd0;" horiz-adv-x="1477" d="M116 818 L116 1365 L729 1365 Q1033 1365 1209 1206 Q1310 1114 1364 980 Q1418 846 1418 687 Q1418 348 1224 162 Q1133 76 1015.5 38 Q898 0 720 0 L116 0 L116 608 L-7 608 L-7 818 L116 818 Z M532 818 L759 818 L759 608 L532 608 L532 345 L694 345 Q838 345 910 423 Q996 515 996 678 Q996 775 961.5 851 Q927 927 864 969 Q786 1020 654 1020 L532 1020 L532 818 Z " />
<glyph glyph-name="Ntilde" unicode="&#xd1;" horiz-adv-x="1465" d="M1349 1365 L1349 0 L949 0 L608 581 L581 632 Q542 704 506 787 Q519 626 519 474 L519 0 L116 0 L116 1365 L529 1365 L825 853 Q918 693 960 597 Q956 657 954 709 Q946 898 946 911 L946 1365 L1349 1365 Z M1124 1760 Q1088 1495 875 1495 Q832 1495 798.5 1504 Q765 1513 682 1546 Q634 1565 602 1565 Q532 1565 518 1485 L368 1485 Q383 1609 452 1685.5 Q521 1762 619 1762 Q660 1762 693 1752.5 Q726 1743 817 1705 Q857 1688 889 1688 Q963 1688 976 1760 L1124 1760 Z " />
<glyph glyph-name="Ograve" unicode="&#xd2;" horiz-adv-x="1502" d="M765 1399 Q1032 1399 1216 1237 Q1443 1037 1443 681 Q1443 383 1274 187 Q1082 -34 757 -34 Q418 -34 222 196 Q59 387 59 680 Q59 1028 269 1221 Q464 1399 765 1399 Z M758 1058 Q621 1058 551 954 Q481 851 481 686 Q481 486 570 384 Q637 307 756 307 Q1021 307 1021 699 Q1021 864 953 959 Q882 1058 758 1058 Z M765 1763 L959 1486 L697 1486 L366 1763 L765 1763 Z " />
<glyph glyph-name="Oacute" unicode="&#xd3;" horiz-adv-x="1502" d="M765 1399 Q1032 1399 1216 1237 Q1443 1037 1443 681 Q1443 383 1274 187 Q1082 -34 757 -34 Q418 -34 222 196 Q59 387 59 680 Q59 1028 269 1221 Q464 1399 765 1399 Z M758 1058 Q621 1058 551 954 Q481 851 481 686 Q481 486 570 384 Q637 307 756 307 Q1021 307 1021 699 Q1021 864 953 959 Q882 1058 758 1058 Z M1164 1763 L822 1486 L571 1486 L760 1763 L1164 1763 Z " />
<glyph glyph-name="Ocircumflex" unicode="&#xd4;" horiz-adv-x="1502" d="M765 1399 Q1032 1399 1216 1237 Q1443 1037 1443 681 Q1443 383 1274 187 Q1082 -34 757 -34 Q418 -34 222 196 Q59 387 59 680 Q59 1028 269 1221 Q464 1399 765 1399 Z M758 1058 Q621 1058 551 954 Q481 851 481 686 Q481 486 570 384 Q637 307 756 307 Q1021 307 1021 699 Q1021 864 953 959 Q882 1058 758 1058 Z M1144 1486 L862 1486 L748 1631 L637 1486 L359 1486 L587 1763 L920 1763 L1144 1486 Z " />
<glyph glyph-name="Otilde" unicode="&#xd5;" horiz-adv-x="1502" d="M765 1399 Q1032 1399 1216 1237 Q1443 1037 1443 681 Q1443 383 1274 187 Q1082 -34 757 -34 Q418 -34 222 196 Q59 387 59 680 Q59 1028 269 1221 Q464 1399 765 1399 Z M758 1058 Q621 1058 551 954 Q481 851 481 686 Q481 486 570 384 Q637 307 756 307 Q1021 307 1021 699 Q1021 864 953 959 Q882 1058 758 1058 Z M1143 1760 Q1107 1495 893 1495 Q851 1495 817.5 1504 Q784 1513 700 1546 Q653 1565 621 1565 Q551 1565 537 1485 L387 1485 Q402 1609 471 1685.5 Q540 1762 638 1762 Q679 1762 712 1752.5 Q745 1743 835 1705 Q875 1688 908 1688 Q982 1688 995 1760 L1143 1760 Z " />
<glyph glyph-name="Odieresis" unicode="&#xd6;" horiz-adv-x="1502" d="M765 1399 Q1032 1399 1216 1237 Q1443 1037 1443 681 Q1443 383 1274 187 Q1082 -34 757 -34 Q418 -34 222 196 Q59 387 59 680 Q59 1028 269 1221 Q464 1399 765 1399 Z M758 1058 Q621 1058 551 954 Q481 851 481 686 Q481 486 570 384 Q637 307 756 307 Q1021 307 1021 699 Q1021 864 953 959 Q882 1058 758 1058 Z M971 1836 Q1053 1836 1111.5 1779 Q1170 1722 1170 1643 Q1170 1563 1111.5 1506 Q1053 1449 971 1449 Q889 1449 831 1506 Q773 1563 773 1645 Q773 1723 831.5 1779.5 Q890 1836 971 1836 Z M532 1836 Q613 1836 671.5 1779 Q730 1722 730 1643 Q730 1563 671.5 1506 Q613 1449 532 1449 Q449 1449 391 1506 Q333 1563 333 1645 Q333 1723 391.5 1779.5 Q450 1836 532 1836 Z " />
<glyph glyph-name="multiply" unicode="&#xd7;" horiz-adv-x="1270" d="M148 361 L453 666 L148 970 L331 1153 L635 848 L940 1153 L1122 970 L817 666 L1122 361 L940 178 L635 483 L331 178 L148 361 Z " />
<glyph glyph-name="Oslash" unicode="&#xd8;" horiz-adv-x="1502" d="M1447 1336 L1290 1160 Q1444 966 1444 673 Q1444 358 1249 158 Q1152 59 1033.5 12.5 Q915 -34 758 -34 Q634 -34 538 -5 Q442 24 334 95 L176 -82 L55 29 L214 207 Q59 403 59 684 Q59 1014 257 1210 Q449 1399 757 1399 Q1004 1399 1170 1274 L1327 1448 L1447 1336 Z M925 1001 Q861 1065 758 1065 Q651 1065 584 997 Q482 894 482 708 Q482 607 500 526 L925 1001 Z M1007 845 L579 366 Q640 300 754 300 Q891 300 956 397 Q1021 494 1021 700 Q1021 778 1007 845 Z " />
<glyph glyph-name="Ugrave" unicode="&#xd9;" horiz-adv-x="1434" d="M1338 1365 L1338 554 Q1338 377 1297 272 Q1175 -34 716 -34 Q349 -34 195 167 Q140 239 118 326 Q96 413 96 558 L96 1365 L512 1365 L512 525 Q512 420 554 371 Q608 307 725 307 Q922 307 922 525 L922 1365 L1338 1365 Z M724 1763 L918 1486 L656 1486 L325 1763 L724 1763 Z " />
<glyph glyph-name="Uacute" unicode="&#xda;" horiz-adv-x="1434" d="M1338 1365 L1338 554 Q1338 377 1297 272 Q1175 -34 716 -34 Q349 -34 195 167 Q140 239 118 326 Q96 413 96 558 L96 1365 L512 1365 L512 525 Q512 420 554 371 Q608 307 725 307 Q922 307 922 525 L922 1365 L1338 1365 Z M1123 1763 L782 1486 L530 1486 L719 1763 L1123 1763 Z " />
<glyph glyph-name="Ucircumflex" unicode="&#xdb;" horiz-adv-x="1434" d="M1338 1365 L1338 554 Q1338 377 1297 272 Q1175 -34 716 -34 Q349 -34 195 167 Q140 239 118 326 Q96 413 96 558 L96 1365 L512 1365 L512 525 Q512 420 554 371 Q608 307 725 307 Q922 307 922 525 L922 1365 L1338 1365 Z M1110 1486 L828 1486 L714 1631 L603 1486 L325 1486 L553 1763 L886 1763 L1110 1486 Z " />
<glyph glyph-name="Udieresis" unicode="&#xdc;" horiz-adv-x="1434" d="M1338 1365 L1338 554 Q1338 377 1297 272 Q1175 -34 716 -34 Q349 -34 195 167 Q140 239 118 326 Q96 413 96 558 L96 1365 L512 1365 L512 525 Q512 420 554 371 Q608 307 725 307 Q922 307 922 525 L922 1365 L1338 1365 Z M937 1836 Q1019 1836 1077.5 1779 Q1136 1722 1136 1643 Q1136 1563 1077.5 1506 Q1019 1449 937 1449 Q855 1449 797 1506 Q739 1563 739 1645 Q739 1723 797.5 1779.5 Q856 1836 937 1836 Z M498 1836 Q579 1836 637.5 1779 Q696 1722 696 1643 Q696 1563 637.5 1506 Q579 1449 498 1449 Q415 1449 357 1506 Q299 1563 299 1645 Q299 1723 357.5 1779.5 Q416 1836 498 1836 Z " />
<glyph glyph-name="Yacute" unicode="&#xdd;" horiz-adv-x="1279" d="M1333 1365 L846 494 L846 0 L430 0 L430 502 L-55 1365 L408 1365 L510 1148 Q603 951 639 848 Q688 984 783 1178 L875 1365 L1333 1365 Z M1058 1763 L717 1486 L466 1486 L655 1763 L1058 1763 Z " />
<glyph glyph-name="Thorn" unicode="&#xde;" horiz-adv-x="1361" d="M532 231 L532 0 L116 0 L116 1365 L532 1365 L532 1174 L689 1174 Q855 1174 946.5 1156 Q1038 1138 1109 1090 Q1204 1027 1255 923 Q1306 819 1306 690 Q1306 488 1173 356 Q1106 290 1016 260.5 Q926 231 791 231 L532 231 Z M532 838 L532 550 L732 550 Q821 550 862 584 Q903 618 903 692 Q903 838 724 838 L532 838 Z " />
<glyph glyph-name="germandbls" unicode="&#xdf;" horiz-adv-x="1219" d="M557 288 Q609 281 636 281 Q706 281 750.5 329.5 Q795 378 795 455 Q795 635 586 635 Q575 635 557 635 L557 849 Q581 847 596 847 Q651 847 682 866 Q739 899 739 973 Q739 1026 703 1058 Q667 1090 608 1090 Q542 1090 511 1049.5 Q480 1009 480 923 L480 0 L102 0 L102 849 Q102 1067 177 1180 Q246 1284 370 1335 Q489 1384 624 1384 Q808 1384 942 1297 Q1015 1249 1057 1173 Q1097 1099 1097 1009 Q1097 841 937 752 Q1048 723 1110.5 634 Q1173 545 1173 417 Q1173 217 1031 87 Q971 33 901 9 Q831 -15 732 -15 Q658 -15 557 0 L557 288 Z " />
<glyph glyph-name="agrave" unicode="&#xe0;" horiz-adv-x="1174" d="M246 1420 L609 1420 L764 1129 L547 1129 L246 1420 Z M1100 225 L1100 11 Q1046 -20 959 -20 Q800 -20 750 80 Q638 -27 437 -27 Q272 -27 178 56 Q84 139 84 285 Q84 439 186 514 Q237 552 305.5 572.5 Q374 593 496 607 Q636 623 674.5 639.5 Q713 656 713 702 Q713 795 580 795 Q460 795 435 720 Q430 706 424 652 L110 652 Q120 763 144 812 Q247 1024 596 1024 Q786 1024 897 960 Q1027 884 1027 728 L1027 273 Q1029 235 1033 228.5 Q1037 222 1057 221 Q1062 221 1065 221 L1100 225 Z M713 441 Q662 424 586 415 Q477 401 438 376 Q399 351 399 295 Q399 202 533 202 Q713 202 713 388 L713 441 Z " />
<glyph glyph-name="aacute" unicode="&#xe1;" horiz-adv-x="1174" d="M941 1420 L641 1129 L424 1129 L579 1420 L941 1420 Z M1100 225 L1100 11 Q1046 -20 959 -20 Q800 -20 750 80 Q638 -27 437 -27 Q272 -27 178 56 Q84 139 84 285 Q84 439 186 514 Q237 552 305.5 572.5 Q374 593 496 607 Q636 623 674.5 639.5 Q713 656 713 702 Q713 795 580 795 Q460 795 435 720 Q430 706 424 652 L110 652 Q120 763 144 812 Q247 1024 596 1024 Q786 1024 897 960 Q1027 884 1027 728 L1027 273 Q1029 235 1033 228.5 Q1037 222 1057 221 Q1062 221 1065 221 L1100 225 Z M713 441 Q662 424 586 415 Q477 401 438 376 Q399 351 399 295 Q399 202 533 202 Q713 202 713 388 L713 441 Z " />
<glyph glyph-name="acircumflex" unicode="&#xe2;" horiz-adv-x="1174" d="M943 1129 L678 1129 L584 1274 L493 1129 L232 1129 L439 1420 L740 1420 L943 1129 Z M1100 225 L1100 11 Q1046 -20 959 -20 Q800 -20 750 80 Q638 -27 437 -27 Q272 -27 178 56 Q84 139 84 285 Q84 439 186 514 Q237 552 305.5 572.5 Q374 593 496 607 Q636 623 674.5 639.5 Q713 656 713 702 Q713 795 580 795 Q460 795 435 720 Q430 706 424 652 L110 652 Q120 763 144 812 Q247 1024 596 1024 Q786 1024 897 960 Q1027 884 1027 728 L1027 273 Q1029 235 1033 228.5 Q1037 222 1057 221 Q1062 221 1065 221 L1100 225 Z M713 441 Q662 424 586 415 Q477 401 438 376 Q399 351 399 295 Q399 202 533 202 Q713 202 713 388 L713 441 Z " />
<glyph glyph-name="atilde" unicode="&#xe3;" horiz-adv-x="1174" d="M931 1414 Q888 1164 704 1164 Q665 1164 636.5 1172 Q608 1180 528 1214 Q485 1232 456 1232 Q407 1232 383 1154 L243 1154 Q262 1276 323 1345.5 Q384 1415 471 1415 Q510 1415 539.5 1406 Q569 1397 651 1359 Q687 1343 717 1343 Q745 1343 760.5 1358 Q776 1373 792 1414 L931 1414 Z M1100 225 L1100 11 Q1046 -20 959 -20 Q800 -20 750 80 Q638 -27 437 -27 Q272 -27 178 56 Q84 139 84 285 Q84 439 186 514 Q237 552 305.5 572.5 Q374 593 496 607 Q636 623 674.5 639.5 Q713 656 713 702 Q713 795 580 795 Q460 795 435 720 Q430 706 424 652 L110 652 Q120 763 144 812 Q247 1024 596 1024 Q786 1024 897 960 Q1027 884 1027 728 L1027 273 Q1029 235 1033 228.5 Q1037 222 1057 221 Q1062 221 1065 221 L1100 225 Z M713 441 Q662 424 586 415 Q477 401 438 376 Q399 351 399 295 Q399 202 533 202 Q713 202 713 388 L713 441 Z " />
<glyph glyph-name="adieresis" unicode="&#xe4;" horiz-adv-x="1174" d="M801 1466 Q882 1466 940.5 1409 Q999 1352 999 1273 Q999 1193 940.5 1136 Q882 1079 801 1079 Q718 1079 660 1136 Q602 1193 602 1275 Q602 1353 660.5 1409.5 Q719 1466 801 1466 Z M373 1466 Q455 1466 513.5 1409 Q572 1352 572 1273 Q572 1193 513.5 1136 Q455 1079 373 1079 Q291 1079 233 1136 Q175 1193 175 1275 Q175 1353 233.5 1409.5 Q292 1466 373 1466 Z M1100 225 L1100 11 Q1046 -20 959 -20 Q800 -20 750 80 Q638 -27 437 -27 Q272 -27 178 56 Q84 139 84 285 Q84 439 186 514 Q237 552 305.5 572.5 Q374 593 496 607 Q636 623 674.5 639.5 Q713 656 713 702 Q713 795 580 795 Q460 795 435 720 Q430 706 424 652 L110 652 Q120 763 144 812 Q247 1024 596 1024 Q786 1024 897 960 Q1027 884 1027 728 L1027 273 Q1029 235 1033 228.5 Q1037 222 1057 221 Q1062 221 1065 221 L1100 225 Z M713 441 Q662 424 586 415 Q477 401 438 376 Q399 351 399 295 Q399 202 533 202 Q713 202 713 388 L713 441 Z " />
<glyph glyph-name="aring" unicode="&#xe5;" horiz-adv-x="1174" d="M591 1504 Q701 1504 777 1435 Q845 1374 845 1293 Q845 1199 758 1135 Q686 1082 587 1082 Q473 1082 397 1151 Q329 1212 329 1294 Q329 1387 416 1451 Q487 1504 591 1504 Z M589 1395 Q546 1395 515.5 1365.5 Q485 1336 485 1294 Q485 1251 515 1221 Q545 1191 588 1191 Q630 1191 660 1221 Q690 1251 690 1293 Q690 1335 660 1365 Q630 1395 589 1395 Z M1100 225 L1100 11 Q1046 -20 959 -20 Q800 -20 750 80 Q638 -27 437 -27 Q272 -27 178 56 Q84 139 84 285 Q84 439 186 514 Q237 552 305.5 572.5 Q374 593 496 607 Q636 623 674.5 639.5 Q713 656 713 702 Q713 795 580 795 Q460 795 435 720 Q430 706 424 652 L110 652 Q120 763 144 812 Q247 1024 596 1024 Q786 1024 897 960 Q1027 884 1027 728 L1027 273 Q1029 235 1033 228.5 Q1037 222 1057 221 Q1062 221 1065 221 L1100 225 Z M713 441 Q662 424 586 415 Q477 401 438 376 Q399 351 399 295 Q399 202 533 202 Q713 202 713 388 L713 441 Z " />
<glyph glyph-name="ae" unicode="&#xe6;" horiz-adv-x="1801" d="M1735 306 Q1703 188 1608 102 Q1465 -27 1244 -27 Q1129 -27 1029 8.5 Q929 44 865 107 Q793 53 737 29 Q602 -27 427 -27 Q244 -27 143 46 Q95 80 67.5 141.5 Q40 203 40 277 Q40 457 198 532 Q275 569 532 604 Q654 621 688.5 638 Q723 655 723 700 Q723 788 585 788 Q519 788 488 765.5 Q457 743 447 687 L84 687 Q94 1018 572 1018 Q809 1018 925 909 Q980 960 1058.5 988.5 Q1137 1017 1226 1017 Q1351 1017 1459.5 966.5 Q1568 916 1641 825 Q1704 745 1730 651.5 Q1756 558 1755 414 L1047 414 Q1053 216 1232 216 Q1331 216 1381 306 L1735 306 Z M1387 604 Q1369 774 1220 774 Q1064 774 1048 604 L1387 604 Z M724 454 Q681 423 597 405 L564 398 Q490 382 470 370 Q427 345 427 290 Q427 244 460 216 Q493 188 548 188 Q632 188 678 238 Q724 288 724 381 L724 454 Z " />
<glyph glyph-name="ccedilla" unicode="&#xe7;" horiz-adv-x="1139" d="M1104 400 Q1080 209 941 92 Q874 35 796.5 8.5 Q719 -18 601 -24 L547 -120 Q599 -109 630 -109 Q706 -109 756 -150 Q806 -191 806 -253 Q806 -333 740.5 -382.5 Q675 -432 570 -432 Q443 -432 314 -381 L353 -291 Q462 -330 520 -330 Q565 -330 591 -311.5 Q617 -293 617 -262 Q617 -231 593 -211.5 Q569 -192 532 -192 Q504 -192 462 -210 L413 -168 L498 -24 Q359 -1 278 48 Q167 115 106.5 230.5 Q46 346 46 489 Q46 750 233 902 Q375 1017 596 1017 Q846 1017 992 861 Q1078 769 1098 617 L729 617 Q707 744 594 744 Q425 744 425 484 Q425 369 469.5 307.5 Q514 246 596 246 Q724 246 738 400 L1104 400 Z " />
<glyph glyph-name="egrave" unicode="&#xe8;" horiz-adv-x="1185" d="M1117 298 Q1092 212 1017 131 Q872 -27 606 -27 Q373 -27 228 90 Q143 158 95 260 Q46 364 46 486 Q46 692 174 840 Q327 1017 591 1017 Q808 1017 949 900 Q1140 743 1138 414 L409 414 Q414 318 464.5 267 Q515 216 604 216 Q709 216 763 298 L1117 298 Z M768 604 Q763 657 747 689 Q703 774 595 774 Q441 774 411 604 L768 604 Z M252 1420 L614 1420 L769 1129 L552 1129 L252 1420 Z " />
<glyph glyph-name="eacute" unicode="&#xe9;" horiz-adv-x="1185" d="M1117 298 Q1092 212 1017 131 Q872 -27 606 -27 Q373 -27 228 90 Q143 158 95 260 Q46 364 46 486 Q46 692 174 840 Q327 1017 591 1017 Q808 1017 949 900 Q1140 743 1138 414 L409 414 Q414 318 464.5 267 Q515 216 604 216 Q709 216 763 298 L1117 298 Z M768 604 Q763 657 747 689 Q703 774 595 774 Q441 774 411 604 L768 604 Z M947 1420 L646 1129 L429 1129 L584 1420 L947 1420 Z " />
<glyph glyph-name="ecircumflex" unicode="&#xea;" horiz-adv-x="1185" d="M1117 298 Q1092 212 1017 131 Q872 -27 606 -27 Q373 -27 228 90 Q143 158 95 260 Q46 364 46 486 Q46 692 174 840 Q327 1017 591 1017 Q808 1017 949 900 Q1140 743 1138 414 L409 414 Q414 318 464.5 267 Q515 216 604 216 Q709 216 763 298 L1117 298 Z M768 604 Q763 657 747 689 Q703 774 595 774 Q441 774 411 604 L768 604 Z M948 1129 L683 1129 L590 1274 L498 1129 L237 1129 L444 1420 L745 1420 L948 1129 Z " />
<glyph glyph-name="edieresis" unicode="&#xeb;" horiz-adv-x="1185" d="M1117 298 Q1092 212 1017 131 Q872 -27 606 -27 Q373 -27 228 90 Q143 158 95 260 Q46 364 46 486 Q46 692 174 840 Q327 1017 591 1017 Q808 1017 949 900 Q1140 743 1138 414 L409 414 Q414 318 464.5 267 Q515 216 604 216 Q709 216 763 298 L1117 298 Z M768 604 Q763 657 747 689 Q703 774 595 774 Q441 774 411 604 L768 604 Z M806 1466 Q888 1466 946.5 1409 Q1005 1352 1005 1273 Q1005 1193 946.5 1136 Q888 1079 806 1079 Q724 1079 666 1136 Q608 1193 608 1275 Q608 1353 666.5 1409.5 Q725 1466 806 1466 Z M378 1466 Q460 1466 518.5 1409 Q577 1352 577 1273 Q577 1193 518.5 1136 Q460 1079 378 1079 Q296 1079 238 1136 Q180 1193 180 1275 Q180 1353 238.5 1409.5 Q297 1466 378 1466 Z " />
<glyph glyph-name="igrave" unicode="&#xec;" horiz-adv-x="583" d="M480 990 L480 0 L102 0 L102 990 L480 990 Z M-56 1420 L293 1420 L448 1129 L230 1129 L-56 1420 Z " />
<glyph glyph-name="iacute" unicode="&#xed;" horiz-adv-x="583" d="M480 990 L480 0 L102 0 L102 990 L480 990 Z M645 1420 L359 1129 L142 1129 L297 1420 L645 1420 Z " />
<glyph glyph-name="icircumflex" unicode="&#xee;" horiz-adv-x="583" d="M481 990 L481 0 L103 0 L103 990 L481 990 Z M634 1129 L383 1129 L289 1274 L198 1129 L-50 1129 L144 1420 L445 1420 L634 1129 Z " />
<glyph glyph-name="idieresis" unicode="&#xef;" horiz-adv-x="583" d="M480 990 L480 0 L102 0 L102 990 L480 990 Z M69 1466 Q150 1466 208.5 1409 Q267 1352 267 1273 Q267 1193 208.5 1136 Q150 1079 69 1079 Q-14 1079 -72 1136 Q-130 1193 -130 1275 Q-130 1353 -71.5 1409.5 Q-13 1466 69 1466 Z M511 1466 Q593 1466 651.5 1409 Q710 1352 710 1273 Q710 1193 651.5 1136 Q593 1079 511 1079 Q429 1079 371 1136.5 Q313 1194 313 1275 Q313 1353 371.5 1409.5 Q430 1466 511 1466 Z " />
<glyph glyph-name="eth" unicode="&#xf0;" horiz-adv-x="1180" d="M309 1185 L449 1245 L368 1361 L588 1454 L681 1345 L831 1410 L899 1281 L769 1227 L957 969 Q1133 727 1133 504 Q1133 253 967 104 Q820 -28 596 -28 Q322 -28 170 144 Q46 286 46 491 Q46 728 204 878 Q343 1010 582 1019 L517 1123 L368 1057 L309 1185 Z M589 744 Q426 744 426 493 Q426 246 590 246 Q753 246 753 496 Q753 609 722 666 Q679 744 589 744 Z " />
<glyph glyph-name="ntilde" unicode="&#xf1;" horiz-adv-x="1234" d="M467 990 L467 868 Q517 929 562 958 Q656 1018 781 1018 Q898 1018 991 961 Q1072 911 1105 831 Q1138 751 1138 606 L1138 0 L760 0 L760 554 Q760 718 630 718 Q558 718 519 673 Q480 628 480 545 L480 0 L102 0 L102 990 L467 990 Z M965 1414 Q922 1164 738 1164 Q698 1164 669.5 1172 Q641 1180 562 1214 Q519 1232 489 1232 Q441 1232 417 1154 L277 1154 Q296 1276 357 1345.5 Q418 1415 505 1415 Q543 1415 572.5 1406 Q602 1397 685 1359 Q721 1343 751 1343 Q778 1343 794 1358 Q810 1373 826 1414 L965 1414 Z " />
<glyph glyph-name="ograve" unicode="&#xf2;" horiz-adv-x="1180" d="M601 1017 Q830 1017 979 876 Q1133 730 1133 498 Q1133 271 986 125 Q835 -27 589 -27 Q343 -27 193 122 Q46 267 46 492 Q46 727 197 870 Q353 1017 601 1017 Z M589 744 Q426 744 426 493 Q426 246 590 246 Q753 246 753 496 Q753 609 722 666 Q679 744 589 744 Z M249 1420 L611 1420 L766 1129 L549 1129 L249 1420 Z " />
<glyph glyph-name="oacute" unicode="&#xf3;" horiz-adv-x="1180" d="M601 1017 Q830 1017 979 876 Q1133 730 1133 498 Q1133 271 986 125 Q835 -27 589 -27 Q343 -27 193 122 Q46 267 46 492 Q46 727 197 870 Q353 1017 601 1017 Z M589 744 Q426 744 426 493 Q426 246 590 246 Q753 246 753 496 Q753 609 722 666 Q679 744 589 744 Z M957 1420 L657 1129 L440 1129 L595 1420 L957 1420 Z " />
<glyph glyph-name="ocircumflex" unicode="&#xf4;" horiz-adv-x="1180" d="M601 1017 Q830 1017 979 876 Q1133 730 1133 498 Q1133 271 986 125 Q835 -27 589 -27 Q343 -27 193 122 Q46 267 46 492 Q46 727 197 870 Q353 1017 601 1017 Z M589 744 Q426 744 426 493 Q426 246 590 246 Q753 246 753 496 Q753 609 722 666 Q679 744 589 744 Z M945 1129 L680 1129 L587 1274 L496 1129 L234 1129 L442 1420 L742 1420 L945 1129 Z " />
<glyph glyph-name="otilde" unicode="&#xf5;" horiz-adv-x="1180" d="M601 1017 Q830 1017 979 876 Q1133 730 1133 498 Q1133 271 986 125 Q835 -27 589 -27 Q343 -27 193 122 Q46 267 46 492 Q46 727 197 870 Q353 1017 601 1017 Z M589 744 Q426 744 426 493 Q426 246 590 246 Q753 246 753 496 Q753 609 722 666 Q679 744 589 744 Z M947 1414 Q904 1164 720 1164 Q681 1164 652 1172 Q623 1180 544 1214 Q501 1232 472 1232 Q423 1232 399 1154 L259 1154 Q278 1276 339 1345.5 Q400 1415 487 1415 Q526 1415 555 1406 Q584 1397 667 1359 Q703 1343 733 1343 Q761 1343 776.5 1358 Q792 1373 808 1414 L947 1414 Z " />
<glyph glyph-name="odieresis" unicode="&#xf6;" horiz-adv-x="1180" d="M601 1017 Q830 1017 979 876 Q1133 730 1133 498 Q1133 271 986 125 Q835 -27 589 -27 Q343 -27 193 122 Q46 267 46 492 Q46 727 197 870 Q353 1017 601 1017 Z M589 744 Q426 744 426 493 Q426 246 590 246 Q753 246 753 496 Q753 609 722 666 Q679 744 589 744 Z M803 1466 Q885 1466 943.5 1409 Q1002 1352 1002 1273 Q1002 1193 943.5 1136 Q885 1079 803 1079 Q721 1079 663 1136 Q605 1193 605 1275 Q605 1353 663.5 1409.5 Q722 1466 803 1466 Z M375 1466 Q457 1466 515.5 1409 Q574 1352 574 1273 Q574 1193 515.5 1136 Q457 1079 375 1079 Q293 1079 235 1136 Q177 1193 177 1275 Q177 1353 235.5 1409.5 Q294 1466 375 1466 Z " />
<glyph glyph-name="divide" unicode="&#xf7;" horiz-adv-x="1270" d="M116 795 L1154 795 L1154 537 L116 537 L116 795 Z M636 1218 Q710 1218 762 1161 Q807 1111 807 1045 Q807 967 749 916 Q700 871 633 871 Q555 871 504 928 Q459 978 459 1046 Q459 1121 517 1173 Q566 1218 636 1218 Z M634 460 Q708 460 760 402 Q804 353 804 287 Q804 209 747 158 Q698 113 632 113 Q555 113 503 170 Q459 220 459 288 Q459 363 516 415 Q565 460 634 460 Z " />
<glyph glyph-name="oslash" unicode="&#xf8;" horiz-adv-x="1180" d="M1088 976 L982 850 Q1065 764 1099 683.5 Q1133 603 1133 492 Q1133 267 980 119 Q828 -27 597 -27 Q413 -27 292 50 L179 -80 L83 4 L194 132 Q46 284 46 491 Q46 743 227 892 Q380 1017 589 1017 Q753 1017 881 932 L989 1061 L1088 976 Z M695 717 Q648 768 586 768 Q504 768 456 694.5 Q408 621 408 496 Q408 445 420 384 L695 717 Z M757 598 L481 267 Q524 221 590 221 Q672 221 721 291.5 Q770 362 770 480 Q770 540 757 598 Z " />
<glyph glyph-name="ugrave" unicode="&#xf9;" horiz-adv-x="1229" d="M1127 990 L1127 0 L762 0 L762 126 Q658 -27 456 -27 Q262 -27 164 102 Q127 150 111.5 213.5 Q96 277 96 379 L96 990 L474 990 L474 480 Q474 401 477.5 374 Q481 347 495 325 Q528 273 604 273 Q684 273 716.5 321 Q749 369 749 487 L749 990 L1127 990 Z M261 1420 L623 1420 L778 1129 L561 1129 L261 1420 Z " />
<glyph glyph-name="uacute" unicode="&#xfa;" horiz-adv-x="1229" d="M1127 990 L1127 0 L762 0 L762 126 Q658 -27 456 -27 Q262 -27 164 102 Q127 150 111.5 213.5 Q96 277 96 379 L96 990 L474 990 L474 480 Q474 401 477.5 374 Q481 347 495 325 Q528 273 604 273 Q684 273 716.5 321 Q749 369 749 487 L749 990 L1127 990 Z M969 1420 L669 1129 L452 1129 L607 1420 L969 1420 Z " />
<glyph glyph-name="ucircumflex" unicode="&#xfb;" horiz-adv-x="1229" d="M1127 990 L1127 0 L762 0 L762 126 Q658 -27 456 -27 Q262 -27 164 102 Q127 150 111.5 213.5 Q96 277 96 379 L96 990 L474 990 L474 480 Q474 401 477.5 374 Q481 347 495 325 Q528 273 604 273 Q684 273 716.5 321 Q749 369 749 487 L749 990 L1127 990 Z M964 1129 L699 1129 L605 1274 L514 1129 L252 1129 L460 1420 L761 1420 L964 1129 Z " />
<glyph glyph-name="udieresis" unicode="&#xfc;" horiz-adv-x="1229" d="M1127 990 L1127 0 L762 0 L762 126 Q658 -27 456 -27 Q262 -27 164 102 Q127 150 111.5 213.5 Q96 277 96 379 L96 990 L474 990 L474 480 Q474 401 477.5 374 Q481 347 495 325 Q528 273 604 273 Q684 273 716.5 321 Q749 369 749 487 L749 990 L1127 990 Z M822 1466 Q903 1466 961.5 1409 Q1020 1352 1020 1273 Q1020 1193 961.5 1136 Q903 1079 822 1079 Q739 1079 681 1136 Q623 1193 623 1275 Q623 1353 681.5 1409.5 Q740 1466 822 1466 Z M394 1466 Q476 1466 534.5 1409 Q593 1352 593 1273 Q593 1193 534.5 1136 Q476 1079 394 1079 Q312 1079 254 1136 Q196 1193 196 1275 Q196 1353 254.5 1409.5 Q313 1466 394 1466 Z " />
<glyph glyph-name="yacute" unicode="&#xfd;" horiz-adv-x="1074" d="M1095 990 L733 -23 Q692 -137 646 -196.5 Q600 -256 528 -288 Q484 -308 438 -313.5 Q392 -319 277 -319 L80 -319 L80 -18 Q135 -19 165 -19 Q244 -19 272 -6 Q314 13 314 62 Q314 82 303 111 L-20 990 L383 990 L494 599 Q521 505 543 368 Q574 532 596 610 L706 990 L1095 990 Z M905 1420 L605 1129 L388 1129 L543 1420 L905 1420 Z " />
<glyph glyph-name="thorn" unicode="&#xfe;" horiz-adv-x="1232" d="M480 1365 L480 882 Q574 1017 753 1017 Q956 1017 1076 853 Q1179 711 1179 489 Q1179 277 1088 142 Q973 -28 763 -28 Q587 -28 480 106 L480 -319 L102 -319 L102 1365 L480 1365 Z M637 729 Q469 729 469 497 Q469 274 634 274 Q799 274 799 501 Q799 729 637 729 Z " />
<glyph glyph-name="ydieresis" unicode="&#xff;" horiz-adv-x="1074" d="M1095 990 L733 -23 Q692 -137 646 -196.5 Q600 -256 528 -288 Q484 -308 438 -313.5 Q392 -319 277 -319 L80 -319 L80 -18 Q135 -19 165 -19 Q244 -19 272 -6 Q314 13 314 62 Q314 82 303 111 L-20 990 L383 990 L494 599 Q521 505 543 368 Q574 532 596 610 L706 990 L1095 990 Z M751 1466 Q833 1466 891.5 1409 Q950 1352 950 1273 Q950 1193 891.5 1136 Q833 1079 751 1079 Q669 1079 611 1136 Q553 1193 553 1275 Q553 1353 611.5 1409.5 Q670 1466 751 1466 Z M323 1466 Q405 1466 463.5 1409 Q522 1352 522 1273 Q522 1193 463.5 1136 Q405 1079 323 1079 Q241 1079 183 1136 Q125 1193 125 1275 Q125 1353 183.5 1409.5 Q242 1466 323 1466 Z " />
<glyph glyph-name="Amacron" unicode="&#x100;" horiz-adv-x="1394" d="M904 1365 L1407 0 L982 0 L916 194 L476 194 L410 0 L-14 0 L490 1365 L904 1365 Z M824 488 L783 613 Q725 794 699 929 Q672 814 605 606 L567 488 L824 488 Z M1059 1712 L1059 1536 L332 1536 L332 1712 L1059 1712 Z " />
<glyph glyph-name="amacron" unicode="&#x101;" horiz-adv-x="1174" d="M909 1356 L909 1192 L249 1192 L249 1356 L909 1356 Z M1100 225 L1100 11 Q1046 -20 959 -20 Q800 -20 750 80 Q638 -27 437 -27 Q272 -27 178 56 Q84 139 84 285 Q84 439 186 514 Q237 552 305.5 572.5 Q374 593 496 607 Q636 623 674.5 639.5 Q713 656 713 702 Q713 795 580 795 Q460 795 435 720 Q430 706 424 652 L110 652 Q120 763 144 812 Q247 1024 596 1024 Q786 1024 897 960 Q1027 884 1027 728 L1027 273 Q1029 235 1033 228.5 Q1037 222 1057 221 Q1062 221 1065 221 L1100 225 Z M713 441 Q662 424 586 415 Q477 401 438 376 Q399 351 399 295 Q399 202 533 202 Q713 202 713 388 L713 441 Z " />
<glyph glyph-name="Abreve" unicode="&#x102;" horiz-adv-x="1394" d="M904 1365 L1407 0 L982 0 L916 194 L476 194 L410 0 L-14 0 L490 1365 L904 1365 Z M824 488 L783 613 Q725 794 699 929 Q672 814 605 606 L567 488 L824 488 Z M1049 1782 Q1016 1482 690 1482 Q499 1482 407 1599 Q351 1670 345 1782 L515 1782 Q528 1732 553 1710 Q601 1666 704 1666 Q783 1666 820.5 1691 Q858 1716 879 1782 L1049 1782 Z " />
<glyph glyph-name="abreve" unicode="&#x103;" horiz-adv-x="1174" d="M262 1430 L421 1430 Q432 1379 454 1354 Q496 1309 587 1309 Q662 1309 700.5 1337 Q739 1365 753 1430 L912 1430 Q905 1321 857 1252 Q813 1189 749.5 1161.5 Q686 1134 587 1134 Q488 1134 425 1161.5 Q362 1189 318 1252 Q269 1321 262 1430 Z M1100 225 L1100 11 Q1046 -20 959 -20 Q800 -20 750 80 Q638 -27 437 -27 Q272 -27 178 56 Q84 139 84 285 Q84 439 186 514 Q237 552 305.5 572.5 Q374 593 496 607 Q636 623 674.5 639.5 Q713 656 713 702 Q713 795 580 795 Q460 795 435 720 Q430 706 424 652 L110 652 Q120 763 144 812 Q247 1024 596 1024 Q786 1024 897 960 Q1027 884 1027 728 L1027 273 Q1029 235 1033 228.5 Q1037 222 1057 221 Q1062 221 1065 221 L1100 225 Z M713 441 Q662 424 586 415 Q477 401 438 376 Q399 351 399 295 Q399 202 533 202 Q713 202 713 388 L713 441 Z " />
<glyph glyph-name="Aogonek" unicode="&#x104;" horiz-adv-x="1394" d="M1407 0 Q1296 -84 1296 -163 Q1296 -204 1328 -227 Q1360 -250 1416 -250 Q1437 -250 1475 -242 L1475 -377 Q1404 -397 1348 -397 Q1244 -397 1180 -345.5 Q1116 -294 1116 -211 Q1116 -156 1145.5 -107 Q1175 -58 1244 0 L982 0 L916 194 L476 194 L410 0 L-14 0 L490 1365 L904 1365 L1407 0 Z M824 488 L783 613 Q725 794 699 929 Q672 814 605 606 L567 488 L824 488 Z " />
<glyph glyph-name="aogonek" unicode="&#x105;" horiz-adv-x="1174" d="M886 -14 Q788 5 750 80 Q638 -27 437 -27 Q272 -27 178 56 Q84 139 84 285 Q84 439 186 514 Q237 552 305.5 572.5 Q374 593 496 607 Q636 623 674.5 639.5 Q713 656 713 702 Q713 795 580 795 Q460 795 435 720 Q430 706 424 652 L110 652 Q120 763 144 812 Q247 1024 596 1024 Q786 1024 897 960 Q1027 884 1027 728 L1027 273 Q1029 235 1033 228.5 Q1037 222 1058 221 Q1062 221 1065 221 L1100 225 L1100 10 Q950 -59 950 -161 Q950 -203 982 -226.5 Q1014 -250 1071 -250 Q1091 -250 1129 -242 L1129 -377 Q1058 -397 1002 -397 Q899 -397 834.5 -346 Q770 -295 770 -213 Q770 -155 796.5 -109.5 Q823 -64 886 -14 Z M713 441 Q662 424 586 415 Q477 401 438 376 Q399 351 399 295 Q399 202 533 202 Q713 202 713 388 L713 441 Z " />
<glyph glyph-name="Cacute" unicode="&#x106;" horiz-adv-x="1418" d="M1378 538 Q1363 319 1226 163 Q1052 -34 742 -34 Q412 -34 221 200 Q59 399 59 685 Q59 978 240 1182 Q432 1399 752 1399 Q1038 1399 1222 1200 Q1357 1055 1369 860 L963 860 Q946 956 889.5 1007 Q833 1058 743 1058 Q598 1058 534 929 Q481 825 481 684 Q481 534 535 436 Q605 307 743 307 Q932 307 963 538 L1378 538 Z M1142 1763 L801 1486 L550 1486 L739 1763 L1142 1763 Z " />
<glyph glyph-name="cacute" unicode="&#x107;" horiz-adv-x="1138" d="M1104 397 Q1082 243 996 141 Q851 -27 585 -27 Q328 -27 178 135 Q46 278 46 487 Q46 733 211 885 Q356 1017 587 1017 Q865 1017 1007 842 Q1087 744 1096 617 L733 617 Q724 676 686 710 Q648 744 593 744 Q426 744 426 484 Q426 246 590 246 Q717 246 742 397 L1104 397 Z M950 1420 L650 1129 L433 1129 L588 1420 L950 1420 Z " />
<glyph glyph-name="Ccircumflex" unicode="&#x108;" horiz-adv-x="1418" d="M1378 538 Q1363 319 1226 163 Q1052 -34 742 -34 Q412 -34 221 200 Q59 399 59 685 Q59 978 240 1182 Q432 1399 752 1399 Q1038 1399 1222 1200 Q1357 1055 1369 860 L963 860 Q946 956 889.5 1007 Q833 1058 743 1058 Q598 1058 534 929 Q481 825 481 684 Q481 534 535 436 Q605 307 743 307 Q932 307 963 538 L1378 538 Z M1129 1486 L848 1486 L734 1631 L623 1486 L344 1486 L573 1763 L906 1763 L1129 1486 Z " />
<glyph glyph-name="ccircumflex" unicode="&#x109;" horiz-adv-x="1138" d="M1104 397 Q1082 243 996 141 Q851 -27 585 -27 Q328 -27 178 135 Q46 278 46 487 Q46 733 211 885 Q356 1017 587 1017 Q865 1017 1007 842 Q1087 744 1096 617 L733 617 Q724 676 686 710 Q648 744 593 744 Q426 744 426 484 Q426 246 590 246 Q717 246 742 397 L1104 397 Z M929 1129 L664 1129 L570 1274 L479 1129 L217 1129 L425 1420 L726 1420 L929 1129 Z " />
<glyph glyph-name="Cdotaccent" unicode="&#x10a;" horiz-adv-x="1418" d="M1378 538 Q1363 319 1226 163 Q1052 -34 742 -34 Q412 -34 221 200 Q59 399 59 685 Q59 978 240 1182 Q432 1399 752 1399 Q1038 1399 1222 1200 Q1357 1055 1369 860 L963 860 Q946 956 889.5 1007 Q833 1058 743 1058 Q598 1058 534 929 Q481 825 481 684 Q481 534 535 436 Q605 307 743 307 Q932 307 963 538 L1378 538 Z M737 1836 Q819 1836 877.5 1779 Q936 1722 936 1643 Q936 1563 877.5 1506 Q819 1449 737 1449 Q655 1449 597 1506.5 Q539 1564 539 1645 Q539 1723 597.5 1779.5 Q656 1836 737 1836 Z " />
<glyph glyph-name="cdotaccent" unicode="&#x10b;" horiz-adv-x="1138" d="M1104 397 Q1082 243 996 141 Q851 -27 585 -27 Q328 -27 178 135 Q46 278 46 487 Q46 733 211 885 Q356 1017 587 1017 Q865 1017 1007 842 Q1087 744 1096 617 L733 617 Q724 676 686 710 Q648 744 593 744 Q426 744 426 484 Q426 246 590 246 Q717 246 742 397 L1104 397 Z M582 1466 Q664 1466 722.5 1409 Q781 1352 781 1273 Q781 1193 722.5 1136 Q664 1079 582 1079 Q500 1079 442 1136 Q384 1193 384 1275 Q384 1353 442.5 1409.5 Q501 1466 582 1466 Z " />
<glyph glyph-name="Ccaron" unicode="&#x10c;" horiz-adv-x="1418" d="M1378 538 Q1363 319 1226 163 Q1052 -34 742 -34 Q412 -34 221 200 Q59 399 59 685 Q59 978 240 1182 Q432 1399 752 1399 Q1038 1399 1222 1200 Q1357 1055 1369 860 L963 860 Q946 956 889.5 1007 Q833 1058 743 1058 Q598 1058 534 929 Q481 825 481 684 Q481 534 535 436 Q605 307 743 307 Q932 307 963 538 L1378 538 Z M344 1763 L626 1763 L740 1618 L851 1763 L1129 1763 L901 1486 L568 1486 L344 1763 Z " />
<glyph glyph-name="ccaron" unicode="&#x10d;" horiz-adv-x="1138" d="M1104 397 Q1082 243 996 141 Q851 -27 585 -27 Q328 -27 178 135 Q46 278 46 487 Q46 733 211 885 Q356 1017 587 1017 Q865 1017 1007 842 Q1087 744 1096 617 L733 617 Q724 676 686 710 Q648 744 593 744 Q426 744 426 484 Q426 246 590 246 Q717 246 742 397 L1104 397 Z M227 1420 L492 1420 L585 1275 L676 1420 L938 1420 L730 1129 L430 1129 L227 1420 Z " />
<glyph glyph-name="Dcaron" unicode="&#x10e;" horiz-adv-x="1477" d="M116 1365 L728 1365 Q1033 1365 1208 1206 Q1310 1114 1364 979.5 Q1418 845 1418 686 Q1418 348 1223 162 Q1133 76 1015 38 Q897 0 720 0 L116 0 L116 1365 Z M532 1020 L532 345 L693 345 Q837 345 910 422 Q996 514 996 677 Q996 880 864 969 Q787 1020 654 1020 L532 1020 Z M292 1763 L573 1763 L687 1618 L798 1763 L1077 1763 L848 1486 L515 1486 L292 1763 Z " />
<glyph glyph-name="dcaron" unicode="&#x10f;" horiz-adv-x="1666" d="M1128 1365 L1128 0 L764 0 L764 107 Q668 -27 488 -27 Q279 -27 160 132 Q51 277 51 503 Q51 705 139 841 Q254 1019 469 1019 Q638 1019 750 883 L750 1365 L1128 1365 Z M600 730 Q431 730 431 497 Q431 275 596 275 Q677 275 720 333 Q763 391 763 499 Q763 609 720 669.5 Q677 730 600 730 Z M1274 911 L1274 1025 Q1352 1029 1400 1045 Q1448 1061 1452 1083 Q1438 1079 1423 1079 L1414 1079 Q1345 1079 1293.5 1127 Q1242 1175 1242 1239 Q1242 1306 1294 1354.5 Q1346 1403 1418 1403 Q1504 1403 1560 1344 Q1616 1285 1620 1189 Q1626 1057 1518 985 Q1470 953 1420.5 938 Q1371 923 1274 911 Z " />
<glyph glyph-name="Dcroat" unicode="&#x110;" horiz-adv-x="1477" d="M116 818 L116 1365 L729 1365 Q1033 1365 1209 1206 Q1310 1114 1364 980 Q1418 846 1418 687 Q1418 348 1224 162 Q1133 76 1015.5 38 Q898 0 720 0 L116 0 L116 608 L-7 608 L-7 818 L116 818 Z M532 818 L759 818 L759 608 L532 608 L532 345 L694 345 Q838 345 910 423 Q996 515 996 678 Q996 775 961.5 851 Q927 927 864 969 Q786 1020 654 1020 L532 1020 L532 818 Z " />
<glyph glyph-name="dcroat" unicode="&#x111;" horiz-adv-x="1232" d="M1128 1085 L1128 0 L764 0 L764 107 Q668 -27 487 -27 Q278 -27 159 132 Q50 277 50 502 Q50 700 138 832 Q254 1005 469 1005 Q638 1005 750 883 L750 1085 L512 1085 L512 1262 L750 1262 L750 1365 L1128 1365 L1128 1262 L1237 1262 L1237 1085 L1128 1085 Z M599 715 Q430 715 430 495 Q430 275 596 275 Q676 275 719.5 333 Q763 391 763 497 Q763 601 720 658 Q677 715 599 715 Z " />
<glyph glyph-name="Emacron" unicode="&#x112;" horiz-adv-x="1342" d="M1248 1365 L1248 1033 L532 1033 L532 864 L1181 864 L1181 546 L532 546 L532 345 L1267 345 L1267 0 L116 0 L116 1365 L1248 1365 Z M1047 1712 L1047 1536 L319 1536 L319 1712 L1047 1712 Z " />
<glyph glyph-name="emacron" unicode="&#x113;" horiz-adv-x="1185" d="M1117 298 Q1092 212 1017 131 Q872 -27 606 -27 Q373 -27 228 90 Q143 158 95 260 Q46 364 46 486 Q46 692 174 840 Q327 1017 591 1017 Q808 1017 949 900 Q1140 743 1138 414 L409 414 Q414 318 464.5 267 Q515 216 604 216 Q709 216 763 298 L1117 298 Z M768 604 Q763 657 747 689 Q703 774 595 774 Q441 774 411 604 L768 604 Z M909 1356 L909 1192 L250 1192 L250 1356 L909 1356 Z " />
<glyph glyph-name="Ebreve" unicode="&#x114;" horiz-adv-x="1342" d="M1248 1365 L1248 1033 L532 1033 L532 864 L1181 864 L1181 546 L532 546 L532 345 L1267 345 L1267 0 L116 0 L116 1365 L1248 1365 Z M1036 1782 Q1004 1482 677 1482 Q487 1482 395 1599 Q339 1670 333 1782 L503 1782 Q515 1732 541 1710 Q589 1666 692 1666 Q771 1666 808.5 1691 Q846 1716 867 1782 L1036 1782 Z " />
<glyph glyph-name="ebreve" unicode="&#x115;" horiz-adv-x="1138" d="M1104 397 Q1082 243 996 141 Q851 -27 585 -27 Q328 -27 178 135 Q46 278 46 487 Q46 733 211 885 Q356 1017 587 1017 Q865 1017 1007 842 Q1087 744 1096 617 L733 617 Q724 676 686 710 Q648 744 593 744 Q426 744 426 484 Q426 246 590 246 Q717 246 742 397 L1104 397 Z M244 1430 L403 1430 Q414 1379 436 1354 Q478 1309 569 1309 Q644 1309 682.5 1337 Q721 1365 735 1430 L894 1430 Q887 1321 838 1252 Q794 1189 730.5 1161.5 Q667 1134 569 1134 Q470 1134 406.5 1161.5 Q343 1189 299 1252 Q250 1321 244 1430 Z " />
<glyph glyph-name="Edotaccent" unicode="&#x116;" horiz-adv-x="1342" d="M1248 1365 L1248 1033 L532 1033 L532 864 L1181 864 L1181 546 L532 546 L532 345 L1267 345 L1267 0 L116 0 L116 1365 L1248 1365 Z M685 1836 Q766 1836 824.5 1779 Q883 1722 883 1643 Q883 1563 824.5 1506 Q766 1449 685 1449 Q602 1449 544 1506 Q486 1563 486 1645 Q486 1723 544.5 1779.5 Q603 1836 685 1836 Z " />
<glyph glyph-name="edotaccent" unicode="&#x117;" horiz-adv-x="1185" d="M1117 298 Q1092 212 1017 131 Q872 -27 606 -27 Q373 -27 228 90 Q143 158 95 260 Q46 364 46 486 Q46 692 174 840 Q327 1017 591 1017 Q808 1017 949 900 Q1140 743 1138 414 L409 414 Q414 318 464.5 267 Q515 216 604 216 Q709 216 763 298 L1117 298 Z M768 604 Q763 657 747 689 Q703 774 595 774 Q441 774 411 604 L768 604 Z M593 1466 Q674 1466 732.5 1409 Q791 1352 791 1273 Q791 1193 732.5 1136 Q674 1079 593 1079 Q510 1079 452 1136 Q394 1193 394 1275 Q394 1353 452.5 1409.5 Q511 1466 593 1466 Z " />
<glyph glyph-name="Eogonek" unicode="&#x118;" horiz-adv-x="1342" d="M1248 1365 L1248 1033 L532 1033 L532 864 L1181 864 L1181 546 L532 546 L532 345 L1267 345 L1267 0 Q1156 -84 1156 -163 Q1156 -204 1188 -227 Q1220 -250 1276 -250 Q1296 -250 1334 -242 L1334 -377 Q1264 -397 1208 -397 Q1104 -397 1040 -345.5 Q976 -294 976 -211 Q976 -156 1005.5 -107 Q1035 -58 1103 0 L116 0 L116 1365 L1248 1365 Z " />
<glyph glyph-name="eogonek" unicode="&#x119;" horiz-adv-x="1185" d="M886 14 Q781 -93 781 -162 Q781 -203 813 -226.5 Q845 -250 902 -250 Q922 -250 960 -242 L960 -377 Q889 -397 833 -397 Q729 -397 665 -345.5 Q601 -294 601 -210 Q601 -106 724 -18 Q660 -27 603 -27 Q373 -27 228 90 Q143 158 95 260 Q46 364 46 486 Q46 692 174 840 Q327 1017 591 1017 Q779 1017 913 927 Q1038 843 1096 690 Q1138 577 1138 444 Q1138 427 1138 414 L409 414 Q414 318 464.5 267 Q515 216 604 216 Q709 216 763 298 L1117 298 Q1092 214 1017 131 L886 14 Z M768 604 Q763 657 747 689 Q703 774 594 774 Q441 774 411 604 L768 604 Z " />
<glyph glyph-name="Ecaron" unicode="&#x11a;" horiz-adv-x="1342" d="M1248 1365 L1248 1033 L532 1033 L532 864 L1181 864 L1181 546 L532 546 L532 345 L1267 345 L1267 0 L116 0 L116 1365 L1248 1365 Z M292 1763 L574 1763 L688 1618 L799 1763 L1077 1763 L849 1486 L516 1486 L292 1763 Z " />
<glyph glyph-name="ecaron" unicode="&#x11b;" horiz-adv-x="1185" d="M1117 298 Q1092 212 1017 131 Q872 -27 606 -27 Q373 -27 228 90 Q143 158 95 260 Q46 364 46 486 Q46 692 174 840 Q327 1017 591 1017 Q808 1017 949 900 Q1140 743 1138 414 L409 414 Q414 318 464.5 267 Q515 216 604 216 Q709 216 763 298 L1117 298 Z M768 604 Q763 657 747 689 Q703 774 595 774 Q441 774 411 604 L768 604 Z M237 1420 L502 1420 L595 1275 L686 1420 L948 1420 L740 1129 L440 1129 L237 1420 Z " />
<glyph glyph-name="Gcircumflex" unicode="&#x11c;" horiz-adv-x="1482" d="M1383 752 L1383 0 L1116 0 L1103 140 Q966 -34 710 -34 Q397 -34 216 192 Q59 389 59 682 Q59 1007 265 1210 Q457 1399 754 1399 Q1028 1399 1206 1215 Q1340 1077 1362 887 L960 887 Q940 969 885.5 1013 Q831 1057 747 1057 Q578 1057 512 890 Q480 807 480 661 Q480 505 537 414 Q609 300 768 300 Q860 300 921.5 341.5 Q983 383 1001 458 L821 458 L821 752 L1383 752 Z M1134 1486 L853 1486 L739 1631 L627 1486 L349 1486 L577 1763 L910 1763 L1134 1486 Z " />
<glyph glyph-name="gcircumflex" unicode="&#x11d;" horiz-adv-x="1217" d="M1114 990 L1114 139 Q1114 32 1098.5 -33 Q1083 -98 1045 -153 Q979 -246 870 -289.5 Q761 -333 591 -333 Q297 -333 179 -212 Q100 -131 84 -7 L461 -7 Q476 -57 507 -77 Q538 -97 600 -97 Q686 -97 717.5 -57 Q749 -17 749 91 L749 196 Q644 70 469 70 Q275 70 165 193 Q51 320 51 541 Q51 750 157 878 Q274 1018 473 1018 Q570 1018 632 985 Q694 952 749 871 L749 990 L1114 990 Z M587 736 Q503 736 458.5 685 Q414 634 414 537 Q414 453 449 401 Q493 336 587 336 Q668 336 712.5 388.5 Q757 441 757 535 Q757 629 714 682 Q668 736 587 736 Z M964 1129 L699 1129 L606 1274 L515 1129 L253 1129 L460 1420 L761 1420 L964 1129 Z " />
<glyph glyph-name="Gbreve" unicode="&#x11e;" horiz-adv-x="1482" d="M1383 752 L1383 0 L1116 0 L1103 140 Q966 -34 710 -34 Q397 -34 216 192 Q59 389 59 682 Q59 1007 265 1210 Q457 1399 754 1399 Q1028 1399 1206 1215 Q1340 1077 1362 887 L960 887 Q940 969 885.5 1013 Q831 1057 747 1057 Q578 1057 512 890 Q480 807 480 661 Q480 505 537 414 Q609 300 768 300 Q860 300 921.5 341.5 Q983 383 1001 458 L821 458 L821 752 L1383 752 Z M1093 1782 Q1061 1482 734 1482 Q544 1482 451 1599 Q396 1670 390 1782 L559 1782 Q572 1732 597 1710 Q646 1666 748 1666 Q827 1666 865 1691 Q903 1716 923 1782 L1093 1782 Z " />
<glyph glyph-name="gbreve" unicode="&#x11f;" horiz-adv-x="1217" d="M1114 990 L1114 139 Q1114 32 1098.5 -33 Q1083 -98 1045 -153 Q979 -246 870 -289.5 Q761 -333 591 -333 Q297 -333 179 -212 Q100 -131 84 -7 L461 -7 Q476 -57 507 -77 Q538 -97 600 -97 Q686 -97 717.5 -57 Q749 -17 749 91 L749 196 Q644 70 469 70 Q275 70 165 193 Q51 320 51 541 Q51 750 157 878 Q274 1018 473 1018 Q570 1018 632 985 Q694 952 749 871 L749 990 L1114 990 Z M587 736 Q503 736 458.5 685 Q414 634 414 537 Q414 453 449 401 Q493 336 587 336 Q668 336 712.5 388.5 Q757 441 757 535 Q757 629 714 682 Q668 736 587 736 Z M283 1430 L442 1430 Q453 1379 475 1354 Q517 1309 608 1309 Q684 1309 722 1337 Q760 1365 774 1430 L933 1430 Q927 1321 878 1252 Q834 1189 770.5 1161.5 Q707 1134 608 1134 Q510 1134 446.5 1161.5 Q383 1189 339 1252 Q290 1321 283 1430 Z " />
<glyph glyph-name="Gdotaccent" unicode="&#x120;" horiz-adv-x="1482" d="M1383 752 L1383 0 L1116 0 L1103 140 Q966 -34 710 -34 Q397 -34 216 192 Q59 389 59 682 Q59 1007 265 1210 Q457 1399 754 1399 Q1028 1399 1206 1215 Q1340 1077 1362 887 L960 887 Q940 969 885.5 1013 Q831 1057 747 1057 Q578 1057 512 890 Q480 807 480 661 Q480 505 537 414 Q609 300 768 300 Q860 300 921.5 341.5 Q983 383 1001 458 L821 458 L821 752 L1383 752 Z M735 1836 Q816 1836 874.5 1779 Q933 1722 933 1643 Q933 1563 874.5 1506 Q816 1449 735 1449 Q652 1449 594 1506 Q536 1563 536 1645 Q536 1723 594.5 1779.5 Q653 1836 735 1836 Z " />
<glyph glyph-name="gdotaccent" unicode="&#x121;" horiz-adv-x="1217" d="M1114 990 L1114 139 Q1114 32 1098.5 -33 Q1083 -98 1045 -153 Q979 -246 870 -289.5 Q761 -333 591 -333 Q297 -333 179 -212 Q100 -131 84 -7 L461 -7 Q476 -57 507 -77 Q538 -97 600 -97 Q686 -97 717.5 -57 Q749 -17 749 91 L749 196 Q644 70 469 70 Q275 70 165 193 Q51 320 51 541 Q51 750 157 878 Q274 1018 473 1018 Q570 1018 632 985 Q694 952 749 871 L749 990 L1114 990 Z M587 736 Q503 736 458.5 685 Q414 634 414 537 Q414 453 449 401 Q493 336 587 336 Q668 336 712.5 388.5 Q757 441 757 535 Q757 629 714 682 Q668 736 587 736 Z M608 1466 Q690 1466 748.5 1409 Q807 1352 807 1273 Q807 1193 748.5 1136 Q690 1079 608 1079 Q526 1079 468 1136 Q410 1193 410 1275 Q410 1353 468.5 1409.5 Q527 1466 608 1466 Z " />
<glyph glyph-name="Gcommaaccent" unicode="&#x122;" horiz-adv-x="1482" d="M1383 752 L1383 0 L1116 0 L1103 140 Q966 -34 710 -34 Q397 -34 216 192 Q59 389 59 682 Q59 1007 265 1210 Q457 1399 754 1399 Q1028 1399 1206 1215 Q1340 1077 1362 887 L960 887 Q940 969 885.5 1013 Q831 1057 747 1057 Q578 1057 512 890 Q480 807 480 661 Q480 505 537 414 Q609 300 768 300 Q860 300 921.5 341.5 Q983 383 1001 458 L821 458 L821 752 L1383 752 Z M556 -577 L556 -463 Q634 -459 682 -443 Q730 -427 733 -405 Q720 -409 705 -409 L696 -409 Q627 -409 575.5 -361 Q524 -313 524 -249 Q524 -182 576 -133.5 Q628 -85 700 -85 Q786 -85 842 -144 Q898 -203 902 -299 Q908 -432 800 -503 Q752 -535 702 -550 Q652 -565 556 -577 Z " />
<glyph glyph-name="gcommaaccent" unicode="&#x123;" horiz-adv-x="1217" d="M1114 990 L1114 139 Q1114 32 1098.5 -33 Q1083 -98 1045 -153 Q979 -246 870 -289.5 Q761 -333 591 -333 Q297 -333 179 -212 Q100 -131 84 -7 L461 -7 Q476 -57 507 -77 Q538 -97 600 -97 Q686 -97 717.5 -57 Q749 -17 749 91 L749 196 Q644 70 469 70 Q275 70 165 193 Q51 320 51 541 Q51 750 157 878 Q274 1018 473 1018 Q570 1018 632 985 Q694 952 749 871 L749 990 L1114 990 Z M587 736 Q503 736 458.5 685 Q414 634 414 537 Q414 453 449 401 Q493 336 587 336 Q668 336 712.5 388.5 Q757 441 757 535 Q757 629 714 682 Q668 736 587 736 Z M743 1553 L743 1439 Q665 1435 617 1419 Q569 1403 565 1381 Q579 1385 594 1385 L603 1385 Q672 1385 723.5 1337 Q775 1289 775 1225 Q775 1158 723 1109.5 Q671 1061 599 1061 Q513 1061 457 1120 Q401 1179 397 1275 Q391 1408 499 1479 Q547 1511 596.5 1526.5 Q646 1542 743 1553 Z " />
<glyph glyph-name="Hcircumflex" unicode="&#x124;" horiz-adv-x="1462" d="M1346 1365 L1346 0 L930 0 L930 539 L532 539 L532 0 L116 0 L116 1365 L532 1365 L532 893 L930 893 L930 1365 L1346 1365 Z M1124 1486 L842 1486 L728 1631 L617 1486 L339 1486 L567 1763 L900 1763 L1124 1486 Z " />
<glyph glyph-name="hcircumflex" unicode="&#x125;" horiz-adv-x="1234" d="M480 1365 L480 863 Q584 1017 780 1017 Q976 1017 1072 887 Q1108 838 1123 777.5 Q1138 717 1138 618 L1138 0 L760 0 L760 546 Q760 638 730 673 Q693 717 628 717 Q547 717 505 649 Q480 608 480 506 L480 0 L102 0 L102 1365 L480 1365 Z M891 1486 L610 1486 L496 1631 L385 1486 L107 1486 L335 1763 L668 1763 L891 1486 Z " />
<glyph glyph-name="Hbar" unicode="&#x126;" horiz-adv-x="1462" d="M1347 1227 L1449 1227 L1449 1050 L1347 1050 L1347 0 L931 0 L931 539 L532 539 L532 0 L116 0 L116 1050 L14 1050 L14 1227 L116 1227 L116 1365 L532 1365 L532 1221 L931 1221 L931 1365 L1347 1365 L1347 1227 Z M532 1057 L532 893 L931 893 L931 1057 L532 1057 Z " />
<glyph glyph-name="hbar" unicode="&#x127;" horiz-adv-x="1234" d="M480 0 L102 0 L102 1085 L-7 1085 L-7 1262 L102 1262 L102 1365 L480 1365 L480 1262 L718 1262 L718 1085 L480 1085 L480 863 Q584 1018 781 1018 Q977 1018 1073 887 Q1110 838 1124.5 777.5 Q1139 717 1139 618 L1139 0 L761 0 L761 546 Q761 638 731 673 Q693 717 629 717 Q547 717 505 649 Q480 608 480 506 L480 0 Z " />
<glyph glyph-name="Itilde" unicode="&#x128;" horiz-adv-x="649" d="M532 1365 L532 0 L116 0 L116 1365 L532 1365 Z M702 1760 Q666 1495 452 1495 Q410 1495 376.5 1504 Q343 1513 259 1546 Q212 1565 179 1565 Q110 1565 96 1485 L-54 1485 Q-39 1609 30 1685.5 Q99 1762 197 1762 Q238 1762 271 1752.5 Q304 1743 394 1705 Q434 1688 467 1688 Q541 1688 554 1760 L702 1760 Z " />
<glyph glyph-name="itilde" unicode="&#x129;" horiz-adv-x="583" d="M481 990 L481 0 L103 0 L103 990 L481 990 Z M636 1414 Q593 1164 409 1164 Q370 1164 341 1172 Q312 1180 233 1214 Q190 1232 161 1232 Q112 1232 88 1154 L-52 1154 Q-33 1276 28 1345.5 Q89 1415 176 1415 Q214 1415 243.5 1406 Q273 1397 356 1359 Q392 1343 422 1343 Q450 1343 465.5 1358 Q481 1373 497 1414 L636 1414 Z " />
<glyph glyph-name="Imacron" unicode="&#x12a;" horiz-adv-x="649" d="M532 1365 L532 0 L116 0 L116 1365 L532 1365 Z M642 1712 L642 1536 L7 1536 L7 1712 L642 1712 Z " />
<glyph glyph-name="imacron" unicode="&#x12b;" horiz-adv-x="583" d="M480 990 L480 0 L102 0 L102 990 L480 990 Z M579 1356 L579 1192 L3 1192 L3 1356 L579 1356 Z " />
<glyph glyph-name="Ibreve" unicode="&#x12c;" horiz-adv-x="649" d="M532 1365 L532 0 L116 0 L116 1365 L532 1365 Z M676 1782 Q643 1482 317 1482 Q126 1482 34 1599 Q-22 1670 -28 1782 L142 1782 Q155 1732 180 1710 Q228 1666 331 1666 Q410 1666 447.5 1691 Q485 1716 506 1782 L676 1782 Z " />
<glyph glyph-name="ibreve" unicode="&#x12d;" horiz-adv-x="583" d="M480 990 L480 0 L102 0 L102 990 L480 990 Z M-20 1430 L139 1430 Q165 1309 292 1309 Q418 1309 444 1430 L603 1430 Q583 1134 293 1134 Q119 1134 36 1252 Q-13 1321 -20 1430 Z " />
<glyph glyph-name="Iogonek" unicode="&#x12e;" horiz-adv-x="649" d="M116 0 L116 1365 L532 1365 L532 0 Q419 -78 419 -161 Q419 -203 451 -226.5 Q483 -250 540 -250 Q560 -250 599 -242 L599 -377 Q528 -397 472 -397 Q368 -397 304 -346 Q240 -295 240 -212 Q240 -147 278 -91 Q316 -35 384 0 L116 0 Z " />
<glyph glyph-name="iogonek" unicode="&#x12f;" horiz-adv-x="583" d="M102 0 L102 990 L480 990 L480 0 Q335 -51 335 -161 Q335 -250 456 -250 Q476 -250 515 -242 L515 -377 Q443 -397 387 -397 Q284 -397 220 -346 Q156 -295 156 -213 Q156 -81 297 0 L102 0 Z M292 1428 Q373 1428 431.5 1371 Q490 1314 490 1235 Q490 1155 431.5 1098 Q373 1041 292 1041 Q209 1041 151 1098 Q93 1155 93 1237 Q93 1315 151.5 1371.5 Q210 1428 292 1428 Z " />
<glyph glyph-name="Idot" unicode="&#x130;" horiz-adv-x="649" d="M532 1365 L532 0 L116 0 L116 1365 L532 1365 Z M324 1836 Q406 1836 464.5 1779 Q523 1722 523 1643 Q523 1563 464.5 1506 Q406 1449 324 1449 Q242 1449 184 1506 Q126 1563 126 1645 Q126 1723 184.5 1779.5 Q243 1836 324 1836 Z " />
<glyph glyph-name="dotlessi" unicode="&#x131;" horiz-adv-x="583" d="M480 990 L480 0 L102 0 L102 990 L480 990 Z " />
<glyph glyph-name="IJ" unicode="&#x132;" horiz-adv-x="1754" d="M532 1365 L532 0 L116 0 L116 1365 L532 1365 Z M1658 1365 L1658 455 Q1658 331 1632 252 Q1606 173 1544 108 Q1409 -34 1153 -34 Q899 -34 763 114 Q649 238 649 469 L649 556 L649 572 L1026 572 Q1026 412 1037 369 Q1055 300 1138 300 Q1193 300 1217.5 332 Q1242 364 1242 436 L1242 1365 L1658 1365 Z " />
<glyph glyph-name="ij" unicode="&#x133;" horiz-adv-x="1159" d="M292 1428 Q373 1428 431.5 1371 Q490 1314 490 1235 Q490 1155 431.5 1098 Q373 1041 292 1041 Q209 1041 151 1098 Q93 1155 93 1237 Q93 1315 151.5 1371.5 Q210 1428 292 1428 Z M480 990 L480 0 L102 0 L102 990 L480 990 Z M1057 990 L1057 23 Q1057 -171 971 -248 Q926 -288 858.5 -304.5 Q791 -321 669 -321 Q606 -321 508 -317 L508 -18 Q530 -19 537 -19 Q609 -19 630.5 -13 Q652 -7 665 16 Q675 33 677 55 Q679 77 679 191 L679 990 L1057 990 Z M868 1428 Q949 1428 1007.5 1371 Q1066 1314 1066 1235 Q1066 1155 1007.5 1098 Q949 1041 868 1041 Q785 1041 727 1098 Q669 1155 669 1237 Q669 1315 727.5 1371.5 Q786 1428 868 1428 Z " />
<glyph glyph-name="Jcircumflex" unicode="&#x134;" horiz-adv-x="1112" d="M1016 1365 L1016 455 Q1016 331 990 252 Q964 173 902 108 Q767 -34 511 -34 Q257 -34 121 114 Q7 238 7 469 L7 556 L7 572 L384 572 Q384 412 395 369 Q413 300 496 300 Q551 300 575.5 332 Q600 364 600 436 L600 1365 L1016 1365 Z M1207 1486 L925 1486 L811 1631 L700 1486 L422 1486 L650 1763 L983 1763 L1207 1486 Z " />
<glyph glyph-name="jcircumflex" unicode="&#x135;" horiz-adv-x="583" d="M481 990 L481 23 Q481 -171 395 -248 Q349 -288 282 -304.5 Q215 -321 93 -321 Q30 -321 -68 -317 L-68 -18 Q-46 -19 -39 -19 Q32 -19 54 -13 Q76 -7 89 16 Q99 33 101 55 Q103 77 103 191 L103 990 L481 990 Z M644 1129 L379 1129 L286 1274 L195 1129 L-67 1129 L140 1420 L441 1420 L644 1129 Z " />
<glyph glyph-name="Kcommaaccent" unicode="&#x136;" horiz-adv-x="1469" d="M1431 1365 L937 834 L1510 0 L987 0 L653 532 L532 403 L532 0 L116 0 L116 1365 L533 1365 L532 1090 L527 879 Q570 940 670 1062 L914 1365 L1431 1365 Z M604 -577 L604 -463 Q682 -459 730 -443 Q778 -427 781 -405 Q768 -409 753 -409 L744 -409 Q675 -409 623.5 -361 Q572 -313 572 -249 Q572 -182 624 -133.5 Q676 -85 748 -85 Q834 -85 889.5 -144 Q945 -203 950 -299 Q956 -432 848 -503 Q800 -535 750 -550 Q700 -565 604 -577 Z " />
<glyph glyph-name="kcommaaccent" unicode="&#x137;" horiz-adv-x="1175" d="M1144 990 L792 615 L1202 0 L752 0 L545 362 L480 298 L480 0 L102 0 L102 1365 L480 1365 L480 855 Q480 818 475 686 Q513 744 547 785 L719 990 L1144 990 Z M443 -577 L443 -463 Q521 -459 569 -443 Q617 -427 621 -405 Q607 -409 592 -409 L583 -409 Q514 -409 462.5 -361 Q411 -313 411 -249 Q411 -182 463 -133.5 Q515 -85 587 -85 Q673 -85 729 -144 Q785 -203 789 -299 Q795 -431 687 -503 Q639 -535 589.5 -550 Q540 -565 443 -577 Z " />
<glyph glyph-name="kgreenlandic" unicode="&#x138;" horiz-adv-x="1175" d="M1144 990 L792 615 L1202 0 L752 0 L545 362 L480 298 L480 0 L102 0 L102 990 L480 990 L480 855 Q480 818 475 686 Q513 744 547 785 L719 990 L1144 990 Z " />
<glyph glyph-name="Lacute" unicode="&#x139;" horiz-adv-x="1203" d="M1141 354 L1141 0 L116 0 L116 1365 L532 1365 L532 354 L1141 354 Z M768 1763 L427 1486 L175 1486 L365 1763 L768 1763 Z " />
<glyph glyph-name="lacute" unicode="&#x13a;" horiz-adv-x="583" d="M480 1365 L480 0 L102 0 L102 1365 L480 1365 Z M710 1763 L383 1486 L131 1486 L307 1763 L710 1763 Z " />
<glyph glyph-name="Lcommaaccent" unicode="&#x13b;" horiz-adv-x="1203" d="M1141 354 L1141 0 L116 0 L116 1365 L532 1365 L532 354 L1141 354 Z M464 -577 L464 -463 Q542 -459 590 -443 Q638 -427 642 -405 Q628 -409 613 -409 L604 -409 Q535 -409 483.5 -361 Q432 -313 432 -249 Q432 -182 484 -133.5 Q536 -85 608 -85 Q694 -85 750 -144 Q806 -203 810 -299 Q816 -432 708 -503 Q660 -535 610.5 -550 Q561 -565 464 -577 Z " />
<glyph glyph-name="lcommaaccent" unicode="&#x13c;" horiz-adv-x="583" d="M480 1365 L480 0 L102 0 L102 1365 L480 1365 Z M133 -577 L133 -463 Q211 -459 259 -443 Q307 -427 310 -405 Q297 -409 282 -409 L273 -409 Q204 -409 152.5 -361 Q101 -313 101 -249 Q101 -182 153 -133.5 Q205 -85 277 -85 Q363 -85 419 -144 Q475 -203 479 -299 Q485 -432 377 -503 Q329 -535 279.5 -550 Q230 -565 133 -577 Z " />
<glyph glyph-name="Lcaron" unicode="&#x13d;" horiz-adv-x="1203" d="M1141 354 L1141 0 L116 0 L116 1365 L532 1365 L532 354 L1141 354 Z M744 901 L744 1015 Q822 1019 870 1035 Q918 1051 922 1073 Q908 1069 893 1069 L884 1069 Q815 1069 763.5 1117 Q712 1165 712 1229 Q712 1296 764 1344.5 Q816 1393 888 1393 Q974 1393 1030 1334 Q1086 1275 1090 1179 Q1096 1046 988 975 Q940 943 890.5 927.5 Q841 912 744 901 Z " />
<glyph glyph-name="lcaron" unicode="&#x13e;" horiz-adv-x="1019" d="M480 1365 L480 0 L102 0 L102 1365 L480 1365 Z M626 911 L626 1025 Q704 1029 752 1045 Q800 1061 804 1083 Q790 1079 775 1079 L766 1079 Q697 1079 645.5 1127 Q594 1175 594 1239 Q594 1306 646 1354.5 Q698 1403 770 1403 Q856 1403 912 1344 Q968 1285 972 1189 Q978 1056 870 985 Q822 953 772.5 938 Q723 923 626 911 Z " />
<glyph glyph-name="Ldot" unicode="&#x13f;" horiz-adv-x="1203" d="M1141 354 L1141 0 L116 0 L116 1365 L532 1365 L532 354 L1141 354 Z M926 950 Q1007 950 1065.5 893 Q1124 836 1124 757 Q1124 677 1065.5 620 Q1007 563 926 563 Q843 563 785 620 Q727 677 727 759 Q727 837 785.5 893.5 Q844 950 926 950 Z " />
<glyph glyph-name="ldot" unicode="&#x140;" horiz-adv-x="1013" d="M480 1365 L480 0 L102 0 L102 1365 L480 1365 Z M798 882 Q880 882 938.5 825 Q997 768 997 689 Q997 609 938.5 552 Q880 495 798 495 Q716 495 658 552.5 Q600 610 600 691 Q600 769 658.5 825.5 Q717 882 798 882 Z " />
<glyph glyph-name="Lslash" unicode="&#x141;" horiz-adv-x="1203" d="M116 717 L116 1365 L532 1365 L532 921 L735 1060 L735 822 L532 682 L532 355 L1142 355 L1142 0 L116 0 L116 478 L7 402 L7 640 L116 717 Z " />
<glyph glyph-name="lslash" unicode="&#x142;" horiz-adv-x="638" d="M129 711 L129 1365 L507 1365 L507 900 L610 972 L610 756 L507 685 L507 0 L129 0 L129 495 L27 423 L27 639 L129 711 Z " />
<glyph glyph-name="Nacute" unicode="&#x143;" horiz-adv-x="1465" d="M1349 1365 L1349 0 L949 0 L608 581 L581 632 Q542 704 506 787 Q519 626 519 474 L519 0 L116 0 L116 1365 L529 1365 L825 853 Q918 693 960 597 Q956 657 954 709 Q946 898 946 911 L946 1365 L1349 1365 Z M1152 1763 L811 1486 L559 1486 L748 1763 L1152 1763 Z " />
<glyph glyph-name="nacute" unicode="&#x144;" horiz-adv-x="1234" d="M467 990 L467 868 Q517 929 562 958 Q656 1018 781 1018 Q898 1018 991 961 Q1072 911 1105 831 Q1138 751 1138 606 L1138 0 L760 0 L760 554 Q760 718 630 718 Q558 718 519 673 Q480 628 480 545 L480 0 L102 0 L102 990 L467 990 Z M985 1420 L685 1129 L467 1129 L622 1420 L985 1420 Z " />
<glyph glyph-name="Ncommaaccent" unicode="&#x145;" horiz-adv-x="1465" d="M1349 1365 L1349 0 L949 0 L608 581 L581 632 Q542 704 506 787 Q519 626 519 474 L519 0 L116 0 L116 1365 L529 1365 L825 853 Q918 693 960 597 Q956 657 954 709 Q946 898 946 911 L946 1365 L1349 1365 Z M575 -577 L575 -463 Q653 -459 701 -443 Q749 -427 753 -405 Q739 -409 724 -409 L715 -409 Q646 -409 594.5 -361 Q543 -313 543 -249 Q543 -182 595 -133.5 Q647 -85 719 -85 Q805 -85 861 -144 Q917 -203 921 -299 Q927 -432 819 -503 Q771 -535 721.5 -550 Q672 -565 575 -577 Z " />
<glyph glyph-name="ncommaaccent" unicode="&#x146;" horiz-adv-x="1234" d="M467 990 L467 868 Q517 929 562 958 Q656 1018 781 1018 Q898 1018 991 961 Q1072 911 1105 831 Q1138 751 1138 606 L1138 0 L760 0 L760 554 Q760 718 630 718 Q558 718 519 673 Q480 628 480 545 L480 0 L102 0 L102 990 L467 990 Z M466 -577 L466 -463 Q544 -459 592 -443 Q640 -427 643 -405 Q630 -409 615 -409 L606 -409 Q537 -409 485.5 -361 Q434 -313 434 -249 Q434 -182 486 -133.5 Q538 -85 609 -85 Q696 -85 752 -144 Q808 -203 812 -299 Q818 -432 710 -503 Q662 -535 612 -550 Q562 -565 466 -577 Z " />
<glyph glyph-name="Ncaron" unicode="&#x147;" horiz-adv-x="1465" d="M1349 1365 L1349 0 L949 0 L608 581 L581 632 Q542 704 506 787 Q519 626 519 474 L519 0 L116 0 L116 1365 L529 1365 L825 853 Q918 693 960 597 Q956 657 954 709 Q946 898 946 911 L946 1365 L1349 1365 Z M340 1763 L621 1763 L735 1618 L847 1763 L1125 1763 L897 1486 L564 1486 L340 1763 Z " />
<glyph glyph-name="ncaron" unicode="&#x148;" horiz-adv-x="1234" d="M467 990 L467 868 Q517 929 562 958 Q656 1018 781 1018 Q898 1018 991 961 Q1072 911 1105 831 Q1138 751 1138 606 L1138 0 L760 0 L760 554 Q760 718 630 718 Q558 718 519 673 Q480 628 480 545 L480 0 L102 0 L102 990 L467 990 Z M261 1420 L526 1420 L620 1275 L711 1420 L972 1420 L765 1129 L464 1129 L261 1420 Z " />
<glyph glyph-name="napostrophe" unicode="&#x149;" horiz-adv-x="1789" d="M144 783 Q226 796 275.5 846.5 Q325 897 331 975 Q316 970 301 970 L292 970 Q219 970 164 1026.5 Q109 1083 109 1159 Q109 1239 163.5 1297 Q218 1355 295 1355 Q390 1355 449.5 1280 Q509 1205 509 1085 Q509 889 402 760 Q352 700 298 670.5 Q244 641 144 619 L144 783 Z M1021 990 L1021 868 Q1071 929 1116 958 Q1211 1018 1336 1018 Q1453 1018 1546 961 Q1627 911 1660 831 Q1693 751 1693 606 L1693 0 L1315 0 L1315 554 Q1315 616 1300 652 Q1272 718 1184 718 Q1112 718 1073 673 Q1034 628 1034 545 L1034 0 L656 0 L656 990 L1021 990 Z " />
<glyph glyph-name="Eng" unicode="&#x14a;" horiz-adv-x="1462" d="M532 1365 L532 1220 Q595 1293 651 1328 Q767 1399 920 1399 Q1062 1399 1172 1331 Q1267 1272 1306.5 1176.5 Q1346 1081 1346 909 L1346 23 Q1346 -171 1250 -249 Q1201 -288 1126.5 -304.5 Q1052 -321 921 -321 Q857 -321 759 -317 L759 -18 Q781 -19 788 -19 Q860 -19 881.5 -13 Q903 -7 916 16 Q926 33 928 55 Q930 77 930 191 L930 848 Q930 927 908 973 Q869 1058 745 1058 Q643 1058 587.5 1000.5 Q532 943 532 837 L532 0 L116 0 L116 1365 L532 1365 Z " />
<glyph glyph-name="eng" unicode="&#x14b;" horiz-adv-x="1234" d="M467 990 L467 868 Q516 929 562 958 Q656 1018 781 1018 Q898 1018 991 961 Q1072 911 1105 831 Q1138 751 1138 606 L1138 23 Q1138 -171 1052 -248 Q1007 -288 939.5 -304.5 Q872 -321 750 -321 Q687 -321 589 -317 L589 -18 Q611 -19 618 -19 Q690 -19 711.5 -13 Q733 -7 746 16 Q756 33 758 55 Q760 77 760 191 L760 554 Q760 718 629 718 Q557 718 518.5 673 Q480 628 480 545 L480 0 L102 0 L102 990 L467 990 Z " />
<glyph glyph-name="Omacron" unicode="&#x14c;" horiz-adv-x="1502" d="M765 1399 Q1032 1399 1216 1237 Q1443 1037 1443 681 Q1443 383 1274 187 Q1082 -34 757 -34 Q418 -34 222 196 Q59 387 59 680 Q59 1028 269 1221 Q464 1399 765 1399 Z M758 1058 Q621 1058 551 954 Q481 851 481 686 Q481 486 570 384 Q637 307 756 307 Q1021 307 1021 699 Q1021 864 953 959 Q882 1058 758 1058 Z M1114 1712 L1114 1536 L386 1536 L386 1712 L1114 1712 Z " />
<glyph glyph-name="omacron" unicode="&#x14d;" horiz-adv-x="1180" d="M601 1017 Q830 1017 979 876 Q1133 730 1133 498 Q1133 271 986 125 Q835 -27 589 -27 Q343 -27 193 122 Q46 267 46 492 Q46 727 197 870 Q353 1017 601 1017 Z M589 744 Q426 744 426 493 Q426 246 590 246 Q753 246 753 496 Q753 609 722 666 Q679 744 589 744 Z M919 1356 L919 1192 L260 1192 L260 1356 L919 1356 Z " />
<glyph glyph-name="Obreve" unicode="&#x14e;" horiz-adv-x="1502" d="M1150 1782 Q1118 1482 791 1482 Q601 1482 508 1599 Q453 1670 446 1782 L616 1782 Q629 1732 654 1710 Q703 1666 805 1666 Q884 1666 921.5 1691 Q959 1716 980 1782 L1150 1782 Z M765 1399 Q1032 1399 1216 1237 Q1443 1037 1443 681 Q1443 383 1274 187 Q1082 -34 757 -34 Q418 -34 222 196 Q59 387 59 680 Q59 1028 269 1221 Q464 1399 765 1399 Z M758 1058 Q621 1058 551 954 Q481 851 481 686 Q481 486 570 384 Q637 307 756 307 Q1021 307 1021 699 Q1021 864 953 959 Q882 1058 758 1058 Z " />
<glyph glyph-name="obreve" unicode="&#x14f;" horiz-adv-x="1502" d="M283 1430 L442 1430 Q453 1379 476 1354 Q517 1309 609 1309 Q684 1309 722 1337 Q760 1365 774 1430 L933 1430 Q927 1321 878 1252 Q834 1189 770.5 1161.5 Q707 1134 608 1134 Q510 1134 446.5 1161.5 Q383 1189 339 1252 Q290 1321 283 1430 Z M601 1017 Q830 1017 979 876 Q1133 730 1133 498 Q1133 271 986 125 Q835 -27 589 -27 Q343 -27 193 122 Q46 267 46 492 Q46 727 197 870 Q353 1017 601 1017 Z M589 744 Q426 744 426 493 Q426 246 590 246 Q753 246 753 496 Q753 609 722 666 Q679 744 589 744 Z " />
<glyph glyph-name="Ohungarumlaut" unicode="&#x150;" horiz-adv-x="1502" d="M765 1399 Q1032 1399 1216 1237 Q1443 1037 1443 681 Q1443 383 1274 187 Q1082 -34 757 -34 Q418 -34 222 196 Q59 387 59 680 Q59 1028 269 1221 Q464 1399 765 1399 Z M758 1058 Q621 1058 551 954 Q481 851 481 686 Q481 486 570 384 Q637 307 756 307 Q1021 307 1021 699 Q1021 864 953 959 Q882 1058 758 1058 Z M1317 1763 L1044 1486 L847 1486 L982 1763 L1317 1763 Z M901 1763 L628 1486 L431 1486 L566 1763 L901 1763 Z " />
<glyph glyph-name="ohungarumlaut" unicode="&#x151;" horiz-adv-x="1180" d="M601 1017 Q830 1017 979 876 Q1133 730 1133 498 Q1133 271 986 125 Q835 -27 589 -27 Q343 -27 193 122 Q46 267 46 492 Q46 727 197 870 Q353 1017 601 1017 Z M589 744 Q426 744 426 493 Q426 246 590 246 Q753 246 753 496 Q753 609 722 666 Q679 744 589 744 Z M684 1420 L480 1129 L290 1129 L390 1420 L684 1420 Z M1053 1420 L848 1129 L658 1129 L759 1420 L1053 1420 Z " />
<glyph glyph-name="OE" unicode="&#x152;" horiz-adv-x="2145" d="M2052 1365 L2052 1033 L1404 1033 L1404 864 L1995 864 L1995 546 L1404 546 L1404 345 L2070 345 L2070 0 L1013 0 L1014 67 Q909 -30 708 -30 Q413 -30 227 186 Q59 382 59 673 Q59 990 250 1194 Q437 1395 716 1395 Q918 1395 1014 1288 L1013 1365 L2052 1365 Z M1013 670 L1013 705 Q1013 861 948 953 Q877 1054 754 1054 Q628 1054 554.5 955 Q481 856 481 685 Q481 514 553.5 412.5 Q626 311 749 311 Q881 311 950 418 Q1013 517 1013 670 Z " />
<glyph glyph-name="oe" unicode="&#x153;" horiz-adv-x="1852" d="M1797 311 Q1750 178 1654 96 Q1578 31 1490 2 Q1402 -27 1281 -27 Q1159 -27 1082 0 Q1005 27 921 100 Q796 -27 573 -27 Q315 -27 174 133 Q46 278 46 493 Q46 745 223 896 Q366 1017 601 1017 Q827 1017 935 891 Q1009 958 1091 987.5 Q1173 1017 1284 1017 Q1440 1017 1562 943 Q1687 867 1745 741 Q1803 615 1805 414 L1082 414 Q1100 216 1275 216 Q1331 216 1365 236 Q1399 256 1437 311 L1797 311 Z M1433 604 Q1414 774 1264 774 Q1104 774 1080 604 L1433 604 Z M600 745 Q517 745 471.5 681 Q426 617 426 498 Q426 246 590 246 Q756 246 756 501 Q756 595 737 649 Q721 693 684 719 Q647 745 600 745 Z " />
<glyph glyph-name="Racute" unicode="&#x154;" horiz-adv-x="1453" d="M116 1365 L812 1365 Q934 1365 1009.5 1350.5 Q1085 1336 1147 1300 Q1238 1247 1288 1158.5 Q1338 1070 1338 962 Q1338 852 1283 761.5 Q1228 671 1136 630 Q1217 602 1268 525 Q1302 473 1316 408 Q1330 343 1349 148 Q1359 40 1377 12 L1384 0 L969 0 Q957 30 953.5 53 Q950 76 938 206 Q928 308 915 351.5 Q902 395 871 427 Q821 481 707 481 L532 481 L532 0 L116 0 L116 1365 Z M532 1047 L532 770 L759 770 Q935 770 935 911 Q935 1047 736 1047 L532 1047 Z M1077 1763 L736 1486 L485 1486 L674 1763 L1077 1763 Z " />
<glyph glyph-name="racute" unicode="&#x155;" horiz-adv-x="857" d="M857 1002 L857 668 Q775 696 717 696 Q585 696 519 603 Q480 548 480 448 L480 0 L102 0 L102 990 L467 990 L467 836 Q558 1016 750 1016 Q793 1016 857 1002 Z M817 1420 L517 1129 L299 1129 L454 1420 L817 1420 Z " />
<glyph glyph-name="Rcommaaccent" unicode="&#x156;" horiz-adv-x="1453" d="M116 1365 L812 1365 Q934 1365 1009.5 1350.5 Q1085 1336 1147 1300 Q1238 1247 1288 1158.5 Q1338 1070 1338 962 Q1338 852 1283 761.5 Q1228 671 1136 630 Q1217 602 1268 525 Q1302 473 1316 408 Q1330 343 1349 148 Q1359 40 1377 12 L1384 0 L969 0 Q957 30 953.5 53 Q950 76 938 206 Q928 308 915 351.5 Q902 395 871 427 Q821 481 707 481 L532 481 L532 0 L116 0 L116 1365 Z M532 1047 L532 770 L759 770 Q935 770 935 911 Q935 1047 736 1047 L532 1047 Z M582 -577 L582 -463 Q660 -459 708 -443 Q756 -427 759 -405 Q746 -409 731 -409 L722 -409 Q653 -409 601.5 -361 Q550 -313 550 -249 Q550 -182 602 -133.5 Q654 -85 726 -85 Q812 -85 868 -144 Q924 -203 928 -299 Q934 -432 826 -503 Q778 -535 728 -550 Q678 -565 582 -577 Z " />
<glyph glyph-name="rcommaaccent" unicode="&#x157;" horiz-adv-x="857" d="M857 1002 L857 668 Q775 696 717 696 Q585 696 519 603 Q480 548 480 448 L480 0 L102 0 L102 990 L467 990 L467 836 Q557 1016 750 1016 Q793 1016 857 1002 Z M133 -577 L133 -463 Q211 -459 259 -443 Q307 -427 310 -405 Q297 -409 282 -409 L273 -409 Q204 -409 152.5 -361 Q101 -313 101 -249 Q101 -182 153 -133.5 Q205 -85 277 -85 Q363 -85 419 -144 Q475 -203 479 -299 Q485 -432 377 -503 Q329 -535 279.5 -550 Q230 -565 133 -577 Z " />
<glyph glyph-name="Rcaron" unicode="&#x158;" horiz-adv-x="1453" d="M116 1365 L812 1365 Q934 1365 1009.5 1350.5 Q1085 1336 1147 1300 Q1238 1247 1288 1158.5 Q1338 1070 1338 962 Q1338 852 1283 761.5 Q1228 671 1136 630 Q1217 602 1268 525 Q1302 473 1316 408 Q1330 343 1349 148 Q1359 40 1377 12 L1384 0 L969 0 Q957 30 953.5 53 Q950 76 938 206 Q928 308 915 351.5 Q902 395 871 427 Q821 481 707 481 L532 481 L532 0 L116 0 L116 1365 Z M532 1047 L532 770 L759 770 Q935 770 935 911 Q935 1047 736 1047 L532 1047 Z M279 1763 L561 1763 L675 1618 L786 1763 L1064 1763 L836 1486 L503 1486 L279 1763 Z " />
<glyph glyph-name="rcaron" unicode="&#x159;" horiz-adv-x="857" d="M857 1002 L857 668 Q775 696 717 696 Q585 696 519 603 Q480 548 480 448 L480 0 L102 0 L102 990 L467 990 L467 836 Q558 1016 750 1016 Q793 1016 857 1002 Z M114 1420 L379 1420 L472 1275 L563 1420 L825 1420 L617 1129 L317 1129 L114 1420 Z " />
<glyph glyph-name="Sacute" unicode="&#x15a;" horiz-adv-x="1294" d="M1186 952 L793 952 Q792 1013 746 1047.5 Q700 1082 620 1082 Q555 1082 518.5 1060 Q482 1038 482 999 Q482 958 518.5 941 Q555 924 773 865 Q983 808 1074 747 Q1242 635 1242 435 Q1242 325 1195.5 233 Q1149 141 1062 81 Q903 -30 646 -30 Q400 -30 247 63 Q30 195 26 461 L445 461 Q449 405 464 373.5 Q479 342 513 319 Q566 283 660 283 Q740 283 785 313.5 Q830 344 830 398 Q830 440 782.5 465.5 Q735 491 556 545 Q382 597 307 629.5 Q232 662 182 707 Q79 799 79 967 Q79 1182 265 1300 Q415 1395 633 1395 Q893 1395 1038.5 1278.5 Q1184 1162 1186 952 Z M1025 1763 L684 1486 L433 1486 L622 1763 L1025 1763 Z " />
<glyph glyph-name="sacute" unicode="&#x15b;" horiz-adv-x="1068" d="M992 699 L648 699 Q639 752 610.5 772 Q582 792 516 792 Q412 792 412 731 Q412 696 450.5 679.5 Q489 663 630 637 Q815 604 906 548 Q1020 478 1020 321 Q1020 164 898 73 Q764 -27 522 -27 Q249 -27 119 99 Q71 144 49 196 Q27 248 20 329 L379 329 Q386 267 421 239.5 Q456 212 528 212 Q648 212 648 292 Q648 328 617 343.5 Q586 359 454 387 Q330 413 270.5 431.5 Q211 450 164 477 Q106 511 73 570.5 Q40 630 40 703 Q40 857 165 938 Q221 975 314 996 Q407 1017 511 1017 Q745 1017 863 939 Q981 861 992 699 Z M874 1420 L574 1129 L357 1129 L512 1420 L874 1420 Z " />
<glyph glyph-name="Scircumflex" unicode="&#x15c;" horiz-adv-x="1294" d="M1186 952 L793 952 Q792 1013 746 1047.5 Q700 1082 620 1082 Q555 1082 518.5 1060 Q482 1038 482 999 Q482 958 518.5 941 Q555 924 773 865 Q983 808 1074 747 Q1242 635 1242 435 Q1242 325 1195.5 233 Q1149 141 1062 81 Q903 -30 646 -30 Q400 -30 247 63 Q30 195 26 461 L445 461 Q449 405 464 373.5 Q479 342 513 319 Q566 283 660 283 Q740 283 785 313.5 Q830 344 830 398 Q830 440 782.5 465.5 Q735 491 556 545 Q382 597 307 629.5 Q232 662 182 707 Q79 799 79 967 Q79 1182 265 1300 Q415 1395 633 1395 Q893 1395 1038.5 1278.5 Q1184 1162 1186 952 Z M1019 1486 L738 1486 L624 1631 L512 1486 L234 1486 L462 1763 L796 1763 L1019 1486 Z " />
<glyph glyph-name="scircumflex" unicode="&#x15d;" horiz-adv-x="1068" d="M992 699 L648 699 Q639 752 610.5 772 Q582 792 516 792 Q412 792 412 731 Q412 696 450.5 679.5 Q489 663 630 637 Q815 604 906 548 Q1020 478 1020 321 Q1020 164 898 73 Q764 -27 522 -27 Q249 -27 119 99 Q71 144 49 196 Q27 248 20 329 L379 329 Q386 267 421 239.5 Q456 212 528 212 Q648 212 648 292 Q648 328 617 343.5 Q586 359 454 387 Q330 413 270.5 431.5 Q211 450 164 477 Q106 511 73 570.5 Q40 630 40 703 Q40 857 165 938 Q221 975 314 996 Q407 1017 511 1017 Q745 1017 863 939 Q981 861 992 699 Z M862 1129 L597 1129 L503 1274 L412 1129 L151 1129 L358 1420 L659 1420 L862 1129 Z " />
<glyph glyph-name="Scedilla" unicode="&#x15e;" horiz-adv-x="1294" d="M678 -29 L620 -124 Q672 -111 704 -111 Q779 -111 828 -151 Q877 -191 877 -252 Q877 -346 800 -392 Q734 -432 630 -432 Q515 -432 384 -382 L427 -291 Q526 -330 598 -330 Q638 -330 663 -311.5 Q688 -293 688 -263 Q688 -234 662 -214.5 Q636 -195 596 -195 Q567 -195 532 -212 L483 -168 L567 -27 Q310 -4 174 117 Q29 246 26 461 L445 461 Q449 405 464 373.5 Q479 342 513 319 Q566 283 660 283 Q740 283 785 313.5 Q830 344 830 398 Q830 440 782.5 465.5 Q735 491 556 545 Q382 597 307 629.5 Q232 662 182 707 Q79 799 79 967 Q79 1182 265 1300 Q415 1395 633 1395 Q893 1395 1038.5 1278.5 Q1184 1162 1186 952 L793 952 Q792 1013 746 1047.5 Q700 1082 620 1082 Q555 1082 518.5 1060 Q482 1038 482 999 Q482 958 518.5 941 Q555 924 773 865 Q982 809 1074 747 Q1242 635 1242 435 Q1242 226 1094 104.5 Q946 -17 678 -29 Z " />
<glyph glyph-name="scedilla" unicode="&#x15f;" horiz-adv-x="1068" d="M549 -26 L495 -120 Q547 -109 578 -109 Q655 -109 704.5 -150 Q754 -191 754 -253 Q754 -333 688.5 -382.5 Q623 -432 518 -432 Q391 -432 262 -381 L301 -291 Q411 -330 469 -330 Q513 -330 539 -311.5 Q565 -293 565 -262 Q565 -231 541 -211.5 Q517 -192 480 -192 Q452 -192 411 -210 L362 -168 L447 -25 Q293 -11 194 43 Q31 137 20 329 L379 329 Q386 267 421 239.5 Q456 212 528 212 Q648 212 648 292 Q648 328 617 343.5 Q586 359 454 387 Q329 414 270 432 Q211 450 164 477 Q106 511 73 570.5 Q40 630 40 703 Q40 857 165 938 Q221 975 314 996 Q407 1017 511 1017 Q745 1017 863 939 Q981 861 992 699 L648 699 Q639 752 610.5 772 Q582 792 516 792 Q412 792 412 731 Q412 696 450.5 679.5 Q489 663 630 637 Q815 604 906 548 Q1020 478 1020 320 Q1020 109 802 19 Q702 -22 549 -26 Z " />
<glyph glyph-name="Scaron" unicode="&#x160;" horiz-adv-x="1294" d="M1186 952 L793 952 Q792 1013 746 1047.5 Q700 1082 620 1082 Q555 1082 518.5 1060 Q482 1038 482 999 Q482 958 518.5 941 Q555 924 773 865 Q983 808 1074 747 Q1242 635 1242 435 Q1242 325 1195.5 233 Q1149 141 1062 81 Q903 -30 646 -30 Q400 -30 247 63 Q30 195 26 461 L445 461 Q449 405 464 373.5 Q479 342 513 319 Q566 283 660 283 Q740 283 785 313.5 Q830 344 830 398 Q830 440 782.5 465.5 Q735 491 556 545 Q382 597 307 629.5 Q232 662 182 707 Q79 799 79 967 Q79 1182 265 1300 Q415 1395 633 1395 Q893 1395 1038.5 1278.5 Q1184 1162 1186 952 Z M228 1763 L509 1763 L623 1618 L734 1763 L1012 1763 L784 1486 L451 1486 L228 1763 Z " />
<glyph glyph-name="scaron" unicode="&#x161;" horiz-adv-x="1068" d="M992 699 L648 699 Q639 752 610.5 772 Q582 792 516 792 Q412 792 412 731 Q412 696 450.5 679.5 Q489 663 630 637 Q815 604 906 548 Q1020 478 1020 321 Q1020 164 898 73 Q764 -27 522 -27 Q249 -27 119 99 Q71 144 49 196 Q27 248 20 329 L379 329 Q386 267 421 239.5 Q456 212 528 212 Q648 212 648 292 Q648 328 617 343.5 Q586 359 454 387 Q330 413 270.5 431.5 Q211 450 164 477 Q106 511 73 570.5 Q40 630 40 703 Q40 857 165 938 Q221 975 314 996 Q407 1017 511 1017 Q745 1017 863 939 Q981 861 992 699 Z M157 1420 L422 1420 L516 1275 L607 1420 L869 1420 L661 1129 L360 1129 L157 1420 Z " />
<glyph glyph-name="Tcommaaccent" unicode="&#x162;" horiz-adv-x="1251" d="M1216 1365 L1216 1011 L834 1011 L834 0 L418 0 L418 1011 L34 1011 L34 1365 L1216 1365 Z M467 -577 L467 -463 Q545 -459 593 -443 Q641 -427 644 -405 Q631 -409 616 -409 L607 -409 Q538 -409 486.5 -361 Q435 -313 435 -249 Q435 -182 487 -133.5 Q539 -85 611 -85 Q697 -85 753 -144 Q809 -203 813 -299 Q819 -432 711 -503 Q663 -535 613.5 -550 Q564 -565 467 -577 Z " />
<glyph glyph-name="tcommaaccent" unicode="&#x163;" horiz-adv-x="765" d="M729 990 L729 755 L524 755 L524 401 Q524 325 538 303 Q561 266 651 266 Q662 266 729 268 L729 -6 Q620 -14 531 -14 Q381 -14 308 15 Q217 52 181.5 121 Q146 190 146 330 L146 755 L-18 755 L-18 990 L146 990 L146 1294 L524 1294 L524 990 L729 990 Z M279 -577 L279 -463 Q357 -459 405 -443 Q453 -427 456 -405 Q443 -409 428 -409 L419 -409 Q350 -409 298.5 -361 Q247 -313 247 -249 Q247 -182 299 -133.5 Q351 -85 423 -85 Q509 -85 564.5 -144 Q620 -203 625 -299 Q631 -432 523 -503 Q475 -535 425 -550 Q375 -565 279 -577 Z " />
<glyph glyph-name="Tcaron" unicode="&#x164;" horiz-adv-x="1251" d="M1216 1365 L1216 1011 L834 1011 L834 0 L418 0 L418 1011 L34 1011 L34 1365 L1216 1365 Z M233 1763 L514 1763 L628 1618 L740 1763 L1018 1763 L790 1486 L456 1486 L233 1763 Z " />
<glyph glyph-name="tcaron" unicode="&#x165;" horiz-adv-x="1062" d="M729 990 L729 755 L524 755 L524 401 Q524 325 538 303 Q561 266 651 266 Q662 266 729 268 L729 -6 Q620 -14 531 -14 Q381 -14 308 15 Q217 52 181.5 121 Q146 190 146 330 L146 755 L-18 755 L-18 990 L146 990 L146 1294 L524 1294 L524 990 L729 990 Z M669 1051 L669 1165 Q747 1170 795 1185.5 Q843 1201 847 1223 Q833 1220 818 1220 L809 1220 Q740 1220 688.5 1268 Q637 1316 637 1380 Q637 1447 689 1495.5 Q741 1544 813 1544 Q899 1544 955 1485 Q1011 1426 1015 1330 Q1021 1197 913 1125 Q865 1093 815.5 1078 Q766 1063 669 1051 Z " />
<glyph glyph-name="Tbar" unicode="&#x166;" horiz-adv-x="1251" d="M1216 1365 L1216 1011 L834 1011 L834 792 L1107 792 L1107 582 L834 582 L834 0 L418 0 L418 582 L145 582 L145 792 L418 792 L418 1011 L34 1011 L34 1365 L1216 1365 Z " />
<glyph glyph-name="tbar" unicode="&#x167;" horiz-adv-x="765" d="M729 990 L729 769 L524 769 L524 615 L710 615 L710 438 L524 438 L524 401 Q524 326 538 303 Q561 266 651 266 Q673 266 729 268 L729 -6 Q620 -14 531 -14 Q381 -14 308 15 Q217 52 181.5 121.5 Q146 191 146 330 L146 436 L2 436 L2 615 L146 615 L146 769 L-18 769 L-18 990 L146 990 L146 1294 L524 1294 L524 990 L729 990 Z " />
<glyph glyph-name="Utilde" unicode="&#x168;" horiz-adv-x="1434" d="M1338 1365 L1338 554 Q1338 377 1297 272 Q1175 -34 716 -34 Q349 -34 195 167 Q140 239 118 326 Q96 413 96 558 L96 1365 L512 1365 L512 525 Q512 420 554 371 Q608 307 725 307 Q922 307 922 525 L922 1365 L1338 1365 Z M1095 1760 Q1059 1495 846 1495 Q803 1495 769.5 1504 Q736 1513 653 1546 Q606 1565 573 1565 Q503 1565 489 1485 L339 1485 Q354 1609 423 1685.5 Q492 1762 590 1762 Q631 1762 664 1752.5 Q697 1743 788 1705 Q828 1688 860 1688 Q934 1688 947 1760 L1095 1760 Z " />
<glyph glyph-name="utilde" unicode="&#x169;" horiz-adv-x="1229" d="M1127 990 L1127 0 L762 0 L762 126 Q658 -27 456 -27 Q262 -27 164 102 Q127 150 111.5 213.5 Q96 277 96 379 L96 990 L474 990 L474 480 Q474 401 477.5 374 Q481 347 495 325 Q528 273 604 273 Q684 273 716.5 321 Q749 369 749 487 L749 990 L1127 990 Z M965 1414 Q923 1164 739 1164 Q699 1164 670.5 1172 Q642 1180 563 1214 Q520 1232 490 1232 Q442 1232 418 1154 L278 1154 Q297 1276 357.5 1345.5 Q418 1415 506 1415 Q544 1415 573.5 1406 Q603 1397 686 1359 Q721 1343 752 1343 Q779 1343 795 1358 Q811 1373 827 1414 L965 1414 Z " />
<glyph glyph-name="Umacron" unicode="&#x16a;" horiz-adv-x="1434" d="M1338 1365 L1338 554 Q1338 377 1297 272 Q1175 -34 716 -34 Q349 -34 195 167 Q140 239 118 326 Q96 413 96 558 L96 1365 L512 1365 L512 525 Q512 420 554 371 Q608 307 725 307 Q922 307 922 525 L922 1365 L1338 1365 Z M1080 1712 L1080 1536 L352 1536 L352 1712 L1080 1712 Z " />
<glyph glyph-name="umacron" unicode="&#x16b;" horiz-adv-x="1229" d="M1127 990 L1127 0 L762 0 L762 126 Q658 -27 456 -27 Q262 -27 164 102 Q127 150 111.5 213.5 Q96 277 96 379 L96 990 L474 990 L474 480 Q474 401 477.5 374 Q481 347 495 325 Q528 273 604 273 Q684 273 716.5 321 Q749 369 749 487 L749 990 L1127 990 Z M938 1356 L938 1192 L279 1192 L279 1356 L938 1356 Z " />
<glyph glyph-name="Ubreve" unicode="&#x16c;" horiz-adv-x="1434" d="M1338 1365 L1338 554 Q1338 377 1297 272 Q1175 -34 716 -34 Q349 -34 195 167 Q140 239 118 326 Q96 413 96 558 L96 1365 L512 1365 L512 525 Q512 420 554 371 Q608 307 725 307 Q922 307 922 525 L922 1365 L1338 1365 Z M1069 1782 Q1037 1482 710 1482 Q520 1482 427 1599 Q372 1670 365 1782 L535 1782 Q548 1732 573 1710 Q622 1666 724 1666 Q803 1666 840.5 1691 Q878 1716 899 1782 L1069 1782 Z " />
<glyph glyph-name="ubreve" unicode="&#x16d;" horiz-adv-x="1229" d="M1127 990 L1127 0 L762 0 L762 126 Q658 -27 456 -27 Q262 -27 164 102 Q127 150 111.5 213.5 Q96 277 96 379 L96 990 L474 990 L474 480 Q474 401 477.5 374 Q481 347 495 325 Q528 273 604 273 Q684 273 716.5 321 Q749 369 749 487 L749 990 L1127 990 Z M283 1430 L442 1430 Q453 1379 475 1354 Q517 1309 608 1309 Q683 1309 721.5 1337 Q760 1365 774 1430 L933 1430 Q926 1321 877 1252 Q833 1189 770 1161.5 Q707 1134 608 1134 Q509 1134 445.5 1161.5 Q382 1189 338 1252 Q290 1321 283 1430 Z " />
<glyph glyph-name="Uring" unicode="&#x16e;" horiz-adv-x="1434" d="M1338 1365 L1338 554 Q1338 377 1297 272 Q1175 -34 716 -34 Q349 -34 195 167 Q140 239 118 326 Q96 413 96 558 L96 1365 L512 1365 L512 525 Q512 420 554 371 Q608 307 725 307 Q922 307 922 525 L922 1365 L1338 1365 Z M721 1882 Q834 1882 913 1811 Q983 1748 983 1665 Q983 1568 894 1502 Q819 1447 717 1447 Q599 1447 521 1518 Q451 1581 451 1666 Q451 1762 540 1827 Q615 1882 721 1882 Z M719 1767 Q675 1767 644.5 1737.5 Q614 1708 614 1665 Q614 1622 644 1592 Q674 1562 717 1562 Q759 1562 789.5 1592 Q820 1622 820 1664 Q820 1706 790 1736.5 Q760 1767 719 1767 Z " />
<glyph glyph-name="uring" unicode="&#x16f;" horiz-adv-x="1229" d="M1127 990 L1127 0 L762 0 L762 126 Q658 -27 456 -27 Q262 -27 164 102 Q127 150 111.5 213.5 Q96 277 96 379 L96 990 L474 990 L474 480 Q474 401 477.5 374 Q481 347 495 325 Q528 273 604 273 Q684 273 716.5 321 Q749 369 749 487 L749 990 L1127 990 Z M615 1504 Q725 1504 801 1435 Q869 1374 869 1293 Q869 1199 782 1135 Q710 1082 611 1082 Q497 1082 420 1151 Q353 1212 353 1294 Q353 1387 440 1451 Q511 1504 615 1504 Z M613 1395 Q570 1395 539.5 1365.5 Q509 1336 509 1294 Q509 1251 539 1221 Q569 1191 612 1191 Q654 1191 684 1221 Q714 1251 714 1293 Q714 1335 684 1365 Q654 1395 613 1395 Z " />
<glyph glyph-name="Uhungarumlaut" unicode="&#x170;" horiz-adv-x="1434" d="M1338 1365 L1338 554 Q1338 377 1297 272 Q1175 -34 716 -34 Q349 -34 195 167 Q140 239 118 326 Q96 413 96 558 L96 1365 L512 1365 L512 525 Q512 420 554 371 Q608 307 725 307 Q922 307 922 525 L922 1365 L1338 1365 Z M1256 1763 L983 1486 L786 1486 L921 1763 L1256 1763 Z M839 1763 L567 1486 L370 1486 L504 1763 L839 1763 Z " />
<glyph glyph-name="uhungarumlaut" unicode="&#x171;" horiz-adv-x="1229" d="M1127 990 L1127 0 L762 0 L762 126 Q658 -27 456 -27 Q262 -27 164 102 Q127 150 111.5 213.5 Q96 277 96 379 L96 990 L474 990 L474 480 Q474 401 477.5 374 Q481 347 495 325 Q528 273 604 273 Q684 273 716.5 321 Q749 369 749 487 L749 990 L1127 990 Z M696 1420 L492 1129 L301 1129 L402 1420 L696 1420 Z M1065 1420 L860 1129 L670 1129 L771 1420 L1065 1420 Z " />
<glyph glyph-name="Uogonek" unicode="&#x172;" horiz-adv-x="1434" d="M96 1365 L512 1365 L512 525 Q512 420 554 371 Q608 307 725 307 Q922 307 922 525 L922 1365 L1338 1365 L1338 554 Q1338 433 1322 356.5 Q1306 280 1267 210 Q1233 152 1199 120.5 Q1165 89 1060 20 Q942 -57 942 -153 Q942 -192 975 -214.5 Q1008 -237 1063 -237 Q1083 -237 1121 -228 L1121 -363 Q1049 -384 994 -384 Q890 -384 826 -332.5 Q762 -281 762 -199 Q762 -88 866 -23 Q782 -34 711 -34 Q349 -34 195 167 Q140 239 118 326 Q96 413 96 558 L96 1365 Z " />
<glyph glyph-name="uogonek" unicode="&#x173;" horiz-adv-x="1229" d="M96 990 L474 990 L474 480 Q474 401 477.5 374 Q481 347 495 325 Q528 273 604 273 Q684 273 716.5 321 Q749 369 749 487 L749 990 L1127 990 L1127 0 Q1080 -9 1048 -35 Q982 -89 982 -165 Q982 -204 1014.5 -227 Q1047 -250 1103 -250 Q1123 -250 1161 -242 L1161 -377 Q1090 -397 1034 -397 Q931 -397 866.5 -346 Q802 -295 802 -213 Q802 -88 942 0 L762 0 L762 126 Q658 -27 456 -27 Q262 -27 164 102 Q127 150 111.5 213.5 Q96 277 96 379 L96 990 Z " />
<glyph glyph-name="Wcircumflex" unicode="&#x174;" horiz-adv-x="1837" d="M1850 1365 L1476 0 L1068 0 L1004 333 Q948 617 915 887 Q900 735 889 660 Q878 585 833 338 L773 0 L360 0 L-14 1365 L398 1365 L467 1056 Q543 715 567 401 Q592 677 668 1047 L733 1365 L1103 1365 L1158 1093 Q1210 835 1232 693.5 Q1254 552 1266 401 Q1291 693 1384 1120 L1437 1365 L1850 1365 Z M1311 1486 L1029 1486 L916 1631 L804 1486 L526 1486 L754 1763 L1087 1763 L1311 1486 Z " />
<glyph glyph-name="wcircumflex" unicode="&#x175;" horiz-adv-x="1649" d="M1670 990 L1358 0 L971 0 L888 324 Q848 481 824 680 Q796 475 759 324 L681 0 L293 0 L-20 990 L373 990 L445 712 Q488 545 518 321 Q554 554 592 728 L649 990 L1003 990 L1067 701 Q1110 505 1135 324 Q1163 526 1205 694 L1279 990 L1670 990 Z M1146 1129 L881 1129 L788 1274 L697 1129 L435 1129 L643 1420 L943 1420 L1146 1129 Z " />
<glyph glyph-name="Ycircumflex" unicode="&#x176;" horiz-adv-x="1279" d="M1333 1365 L846 494 L846 0 L430 0 L430 502 L-55 1365 L408 1365 L510 1148 Q603 951 639 848 Q688 984 783 1178 L875 1365 L1333 1365 Z M1032 1486 L750 1486 L636 1631 L525 1486 L247 1486 L475 1763 L808 1763 L1032 1486 Z " />
<glyph glyph-name="ycircumflex" unicode="&#x177;" horiz-adv-x="1074" d="M1095 990 L733 -23 Q692 -137 646 -196.5 Q600 -256 528 -288 Q484 -308 438 -313.5 Q392 -319 277 -319 L80 -319 L80 -18 Q135 -19 165 -19 Q244 -19 272 -6 Q314 13 314 62 Q314 82 303 111 L-20 990 L383 990 L494 599 Q521 505 543 368 Q574 532 596 610 L706 990 L1095 990 Z M893 1129 L628 1129 L535 1274 L444 1129 L182 1129 L389 1420 L690 1420 L893 1129 Z " />
<glyph glyph-name="Ydieresis" unicode="&#x178;" horiz-adv-x="1279" d="M1333 1365 L846 494 L846 0 L430 0 L430 502 L-55 1365 L408 1365 L510 1148 Q603 951 639 848 Q688 984 783 1178 L875 1365 L1333 1365 Z M859 1836 Q941 1836 999.5 1779 Q1058 1722 1058 1643 Q1058 1563 999.5 1506 Q941 1449 859 1449 Q777 1449 719 1506 Q661 1563 661 1645 Q661 1723 719.5 1779.5 Q778 1836 859 1836 Z M419 1836 Q501 1836 559.5 1779 Q618 1722 618 1643 Q618 1563 559.5 1506 Q501 1449 419 1449 Q337 1449 279 1506 Q221 1563 221 1645 Q221 1723 279.5 1779.5 Q338 1836 419 1836 Z " />
<glyph glyph-name="Zacute" unicode="&#x179;" horiz-adv-x="1301" d="M1234 1365 L1234 1055 L789 571 Q705 480 570 345 L866 354 L1260 354 L1260 0 L41 0 L41 333 L517 851 Q588 928 687 1019 Q472 1012 436 1012 L75 1011 L75 1365 L1234 1365 Z M1056 1763 L715 1486 L464 1486 L653 1763 L1056 1763 Z " />
<glyph glyph-name="zacute" unicode="&#x17a;" horiz-adv-x="1054" d="M991 990 L991 702 L710 441 Q644 380 517 279 Q625 287 684 287 L1034 287 L1034 0 L48 0 L48 289 L322 534 Q427 628 530 708 Q453 703 408 703 L89 703 L89 990 L991 990 Z M895 1420 L595 1129 L378 1129 L533 1420 L895 1420 Z " />
<glyph glyph-name="Zdotaccent" unicode="&#x17b;" horiz-adv-x="1301" d="M1234 1365 L1234 1055 L789 571 Q705 480 570 345 L866 354 L1260 354 L1260 0 L41 0 L41 333 L517 851 Q588 928 687 1019 Q472 1012 436 1012 L75 1011 L75 1365 L1234 1365 Z M657 1836 Q739 1836 797.5 1779 Q856 1722 856 1643 Q856 1563 797.5 1506 Q739 1449 657 1449 Q575 1449 517 1506 Q459 1563 459 1645 Q459 1723 517.5 1779.5 Q576 1836 657 1836 Z " />
<glyph glyph-name="zdotaccent" unicode="&#x17c;" horiz-adv-x="1054" d="M991 990 L991 702 L710 441 Q644 380 517 279 Q625 287 684 287 L1034 287 L1034 0 L48 0 L48 289 L322 534 Q427 628 530 708 Q453 703 408 703 L89 703 L89 990 L991 990 Z M542 1466 Q623 1466 681.5 1409 Q740 1352 740 1273 Q740 1193 681.5 1136 Q623 1079 542 1079 Q459 1079 401 1136 Q343 1193 343 1275 Q343 1353 401.5 1409.5 Q460 1466 542 1466 Z " />
<glyph glyph-name="Zcaron" unicode="&#x17d;" horiz-adv-x="1301" d="M1234 1365 L1234 1055 L789 571 Q705 480 570 345 L866 354 L1260 354 L1260 0 L41 0 L41 333 L517 851 Q588 928 687 1019 Q472 1012 436 1012 L75 1011 L75 1365 L1234 1365 Z M265 1763 L546 1763 L660 1618 L772 1763 L1050 1763 L822 1486 L489 1486 L265 1763 Z " />
<glyph glyph-name="zcaron" unicode="&#x17e;" horiz-adv-x="1054" d="M991 990 L991 702 L710 441 Q644 380 517 279 Q625 287 684 287 L1034 287 L1034 0 L48 0 L48 289 L322 534 Q427 628 530 708 Q453 703 408 703 L89 703 L89 990 L991 990 Z M185 1420 L450 1420 L544 1275 L635 1420 L897 1420 L689 1129 L388 1129 L185 1420 Z " />
<glyph glyph-name="longs" unicode="&#x17f;" horiz-adv-x="739" d="M725 1367 L725 1108 Q676 1111 645 1111 Q566 1111 541.5 1097.5 Q517 1084 518 1039 L524 0 L146 0 L146 755 L-10 755 L-10 990 L146 990 L146 1035 Q146 1211 243 1293 Q294 1336 368 1354 Q442 1372 566 1372 Q635 1372 725 1367 Z " />
<glyph glyph-name="uni018F" unicode="&#x18f;" horiz-adv-x="1560" d="M100 835 L1047 835 Q1028 919 1000 958 Q923 1069 785 1069 Q715 1069 666 1043 Q617 1017 550 945 L206 1113 Q303 1240 410 1300 Q566 1388 787 1388 Q1109 1388 1293 1205 Q1474 1025 1474 682 Q1474 348 1298 164 Q1119 -23 788 -23 Q466 -23 292 138 Q85 329 85 694 Q85 757 100 835 Z M506 565 Q523 463 554 413 Q627 292 781 292 Q1022 292 1052 565 L506 565 Z " />
<glyph glyph-name="florin" unicode="&#x192;" horiz-adv-x="1270" d="M1079 885 L1041 654 L857 654 L752 63 Q733 -47 711.5 -104 Q690 -161 650 -206 Q582 -285 461 -306 Q391 -319 271 -319 Q206 -319 127 -314 L170 -50 Q202 -52 215 -52 Q307 -52 326.5 -26.5 Q346 -1 374 153 L463 654 L287 654 L325 885 L505 885 L544 1104 Q564 1215 591 1277 Q618 1339 666 1385 Q721 1438 796.5 1460 Q872 1482 999 1482 Q1064 1482 1176 1477 L1130 1211 Q1079 1214 1057 1214 Q980 1214 958 1171 Q948 1152 934 1072 L901 885 L1079 885 Z " />
<glyph glyph-name="uni01C4" unicode="&#x1c4;" horiz-adv-x="2633" d="M46 1365 L658 1365 Q963 1365 1138 1206 Q1240 1114 1294 980 Q1348 846 1348 686 Q1348 472 1277 329 Q1177 128 980 50 Q856 0 650 0 L46 0 L46 1365 Z M462 1020 L462 345 L623 345 Q768 345 840 422 Q926 515 926 677 Q926 880 793 969 Q717 1020 584 1020 L462 1020 Z M2566 1365 L2566 1056 L2121 571 Q2039 481 1902 345 L2198 354 L2592 354 L2592 0 L1373 0 L1373 333 L1849 851 Q1918 926 2019 1019 Q1802 1012 1769 1012 L1407 1011 L1407 1365 L2566 1365 Z M1569 1763 L1850 1763 L1964 1618 L2076 1763 L2354 1763 L2126 1486 L1793 1486 L1569 1763 Z " />
<glyph glyph-name="uni01C5" unicode="&#x1c5;" horiz-adv-x="2456" d="M1565 1440 L1846 1440 L1960 1295 L2071 1440 L2350 1440 L2121 1163 L1788 1163 L1565 1440 Z M116 1365 L728 1365 Q1033 1365 1208 1206 Q1310 1114 1364 979.5 Q1418 845 1418 686 Q1418 348 1223 162 Q1133 76 1015 38 Q897 0 720 0 L116 0 L116 1365 Z M532 1020 L532 345 L693 345 Q837 345 910 422 Q996 514 996 677 Q996 880 864 969 Q787 1020 654 1020 L532 1020 Z M2393 990 L2393 702 L2112 441 Q2044 379 1918 279 Q2026 287 2086 287 L2435 287 L2435 0 L1449 0 L1449 289 L1723 534 Q1828 627 1932 708 Q1855 703 1809 703 L1490 703 L1490 990 L2393 990 Z " />
<glyph glyph-name="uni01C6" unicode="&#x1c6;" horiz-adv-x="2249" d="M1392 1445 L1673 1445 L1787 1300 L1899 1445 L2177 1445 L1949 1168 L1615 1168 L1392 1445 Z M2186 990 L2186 702 L1905 441 Q1837 378 1712 279 Q1820 287 1879 287 L2229 287 L2229 0 L1243 0 L1243 289 L1517 534 Q1624 629 1725 708 Q1648 703 1603 703 L1284 703 L1284 990 L2186 990 Z M1128 1365 L1128 0 L764 0 L764 107 Q668 -27 488 -27 Q279 -27 160 132 Q51 277 51 503 Q51 705 139 841 Q254 1019 469 1019 Q638 1019 750 883 L750 1365 L1128 1365 Z M600 730 Q431 730 431 497 Q431 275 596 275 Q677 275 720 333 Q763 391 763 499 Q763 609 720 669.5 Q677 730 600 730 Z " />
<glyph glyph-name="uni01C7" unicode="&#x1c7;" horiz-adv-x="2316" d="M1141 354 L1141 0 L116 0 L116 1365 L532 1365 L532 354 L1141 354 Z M2221 1365 L2221 455 Q2221 330 2195.5 252 Q2170 174 2107 108 Q1971 -34 1715 -34 Q1461 -34 1325 114 Q1211 238 1211 469 L1211 556 L1211 572 L1589 572 Q1589 412 1600 369 Q1618 300 1701 300 Q1756 300 1780.5 332 Q1805 364 1805 436 L1805 1365 L2221 1365 Z " />
<glyph glyph-name="uni01C8" unicode="&#x1c8;" horiz-adv-x="1864" d="M1141 354 L1141 0 L116 0 L116 1365 L532 1365 L532 354 L1141 354 Z M1762 990 L1762 23 Q1762 -171 1676 -248 Q1631 -288 1563.5 -304.5 Q1496 -321 1374 -321 Q1311 -321 1213 -317 L1213 -18 Q1235 -19 1242 -19 Q1314 -19 1335.5 -13 Q1357 -7 1370 16 Q1380 33 1382 55 Q1384 77 1384 191 L1384 990 L1762 990 Z M1573 1428 Q1655 1428 1713.5 1371 Q1772 1314 1772 1235 Q1772 1155 1713.5 1098 Q1655 1041 1573 1041 Q1491 1041 1433 1098 Q1375 1155 1375 1237 Q1375 1315 1433.5 1371.5 Q1492 1428 1573 1428 Z " />
<glyph glyph-name="uni01C9" unicode="&#x1c9;" horiz-adv-x="1185" d="M1068 990 L1068 23 Q1068 -171 982 -248 Q937 -288 869.5 -304.5 Q802 -321 680 -321 Q617 -321 519 -317 L519 -18 Q541 -19 548 -19 Q619 -19 641 -13 Q663 -7 676 16 Q686 33 688 55 Q690 77 690 191 L690 990 L1068 990 Z M880 1428 Q961 1428 1019.5 1371 Q1078 1314 1078 1235 Q1078 1155 1019.5 1098 Q961 1041 880 1041 Q797 1041 739 1098 Q681 1155 681 1237 Q681 1315 739.5 1371.5 Q798 1428 880 1428 Z M480 1365 L480 0 L102 0 L102 1365 L480 1365 Z " />
<glyph glyph-name="uni01CA" unicode="&#x1ca;" horiz-adv-x="2587" d="M1349 1365 L1349 0 L949 0 L608 581 L581 632 Q542 704 506 787 Q519 626 519 474 L519 0 L116 0 L116 1365 L529 1365 L825 853 Q918 693 960 597 Q956 657 954 709 Q946 898 946 911 L946 1365 L1349 1365 Z M2471 1365 L2471 455 Q2471 330 2445.5 251.5 Q2420 173 2357 108 Q2221 -34 1966 -34 Q1712 -34 1576 114 Q1462 238 1462 469 L1462 556 L1462 572 L1839 572 Q1839 412 1850 369 Q1868 300 1951 300 Q2006 300 2030.5 332 Q2055 364 2055 436 L2055 1365 L2471 1365 Z " />
<glyph glyph-name="uni01CB" unicode="&#x1cb;" horiz-adv-x="2038" d="M1349 1365 L1349 0 L949 0 L608 581 L581 632 Q542 704 506 787 Q519 626 519 474 L519 0 L116 0 L116 1365 L529 1365 L825 853 Q918 693 960 597 Q956 657 954 709 Q946 898 946 911 L946 1365 L1349 1365 Z M1935 990 L1935 23 Q1935 -171 1849 -248 Q1804 -288 1736.5 -304.5 Q1669 -321 1547 -321 Q1484 -321 1387 -317 L1387 -18 Q1409 -19 1415 -19 Q1487 -19 1508.5 -13 Q1530 -7 1543 16 Q1553 33 1555 55 Q1557 77 1557 191 L1557 990 L1935 990 Z M1746 1428 Q1828 1428 1886.5 1371 Q1945 1314 1945 1235 Q1945 1155 1886.5 1098 Q1828 1041 1746 1041 Q1664 1041 1606 1098 Q1548 1155 1548 1237 Q1548 1315 1606.5 1371.5 Q1665 1428 1746 1428 Z " />
<glyph glyph-name="uni01CC" unicode="&#x1cc;" horiz-adv-x="1855" d="M1752 990 L1752 23 Q1752 -171 1666 -248 Q1621 -288 1553.5 -304.5 Q1486 -321 1364 -321 Q1301 -321 1203 -317 L1203 -18 Q1225 -19 1232 -19 Q1303 -19 1325 -13 Q1347 -7 1360 16 Q1370 33 1372 55 Q1374 77 1374 191 L1374 990 L1752 990 Z M1563 1428 Q1645 1428 1703.5 1371 Q1762 1314 1762 1235 Q1762 1155 1703.5 1098 Q1645 1041 1563 1041 Q1481 1041 1423 1098 Q1365 1155 1365 1237 Q1365 1315 1423.5 1371.5 Q1482 1428 1563 1428 Z M467 990 L467 868 Q517 929 562 958 Q656 1018 781 1018 Q898 1018 991 961 Q1072 911 1105 831 Q1138 751 1138 606 L1138 0 L760 0 L760 554 Q760 718 630 718 Q558 718 519 673 Q480 628 480 545 L480 0 L102 0 L102 990 L467 990 Z " />
<glyph glyph-name="uni01CD" unicode="&#x1cd;" horiz-adv-x="1394" d="M904 1365 L1407 0 L982 0 L916 194 L476 194 L410 0 L-14 0 L490 1365 L904 1365 Z M824 488 L783 613 Q725 794 699 929 Q672 814 605 606 L567 488 L824 488 Z M304 1763 L586 1763 L700 1618 L811 1763 L1089 1763 L861 1486 L528 1486 L304 1763 Z " />
<glyph glyph-name="uni01CE" unicode="&#x1ce;" horiz-adv-x="1174" d="M232 1420 L497 1420 L590 1275 L681 1420 L943 1420 L735 1129 L435 1129 L232 1420 Z M1100 225 L1100 11 Q1046 -20 959 -20 Q800 -20 750 80 Q638 -27 437 -27 Q272 -27 178 56 Q84 139 84 285 Q84 439 186 514 Q237 552 305.5 572.5 Q374 593 496 607 Q636 623 674.5 639.5 Q713 656 713 702 Q713 795 580 795 Q460 795 435 720 Q430 706 424 652 L110 652 Q120 763 144 812 Q247 1024 596 1024 Q786 1024 897 960 Q1027 884 1027 728 L1027 273 Q1029 235 1033 228.5 Q1037 222 1057 221 Q1062 221 1065 221 L1100 225 Z M713 441 Q662 424 586 415 Q477 401 438 376 Q399 351 399 295 Q399 202 533 202 Q713 202 713 388 L713 441 Z " />
<glyph glyph-name="uni01D1" unicode="&#x1d1;" horiz-adv-x="1502" d="M765 1399 Q1032 1399 1216 1237 Q1443 1037 1443 681 Q1443 383 1274 187 Q1082 -34 757 -34 Q418 -34 222 196 Q59 387 59 680 Q59 1028 269 1221 Q464 1399 765 1399 Z M758 1058 Q621 1058 551 954 Q481 851 481 686 Q481 486 570 384 Q637 307 756 307 Q1021 307 1021 699 Q1021 864 953 959 Q882 1058 758 1058 Z M361 1763 L642 1763 L756 1618 L868 1763 L1146 1763 L918 1486 L584 1486 L361 1763 Z " />
<glyph glyph-name="uni01D2" unicode="&#x1d2;" horiz-adv-x="1180" d="M601 1017 Q830 1017 979 876 Q1133 730 1133 498 Q1133 271 986 125 Q835 -27 589 -27 Q343 -27 193 122 Q46 267 46 492 Q46 727 197 870 Q353 1017 601 1017 Z M589 744 Q426 744 426 493 Q426 246 590 246 Q753 246 753 496 Q753 609 722 666 Q679 744 589 744 Z M234 1420 L499 1420 L592 1275 L683 1420 L945 1420 L737 1129 L437 1129 L234 1420 Z " />
<glyph glyph-name="uni01D3" unicode="&#x1d3;" horiz-adv-x="1434" d="M1338 1365 L1338 554 Q1338 377 1297 272 Q1175 -34 716 -34 Q349 -34 195 167 Q140 239 118 326 Q96 413 96 558 L96 1365 L512 1365 L512 525 Q512 420 554 371 Q608 307 725 307 Q922 307 922 525 L922 1365 L1338 1365 Z M325 1763 L606 1763 L720 1618 L832 1763 L1110 1763 L882 1486 L548 1486 L325 1763 Z " />
<glyph glyph-name="uni01D4" unicode="&#x1d4;" horiz-adv-x="1229" d="M1127 990 L1127 0 L762 0 L762 126 Q658 -27 456 -27 Q262 -27 164 102 Q127 150 111.5 213.5 Q96 277 96 379 L96 990 L474 990 L474 480 Q474 401 477.5 374 Q481 347 495 325 Q528 273 604 273 Q684 273 716.5 321 Q749 369 749 487 L749 990 L1127 990 Z M259 1420 L524 1420 L618 1275 L709 1420 L970 1420 L763 1129 L462 1129 L259 1420 Z " />
<glyph glyph-name="uni01DD" unicode="&#x1dd;" horiz-adv-x="1199" d="M74 692 Q100 778 174 859 Q320 1017 585 1017 Q818 1017 963 900 Q1048 832 1096 730 Q1145 626 1145 504 Q1145 298 1017 150 Q864 -27 600 -27 Q412 -27 278 63 Q153 146 95 300 Q53 412 53 546 Q53 555 53 576 L782 576 Q777 672 726.5 723 Q676 774 587 774 Q483 774 428 692 L74 692 Z M424 386 Q428 333 445 301 Q489 216 597 216 Q749 216 780 386 L424 386 Z " />
<glyph glyph-name="Gcaron" unicode="&#x1e6;" horiz-adv-x="1482" d="M1383 752 L1383 0 L1116 0 L1103 140 Q966 -34 710 -34 Q397 -34 216 192 Q59 389 59 682 Q59 1007 265 1210 Q457 1399 754 1399 Q1028 1399 1206 1215 Q1340 1077 1362 887 L960 887 Q940 969 885.5 1013 Q831 1057 747 1057 Q578 1057 512 890 Q480 807 480 661 Q480 505 537 414 Q609 300 768 300 Q860 300 921.5 341.5 Q983 383 1001 458 L821 458 L821 752 L1383 752 Z M349 1763 L630 1763 L744 1618 L856 1763 L1134 1763 L906 1486 L573 1486 L349 1763 Z " />
<glyph glyph-name="gcaron" unicode="&#x1e7;" horiz-adv-x="1217" d="M1114 990 L1114 139 Q1114 32 1098.5 -33 Q1083 -98 1045 -153 Q979 -246 870 -289.5 Q761 -333 591 -333 Q297 -333 179 -212 Q100 -131 84 -7 L461 -7 Q476 -57 507 -77 Q538 -97 600 -97 Q686 -97 717.5 -57 Q749 -17 749 91 L749 196 Q644 70 469 70 Q275 70 165 193 Q51 320 51 541 Q51 750 157 878 Q274 1018 473 1018 Q570 1018 632 985 Q694 952 749 871 L749 990 L1114 990 Z M587 736 Q503 736 458.5 685 Q414 634 414 537 Q414 453 449 401 Q493 336 587 336 Q668 336 712.5 388.5 Q757 441 757 535 Q757 629 714 682 Q668 736 587 736 Z M253 1420 L518 1420 L611 1275 L702 1420 L964 1420 L756 1129 L456 1129 L253 1420 Z " />
<glyph glyph-name="uni01F4" unicode="&#x1f4;" horiz-adv-x="1482" d="M1383 752 L1383 0 L1116 0 L1103 140 Q966 -34 710 -34 Q397 -34 216 192 Q59 389 59 682 Q59 1007 265 1210 Q457 1399 754 1399 Q1028 1399 1206 1215 Q1340 1077 1362 887 L960 887 Q940 969 885.5 1013 Q831 1057 747 1057 Q578 1057 512 890 Q480 807 480 661 Q480 505 537 414 Q609 300 768 300 Q860 300 921.5 341.5 Q983 383 1001 458 L821 458 L821 752 L1383 752 Z M1147 1763 L806 1486 L554 1486 L744 1763 L1147 1763 Z " />
<glyph glyph-name="uni01F5" unicode="&#x1f5;" horiz-adv-x="1217" d="M1114 990 L1114 139 Q1114 32 1098.5 -33 Q1083 -98 1045 -153 Q979 -246 870 -289.5 Q761 -333 591 -333 Q297 -333 179 -212 Q100 -131 84 -7 L461 -7 Q476 -57 507 -77 Q538 -97 600 -97 Q686 -97 717.5 -57 Q749 -17 749 91 L749 196 Q644 70 469 70 Q275 70 165 193 Q51 320 51 541 Q51 750 157 878 Q274 1018 473 1018 Q570 1018 632 985 Q694 952 749 871 L749 990 L1114 990 Z M587 736 Q503 736 458.5 685 Q414 634 414 537 Q414 453 449 401 Q493 336 587 336 Q668 336 712.5 388.5 Q757 441 757 535 Q757 629 714 682 Q668 736 587 736 Z M926 1412 L585 1135 L333 1135 L522 1412 L926 1412 Z " />
<glyph glyph-name="Aringacute" unicode="&#x1fa;" horiz-adv-x="1394" d="M904 1365 L1407 0 L982 0 L916 194 L476 194 L410 0 L-14 0 L490 1365 L904 1365 Z M824 488 L783 613 Q725 794 699 929 Q672 814 605 606 L567 488 L824 488 Z M701 1882 Q814 1882 893 1811 Q963 1748 963 1665 Q963 1568 874 1502 Q799 1447 697 1447 Q579 1447 501 1518 Q431 1581 431 1666 Q431 1762 520 1827 Q595 1882 701 1882 Z M699 1767 Q655 1767 624.5 1737.5 Q594 1708 594 1665 Q594 1622 624 1592 Q654 1562 697 1562 Q739 1562 769.5 1592 Q800 1622 800 1664 Q800 1706 770 1736.5 Q740 1767 699 1767 Z M847 2150 L506 1873 L255 1873 L444 2150 L847 2150 Z " />
<glyph glyph-name="aringacute" unicode="&#x1fb;" horiz-adv-x="1174" d="M591 1504 Q701 1504 777 1435 Q845 1374 845 1293 Q845 1199 758 1135 Q686 1082 587 1082 Q473 1082 397 1151 Q329 1212 329 1294 Q329 1387 416 1451 Q487 1504 591 1504 Z M589 1395 Q546 1395 515.5 1365.5 Q485 1336 485 1294 Q485 1251 515 1221 Q545 1191 588 1191 Q630 1191 660 1221 Q690 1251 690 1293 Q690 1335 660 1365 Q630 1395 589 1395 Z M628 1738 L327 1447 L110 1447 L265 1738 L628 1738 Z M1100 225 L1100 11 Q1046 -20 959 -20 Q800 -20 750 80 Q638 -27 437 -27 Q272 -27 178 56 Q84 139 84 285 Q84 439 186 514 Q237 552 305.5 572.5 Q374 593 496 607 Q636 623 674.5 639.5 Q713 656 713 702 Q713 795 580 795 Q460 795 435 720 Q430 706 424 652 L110 652 Q120 763 144 812 Q247 1024 596 1024 Q786 1024 897 960 Q1027 884 1027 728 L1027 273 Q1029 235 1033 228.5 Q1037 222 1057 221 Q1062 221 1065 221 L1100 225 Z M713 441 Q662 424 586 415 Q477 401 438 376 Q399 351 399 295 Q399 202 533 202 Q713 202 713 388 L713 441 Z " />
<glyph glyph-name="AEacute" unicode="&#x1fc;" horiz-adv-x="2005" d="M1909 1365 L1909 1033 L1289 1033 L1289 864 L1867 864 L1867 546 L1289 546 L1289 345 L1930 345 L1930 0 L886 0 L886 191 L481 191 L401 0 L-41 0 L585 1365 L1909 1365 Z M886 485 L886 1033 L832 1033 L599 485 L886 485 Z M1587 1763 L1246 1486 L995 1486 L1184 1763 L1587 1763 Z " />
<glyph glyph-name="aeacute" unicode="&#x1fd;" horiz-adv-x="1801" d="M1735 306 Q1703 188 1608 102 Q1465 -27 1244 -27 Q1129 -27 1029 8.5 Q929 44 865 107 Q793 53 737 29 Q602 -27 427 -27 Q244 -27 143 46 Q95 80 67.5 141.5 Q40 203 40 277 Q40 457 198 532 Q275 569 532 604 Q654 621 688.5 638 Q723 655 723 700 Q723 788 585 788 Q519 788 488 765.5 Q457 743 447 687 L84 687 Q94 1018 572 1018 Q809 1018 925 909 Q980 960 1058.5 988.5 Q1137 1017 1226 1017 Q1351 1017 1459.5 966.5 Q1568 916 1641 825 Q1704 745 1730 651.5 Q1756 558 1755 414 L1047 414 Q1053 216 1232 216 Q1331 216 1381 306 L1735 306 Z M1387 604 Q1369 774 1220 774 Q1064 774 1048 604 L1387 604 Z M724 454 Q681 423 597 405 L564 398 Q490 382 470 370 Q427 345 427 290 Q427 244 460 216 Q493 188 548 188 Q632 188 678 238 Q724 288 724 381 L724 454 Z M1191 1420 L891 1129 L673 1129 L828 1420 L1191 1420 Z " />
<glyph glyph-name="Oslashacute" unicode="&#x1fe;" horiz-adv-x="1502" d="M1447 1336 L1290 1160 Q1444 966 1444 673 Q1444 358 1249 158 Q1152 59 1033.5 12.5 Q915 -34 758 -34 Q634 -34 538 -5 Q442 24 334 95 L176 -82 L55 29 L214 207 Q59 403 59 684 Q59 1014 257 1210 Q449 1399 757 1399 Q1004 1399 1170 1274 L1327 1448 L1447 1336 Z M925 1001 Q861 1065 758 1065 Q651 1065 584 997 Q482 894 482 708 Q482 607 500 526 L925 1001 Z M1007 845 L579 366 Q640 300 754 300 Q891 300 956 397 Q1021 494 1021 700 Q1021 778 1007 845 Z M1010 1763 L669 1486 L417 1486 L607 1763 L1010 1763 Z " />
<glyph glyph-name="oslashacute" unicode="&#x1ff;" horiz-adv-x="1180" d="M1088 976 L982 850 Q1065 764 1099 683.5 Q1133 603 1133 492 Q1133 267 980 119 Q828 -27 597 -27 Q413 -27 292 50 L179 -80 L83 4 L194 132 Q46 284 46 491 Q46 743 227 892 Q380 1017 589 1017 Q753 1017 881 932 L989 1061 L1088 976 Z M695 717 Q648 768 586 768 Q504 768 456 694.5 Q408 621 408 496 Q408 445 420 384 L695 717 Z M757 598 L481 267 Q524 221 590 221 Q672 221 721 291.5 Q770 362 770 480 Q770 540 757 598 Z M947 1420 L647 1129 L430 1129 L585 1420 L947 1420 Z " />
<glyph glyph-name="uni0200" unicode="&#x200;" horiz-adv-x="1394" d="M904 1365 L1407 0 L982 0 L916 194 L476 194 L410 0 L-14 0 L490 1365 L904 1365 Z M824 488 L783 613 Q725 794 699 929 Q672 814 605 606 L567 488 L824 488 Z M131 1763 L466 1763 L601 1486 L404 1486 L131 1763 Z M548 1763 L883 1763 L1017 1486 L820 1486 L548 1763 Z " />
<glyph glyph-name="uni0201" unicode="&#x201;" horiz-adv-x="1174" d="M26 1454 L361 1454 L496 1177 L299 1177 L26 1454 Z M442 1454 L777 1454 L912 1177 L715 1177 L442 1454 Z M1101 225 L1101 11 Q1046 -20 959 -20 Q800 -20 750 80 Q638 -27 437 -27 Q272 -27 178 56 Q84 139 84 285 Q84 439 186 514 Q237 552 305.5 572.5 Q374 593 496 607 Q636 623 674.5 639.5 Q713 656 713 702 Q713 795 580 795 Q460 795 435 720 Q430 706 424 652 L110 652 Q120 763 144 812 Q247 1024 596 1024 Q786 1024 897 960 Q1027 884 1027 728 L1027 273 Q1029 235 1033 228.5 Q1037 222 1058 221 Q1063 221 1066 221 L1101 225 Z M713 441 Q662 424 586 415 Q477 401 438 376 Q399 351 399 295 Q399 202 533 202 Q713 202 713 388 L713 441 Z " />
<glyph glyph-name="Scommaaccent" unicode="&#x218;" horiz-adv-x="1294" d="M1186 952 L793 952 Q792 1013 746 1047.5 Q700 1082 620 1082 Q555 1082 518.5 1060 Q482 1038 482 999 Q482 958 518.5 941 Q555 924 773 865 Q983 808 1074 747 Q1242 635 1242 435 Q1242 325 1195.5 233 Q1149 141 1062 81 Q903 -30 646 -30 Q400 -30 247 63 Q30 195 26 461 L445 461 Q449 405 464 373.5 Q479 342 513 319 Q566 283 660 283 Q740 283 785 313.5 Q830 344 830 398 Q830 440 782.5 465.5 Q735 491 556 545 Q382 597 307 629.5 Q232 662 182 707 Q79 799 79 967 Q79 1182 265 1300 Q415 1395 633 1395 Q893 1395 1038.5 1278.5 Q1184 1162 1186 952 Z M490 -577 L490 -463 Q568 -459 616 -443 Q664 -427 667 -405 Q654 -409 639 -409 L630 -409 Q561 -409 509.5 -361 Q458 -313 458 -249 Q458 -182 510 -133.5 Q562 -85 634 -85 Q720 -85 776 -144 Q832 -203 836 -299 Q842 -431 734 -503 Q686 -535 636.5 -550 Q587 -565 490 -577 Z " />
<glyph glyph-name="scommaaccent" unicode="&#x219;" horiz-adv-x="1068" d="M992 699 L648 699 Q639 752 610.5 772 Q582 792 516 792 Q412 792 412 731 Q412 696 450.5 679.5 Q489 663 630 637 Q815 604 906 548 Q1020 478 1020 321 Q1020 164 898 73 Q764 -27 522 -27 Q249 -27 119 99 Q71 144 49 196 Q27 248 20 329 L379 329 Q386 267 421 239.5 Q456 212 528 212 Q648 212 648 292 Q648 328 617 343.5 Q586 359 454 387 Q330 413 270.5 431.5 Q211 450 164 477 Q106 511 73 570.5 Q40 630 40 703 Q40 857 165 938 Q221 975 314 996 Q407 1017 511 1017 Q745 1017 863 939 Q981 861 992 699 Z M376 -577 L376 -463 Q454 -459 502 -443 Q550 -427 553 -405 Q540 -409 525 -409 L516 -409 Q447 -409 395.5 -361 Q344 -313 344 -249 Q344 -182 396 -133.5 Q448 -85 520 -85 Q606 -85 662 -144 Q718 -203 722 -299 Q728 -431 620 -503 Q572 -535 522.5 -550 Q473 -565 376 -577 Z " />
<glyph glyph-name="uni021A" unicode="&#x21a;" horiz-adv-x="1251" d="M1216 1365 L1216 1011 L834 1011 L834 0 L418 0 L418 1011 L34 1011 L34 1365 L1216 1365 Z M467 -577 L467 -463 Q545 -459 593 -443 Q641 -427 644 -405 Q631 -409 616 -409 L607 -409 Q538 -409 486.5 -361 Q435 -313 435 -249 Q435 -182 487 -133.5 Q539 -85 611 -85 Q697 -85 753 -144 Q809 -203 813 -299 Q819 -432 711 -503 Q663 -535 613.5 -550 Q564 -565 467 -577 Z " />
<glyph glyph-name="uni021B" unicode="&#x21b;" horiz-adv-x="765" d="M729 990 L729 755 L524 755 L524 401 Q524 325 538 303 Q561 266 651 266 Q662 266 729 268 L729 -6 Q620 -14 531 -14 Q381 -14 308 15 Q217 52 181.5 121 Q146 190 146 330 L146 755 L-18 755 L-18 990 L146 990 L146 1294 L524 1294 L524 990 L729 990 Z M279 -577 L279 -463 Q357 -459 405 -443 Q453 -427 456 -405 Q443 -409 428 -409 L419 -409 Q350 -409 298.5 -361 Q247 -313 247 -249 Q247 -182 299 -133.5 Q351 -85 423 -85 Q509 -85 564.5 -144 Q620 -203 625 -299 Q631 -432 523 -503 Q475 -535 425 -550 Q375 -565 279 -577 Z " />
<glyph glyph-name="uni0226" unicode="&#x226;" horiz-adv-x="1394" d="M904 1365 L1407 0 L982 0 L916 194 L476 194 L410 0 L-14 0 L490 1365 L904 1365 Z M824 488 L783 613 Q725 794 699 929 Q672 814 605 606 L567 488 L824 488 Z M697 1836 Q778 1836 836.5 1779 Q895 1722 895 1643 Q895 1563 836.5 1506 Q778 1449 697 1449 Q614 1449 556 1506 Q498 1563 498 1645 Q498 1723 556.5 1779.5 Q615 1836 697 1836 Z " />
<glyph glyph-name="uni0227" unicode="&#x227;" horiz-adv-x="1174" d="M588 1466 Q669 1466 727.5 1409 Q786 1352 786 1273 Q786 1193 727.5 1136 Q669 1079 588 1079 Q505 1079 447 1136 Q389 1193 389 1275 Q389 1353 447.5 1409.5 Q506 1466 588 1466 Z M1100 225 L1100 11 Q1046 -20 959 -20 Q800 -20 750 80 Q638 -27 437 -27 Q272 -27 178 56 Q84 139 84 285 Q84 439 186 514 Q237 552 305.5 572.5 Q374 593 496 607 Q636 623 674.5 639.5 Q713 656 713 702 Q713 795 580 795 Q460 795 435 720 Q430 706 424 652 L110 652 Q120 763 144 812 Q247 1024 596 1024 Q786 1024 897 960 Q1027 884 1027 728 L1027 273 Q1029 235 1033 228.5 Q1037 222 1057 221 Q1062 221 1065 221 L1100 225 Z M713 441 Q662 424 586 415 Q477 401 438 376 Q399 351 399 295 Q399 202 533 202 Q713 202 713 388 L713 441 Z " />
<glyph glyph-name="uni0237" unicode="&#x237;" horiz-adv-x="583" d="M481 990 L481 23 Q481 -171 395 -248 Q349 -288 282 -304.5 Q215 -321 93 -321 Q30 -321 -68 -317 L-68 -18 Q-46 -19 -39 -19 Q32 -19 54 -13 Q76 -7 89 16 Q99 33 101 55 Q103 77 103 191 L103 990 L481 990 Z " />
<glyph glyph-name="afii57929" unicode="&#x2bc;" horiz-adv-x="623" d="M144 783 Q226 796 275.5 846.5 Q325 897 331 975 Q316 970 301 970 L292 970 Q219 970 164 1026.5 Q109 1083 109 1159 Q109 1239 163.5 1297 Q218 1355 295 1355 Q390 1355 449.5 1280 Q509 1205 509 1085 Q509 889 402 760 Q352 700 298 670.5 Q244 641 144 619 L144 783 Z " />
<glyph glyph-name="circumflex" unicode="&#x2c6;" horiz-adv-x="1024" d="M867 1129 L602 1129 L509 1274 L418 1129 L156 1129 L364 1420 L664 1420 L867 1129 Z " />
<glyph glyph-name="caron" unicode="&#x2c7;" horiz-adv-x="1024" d="M156 1420 L421 1420 L514 1275 L605 1420 L867 1420 L660 1129 L359 1129 L156 1420 Z " />
<glyph glyph-name="uni02C9" unicode="&#x2c9;" horiz-adv-x="1024" d="M842 1356 L842 1192 L183 1192 L183 1356 L842 1356 Z " />
<glyph glyph-name="breve" unicode="&#x2d8;" horiz-adv-x="1024" d="M187 1430 L346 1430 Q357 1379 379 1354 Q421 1309 512 1309 Q587 1309 625.5 1337 Q664 1365 678 1430 L837 1430 Q830 1321 782 1252 Q738 1189 674.5 1161.5 Q611 1134 512 1134 Q414 1134 350.5 1161.5 Q287 1189 243 1252 Q194 1321 187 1430 Z " />
<glyph glyph-name="dotaccent" unicode="&#x2d9;" horiz-adv-x="1024" d="M513 1466 Q594 1466 652.5 1409 Q711 1352 711 1273 Q711 1193 652.5 1136 Q594 1079 513 1079 Q430 1079 372 1136 Q314 1193 314 1275 Q314 1353 372.5 1409.5 Q431 1466 513 1466 Z " />
<glyph glyph-name="ring" unicode="&#x2da;" horiz-adv-x="1024" d="M516 1504 Q626 1504 702 1435 Q770 1374 770 1293 Q770 1199 683 1135 Q611 1082 512 1082 Q398 1082 321 1151 Q254 1212 254 1294 Q254 1387 341 1451 Q413 1504 516 1504 Z M514 1395 Q471 1395 440.5 1365.5 Q410 1336 410 1294 Q410 1251 440 1221 Q470 1191 512 1191 Q555 1191 585 1221 Q615 1251 615 1293 Q615 1335 585 1365 Q555 1395 514 1395 Z " />
<glyph glyph-name="ogonek" unicode="&#x2db;" horiz-adv-x="1024" d="M553 0 L717 0 Q605 -84 605 -163 Q605 -204 637 -227 Q669 -250 726 -250 Q746 -250 784 -242 L784 -377 Q713 -397 657 -397 Q553 -397 489 -345.5 Q425 -294 425 -211 Q425 -108 553 0 Z " />
<glyph glyph-name="tilde" unicode="&#x2dc;" horiz-adv-x="1024" d="M856 1414 Q813 1164 629 1164 Q590 1164 561 1172 Q532 1180 453 1214 Q410 1232 381 1232 Q332 1232 308 1154 L168 1154 Q187 1276 248 1345.5 Q309 1415 396 1415 Q434 1415 463.5 1406 Q493 1397 576 1359 Q612 1343 642 1343 Q670 1343 685.5 1358 Q701 1373 717 1414 L856 1414 Z " />
<glyph glyph-name="hungarumlaut" unicode="&#x2dd;" horiz-adv-x="1024" d="M1105 1397 L832 1120 L635 1120 L770 1397 L1105 1397 Z M689 1397 L416 1120 L219 1120 L354 1397 L689 1397 Z " />
<glyph glyph-name="pi" unicode="&#x3c0;" horiz-adv-x="1301" d="M134 0 L134 703 L12 703 L12 990 L1289 990 L1289 703 L1167 703 L1167 0 L789 0 L789 703 L512 703 L512 0 L134 0 Z " />
<glyph glyph-name="uni1E1E" unicode="&#x1e1e;" horiz-adv-x="1207" d="M1173 1365 L1173 1020 L532 1020 L532 808 L1084 808 L1084 490 L532 490 L532 0 L116 0 L116 1365 L1173 1365 Z M648 1836 Q730 1836 788.5 1779 Q847 1722 847 1643 Q847 1563 788.5 1506 Q730 1449 648 1449 Q566 1449 508 1506 Q450 1563 450 1645 Q450 1723 508.5 1779.5 Q567 1836 648 1836 Z " />
<glyph glyph-name="Wgrave" unicode="&#x1e80;" horiz-adv-x="1837" d="M1850 1365 L1476 0 L1068 0 L1004 333 Q948 617 915 887 Q900 735 889 660 Q878 585 833 338 L773 0 L360 0 L-14 1365 L398 1365 L467 1056 Q543 715 567 401 Q592 677 668 1047 L733 1365 L1103 1365 L1158 1093 Q1210 835 1232 693.5 Q1254 552 1266 401 Q1291 693 1384 1120 L1437 1365 L1850 1365 Z M1026 1763 L1220 1486 L958 1486 L627 1763 L1026 1763 Z " />
<glyph glyph-name="wgrave" unicode="&#x1e81;" horiz-adv-x="1649" d="M1670 990 L1358 0 L971 0 L888 324 Q848 481 824 680 Q796 475 759 324 L681 0 L293 0 L-20 990 L373 990 L445 712 Q488 545 518 321 Q554 554 592 728 L649 990 L1003 990 L1067 701 Q1110 505 1135 324 Q1163 526 1205 694 L1279 990 L1670 990 Z M550 1420 L913 1420 L1068 1129 L850 1129 L550 1420 Z " />
<glyph glyph-name="Wacute" unicode="&#x1e82;" horiz-adv-x="1837" d="M1254 1763 L913 1486 L661 1486 L851 1763 L1254 1763 Z M1850 1365 L1476 0 L1068 0 L1004 333 Q948 617 915 887 Q900 735 889 660 Q878 585 833 338 L773 0 L360 0 L-14 1365 L398 1365 L467 1056 Q543 715 567 401 Q592 677 668 1047 L733 1365 L1103 1365 L1158 1093 Q1210 835 1232 693.5 Q1254 552 1266 401 Q1291 693 1384 1120 L1437 1365 L1850 1365 Z " />
<glyph glyph-name="wacute" unicode="&#x1e83;" horiz-adv-x="1649" d="M1670 990 L1358 0 L971 0 L888 324 Q848 481 824 680 Q796 475 759 324 L681 0 L293 0 L-20 990 L373 990 L445 712 Q488 545 518 321 Q554 554 592 728 L649 990 L1003 990 L1067 701 Q1110 505 1135 324 Q1163 526 1205 694 L1279 990 L1670 990 Z M1060 1420 L760 1129 L543 1129 L698 1420 L1060 1420 Z " />
<glyph glyph-name="Wdieresis" unicode="&#x1e84;" horiz-adv-x="1837" d="M1850 1365 L1476 0 L1068 0 L1004 333 Q948 617 915 887 Q900 735 889 660 Q878 585 833 338 L773 0 L360 0 L-14 1365 L398 1365 L467 1056 Q543 715 567 401 Q592 677 668 1047 L733 1365 L1103 1365 L1158 1093 Q1210 835 1232 693.5 Q1254 552 1266 401 Q1291 693 1384 1120 L1437 1365 L1850 1365 Z M1138 1836 Q1220 1836 1278.5 1779 Q1337 1722 1337 1643 Q1337 1563 1278.5 1506 Q1220 1449 1138 1449 Q1056 1449 998 1506 Q940 1563 940 1645 Q940 1723 998.5 1779.5 Q1057 1836 1138 1836 Z M699 1836 Q780 1836 838.5 1779 Q897 1722 897 1643 Q897 1563 838.5 1506 Q780 1449 699 1449 Q616 1449 558 1506 Q500 1563 500 1645 Q500 1723 558.5 1779.5 Q617 1836 699 1836 Z " />
<glyph glyph-name="wdieresis" unicode="&#x1e85;" horiz-adv-x="1649" d="M1670 990 L1358 0 L971 0 L888 324 Q848 481 824 680 Q796 475 759 324 L681 0 L293 0 L-20 990 L373 990 L445 712 Q488 545 518 321 Q554 554 592 728 L649 990 L1003 990 L1067 701 Q1110 505 1135 324 Q1163 526 1205 694 L1279 990 L1670 990 Z M1015 1466 Q1096 1466 1154.5 1409 Q1213 1352 1213 1273 Q1213 1193 1154.5 1136 Q1096 1079 1015 1079 Q932 1079 874 1136 Q816 1193 816 1275 Q816 1353 874.5 1409.5 Q933 1466 1015 1466 Z M587 1466 Q669 1466 727.5 1409 Q786 1352 786 1273 Q786 1193 727.5 1136 Q669 1079 587 1079 Q505 1079 447 1136.5 Q389 1194 389 1275 Q389 1353 447.5 1409.5 Q506 1466 587 1466 Z " />
<glyph glyph-name="Ygrave" unicode="&#x1ef2;" horiz-adv-x="1279" d="M1333 1365 L846 494 L846 0 L430 0 L430 502 L-55 1365 L408 1365 L510 1148 Q603 951 639 848 Q688 984 783 1178 L875 1365 L1333 1365 Z M723 1763 L917 1486 L655 1486 L324 1763 L723 1763 Z " />
<glyph glyph-name="ygrave" unicode="&#x1ef3;" horiz-adv-x="1074" d="M1095 990 L733 -23 Q692 -137 646 -196.5 Q600 -256 528 -288 Q484 -308 438 -313.5 Q392 -319 277 -319 L80 -319 L80 -18 Q135 -19 165 -19 Q244 -19 272 -6 Q314 13 314 62 Q314 82 303 111 L-20 990 L383 990 L494 599 Q521 505 543 368 Q574 532 596 610 L706 990 L1095 990 Z M282 1420 L645 1420 L800 1129 L583 1129 L282 1420 Z " />
<glyph glyph-name="uni2011" unicode="&#x2011;" horiz-adv-x="546" d="M546 672 L546 347 L0 347 L0 672 L546 672 Z " />
<glyph glyph-name="figuredash" unicode="&#x2012;" horiz-adv-x="1270" d="M1177 672 L1177 348 L93 348 L93 672 L1177 672 Z " />
<glyph glyph-name="endash" unicode="&#x2013;" horiz-adv-x="1270" d="M1177 672 L1177 348 L93 348 L93 672 L1177 672 Z " />
<glyph glyph-name="emdash" unicode="&#x2014;" horiz-adv-x="1630" d="M1630 670 L1630 348 L0 348 L0 670 L1630 670 Z " />
<glyph glyph-name="afii00208" unicode="&#x2015;" horiz-adv-x="1630" d="M1630 670 L1630 348 L0 348 L0 670 L1630 670 Z " />
<glyph glyph-name="underscoredbl" unicode="&#x2017;" horiz-adv-x="1024" d="M0 -94 L1024 -94 L1024 -258 L0 -258 L0 -94 Z M0 -334 L1024 -334 L1024 -498 L0 -498 L0 -334 Z " />
<glyph glyph-name="quoteleft" unicode="&#x2018;" horiz-adv-x="623" d="M474 1212 Q392 1199 342.5 1148.5 Q293 1098 286 1020 Q302 1025 317 1025 L326 1025 Q399 1025 454 968.5 Q509 912 509 836 Q509 755 454.5 697.5 Q400 640 323 640 Q228 640 168.5 715 Q109 790 109 910 Q109 1106 216 1235 Q266 1295 320.5 1325 Q375 1355 474 1376 L474 1212 Z " />
<glyph glyph-name="quoteright" unicode="&#x2019;" horiz-adv-x="623" d="M144 783 Q226 796 275.5 846.5 Q325 897 331 975 Q316 970 301 970 L292 970 Q219 970 164 1026.5 Q109 1083 109 1159 Q109 1239 163.5 1297 Q218 1355 295 1355 Q390 1355 449.5 1280 Q509 1205 509 1085 Q509 889 402 760 Q352 700 298 670.5 Q244 641 144 619 L144 783 Z " />
<glyph glyph-name="quotesinglbase" unicode="&#x201a;" horiz-adv-x="623" d="M144 -190 Q226 -176 275.5 -125.5 Q325 -75 331 2 Q316 -3 301 -3 L292 -3 Q219 -3 164 54 Q109 111 109 186 Q109 267 163.5 324.5 Q218 382 295 382 Q390 382 449.5 307 Q509 232 509 112 Q509 -84 402 -213 Q352 -273 297.5 -302.5 Q243 -332 144 -354 L144 -190 Z " />
<glyph glyph-name="quotereversed" unicode="&#x201b;" horiz-adv-x="623" d="M474 783 L474 619 Q348 646 282 696 Q206 753 162 842 Q109 948 109 1085 Q109 1205 167 1277 Q230 1355 323 1355 Q400 1355 454.5 1297 Q509 1239 509 1159 Q509 1083 454 1026.5 Q399 970 326 970 L317 970 Q302 970 286 975 Q293 897 342.5 846.5 Q392 796 474 783 Z " />
<glyph glyph-name="quotedblleft" unicode="&#x201c;" horiz-adv-x="1038" d="M912 1191 Q830 1178 780.5 1127.5 Q731 1077 725 999 Q740 1004 755 1004 L764 1004 Q837 1004 892 947.5 Q947 891 947 815 Q947 734 892.5 676.5 Q838 619 761 619 Q666 619 606.5 694 Q547 769 547 889 Q547 1085 654 1214 Q704 1274 758 1303.5 Q812 1333 912 1355 L912 1191 Z M445 1191 Q363 1178 313.5 1127.5 Q264 1077 257 999 Q273 1004 288 1004 L297 1004 Q370 1004 425 947.5 Q480 891 480 815 Q480 735 425.5 677 Q371 619 294 619 Q199 619 139.5 694 Q80 769 80 889 Q80 1085 187 1214 Q237 1274 291.5 1304 Q346 1334 445 1355 L445 1191 Z " />
<glyph glyph-name="quotedblright" unicode="&#x201d;" horiz-adv-x="1038" d="M115 783 Q197 796 246.5 846.5 Q296 897 302 975 Q287 970 272 970 L263 970 Q190 970 135 1026.5 Q80 1083 80 1159 Q80 1239 134.5 1297 Q189 1355 266 1355 Q361 1355 420.5 1280 Q480 1205 480 1085 Q480 889 373 760 Q323 700 269 670.5 Q215 641 115 619 L115 783 Z M582 783 Q664 796 713.5 846.5 Q763 897 769 975 Q754 970 739 970 L730 970 Q657 970 602 1026.5 Q547 1083 547 1159 Q547 1239 601.5 1297 Q656 1355 733 1355 Q828 1355 887.5 1280 Q947 1205 947 1085 Q947 889 840 760 Q790 700 735.5 670 Q681 640 582 619 L582 783 Z " />
<glyph glyph-name="quotedblbase" unicode="&#x201e;" horiz-adv-x="1038" d="M115 -185 Q197 -171 246.5 -120.5 Q296 -70 302 7 Q287 3 272 3 L263 3 Q190 3 135 59.5 Q80 116 80 192 Q80 272 134.5 330 Q189 388 266 388 Q361 388 420.5 313 Q480 238 480 118 Q480 -78 373 -207 Q323 -267 269 -297 Q215 -327 115 -348 L115 -185 Z M582 -185 Q664 -171 713.5 -120.5 Q763 -70 769 7 Q754 3 739 3 L730 3 Q657 3 602 59.5 Q547 116 547 192 Q547 272 602 330 Q657 388 733 388 Q828 388 887.5 313 Q947 238 947 118 Q947 -78 840 -207 Q790 -267 735.5 -297 Q681 -327 582 -348 L582 -185 Z " />
<glyph glyph-name="dagger" unicode="&#x2020;" horiz-adv-x="1270" d="M1158 1012 L1158 688 L819 688 L819 -319 L449 -319 L449 688 L112 688 L112 1012 L449 1012 L449 1365 L819 1365 L819 1012 L1158 1012 Z " />
<glyph glyph-name="daggerdbl" unicode="&#x2021;" horiz-adv-x="1270" d="M1158 1025 L1158 711 L820 711 L820 338 L1158 338 L1158 25 L820 25 L820 -319 L451 -319 L451 25 L112 25 L112 338 L451 338 L451 711 L112 711 L112 1025 L451 1025 L451 1365 L820 1365 L820 1025 L1158 1025 Z " />
<glyph glyph-name="bullet" unicode="&#x2022;" horiz-adv-x="1365" d="M687 982 Q799 982 881 899 Q964 815 964 696 Q964 578 882 494 Q799 410 683 410 Q567 410 485 493 Q401 577 401 696 Q401 817 485 899 Q569 982 687 982 Z " />
<glyph glyph-name="ellipsis" unicode="&#x2026;" horiz-adv-x="1868" d="M313 383 Q394 383 452.5 326 Q511 269 511 190 Q511 110 452.5 53 Q394 -4 313 -4 Q230 -4 172 53 Q114 110 114 192 Q114 270 172.5 326.5 Q231 383 313 383 Z M936 383 Q1017 383 1075.5 326 Q1134 269 1134 190 Q1134 110 1075.5 53 Q1017 -4 936 -4 Q853 -4 795 53 Q737 110 737 192 Q737 270 795.5 326.5 Q854 383 936 383 Z M1558 383 Q1639 383 1697.5 326 Q1756 269 1756 190 Q1756 110 1697.5 53 Q1639 -4 1558 -4 Q1475 -4 1417 53 Q1359 110 1359 192 Q1359 270 1417.5 326.5 Q1476 383 1558 383 Z " />
<glyph glyph-name="perthousand" unicode="&#x2030;" horiz-adv-x="2523" d="M384 1373 Q571 1373 652 1234 Q707 1139 707 985 Q707 794 602 699 Q515 621 376 621 Q223 621 139 714 Q55 807 55 985 Q55 1192 168 1295 Q254 1373 384 1373 Z M384 1189 Q333 1189 310.5 1141 Q288 1093 288 983 Q288 883 308 844 Q328 805 380 805 Q475 805 475 989 Q475 1189 384 1189 Z M580 -43 L378 -43 L1172 1383 L1369 1383 L580 -43 Z M1371 723 Q1558 723 1639 584 Q1694 489 1694 335 Q1694 144 1589 49 Q1503 -29 1363 -29 Q1210 -29 1126 64 Q1042 157 1042 335 Q1042 542 1155 645 Q1240 723 1371 723 Z M1371 539 Q1320 539 1297.5 491 Q1275 443 1275 333 Q1275 233 1295 194 Q1315 155 1367 155 Q1462 155 1462 339 Q1462 539 1371 539 Z M2142 723 Q2329 723 2410 584 Q2465 489 2465 335 Q2465 144 2360 49 Q2274 -29 2134 -29 Q1981 -29 1897 64 Q1813 157 1813 335 Q1813 542 1926 645 Q2011 723 2142 723 Z M2142 539 Q2091 539 2068.5 491 Q2046 443 2046 333 Q2046 233 2066 194 Q2086 155 2138 155 Q2233 155 2233 339 Q2233 539 2142 539 Z " />
<glyph glyph-name="guilsinglleft" unicode="&#x2039;" horiz-adv-x="486" d="M384 924 L384 631 L236 512 L384 393 L384 95 L75 339 L75 679 L384 924 Z " />
<glyph glyph-name="guilsinglright" unicode="&#x203a;" horiz-adv-x="487" d="M102 925 L412 680 L412 336 L102 93 L102 381 L251 505 L102 626 L102 925 Z " />
<glyph glyph-name="uni203E" unicode="&#x203e;" horiz-adv-x="1024" d="M0 1829 L1024 1829 L1024 1590 L0 1590 L0 1829 Z " />
<glyph glyph-name="fraction" unicode="&#x2044;" horiz-adv-x="281" d="M598 1343 L-118 0 L-317 0 L400 1343 L598 1343 Z " />
<glyph glyph-name="zerosuperior" unicode="&#x2070;" horiz-adv-x="859" d="M432 1353 Q596 1353 698 1240 Q800 1127 800 946 Q800 767 705 656 Q603 536 429 536 Q258 536 154 653 Q55 763 55 944 Q55 1127 157 1240 Q259 1353 432 1353 Z M430 1167 Q360 1167 329 1112.5 Q298 1058 298 936 Q298 722 428 722 Q557 722 557 944 Q557 1167 430 1167 Z " />
<glyph glyph-name="foursuperior" unicode="&#x2074;" horiz-adv-x="860" d="M807 913 L807 718 L692 718 L692 546 L437 546 L437 718 L49 718 L49 931 L440 1343 L692 1343 L692 913 L807 913 Z M449 902 L449 1132 L237 902 L449 902 Z " />
<glyph glyph-name="fivesuperior" unicode="&#x2075;" horiz-adv-x="860" d="M754 1343 L754 1152 L348 1152 L323 1039 Q398 1091 508 1091 Q623 1091 702 1038 Q801 971 801 834 Q801 694 700.5 615 Q600 536 421 536 Q58 536 43 801 L293 801 Q304 724 417 724 Q547 724 547 831 Q547 938 419 938 Q338 938 306 882 L72 882 L160 1343 L754 1343 Z " />
<glyph glyph-name="sixsuperior" unicode="&#x2076;" horiz-adv-x="859" d="M784 1147 L555 1147 Q529 1191 460 1191 Q333 1191 309 1032 Q392 1085 494 1085 Q635 1085 715 1017.5 Q795 950 795 831 Q795 689 676 606 Q577 537 439 537 Q264 537 163 641.5 Q62 746 62 927 Q62 1109 154 1228 Q252 1353 456 1353 Q589 1353 669 1303 Q749 1253 784 1147 Z M439 939 Q385 939 351 908 Q317 877 317 828 Q317 781 351 750 Q385 719 437 719 Q490 719 524.5 750 Q559 781 559 829 Q559 875 524.5 907 Q490 939 439 939 Z " />
<glyph glyph-name="sevensuperior" unicode="&#x2077;" horiz-adv-x="859" d="M760 1343 L760 1153 Q501 901 501 568 Q501 558 501 546 L219 546 Q219 558 219 563 Q219 642 261 765 Q303 888 362 981 Q421 1074 498 1138 Q395 1134 350 1134 L87 1134 L87 1343 L760 1343 Z " />
<glyph glyph-name="eightsuperior" unicode="&#x2078;" horiz-adv-x="859" d="M198 968 Q77 1004 77 1128 Q77 1231 172.5 1292.5 Q268 1354 428 1354 Q590 1354 683 1293 Q780 1229 780 1129 Q780 1005 660 968 Q734 950 775 902 Q816 854 816 786 Q816 671 713.5 604 Q611 537 436 537 Q243 537 151 596 Q40 667 40 782 Q40 852 82 901.5 Q124 951 198 968 Z M427 1194 Q365 1194 330 1172.5 Q295 1151 295 1112 Q295 1028 431 1028 Q492 1028 527 1051 Q562 1074 562 1114 Q562 1194 427 1194 Z M427 892 Q287 892 287 799 Q287 705 430 705 Q568 705 568 798 Q568 841 530 866.5 Q492 892 427 892 Z " />
<glyph glyph-name="ninesuperior" unicode="&#x2079;" horiz-adv-x="859" d="M73 740 L302 740 Q329 694 410 694 Q477 694 504.5 726 Q532 758 547 854 Q487 804 371 804 Q245 804 171 848 Q60 913 60 1056 Q60 1203 181 1284 Q282 1353 419 1353 Q595 1353 696 1248 Q797 1143 797 958 Q797 780 706 663 Q608 535 408 535 Q267 535 187 584 Q107 633 73 740 Z M421 1169 Q368 1169 334 1139 Q300 1109 300 1062 Q300 1016 334.5 984 Q369 952 420 952 Q471 952 505.5 983.5 Q540 1015 540 1060 Q540 1106 505.5 1137.5 Q471 1169 421 1169 Z " />
<glyph glyph-name="zeroinferior" unicode="&#x2080;" horiz-adv-x="859" d="M432 807 Q596 807 698 694 Q800 581 800 400 Q800 221 705 110 Q603 -10 429 -10 Q258 -10 154 107 Q55 217 55 398 Q55 581 157 694 Q259 807 432 807 Z M430 621 Q360 621 329 566.5 Q298 512 298 390 Q298 176 428 176 Q557 176 557 398 Q557 621 430 621 Z " />
<glyph glyph-name="oneinferior" unicode="&#x2081;" horiz-adv-x="860" d="M631 797 L631 0 L363 0 L363 452 L316 452 L252 452 L196 452 L161 452 L161 626 Q406 626 416 797 L631 797 Z " />
<glyph glyph-name="twoinferior" unicode="&#x2082;" horiz-adv-x="859" d="M806 200 L806 0 L50 0 Q49 13 49 18 Q49 161 180 267 Q254 326 421 416 Q489 453 511 475.5 Q533 498 533 530 Q533 564 506 584 Q479 604 433 604 Q368 604 338.5 570 Q309 536 307 457 L66 457 Q65 615 135 693 Q236 807 443 807 Q599 807 691 739 Q790 665 790 550 Q790 477 754 424.5 Q718 372 633 323 Q571 287 454 229 Q400 202 381 191 Q488 198 583 199 L806 200 Z " />
<glyph glyph-name="threeinferior" unicode="&#x2083;" horiz-adv-x="859" d="M73 527 Q78 639 141 706 Q236 807 428 807 Q585 807 676 747 Q774 681 774 576 Q774 467 666 429 Q728 413 763.5 366 Q799 319 799 255 Q799 162 733 95 Q628 -10 428 -10 Q231 -10 133 80 Q48 159 48 281 Q48 288 49 307 L292 307 Q292 297 292 293 Q292 185 417 185 Q536 185 536 264 Q536 305 504 324 Q472 343 401 343 Q389 343 349 342 L349 497 Q368 496 406 496 Q476 496 505 510 Q534 524 534 557 Q534 587 505 605 Q476 623 428 623 Q316 623 315 527 L73 527 Z " />
<glyph glyph-name="fourinferior" unicode="&#x2084;" horiz-adv-x="860" d="M807 367 L807 172 L692 172 L692 0 L437 0 L437 172 L49 172 L49 385 L440 797 L692 797 L692 367 L807 367 Z M449 356 L449 586 L237 356 L449 356 Z " />
<glyph glyph-name="fiveinferior" unicode="&#x2085;" horiz-adv-x="860" d="M754 797 L754 606 L348 606 L323 493 Q398 546 509 546 Q644 546 722.5 476.5 Q801 407 801 288 Q801 148 700.5 69 Q600 -10 421 -10 Q58 -10 43 255 L293 255 Q304 178 417 178 Q547 178 547 285 Q547 392 419 392 Q338 392 306 336 L72 336 L160 797 L754 797 Z " />
<glyph glyph-name="sixinferior" unicode="&#x2086;" horiz-adv-x="859" d="M784 601 L555 601 Q529 645 460 645 Q333 645 309 485 Q393 539 494 539 Q635 539 715 471.5 Q795 404 795 284 Q795 142 676 59 Q577 -10 439 -10 Q264 -10 163 94.5 Q62 199 62 380 Q62 562 154 681 Q252 807 456 807 Q589 807 669 757 Q749 707 784 601 Z M439 392 Q385 392 351 360.5 Q317 329 317 280 Q317 232 351 201 Q385 170 437 170 Q490 170 524.5 201.5 Q559 233 559 281 Q559 328 524.5 360 Q490 392 439 392 Z " />
<glyph glyph-name="seveninferior" unicode="&#x2087;" horiz-adv-x="859" d="M760 797 L760 607 Q501 355 501 22 Q501 12 501 0 L219 0 Q219 12 219 17 Q219 96 261 218.5 Q303 341 362 434 Q422 529 498 592 Q395 588 350 588 L87 588 L87 797 L760 797 Z " />
<glyph glyph-name="eightinferior" unicode="&#x2088;" horiz-adv-x="859" d="M198 422 Q77 458 77 581 Q77 685 172.5 746.5 Q268 808 428 808 Q590 808 683 747 Q780 683 780 583 Q780 459 660 422 Q734 404 775 356 Q816 308 816 239 Q816 124 713.5 57 Q611 -10 436 -10 Q243 -10 151 49 Q40 120 40 235 Q40 305 82 355 Q124 405 198 422 Z M427 648 Q365 648 330 626.5 Q295 605 295 566 Q295 482 431 482 Q492 482 527 505 Q562 528 562 568 Q562 648 427 648 Z M427 345 Q287 345 287 252 Q287 158 430 158 Q568 158 568 251 Q568 294 530 319.5 Q492 345 427 345 Z " />
<glyph glyph-name="nineinferior" unicode="&#x2089;" horiz-adv-x="859" d="M73 194 L302 194 Q329 147 410 147 Q477 147 504.5 179.5 Q532 212 547 308 Q488 257 371 257 Q245 257 171 301 Q60 367 60 510 Q60 657 180 738 Q283 807 419 807 Q595 807 696 702 Q797 597 797 412 Q797 214 693.5 102 Q590 -10 408 -10 Q267 -10 187 38.5 Q107 87 73 194 Z M421 623 Q368 623 334 592.5 Q300 562 300 516 Q300 469 334.5 437 Q369 405 420 405 Q471 405 505.5 436.5 Q540 468 540 514 Q540 560 505.5 591.5 Q471 623 421 623 Z " />
<glyph glyph-name="franc" unicode="&#x20a3;" horiz-adv-x="1477" d="M1145 1365 L1145 1044 L505 1044 L505 793 L781 793 L781 491 L505 491 L505 0 L116 0 L116 1365 L1145 1365 Z M1477 804 L1477 512 Q1409 545 1359 545 Q1264 545 1211 486 Q1158 427 1158 320 L1158 0 L835 0 L835 793 L1145 793 L1145 659 Q1227 816 1386 816 Q1422 816 1477 804 Z " />
<glyph glyph-name="lira" unicode="&#x20a4;" horiz-adv-x="1270" d="M579 875 L808 875 L808 711 L645 711 Q669 626 680 569 L808 569 L808 405 L666 405 Q638 344 583 301 Q606 307 618 310 Q669 323 716 323 Q743 323 825 303 Q879 290 909 290 Q1008 290 1073 392 L1220 122 Q1162 54 1072.5 15 Q983 -24 885 -24 Q829 -24 788 -17 Q747 -10 635 18 Q534 43 474 43 Q371 43 268 -32 L124 183 Q219 253 258.5 298.5 Q298 344 316 405 L127 405 L127 569 L310 569 Q291 644 264 711 L127 711 L127 875 L182 875 Q162 935 162 998 Q162 1158 280 1263 Q417 1385 665 1385 Q1142 1385 1159 910 L809 910 Q803 923 802 961 Q800 1017 763.5 1051 Q727 1085 670 1085 Q617 1085 584 1054.5 Q551 1024 551 975 Q551 936 579 875 Z " />
<glyph glyph-name="peseta" unicode="&#x20a7;" horiz-adv-x="1825" d="M116 1365 L552 1365 Q712 1365 799.5 1346.5 Q887 1328 955 1280 Q1045 1216 1094 1110 Q1143 1004 1143 870 Q1143 666 1017 532 Q954 466 868.5 436.5 Q783 407 655 407 L505 407 L505 0 L116 0 L116 1365 Z M505 1044 L505 716 L596 716 Q686 716 727 753 Q768 790 768 871 Q768 1044 588 1044 L505 1044 Z M1794 273 L1628 273 Q1623 312 1573 312 Q1542 312 1542 295 Q1542 279 1627 264 Q1728 246 1766.5 217 Q1805 188 1805 130 Q1805 58 1744.5 17.5 Q1684 -23 1577 -23 Q1359 -23 1348 139 L1512 139 Q1518 94 1579 94 Q1621 94 1621 116 Q1621 127 1602.5 133 Q1584 139 1478 161 Q1358 186 1358 281 Q1358 346 1415 381.5 Q1472 417 1577 417 Q1685 417 1738 382 Q1791 347 1794 273 Z M1322 407 L1322 285 L1234 285 L1234 160 Q1234 130 1240 123.5 Q1246 117 1272 117 Q1287 117 1322 122 L1322 -14 Q1260 -18 1222 -18 Q1123 -18 1084 15 Q1045 48 1045 131 L1045 285 L975 285 L975 407 L1045 407 L1045 527 L1234 527 L1234 407 L1322 407 Z " />
<glyph glyph-name="Euro" unicode="&#x20ac;" horiz-adv-x="1327" d="M653 867 L1071 867 L979 666 L621 666 Q622 650 626 606 L945 606 L853 405 L694 405 Q734 351 779.5 329 Q825 307 895 307 Q1015 307 1097 398 L1097 -6 Q972 -34 876 -34 Q654 -34 487.5 82.5 Q321 199 247 405 L27 405 L119 606 L203 606 Q200 637 199 666 L27 666 L119 867 L223 867 Q271 1044 380 1168 Q572 1385 892 1385 Q1000 1385 1079 1361.5 Q1158 1338 1259 1276 L1097 921 Q1029 1044 886 1044 Q717 1044 653 867 Z " />
<glyph glyph-name="uni2101" unicode="&#x2101;" horiz-adv-x="2126" d="M1495 1365 L938 0 L764 0 L1321 1365 L1495 1365 Z M628 1365 L954 546 L672 546 L625 673 L355 673 L308 546 L27 546 L352 1365 L628 1365 Z M589 845 L491 1132 L390 845 L589 845 Z M2007 576 L1752 576 Q1752 653 1634 653 Q1533 653 1533 592 Q1533 566 1556.5 556 Q1580 546 1721 512 Q1858 478 1919 441 Q2030 374 2030 256 Q2030 132 1926 57 Q1822 -18 1649 -18 Q1458 -18 1350.5 62 Q1243 142 1242 284 L1512 284 Q1517 221 1551 193.5 Q1585 166 1659 166 Q1776 166 1776 240 Q1776 268 1746.5 282.5 Q1717 297 1597 328 Q1406 379 1347 425 Q1276 480 1276 582 Q1276 695 1377.5 766 Q1479 837 1642 837 Q1815 837 1911 768.5 Q2007 700 2007 576 Z " />
<glyph glyph-name="afii61248" unicode="&#x2105;" horiz-adv-x="1911" d="M1277 1365 L721 0 L547 0 L1103 1365 L1277 1365 Z M768 923 Q748 782 652.5 704 Q557 626 405 626 Q224 626 119 740 Q27 839 27 986 Q27 1158 143 1263 Q244 1356 406 1356 Q556 1356 654 1279 Q752 1202 762 1077 L508 1077 Q502 1117 475.5 1141 Q449 1165 409 1165 Q293 1165 293 984 Q293 817 408 817 Q496 817 514 923 L768 923 Z M1442 740 Q1602 740 1707 641 Q1815 539 1815 377 Q1815 218 1712 115 Q1606 9 1435 9 Q1262 9 1157 113 Q1054 215 1054 373 Q1054 537 1160 637 Q1269 740 1442 740 Z M1434 549 Q1320 549 1320 373 Q1320 200 1435 200 Q1549 200 1549 375 Q1549 549 1434 549 Z " />
<glyph glyph-name="afii61289" unicode="&#x2113;" horiz-adv-x="1024" d="M540 518 L539 508 Q505 271 505 193 Q505 142 529 142 Q542 142 558 172 Q591 236 605 253 Q619 270 641 270 Q692 270 692 208 Q692 110 616.5 28.5 Q541 -53 449 -53 Q308 -53 255 120 Q231 200 229 288 Q177 222 161 222 Q144 222 130 250.5 Q116 279 116 313 Q116 340 127.5 360.5 Q139 381 183 431 Q209 461 246 516 Q301 864 402 1093 Q520 1361 708 1361 Q817 1361 871 1280 Q912 1219 912 1134 Q912 959 745 729 L540 518 Z M563 702 Q637 787 697.5 911 Q758 1035 758 1104 Q758 1169 719 1169 Q675 1169 648 1090 Q594 934 563 702 Z " />
<glyph glyph-name="afii61352" unicode="&#x2116;" horiz-adv-x="2228" d="M2194 67 L1443 67 L1443 308 L2194 308 L2194 67 Z M1350 1365 L1350 0 L950 0 L609 581 L582 632 Q543 704 507 787 Q520 626 520 474 L520 0 L117 0 L117 1365 L530 1365 L826 853 Q919 693 961 597 Q957 657 955 709 Q947 898 947 911 L947 1365 L1350 1365 Z M1826 1085 Q1984 1085 2088 987 Q2194 887 2194 726 Q2194 570 2093 469 Q1988 364 1818 364 Q1649 364 1544 467 Q1443 567 1443 723 Q1443 885 1547 983 Q1655 1085 1826 1085 Z M1818 877 Q1718 877 1718 723 Q1718 572 1818 572 Q1919 572 1919 726 Q1919 877 1818 877 Z " />
<glyph glyph-name="uni2120" unicode="&#x2120;" horiz-adv-x="2005" d="M756 1140 L515 1140 Q516 1218 414 1218 Q334 1218 334 1171 Q334 1147 355.5 1137.5 Q377 1128 506 1093 Q632 1060 688 1022 Q790 955 790 833 Q790 703 692.5 627 Q595 551 430 551 Q255 551 156.5 630 Q58 709 55 852 L312 852 Q315 795 344.5 770 Q374 745 438 745 Q537 745 537 811 Q537 836 508.5 850.5 Q480 865 375 897 Q200 949 150 994 Q87 1050 87 1152 Q87 1269 179.5 1340.5 Q272 1412 422 1412 Q581 1412 668.5 1340.5 Q756 1269 756 1140 Z M1903 1389 L1903 567 L1643 567 L1643 1066 L1482 567 L1277 567 L1116 1062 L1116 567 L855 567 L855 1389 L1259 1389 L1385 937 L1508 1389 L1903 1389 Z " />
<glyph glyph-name="trademark" unicode="&#x2122;" horiz-adv-x="2038" d="M806 1389 L806 1170 L555 1170 L555 567 L271 567 L271 1170 L20 1170 L20 1389 L806 1389 Z M1935 1389 L1935 567 L1675 567 L1675 1066 L1514 567 L1309 567 L1148 1062 L1148 567 L887 567 L887 1389 L1291 1389 L1417 937 L1540 1389 L1935 1389 Z " />
<glyph glyph-name="Omega" unicode="&#x2126;" horiz-adv-x="1365" d="M56 0 L56 339 L280 339 Q185 401 138 463 Q47 581 47 762 Q47 933 134 1085 Q223 1241 378 1325 Q515 1399 683 1399 Q961 1399 1143 1206 Q1228 1115 1274 994 Q1318 880 1318 761 Q1318 570 1216 448 Q1173 397 1086 339 L1309 339 L1309 0 L745 0 L745 312 Q832 355 872 438 Q920 538 920 697 Q920 839 869 934 Q839 989 788.5 1022 Q738 1055 683 1055 Q576 1055 510.5 956 Q445 857 445 697 Q445 543 487.5 449.5 Q530 356 621 312 L621 0 L56 0 Z " />
<glyph glyph-name="estimated" unicode="&#x212e;" horiz-adv-x="1394" d="M1253 470 L460 470 L459 306 Q487 222 529 187 Q600 127 730 127 Q959 127 1051 315 L1054 321 L1061 335 L1236 335 L1230 317 L1224 300 Q1199 227 1180 194 Q1046 -40 727 -40 Q477 -40 332 115 Q194 262 194 518 Q194 788 346 941 Q494 1090 730 1090 Q923 1090 1062 990 Q1232 867 1249 604 Q1251 582 1253 498 L1253 484 L1253 470 Z M1016 619 L1016 756 Q1002 792 978 818 Q925 875 868.5 899 Q812 923 730 923 Q601 923 531 853 Q499 821 465 754 L465 619 L1016 619 Z " />
<glyph glyph-name="onethird" unicode="&#x2153;" horiz-adv-x="2000" d="M631 1343 L631 546 L363 546 L363 998 L316 998 L252 998 L196 998 L161 998 L161 1172 Q406 1172 416 1343 L631 1343 Z M1457 1343 L742 0 L543 0 L1260 1343 L1457 1343 Z M1213 527 Q1218 639 1281 706 Q1376 807 1568 807 Q1725 807 1816 747 Q1914 681 1914 576 Q1914 467 1806 429 Q1868 413 1903.5 366 Q1939 319 1939 255 Q1939 162 1873 95 Q1768 -10 1568 -10 Q1371 -10 1273 80 Q1188 159 1188 281 Q1188 288 1189 307 L1432 307 Q1432 297 1432 293 Q1432 185 1557 185 Q1676 185 1676 264 Q1676 305 1644 324 Q1612 343 1541 343 Q1529 343 1489 342 L1489 497 Q1508 496 1546 496 Q1616 496 1645 510 Q1674 524 1674 557 Q1674 587 1645 605 Q1616 623 1568 623 Q1456 623 1455 527 L1213 527 Z " />
<glyph glyph-name="twothirds" unicode="&#x2154;" horiz-adv-x="2000" d="M806 746 L806 546 L50 546 Q49 559 49 564 Q49 707 180 814 Q252 872 421 963 Q489 1000 511 1022 Q533 1044 533 1076 Q533 1110 506 1130 Q479 1150 433 1150 Q368 1150 338.5 1116 Q309 1082 307 1004 L66 1004 Q65 1161 135 1239 Q236 1353 443 1353 Q599 1353 691 1285 Q790 1212 790 1097 Q790 1024 754 971.5 Q718 919 633 869 Q580 838 454 776 Q400 748 381 737 Q488 745 583 745 L806 746 Z M1457 1343 L741 0 L543 0 L1260 1343 L1457 1343 Z M1213 527 Q1217 639 1281 706 Q1376 807 1568 807 Q1725 807 1815 747 Q1914 681 1914 576 Q1914 467 1806 429 Q1868 413 1903.5 366 Q1939 319 1939 255 Q1939 162 1873 95 Q1768 -10 1568 -10 Q1371 -10 1273 80 Q1188 158 1188 281 Q1188 288 1189 307 L1432 307 Q1432 297 1432 293 Q1432 185 1557 185 Q1676 185 1676 264 Q1676 305 1644 324 Q1612 343 1542 343 Q1529 343 1489 342 L1489 497 Q1508 496 1546 496 Q1616 496 1645 510 Q1674 524 1674 557 Q1674 587 1645 605 Q1616 623 1568 623 Q1456 623 1454 527 L1213 527 Z " />
<glyph glyph-name="uni2155" unicode="&#x2155;" horiz-adv-x="2000" d="M631 1343 L631 546 L363 546 L363 998 L316 998 L252 998 L196 998 L161 998 L161 1172 Q406 1172 416 1343 L631 1343 Z M1457 1343 L742 0 L543 0 L1260 1343 L1457 1343 Z M1894 797 L1894 606 L1488 606 L1464 493 Q1538 546 1649 546 Q1784 546 1863 476.5 Q1942 407 1942 288 Q1942 148 1841 69 Q1740 -10 1562 -10 Q1199 -10 1183 255 L1434 255 Q1445 178 1557 178 Q1688 178 1688 285 Q1688 392 1559 392 Q1479 392 1446 336 L1213 336 L1301 797 L1894 797 Z " />
<glyph glyph-name="uni2156" unicode="&#x2156;" horiz-adv-x="2000" d="M806 746 L806 546 L50 546 Q49 559 49 564 Q49 707 180 814 Q252 872 421 963 Q489 1000 511 1022 Q533 1044 533 1076 Q533 1110 506 1130 Q479 1150 433 1150 Q368 1150 338.5 1116 Q309 1082 307 1004 L66 1004 Q65 1161 135 1239 Q236 1353 443 1353 Q599 1353 691 1285 Q790 1212 790 1097 Q790 1024 754 971.5 Q718 919 633 869 Q580 838 454 776 Q400 748 381 737 Q488 745 583 745 L806 746 Z M1457 1343 L741 0 L543 0 L1260 1343 L1457 1343 Z M1894 797 L1894 606 L1488 606 L1464 493 Q1538 546 1649 546 Q1784 546 1863 476.5 Q1942 407 1942 288 Q1942 148 1841 69 Q1740 -10 1562 -10 Q1199 -10 1183 255 L1434 255 Q1444 178 1558 178 Q1688 178 1688 285 Q1688 392 1559 392 Q1479 392 1446 336 L1213 336 L1301 797 L1894 797 Z " />
<glyph glyph-name="uni2157" unicode="&#x2157;" horiz-adv-x="2000" d="M73 1073 Q78 1185 141 1252 Q236 1353 428 1353 Q585 1353 676 1293 Q774 1227 774 1122 Q774 1013 666 975 Q728 959 763.5 912 Q799 865 799 801 Q799 708 733 641 Q628 536 428 536 Q231 536 133 626 Q48 705 48 827 Q48 834 49 853 L292 853 Q292 843 292 839 Q292 731 417 731 Q536 731 536 810 Q536 889 404 889 Q393 889 349 888 L349 1043 Q368 1042 406 1042 Q476 1042 505 1056 Q534 1070 534 1104 Q534 1133 505 1151 Q476 1169 428 1169 Q316 1169 315 1073 L73 1073 Z M1456 1343 L741 0 L542 0 L1259 1343 L1456 1343 Z M1893 797 L1893 606 L1487 606 L1463 493 Q1537 546 1648 546 Q1783 546 1862 476.5 Q1941 407 1941 288 Q1941 148 1840 69 Q1739 -10 1561 -10 Q1198 -10 1182 255 L1433 255 Q1443 178 1557 178 Q1687 178 1687 285 Q1687 392 1558 392 Q1478 392 1445 336 L1212 336 L1300 797 L1893 797 Z " />
<glyph glyph-name="uni2158" unicode="&#x2158;" horiz-adv-x="2001" d="M807 913 L807 718 L692 718 L692 546 L437 546 L437 718 L49 718 L49 931 L440 1343 L692 1343 L692 913 L807 913 Z M449 902 L449 1132 L237 902 L449 902 Z M1458 1343 L742 0 L543 0 L1261 1343 L1458 1343 Z M1895 797 L1895 606 L1489 606 L1465 493 Q1538 546 1650 546 Q1785 546 1864 476.5 Q1943 407 1943 288 Q1943 148 1842 69 Q1741 -10 1562 -10 Q1200 -10 1185 255 L1435 255 Q1446 178 1559 178 Q1689 178 1689 285 Q1689 392 1560 392 Q1480 392 1447 336 L1214 336 L1302 797 L1895 797 Z " />
<glyph glyph-name="uni2159" unicode="&#x2159;" horiz-adv-x="1999" d="M631 1343 L631 546 L363 546 L363 998 L316 998 L252 998 L196 998 L161 998 L161 1172 Q406 1172 416 1343 L631 1343 Z M1457 1343 L742 0 L543 0 L1260 1343 L1457 1343 Z M1925 601 L1695 601 Q1669 645 1600 645 Q1474 645 1449 485 Q1534 539 1635 539 Q1776 539 1856 471.5 Q1936 404 1936 284 Q1936 142 1817 59 Q1718 -10 1579 -10 Q1404 -10 1303 94.5 Q1202 199 1202 380 Q1202 562 1294 681 Q1392 807 1596 807 Q1729 807 1809 757 Q1889 707 1925 601 Z M1580 392 Q1526 392 1491.5 360.5 Q1457 329 1457 280 Q1457 232 1491 201 Q1525 170 1578 170 Q1630 170 1665 201.5 Q1700 233 1700 281 Q1700 328 1665 360 Q1630 392 1580 392 Z " />
<glyph glyph-name="uni215A" unicode="&#x215a;" horiz-adv-x="1999" d="M754 1343 L754 1152 L348 1152 L323 1039 Q398 1091 508 1091 Q623 1091 702 1038 Q801 971 801 834 Q801 694 700.5 615 Q600 536 421 536 Q58 536 43 801 L293 801 Q304 724 417 724 Q547 724 547 831 Q547 938 419 938 Q338 938 306 882 L72 882 L160 1343 L754 1343 Z M1457 1343 L741 0 L542 0 L1260 1343 L1457 1343 Z M1924 601 L1695 601 Q1669 645 1600 645 Q1474 645 1449 485 Q1533 539 1634 539 Q1776 539 1855.5 471.5 Q1935 404 1935 284 Q1935 142 1816 59 Q1718 -10 1579 -10 Q1404 -10 1303 94.5 Q1202 199 1202 380 Q1202 562 1295 681 Q1392 807 1596 807 Q1729 807 1809 757 Q1889 707 1924 601 Z M1580 392 Q1526 392 1491.5 360.5 Q1457 329 1457 280 Q1457 232 1491 201 Q1525 170 1577 170 Q1630 170 1664.5 201.5 Q1699 233 1699 281 Q1699 328 1664.5 360 Q1630 392 1580 392 Z " />
<glyph glyph-name="oneeighth" unicode="&#x215b;" horiz-adv-x="2000" d="M631 1343 L631 546 L363 546 L363 998 L316 998 L252 998 L196 998 L161 998 L161 1172 Q406 1172 416 1343 L631 1343 Z M1457 1343 L742 0 L543 0 L1260 1343 L1457 1343 Z M1338 422 Q1218 458 1218 581 Q1218 685 1313.5 746.5 Q1409 808 1569 808 Q1731 808 1824 747 Q1921 683 1921 583 Q1921 459 1800 422 Q1874 404 1915 356 Q1956 308 1956 239 Q1956 124 1854 57 Q1752 -10 1576 -10 Q1384 -10 1292 49 Q1181 120 1181 235 Q1181 306 1223 355.5 Q1265 405 1338 422 Z M1568 648 Q1506 648 1471 626.5 Q1436 605 1436 566 Q1436 482 1572 482 Q1633 482 1668 505 Q1703 528 1703 568 Q1703 648 1568 648 Z M1567 345 Q1428 345 1428 252 Q1428 158 1571 158 Q1708 158 1708 251 Q1708 294 1670 319.5 Q1632 345 1567 345 Z " />
<glyph glyph-name="threeeighths" unicode="&#x215c;" horiz-adv-x="1999" d="M73 1073 Q78 1185 141 1252 Q236 1353 428 1353 Q585 1353 676 1293 Q774 1227 774 1122 Q774 1013 666 975 Q728 959 763.5 912 Q799 865 799 801 Q799 708 733 641 Q628 536 428 536 Q231 536 133 626 Q48 705 48 827 Q48 834 49 853 L292 853 Q292 843 292 839 Q292 731 417 731 Q536 731 536 810 Q536 889 404 889 Q393 889 349 888 L349 1043 Q368 1042 406 1042 Q476 1042 505 1056 Q534 1070 534 1104 Q534 1133 505 1151 Q476 1169 428 1169 Q316 1169 315 1073 L73 1073 Z M1456 1343 L741 0 L542 0 L1259 1343 L1456 1343 Z M1338 422 Q1217 458 1217 581 Q1217 685 1312.5 746.5 Q1408 808 1568 808 Q1730 808 1823 747 Q1920 683 1920 583 Q1920 459 1800 422 Q1874 404 1915 356 Q1956 308 1956 239 Q1956 124 1853.5 57 Q1751 -10 1576 -10 Q1383 -10 1291 49 Q1180 120 1180 235 Q1180 306 1222 355.5 Q1264 405 1338 422 Z M1567 648 Q1505 648 1470 626.5 Q1435 605 1435 566 Q1435 482 1571 482 Q1632 482 1667 505 Q1702 528 1702 568 Q1702 648 1567 648 Z M1567 345 Q1427 345 1427 252 Q1427 158 1570 158 Q1708 158 1708 251 Q1708 294 1670 319.5 Q1632 345 1567 345 Z " />
<glyph glyph-name="fiveeighths" unicode="&#x215d;" horiz-adv-x="2000" d="M754 1343 L754 1152 L348 1152 L323 1039 Q398 1091 508 1091 Q623 1091 702 1038 Q801 971 801 834 Q801 694 700.5 615 Q600 536 421 536 Q58 536 43 801 L293 801 Q304 724 417 724 Q547 724 547 831 Q547 938 419 938 Q338 938 306 882 L72 882 L160 1343 L754 1343 Z M1457 1343 L741 0 L542 0 L1260 1343 L1457 1343 Z M1338 422 Q1217 458 1217 581 Q1217 685 1312.5 746.5 Q1408 808 1568 808 Q1731 808 1823 747 Q1920 683 1920 583 Q1920 459 1800 422 Q1873 404 1914 356 Q1955 308 1955 239 Q1955 124 1853 57 Q1751 -10 1575 -10 Q1383 -10 1291 49 Q1180 120 1180 235 Q1180 305 1222 355 Q1264 405 1338 422 Z M1568 648 Q1505 648 1470.5 626.5 Q1436 605 1436 566 Q1436 482 1571 482 Q1633 482 1667.5 505 Q1702 528 1702 568 Q1702 648 1568 648 Z M1567 345 Q1427 345 1427 252 Q1427 158 1570 158 Q1707 158 1707 251 Q1707 294 1669.5 319.5 Q1632 345 1567 345 Z " />
<glyph glyph-name="seveneighths" unicode="&#x215e;" horiz-adv-x="1999" d="M760 1343 L760 1153 Q501 901 501 568 Q501 558 501 546 L219 546 Q219 558 219 563 Q219 642 261 765 Q303 888 362 981 Q421 1074 498 1138 Q395 1134 350 1134 L87 1134 L87 1343 L760 1343 Z M1457 1343 L741 0 L542 0 L1260 1343 L1457 1343 Z M1338 422 Q1217 458 1217 581 Q1217 685 1312.5 746.5 Q1408 808 1568 808 Q1730 808 1823 747 Q1920 683 1920 583 Q1920 459 1800 422 Q1874 404 1915 356 Q1956 308 1956 239 Q1956 124 1853.5 57 Q1751 -10 1575 -10 Q1383 -10 1291 49 Q1180 120 1180 235 Q1180 305 1222 355 Q1264 405 1338 422 Z M1567 648 Q1505 648 1470 626.5 Q1435 605 1435 566 Q1435 482 1571 482 Q1632 482 1667 505 Q1702 528 1702 568 Q1702 606 1666.5 627 Q1631 648 1567 648 Z M1567 345 Q1427 345 1427 252 Q1427 158 1570 158 Q1708 158 1708 251 Q1708 294 1670 319.5 Q1632 345 1567 345 Z " />
<glyph glyph-name="partialdiff" unicode="&#x2202;" horiz-adv-x="1024" d="M87 1052 L131 1352 Q538 1315 756 1133 Q1004 926 1004 567 Q1004 242 817 89 Q688 -16 491 -16 Q283 -16 156 111 Q90 177 52.5 271.5 Q15 366 15 467 Q15 645 133.5 763.5 Q252 882 429 882 Q567 882 636 830 Q604 890 566 922 Q528 954 450 984 Q307 1041 87 1052 Z M508 595 Q448 595 406 553 Q362 509 362 443 Q362 381 404 337 Q447 293 507 293 Q566 293 608.5 337 Q651 381 651 443 Q651 509 607 553 Q565 595 508 595 Z " />
<glyph glyph-name="emptyset" unicode="&#x2205;" horiz-adv-x="1266" d="M899 1365 L997 1314 L899 1133 Q1130 972 1130 717 Q1130 576 1055 455 Q990 350 885 288 Q766 219 622 219 Q528 219 460 252 L332 1 L232 52 L358 301 Q137 463 137 715 Q137 943 308 1091 Q448 1212 636 1212 Q718 1212 802 1183 L899 1365 Z M514 353 Q580 335 633 335 Q801 335 916 458 Q1016 566 1016 715 Q1016 812 971.5 896 Q927 980 852 1027 L514 353 Z M749 1079 Q692 1096 639 1096 Q455 1096 340 958 Q251 851 251 716 Q251 533 410 406 L749 1079 Z " />
<glyph glyph-name="increment" unicode="&#x2206;" horiz-adv-x="1366" d="M20 0 L477 1365 L884 1365 L1347 0 L20 0 Z M517 339 L841 339 L684 954 L517 339 Z " />
<glyph glyph-name="product" unicode="&#x220f;" horiz-adv-x="1365" d="M27 1536 L1338 1536 L1338 1224 L1194 1224 L1194 -199 L1338 -199 L1338 -512 L727 -512 L727 -199 L844 -199 L844 1224 L522 1224 L522 -199 L636 -199 L636 -512 L27 -512 L27 -199 L175 -199 L175 1224 L27 1224 L27 1536 Z " />
<glyph glyph-name="summation" unicode="&#x2211;" horiz-adv-x="1365" d="M1306 1536 L1306 977 L954 977 L910 1176 L508 1176 L994 539 L511 -152 L928 -152 L953 62 L1324 62 L1324 -512 L68 -512 L68 -99 L529 538 L68 1120 L68 1536 L1306 1536 Z " />
<glyph glyph-name="minus" unicode="&#x2212;" horiz-adv-x="1270" d="M116 795 L1154 795 L1154 537 L116 537 L116 795 Z " />
<glyph glyph-name="fraction001" unicode="&#x2215;" horiz-adv-x="281" d="M598 1343 L-118 0 L-317 0 L400 1343 L598 1343 Z " />
<glyph glyph-name="uni2218" unicode="&#x2218;" horiz-adv-x="1024" d="M516 983 Q628 983 710 900 Q793 816 793 696 Q793 578 711 494 Q628 410 512 410 Q396 410 314 493 Q230 578 230 696 Q230 818 314 900 Q398 983 516 983 Z M514 886 Q435 886 381 831 Q326 776 326 696 Q326 618 381 562 Q436 507 512 507 Q589 507 643 562.5 Q697 618 697 696 Q697 777 642 831 Q587 886 514 886 Z " />
<glyph glyph-name="middot" unicode="&#x2219;" horiz-adv-x="623" d="M313 695 Q394 695 452.5 638 Q511 581 511 502 Q511 422 452.5 365 Q394 308 313 308 Q230 308 172 365 Q114 422 114 504 Q114 582 172.5 638.5 Q231 695 313 695 Z " />
<glyph glyph-name="radical" unicode="&#x221a;" horiz-adv-x="1365" d="M1365 1693 L1365 1370 L1055 1370 L745 0 L282 0 L193 470 L0 470 L0 793 L413 793 L450 621 Q477 454 477 322 L500 322 Q506 435 532 613 Q558 791 587 915 L768 1693 L1365 1693 Z " />
<glyph glyph-name="infinity" unicode="&#x221e;" horiz-adv-x="1365" d="M689 522 Q539 361 368 361 Q212 361 114 469 Q34 558 34 695 Q34 859 148 952 Q242 1029 366 1029 Q453 1029 522.5 993.5 Q592 958 677 869 Q822 1029 995 1029 Q1165 1029 1262 908 Q1331 822 1331 696 Q1331 538 1225 444 Q1130 361 999 361 Q832 361 689 522 Z M814 695 Q883 601 955 601 Q997 601 1026.5 628.5 Q1056 656 1056 696 Q1056 735 1026 762.5 Q996 790 954 790 Q882 790 814 695 Z M551 695 Q482 789 411 789 Q368 789 338.5 761.5 Q309 734 309 694 Q309 655 339 627.5 Q369 600 411 600 Q483 600 551 695 Z " />
<glyph glyph-name="integral" unicode="&#x222b;" horiz-adv-x="1024" d="M22 -492 L84 -120 Q139 -140 176 -140 Q263 -140 291 -69 Q301 -43 301 176 L301 774 L301 897 Q301 1066 309 1134 Q324 1258 377 1339 Q508 1536 796 1536 Q878 1536 1002 1516 L940 1144 Q886 1164 846 1164 Q762 1164 734 1094 Q723 1068 723 981 L723 260 Q723 7 721.5 -43.5 Q720 -94 711 -145 Q677 -326 541 -426 Q422 -512 224 -512 Q146 -512 53 -496 Q35 -494 22 -492 Z " />
<glyph glyph-name="similar" unicode="&#x223c;" horiz-adv-x="1024" d="M210 443 L14 610 Q55 717 99 782 Q195 925 339 925 Q377 925 405 917 Q433 909 565 863 Q674 823 699 823 Q733 823 758 846 Q783 869 815 931 L1011 765 Q972 669 944.5 621 Q917 573 877 532 Q797 449 688 449 Q625 449 458 512 Q356 551 323 551 Q266 551 210 443 Z " />
<glyph glyph-name="uni2243" unicode="&#x2243;" horiz-adv-x="1394" d="M284 654 L88 793 Q129 900 173 965 Q270 1108 413 1108 Q451 1108 479.5 1100.5 Q508 1093 639 1046 Q747 1007 773 1007 Q834 1007 889 1087 L1085 948 Q1047 853 1019.5 805 Q992 757 952 715 Q871 632 761 632 Q696 632 532 695 Q432 734 395 734 Q340 734 284 654 Z M87 578 L1082 578 L1082 320 L87 320 L87 578 Z " />
<glyph glyph-name="approxequal" unicode="&#x2248;" horiz-adv-x="1024" d="M210 713 L14 852 Q55 959 99 1024 Q195 1167 339 1167 Q377 1167 405.5 1159.5 Q434 1152 565 1105 Q672 1066 699 1066 Q759 1066 815 1146 L1011 1007 Q972 912 945 864 Q918 816 877 774 Q797 691 686 691 Q623 691 458 754 Q358 793 321 793 Q266 793 210 713 Z M210 202 L14 341 Q55 448 99 513 Q195 656 339 656 Q377 656 405 648.5 Q433 641 565 594 Q673 555 699 555 Q759 555 815 634 L1011 496 Q973 401 945.5 353 Q918 305 877 263 Q797 180 686 180 Q622 180 458 243 Q358 282 321 282 Q266 282 210 202 Z " />
<glyph glyph-name="notequal" unicode="&#x2260;" horiz-adv-x="1024" d="M510 1035 L661 1311 L912 1167 L833 1035 L955 1035 L955 690 L694 690 L620 563 L954 563 L954 218 L495 218 L372 1 L121 145 L171 218 L68 218 L68 563 L296 563 L371 690 L70 690 L70 1035 L510 1035 Z " />
<glyph glyph-name="lessequal" unicode="&#x2264;" horiz-adv-x="1024" d="M955 1393 L955 1008 L519 903 L953 799 L955 414 L68 732 L68 1076 L955 1393 Z M955 362 L955 0 L68 0 L68 362 L955 362 Z " />
<glyph glyph-name="greaterequal" unicode="&#x2265;" horiz-adv-x="1024" d="M68 414 L70 799 L504 903 L68 1008 L68 1393 L955 1076 L955 732 L68 414 Z M68 0 L68 362 L955 362 L955 0 L68 0 Z " />
<glyph glyph-name="lozenge" unicode="&#x25ca;" horiz-adv-x="1365" d="M683 1419 L1214 683 L683 -53 L151 683 L683 1419 Z M683 1238 L279 683 L683 129 L1086 683 L683 1238 Z " />
<glyph glyph-name="uniE001" unicode="&#xe001;" horiz-adv-x="860" d="M455 1160 L455 1047 Q540 1027 590 1010 Q681 979 721 929.5 Q761 880 761 799 Q761 696 675 624 Q599 561 455 549 L455 459 L357 459 L357 551 Q57 589 61 850 L282 850 Q285 795 299 772.5 Q313 750 357 736 L357 862 Q238 892 182 926 Q139 951 113.5 998 Q88 1045 88 1100 Q88 1197 159 1260 Q230 1323 357 1339 L357 1419 L455 1419 L455 1339 Q630 1316 696 1222 Q730 1174 736 1088 L737 1069 L515 1069 Q515 1149 455 1160 Z M357 1162 Q293 1150 293 1118 Q293 1088 357 1072 L357 1162 Z M455 728 Q502 734 521 745.5 Q540 757 540 781 Q540 815 455 840 L455 728 Z " />
<glyph glyph-name="uniE002" unicode="&#xe002;" horiz-adv-x="1270" d="M41 430 L231 430 L262 580 L120 580 L120 819 L309 819 L343 993 L589 993 L554 819 L696 819 L732 993 L977 993 L942 819 L1081 819 L1081 580 L894 580 L864 430 L1003 430 L1003 190 L816 190 L777 0 L532 0 L570 190 L429 190 L390 0 L144 0 L184 190 L41 190 L41 430 Z M477 430 L618 430 L649 580 L507 580 L477 430 Z " />
<glyph glyph-name="uniE003" unicode="&#xe003;" horiz-adv-x="1120" d="M266 1381 Q366 1381 419.5 1317 Q473 1253 473 1133 Q473 1025 417 963.5 Q361 902 261 902 Q163 902 109 962 Q55 1022 55 1134 Q55 1249 111.5 1315 Q168 1381 266 1381 Z M266 1243 Q222 1243 222 1136 Q222 1080 230.5 1059.5 Q239 1039 263 1039 Q306 1039 306 1138 Q306 1243 266 1243 Z M391 505 L239 505 L731 1387 L880 1387 L391 505 Z M859 992 Q959 992 1012.5 928 Q1066 864 1066 744 Q1066 636 1009.5 574.5 Q953 513 854 513 Q755 513 701 573 Q647 633 647 745 Q647 860 704 926 Q761 992 859 992 Z M858 854 Q814 854 814 747 Q814 691 822.5 670.5 Q831 650 855 650 Q899 650 899 748 Q899 854 858 854 Z " />
<glyph glyph-name="ff" unicode="&#xfb00;" horiz-adv-x="1432" d="M146 755 L-10 755 L-10 990 L146 990 L146 1035 Q146 1212 243 1293 Q293 1336 367.5 1354 Q442 1372 565 1372 Q635 1372 725 1367 L725 1108 Q676 1111 645 1111 Q566 1111 541.5 1097.5 Q517 1084 517 1039 L517 990 L839 990 L839 1035 Q839 1211 936 1293 Q986 1336 1060.5 1354 Q1135 1372 1258 1372 Q1328 1372 1418 1367 L1418 1108 Q1369 1111 1338 1111 Q1259 1111 1234.5 1097.5 Q1210 1084 1210 1039 L1210 990 L1411 990 L1411 755 L1217 755 L1217 0 L839 0 L839 755 L524 755 L524 0 L146 0 L146 755 Z " />
<glyph glyph-name="fi" unicode="&#xfb01;" horiz-adv-x="1322" d="M725 1367 L725 1108 Q676 1111 645 1111 Q566 1111 541.5 1097.5 Q517 1084 517 1039 L517 990 L718 990 L718 755 L524 755 L524 0 L146 0 L146 755 L-10 755 L-10 990 L146 990 L146 1035 Q146 1212 243 1293 Q293 1336 367.5 1354 Q442 1372 565 1372 Q634 1372 725 1367 Z M1030 1428 Q1111 1428 1169.5 1371 Q1228 1314 1228 1235 Q1228 1155 1169.5 1098 Q1111 1041 1030 1041 Q947 1041 889 1098 Q831 1155 831 1237 Q831 1315 889.5 1371.5 Q948 1428 1030 1428 Z M1219 990 L1219 0 L841 0 L841 990 L1219 990 Z " />
<glyph glyph-name="fl" unicode="&#xfb02;" horiz-adv-x="1322" d="M725 1367 L725 1108 Q676 1111 645 1111 Q566 1111 541.5 1097.5 Q517 1084 517 1039 L517 990 L718 990 L718 755 L524 755 L524 0 L146 0 L146 755 L-10 755 L-10 990 L146 990 L146 1035 Q146 1212 243 1293 Q293 1336 367.5 1354 Q442 1372 565 1372 Q634 1372 725 1367 Z M1219 1365 L1219 0 L841 0 L841 1365 L1219 1365 Z " />
<glyph glyph-name="ffi" unicode="&#xfb03;" horiz-adv-x="2015" d="M725 1367 L725 1108 Q676 1111 645 1111 Q566 1111 541.5 1097.5 Q517 1084 517 1039 L517 990 L839 990 L839 1035 Q839 1211 936 1293 Q986 1336 1060.5 1354 Q1135 1372 1258 1372 Q1328 1372 1418 1367 L1418 1108 Q1369 1111 1338 1111 Q1259 1111 1234.5 1097.5 Q1210 1084 1210 1039 L1210 990 L1411 990 L1411 755 L1217 755 L1217 0 L839 0 L839 755 L524 755 L524 0 L146 0 L146 755 L-10 755 L-10 990 L146 990 L146 1035 Q146 1212 243 1293 Q293 1336 367.5 1354 Q442 1372 565 1372 Q635 1372 725 1367 Z M1724 1428 Q1805 1428 1863.5 1371 Q1922 1314 1922 1235 Q1922 1155 1863.5 1098 Q1805 1041 1724 1041 Q1641 1041 1583 1098 Q1525 1155 1525 1237 Q1525 1315 1583.5 1371.5 Q1642 1428 1724 1428 Z M1912 990 L1912 0 L1534 0 L1534 990 L1912 990 Z " />
<glyph glyph-name="ffl" unicode="&#xfb04;" horiz-adv-x="2015" d="M725 1367 L725 1108 Q676 1111 645 1111 Q566 1111 541.5 1097.5 Q517 1084 517 1039 L517 990 L839 990 L839 1035 Q839 1211 936 1293 Q986 1336 1060.5 1354 Q1135 1372 1258 1372 Q1328 1372 1418 1367 L1418 1108 Q1369 1111 1338 1111 Q1259 1111 1234.5 1097.5 Q1210 1084 1210 1039 L1210 990 L1411 990 L1411 755 L1217 755 L1217 0 L839 0 L839 755 L524 755 L524 0 L146 0 L146 755 L-10 755 L-10 990 L146 990 L146 1035 Q146 1212 243 1293 Q293 1336 367.5 1354 Q442 1372 565 1372 Q635 1372 725 1367 Z M1912 1365 L1912 0 L1534 0 L1534 1365 L1912 1365 Z " />
</font>
</svg>
