<?xml version="1.0" encoding="utf-8"?>
<!-- Generator: Adobe Illustrator 18.0.0, SVG Export Plug-In . SVG Version: 6.00 Build 0)  -->
<!DOCTYPE svg PUBLIC "-//W3C//DTD SVG 1.1//EN" "http://www.w3.org/Graphics/SVG/1.1/DTD/svg11.dtd">
<svg version="1.1" xmlns="http://www.w3.org/2000/svg"  x="0px" y="0px"
	 viewBox="0 0 646.3 186.7" enable-background="new 0 0 646.3 186.7" xml:space="preserve">
<g id="Guides">
</g>
<g id="BLU_AGE_LEGACY_2011">
	<path id="BLACK_LINE" fill-rule="evenodd" clip-rule="evenodd" fill="#58585A" d="M2.6,89.3h637c0,0,5,0,5,4.5c0,4.5,0,15.5,0,15.5
		l-96,0c0,0,0,0,0-4.5c0-4.5-4.5-4.5-4.5-4.5H2.6V89.3z"/>
	<g id="BLU_AGE_SPACERA">
		<path fill="#4963A8" d="M111.1,61.3c0,1.8-0.3,3.5-1,5.1c-0.7,1.6-1.6,3-2.7,4.1c-1.2,1.2-2.5,2.1-4,2.7c-1.5,0.7-3.2,1-5,1H29.3
			V44.7H23V31.8h73.6V15.1H50.2l-6.4,6.4H29.3V2.2h69.1c1.8,0,3.4,0.3,5,1c1.5,0.7,2.9,1.6,4,2.8s2.1,2.5,2.7,4.1c0.7,1.6,1,3.2,1,5
			v10.1c0,1.8-0.3,3.5-1,5.1c-0.7,1.6-1.6,3-2.7,4.1s-2.5,2.1-4,2.7c-1.5,0.7-3.2,1-5,1c1.8,0,3.4,0.3,5,1c1.5,0.7,2.9,1.6,4,2.8
			s2.1,2.5,2.7,4.1c0.7,1.6,1,3.2,1,5V61.3z M96.6,44.7H43.8v16.6h52.8V44.7z"/>
		<path fill="#4963A8" d="M115,74.2v-72h14.5v59.1h46.4l6.4-6.5h14.5v19.4H115z"/>
		<path fill="#4963A8" d="M282.2,61.2c0,1.8-0.3,3.5-1,5.1c-0.7,1.6-1.6,3-2.7,4.1c-1.2,1.2-2.5,2.1-4,2.7c-1.5,0.7-3.2,1-5,1h-56.3
			c-1.8,0-3.4-0.3-5-1c-1.6-0.7-2.9-1.6-4.1-2.7s-2.1-2.5-2.7-4.1c-0.7-1.6-1-3.3-1-5.1v-59h14.5v59.1h52.9V2.2h14.5V61.2z"/>
		<path fill="#58585A" d="M404.5,44.6v29.6h-69.1c-1.8,0-3.4-0.3-5-1c-1.6-0.7-2.9-1.6-4.1-2.7c-1.2-1.2-2.1-2.5-2.7-4.1
			c-0.7-1.6-1-3.3-1-5.1V44.7c0-1.8,0.3-3.5,1-5c0.7-1.6,1.6-2.9,2.7-4.1c1.2-1.2,2.5-2.1,4.1-2.8c1.6-0.7,3.2-1,5-1h54.6V15.1
			h-46.5l-6.4,6.4h-14.5V2.2h69.1c1.8,0,3.4,0.3,5,1c1.5,0.7,2.9,1.6,4,2.8c1.2,1.2,2.1,2.5,2.7,4.1c0.7,1.6,1,3.2,1,5v16.6h6.2v13
			L404.5,44.6z M390.1,44.7h-52.9v16.6h52.9V44.7z"/>
		<path fill="#58585A" d="M494.8,44.7v29.5h-69.2c-1.8,0-3.4-0.3-5-1c-1.5-0.7-2.9-1.6-4-2.7c-1.2-1.2-2.1-2.5-2.7-4.1
			c-0.7-1.6-1-3.3-1-5.1V15.2c0-1.8,0.3-3.5,1-5c0.6-1.6,1.6-2.9,2.7-4.1c1.2-1.2,2.5-2.1,4.1-2.8c1.6-0.7,3.2-1,5-1h69.1v19.3
			h-14.5l-6.4-6.4h-46.5v46.3h52.9V44.7H454V31.8H501v12.9H494.8z"/>
		<path fill="#58585A" d="M518.4,74.2c-1.8,0-3.4-0.3-5-1c-1.6-0.7-2.9-1.6-4.1-2.7c-1.1-1.2-2-2.5-2.7-4.1c-0.6-1.6-1-3.3-1-5.1
			V44.6l-6.2,0.1v-13h6.2V15.2c0-1.8,0.3-3.5,1-5c0.6-1.6,1.5-2.9,2.7-4.1c1.1-1.2,2.5-2.1,4.1-2.8c1.6-0.7,3.2-1,5-1h69.1v19.3H573
			l-6.4-6.4h-46.4v16.6H573v13h-52.8v16.6h46.4l6.4-6.4h14.5v19.3H518.4z"/>
		<path fill="#58585A" d="M626.5,85.7c0,0.7-0.2,1.3-0.7,1.8c-0.5,0.5-1,0.7-1.7,0.7h-27.3c-0.7,0-1.3-0.2-1.7-0.7s-0.7-1.1-0.7-1.8
			V62.9c0-0.7,0.2-1.3,0.7-1.8s1.1-0.7,1.8-0.7H624c0.7,0,1.3,0.2,1.8,0.7s0.7,1.1,0.7,1.8V85.7z M623.7,62.9h-26.5v22.8h26.5V62.9z
			 M615.9,81.4v-5.9h-10.7v5.9h-3V73h13.7v-3.4h-9.5l-1.3,1.4h-3v-4h14c0.7,0,1.3,0.3,1.8,0.8c0.5,0.5,0.8,1.1,0.8,1.8v2
			c0,0.7-0.3,1.3-0.8,1.8c-0.5,0.5-1.1,0.8-1.8,0.8c0.7,0,1.3,0.3,1.8,0.8c0.5,0.5,0.8,1.1,0.8,1.8v4.5H615.9z"/>
	</g>
	<g id="Make_IT_digital_1_">
		<path fill="#58585A" d="M49.3,147.2l-3.8-18.7h-0.1l-5,7.5l-4.9-7.5h-0.1l-3.9,18.7l-2.3-0.5l4.8-22.8h1.4l5,7.7h0.1l5-7.7h1.4
			l4.8,22.8L49.3,147.2z"/>
		<path fill="#58585A" d="M69.3,147.1l-1.8-4.4H56.2l-1.8,4.4l-2.1-0.8l9-22.5h1l9,22.5L69.3,147.1z M61.9,128.5L61.9,128.5
			l-4.8,11.8l0.1,0.1h9.4l0-0.1L61.9,128.5z"/>
		<path fill="#58585A" d="M74,146.9v-22.6h2.4v22.6H74z M86.8,147.1l-10-15.7l7.8-7.2l1.5,1.6l-6.4,5.8l9,14.2L86.8,147.1z"/>
		<path fill="#58585A" d="M94.3,133.6v11.1h7.3v2.2h-9.7v-22.6h9.7v2.1h-7.3v5.1h8.5v2.1H94.3z"/>
		<path fill="#4963A7" d="M120,146.9v-39.6h4.2v39.6H120z"/>
		<path fill="#4963A7" d="M146.6,111v35.9h-4.2V111h-11.7v-3.7h27.7v3.7H146.6z"/>
		<path fill="#58585A" d="M191.7,135.6c0,1.6-0.3,3-0.9,4.4c-0.6,1.4-1.4,2.6-2.4,3.6c-1,1-2.2,1.8-3.6,2.4
			c-1.4,0.6-2.8,0.9-4.4,0.9h-7.1v-22.6h7.1c1.6,0,3,0.3,4.4,0.9c1.4,0.6,2.6,1.4,3.6,2.4c1,1,1.8,2.2,2.4,3.6
			C191.4,132.6,191.7,134,191.7,135.6z M189.3,135.6c0-1.2-0.2-2.4-0.7-3.5c-0.5-1.1-1.1-2.1-1.9-2.9c-0.8-0.8-1.7-1.5-2.8-2
			c-1.1-0.5-2.2-0.8-3.5-0.8h-4.7v18.3h4.7c1.2,0,2.4-0.2,3.4-0.7c1.1-0.5,2-1.2,2.8-2c0.8-0.8,1.4-1.8,1.9-2.9
			C189.1,138,189.3,136.8,189.3,135.6z"/>
		<path fill="#58585A" d="M196.4,146.9v-22.6h2.4v22.6H196.4z"/>
		<path fill="#58585A" d="M225.6,135.8c0,1.5-0.3,3-0.9,4.3c-0.6,1.3-1.5,2.5-2.5,3.5s-2.3,1.8-3.6,2.4c-1.4,0.6-2.8,0.9-4.4,0.9
			c-1.6,0-3.1-0.3-4.5-0.9c-1.4-0.6-2.6-1.4-3.7-2.4c-1.1-1-1.9-2.2-2.5-3.6c-0.6-1.4-0.9-2.9-0.9-4.5c0-1.6,0.3-3.1,0.9-4.5
			c0.6-1.4,1.4-2.6,2.5-3.6c1-1,2.3-1.8,3.7-2.4c1.4-0.6,2.9-0.9,4.5-0.9c1.4,0,2.8,0.3,4.2,0.8c1.3,0.5,2.5,1.3,3.6,2.2l-1.6,1.7
			c-0.9-0.8-1.8-1.4-2.9-1.8c-1.1-0.4-2.2-0.7-3.4-0.7c-1.3,0-2.5,0.2-3.6,0.7c-1.1,0.5-2.1,1.1-2.9,2c-0.8,0.8-1.5,1.8-2,2.9
			c-0.5,1.1-0.7,2.3-0.7,3.6c0,1.3,0.2,2.4,0.7,3.5c0.5,1.1,1.2,2.1,2,2.9c0.8,0.8,1.8,1.5,2.9,1.9c1.1,0.5,2.3,0.7,3.5,0.7
			c1.2,0,2.3-0.2,3.4-0.7c1.1-0.4,2-1,2.8-1.8c0.8-0.8,1.5-1.7,2-2.7s0.8-2.1,0.9-3.3H215v-2.4h10.6V135.8z"/>
		<path fill="#58585A" d="M229.1,146.9v-22.6h2.4v22.6H229.1z"/>
		<path fill="#58585A" d="M243.5,126.4v20.5h-2.4v-20.5h-6.7v-2.1h15.8v2.1H243.5z"/>
		<path fill="#58585A" d="M267.7,147.1l-1.8-4.4h-11.4l-1.8,4.4l-2.1-0.8l9-22.5h1l9,22.5L267.7,147.1z M260.3,128.5L260.3,128.5
			l-4.8,11.8l0.1,0.1h9.4l0-0.1L260.3,128.5z"/>
		<path fill="#58585A" d="M272.6,146.9v-22.6h2.4v20.4h7.3v2.2H272.6z"/>
	</g>
	<text id="NextGen" transform="matrix(1 0 0 1 315.9212 183.7221)" display="none"><tspan x="0" y="0" display="inline" fill="#4963A7" font-family="'LinotypeBanjomanText-Bold'" font-size="105">N</tspan><tspan x="64.5" y="0" display="inline" fill="#4963A7" font-family="'LinotypeBanjomanText-Bold'" font-size="95">e</tspan><tspan x="109" y="0" display="inline" fill="#4963A7" font-family="'LinotypeBanjomanText-Bold'" font-size="95">x</tspan><tspan x="145.5" y="0" display="inline" fill="#4963A7" font-family="'LinotypeBanjomanText-Bold'" font-size="95">t</tspan><tspan x="178" y="0" display="inline" fill="#4963A7" font-family="'LinotypeBanjomanText-Bold'" font-size="105">G</tspan><tspan x="243.5" y="0" display="inline" fill="#4963A7" font-family="'LinotypeBanjomanText-Bold'" font-size="95">e</tspan><tspan x="288" y="0" display="inline" fill="#4963A7" font-family="'LinotypeBanjomanText-Bold'" font-size="95">n</tspan></text>
</g>
</svg>
